  0
SECTION
  2
HEADER
  0
ENDSEC
  0
SECTION
  2
TABLES
  0
TABLE
  2
LAYER
  0
LAYER
  2
B
 70
0
 62
7
  6
CONTINUOUS
  0
ENDTAB
  0
ENDSEC
  0
SECTION
  2
ENTITIES
  0
POLYLINE
  8
B
 62
1
 39
2
  6
CONTINUOUS
 70
0
 66
1
 10
0.000000
 20
0.000000
  0
VERTEX
  8
B
 10
388337.000000
 20
805114.000000
  0
VERTEX
  8
B
 10
388398.872600
 20
805038.001400
  0
SEQEND
  0
ARC
  8
B
 62
1
 10
388386.929900
 20
805028.278600
 40
15.400000
 50
235.447767559
 51
399.149998870
 39
0
  0
POLYLINE
  8
B
 62
1
 39
2
  6
CONTINUOUS
 70
0
 66
1
 10
0.000000
 20
0.000000
  0
VERTEX
  8
B
 10
388378.195700
 20
805015.595000
  0
VERTEX
  8
B
 10
388341.133300
 20
805041.117100
  0
SEQEND
  0
LINE
  8
B
 62
1
 10
388341.133300
 20
805041.117100
 11
388341.133300
 21
805041.117100
 39
0
  0
LINE
  8
B
 62
1
 10
388341.133300
 20
805041.117100
 11
388336.032900
 21
805044.265700
 39
0
  0
LINE
  8
B
 62
1
 10
388336.032900
 20
805044.265700
 11
388334.189800
 21
805045.039500
 39
0
  0
ARC
  8
B
 62
1
 10
388329.238700
 20
805030.880100
 40
15.000000
 50
70.726649837
 51
173.859050228
 39
0
  0
LINE
  8
B
 62
1
 10
388314.324800
 20
805032.484800
 11
388314.324800
 21
805032.484800
 39
0
  0
LINE
  8
B
 62
1
 10
388314.324800
 20
805032.484800
 11
388314.298500
 21
805028.989700
 39
0
  0
LINE
  8
B
 62
1
 10
388314.298500
 20
805028.989700
 11
388314.887700
 21
805024.529900
 39
0
  0
POLYLINE
  8
B
 62
1
 39
2
  6
CONTINUOUS
 70
0
 66
1
 10
0.000000
 20
0.000000
  0
VERTEX
  8
B
 10
388314.887700
 20
805024.529900
  0
VERTEX
  8
B
 10
388315.046600
 20
805023.542600
  0
SEQEND
  0
LINE
  8
B
 62
1
 10
388315.046600
 20
805023.542600
 11
388315.046600
 21
805023.542600
 39
0
  0
LINE
  8
B
 62
1
 10
388315.046600
 20
805023.542600
 11
388315.349500
 21
805021.565700
 39
0
  0
ARC
  8
B
 62
1
 10
388270.772800
 20
805015.408200
 40
45.000000
 50
316.935093565
 51
367.864685353
 39
0
  0
LINE
  8
B
 62
1
 10
388303.648900
 20
804984.681000
 11
388303.648900
 21
804984.681000
 39
0
  0
LINE
  8
B
 62
1
 10
388303.648900
 20
804984.681000
 11
388302.261800
 21
804983.240300
 39
0
  0
TEXT
  8
B
 62
1
 10
388337.000000
 20
805114.000000
 40
2.000
  1
100.00
 50
39.150
  0
TEXT
  8
B
 62
1
 10
388343.313529
 20
805106.245043
 40
2.000
  1
110.00
 50
39.150
  0
TEXT
  8
B
 62
1
 10
388349.627057
 20
805098.490086
 40
2.000
  1
120.00
 50
39.150
  0
TEXT
  8
B
 62
1
 10
388355.940586
 20
805090.735130
 40
2.000
  1
130.00
 50
39.150
  0
TEXT
  8
B
 62
1
 10
388362.254115
 20
805082.980173
 40
2.000
  1
140.00
 50
39.150
  0
TEXT
  8
B
 62
1
 10
388368.567643
 20
805075.225216
 40
2.000
  1
150.00
 50
39.150
  0
TEXT
  8
B
 62
1
 10
388374.881172
 20
805067.470259
 40
2.000
  1
160.00
 50
39.150
  0
TEXT
  8
B
 62
1
 10
388381.194701
 20
805059.715302
 40
2.000
  1
170.00
 50
39.150
  0
TEXT
  8
B
 62
1
 10
388387.508230
 20
805051.960345
 40
2.000
  1
180.00
 50
39.150
  0
TEXT
  8
B
 62
1
 10
388393.821758
 20
805044.205389
 40
2.000
  1
190.00
 50
39.150
  0
TEXT
  8
B
 62
1
 10
388400.031121
 20
805036.372919
 40
2.000
  1
200.00
 50
31.709
  0
TEXT
  8
B
 62
1
 10
388402.259102
 20
805026.803628
 40
2.000
  1
210.00
 50
354.504
  0
TEXT
  8
B
 62
1
 10
388398.247381
 20
805017.834721
 40
2.000
  1
220.00
 50
317.299
  0
TEXT
  8
B
 62
1
 10
388389.628915
 20
805013.116961
 40
2.000
  1
230.00
 50
280.094
  0
TEXT
  8
B
 62
1
 10
388379.911824
 20
805014.570697
 40
2.000
  1
240.00
 50
242.889
  0
TEXT
  8
B
 62
1
 10
388371.606827
 20
805020.132263
 40
2.000
  1
250.00
 50
235.448
  0
TEXT
  8
B
 62
1
 10
388363.370737
 20
805025.803842
 40
2.000
  1
260.00
 50
235.448
  0
TEXT
  8
B
 62
1
 10
388355.134646
 20
805031.475421
 40
2.000
  1
270.00
 50
235.448
  0
TEXT
  8
B
 62
1
 10
388346.898555
 20
805037.147000
 40
2.000
  1
280.00
 50
235.448
  0
TEXT
  8
B
 62
1
 10
388338.643249
 20
805042.786170
 40
2.000
  1
290.00
 50
237.598
  0
TEXT
  8
B
 62
1
 10
388315.670705
 20
805037.276155
 40
2.000
  1
300.00
 50
154.760
  0
TEXT
  8
B
 62
1
 10
388322.530913
 20
805044.296716
 40
2.000
  1
310.00
 50
116.563
  0
TEXT
  8
B
 62
1
 10
388332.263566
 20
805045.571941
 40
2.000
  1
320.00
 50
78.366
  0
TEXT
  8
B
 62
1
 10
388314.887700
 20
805024.529900
 40
2.000
  1
330.00
 50
9.140
  0
TEXT
  8
B
 62
1
 10
388315.765273
 20
805014.585155
 40
2.000
  1
340.00
 50
358.952
  0
TEXT
  8
B
 62
1
 10
388314.477514
 20
805004.689154
 40
2.000
  1
350.00
 50
346.220
  0
TEXT
  8
B
 62
1
 10
388311.040366
 20
804995.320314
 40
2.000
  1
360.00
 50
333.487
  0
TEXT
  8
B
 62
1
 10
388305.622865
 20
804986.939393
 40
2.000
  1
370.00
 50
320.755
  0
TEXT
  8
B
 62
1
 10
388302.261800
 20
804983.240300
 40
2.000
  1
375.00
 50
315.661
  0
ENDSEC
  0
EOF
