  0
SECTION
  2
HEADER
  9
$ACADVER
  1
AC1014
  9
$ACADMAINTVER
 70
     9
  9
$DWGCODEPAGE
  3
ANSI_1252
  9
$INSBASE
 10
0.0
 20
0.0
 30
0.0
  9
$EXTMIN
 10
2833.54736349732
 20
1198.249983003307
 30
594.3612060546875
  9
$EXTMAX
 10
2867.07505293307
 20
1223.615987563106
 30
603.5051879882812
  9
$LIMMIN
 10
0.0
 20
0.0
  9
$LIMMAX
 10
12.0
 20
9.0
  9
$ORTHOMODE
 70
     0
  9
$REGENMODE
 70
     1
  9
$FILLMODE
 70
     1
  9
$QTEXTMODE
 70
     0
  9
$MIRRTEXT
 70
     1
  9
$DRAGMODE
 70
     2
  9
$LTSCALE
 40
1.0
  9
$OSMODE
 70
    37
  9
$ATTMODE
 70
     1
  9
$TEXTSIZE
 40
0.2
  9
$TRACEWID
 40
0.05
  9
$TEXTSTYLE
  7
STANDARD
  9
$CLAYER
  8
0
  9
$CELTYPE
  6
BYLAYER
  9
$CECOLOR
 62
   256
  9
$CELTSCALE
 40
1.0
  9
$DELOBJ
 70
     1
  9
$DISPSILH
 70
     0
  9
$DIMSCALE
 40
1.0
  9
$DIMASZ
 40
0.18
  9
$DIMEXO
 40
0.0625
  9
$DIMDLI
 40
0.38
  9
$DIMRND
 40
0.0
  9
$DIMDLE
 40
0.0
  9
$DIMEXE
 40
0.18
  9
$DIMTP
 40
0.0
  9
$DIMTM
 40
0.0
  9
$DIMTXT
 40
0.18
  9
$DIMCEN
 40
0.09
  9
$DIMTSZ
 40
0.0
  9
$DIMTOL
 70
     0
  9
$DIMLIM
 70
     0
  9
$DIMTIH
 70
     1
  9
$DIMTOH
 70
     1
  9
$DIMSE1
 70
     0
  9
$DIMSE2
 70
     0
  9
$DIMTAD
 70
     0
  9
$DIMZIN
 70
     0
  9
$DIMBLK
  1

  9
$DIMASO
 70
     1
  9
$DIMSHO
 70
     1
  9
$DIMPOST
  1

  9
$DIMAPOST
  1

  9
$DIMALT
 70
     0
  9
$DIMALTD
 70
     2
  9
$DIMALTF
 40
25.4
  9
$DIMLFAC
 40
1.0
  9
$DIMTOFL
 70
     0
  9
$DIMTVP
 40
0.0
  9
$DIMTIX
 70
     0
  9
$DIMSOXD
 70
     0
  9
$DIMSAH
 70
     0
  9
$DIMBLK1
  1

  9
$DIMBLK2
  1

  9
$DIMSTYLE
  2
STANDARD
  9
$DIMCLRD
 70
     0
  9
$DIMCLRE
 70
     0
  9
$DIMCLRT
 70
     0
  9
$DIMTFAC
 40
1.0
  9
$DIMGAP
 40
0.09
  9
$DIMJUST
 70
     0
  9
$DIMSD1
 70
     0
  9
$DIMSD2
 70
     0
  9
$DIMTOLJ
 70
     1
  9
$DIMTZIN
 70
     0
  9
$DIMALTZ
 70
     0
  9
$DIMALTTZ
 70
     0
  9
$DIMFIT
 70
     3
  9
$DIMUPT
 70
     0
  9
$DIMUNIT
 70
     2
  9
$DIMDEC
 70
     4
  9
$DIMTDEC
 70
     4
  9
$DIMALTU
 70
     2
  9
$DIMALTTD
 70
     2
  9
$DIMTXSTY
  7
STANDARD
  9
$DIMAUNIT
 70
     0
  9
$LUNITS
 70
     2
  9
$LUPREC
 70
     4
  9
$SKETCHINC
 40
0.1
  9
$FILLETRAD
 40
0.5
  9
$AUNITS
 70
     0
  9
$AUPREC
 70
     0
  9
$MENU
  1
.
  9
$ELEVATION
 40
0.0
  9
$PELEVATION
 40
0.0
  9
$THICKNESS
 40
0.0
  9
$LIMCHECK
 70
     0
  9
$CHAMFERA
 40
0.0
  9
$CHAMFERB
 40
0.0
  9
$CHAMFERC
 40
0.0
  9
$CHAMFERD
 40
0.0
  9
$SKPOLY
 70
     0
  9
$TDCREATE
 40
2458612.633414641
  9
$TDUPDATE
 40
2458612.633415579
  9
$TDINDWG
 40
0.0000000116
  9
$TDUSRTIMER
 40
0.0000000116
  9
$USRTIMER
 70
     1
  9
$ANGBASE
 50
0.0
  9
$ANGDIR
 70
     0
  9
$PDMODE
 70
     0
  9
$PDSIZE
 40
0.0
  9
$PLINEWID
 40
0.0
  9
$COORDS
 70
     1
  9
$SPLFRAME
 70
     0
  9
$SPLINETYPE
 70
     6
  9
$SPLINESEGS
 70
     8
  9
$ATTDIA
 70
     0
  9
$ATTREQ
 70
     1
  9
$HANDLING
 70
     1
  9
$HANDSEED
  5
1A8
  9
$SURFTAB1
 70
     6
  9
$SURFTAB2
 70
     6
  9
$SURFTYPE
 70
     6
  9
$SURFU
 70
     6
  9
$SURFV
 70
     6
  9
$UCSNAME
  2

  9
$UCSORG
 10
0.0
 20
0.0
 30
0.0
  9
$UCSXDIR
 10
1.0
 20
0.0
 30
0.0
  9
$UCSYDIR
 10
0.0
 20
1.0
 30
0.0
  9
$PUCSNAME
  2

  9
$PUCSORG
 10
0.0
 20
0.0
 30
0.0
  9
$PUCSXDIR
 10
1.0
 20
0.0
 30
0.0
  9
$PUCSYDIR
 10
0.0
 20
1.0
 30
0.0
  9
$USERI1
 70
     0
  9
$USERI2
 70
     0
  9
$USERI3
 70
     0
  9
$USERI4
 70
     0
  9
$USERI5
 70
     0
  9
$USERR1
 40
0.0
  9
$USERR2
 40
0.0
  9
$USERR3
 40
0.0
  9
$USERR4
 40
0.0
  9
$USERR5
 40
0.0
  9
$WORLDVIEW
 70
     1
  9
$SHADEDGE
 70
     3
  9
$SHADEDIF
 70
    70
  9
$TILEMODE
 70
     1
  9
$MAXACTVP
 70
    64
  9
$PINSBASE
 10
0.0
 20
0.0
 30
0.0
  9
$PLIMCHECK
 70
     0
  9
$PEXTMIN
 10
1.000000000000000E+20
 20
1.000000000000000E+20
 30
1.000000000000000E+20
  9
$PEXTMAX
 10
-1.000000000000000E+20
 20
-1.000000000000000E+20
 30
-1.000000000000000E+20
  9
$PLIMMIN
 10
0.0
 20
0.0
  9
$PLIMMAX
 10
12.0
 20
9.0
  9
$UNITMODE
 70
     0
  9
$VISRETAIN
 70
     1
  9
$PLINEGEN
 70
     0
  9
$PSLTSCALE
 70
     1
  9
$TREEDEPTH
 70
  3020
  9
$PICKSTYLE
 70
     1
  9
$CMLSTYLE
  2
STANDARD
  9
$CMLJUST
 70
     0
  9
$CMLSCALE
 40
1.0
  9
$PROXYGRAPHICS
 70
     1
  9
$MEASUREMENT
 70
     0
  0
ENDSEC
  0
SECTION
  2
CLASSES
  0
CLASS
  1
ACDBDICTIONARYWDFLT
  2
AcDbDictionaryWithDefault
  3
ObjectDBX Classes
 90
        0
280
     0
281
     0
  0
CLASS
  1
VISUALSTYLE
  2
AcDbVisualStyle
  3
ObjectDBX Classes
 90
     4095
280
     0
281
     0
  0
CLASS
  1
MATERIAL
  2
AcDbMaterial
  3
ObjectDBX Classes
 90
     1153
280
     0
281
     0
  0
CLASS
  1
SCALE
  2
AcDbScale
  3
ObjectDBX Classes
 90
     1153
280
     0
281
     0
  0
CLASS
  1
TABLESTYLE
  2
AcDbTableStyle
  3
ObjectDBX Classes
 90
     4095
280
     0
281
     0
  0
CLASS
  1
MLEADERSTYLE
  2
AcDbMLeaderStyle
  3
ACDB_MLEADERSTYLE_CLASS
 90
     4095
280
     0
281
     0
  0
CLASS
  1
SUN
  2
AcDbSun
  3
SCENEOE
 90
     1153
280
     0
281
     0
  0
CLASS
  1
DICTIONARYVAR
  2
AcDbDictionaryVar
  3
ObjectDBX Classes
 90
        0
280
     0
281
     0
  0
CLASS
  1
XRECORD
  2
AcDbXrecord
  3
ObjectDBX Classes
 90
        0
280
     0
281
     0
  0
CLASS
  1
LWPOLYLINE
  2
AcDbPolyline
  3
ObjectDBX Classes
 90
        0
280
     0
281
     1
  0
CLASS
  1
HATCH
  2
AcDbHatch
  3
ObjectDBX Classes
 90
        0
280
     0
281
     1
  0
CLASS
  1
ACDBPLACEHOLDER
  2
AcDbPlaceHolder
  3
ObjectDBX Classes
 90
        0
280
     0
281
     0
  0
CLASS
  1
LAYOUT
  2
AcDbLayout
  3
ObjectDBX Classes
 90
        0
280
     0
281
     0
  0
ENDSEC
  0
SECTION
  2
TABLES
  0
TABLE
  2
VPORT
  5
8
102
{ACAD_XDICTIONARY
360
19D
102
}
330
0
100
AcDbSymbolTable
 70
     1
  0
VPORT
  5
29
330
8
100
AcDbSymbolTableRecord
100
AcDbViewportTableRecord
  2
*ACTIVE
 70
     0
 10
0.0
 20
0.0
 11
1.0
 21
1.0
 12
10.42990654205607
 22
4.5
 13
0.0
 23
0.0
 14
0.5
 24
0.5
 15
0.5
 25
0.5
 16
0.0
 26
0.0
 36
1.0
 17
0.0
 27
0.0
 37
0.0
 40
9.0
 41
1.972972972850329
 42
50.0
 43
0.0
 44
0.0
 50
0.0
 51
0.0
 71
     0
 72
   100
 73
     1
 74
     3
 75
     0
 76
     0
 77
     0
 78
     0
  0
ENDTAB
  0
TABLE
  2
LTYPE
  5
5
330
0
100
AcDbSymbolTable
 70
     1
  0
LTYPE
  5
14
330
5
100
AcDbSymbolTableRecord
100
AcDbLinetypeTableRecord
  2
BYBLOCK
 70
     0
  3

 72
    65
 73
     0
 40
0.0
  0
LTYPE
  5
15
330
5
100
AcDbSymbolTableRecord
100
AcDbLinetypeTableRecord
  2
BYLAYER
 70
     0
  3

 72
    65
 73
     0
 40
0.0
  0
LTYPE
  5
16
330
5
100
AcDbSymbolTableRecord
100
AcDbLinetypeTableRecord
  2
CONTINUOUS
 70
     0
  3
Solid line
 72
    65
 73
     0
 40
0.0
  0
ENDTAB
  0
TABLE
  2
LAYER
  5
2
330
0
100
AcDbSymbolTable
 70
     2
  0
LAYER
  5
10
330
2
100
AcDbSymbolTableRecord
100
AcDbLayerTableRecord
  2
0
 70
     0
 62
     7
  6
CONTINUOUS
  0
LAYER
  5
79
330
2
100
AcDbSymbolTableRecord
100
AcDbLayerTableRecord
  2
BUILDING_PAD_-_BUILDING_PA
 70
     0
 62
     7
  6
CONTINUOUS
  0
ENDTAB
  0
TABLE
  2
STYLE
  5
3
330
0
100
AcDbSymbolTable
 70
     2
  0
STYLE
  5
11
330
3
100
AcDbSymbolTableRecord
100
AcDbTextStyleTableRecord
  2
STANDARD
 70
     0
 40
0.0
 41
1.0
 50
0.0
 71
     0
 42
0.2
  3
txt
  4

  0
STYLE
  5
70
330
3
100
AcDbSymbolTableRecord
100
AcDbTextStyleTableRecord
  2
STANDARD-TXT
 70
     0
 40
0.2
 41
1.0
 50
0.0
 71
     0
 42
0.2
  3
txt
  4

  0
ENDTAB
  0
TABLE
  2
VIEW
  5
6
330
0
100
AcDbSymbolTable
 70
     0
  0
ENDTAB
  0
TABLE
  2
UCS
  5
7
330
0
100
AcDbSymbolTable
 70
     0
  0
ENDTAB
  0
TABLE
  2
APPID
  5
9
330
0
100
AcDbSymbolTable
 70
     4
  0
APPID
  5
12
330
9
100
AcDbSymbolTableRecord
100
AcDbRegAppTableRecord
  2
ACAD
 70
     0
  0
APPID
  5
6E
330
9
100
AcDbSymbolTableRecord
100
AcDbRegAppTableRecord
  2
TRIMBLENAME
 70
     0
  0
APPID
  5
6F
330
9
100
AcDbSymbolTableRecord
100
AcDbRegAppTableRecord
  2
TRIMBLEBNDYTYPE
 70
     0
  0
APPID
  5
1A7
330
9
100
AcDbSymbolTableRecord
100
AcDbRegAppTableRecord
  2
ACAD_MLEADERVER
 70
     0
  0
ENDTAB
  0
TABLE
  2
DIMSTYLE
  5
A
330
0
100
AcDbSymbolTable
 70
     2
  0
DIMSTYLE
105
27
330
A
100
AcDbSymbolTableRecord
100
AcDbDimStyleTableRecord
  2
STANDARD
 70
     0
  3

  4

  5

  6
OPEN
  7
OPEN
 40
1.0
 41
12.0
 42
6.0
 43
0.38
 44
6.0
 45
0.001
 46
0.0
 47
0.0
 48
0.0
140
3.0
141
0.09
142
0.0
143
25.4
144
1.0
145
0.0
146
1.0
147
3.0
 71
     0
 72
     0
 73
     0
 74
     1
 75
     0
 76
     0
 77
     1
 78
     0
170
     0
171
     2
172
     0
173
     1
174
     0
175
     0
176
     0
177
     0
178
     0
270
     2
271
     3
272
     4
273
     2
274
     2
340
11
275
     1
280
     0
281
     0
282
     0
283
     1
284
     0
285
     0
286
     0
287
     5
288
     0
  0
DIMSTYLE
105
71
330
A
100
AcDbSymbolTableRecord
100
AcDbDimStyleTableRecord
  2
STANDARD-DWG
 70
     0
  3

  4

  5

  6
OPEN
  7
OPEN
 40
1.0
 41
12.0
 42
6.0
 43
0.38
 44
6.0
 45
0.001
 46
0.0
 47
0.0
 48
0.0
140
0.12
141
0.09
142
0.0
143
25.4
144
1.0
145
0.0
146
1.0
147
3.0
 71
     0
 72
     0
 73
     0
 74
     1
 75
     0
 76
     0
 77
     1
 78
     0
170
     0
171
     2
172
     0
173
     1
174
     0
175
     0
176
     0
177
     0
178
     0
270
     2
271
     3
272
     4
273
     2
274
     2
340
70
275
     1
280
     0
281
     0
282
     0
283
     1
284
     0
285
     0
286
     0
287
     5
288
     0
  0
ENDTAB
  0
TABLE
  2
BLOCK_RECORD
  5
1
330
0
100
AcDbSymbolTable
 70
     1
  0
BLOCK_RECORD
  5
1F
330
1
100
AcDbSymbolTableRecord
100
AcDbBlockTableRecord
  2
*MODEL_SPACE
  0
BLOCK_RECORD
  5
1B
330
1
100
AcDbSymbolTableRecord
100
AcDbBlockTableRecord
  2
*PAPER_SPACE
  0
BLOCK_RECORD
  5
72
330
1
100
AcDbSymbolTableRecord
100
AcDbBlockTableRecord
  2
_OPEN
  0
ENDTAB
  0
ENDSEC
  0
SECTION
  2
BLOCKS
  0
BLOCK
  5
20
330
1F
100
AcDbEntity
  8
0
100
AcDbBlockBegin
  2
*MODEL_SPACE
 70
     0
 10
0.0
 20
0.0
 30
0.0
  3
*MODEL_SPACE
  1

  0
ENDBLK
  5
21
330
1F
100
AcDbEntity
  8
0
100
AcDbBlockEnd
  0
BLOCK
  5
1C
330
1B
100
AcDbEntity
 67
     1
  8
0
100
AcDbBlockBegin
  2
*PAPER_SPACE
 70
     0
 10
0.0
 20
0.0
 30
0.0
  3
*PAPER_SPACE
  1

  0
ENDBLK
  5
1D
330
1B
100
AcDbEntity
 67
     1
  8
0
100
AcDbBlockEnd
  0
BLOCK
  5
73
330
72
100
AcDbEntity
  8
0
100
AcDbBlockBegin
  2
_OPEN
 70
     0
 10
0.0
 20
0.0
 30
0.0
  3
_OPEN
  1

  0
LINE
  5
75
330
72
100
AcDbEntity
  8
0
  6
BYBLOCK
 62
     0
100
AcDbLine
 10
-1.0
 20
0.166667
 30
0.0
 11
0.0
 21
0.0
 31
0.0
  0
LINE
  5
76
330
72
100
AcDbEntity
  8
0
  6
BYBLOCK
 62
     0
100
AcDbLine
 10
-1.0
 20
-0.166667
 30
0.0
 11
0.0
 21
0.0
 31
0.0
  0
LINE
  5
77
330
72
100
AcDbEntity
  8
0
  6
BYBLOCK
 62
     0
100
AcDbLine
 10
0.0
 20
0.0
 30
0.0
 11
-1.0
 21
0.0
 31
0.0
  0
ENDBLK
  5
74
330
72
100
AcDbEntity
  8
0
100
AcDbBlockEnd
  0
ENDSEC
  0
SECTION
  2
ENTITIES
  0
3DFACE
  5
78
330
1F
100
AcDbEntity
  8
BUILDING_PAD_-_BUILDING_PA
 62
     8
100
AcDbFace
 10
2862.609852562835
 20
1203.046326776823
 30
598.9332275390625
 11
2864.436642475854
 21
1216.719708653518
 31
598.9332275390625
 12
2863.365186187378
 22
1202.986698034749
 32
598.9332275390625
 13
2862.609852562835
 23
1203.046326776823
 33
598.9332275390625
  0
3DFACE
  5
7A
330
1F
100
AcDbEntity
  8
BUILDING_PAD_-_BUILDING_PA
 62
     8
100
AcDbFace
 10
2839.194510202032
 20
1204.894817781112
 30
598.9332275390625
 11
2838.079365244573
 21
1200.396617717966
 31
603.5051879882812
 12
2838.439176577489
 22
1204.954446523186
 32
598.9332275390625
 13
2839.194510202032
 23
1204.894817781112
 33
598.9332275390625
  0
3DFACE
  5
7B
330
1F
100
AcDbEntity
  8
BUILDING_PAD_-_BUILDING_PA
 62
     8
100
AcDbFace
 10
2835.574386901397
 20
1218.9981984988
 30
598.9332275390625
 11
2836.33391994283
 21
1218.938238239713
 31
598.9332275390625
 12
2834.662508454779
 22
1205.252590233555
 32
598.9332275390625
 13
2835.574386901397
 23
1218.9981984988
 33
598.9332275390625
  0
3DFACE
  5
7C
330
1F
100
AcDbEntity
  8
BUILDING_PAD_-_BUILDING_PA
 62
     8
100
AcDbFace
 10
2862.917576392988
 20
1216.83962917169
 30
598.9332275390625
 11
2862.158043351555
 21
1216.899589430777
 31
598.9332275390625
 12
2863.277387725905
 22
1221.39745797691
 32
594.3612060546875
 13
2862.917576392988
 23
1216.83962917169
 33
598.9332275390625
  0
3DFACE
  5
7D
330
1F
100
AcDbEntity
  8
BUILDING_PAD_-_BUILDING_PA
 62
     8
100
AcDbFace
 10
2859.119911185822
 20
1217.139430467122
 30
598.9332275390625
 11
2858.360378144389
 21
1217.199390726209
 31
598.9332275390625
 12
2859.479722518739
 22
1221.697259272342
 32
594.3612060546875
 13
2859.119911185822
 23
1217.139430467122
 33
598.9332275390625
  0
3DFACE
  5
7E
330
1F
100
AcDbEntity
  8
BUILDING_PAD_-_BUILDING_PA
 62
     8
100
AcDbFace
 10
2865.631187061004
 20
1202.807811808527
 30
598.9332275390625
 11
2864.875853436462
 21
1202.867440550601
 31
598.9332275390625
 12
2866.715241600153
 22
1216.539827876259
 32
598.9332275390625
 13
2865.631187061004
 23
1202.807811808527
 33
598.9332275390625
  0
3DFACE
  5
7F
330
1F
100
AcDbEntity
  8
BUILDING_PAD_-_BUILDING_PA
 62
     8
100
AcDbFace
 10
2855.322245978657
 20
1217.439231762554
 30
598.9332275390625
 11
2854.562712937224
 21
1217.499192021641
 31
598.9332275390625
 12
2855.682057311574
 22
1221.997060567774
 32
594.3612060546875
 13
2855.322245978657
 23
1217.439231762554
 33
598.9332275390625
  0
3DFACE
  5
80
330
1F
100
AcDbEntity
  8
BUILDING_PAD_-_BUILDING_PA
 62
     8
100
AcDbFace
 10
2861.854518938293
 20
1203.105955518896
 30
598.9332275390625
 11
2861.099185313752
 21
1203.16558426097
 31
598.9332275390625
 12
2862.917576392988
 22
1216.83962917169
 32
598.9332275390625
 13
2861.854518938293
 23
1203.105955518896
 33
598.9332275390625
  0
3DFACE
  5
81
330
1F
100
AcDbEntity
  8
BUILDING_PAD_-_BUILDING_PA
 62
     8
100
AcDbFace
 10
2851.524580771491
 20
1217.739033057986
 30
598.9332275390625
 11
2850.765047730059
 21
1217.798993317072
 31
598.9332275390625
 12
2851.884392104408
 22
1222.296861863206
 32
594.3612060546875
 13
2851.524580771491
 23
1217.739033057986
 33
598.9332275390625
  0
3DFACE
  5
82
330
1F
100
AcDbEntity
  8
BUILDING_PAD_-_BUILDING_PA
 62
     8
100
AcDbFace
 10
2858.077850815583
 20
1203.404099229266
 30
598.9332275390625
 11
2857.322517191041
 21
1203.463727971339
 31
598.9332275390625
 12
2859.119911185822
 22
1217.139430467122
 32
598.9332275390625
 13
2858.077850815583
 23
1203.404099229266
 33
598.9332275390625
  0
3DFACE
  5
83
330
1F
100
AcDbEntity
  8
BUILDING_PAD_-_BUILDING_PA
 62
     8
100
AcDbFace
 10
2847.726915564326
 20
1218.038834353418
 30
598.9332275390625
 11
2846.967382522893
 21
1218.098794612504
 31
598.9332275390625
 12
2848.086726897243
 22
1222.596663158638
 32
594.3612060546875
 13
2847.726915564326
 23
1218.038834353418
 33
598.9332275390625
  0
3DFACE
  5
84
330
1F
100
AcDbEntity
  8
BUILDING_PAD_-_BUILDING_PA
 62
     8
100
AcDbFace
 10
2854.301182692873
 20
1203.702242939635
 30
598.9332275390625
 11
2853.545849068331
 21
1203.761871681709
 31
598.9332275390625
 12
2855.322245978657
 22
1217.439231762554
 32
598.9332275390625
 13
2854.301182692873
 23
1203.702242939635
 33
598.9332275390625
  0
3DFACE
  5
85
330
1F
100
AcDbEntity
  8
BUILDING_PAD_-_BUILDING_PA
 62
     8
100
AcDbFace
 10
2842.769995607212
 20
1223.016384972242
 30
594.3612060546875
 11
2842.410184274295
 21
1218.458556167022
 31
598.9332275390625
 12
2841.650651232861
 22
1218.518516426109
 32
598.9332275390625
 13
2842.769995607212
 23
1223.016384972242
 33
594.3612060546875
  0
3DFACE
  5
86
330
1F
100
AcDbEntity
  8
BUILDING_PAD_-_BUILDING_PA
 62
     8
100
AcDbFace
 10
2850.524514570162
 20
1204.000386650004
 30
598.9332275390625
 11
2849.769180945621
 21
1204.060015392078
 31
598.9332275390625
 12
2851.524580771491
 22
1217.739033057986
 32
598.9332275390625
 13
2850.524514570162
 23
1204.000386650004
 33
598.9332275390625
  0
3DFACE
  5
87
330
1F
100
AcDbEntity
  8
BUILDING_PAD_-_BUILDING_PA
 62
     8
100
AcDbFace
 10
2840.131585149995
 20
1218.638436944281
 30
598.9332275390625
 11
2839.372052108562
 21
1218.698397203368
 31
598.9332275390625
 12
2840.491396482912
 22
1223.196265749501
 32
594.3612060546875
 13
2840.131585149995
 23
1218.638436944281
 33
598.9332275390625
  0
3DFACE
  5
88
330
1F
100
AcDbEntity
  8
BUILDING_PAD_-_BUILDING_PA
 62
     8
100
AcDbFace
 10
2846.747846447452
 20
1204.298530360373
 30
598.9332275390625
 11
2845.99251282291
 21
1204.358159102447
 31
598.9332275390625
 12
2847.726915564326
 22
1218.038834353418
 32
598.9332275390625
 13
2846.747846447452
 23
1204.298530360373
 33
598.9332275390625
  0
3DFACE
  5
89
330
1F
100
AcDbEntity
  8
BUILDING_PAD_-_BUILDING_PA
 62
     8
100
AcDbFace
 10
2836.33391994283
 20
1218.938238239713
 30
598.9332275390625
 11
2835.574386901397
 21
1218.9981984988
 31
598.9332275390625
 12
2836.693731275747
 22
1223.496067044933
 32
594.3612060546875
 13
2836.33391994283
 23
1218.938238239713
 33
598.9332275390625
  0
3DFACE
  5
8A
330
1F
100
AcDbEntity
  8
BUILDING_PAD_-_BUILDING_PA
 62
     8
100
AcDbFace
 10
2838.439176577489
 20
1204.954446523186
 30
598.9332275390625
 11
2840.131585149995
 21
1218.638436944281
 31
598.9332275390625
 12
2839.194510202032
 22
1204.894817781112
 32
598.9332275390625
 13
2838.439176577489
 23
1204.954446523186
 33
598.9332275390625
  0
3DFACE
  5
8B
330
1F
100
AcDbEntity
  8
BUILDING_PAD_-_BUILDING_PA
 62
     8
100
AcDbFace
 10
2841.460511075658
 20
1204.71593155489
 30
598.9332275390625
 11
2840.705177451116
 21
1204.775560296964
 31
598.9332275390625
 12
2842.410184274295
 22
1218.458556167022
 32
598.9332275390625
 13
2841.460511075658
 23
1204.71593155489
 33
598.9332275390625
  0
3DFACE
  5
8C
330
1F
100
AcDbEntity
  8
BUILDING_PAD_-_BUILDING_PA
 62
     8
100
AcDbFace
 10
2839.194510202032
 20
1204.894817781112
 30
598.9332275390625
 11
2839.949843826574
 21
1204.835189039038
 31
598.9332275390625
 12
2838.834698869115
 22
1200.336988975892
 32
603.5051879882812
 13
2839.194510202032
 23
1204.894817781112
 33
598.9332275390625
  0
3DFACE
  5
8D
330
1F
100
AcDbEntity
  8
BUILDING_PAD_-_BUILDING_PA
 62
     8
100
AcDbFace
 10
2836.928509328406
 20
1205.073704007334
 30
598.9332275390625
 11
2836.173175703863
 21
1205.133332749408
 31
598.9332275390625
 12
2837.852986025696
 22
1218.818317721541
 32
598.9332275390625
 13
2836.928509328406
 23
1205.073704007334
 33
598.9332275390625
  0
3DFACE
  5
8E
330
1F
100
AcDbEntity
  8
BUILDING_PAD_-_BUILDING_PA
 62
     8
100
AcDbFace
 10
2842.971178324742
 20
1204.596674070743
 30
598.9332275390625
 11
2843.726511949284
 21
1204.537045328669
 31
598.9332275390625
 12
2842.611366991825
 22
1200.038845265523
 32
603.5051879882812
 13
2842.971178324742
 23
1204.596674070743
 33
598.9332275390625
  0
3DFACE
  5
8F
330
1F
100
AcDbEntity
  8
BUILDING_PAD_-_BUILDING_PA
 62
     8
100
AcDbFace
 10
2840.891118191429
 20
1218.578476685195
 30
598.9332275390625
 11
2839.194510202032
 21
1204.894817781112
 31
598.9332275390625
 12
2840.131585149995
 22
1218.638436944281
 32
598.9332275390625
 13
2840.891118191429
 23
1218.578476685195
 33
598.9332275390625
  0
3DFACE
  5
90
330
1F
100
AcDbEntity
  8
BUILDING_PAD_-_BUILDING_PA
 62
     8
100
AcDbFace
 10
2850.524514570162
 20
1204.000386650004
 30
598.9332275390625
 11
2849.409369612704
 21
1199.502186586858
 31
603.5051879882812
 12
2849.769180945621
 22
1204.060015392078
 32
598.9332275390625
 13
2850.524514570162
 23
1204.000386650004
 33
598.9332275390625
  0
3DFACE
  5
91
330
1F
100
AcDbEntity
  8
BUILDING_PAD_-_BUILDING_PA
 62
     8
100
AcDbFace
 10
2844.688783398594
 20
1218.278675389763
 30
598.9332275390625
 11
2842.971178324742
 21
1204.596674070743
 31
598.9332275390625
 12
2843.929250357161
 22
1218.33863564885
 32
598.9332275390625
 13
2844.688783398594
 23
1218.278675389763
 33
598.9332275390625
  0
3DFACE
  5
92
330
1F
100
AcDbEntity
  8
BUILDING_PAD_-_BUILDING_PA
 62
     8
100
AcDbFace
 10
2854.301182692873
 20
1203.702242939635
 30
598.9332275390625
 11
2853.186037735414
 21
1199.204042876489
 31
603.5051879882812
 12
2853.545849068331
 22
1203.761871681709
 32
598.9332275390625
 13
2854.301182692873
 23
1203.702242939635
 33
598.9332275390625
  0
3DFACE
  5
93
330
1F
100
AcDbEntity
  8
BUILDING_PAD_-_BUILDING_PA
 62
     8
100
AcDbFace
 10
2848.258513696536
 20
1204.179272876226
 30
598.9332275390625
 11
2847.503180071994
 21
1204.2389016183
 31
598.9332275390625
 12
2849.245981647192
 22
1217.918913835245
 32
598.9332275390625
 13
2848.258513696536
 23
1204.179272876226
 33
598.9332275390625
  0
3DFACE
  5
94
330
1F
100
AcDbEntity
  8
BUILDING_PAD_-_BUILDING_PA
 62
     8
100
AcDbFace
 10
2854.301182692873
 20
1203.702242939635
 30
598.9332275390625
 11
2855.056516317415
 21
1203.642614197561
 31
598.9332275390625
 12
2853.941371359956
 22
1199.144414134415
 32
603.5051879882812
 13
2854.301182692873
 23
1203.702242939635
 33
598.9332275390625
  0
3DFACE
  5
95
330
1F
100
AcDbEntity
  8
BUILDING_PAD_-_BUILDING_PA
 62
     8
100
AcDbFace
 10
2852.035181819247
 20
1203.881129165856
 30
598.9332275390625
 11
2851.279848194705
 21
1203.94075790793
 31
598.9332275390625
 12
2853.043646854358
 22
1217.619112539813
 32
598.9332275390625
 13
2852.035181819247
 23
1203.881129165856
 33
598.9332275390625
  0
3DFACE
  5
96
330
1F
100
AcDbEntity
  8
BUILDING_PAD_-_BUILDING_PA
 62
     8
100
AcDbFace
 10
2858.077850815583
 20
1203.404099229266
 30
598.9332275390625
 11
2858.833184440125
 21
1203.344470487192
 31
598.9332275390625
 12
2857.718039482666
 22
1198.846270424046
 32
603.5051879882812
 13
2858.077850815583
 23
1203.404099229266
 33
598.9332275390625
  0
3DFACE
  5
97
330
1F
100
AcDbEntity
  8
BUILDING_PAD_-_BUILDING_PA
 62
     8
100
AcDbFace
 10
2856.08177902009
 20
1217.379271503468
 30
598.9332275390625
 11
2854.301182692873
 21
1203.702242939635
 31
598.9332275390625
 12
2855.322245978657
 22
1217.439231762554
 32
598.9332275390625
 13
2856.08177902009
 23
1217.379271503468
 33
598.9332275390625
  0
3DFACE
  5
98
330
1F
100
AcDbEntity
  8
BUILDING_PAD_-_BUILDING_PA
 62
     8
100
AcDbFace
 10
2865.631187061004
 20
1202.807811808527
 30
598.9332275390625
 11
2864.516042103545
 21
1198.309611745381
 31
603.5051879882812
 12
2864.875853436462
 22
1202.867440550601
 32
598.9332275390625
 13
2865.631187061004
 23
1202.807811808527
 33
598.9332275390625
  0
3DFACE
  5
99
330
1F
100
AcDbEntity
  8
BUILDING_PAD_-_BUILDING_PA
 62
     8
100
AcDbFace
 10
2859.879444227256
 20
1217.079470208036
 30
598.9332275390625
 11
2858.077850815583
 21
1203.404099229266
 31
598.9332275390625
 12
2859.119911185822
 22
1217.139430467122
 32
598.9332275390625
 13
2859.879444227256
 23
1217.079470208036
 33
598.9332275390625
  0
3DFACE
  5
9A
330
1F
100
AcDbEntity
  8
BUILDING_PAD_-_BUILDING_PA
 62
     8
100
AcDbFace
 10
2862.609852562835
 20
1203.046326776823
 30
598.9332275390625
 11
2863.365186187378
 21
1202.986698034749
 31
598.9332275390625
 12
2862.250041229919
 22
1198.488497971603
 32
603.5051879882812
 13
2862.609852562835
 23
1203.046326776823
 33
598.9332275390625
  0
3DFACE
  5
9B
330
1F
100
AcDbEntity
  8
BUILDING_PAD_-_BUILDING_PA
 62
     8
100
AcDbFace
 10
2867.07505293307
 20
1221.097656681479
 30
594.3612060546875
 11
2866.715241600153
 21
1216.539827876259
 31
598.9332275390625
 12
2865.95570855872
 22
1216.599788135345
 32
598.9332275390625
 13
2867.07505293307
 23
1221.097656681479
 33
594.3612060546875
  0
3DFACE
  5
9C
330
1F
100
AcDbEntity
  8
BUILDING_PAD_-_BUILDING_PA
 62
     8
100
AcDbFace
 10
2864.436642475854
 20
1216.719708653518
 30
598.9332275390625
 11
2863.677109434421
 21
1216.779668912604
 31
598.9332275390625
 12
2864.796453808771
 22
1221.277537458737
 32
594.3612060546875
 13
2864.436642475854
 23
1216.719708653518
 33
598.9332275390625
  0
3DFACE
  5
9D
330
1F
100
AcDbEntity
  8
BUILDING_PAD_-_BUILDING_PA
 62
     8
100
AcDbFace
 10
2861.398510310122
 20
1216.959549689863
 30
598.9332275390625
 11
2862.517854684471
 21
1221.457418235997
 31
594.3612060546875
 12
2862.158043351555
 22
1216.899589430777
 32
598.9332275390625
 13
2861.398510310122
 23
1216.959549689863
 33
598.9332275390625
  0
3DFACE
  5
9E
330
1F
100
AcDbEntity
  8
BUILDING_PAD_-_BUILDING_PA
 62
     8
100
AcDbFace
 10
2856.841312061523
 20
1217.319311244381
 30
598.9332275390625
 11
2856.08177902009
 21
1217.379271503468
 31
598.9332275390625
 12
2857.20112339444
 22
1221.877140049601
 32
594.3612060546875
 13
2856.841312061523
 23
1217.319311244381
 33
598.9332275390625
  0
3DFACE
  5
9F
330
1F
100
AcDbEntity
  8
BUILDING_PAD_-_BUILDING_PA
 62
     8
100
AcDbFace
 10
2853.803179895791
 20
1217.559152280727
 30
598.9332275390625
 11
2854.92252427014
 21
1222.05702082686
 31
594.3612060546875
 12
2854.562712937224
 22
1217.499192021641
 32
598.9332275390625
 13
2853.803179895791
 23
1217.559152280727
 33
598.9332275390625
  0
3DFACE
  5
A0
330
1F
100
AcDbEntity
  8
BUILDING_PAD_-_BUILDING_PA
 62
     8
100
AcDbFace
 10
2849.245981647192
 20
1217.918913835245
 30
598.9332275390625
 11
2848.48644860576
 21
1217.978874094332
 31
598.9332275390625
 12
2849.605792980109
 22
1222.476742640465
 32
594.3612060546875
 13
2849.245981647192
 23
1217.918913835245
 33
598.9332275390625
  0
3DFACE
  5
A1
330
1F
100
AcDbEntity
  8
BUILDING_PAD_-_BUILDING_PA
 62
     8
100
AcDbFace
 10
2846.20784948146
 20
1218.158754871591
 30
598.9332275390625
 11
2847.32719385581
 21
1222.656623417724
 31
594.3612060546875
 12
2846.967382522893
 22
1218.098794612504
 32
598.9332275390625
 13
2846.20784948146
 23
1218.158754871591
 33
598.9332275390625
  0
3DFACE
  5
A2
330
1F
100
AcDbEntity
  8
BUILDING_PAD_-_BUILDING_PA
 62
     8
100
AcDbFace
 10
2842.410184274295
 20
1218.458556167022
 30
598.9332275390625
 11
2843.529528648644
 21
1222.956424713156
 31
594.3612060546875
 12
2843.169717315728
 22
1218.398595907936
 32
598.9332275390625
 13
2842.410184274295
 23
1218.458556167022
 33
598.9332275390625
  0
3DFACE
  5
A3
330
1F
100
AcDbEntity
  8
BUILDING_PAD_-_BUILDING_PA
 62
     8
100
AcDbFace
 10
2838.612519067129
 20
1218.758357462454
 30
598.9332275390625
 11
2839.731863441479
 21
1223.256226008588
 31
594.3612060546875
 12
2839.372052108562
 22
1218.698397203368
 32
598.9332275390625
 13
2838.612519067129
 23
1218.758357462454
 33
598.9332275390625
  0
3DFACE
  5
A4
330
1F
100
AcDbEntity
  8
BUILDING_PAD_-_BUILDING_PA
 62
     8
100
AcDbFace
 10
2835.417842079321
 20
1205.192961491481
 30
598.9332275390625
 11
2834.302697121862
 21
1200.694761428336
 31
603.5051879882812
 12
2834.662508454779
 22
1205.252590233555
 32
598.9332275390625
 13
2835.417842079321
 23
1205.192961491481
 33
598.9332275390625
  0
3DFACE
  5
A5
330
1F
100
AcDbEntity
  8
BUILDING_PAD_-_BUILDING_PA
 62
     8
100
AcDbFace
 10
2836.928509328406
 20
1205.073704007334
 30
598.9332275390625
 11
2835.813364370947
 21
1200.575503944188
 31
603.5051879882812
 12
2836.173175703863
 22
1205.133332749408
 32
598.9332275390625
 13
2836.928509328406
 23
1205.073704007334
 33
598.9332275390625
  0
3DFACE
  5
A6
330
1F
100
AcDbEntity
  8
BUILDING_PAD_-_BUILDING_PA
 62
     8
100
AcDbFace
 10
2841.460511075658
 20
1204.71593155489
 30
598.9332275390625
 11
2842.2158447002
 21
1204.656302812817
 31
598.9332275390625
 12
2841.100699742741
 22
1200.158102749671
 32
603.5051879882812
 13
2841.460511075658
 23
1204.71593155489
 33
598.9332275390625
  0
3DFACE
  5
A7
330
1F
100
AcDbEntity
  8
BUILDING_PAD_-_BUILDING_PA
 62
     8
100
AcDbFace
 10
2845.632701489993
 20
1199.800330297228
 30
603.5051879882812
 11
2846.747846447452
 21
1204.298530360373
 31
598.9332275390625
 12
2846.388035114535
 22
1199.740701555154
 32
603.5051879882812
 13
2845.632701489993
 23
1199.800330297228
 33
603.5051879882812
  0
3DFACE
  5
A8
330
1F
100
AcDbEntity
  8
BUILDING_PAD_-_BUILDING_PA
 62
     8
100
AcDbFace
 10
2848.258513696536
 20
1204.179272876226
 30
598.9332275390625
 11
2847.143368739078
 21
1199.68107281308
 31
603.5051879882812
 12
2847.503180071994
 22
1204.2389016183
 32
598.9332275390625
 13
2848.258513696536
 23
1204.179272876226
 33
598.9332275390625
  0
3DFACE
  5
A9
330
1F
100
AcDbEntity
  8
BUILDING_PAD_-_BUILDING_PA
 62
     8
100
AcDbFace
 10
2852.035181819247
 20
1203.881129165856
 30
598.9332275390625
 11
2850.920036861788
 21
1199.382929102711
 31
603.5051879882812
 12
2851.279848194705
 22
1203.94075790793
 32
598.9332275390625
 13
2852.035181819247
 23
1203.881129165856
 33
598.9332275390625
  0
3DFACE
  5
AA
330
1F
100
AcDbEntity
  8
BUILDING_PAD_-_BUILDING_PA
 62
     8
100
AcDbFace
 10
2856.962705858125
 20
1198.90589916612
 30
603.5051879882812
 11
2858.077850815583
 21
1203.404099229266
 31
598.9332275390625
 12
2857.718039482666
 22
1198.846270424046
 32
603.5051879882812
 13
2856.962705858125
 23
1198.90589916612
 33
603.5051879882812
  0
3DFACE
  5
AB
330
1F
100
AcDbEntity
  8
BUILDING_PAD_-_BUILDING_PA
 62
     8
100
AcDbFace
 10
2860.739373980835
 20
1198.607755455751
 30
603.5051879882812
 11
2861.854518938293
 21
1203.105955518896
 31
598.9332275390625
 12
2861.494707605377
 22
1198.548126713677
 32
603.5051879882812
 13
2860.739373980835
 23
1198.607755455751
 33
603.5051879882812
  0
3DFACE
  5
AC
330
1F
100
AcDbEntity
  8
BUILDING_PAD_-_BUILDING_PA
 62
     8
100
AcDbFace
 10
2865.555986850204
 20
1221.217577199651
 30
594.3612060546875
 11
2865.196175517287
 21
1216.659748394431
 31
598.9332275390625
 12
2864.436642475854
 22
1216.719708653518
 32
598.9332275390625
 13
2865.555986850204
 23
1221.217577199651
 33
594.3612060546875
  0
3DFACE
  5
AD
330
1F
100
AcDbEntity
  8
BUILDING_PAD_-_BUILDING_PA
 62
     8
100
AcDbFace
 10
2865.196175517287
 20
1216.659748394431
 30
598.9332275390625
 11
2863.365186187378
 21
1202.986698034749
 31
598.9332275390625
 12
2864.436642475854
 22
1216.719708653518
 32
598.9332275390625
 13
2865.196175517287
 23
1216.659748394431
 33
598.9332275390625
  0
3DFACE
  5
AE
330
1F
100
AcDbEntity
  8
BUILDING_PAD_-_BUILDING_PA
 62
     8
100
AcDbFace
 10
2861.758321643038
 20
1221.517378495083
 30
594.3612060546875
 11
2861.398510310122
 21
1216.959549689863
 31
598.9332275390625
 12
2860.638977268688
 22
1217.01950994895
 32
598.9332275390625
 13
2861.758321643038
 23
1221.517378495083
 33
594.3612060546875
  0
3DFACE
  5
AF
330
1F
100
AcDbEntity
  8
BUILDING_PAD_-_BUILDING_PA
 62
     8
100
AcDbFace
 10
2861.398510310122
 20
1216.959549689863
 30
598.9332275390625
 11
2860.343851689209
 21
1203.225213003044
 31
598.9332275390625
 12
2859.588518064667
 22
1203.284841745118
 32
598.9332275390625
 13
2861.398510310122
 23
1216.959549689863
 33
598.9332275390625
  0
3DFACE
  5
B0
330
1F
100
AcDbEntity
  8
BUILDING_PAD_-_BUILDING_PA
 62
     8
100
AcDbFace
 10
2857.960656435873
 20
1221.817179790515
 30
594.3612060546875
 11
2857.600845102956
 21
1217.259350985295
 31
598.9332275390625
 12
2856.841312061523
 22
1217.319311244381
 32
598.9332275390625
 13
2857.960656435873
 23
1221.817179790515
 33
594.3612060546875
  0
3DFACE
  5
B1
330
1F
100
AcDbEntity
  8
BUILDING_PAD_-_BUILDING_PA
 62
     8
100
AcDbFace
 10
2857.600845102956
 20
1217.259350985295
 30
598.9332275390625
 11
2855.811849941957
 21
1203.582985455487
 31
598.9332275390625
 12
2856.841312061523
 22
1217.319311244381
 32
598.9332275390625
 13
2857.600845102956
 23
1217.259350985295
 33
598.9332275390625
  0
3DFACE
  5
B2
330
1F
100
AcDbEntity
  8
BUILDING_PAD_-_BUILDING_PA
 62
     8
100
AcDbFace
 10
2851.524580771491
 20
1217.739033057986
 30
598.9332275390625
 11
2852.643925145841
 21
1222.23690160412
 31
594.3612060546875
 12
2852.284113812925
 22
1217.6790727989
 32
598.9332275390625
 13
2851.524580771491
 23
1217.739033057986
 33
598.9332275390625
  0
3DFACE
  5
B3
330
1F
100
AcDbEntity
  8
BUILDING_PAD_-_BUILDING_PA
 62
     8
100
AcDbFace
 10
2854.562712937224
 20
1217.499192021641
 30
598.9332275390625
 11
2853.545849068331
 21
1203.761871681709
 31
598.9332275390625
 12
2852.790515443789
 22
1203.821500423783
 32
598.9332275390625
 13
2854.562712937224
 23
1217.499192021641
 33
598.9332275390625
  0
3DFACE
  5
B4
330
1F
100
AcDbEntity
  8
BUILDING_PAD_-_BUILDING_PA
 62
     8
100
AcDbFace
 10
2850.365326021542
 20
1222.416782381379
 30
594.3612060546875
 11
2850.005514688626
 21
1217.858953576159
 31
598.9332275390625
 12
2849.245981647192
 22
1217.918913835245
 32
598.9332275390625
 13
2850.365326021542
 23
1222.416782381379
 33
594.3612060546875
  0
3DFACE
  5
B5
330
1F
100
AcDbEntity
  8
BUILDING_PAD_-_BUILDING_PA
 62
     8
100
AcDbFace
 10
2850.005514688626
 20
1217.858953576159
 30
598.9332275390625
 11
2848.258513696536
 21
1204.179272876226
 31
598.9332275390625
 12
2849.245981647192
 22
1217.918913835245
 32
598.9332275390625
 13
2850.005514688626
 23
1217.858953576159
 33
598.9332275390625
  0
3DFACE
  5
B6
330
1F
100
AcDbEntity
  8
BUILDING_PAD_-_BUILDING_PA
 62
     8
100
AcDbFace
 10
2843.929250357161
 20
1218.33863564885
 30
598.9332275390625
 11
2845.048594731511
 21
1222.836504194983
 31
594.3612060546875
 12
2844.688783398594
 22
1218.278675389763
 32
598.9332275390625
 13
2843.929250357161
 23
1218.33863564885
 33
598.9332275390625
  0
3DFACE
  5
B7
330
1F
100
AcDbEntity
  8
BUILDING_PAD_-_BUILDING_PA
 62
     8
100
AcDbFace
 10
2846.20784948146
 20
1218.158754871591
 30
598.9332275390625
 11
2845.237179198368
 21
1204.417787844521
 31
598.9332275390625
 12
2844.481845573826
 22
1204.477416586595
 32
598.9332275390625
 13
2846.20784948146
 23
1218.158754871591
 33
598.9332275390625
  0
3DFACE
  5
B8
330
1F
100
AcDbEntity
  8
BUILDING_PAD_-_BUILDING_PA
 62
     8
100
AcDbFace
 10
2842.2158447002
 20
1204.656302812817
 30
598.9332275390625
 11
2843.929250357161
 21
1218.33863564885
 31
598.9332275390625
 12
2842.971178324742
 22
1204.596674070743
 32
598.9332275390625
 13
2842.2158447002
 23
1204.656302812817
 33
598.9332275390625
  0
3DFACE
  5
B9
330
1F
100
AcDbEntity
  8
BUILDING_PAD_-_BUILDING_PA
 62
     8
100
AcDbFace
 10
2843.169717315728
 20
1218.398595907936
 30
598.9332275390625
 11
2844.289061690078
 21
1222.89646445407
 31
594.3612060546875
 12
2843.929250357161
 22
1218.33863564885
 32
598.9332275390625
 13
2843.169717315728
 23
1218.398595907936
 33
598.9332275390625
  0
3DFACE
  5
BA
330
1F
100
AcDbEntity
  8
BUILDING_PAD_-_BUILDING_PA
 62
     8
100
AcDbFace
 10
2836.33391994283
 20
1218.938238239713
 30
598.9332275390625
 11
2837.45326431718
 21
1223.436106785847
 31
594.3612060546875
 12
2837.093452984263
 22
1218.878277980627
 32
598.9332275390625
 13
2836.33391994283
 23
1218.938238239713
 33
598.9332275390625
  0
3DFACE
  5
BB
330
1F
100
AcDbEntity
  8
BUILDING_PAD_-_BUILDING_PA
 62
     8
100
AcDbFace
 10
2839.372052108562
 20
1218.698397203368
 30
598.9332275390625
 11
2838.439176577489
 21
1204.954446523186
 31
598.9332275390625
 12
2837.683842952948
 22
1205.01407526526
 32
598.9332275390625
 13
2839.372052108562
 23
1218.698397203368
 33
598.9332275390625
  0
3DFACE
  5
BC
330
1F
100
AcDbEntity
  8
BUILDING_PAD_-_BUILDING_PA
 62
     8
100
AcDbFace
 10
2835.574386901397
 20
1218.9981984988
 30
598.9332275390625
 11
2834.814853859964
 21
1219.058158757886
 31
598.9332275390625
 12
2835.934198234313
 22
1223.55602730402
 32
594.3612060546875
 13
2835.574386901397
 23
1218.9981984988
 33
598.9332275390625
  0
3DFACE
  5
BD
330
1F
100
AcDbEntity
  8
BUILDING_PAD_-_BUILDING_PA
 62
     8
100
AcDbFace
 10
2834.662508454779
 20
1205.252590233555
 30
598.9332275390625
 11
2836.33391994283
 21
1218.938238239713
 31
598.9332275390625
 12
2835.417842079321
 22
1205.192961491481
 32
598.9332275390625
 13
2834.662508454779
 23
1205.252590233555
 33
598.9332275390625
  0
3DFACE
  5
BE
330
1F
100
AcDbEntity
  8
BUILDING_PAD_-_BUILDING_PA
 62
     8
100
AcDbFace
 10
2837.093452984263
 20
1218.878277980627
 30
598.9332275390625
 11
2835.417842079321
 21
1205.192961491481
 31
598.9332275390625
 12
2836.33391994283
 22
1218.938238239713
 32
598.9332275390625
 13
2837.093452984263
 23
1218.878277980627
 33
598.9332275390625
  0
3DFACE
  5
BF
330
1F
100
AcDbEntity
  8
BUILDING_PAD_-_BUILDING_PA
 62
     8
100
AcDbFace
 10
2836.173175703863
 20
1205.133332749408
 30
598.9332275390625
 11
2835.058030746405
 21
1200.635132686262
 31
603.5051879882812
 12
2835.417842079321
 22
1205.192961491481
 32
598.9332275390625
 13
2836.173175703863
 23
1205.133332749408
 33
598.9332275390625
  0
3DFACE
  5
C0
330
1F
100
AcDbEntity
  8
BUILDING_PAD_-_BUILDING_PA
 62
     8
100
AcDbFace
 10
2840.345366118199
 20
1200.217731491745
 30
603.5051879882812
 11
2840.705177451116
 21
1204.775560296964
 31
598.9332275390625
 12
2841.460511075658
 22
1204.71593155489
 32
598.9332275390625
 13
2840.345366118199
 23
1200.217731491745
 33
603.5051879882812
  0
3DFACE
  5
C1
330
1F
100
AcDbEntity
  8
BUILDING_PAD_-_BUILDING_PA
 62
     8
100
AcDbFace
 10
2841.460511075658
 20
1204.71593155489
 30
598.9332275390625
 11
2842.410184274295
 21
1218.458556167022
 31
598.9332275390625
 12
2843.169717315728
 22
1218.398595907936
 32
598.9332275390625
 13
2841.460511075658
 23
1204.71593155489
 33
598.9332275390625
  0
3DFACE
  5
C2
330
1F
100
AcDbEntity
  8
BUILDING_PAD_-_BUILDING_PA
 62
     8
100
AcDbFace
 10
2844.122034240909
 20
1199.919587781375
 30
603.5051879882812
 11
2844.481845573826
 21
1204.477416586595
 31
598.9332275390625
 12
2845.237179198368
 22
1204.417787844521
 32
598.9332275390625
 13
2844.122034240909
 23
1199.919587781375
 33
603.5051879882812
  0
3DFACE
  5
C3
330
1F
100
AcDbEntity
  8
BUILDING_PAD_-_BUILDING_PA
 62
     8
100
AcDbFace
 10
2845.237179198368
 20
1204.417787844521
 30
598.9332275390625
 11
2846.20784948146
 21
1218.158754871591
 31
598.9332275390625
 12
2846.967382522893
 22
1218.098794612504
 32
598.9332275390625
 13
2845.237179198368
 23
1204.417787844521
 33
598.9332275390625
  0
3DFACE
  5
C4
330
1F
100
AcDbEntity
  8
BUILDING_PAD_-_BUILDING_PA
 62
     8
100
AcDbFace
 10
2848.48644860576
 20
1217.978874094332
 30
598.9332275390625
 11
2846.747846447452
 21
1204.298530360373
 31
598.9332275390625
 12
2847.726915564326
 22
1218.038834353418
 32
598.9332275390625
 13
2848.48644860576
 23
1217.978874094332
 33
598.9332275390625
  0
3DFACE
  5
C5
330
1F
100
AcDbEntity
  8
BUILDING_PAD_-_BUILDING_PA
 62
     8
100
AcDbFace
 10
2847.503180071994
 20
1204.2389016183
 30
598.9332275390625
 11
2846.388035114535
 21
1199.740701555154
 31
603.5051879882812
 12
2846.747846447452
 22
1204.298530360373
 32
598.9332275390625
 13
2847.503180071994
 23
1204.2389016183
 33
598.9332275390625
  0
3DFACE
  5
C6
330
1F
100
AcDbEntity
  8
BUILDING_PAD_-_BUILDING_PA
 62
     8
100
AcDbFace
 10
2852.284113812925
 20
1217.6790727989
 30
598.9332275390625
 11
2850.524514570162
 21
1204.000386650004
 31
598.9332275390625
 12
2851.524580771491
 22
1217.739033057986
 32
598.9332275390625
 13
2852.284113812925
 23
1217.6790727989
 33
598.9332275390625
  0
3DFACE
  5
C7
330
1F
100
AcDbEntity
  8
BUILDING_PAD_-_BUILDING_PA
 62
     8
100
AcDbFace
 10
2851.279848194705
 20
1203.94075790793
 30
598.9332275390625
 11
2850.164703237246
 21
1199.442557844784
 31
603.5051879882812
 12
2850.524514570162
 22
1204.000386650004
 32
598.9332275390625
 13
2851.279848194705
 23
1203.94075790793
 33
598.9332275390625
  0
3DFACE
  5
C8
330
1F
100
AcDbEntity
  8
BUILDING_PAD_-_BUILDING_PA
 62
     8
100
AcDbFace
 10
2855.45203860904
 20
1199.025156650267
 30
603.5051879882812
 11
2855.811849941957
 21
1203.582985455487
 31
598.9332275390625
 12
2856.567183566499
 22
1203.523356713413
 32
598.9332275390625
 13
2855.45203860904
 23
1199.025156650267
 33
603.5051879882812
  0
3DFACE
  5
C9
330
1F
100
AcDbEntity
  8
BUILDING_PAD_-_BUILDING_PA
 62
     8
100
AcDbFace
 10
2856.567183566499
 20
1203.523356713413
 30
598.9332275390625
 11
2857.600845102956
 21
1217.259350985295
 31
598.9332275390625
 12
2858.360378144389
 22
1217.199390726209
 32
598.9332275390625
 13
2856.567183566499
 23
1203.523356713413
 33
598.9332275390625
  0
3DFACE
  5
CA
330
1F
100
AcDbEntity
  8
BUILDING_PAD_-_BUILDING_PA
 62
     8
100
AcDbFace
 10
2859.228706731751
 20
1198.727012939898
 30
603.5051879882812
 11
2859.588518064667
 21
1203.284841745118
 31
598.9332275390625
 12
2860.343851689209
 22
1203.225213003044
 32
598.9332275390625
 13
2859.228706731751
 23
1198.727012939898
 33
603.5051879882812
  0
3DFACE
  5
CB
330
1F
100
AcDbEntity
  8
BUILDING_PAD_-_BUILDING_PA
 62
     8
100
AcDbFace
 10
2860.343851689209
 20
1203.225213003044
 30
598.9332275390625
 11
2861.398510310122
 21
1216.959549689863
 31
598.9332275390625
 12
2862.158043351555
 22
1216.899589430777
 32
598.9332275390625
 13
2860.343851689209
 23
1203.225213003044
 33
598.9332275390625
  0
3DFACE
  5
CC
330
1F
100
AcDbEntity
  8
BUILDING_PAD_-_BUILDING_PA
 62
     8
100
AcDbFace
 10
2863.677109434421
 20
1216.779668912604
 30
598.9332275390625
 11
2861.854518938293
 21
1203.105955518896
 31
598.9332275390625
 12
2862.917576392988
 22
1216.83962917169
 32
598.9332275390625
 13
2863.677109434421
 23
1216.779668912604
 33
598.9332275390625
  0
3DFACE
  5
CD
330
1F
100
AcDbEntity
  8
BUILDING_PAD_-_BUILDING_PA
 62
     8
100
AcDbFace
 10
2862.609852562835
 20
1203.046326776823
 30
598.9332275390625
 11
2861.494707605377
 21
1198.548126713677
 31
603.5051879882812
 12
2861.854518938293
 22
1203.105955518896
 32
598.9332275390625
 13
2862.609852562835
 23
1203.046326776823
 33
598.9332275390625
  0
3DFACE
  5
CE
330
1F
100
AcDbEntity
  8
BUILDING_PAD_-_BUILDING_PA
 62
     8
100
AcDbFace
 10
2866.315519891637
 20
1221.157616940565
 30
594.3612060546875
 11
2867.07505293307
 21
1221.097656681479
 31
594.3612060546875
 12
2865.95570855872
 22
1216.599788135345
 32
598.9332275390625
 13
2866.315519891637
 23
1221.157616940565
 33
594.3612060546875
  0
3DFACE
  5
CF
330
1F
100
AcDbEntity
  8
BUILDING_PAD_-_BUILDING_PA
 62
     8
100
AcDbFace
 10
2862.517854684471
 20
1221.457418235997
 30
594.3612060546875
 11
2863.277387725905
 21
1221.39745797691
 31
594.3612060546875
 12
2862.158043351555
 22
1216.899589430777
 32
598.9332275390625
 13
2862.517854684471
 23
1221.457418235997
 33
594.3612060546875
  0
3DFACE
  5
D0
330
1F
100
AcDbEntity
  8
BUILDING_PAD_-_BUILDING_PA
 62
     8
100
AcDbFace
 10
2858.720189477306
 20
1221.757219531429
 30
594.3612060546875
 11
2859.479722518739
 21
1221.697259272342
 31
594.3612060546875
 12
2858.360378144389
 22
1217.199390726209
 32
598.9332275390625
 13
2858.720189477306
 23
1221.757219531429
 33
594.3612060546875
  0
3DFACE
  5
D1
330
1F
100
AcDbEntity
  8
BUILDING_PAD_-_BUILDING_PA
 62
     8
100
AcDbFace
 10
2854.92252427014
 20
1222.05702082686
 30
594.3612060546875
 11
2855.682057311574
 21
1221.997060567774
 31
594.3612060546875
 12
2854.562712937224
 22
1217.499192021641
 32
598.9332275390625
 13
2854.92252427014
 23
1222.05702082686
 33
594.3612060546875
  0
3DFACE
  5
D2
330
1F
100
AcDbEntity
  8
BUILDING_PAD_-_BUILDING_PA
 62
     8
100
AcDbFace
 10
2851.124859062975
 20
1222.356822122292
 30
594.3612060546875
 11
2851.884392104408
 21
1222.296861863206
 31
594.3612060546875
 12
2850.765047730059
 22
1217.798993317072
 32
598.9332275390625
 13
2851.124859062975
 23
1222.356822122292
 33
594.3612060546875
  0
3DFACE
  5
D3
330
1F
100
AcDbEntity
  8
BUILDING_PAD_-_BUILDING_PA
 62
     8
100
AcDbFace
 10
2847.32719385581
 20
1222.656623417724
 30
594.3612060546875
 11
2848.086726897243
 21
1222.596663158638
 31
594.3612060546875
 12
2846.967382522893
 22
1218.098794612504
 32
598.9332275390625
 13
2847.32719385581
 23
1222.656623417724
 33
594.3612060546875
  0
3DFACE
  5
D4
330
1F
100
AcDbEntity
  8
BUILDING_PAD_-_BUILDING_PA
 62
     8
100
AcDbFace
 10
2843.529528648644
 20
1222.956424713156
 30
594.3612060546875
 11
2844.289061690078
 21
1222.89646445407
 31
594.3612060546875
 12
2843.169717315728
 22
1218.398595907936
 32
598.9332275390625
 13
2843.529528648644
 23
1222.956424713156
 33
594.3612060546875
  0
3DFACE
  5
D5
330
1F
100
AcDbEntity
  8
BUILDING_PAD_-_BUILDING_PA
 62
     8
100
AcDbFace
 10
2839.731863441479
 20
1223.256226008588
 30
594.3612060546875
 11
2840.491396482912
 21
1223.196265749501
 31
594.3612060546875
 12
2839.372052108562
 22
1218.698397203368
 32
598.9332275390625
 13
2839.731863441479
 23
1223.256226008588
 33
594.3612060546875
  0
3DFACE
  5
D6
330
1F
100
AcDbEntity
  8
BUILDING_PAD_-_BUILDING_PA
 62
     8
100
AcDbFace
 10
2835.934198234313
 20
1223.55602730402
 30
594.3612060546875
 11
2836.693731275747
 21
1223.496067044933
 31
594.3612060546875
 12
2835.574386901397
 22
1218.9981984988
 32
598.9332275390625
 13
2835.934198234313
 23
1223.55602730402
 33
594.3612060546875
  0
3DFACE
  5
D7
330
1F
100
AcDbEntity
  8
BUILDING_PAD_-_BUILDING_PA
 62
     8
100
AcDbFace
 10
2835.813364370947
 20
1200.575503944188
 30
603.5051879882812
 11
2835.058030746405
 21
1200.635132686262
 31
603.5051879882812
 12
2836.173175703863
 22
1205.133332749408
 32
598.9332275390625
 13
2835.813364370947
 23
1200.575503944188
 33
603.5051879882812
  0
3DFACE
  5
D8
330
1F
100
AcDbEntity
  8
BUILDING_PAD_-_BUILDING_PA
 62
     8
100
AcDbFace
 10
2839.590032493657
 20
1200.277360233818
 30
603.5051879882812
 11
2838.834698869115
 21
1200.336988975892
 31
603.5051879882812
 12
2839.949843826574
 22
1204.835189039038
 32
598.9332275390625
 13
2839.590032493657
 23
1200.277360233818
 33
603.5051879882812
  0
3DFACE
  5
D9
330
1F
100
AcDbEntity
  8
BUILDING_PAD_-_BUILDING_PA
 62
     8
100
AcDbFace
 10
2843.366700616367
 20
1199.979216523449
 30
603.5051879882812
 11
2842.611366991825
 21
1200.038845265523
 31
603.5051879882812
 12
2843.726511949284
 22
1204.537045328669
 32
598.9332275390625
 13
2843.366700616367
 23
1199.979216523449
 33
603.5051879882812
  0
3DFACE
  5
DA
330
1F
100
AcDbEntity
  8
BUILDING_PAD_-_BUILDING_PA
 62
     8
100
AcDbFace
 10
2847.143368739078
 20
1199.68107281308
 30
603.5051879882812
 11
2846.388035114535
 21
1199.740701555154
 31
603.5051879882812
 12
2847.503180071994
 22
1204.2389016183
 32
598.9332275390625
 13
2847.143368739078
 23
1199.68107281308
 33
603.5051879882812
  0
3DFACE
  5
DB
330
1F
100
AcDbEntity
  8
BUILDING_PAD_-_BUILDING_PA
 62
     8
100
AcDbFace
 10
2850.920036861788
 20
1199.382929102711
 30
603.5051879882812
 11
2850.164703237246
 21
1199.442557844784
 31
603.5051879882812
 12
2851.279848194705
 22
1203.94075790793
 32
598.9332275390625
 13
2850.920036861788
 23
1199.382929102711
 33
603.5051879882812
  0
3DFACE
  5
DC
330
1F
100
AcDbEntity
  8
BUILDING_PAD_-_BUILDING_PA
 62
     8
100
AcDbFace
 10
2854.696704984498
 20
1199.084785392341
 30
603.5051879882812
 11
2853.941371359956
 21
1199.144414134415
 31
603.5051879882812
 12
2855.056516317415
 22
1203.642614197561
 32
598.9332275390625
 13
2854.696704984498
 23
1199.084785392341
 33
603.5051879882812
  0
3DFACE
  5
DD
330
1F
100
AcDbEntity
  8
BUILDING_PAD_-_BUILDING_PA
 62
     8
100
AcDbFace
 10
2858.473373107209
 20
1198.786641681972
 30
603.5051879882812
 11
2857.718039482666
 21
1198.846270424046
 31
603.5051879882812
 12
2858.833184440125
 22
1203.344470487192
 32
598.9332275390625
 13
2858.473373107209
 23
1198.786641681972
 33
603.5051879882812
  0
3DFACE
  5
DE
330
1F
100
AcDbEntity
  8
BUILDING_PAD_-_BUILDING_PA
 62
     8
100
AcDbFace
 10
2862.250041229919
 20
1198.488497971603
 30
603.5051879882812
 11
2861.494707605377
 21
1198.548126713677
 31
603.5051879882812
 12
2862.609852562835
 22
1203.046326776823
 32
598.9332275390625
 13
2862.250041229919
 23
1198.488497971603
 33
603.5051879882812
  0
3DFACE
  5
DF
330
1F
100
AcDbEntity
  8
BUILDING_PAD_-_BUILDING_PA
 62
     8
100
AcDbFace
 10
2864.12051981192
 20
1202.927069292675
 30
598.9332275390625
 11
2865.95570855872
 21
1216.599788135345
 31
598.9332275390625
 12
2864.875853436462
 22
1202.867440550601
 32
598.9332275390625
 13
2864.12051981192
 23
1202.927069292675
 33
598.9332275390625
  0
3DFACE
  5
E0
330
1F
100
AcDbEntity
  8
BUILDING_PAD_-_BUILDING_PA
 62
     8
100
AcDbFace
 10
2865.196175517287
 20
1216.659748394431
 30
598.9332275390625
 11
2866.315519891637
 21
1221.157616940565
 31
594.3612060546875
 12
2865.95570855872
 22
1216.599788135345
 32
598.9332275390625
 13
2865.196175517287
 23
1216.659748394431
 33
598.9332275390625
  0
3DFACE
  5
E1
330
1F
100
AcDbEntity
  8
BUILDING_PAD_-_BUILDING_PA
 62
     8
100
AcDbFace
 10
2859.479722518739
 20
1221.697259272342
 30
594.3612060546875
 11
2860.239255560172
 21
1221.637299013256
 31
594.3612060546875
 12
2859.119911185822
 22
1217.139430467122
 32
598.9332275390625
 13
2859.479722518739
 23
1221.697259272342
 33
594.3612060546875
  0
3DFACE
  5
E2
330
1F
100
AcDbEntity
  8
BUILDING_PAD_-_BUILDING_PA
 62
     8
100
AcDbFace
 10
2861.398510310122
 20
1216.959549689863
 30
598.9332275390625
 11
2859.588518064667
 21
1203.284841745118
 31
598.9332275390625
 12
2860.638977268688
 22
1217.01950994895
 32
598.9332275390625
 13
2861.398510310122
 23
1216.959549689863
 33
598.9332275390625
  0
3DFACE
  5
E3
330
1F
100
AcDbEntity
  8
BUILDING_PAD_-_BUILDING_PA
 62
     8
100
AcDbFace
 10
2855.811849941957
 20
1203.582985455487
 30
598.9332275390625
 11
2857.600845102956
 21
1217.259350985295
 31
598.9332275390625
 12
2856.567183566499
 22
1203.523356713413
 32
598.9332275390625
 13
2855.811849941957
 23
1203.582985455487
 33
598.9332275390625
  0
3DFACE
  5
E4
330
1F
100
AcDbEntity
  8
BUILDING_PAD_-_BUILDING_PA
 62
     8
100
AcDbFace
 10
2857.600845102956
 20
1217.259350985295
 30
598.9332275390625
 11
2858.720189477306
 21
1221.757219531429
 31
594.3612060546875
 12
2858.360378144389
 22
1217.199390726209
 32
598.9332275390625
 13
2857.600845102956
 23
1217.259350985295
 33
598.9332275390625
  0
3DFACE
  5
E5
330
1F
100
AcDbEntity
  8
BUILDING_PAD_-_BUILDING_PA
 62
     8
100
AcDbFace
 10
2853.403458187274
 20
1222.176941345033
 30
594.3612060546875
 11
2853.043646854358
 21
1217.619112539813
 31
598.9332275390625
 12
2852.284113812925
 22
1217.6790727989
 32
598.9332275390625
 13
2853.403458187274
 23
1222.176941345033
 33
594.3612060546875
  0
3DFACE
  5
E6
330
1F
100
AcDbEntity
  8
BUILDING_PAD_-_BUILDING_PA
 62
     8
100
AcDbFace
 10
2853.043646854358
 20
1217.619112539813
 30
598.9332275390625
 11
2851.279848194705
 21
1203.94075790793
 31
598.9332275390625
 12
2852.284113812925
 22
1217.6790727989
 32
598.9332275390625
 13
2853.043646854358
 23
1217.619112539813
 33
598.9332275390625
  0
3DFACE
  5
E7
330
1F
100
AcDbEntity
  8
BUILDING_PAD_-_BUILDING_PA
 62
     8
100
AcDbFace
 10
2849.769180945621
 20
1204.060015392078
 30
598.9332275390625
 11
2850.765047730059
 21
1217.798993317072
 31
598.9332275390625
 12
2851.524580771491
 22
1217.739033057986
 32
598.9332275390625
 13
2849.769180945621
 23
1204.060015392078
 33
598.9332275390625
  0
3DFACE
  5
E8
330
1F
100
AcDbEntity
  8
BUILDING_PAD_-_BUILDING_PA
 62
     8
100
AcDbFace
 10
2850.005514688626
 20
1217.858953576159
 30
598.9332275390625
 11
2851.124859062975
 21
1222.356822122292
 31
594.3612060546875
 12
2850.765047730059
 22
1217.798993317072
 32
598.9332275390625
 13
2850.005514688626
 23
1217.858953576159
 33
598.9332275390625
  0
3DFACE
  5
E9
330
1F
100
AcDbEntity
  8
BUILDING_PAD_-_BUILDING_PA
 62
     8
100
AcDbFace
 10
2844.289061690078
 20
1222.89646445407
 30
594.3612060546875
 11
2845.048594731511
 21
1222.836504194983
 31
594.3612060546875
 12
2843.929250357161
 22
1218.33863564885
 32
598.9332275390625
 13
2844.289061690078
 23
1222.89646445407
 33
594.3612060546875
  0
3DFACE
  5
EA
330
1F
100
AcDbEntity
  8
BUILDING_PAD_-_BUILDING_PA
 62
     8
100
AcDbFace
 10
2844.688783398594
 20
1218.278675389763
 30
598.9332275390625
 11
2843.726511949284
 21
1204.537045328669
 31
598.9332275390625
 12
2842.971178324742
 22
1204.596674070743
 32
598.9332275390625
 13
2844.688783398594
 23
1218.278675389763
 33
598.9332275390625
  0
3DFACE
  5
EB
330
1F
100
AcDbEntity
  8
BUILDING_PAD_-_BUILDING_PA
 62
     8
100
AcDbFace
 10
2840.491396482912
 20
1223.196265749501
 30
594.3612060546875
 11
2841.250929524345
 21
1223.136305490415
 31
594.3612060546875
 12
2840.131585149995
 22
1218.638436944281
 32
598.9332275390625
 13
2840.491396482912
 23
1223.196265749501
 33
594.3612060546875
  0
3DFACE
  5
EC
330
1F
100
AcDbEntity
  8
BUILDING_PAD_-_BUILDING_PA
 62
     8
100
AcDbFace
 10
2842.410184274295
 20
1218.458556167022
 30
598.9332275390625
 11
2840.705177451116
 21
1204.775560296964
 31
598.9332275390625
 12
2841.650651232861
 22
1218.518516426109
 32
598.9332275390625
 13
2842.410184274295
 23
1218.458556167022
 33
598.9332275390625
  0
3DFACE
  5
ED
330
1F
100
AcDbEntity
  8
BUILDING_PAD_-_BUILDING_PA
 62
     8
100
AcDbFace
 10
2836.693731275747
 20
1223.496067044933
 30
594.3612060546875
 11
2837.45326431718
 21
1223.436106785847
 31
594.3612060546875
 12
2836.33391994283
 22
1218.938238239713
 32
598.9332275390625
 13
2836.693731275747
 23
1223.496067044933
 33
594.3612060546875
  0
3DFACE
  5
EE
330
1F
100
AcDbEntity
  8
BUILDING_PAD_-_BUILDING_PA
 62
     8
100
AcDbFace
 10
2837.093452984263
 20
1218.878277980627
 30
598.9332275390625
 11
2836.173175703863
 21
1205.133332749408
 31
598.9332275390625
 12
2835.417842079321
 22
1205.192961491481
 32
598.9332275390625
 13
2837.093452984263
 23
1218.878277980627
 33
598.9332275390625
  0
3DFACE
  5
EF
330
1F
100
AcDbEntity
  8
BUILDING_PAD_-_BUILDING_PA
 62
     8
100
AcDbFace
 10
2834.814853859964
 20
1219.058158757886
 30
598.9332275390625
 11
2835.174665192881
 21
1223.615987563106
 31
594.3612060546875
 12
2835.934198234313
 22
1223.55602730402
 32
594.3612060546875
 13
2834.814853859964
 23
1219.058158757886
 33
598.9332275390625
  0
3DFACE
  5
F0
330
1F
100
AcDbEntity
  8
BUILDING_PAD_-_BUILDING_PA
 62
     8
100
AcDbFace
 10
2837.324031620031
 20
1200.45624646004
 30
603.5051879882812
 11
2837.683842952948
 21
1205.01407526526
 31
598.9332275390625
 12
2838.439176577489
 22
1204.954446523186
 32
598.9332275390625
 13
2837.324031620031
 23
1200.45624646004
 33
603.5051879882812
  0
3DFACE
  5
F1
330
1F
100
AcDbEntity
  8
BUILDING_PAD_-_BUILDING_PA
 62
     8
100
AcDbFace
 10
2837.683842952948
 20
1205.01407526526
 30
598.9332275390625
 11
2838.612519067129
 21
1218.758357462454
 31
598.9332275390625
 12
2839.372052108562
 22
1218.698397203368
 32
598.9332275390625
 13
2837.683842952948
 23
1205.01407526526
 33
598.9332275390625
  0
3DFACE
  5
F2
330
1F
100
AcDbEntity
  8
BUILDING_PAD_-_BUILDING_PA
 62
     8
100
AcDbFace
 10
2840.705177451116
 20
1204.775560296964
 30
598.9332275390625
 11
2839.949843826574
 21
1204.835189039038
 31
598.9332275390625
 12
2841.650651232861
 22
1218.518516426109
 32
598.9332275390625
 13
2840.705177451116
 23
1204.775560296964
 33
598.9332275390625
  0
3DFACE
  5
F3
330
1F
100
AcDbEntity
  8
BUILDING_PAD_-_BUILDING_PA
 62
     8
100
AcDbFace
 10
2840.705177451116
 20
1204.775560296964
 30
598.9332275390625
 11
2839.590032493657
 21
1200.277360233818
 31
603.5051879882812
 12
2839.949843826574
 22
1204.835189039038
 32
598.9332275390625
 13
2840.705177451116
 23
1204.775560296964
 33
598.9332275390625
  0
3DFACE
  5
F4
330
1F
100
AcDbEntity
  8
BUILDING_PAD_-_BUILDING_PA
 62
     8
100
AcDbFace
 10
2844.481845573826
 20
1204.477416586595
 30
598.9332275390625
 11
2843.726511949284
 21
1204.537045328669
 31
598.9332275390625
 12
2845.448316440027
 22
1218.218715130677
 32
598.9332275390625
 13
2844.481845573826
 23
1204.477416586595
 33
598.9332275390625
  0
3DFACE
  5
F5
330
1F
100
AcDbEntity
  8
BUILDING_PAD_-_BUILDING_PA
 62
     8
100
AcDbFace
 10
2844.481845573826
 20
1204.477416586595
 30
598.9332275390625
 11
2843.366700616367
 21
1199.979216523449
 31
603.5051879882812
 12
2843.726511949284
 22
1204.537045328669
 32
598.9332275390625
 13
2844.481845573826
 23
1204.477416586595
 33
598.9332275390625
  0
3DFACE
  5
F6
330
1F
100
AcDbEntity
  8
BUILDING_PAD_-_BUILDING_PA
 62
     8
100
AcDbFace
 10
2850.164703237246
 20
1199.442557844784
 30
603.5051879882812
 11
2849.409369612704
 21
1199.502186586858
 31
603.5051879882812
 12
2850.524514570162
 22
1204.000386650004
 32
598.9332275390625
 13
2850.164703237246
 23
1199.442557844784
 33
603.5051879882812
  0
3DFACE
  5
F7
330
1F
100
AcDbEntity
  8
BUILDING_PAD_-_BUILDING_PA
 62
     8
100
AcDbFace
 10
2849.013847321079
 20
1204.119644134152
 30
598.9332275390625
 11
2850.005514688626
 21
1217.858953576159
 31
598.9332275390625
 12
2850.765047730059
 22
1217.798993317072
 32
598.9332275390625
 13
2849.013847321079
 23
1204.119644134152
 33
598.9332275390625
  0
3DFACE
  5
F8
330
1F
100
AcDbEntity
  8
BUILDING_PAD_-_BUILDING_PA
 62
     8
100
AcDbFace
 10
2852.430704110872
 20
1199.263671618563
 30
603.5051879882812
 11
2852.790515443789
 21
1203.821500423783
 31
598.9332275390625
 12
2853.545849068331
 22
1203.761871681709
 32
598.9332275390625
 13
2852.430704110872
 23
1199.263671618563
 33
603.5051879882812
  0
3DFACE
  5
F9
330
1F
100
AcDbEntity
  8
BUILDING_PAD_-_BUILDING_PA
 62
     8
100
AcDbFace
 10
2852.790515443789
 20
1203.821500423783
 30
598.9332275390625
 11
2853.803179895791
 21
1217.559152280727
 31
598.9332275390625
 12
2854.562712937224
 22
1217.499192021641
 32
598.9332275390625
 13
2852.790515443789
 23
1203.821500423783
 33
598.9332275390625
  0
3DFACE
  5
FA
330
1F
100
AcDbEntity
  8
BUILDING_PAD_-_BUILDING_PA
 62
     8
100
AcDbFace
 10
2855.811849941957
 20
1203.582985455487
 30
598.9332275390625
 11
2855.056516317415
 21
1203.642614197561
 31
598.9332275390625
 12
2856.841312061523
 22
1217.319311244381
 32
598.9332275390625
 13
2855.811849941957
 23
1203.582985455487
 33
598.9332275390625
  0
3DFACE
  5
FB
330
1F
100
AcDbEntity
  8
BUILDING_PAD_-_BUILDING_PA
 62
     8
100
AcDbFace
 10
2855.811849941957
 20
1203.582985455487
 30
598.9332275390625
 11
2854.696704984498
 21
1199.084785392341
 31
603.5051879882812
 12
2855.056516317415
 22
1203.642614197561
 32
598.9332275390625
 13
2855.811849941957
 23
1203.582985455487
 33
598.9332275390625
  0
3DFACE
  5
FC
330
1F
100
AcDbEntity
  8
BUILDING_PAD_-_BUILDING_PA
 62
     8
100
AcDbFace
 10
2859.588518064667
 20
1203.284841745118
 30
598.9332275390625
 11
2858.833184440125
 21
1203.344470487192
 31
598.9332275390625
 12
2860.638977268688
 22
1217.01950994895
 32
598.9332275390625
 13
2859.588518064667
 23
1203.284841745118
 33
598.9332275390625
  0
3DFACE
  5
FD
330
1F
100
AcDbEntity
  8
BUILDING_PAD_-_BUILDING_PA
 62
     8
100
AcDbFace
 10
2859.588518064667
 20
1203.284841745118
 30
598.9332275390625
 11
2858.473373107209
 21
1198.786641681972
 31
603.5051879882812
 12
2858.833184440125
 22
1203.344470487192
 32
598.9332275390625
 13
2859.588518064667
 23
1203.284841745118
 33
598.9332275390625
  0
3DFACE
  5
FE
330
1F
100
AcDbEntity
  8
BUILDING_PAD_-_BUILDING_PA
 62
     8
100
AcDbFace
 10
2863.760708479003
 20
1198.369240487455
 30
603.5051879882812
 11
2864.12051981192
 21
1202.927069292675
 31
598.9332275390625
 12
2864.875853436462
 22
1202.867440550601
 32
598.9332275390625
 13
2863.760708479003
 23
1198.369240487455
 33
603.5051879882812
  0
3DFACE
  5
FF
330
1F
100
AcDbEntity
  8
BUILDING_PAD_-_BUILDING_PA
 62
     8
100
AcDbFace
 10
2864.12051981192
 20
1202.927069292675
 30
598.9332275390625
 11
2865.196175517287
 21
1216.659748394431
 31
598.9332275390625
 12
2865.95570855872
 22
1216.599788135345
 32
598.9332275390625
 13
2864.12051981192
 23
1202.927069292675
 33
598.9332275390625
  0
3DFACE
  5
100
330
1F
100
AcDbEntity
  8
BUILDING_PAD_-_BUILDING_PA
 62
     8
100
AcDbFace
 10
2865.555986850204
 20
1221.217577199651
 30
594.3612060546875
 11
2866.315519891637
 21
1221.157616940565
 31
594.3612060546875
 12
2865.196175517287
 22
1216.659748394431
 32
598.9332275390625
 13
2865.555986850204
 23
1221.217577199651
 33
594.3612060546875
  0
3DFACE
  5
101
330
1F
100
AcDbEntity
  8
BUILDING_PAD_-_BUILDING_PA
 62
     8
100
AcDbFace
 10
2861.758321643038
 20
1221.517378495083
 30
594.3612060546875
 11
2862.517854684471
 21
1221.457418235997
 31
594.3612060546875
 12
2861.398510310122
 22
1216.959549689863
 32
598.9332275390625
 13
2861.758321643038
 23
1221.517378495083
 33
594.3612060546875
  0
3DFACE
  5
102
330
1F
100
AcDbEntity
  8
BUILDING_PAD_-_BUILDING_PA
 62
     8
100
AcDbFace
 10
2857.960656435873
 20
1221.817179790515
 30
594.3612060546875
 11
2858.720189477306
 21
1221.757219531429
 31
594.3612060546875
 12
2857.600845102956
 22
1217.259350985295
 32
598.9332275390625
 13
2857.960656435873
 23
1221.817179790515
 33
594.3612060546875
  0
3DFACE
  5
103
330
1F
100
AcDbEntity
  8
BUILDING_PAD_-_BUILDING_PA
 62
     8
100
AcDbFace
 10
2854.162991228708
 20
1222.116981085947
 30
594.3612060546875
 11
2854.92252427014
 21
1222.05702082686
 31
594.3612060546875
 12
2853.803179895791
 22
1217.559152280727
 32
598.9332275390625
 13
2854.162991228708
 23
1222.116981085947
 33
594.3612060546875
  0
3DFACE
  5
104
330
1F
100
AcDbEntity
  8
BUILDING_PAD_-_BUILDING_PA
 62
     8
100
AcDbFace
 10
2850.365326021542
 20
1222.416782381379
 30
594.3612060546875
 11
2851.124859062975
 21
1222.356822122292
 31
594.3612060546875
 12
2850.005514688626
 22
1217.858953576159
 32
598.9332275390625
 13
2850.365326021542
 23
1222.416782381379
 33
594.3612060546875
  0
3DFACE
  5
105
330
1F
100
AcDbEntity
  8
BUILDING_PAD_-_BUILDING_PA
 62
     8
100
AcDbFace
 10
2846.567660814377
 20
1222.71658367681
 30
594.3612060546875
 11
2847.32719385581
 21
1222.656623417724
 31
594.3612060546875
 12
2846.20784948146
 22
1218.158754871591
 32
598.9332275390625
 13
2846.567660814377
 23
1222.71658367681
 33
594.3612060546875
  0
3DFACE
  5
106
330
1F
100
AcDbEntity
  8
BUILDING_PAD_-_BUILDING_PA
 62
     8
100
AcDbFace
 10
2842.769995607212
 20
1223.016384972242
 30
594.3612060546875
 11
2843.529528648644
 21
1222.956424713156
 31
594.3612060546875
 12
2842.410184274295
 22
1218.458556167022
 32
598.9332275390625
 13
2842.769995607212
 23
1223.016384972242
 33
594.3612060546875
  0
3DFACE
  5
107
330
1F
100
AcDbEntity
  8
BUILDING_PAD_-_BUILDING_PA
 62
     8
100
AcDbFace
 10
2838.972330400046
 20
1223.316186267674
 30
594.3612060546875
 11
2839.731863441479
 21
1223.256226008588
 31
594.3612060546875
 12
2838.612519067129
 22
1218.758357462454
 32
598.9332275390625
 13
2838.972330400046
 23
1223.316186267674
 33
594.3612060546875
  0
3DFACE
  5
108
330
1F
100
AcDbEntity
  8
BUILDING_PAD_-_BUILDING_PA
 62
     8
100
AcDbFace
 10
2836.568697995489
 20
1200.515875202114
 30
603.5051879882812
 11
2835.813364370947
 21
1200.575503944188
 31
603.5051879882812
 12
2836.928509328406
 22
1205.073704007334
 32
598.9332275390625
 13
2836.568697995489
 23
1200.515875202114
 33
603.5051879882812
  0
3DFACE
  5
109
330
1F
100
AcDbEntity
  8
BUILDING_PAD_-_BUILDING_PA
 62
     8
100
AcDbFace
 10
2840.345366118199
 20
1200.217731491745
 30
603.5051879882812
 11
2839.590032493657
 21
1200.277360233818
 31
603.5051879882812
 12
2840.705177451116
 22
1204.775560296964
 32
598.9332275390625
 13
2840.345366118199
 23
1200.217731491745
 33
603.5051879882812
  0
3DFACE
  5
10A
330
1F
100
AcDbEntity
  8
BUILDING_PAD_-_BUILDING_PA
 62
     8
100
AcDbFace
 10
2844.122034240909
 20
1199.919587781375
 30
603.5051879882812
 11
2843.366700616367
 21
1199.979216523449
 31
603.5051879882812
 12
2844.481845573826
 22
1204.477416586595
 32
598.9332275390625
 13
2844.122034240909
 23
1199.919587781375
 33
603.5051879882812
  0
3DFACE
  5
10B
330
1F
100
AcDbEntity
  8
BUILDING_PAD_-_BUILDING_PA
 62
     8
100
AcDbFace
 10
2847.89870236362
 20
1199.621444071006
 30
603.5051879882812
 11
2847.143368739078
 21
1199.68107281308
 31
603.5051879882812
 12
2848.258513696536
 22
1204.179272876226
 32
598.9332275390625
 13
2847.89870236362
 23
1199.621444071006
 33
603.5051879882812
  0
3DFACE
  5
10C
330
1F
100
AcDbEntity
  8
BUILDING_PAD_-_BUILDING_PA
 62
     8
100
AcDbFace
 10
2851.67537048633
 20
1199.323300360637
 30
603.5051879882812
 11
2850.920036861788
 21
1199.382929102711
 31
603.5051879882812
 12
2852.035181819247
 22
1203.881129165856
 32
598.9332275390625
 13
2851.67537048633
 23
1199.323300360637
 33
603.5051879882812
  0
3DFACE
  5
10D
330
1F
100
AcDbEntity
  8
BUILDING_PAD_-_BUILDING_PA
 62
     8
100
AcDbFace
 10
2855.45203860904
 20
1199.025156650267
 30
603.5051879882812
 11
2854.696704984498
 21
1199.084785392341
 31
603.5051879882812
 12
2855.811849941957
 22
1203.582985455487
 32
598.9332275390625
 13
2855.45203860904
 23
1199.025156650267
 33
603.5051879882812
  0
3DFACE
  5
10E
330
1F
100
AcDbEntity
  8
BUILDING_PAD_-_BUILDING_PA
 62
     8
100
AcDbFace
 10
2859.228706731751
 20
1198.727012939898
 30
603.5051879882812
 11
2858.473373107209
 21
1198.786641681972
 31
603.5051879882812
 12
2859.588518064667
 22
1203.284841745118
 32
598.9332275390625
 13
2859.228706731751
 23
1198.727012939898
 33
603.5051879882812
  0
3DFACE
  5
10F
330
1F
100
AcDbEntity
  8
BUILDING_PAD_-_BUILDING_PA
 62
     8
100
AcDbFace
 10
2863.005374854461
 20
1198.428869229529
 30
603.5051879882812
 11
2862.250041229919
 21
1198.488497971603
 31
603.5051879882812
 12
2863.365186187378
 22
1202.986698034749
 32
598.9332275390625
 13
2863.005374854461
 23
1198.428869229529
 33
603.5051879882812
  0
3DFACE
  5
110
330
1F
100
AcDbEntity
  8
BUILDING_PAD_-_BUILDING_PA
 62
     8
100
AcDbFace
 10
2864.036920767338
 20
1221.337497717824
 30
594.3612060546875
 11
2863.677109434421
 21
1216.779668912604
 31
598.9332275390625
 12
2862.917576392988
 22
1216.83962917169
 32
598.9332275390625
 13
2864.036920767338
 23
1221.337497717824
 33
594.3612060546875
  0
3DFACE
  5
111
330
1F
100
AcDbEntity
  8
BUILDING_PAD_-_BUILDING_PA
 62
     8
100
AcDbFace
 10
2864.436642475854
 20
1216.719708653518
 30
598.9332275390625
 11
2862.609852562835
 21
1203.046326776823
 31
598.9332275390625
 12
2863.677109434421
 22
1216.779668912604
 32
598.9332275390625
 13
2864.436642475854
 23
1216.719708653518
 33
598.9332275390625
  0
3DFACE
  5
112
330
1F
100
AcDbEntity
  8
BUILDING_PAD_-_BUILDING_PA
 62
     8
100
AcDbFace
 10
2860.239255560172
 20
1221.637299013256
 30
594.3612060546875
 11
2859.879444227256
 21
1217.079470208036
 31
598.9332275390625
 12
2859.119911185822
 22
1217.139430467122
 32
598.9332275390625
 13
2860.239255560172
 23
1221.637299013256
 33
594.3612060546875
  0
3DFACE
  5
113
330
1F
100
AcDbEntity
  8
BUILDING_PAD_-_BUILDING_PA
 62
     8
100
AcDbFace
 10
2859.879444227256
 20
1217.079470208036
 30
598.9332275390625
 11
2858.833184440125
 21
1203.344470487192
 31
598.9332275390625
 12
2858.077850815583
 22
1203.404099229266
 32
598.9332275390625
 13
2859.879444227256
 23
1217.079470208036
 33
598.9332275390625
  0
3DFACE
  5
114
330
1F
100
AcDbEntity
  8
BUILDING_PAD_-_BUILDING_PA
 62
     8
100
AcDbFace
 10
2856.441590353007
 20
1221.937100308688
 30
594.3612060546875
 11
2856.08177902009
 21
1217.379271503468
 31
598.9332275390625
 12
2855.322245978657
 22
1217.439231762554
 32
598.9332275390625
 13
2856.441590353007
 23
1221.937100308688
 33
594.3612060546875
  0
3DFACE
  5
115
330
1F
100
AcDbEntity
  8
BUILDING_PAD_-_BUILDING_PA
 62
     8
100
AcDbFace
 10
2856.841312061523
 20
1217.319311244381
 30
598.9332275390625
 11
2855.056516317415
 21
1203.642614197561
 31
598.9332275390625
 12
2856.08177902009
 22
1217.379271503468
 32
598.9332275390625
 13
2856.841312061523
 23
1217.319311244381
 33
598.9332275390625
  0
3DFACE
  5
116
330
1F
100
AcDbEntity
  8
BUILDING_PAD_-_BUILDING_PA
 62
     8
100
AcDbFace
 10
2853.043646854358
 20
1217.619112539813
 30
598.9332275390625
 11
2853.803179895791
 21
1217.559152280727
 31
598.9332275390625
 12
2852.035181819247
 22
1203.881129165856
 32
598.9332275390625
 13
2853.043646854358
 23
1217.619112539813
 33
598.9332275390625
  0
3DFACE
  5
117
330
1F
100
AcDbEntity
  8
BUILDING_PAD_-_BUILDING_PA
 62
     8
100
AcDbFace
 10
2853.043646854358
 20
1217.619112539813
 30
598.9332275390625
 11
2854.162991228708
 21
1222.116981085947
 31
594.3612060546875
 12
2853.803179895791
 22
1217.559152280727
 32
598.9332275390625
 13
2853.043646854358
 23
1217.619112539813
 33
598.9332275390625
  0
3DFACE
  5
118
330
1F
100
AcDbEntity
  8
BUILDING_PAD_-_BUILDING_PA
 62
     8
100
AcDbFace
 10
2848.846259938676
 20
1222.536702899552
 30
594.3612060546875
 11
2848.48644860576
 21
1217.978874094332
 31
598.9332275390625
 12
2847.726915564326
 22
1218.038834353418
 32
598.9332275390625
 13
2848.846259938676
 23
1222.536702899552
 33
594.3612060546875
  0
3DFACE
  5
119
330
1F
100
AcDbEntity
  8
BUILDING_PAD_-_BUILDING_PA
 62
     8
100
AcDbFace
 10
2849.245981647192
 20
1217.918913835245
 30
598.9332275390625
 11
2847.503180071994
 21
1204.2389016183
 31
598.9332275390625
 12
2848.48644860576
 22
1217.978874094332
 32
598.9332275390625
 13
2849.245981647192
 23
1217.918913835245
 33
598.9332275390625
  0
3DFACE
  5
11A
330
1F
100
AcDbEntity
  8
BUILDING_PAD_-_BUILDING_PA
 62
     8
100
AcDbFace
 10
2845.448316440027
 20
1218.218715130677
 30
598.9332275390625
 11
2846.20784948146
 21
1218.158754871591
 31
598.9332275390625
 12
2844.481845573826
 22
1204.477416586595
 32
598.9332275390625
 13
2845.448316440027
 23
1218.218715130677
 33
598.9332275390625
  0
3DFACE
  5
11B
330
1F
100
AcDbEntity
  8
BUILDING_PAD_-_BUILDING_PA
 62
     8
100
AcDbFace
 10
2845.448316440027
 20
1218.218715130677
 30
598.9332275390625
 11
2846.567660814377
 21
1222.71658367681
 31
594.3612060546875
 12
2846.20784948146
 22
1218.158754871591
 32
598.9332275390625
 13
2845.448316440027
 23
1218.218715130677
 33
598.9332275390625
  0
3DFACE
  5
11C
330
1F
100
AcDbEntity
  8
BUILDING_PAD_-_BUILDING_PA
 62
     8
100
AcDbFace
 10
2841.250929524345
 20
1223.136305490415
 30
594.3612060546875
 11
2840.891118191429
 21
1218.578476685195
 31
598.9332275390625
 12
2840.131585149995
 22
1218.638436944281
 32
598.9332275390625
 13
2841.250929524345
 23
1223.136305490415
 33
594.3612060546875
  0
3DFACE
  5
11D
330
1F
100
AcDbEntity
  8
BUILDING_PAD_-_BUILDING_PA
 62
     8
100
AcDbFace
 10
2840.891118191429
 20
1218.578476685195
 30
598.9332275390625
 11
2839.949843826574
 21
1204.835189039038
 31
598.9332275390625
 12
2839.194510202032
 22
1204.894817781112
 32
598.9332275390625
 13
2840.891118191429
 23
1218.578476685195
 33
598.9332275390625
  0
3DFACE
  5
11E
330
1F
100
AcDbEntity
  8
BUILDING_PAD_-_BUILDING_PA
 62
     8
100
AcDbFace
 10
2837.852986025696
 20
1218.818317721541
 30
598.9332275390625
 11
2838.612519067129
 21
1218.758357462454
 31
598.9332275390625
 12
2836.928509328406
 22
1205.073704007334
 32
598.9332275390625
 13
2837.852986025696
 23
1218.818317721541
 33
598.9332275390625
  0
3DFACE
  5
11F
330
1F
100
AcDbEntity
  8
BUILDING_PAD_-_BUILDING_PA
 62
     8
100
AcDbFace
 10
2837.852986025696
 20
1218.818317721541
 30
598.9332275390625
 11
2838.972330400046
 21
1223.316186267674
 31
594.3612060546875
 12
2838.612519067129
 22
1218.758357462454
 32
598.9332275390625
 13
2837.852986025696
 23
1218.818317721541
 33
598.9332275390625
  0
3DFACE
  5
120
330
1F
100
AcDbEntity
  8
BUILDING_PAD_-_BUILDING_PA
 62
     8
100
AcDbFace
 10
2833.907174830237
 20
1205.312218975629
 30
598.9332275390625
 11
2834.814853859964
 21
1219.058158757886
 31
598.9332275390625
 12
2835.574386901397
 22
1218.9981984988
 32
598.9332275390625
 13
2833.907174830237
 23
1205.312218975629
 33
598.9332275390625
  0
3DFACE
  5
121
330
1F
100
AcDbEntity
  8
BUILDING_PAD_-_BUILDING_PA
 62
     8
100
AcDbFace
 10
2834.302697121862
 20
1200.694761428336
 30
603.5051879882812
 11
2835.417842079321
 21
1205.192961491481
 31
598.9332275390625
 12
2835.058030746405
 22
1200.635132686262
 32
603.5051879882812
 13
2834.302697121862
 23
1200.694761428336
 33
603.5051879882812
  0
3DFACE
  5
122
330
1F
100
AcDbEntity
  8
BUILDING_PAD_-_BUILDING_PA
 62
     8
100
AcDbFace
 10
2837.683842952948
 20
1205.01407526526
 30
598.9332275390625
 11
2836.928509328406
 21
1205.073704007334
 31
598.9332275390625
 12
2838.612519067129
 22
1218.758357462454
 32
598.9332275390625
 13
2837.683842952948
 23
1205.01407526526
 33
598.9332275390625
  0
3DFACE
  5
123
330
1F
100
AcDbEntity
  8
BUILDING_PAD_-_BUILDING_PA
 62
     8
100
AcDbFace
 10
2837.683842952948
 20
1205.01407526526
 30
598.9332275390625
 11
2836.568697995489
 21
1200.515875202114
 31
603.5051879882812
 12
2836.928509328406
 22
1205.073704007334
 32
598.9332275390625
 13
2837.683842952948
 23
1205.01407526526
 33
598.9332275390625
  0
3DFACE
  5
124
330
1F
100
AcDbEntity
  8
BUILDING_PAD_-_BUILDING_PA
 62
     8
100
AcDbFace
 10
2841.856033367283
 20
1200.098474007597
 30
603.5051879882812
 11
2842.2158447002
 21
1204.656302812817
 31
598.9332275390625
 12
2842.971178324742
 22
1204.596674070743
 32
598.9332275390625
 13
2841.856033367283
 23
1200.098474007597
 33
603.5051879882812
  0
3DFACE
  5
125
330
1F
100
AcDbEntity
  8
BUILDING_PAD_-_BUILDING_PA
 62
     8
100
AcDbFace
 10
2841.460511075658
 20
1204.71593155489
 30
598.9332275390625
 11
2843.169717315728
 21
1218.398595907936
 31
598.9332275390625
 12
2842.2158447002
 22
1204.656302812817
 32
598.9332275390625
 13
2841.460511075658
 23
1204.71593155489
 33
598.9332275390625
  0
3DFACE
  5
126
330
1F
100
AcDbEntity
  8
BUILDING_PAD_-_BUILDING_PA
 62
     8
100
AcDbFace
 10
2845.632701489993
 20
1199.800330297228
 30
603.5051879882812
 11
2845.99251282291
 21
1204.358159102447
 31
598.9332275390625
 12
2846.747846447452
 22
1204.298530360373
 32
598.9332275390625
 13
2845.632701489993
 23
1199.800330297228
 33
603.5051879882812
  0
3DFACE
  5
127
330
1F
100
AcDbEntity
  8
BUILDING_PAD_-_BUILDING_PA
 62
     8
100
AcDbFace
 10
2845.99251282291
 20
1204.358159102447
 30
598.9332275390625
 11
2846.967382522893
 21
1218.098794612504
 31
598.9332275390625
 12
2847.726915564326
 22
1218.038834353418
 32
598.9332275390625
 13
2845.99251282291
 23
1204.358159102447
 33
598.9332275390625
  0
3DFACE
  5
128
330
1F
100
AcDbEntity
  8
BUILDING_PAD_-_BUILDING_PA
 62
     8
100
AcDbFace
 10
2849.013847321079
 20
1204.119644134152
 30
598.9332275390625
 11
2848.258513696536
 21
1204.179272876226
 31
598.9332275390625
 12
2850.005514688626
 22
1217.858953576159
 32
598.9332275390625
 13
2849.013847321079
 23
1204.119644134152
 33
598.9332275390625
  0
3DFACE
  5
129
330
1F
100
AcDbEntity
  8
BUILDING_PAD_-_BUILDING_PA
 62
     8
100
AcDbFace
 10
2849.013847321079
 20
1204.119644134152
 30
598.9332275390625
 11
2847.89870236362
 21
1199.621444071006
 31
603.5051879882812
 12
2848.258513696536
 22
1204.179272876226
 32
598.9332275390625
 13
2849.013847321079
 23
1204.119644134152
 33
598.9332275390625
  0
3DFACE
  5
12A
330
1F
100
AcDbEntity
  8
BUILDING_PAD_-_BUILDING_PA
 62
     8
100
AcDbFace
 10
2852.790515443789
 20
1203.821500423783
 30
598.9332275390625
 11
2852.035181819247
 21
1203.881129165856
 31
598.9332275390625
 12
2853.803179895791
 22
1217.559152280727
 32
598.9332275390625
 13
2852.790515443789
 23
1203.821500423783
 33
598.9332275390625
  0
3DFACE
  5
12B
330
1F
100
AcDbEntity
  8
BUILDING_PAD_-_BUILDING_PA
 62
     8
100
AcDbFace
 10
2852.790515443789
 20
1203.821500423783
 30
598.9332275390625
 11
2851.67537048633
 21
1199.323300360637
 31
603.5051879882812
 12
2852.035181819247
 22
1203.881129165856
 32
598.9332275390625
 13
2852.790515443789
 23
1203.821500423783
 33
598.9332275390625
  0
3DFACE
  5
12C
330
1F
100
AcDbEntity
  8
BUILDING_PAD_-_BUILDING_PA
 62
     8
100
AcDbFace
 10
2856.962705858125
 20
1198.90589916612
 30
603.5051879882812
 11
2857.322517191041
 21
1203.463727971339
 31
598.9332275390625
 12
2858.077850815583
 22
1203.404099229266
 32
598.9332275390625
 13
2856.962705858125
 23
1198.90589916612
 33
603.5051879882812
  0
3DFACE
  5
12D
330
1F
100
AcDbEntity
  8
BUILDING_PAD_-_BUILDING_PA
 62
     8
100
AcDbFace
 10
2857.322517191041
 20
1203.463727971339
 30
598.9332275390625
 11
2858.360378144389
 21
1217.199390726209
 31
598.9332275390625
 12
2859.119911185822
 22
1217.139430467122
 32
598.9332275390625
 13
2857.322517191041
 23
1203.463727971339
 33
598.9332275390625
  0
3DFACE
  5
12E
330
1F
100
AcDbEntity
  8
BUILDING_PAD_-_BUILDING_PA
 62
     8
100
AcDbFace
 10
2860.739373980835
 20
1198.607755455751
 30
603.5051879882812
 11
2861.099185313752
 21
1203.16558426097
 31
598.9332275390625
 12
2861.854518938293
 22
1203.105955518896
 32
598.9332275390625
 13
2860.739373980835
 23
1198.607755455751
 33
603.5051879882812
  0
3DFACE
  5
12F
330
1F
100
AcDbEntity
  8
BUILDING_PAD_-_BUILDING_PA
 62
     8
100
AcDbFace
 10
2861.099185313752
 20
1203.16558426097
 30
598.9332275390625
 11
2862.158043351555
 21
1216.899589430777
 31
598.9332275390625
 12
2862.917576392988
 22
1216.83962917169
 32
598.9332275390625
 13
2861.099185313752
 23
1203.16558426097
 33
598.9332275390625
  0
3DFACE
  5
130
330
1F
100
AcDbEntity
  8
BUILDING_PAD_-_BUILDING_PA
 62
     8
100
AcDbFace
 10
2864.12051981192
 20
1202.927069292675
 30
598.9332275390625
 11
2863.365186187378
 21
1202.986698034749
 31
598.9332275390625
 12
2865.196175517287
 22
1216.659748394431
 32
598.9332275390625
 13
2864.12051981192
 23
1202.927069292675
 33
598.9332275390625
  0
3DFACE
  5
131
330
1F
100
AcDbEntity
  8
BUILDING_PAD_-_BUILDING_PA
 62
     8
100
AcDbFace
 10
2864.12051981192
 20
1202.927069292675
 30
598.9332275390625
 11
2863.005374854461
 21
1198.428869229529
 31
603.5051879882812
 12
2863.365186187378
 22
1202.986698034749
 32
598.9332275390625
 13
2864.12051981192
 23
1202.927069292675
 33
598.9332275390625
  0
3DFACE
  5
132
330
1F
100
AcDbEntity
  8
BUILDING_PAD_-_BUILDING_PA
 62
     8
100
AcDbFace
 10
2864.796453808771
 20
1221.277537458737
 30
594.3612060546875
 11
2865.555986850204
 21
1221.217577199651
 31
594.3612060546875
 12
2864.436642475854
 22
1216.719708653518
 32
598.9332275390625
 13
2864.796453808771
 23
1221.277537458737
 33
594.3612060546875
  0
3DFACE
  5
133
330
1F
100
AcDbEntity
  8
BUILDING_PAD_-_BUILDING_PA
 62
     8
100
AcDbFace
 10
2860.998788601605
 20
1221.57733875417
 30
594.3612060546875
 11
2861.758321643038
 21
1221.517378495083
 31
594.3612060546875
 12
2860.638977268688
 22
1217.01950994895
 32
598.9332275390625
 13
2860.998788601605
 23
1221.57733875417
 33
594.3612060546875
  0
3DFACE
  5
134
330
1F
100
AcDbEntity
  8
BUILDING_PAD_-_BUILDING_PA
 62
     8
100
AcDbFace
 10
2857.20112339444
 20
1221.877140049601
 30
594.3612060546875
 11
2857.960656435873
 21
1221.817179790515
 31
594.3612060546875
 12
2856.841312061523
 22
1217.319311244381
 32
598.9332275390625
 13
2857.20112339444
 23
1221.877140049601
 33
594.3612060546875
  0
3DFACE
  5
135
330
1F
100
AcDbEntity
  8
BUILDING_PAD_-_BUILDING_PA
 62
     8
100
AcDbFace
 10
2853.403458187274
 20
1222.176941345033
 30
594.3612060546875
 11
2854.162991228708
 21
1222.116981085947
 31
594.3612060546875
 12
2853.043646854358
 22
1217.619112539813
 32
598.9332275390625
 13
2853.403458187274
 23
1222.176941345033
 33
594.3612060546875
  0
3DFACE
  5
136
330
1F
100
AcDbEntity
  8
BUILDING_PAD_-_BUILDING_PA
 62
     8
100
AcDbFace
 10
2849.605792980109
 20
1222.476742640465
 30
594.3612060546875
 11
2850.365326021542
 21
1222.416782381379
 31
594.3612060546875
 12
2849.245981647192
 22
1217.918913835245
 32
598.9332275390625
 13
2849.605792980109
 23
1222.476742640465
 33
594.3612060546875
  0
3DFACE
  5
137
330
1F
100
AcDbEntity
  8
BUILDING_PAD_-_BUILDING_PA
 62
     8
100
AcDbFace
 10
2845.808127772944
 20
1222.776543935897
 30
594.3612060546875
 11
2846.567660814377
 21
1222.71658367681
 31
594.3612060546875
 12
2845.448316440027
 22
1218.218715130677
 32
598.9332275390625
 13
2845.808127772944
 23
1222.776543935897
 33
594.3612060546875
  0
3DFACE
  5
138
330
1F
100
AcDbEntity
  8
BUILDING_PAD_-_BUILDING_PA
 62
     8
100
AcDbFace
 10
2842.010462565778
 20
1223.076345231329
 30
594.3612060546875
 11
2842.769995607212
 21
1223.016384972242
 31
594.3612060546875
 12
2841.650651232861
 22
1218.518516426109
 32
598.9332275390625
 13
2842.010462565778
 23
1223.076345231329
 33
594.3612060546875
  0
3DFACE
  5
139
330
1F
100
AcDbEntity
  8
BUILDING_PAD_-_BUILDING_PA
 62
     8
100
AcDbFace
 10
2838.212797358613
 20
1223.376146526761
 30
594.3612060546875
 11
2838.972330400046
 21
1223.316186267674
 31
594.3612060546875
 12
2837.852986025696
 22
1218.818317721541
 32
598.9332275390625
 13
2838.212797358613
 23
1223.376146526761
 33
594.3612060546875
  0
3DFACE
  5
13A
330
1F
100
AcDbEntity
  8
BUILDING_PAD_-_BUILDING_PA
 62
     8
100
AcDbFace
 10
2837.324031620031
 20
1200.45624646004
 30
603.5051879882812
 11
2836.568697995489
 21
1200.515875202114
 31
603.5051879882812
 12
2837.683842952948
 22
1205.01407526526
 32
598.9332275390625
 13
2837.324031620031
 23
1200.45624646004
 33
603.5051879882812
  0
3DFACE
  5
13B
330
1F
100
AcDbEntity
  8
BUILDING_PAD_-_BUILDING_PA
 62
     8
100
AcDbFace
 10
2841.100699742741
 20
1200.158102749671
 30
603.5051879882812
 11
2840.345366118199
 21
1200.217731491745
 31
603.5051879882812
 12
2841.460511075658
 22
1204.71593155489
 32
598.9332275390625
 13
2841.100699742741
 23
1200.158102749671
 33
603.5051879882812
  0
3DFACE
  5
13C
330
1F
100
AcDbEntity
  8
BUILDING_PAD_-_BUILDING_PA
 62
     8
100
AcDbFace
 10
2844.877367865452
 20
1199.859959039301
 30
603.5051879882812
 11
2844.122034240909
 21
1199.919587781375
 31
603.5051879882812
 12
2845.237179198368
 22
1204.417787844521
 32
598.9332275390625
 13
2844.877367865452
 23
1199.859959039301
 33
603.5051879882812
  0
3DFACE
  5
13D
330
1F
100
AcDbEntity
  8
BUILDING_PAD_-_BUILDING_PA
 62
     8
100
AcDbFace
 10
2848.654035988162
 20
1199.561815328932
 30
603.5051879882812
 11
2847.89870236362
 21
1199.621444071006
 31
603.5051879882812
 12
2849.013847321079
 22
1204.119644134152
 32
598.9332275390625
 13
2848.654035988162
 23
1199.561815328932
 33
603.5051879882812
  0
3DFACE
  5
13E
330
1F
100
AcDbEntity
  8
BUILDING_PAD_-_BUILDING_PA
 62
     8
100
AcDbFace
 10
2852.430704110872
 20
1199.263671618563
 30
603.5051879882812
 11
2851.67537048633
 21
1199.323300360637
 31
603.5051879882812
 12
2852.790515443789
 22
1203.821500423783
 32
598.9332275390625
 13
2852.430704110872
 23
1199.263671618563
 33
603.5051879882812
  0
3DFACE
  5
13F
330
1F
100
AcDbEntity
  8
BUILDING_PAD_-_BUILDING_PA
 62
     8
100
AcDbFace
 10
2856.207372233582
 20
1198.965527908194
 30
603.5051879882812
 11
2855.45203860904
 21
1199.025156650267
 31
603.5051879882812
 12
2856.567183566499
 22
1203.523356713413
 32
598.9332275390625
 13
2856.207372233582
 23
1198.965527908194
 33
603.5051879882812
  0
3DFACE
  5
140
330
1F
100
AcDbEntity
  8
BUILDING_PAD_-_BUILDING_PA
 62
     8
100
AcDbFace
 10
2859.984040356293
 20
1198.667384197824
 30
603.5051879882812
 11
2859.228706731751
 21
1198.727012939898
 31
603.5051879882812
 12
2860.343851689209
 22
1203.225213003044
 32
598.9332275390625
 13
2859.984040356293
 23
1198.667384197824
 33
603.5051879882812
  0
3DFACE
  5
141
330
1F
100
AcDbEntity
  8
BUILDING_PAD_-_BUILDING_PA
 62
     8
100
AcDbFace
 10
2863.760708479003
 20
1198.369240487455
 30
603.5051879882812
 11
2863.005374854461
 21
1198.428869229529
 31
603.5051879882812
 12
2864.12051981192
 22
1202.927069292675
 32
598.9332275390625
 13
2863.760708479003
 23
1198.369240487455
 33
603.5051879882812
  0
3DFACE
  5
142
330
1F
100
AcDbEntity
  8
BUILDING_PAD_-_BUILDING_PA
 62
     8
100
AcDbFace
 10
2864.036920767338
 20
1221.337497717824
 30
594.3612060546875
 11
2862.917576392988
 21
1216.83962917169
 31
598.9332275390625
 12
2863.277387725905
 22
1221.39745797691
 32
594.3612060546875
 13
2864.036920767338
 23
1221.337497717824
 33
594.3612060546875
  0
3DFACE
  5
143
330
1F
100
AcDbEntity
  8
BUILDING_PAD_-_BUILDING_PA
 62
     8
100
AcDbFace
 10
2863.677109434421
 20
1216.779668912604
 30
598.9332275390625
 11
2862.609852562835
 21
1203.046326776823
 31
598.9332275390625
 12
2861.854518938293
 22
1203.105955518896
 32
598.9332275390625
 13
2863.677109434421
 23
1216.779668912604
 33
598.9332275390625
  0
3DFACE
  5
144
330
1F
100
AcDbEntity
  8
BUILDING_PAD_-_BUILDING_PA
 62
     8
100
AcDbFace
 10
2859.879444227256
 20
1217.079470208036
 30
598.9332275390625
 11
2860.638977268688
 21
1217.01950994895
 31
598.9332275390625
 12
2858.833184440125
 22
1203.344470487192
 32
598.9332275390625
 13
2859.879444227256
 23
1217.079470208036
 33
598.9332275390625
  0
3DFACE
  5
145
330
1F
100
AcDbEntity
  8
BUILDING_PAD_-_BUILDING_PA
 62
     8
100
AcDbFace
 10
2859.879444227256
 20
1217.079470208036
 30
598.9332275390625
 11
2860.998788601605
 21
1221.57733875417
 31
594.3612060546875
 12
2860.638977268688
 22
1217.01950994895
 32
598.9332275390625
 13
2859.879444227256
 23
1217.079470208036
 33
598.9332275390625
  0
3DFACE
  5
146
330
1F
100
AcDbEntity
  8
BUILDING_PAD_-_BUILDING_PA
 62
     8
100
AcDbFace
 10
2856.441590353007
 20
1221.937100308688
 30
594.3612060546875
 11
2855.322245978657
 21
1217.439231762554
 31
598.9332275390625
 12
2855.682057311574
 22
1221.997060567774
 32
594.3612060546875
 13
2856.441590353007
 23
1221.937100308688
 33
594.3612060546875
  0
3DFACE
  5
147
330
1F
100
AcDbEntity
  8
BUILDING_PAD_-_BUILDING_PA
 62
     8
100
AcDbFace
 10
2856.08177902009
 20
1217.379271503468
 30
598.9332275390625
 11
2855.056516317415
 21
1203.642614197561
 31
598.9332275390625
 12
2854.301182692873
 22
1203.702242939635
 32
598.9332275390625
 13
2856.08177902009
 23
1217.379271503468
 33
598.9332275390625
  0
3DFACE
  5
148
330
1F
100
AcDbEntity
  8
BUILDING_PAD_-_BUILDING_PA
 62
     8
100
AcDbFace
 10
2852.643925145841
 20
1222.23690160412
 30
594.3612060546875
 11
2851.524580771491
 21
1217.739033057986
 31
598.9332275390625
 12
2851.884392104408
 22
1222.296861863206
 32
594.3612060546875
 13
2852.643925145841
 23
1222.23690160412
 33
594.3612060546875
  0
3DFACE
  5
149
330
1F
100
AcDbEntity
  8
BUILDING_PAD_-_BUILDING_PA
 62
     8
100
AcDbFace
 10
2852.284113812925
 20
1217.6790727989
 30
598.9332275390625
 11
2851.279848194705
 21
1203.94075790793
 31
598.9332275390625
 12
2850.524514570162
 22
1204.000386650004
 32
598.9332275390625
 13
2852.284113812925
 23
1217.6790727989
 33
598.9332275390625
  0
3DFACE
  5
14A
330
1F
100
AcDbEntity
  8
BUILDING_PAD_-_BUILDING_PA
 62
     8
100
AcDbFace
 10
2848.846259938676
 20
1222.536702899552
 30
594.3612060546875
 11
2847.726915564326
 21
1218.038834353418
 31
598.9332275390625
 12
2848.086726897243
 22
1222.596663158638
 32
594.3612060546875
 13
2848.846259938676
 23
1222.536702899552
 33
594.3612060546875
  0
3DFACE
  5
14B
330
1F
100
AcDbEntity
  8
BUILDING_PAD_-_BUILDING_PA
 62
     8
100
AcDbFace
 10
2848.48644860576
 20
1217.978874094332
 30
598.9332275390625
 11
2847.503180071994
 21
1204.2389016183
 31
598.9332275390625
 12
2846.747846447452
 22
1204.298530360373
 32
598.9332275390625
 13
2848.48644860576
 23
1217.978874094332
 33
598.9332275390625
  0
3DFACE
  5
14C
330
1F
100
AcDbEntity
  8
BUILDING_PAD_-_BUILDING_PA
 62
     8
100
AcDbFace
 10
2844.688783398594
 20
1218.278675389763
 30
598.9332275390625
 11
2845.448316440027
 21
1218.218715130677
 31
598.9332275390625
 12
2843.726511949284
 22
1204.537045328669
 32
598.9332275390625
 13
2844.688783398594
 23
1218.278675389763
 33
598.9332275390625
  0
3DFACE
  5
14D
330
1F
100
AcDbEntity
  8
BUILDING_PAD_-_BUILDING_PA
 62
     8
100
AcDbFace
 10
2844.688783398594
 20
1218.278675389763
 30
598.9332275390625
 11
2845.808127772944
 21
1222.776543935897
 31
594.3612060546875
 12
2845.448316440027
 22
1218.218715130677
 32
598.9332275390625
 13
2844.688783398594
 23
1218.278675389763
 33
598.9332275390625
  0
3DFACE
  5
14E
330
1F
100
AcDbEntity
  8
BUILDING_PAD_-_BUILDING_PA
 62
     8
100
AcDbFace
 10
2840.891118191429
 20
1218.578476685195
 30
598.9332275390625
 11
2841.650651232861
 21
1218.518516426109
 31
598.9332275390625
 12
2839.949843826574
 22
1204.835189039038
 32
598.9332275390625
 13
2840.891118191429
 23
1218.578476685195
 33
598.9332275390625
  0
3DFACE
  5
14F
330
1F
100
AcDbEntity
  8
BUILDING_PAD_-_BUILDING_PA
 62
     8
100
AcDbFace
 10
2840.891118191429
 20
1218.578476685195
 30
598.9332275390625
 11
2842.010462565778
 21
1223.076345231329
 31
594.3612060546875
 12
2841.650651232861
 22
1218.518516426109
 32
598.9332275390625
 13
2840.891118191429
 23
1218.578476685195
 33
598.9332275390625
  0
3DFACE
  5
150
330
1F
100
AcDbEntity
  8
BUILDING_PAD_-_BUILDING_PA
 62
     8
100
AcDbFace
 10
2837.093452984263
 20
1218.878277980627
 30
598.9332275390625
 11
2837.852986025696
 21
1218.818317721541
 31
598.9332275390625
 12
2836.173175703863
 22
1205.133332749408
 32
598.9332275390625
 13
2837.093452984263
 23
1218.878277980627
 33
598.9332275390625
  0
3DFACE
  5
151
330
1F
100
AcDbEntity
  8
BUILDING_PAD_-_BUILDING_PA
 62
     8
100
AcDbFace
 10
2837.093452984263
 20
1218.878277980627
 30
598.9332275390625
 11
2838.212797358613
 21
1223.376146526761
 31
594.3612060546875
 12
2837.852986025696
 22
1218.818317721541
 32
598.9332275390625
 13
2837.093452984263
 23
1218.878277980627
 33
598.9332275390625
  0
3DFACE
  5
152
330
1F
100
AcDbEntity
  8
BUILDING_PAD_-_BUILDING_PA
 62
     8
100
AcDbFace
 10
2834.662508454779
 20
1205.252590233555
 30
598.9332275390625
 11
2833.907174830237
 21
1205.312218975629
 31
598.9332275390625
 12
2835.574386901397
 22
1218.9981984988
 32
598.9332275390625
 13
2834.662508454779
 23
1205.252590233555
 33
598.9332275390625
  0
3DFACE
  5
153
330
1F
100
AcDbEntity
  8
BUILDING_PAD_-_BUILDING_PA
 62
     8
100
AcDbFace
 10
2834.662508454779
 20
1205.252590233555
 30
598.9332275390625
 11
2833.54736349732
 21
1200.754390170409
 31
603.5051879882812
 12
2833.907174830237
 22
1205.312218975629
 32
598.9332275390625
 13
2834.662508454779
 23
1205.252590233555
 33
598.9332275390625
  0
3DFACE
  5
154
330
1F
100
AcDbEntity
  8
BUILDING_PAD_-_BUILDING_PA
 62
     8
100
AcDbFace
 10
2838.079365244573
 20
1200.396617717966
 30
603.5051879882812
 11
2839.194510202032
 21
1204.894817781112
 31
598.9332275390625
 12
2838.834698869115
 22
1200.336988975892
 32
603.5051879882812
 13
2838.079365244573
 23
1200.396617717966
 33
603.5051879882812
  0
3DFACE
  5
155
330
1F
100
AcDbEntity
  8
BUILDING_PAD_-_BUILDING_PA
 62
     8
100
AcDbFace
 10
2838.439176577489
 20
1204.954446523186
 30
598.9332275390625
 11
2839.372052108562
 21
1218.698397203368
 31
598.9332275390625
 12
2840.131585149995
 22
1218.638436944281
 32
598.9332275390625
 13
2838.439176577489
 23
1204.954446523186
 33
598.9332275390625
  0
3DFACE
  5
156
330
1F
100
AcDbEntity
  8
BUILDING_PAD_-_BUILDING_PA
 62
     8
100
AcDbFace
 10
2841.856033367283
 20
1200.098474007597
 30
603.5051879882812
 11
2842.971178324742
 21
1204.596674070743
 31
598.9332275390625
 12
2842.611366991825
 22
1200.038845265523
 32
603.5051879882812
 13
2841.856033367283
 23
1200.098474007597
 33
603.5051879882812
  0
3DFACE
  5
157
330
1F
100
AcDbEntity
  8
BUILDING_PAD_-_BUILDING_PA
 62
     8
100
AcDbFace
 10
2842.2158447002
 20
1204.656302812817
 30
598.9332275390625
 11
2843.169717315728
 21
1218.398595907936
 31
598.9332275390625
 12
2843.929250357161
 22
1218.33863564885
 32
598.9332275390625
 13
2842.2158447002
 23
1204.656302812817
 33
598.9332275390625
  0
3DFACE
  5
158
330
1F
100
AcDbEntity
  8
BUILDING_PAD_-_BUILDING_PA
 62
     8
100
AcDbFace
 10
2845.99251282291
 20
1204.358159102447
 30
598.9332275390625
 11
2845.237179198368
 21
1204.417787844521
 31
598.9332275390625
 12
2846.967382522893
 22
1218.098794612504
 32
598.9332275390625
 13
2845.99251282291
 23
1204.358159102447
 33
598.9332275390625
  0
3DFACE
  5
159
330
1F
100
AcDbEntity
  8
BUILDING_PAD_-_BUILDING_PA
 62
     8
100
AcDbFace
 10
2845.99251282291
 20
1204.358159102447
 30
598.9332275390625
 11
2844.877367865452
 21
1199.859959039301
 31
603.5051879882812
 12
2845.237179198368
 22
1204.417787844521
 32
598.9332275390625
 13
2845.99251282291
 23
1204.358159102447
 33
598.9332275390625
  0
3DFACE
  5
15A
330
1F
100
AcDbEntity
  8
BUILDING_PAD_-_BUILDING_PA
 62
     8
100
AcDbFace
 10
2849.769180945621
 20
1204.060015392078
 30
598.9332275390625
 11
2849.013847321079
 21
1204.119644134152
 31
598.9332275390625
 12
2850.765047730059
 22
1217.798993317072
 32
598.9332275390625
 13
2849.769180945621
 23
1204.060015392078
 33
598.9332275390625
  0
3DFACE
  5
15B
330
1F
100
AcDbEntity
  8
BUILDING_PAD_-_BUILDING_PA
 62
     8
100
AcDbFace
 10
2849.769180945621
 20
1204.060015392078
 30
598.9332275390625
 11
2848.654035988162
 21
1199.561815328932
 31
603.5051879882812
 12
2849.013847321079
 22
1204.119644134152
 32
598.9332275390625
 13
2849.769180945621
 23
1204.060015392078
 33
598.9332275390625
  0
3DFACE
  5
15C
330
1F
100
AcDbEntity
  8
BUILDING_PAD_-_BUILDING_PA
 62
     8
100
AcDbFace
 10
2853.186037735414
 20
1199.204042876489
 30
603.5051879882812
 11
2854.301182692873
 21
1203.702242939635
 31
598.9332275390625
 12
2853.941371359956
 22
1199.144414134415
 32
603.5051879882812
 13
2853.186037735414
 23
1199.204042876489
 33
603.5051879882812
  0
3DFACE
  5
15D
330
1F
100
AcDbEntity
  8
BUILDING_PAD_-_BUILDING_PA
 62
     8
100
AcDbFace
 10
2853.545849068331
 20
1203.761871681709
 30
598.9332275390625
 11
2854.562712937224
 21
1217.499192021641
 31
598.9332275390625
 12
2855.322245978657
 22
1217.439231762554
 32
598.9332275390625
 13
2853.545849068331
 23
1203.761871681709
 33
598.9332275390625
  0
3DFACE
  5
15E
330
1F
100
AcDbEntity
  8
BUILDING_PAD_-_BUILDING_PA
 62
     8
100
AcDbFace
 10
2857.322517191041
 20
1203.463727971339
 30
598.9332275390625
 11
2856.567183566499
 21
1203.523356713413
 31
598.9332275390625
 12
2858.360378144389
 22
1217.199390726209
 32
598.9332275390625
 13
2857.322517191041
 23
1203.463727971339
 33
598.9332275390625
  0
3DFACE
  5
15F
330
1F
100
AcDbEntity
  8
BUILDING_PAD_-_BUILDING_PA
 62
     8
100
AcDbFace
 10
2857.322517191041
 20
1203.463727971339
 30
598.9332275390625
 11
2856.207372233582
 21
1198.965527908194
 31
603.5051879882812
 12
2856.567183566499
 22
1203.523356713413
 32
598.9332275390625
 13
2857.322517191041
 23
1203.463727971339
 33
598.9332275390625
  0
3DFACE
  5
160
330
1F
100
AcDbEntity
  8
BUILDING_PAD_-_BUILDING_PA
 62
     8
100
AcDbFace
 10
2861.099185313752
 20
1203.16558426097
 30
598.9332275390625
 11
2860.343851689209
 21
1203.225213003044
 31
598.9332275390625
 12
2862.158043351555
 22
1216.899589430777
 32
598.9332275390625
 13
2861.099185313752
 23
1203.16558426097
 33
598.9332275390625
  0
3DFACE
  5
161
330
1F
100
AcDbEntity
  8
BUILDING_PAD_-_BUILDING_PA
 62
     8
100
AcDbFace
 10
2861.099185313752
 20
1203.16558426097
 30
598.9332275390625
 11
2859.984040356293
 21
1198.667384197824
 31
603.5051879882812
 12
2860.343851689209
 22
1203.225213003044
 32
598.9332275390625
 13
2861.099185313752
 23
1203.16558426097
 33
598.9332275390625
  0
3DFACE
  5
162
330
1F
100
AcDbEntity
  8
BUILDING_PAD_-_BUILDING_PA
 62
     8
100
AcDbFace
 10
2864.516042103545
 20
1198.309611745381
 30
603.5051879882812
 11
2865.631187061004
 21
1202.807811808527
 31
598.9332275390625
 12
2865.271375728087
 22
1198.249983003307
 32
603.5051879882812
 13
2864.516042103545
 23
1198.309611745381
 33
603.5051879882812
  0
3DFACE
  5
163
330
1F
100
AcDbEntity
  8
BUILDING_PAD_-_BUILDING_PA
 62
     8
100
AcDbFace
 10
2864.875853436462
 20
1202.867440550601
 30
598.9332275390625
 11
2865.95570855872
 21
1216.599788135345
 31
598.9332275390625
 12
2866.715241600153
 22
1216.539827876259
 32
598.9332275390625
 13
2864.875853436462
 23
1202.867440550601
 33
598.9332275390625
  0
3DFACE
  5
164
330
1F
100
AcDbEntity
  8
BUILDING_PAD_-_BUILDING_PA
 62
     8
100
AcDbFace
 10
2864.036920767338
 20
1221.337497717824
 30
594.3612060546875
 11
2864.796453808771
 21
1221.277537458737
 31
594.3612060546875
 12
2863.677109434421
 22
1216.779668912604
 32
598.9332275390625
 13
2864.036920767338
 23
1221.337497717824
 33
594.3612060546875
  0
3DFACE
  5
165
330
1F
100
AcDbEntity
  8
BUILDING_PAD_-_BUILDING_PA
 62
     8
100
AcDbFace
 10
2860.239255560172
 20
1221.637299013256
 30
594.3612060546875
 11
2860.998788601605
 21
1221.57733875417
 31
594.3612060546875
 12
2859.879444227256
 22
1217.079470208036
 32
598.9332275390625
 13
2860.239255560172
 23
1221.637299013256
 33
594.3612060546875
  0
3DFACE
  5
166
330
1F
100
AcDbEntity
  8
BUILDING_PAD_-_BUILDING_PA
 62
     8
100
AcDbFace
 10
2856.441590353007
 20
1221.937100308688
 30
594.3612060546875
 11
2857.20112339444
 21
1221.877140049601
 31
594.3612060546875
 12
2856.08177902009
 22
1217.379271503468
 32
598.9332275390625
 13
2856.441590353007
 23
1221.937100308688
 33
594.3612060546875
  0
3DFACE
  5
167
330
1F
100
AcDbEntity
  8
BUILDING_PAD_-_BUILDING_PA
 62
     8
100
AcDbFace
 10
2852.643925145841
 20
1222.23690160412
 30
594.3612060546875
 11
2853.403458187274
 21
1222.176941345033
 31
594.3612060546875
 12
2852.284113812925
 22
1217.6790727989
 32
598.9332275390625
 13
2852.643925145841
 23
1222.23690160412
 33
594.3612060546875
  0
3DFACE
  5
168
330
1F
100
AcDbEntity
  8
BUILDING_PAD_-_BUILDING_PA
 62
     8
100
AcDbFace
 10
2848.846259938676
 20
1222.536702899552
 30
594.3612060546875
 11
2849.605792980109
 21
1222.476742640465
 31
594.3612060546875
 12
2848.48644860576
 22
1217.978874094332
 32
598.9332275390625
 13
2848.846259938676
 23
1222.536702899552
 33
594.3612060546875
  0
3DFACE
  5
169
330
1F
100
AcDbEntity
  8
BUILDING_PAD_-_BUILDING_PA
 62
     8
100
AcDbFace
 10
2845.048594731511
 20
1222.836504194983
 30
594.3612060546875
 11
2845.808127772944
 21
1222.776543935897
 31
594.3612060546875
 12
2844.688783398594
 22
1218.278675389763
 32
598.9332275390625
 13
2845.048594731511
 23
1222.836504194983
 33
594.3612060546875
  0
3DFACE
  5
16A
330
1F
100
AcDbEntity
  8
BUILDING_PAD_-_BUILDING_PA
 62
     8
100
AcDbFace
 10
2841.250929524345
 20
1223.136305490415
 30
594.3612060546875
 11
2842.010462565778
 21
1223.076345231329
 31
594.3612060546875
 12
2840.891118191429
 22
1218.578476685195
 32
598.9332275390625
 13
2841.250929524345
 23
1223.136305490415
 33
594.3612060546875
  0
3DFACE
  5
16B
330
1F
100
AcDbEntity
  8
BUILDING_PAD_-_BUILDING_PA
 62
     8
100
AcDbFace
 10
2837.45326431718
 20
1223.436106785847
 30
594.3612060546875
 11
2838.212797358613
 21
1223.376146526761
 31
594.3612060546875
 12
2837.093452984263
 22
1218.878277980627
 32
598.9332275390625
 13
2837.45326431718
 23
1223.436106785847
 33
594.3612060546875
  0
3DFACE
  5
16C
330
1F
100
AcDbEntity
  8
BUILDING_PAD_-_BUILDING_PA
 62
     8
100
AcDbFace
 10
2834.302697121862
 20
1200.694761428336
 30
603.5051879882812
 11
2833.54736349732
 21
1200.754390170409
 31
603.5051879882812
 12
2834.662508454779
 22
1205.252590233555
 32
598.9332275390625
 13
2834.302697121862
 23
1200.694761428336
 33
603.5051879882812
  0
3DFACE
  5
16D
330
1F
100
AcDbEntity
  8
BUILDING_PAD_-_BUILDING_PA
 62
     8
100
AcDbFace
 10
2838.079365244573
 20
1200.396617717966
 30
603.5051879882812
 11
2837.324031620031
 21
1200.45624646004
 31
603.5051879882812
 12
2838.439176577489
 22
1204.954446523186
 32
598.9332275390625
 13
2838.079365244573
 23
1200.396617717966
 33
603.5051879882812
  0
3DFACE
  5
16E
330
1F
100
AcDbEntity
  8
BUILDING_PAD_-_BUILDING_PA
 62
     8
100
AcDbFace
 10
2841.856033367283
 20
1200.098474007597
 30
603.5051879882812
 11
2841.100699742741
 21
1200.158102749671
 31
603.5051879882812
 12
2842.2158447002
 22
1204.656302812817
 32
598.9332275390625
 13
2841.856033367283
 23
1200.098474007597
 33
603.5051879882812
  0
3DFACE
  5
16F
330
1F
100
AcDbEntity
  8
BUILDING_PAD_-_BUILDING_PA
 62
     8
100
AcDbFace
 10
2845.632701489993
 20
1199.800330297228
 30
603.5051879882812
 11
2844.877367865452
 21
1199.859959039301
 31
603.5051879882812
 12
2845.99251282291
 22
1204.358159102447
 32
598.9332275390625
 13
2845.632701489993
 23
1199.800330297228
 33
603.5051879882812
  0
3DFACE
  5
170
330
1F
100
AcDbEntity
  8
BUILDING_PAD_-_BUILDING_PA
 62
     8
100
AcDbFace
 10
2849.409369612704
 20
1199.502186586858
 30
603.5051879882812
 11
2848.654035988162
 21
1199.561815328932
 31
603.5051879882812
 12
2849.769180945621
 22
1204.060015392078
 32
598.9332275390625
 13
2849.409369612704
 23
1199.502186586858
 33
603.5051879882812
  0
3DFACE
  5
171
330
1F
100
AcDbEntity
  8
BUILDING_PAD_-_BUILDING_PA
 62
     8
100
AcDbFace
 10
2853.186037735414
 20
1199.204042876489
 30
603.5051879882812
 11
2852.430704110872
 21
1199.263671618563
 31
603.5051879882812
 12
2853.545849068331
 22
1203.761871681709
 32
598.9332275390625
 13
2853.186037735414
 23
1199.204042876489
 33
603.5051879882812
  0
3DFACE
  5
172
330
1F
100
AcDbEntity
  8
BUILDING_PAD_-_BUILDING_PA
 62
     8
100
AcDbFace
 10
2856.962705858125
 20
1198.90589916612
 30
603.5051879882812
 11
2856.207372233582
 21
1198.965527908194
 31
603.5051879882812
 12
2857.322517191041
 22
1203.463727971339
 32
598.9332275390625
 13
2856.962705858125
 23
1198.90589916612
 33
603.5051879882812
  0
3DFACE
  5
173
330
1F
100
AcDbEntity
  8
BUILDING_PAD_-_BUILDING_PA
 62
     8
100
AcDbFace
 10
2860.739373980835
 20
1198.607755455751
 30
603.5051879882812
 11
2859.984040356293
 21
1198.667384197824
 31
603.5051879882812
 12
2861.099185313752
 22
1203.16558426097
 32
598.9332275390625
 13
2860.739373980835
 23
1198.607755455751
 33
603.5051879882812
  0
3DFACE
  5
174
330
1F
100
AcDbEntity
  8
BUILDING_PAD_-_BUILDING_PA
 62
     8
100
AcDbFace
 10
2864.516042103545
 20
1198.309611745381
 30
603.5051879882812
 11
2863.760708479003
 21
1198.369240487455
 31
603.5051879882812
 12
2864.875853436462
 22
1202.867440550601
 32
598.9332275390625
 13
2864.516042103545
 23
1198.309611745381
 33
603.5051879882812
  0
ENDSEC
  0
SECTION
  2
OBJECTS
  0
DICTIONARY
  5
C
330
0
100
AcDbDictionary
  3
ACAD_GROUP
350
D
  3
ACAD_LAYOUT
350
1A
  3
ACAD_MATERIAL
350
43
  3
ACAD_MLEADERSTYLE
350
6B
  3
ACAD_MLINESTYLE
350
17
  3
ACAD_PLOTSETTINGS
350
19
  3
ACAD_SCALELIST
350
47
  3
ACAD_VISUALSTYLE
350
2A
  3
ACDBHEADERROUNDTRIPXREC
350
175
  3
ACDBVARIABLEDICTIONARY
350
196
  0
DICTIONARY
  5
19D
330
8
100
AcDbDictionary
280
     1
  3
ACAD_XREC_ROUNDTRIP
360
19E
  0
DICTIONARY
  5
D
102
{ACAD_REACTORS
330
C
102
}
330
C
100
AcDbDictionary
  0
DICTIONARY
  5
1A
102
{ACAD_REACTORS
330
C
102
}
330
C
100
AcDbDictionary
  0
DICTIONARY
  5
43
102
{ACAD_REACTORS
330
C
102
}
330
C
100
AcDbDictionary
  3
BYBLOCK
350
45
  3
BYLAYER
350
44
  3
GLOBAL
350
46
  0
DICTIONARY
  5
6B
102
{ACAD_REACTORS
330
C
102
}
330
C
100
AcDbDictionary
  3
STANDARD
350
6C
  0
DICTIONARY
  5
17
102
{ACAD_REACTORS
330
C
102
}
330
C
100
AcDbDictionary
  3
STANDARD
350
18
  0
DICTIONARY
  5
19
102
{ACAD_REACTORS
330
C
102
}
330
C
100
AcDbDictionary
  0
DICTIONARY
  5
47
102
{ACAD_REACTORS
330
C
102
}
330
C
100
AcDbDictionary
  3
A0
350
48
  3
A1
350
49
  3
A2
350
4A
  3
A3
350
4B
  3
A4
350
4C
  3
A5
350
4D
  3
A6
350
4E
  3
A7
350
4F
  3
A8
350
50
  3
A9
350
51
  3
B0
350
52
  3
B1
350
53
  3
B2
350
54
  3
B3
350
55
  3
B4
350
56
  3
B5
350
57
  3
B6
350
58
  3
B7
350
59
  3
B8
350
5A
  3
B9
350
5B
  3
C0
350
5C
  3
C1
350
5D
  3
C2
350
5E
  3
C3
350
5F
  3
C4
350
60
  3
C5
350
61
  3
C6
350
62
  3
C7
350
63
  3
C8
350
64
  3
C9
350
65
  3
D0
350
66
  3
D1
350
67
  3
D2
350
68
  0
DICTIONARY
  5
2A
102
{ACAD_REACTORS
330
C
102
}
330
C
100
AcDbDictionary
  3
2DWIREFRAME
350
2F
  3
BASIC
350
32
  3
BRIGHTEN
350
36
  3
COLORCHANGE
350
3A
  3
CONCEPTUAL
350
34
  3
DIM
350
35
  3
EDGECOLOROFF
350
3D
  3
FACEPATTERN
350
39
  3
FLAT
350
2B
  3
FLATWITHEDGES
350
2C
  3
GOURAUD
350
2D
  3
GOURAUDWITHEDGES
350
2E
  3
HIDDEN
350
31
  3
JITTEROFF
350
3B
  3
LINEPATTERN
350
38
  3
OVERHANGOFF
350
3C
  3
REALISTIC
350
33
  3
SHADED
350
42
  3
SHADED_WITH_EDGES
350
41
  3
SHADES_OF_GRAY
350
3E
  3
SKETCHY
350
3F
  3
THICKEN
350
37
  3
WIREFRAME
350
30
  3
X-RAY
350
40
  0
DICTIONARY
  5
175
102
{ACAD_REACTORS
330
C
102
}
330
C
100
AcDbDictionary
  3
CEPSNID
350
17F
  3
CEPSNTYPE
350
17E
  3
DIMSTYLEDATA
350
195
  3
FINGERPRINTGUID
350
180
  3
HYPERLINKBASE
350
178
  3
INSUNITS
350
17D
  3
LAYOUTDICT
350
17A
  3
LWETCUNION
350
17C
  3
PLOTSETDICT
350
17B
  3
PSVPSCALE
350
182
  3
PUCSBASE
350
185
  3
PUCSORGBACK
350
18B
  3
PUCSORGBOTTOM
350
187
  3
PUCSORGFRONT
350
18A
  3
PUCSORGLEFT
350
188
  3
PUCSORGRIGHT
350
189
  3
PUCSORGTOP
350
186
  3
PUCSORTHOREF
350
183
  3
PUCSORTHOVIEW
350
184
  3
STYLESHEET
350
179
  3
TSTACKALIGN
350
176
  3
TSTACKSIZE
350
177
  3
UCSBASE
350
18E
  3
UCSORGBACK
350
194
  3
UCSORGBOTTOM
350
190
  3
UCSORGFRONT
350
193
  3
UCSORGLEFT
350
191
  3
UCSORGRIGHT
350
192
  3
UCSORGTOP
350
18F
  3
UCSORTHOREF
350
18C
  3
UCSORTHOVIEW
350
18D
  3
VERSIONGUID
350
181
  0
DICTIONARY
  5
196
102
{ACAD_REACTORS
330
C
102
}
330
C
100
AcDbDictionary
  3
CANNOSCALE
350
19F
  3
CMLEADERSTYLE
350
198
  3
CTABLESTYLE
350
197
  3
DIMASSOC
350
19B
  3
HIDETEXT
350
19C
  3
MSLTSCALE
350
1A0
  0
XRECORD
  5
19E
102
{ACAD_REACTORS
330
19D
102
}
330
19D
100
AcDbXrecord
102
VTR_0.000_0.000_1.000_1.000_VISUALSTYLE
340
2F
102
VTR_0.000_0.000_1.000_1.000_GRIDDISPLAY
 70
     3
102
VTR_0.000_0.000_1.000_1.000_GRIDMAJOR
 70
     5
102
VTR_0.000_0.000_1.000_1.000_DEFAULTLIGHTING
280
     1
102
VTR_0.000_0.000_1.000_1.000_DEFAULTLIGHTINGTYPE
 70
     1
102
VTR_0.000_0.000_1.000_1.000_BRIGHTNESS
141
0.0
102
VTR_0.000_0.000_1.000_1.000_CONTRAST
142
0.0
  0
MATERIAL
  5
45
102
{ACAD_REACTORS
330
43
102
}
102
{ACAD_XDICTIONARY
360
1A3
102
}
330
43
100
AcDbMaterial
  1
BYBLOCK
  0
MATERIAL
  5
44
102
{ACAD_REACTORS
330
43
102
}
102
{ACAD_XDICTIONARY
360
1A1
102
}
330
43
100
AcDbMaterial
  1
BYLAYER
  0
MATERIAL
  5
46
102
{ACAD_REACTORS
330
43
102
}
102
{ACAD_XDICTIONARY
360
1A5
102
}
330
43
100
AcDbMaterial
  1
GLOBAL
  0
ACAD_PROXY_OBJECT
  5
6C
102
{ACAD_REACTORS
330
6B
102
}
330
6B
100
AcDbProxyObject
 90
      499
 91
      505
 93
      610
310
40901902A4063FBFFFFFE056BD1B81E855B9FC0AD7A3703D0AD73F4214DD185B99185C9900AD7A3703D0AC73F90141901A02B5E8DC0F42B1CFC02B5E8DC0F42B1CFE5764000000000000300FC0
340
14
340
0
340
11
340
0
 94
        0
1001
ACAD_MLEADERVER
1070
     2
  0
MLINESTYLE
  5
18
102
{ACAD_REACTORS
330
17
102
}
330
17
100
AcDbMlineStyle
  2
Standard
 70
     0
  3

 62
   256
 51
90.0
 52
90.0
 71
     2
 49
0.5
 62
   256
  6
BYLAYER
 49
-0.5
 62
   256
  6
BYLAYER
  0
ACAD_PROXY_OBJECT
  5
48
102
{ACAD_REACTORS
330
47
102
}
330
47
100
AcDbProxyObject
 90
      499
 91
      503
 93
       41
310
903313A31580
  0
ACAD_PROXY_OBJECT
  5
49
102
{ACAD_REACTORS
330
47
102
}
330
47
100
AcDbProxyObject
 90
      499
 91
      503
 93
      105
310
903313A324000000000000004000
  0
ACAD_PROXY_OBJECT
  5
4A
102
{ACAD_REACTORS
330
47
102
}
330
47
100
AcDbProxyObject
 90
      499
 91
      503
 93
      105
310
903313A344000000000000104000
  0
ACAD_PROXY_OBJECT
  5
4B
102
{ACAD_REACTORS
330
47
102
}
330
47
100
AcDbProxyObject
 90
      499
 91
      503
 93
      105
310
903313A354000000000000144000
  0
ACAD_PROXY_OBJECT
  5
4C
102
{ACAD_REACTORS
330
47
102
}
330
47
100
AcDbProxyObject
 90
      499
 91
      503
 93
      105
310
903313A384000000000000204000
  0
ACAD_PROXY_OBJECT
  5
4D
102
{ACAD_REACTORS
330
47
102
}
330
47
100
AcDbProxyObject
 90
      499
 91
      503
 93
      113
310
904313A31304000000000000244000
  0
ACAD_PROXY_OBJECT
  5
4E
102
{ACAD_REACTORS
330
47
102
}
330
47
100
AcDbProxyObject
 90
      499
 91
      503
 93
      113
310
904313A31364000000000000304000
  0
ACAD_PROXY_OBJECT
  5
4F
102
{ACAD_REACTORS
330
47
102
}
330
47
100
AcDbProxyObject
 90
      499
 91
      503
 93
      113
310
904313A32304000000000000344000
  0
ACAD_PROXY_OBJECT
  5
50
102
{ACAD_REACTORS
330
47
102
}
330
47
100
AcDbProxyObject
 90
      499
 91
      503
 93
      113
310
904313A333040000000000003E4000
  0
ACAD_PROXY_OBJECT
  5
51
102
{ACAD_REACTORS
330
47
102
}
330
47
100
AcDbProxyObject
 90
      499
 91
      503
 93
      113
310
904313A34304000000000000444000
  0
ACAD_PROXY_OBJECT
  5
52
102
{ACAD_REACTORS
330
47
102
}
330
47
100
AcDbProxyObject
 90
      499
 91
      503
 93
      113
310
904313A35304000000000000494000
  0
ACAD_PROXY_OBJECT
  5
53
102
{ACAD_REACTORS
330
47
102
}
330
47
100
AcDbProxyObject
 90
      499
 91
      503
 93
      121
310
905313A3130304000000000000594000
  0
ACAD_PROXY_OBJECT
  5
54
102
{ACAD_REACTORS
330
47
102
}
330
47
100
AcDbProxyObject
 90
      499
 91
      503
 93
      105
310
903323A310000000000000010100
  0
ACAD_PROXY_OBJECT
  5
55
102
{ACAD_REACTORS
330
47
102
}
330
47
100
AcDbProxyObject
 90
      499
 91
      503
 93
      105
310
903343A310000000000000410100
  0
ACAD_PROXY_OBJECT
  5
56
102
{ACAD_REACTORS
330
47
102
}
330
47
100
AcDbProxyObject
 90
      499
 91
      503
 93
      105
310
903383A310000000000000810100
  0
ACAD_PROXY_OBJECT
  5
57
102
{ACAD_REACTORS
330
47
102
}
330
47
100
AcDbProxyObject
 90
      499
 91
      503
 93
      113
310
90431303A310000000000000910100
  0
ACAD_PROXY_OBJECT
  5
58
102
{ACAD_REACTORS
330
47
102
}
330
47
100
AcDbProxyObject
 90
      499
 91
      503
 93
      121
310
9053130303A310000000000001650100
  0
ACAD_PROXY_OBJECT
  5
59
102
{ACAD_REACTORS
330
47
102
}
330
47
100
AcDbProxyObject
 90
      499
 91
      503
 93
      257
310
90E312F31323822203D2031272D3022000000000000200FC000000000000284000
  0
ACAD_PROXY_OBJECT
  5
5A
102
{ACAD_REACTORS
330
47
102
}
330
47
100
AcDbProxyObject
 90
      499
 91
      503
 93
      249
310
90D312F363422203D2031272D3022000000000000240FC000000000000284000
  0
ACAD_PROXY_OBJECT
  5
5B
102
{ACAD_REACTORS
330
47
102
}
330
47
100
AcDbProxyObject
 90
      499
 91
      503
 93
      249
310
90D312F333222203D2031272D3022000000000000280FC000000000000284000
  0
ACAD_PROXY_OBJECT
  5
5C
102
{ACAD_REACTORS
330
47
102
}
330
47
100
AcDbProxyObject
 90
      499
 91
      503
 93
      249
310
90D312F313622203D2031272D30220000000000002C0FC000000000000284000
  0
ACAD_PROXY_OBJECT
  5
5D
102
{ACAD_REACTORS
330
47
102
}
330
47
100
AcDbProxyObject
 90
      499
 91
      503
 93
      249
310
90D332F333222203D2031272D30220000000000002E0FC000000000000284000
  0
ACAD_PROXY_OBJECT
  5
5E
102
{ACAD_REACTORS
330
47
102
}
330
47
100
AcDbProxyObject
 90
      499
 91
      503
 93
      241
310
90C312F3822203D2031272D3022000000000000300FC000000000000284000
  0
ACAD_PROXY_OBJECT
  5
5F
102
{ACAD_REACTORS
330
47
102
}
330
47
100
AcDbProxyObject
 90
      499
 91
      503
 93
      249
310
90D332F313622203D2031272D3022000000000000320FC000000000000284000
  0
ACAD_PROXY_OBJECT
  5
60
102
{ACAD_REACTORS
330
47
102
}
330
47
100
AcDbProxyObject
 90
      499
 91
      503
 93
      241
310
90C312F3422203D2031272D3022000000000000340FC000000000000284000
  0
ACAD_PROXY_OBJECT
  5
61
102
{ACAD_REACTORS
330
47
102
}
330
47
100
AcDbProxyObject
 90
      499
 91
      503
 93
      241
310
90C332F3822203D2031272D3022000000000000360FC000000000000284000
  0
ACAD_PROXY_OBJECT
  5
62
102
{ACAD_REACTORS
330
47
102
}
330
47
100
AcDbProxyObject
 90
      499
 91
      503
 93
      241
310
90C312F3222203D2031272D3022000000000000380FC000000000000284000
  0
ACAD_PROXY_OBJECT
  5
63
102
{ACAD_REACTORS
330
47
102
}
330
47
100
AcDbProxyObject
 90
      499
 91
      503
 93
      241
310
90C332F3422203D2031272D30220000000000003A0FC000000000000284000
  0
ACAD_PROXY_OBJECT
  5
64
102
{ACAD_REACTORS
330
47
102
}
330
47
100
AcDbProxyObject
 90
      499
 91
      503
 93
      161
310
90A3122203D2031272D30224000000000000284000
  0
ACAD_PROXY_OBJECT
  5
65
102
{ACAD_REACTORS
330
47
102
}
330
47
100
AcDbProxyObject
 90
      499
 91
      503
 93
      257
310
90E312D312F3222203D2031272D30220000000000003E0FC000000000000284000
  0
ACAD_PROXY_OBJECT
  5
66
102
{ACAD_REACTORS
330
47
102
}
330
47
100
AcDbProxyObject
 90
      499
 91
      503
 93
      225
310
90A3322203D2031272D302200000000000002100000000000000284000
  0
ACAD_PROXY_OBJECT
  5
67
102
{ACAD_REACTORS
330
47
102
}
330
47
100
AcDbProxyObject
 90
      499
 91
      503
 93
      225
310
90A3622203D2031272D302200000000000006100000000000000284000
  0
ACAD_PROXY_OBJECT
  5
68
102
{ACAD_REACTORS
330
47
102
}
330
47
100
AcDbProxyObject
 90
      499
 91
      503
 93
      249
310
90D31272D3022203D2031272D30220000000000000A100000000000000284000
  0
ACAD_PROXY_OBJECT
  5
2F
102
{ACAD_REACTORS
330
2A
102
}
330
2A
100
AcDbProxyObject
 90
      499
 91
      501
 93
      436
310
42CC9915DA5C99599C985B595049028333333333333E33F0000000000000F90107901411070040501600405405064090741402480A0340
1001
ACAD
1000
AcDbSavedByObjectVersion
1070
     0
  0
ACAD_PROXY_OBJECT
  5
32
102
{ACAD_REACTORS
330
2A
102
}
330
2A
100
AcDbProxyObject
 90
      499
 91
      501
 93
      388
310
4150985CDA58D07406404333333333333E33F0000000000000F90107A41107004050150841D405064090741402480A0350
1001
ACAD
1000
AcDbSavedByObjectVersion
1070
     0
  0
ACAD_PROXY_OBJECT
  5
36
102
{ACAD_REACTORS
330
2A
102
}
330
2A
100
AcDbProxyObject
 90
      499
 91
      501
 93
      428
310
42109C9A59DA1D195B90C409028333333333333E33F0000000000000F9010790141107004050150841D405064090741402480A029950
1001
ACAD
1000
AcDbSavedByObjectVersion
1070
     0
  0
ACAD_PROXY_OBJECT
  5
3A
102
{ACAD_REACTORS
330
2A
102
}
330
2A
100
AcDbProxyObject
 90
      499
 91
      501
 93
      452
310
42D0DBDB1BDC90DA185B99D95104090240C333333333333E33F0000000000000F90108901411070040501508421405064090741402480A0350
1001
ACAD
1000
AcDbSavedByObjectVersion
1070
     0
  0
ACAD_PROXY_OBJECT
  5
34
102
{ACAD_REACTORS
330
2A
102
}
330
2A
100
AcDbProxyObject
 90
      499
 91
      501
 93
      500
310
4290DBDB98D95C1D1D585B10940D028333333333333E33F0000000000000F90107902409070040501000000000018199010841D405064090740C02480A0340
1001
ACAD
1000
AcDbSavedByObjectVersion
1070
     0
  0
ACAD_PROXY_OBJECT
  5
35
102
{ACAD_REACTORS
330
2A
102
}
330
2A
100
AcDbProxyObject
 90
      499
 91
      501
 93
      412
310
40D11A5B50B409028333333333333E33F0000000000000F9010790141107004050150841D405064090741402480A02677FFFFFD0
1001
ACAD
1000
AcDbSavedByObjectVersion
1070
     0
  0
ACAD_PROXY_OBJECT
  5
3D
102
{ACAD_REACTORS
330
2A
102
}
330
2A
100
AcDbProxyObject
 90
      499
 91
      501
 93
      452
310
43115919D950DBDB1BDC93D999916409028333333333333E33F0000000000000F9010790141107004050150841D405064090741402480A0350
1001
ACAD
1000
AcDbSavedByObjectVersion
1070
     0
  0
ACAD_PROXY_OBJECT
  5
39
102
{ACAD_REACTORS
330
2A
102
}
330
2A
100
AcDbProxyObject
 90
      499
 91
      501
 93
      444
310
42D19858D95C185D1D195C9B90F409028333333333333E33F0000000000000F9010790141107004050150841D405064090741402480A0350
1001
ACAD
1000
AcDbSavedByObjectVersion
1070
     0
  0
ACAD_PROXY_OBJECT
  5
2B
102
{ACAD_REACTORS
330
2A
102
}
330
2A
100
AcDbProxyObject
 90
      499
 91
      501
 93
      380
310
41119B185D240901404333333333333E33F0000000000000F9010740A907004050150841D405064090741402480A1B50
1001
ACAD
1000
AcDbSavedByObjectVersion
1070
     0
  0
ACAD_PROXY_OBJECT
  5
2C
102
{ACAD_REACTORS
330
2A
102
}
330
2A
100
AcDbProxyObject
 90
      499
 91
      501
 93
      468
310
43519B185D15DA5D1A115919D95CD0140901404333333333333E33F0000000000000F90107409019070040501600405405064090741402480A1B50
1001
ACAD
1000
AcDbSavedByObjectVersion
1070
     0
  0
ACAD_PROXY_OBJECT
  5
2D
102
{ACAD_REACTORS
330
2A
102
}
330
2A
100
AcDbProxyObject
 90
      499
 91
      501
 93
      404
310
41D1DBDD5C985D5910240902404333333333333E33F0000000000000F9010740A9070040501641D405064090741402480A1B50
1001
ACAD
1000
AcDbSavedByObjectVersion
1070
     0
  0
ACAD_PROXY_OBJECT
  5
2E
102
{ACAD_REACTORS
330
2A
102
}
330
2A
100
AcDbProxyObject
 90
      499
 91
      501
 93
      492
310
4411DBDD5C985D5915DA5D1A115919D95CD0340902404333333333333E33F0000000000000F90107409019070040501600405405064090741402480A1B50
1001
ACAD
1000
AcDbSavedByObjectVersion
1070
     0
  0
ACAD_PROXY_OBJECT
  5
31
102
{ACAD_REACTORS
330
2A
102
}
330
2A
100
AcDbProxyObject
 90
      499
 91
      501
 93
      476
310
41921A5919195B90640502408333333333333E33F0000000000000F901079024090700405020000000000001110200405405064090740C02480A0340
1001
ACAD
1000
AcDbSavedByObjectVersion
1070
     0
  0
ACAD_PROXY_OBJECT
  5
3B
102
{ACAD_REACTORS
330
2A
102
}
330
2A
100
AcDbProxyObject
 90
      499
 91
      501
 93
      428
310
42529A5D1D195C93D999914409028333333333333E33F0000000000000F9010790141107004050150A41D405064090741402480A0350
1001
ACAD
1000
AcDbSavedByObjectVersion
1070
     0
  0
ACAD_PROXY_OBJECT
  5
38
102
{ACAD_REACTORS
330
2A
102
}
330
2A
100
AcDbProxyObject
 90
      499
 91
      501
 93
      444
310
42D31A5B995C185D1D195C9B90E409028333333333333E33F0000000000000F9010790141107004050750841D405064090741402483A0350
1001
ACAD
1000
AcDbSavedByObjectVersion
1070
     0
  0
ACAD_PROXY_OBJECT
  5
3C
102
{ACAD_REACTORS
330
2A
102
}
330
2A
100
AcDbProxyObject
 90
      499
 91
      501
 93
      444
310
42D3DD995C9A185B99D3D999915409028333333333333E33F0000000000000F9010790141107004050150941D405064090741402480A0350
1001
ACAD
1000
AcDbSavedByObjectVersion
1070
     0
  0
ACAD_PROXY_OBJECT
  5
33
102
{ACAD_REACTORS
330
2A
102
}
330
2A
100
AcDbProxyObject
 90
      499
 91
      501
 93
      428
310
425499585B1A5CDD1A58D08409038333333333333E33F0000000000000F9010740A907004050150800405405064090740C02480A1B40
1001
ACAD
1000
AcDbSavedByObjectVersion
1070
     0
  0
ACAD_PROXY_OBJECT
  5
42
102
{ACAD_REACTORS
330
2A
102
}
330
2A
100
AcDbProxyObject
 90
      499
 91
      501
 93
      420
310
4194DA1859195911B40902404333333333333E33F0000000000000F9010740A41107004050150800405405064090840C02480A0B40
1001
ACAD
1000
AcDbSavedByObjectVersion
1070
     0
  0
ACAD_PROXY_OBJECT
  5
41
102
{ACAD_REACTORS
330
2A
102
}
330
2A
100
AcDbProxyObject
 90
      499
 91
      501
 93
      516
310
4454DA18591959081DDA5D1A08195919D95CD1A40902404333333333333E33F0000000000000F901074090142907004050250800405405064090740C02480A0B40
1001
ACAD
1000
AcDbSavedByObjectVersion
1070
     0
  0
ACAD_PROXY_OBJECT
  5
3E
102
{ACAD_REACTORS
330
2A
102
}
330
2A
100
AcDbProxyObject
 90
      499
 91
      501
 93
      532
310
4394DA1859195CC81BD98811DC985E5174090240C333333333333E33F0000000000000F901079024090741D01000000000000111010841D405064090740C02480A0340
1001
ACAD
1000
AcDbSavedByObjectVersion
1070
     0
  0
ACAD_PROXY_OBJECT
  5
3F
102
{ACAD_REACTORS
330
2A
102
}
330
2A
100
AcDbProxyObject
 90
      499
 91
      501
 93
      476
310
41D4DAD95D18DA1E51840502408333333333333E33F0000000000000F901079024090741D01000000000000111010B41D405064090741802480A0340
1001
ACAD
1000
AcDbSavedByObjectVersion
1070
     0
  0
ACAD_PROXY_OBJECT
  5
37
102
{ACAD_REACTORS
330
2A
102
}
330
2A
100
AcDbProxyObject
 90
      499
 91
      501
 93
      412
310
41D51A1A58DAD95B90D409028333333333333E33F0000000000000F9010790141107004050150C41D405064090741402480A0350
1001
ACAD
1000
AcDbSavedByObjectVersion
1070
     0
  0
ACAD_PROXY_OBJECT
  5
30
102
{ACAD_REACTORS
330
2A
102
}
330
2A
100
AcDbProxyObject
 90
      499
 91
      501
 93
      420
310
4255DA5C99599C985B595059028333333333333E33F0000000000000F90107901411070040501600405405064090740C02480A0340
1001
ACAD
1000
AcDbSavedByObjectVersion
1070
     0
  0
ACAD_PROXY_OBJECT
  5
40
102
{ACAD_REACTORS
330
2A
102
}
330
2A
100
AcDbProxyObject
 90
      499
 91
      501
 93
      404
310
41560B54985E51940902404000000000000E03F0000000000000F9010740501907004050150841D405064090740C02480A1B40
1001
ACAD
1000
AcDbSavedByObjectVersion
1070
     0
  0
XRECORD
  5
17F
102
{ACAD_REACTORS
330
175
102
}
330
175
100
AcDbXrecord
340
0
  0
XRECORD
  5
17E
102
{ACAD_REACTORS
330
175
102
}
330
175
100
AcDbXrecord
 90
        0
  0
XRECORD
  5
195
102
{ACAD_REACTORS
330
175
102
}
330
175
100
AcDbXrecord
1000
DSTYLE
1002
{
1070
   340
340
11
1002
}
  0
XRECORD
  5
180
102
{ACAD_REACTORS
330
175
102
}
330
175
100
AcDbXrecord
  1
{526397e3-ca60-4935-b019-a42635b843ab}
  0
XRECORD
  5
178
102
{ACAD_REACTORS
330
175
102
}
330
175
100
AcDbXrecord
  1

  0
XRECORD
  5
17D
102
{ACAD_REACTORS
330
175
102
}
330
175
100
AcDbXrecord
 90
        6
  0
XRECORD
  5
17A
102
{ACAD_REACTORS
330
175
102
}
330
175
100
AcDbXrecord
340
1A
  0
XRECORD
  5
17C
102
{ACAD_REACTORS
330
175
102
}
330
175
100
AcDbXrecord
 90
    10781
  0
XRECORD
  5
17B
102
{ACAD_REACTORS
330
175
102
}
330
175
100
AcDbXrecord
340
19
  0
XRECORD
  5
182
102
{ACAD_REACTORS
330
175
102
}
330
175
100
AcDbXrecord
 40
0.0
  0
XRECORD
  5
185
102
{ACAD_REACTORS
330
175
102
}
330
175
100
AcDbXrecord
340
0
  0
XRECORD
  5
18B
102
{ACAD_REACTORS
330
175
102
}
330
175
100
AcDbXrecord
 10
0.0
 20
0.0
 30
0.0
  0
XRECORD
  5
187
102
{ACAD_REACTORS
330
175
102
}
330
175
100
AcDbXrecord
 10
0.0
 20
0.0
 30
0.0
  0
XRECORD
  5
18A
102
{ACAD_REACTORS
330
175
102
}
330
175
100
AcDbXrecord
 10
0.0
 20
0.0
 30
0.0
  0
XRECORD
  5
188
102
{ACAD_REACTORS
330
175
102
}
330
175
100
AcDbXrecord
 10
0.0
 20
0.0
 30
0.0
  0
XRECORD
  5
189
102
{ACAD_REACTORS
330
175
102
}
330
175
100
AcDbXrecord
 10
0.0
 20
0.0
 30
0.0
  0
XRECORD
  5
186
102
{ACAD_REACTORS
330
175
102
}
330
175
100
AcDbXrecord
 10
0.0
 20
0.0
 30
0.0
  0
XRECORD
  5
183
102
{ACAD_REACTORS
330
175
102
}
330
175
100
AcDbXrecord
340
0
  0
XRECORD
  5
184
102
{ACAD_REACTORS
330
175
102
}
330
175
100
AcDbXrecord
 70
     0
  0
XRECORD
  5
179
102
{ACAD_REACTORS
330
175
102
}
330
175
100
AcDbXrecord
  1

  0
XRECORD
  5
176
102
{ACAD_REACTORS
330
175
102
}
330
175
100
AcDbXrecord
 90
        1
  0
XRECORD
  5
177
102
{ACAD_REACTORS
330
175
102
}
330
175
100
AcDbXrecord
 90
       70
  0
XRECORD
  5
18E
102
{ACAD_REACTORS
330
175
102
}
330
175
100
AcDbXrecord
340
0
  0
XRECORD
  5
194
102
{ACAD_REACTORS
330
175
102
}
330
175
100
AcDbXrecord
 10
0.0
 20
0.0
 30
0.0
  0
XRECORD
  5
190
102
{ACAD_REACTORS
330
175
102
}
330
175
100
AcDbXrecord
 10
0.0
 20
0.0
 30
0.0
  0
XRECORD
  5
193
102
{ACAD_REACTORS
330
175
102
}
330
175
100
AcDbXrecord
 10
0.0
 20
0.0
 30
0.0
  0
XRECORD
  5
191
102
{ACAD_REACTORS
330
175
102
}
330
175
100
AcDbXrecord
 10
0.0
 20
0.0
 30
0.0
  0
XRECORD
  5
192
102
{ACAD_REACTORS
330
175
102
}
330
175
100
AcDbXrecord
 10
0.0
 20
0.0
 30
0.0
  0
XRECORD
  5
18F
102
{ACAD_REACTORS
330
175
102
}
330
175
100
AcDbXrecord
 10
0.0
 20
0.0
 30
0.0
  0
XRECORD
  5
18C
102
{ACAD_REACTORS
330
175
102
}
330
175
100
AcDbXrecord
340
0
  0
XRECORD
  5
18D
102
{ACAD_REACTORS
330
175
102
}
330
175
100
AcDbXrecord
 70
     0
  0
XRECORD
  5
181
102
{ACAD_REACTORS
330
175
102
}
330
175
100
AcDbXrecord
  1
{FAEB1C32-E019-11D5-929B-00C0DF256EC4}
  0
DICTIONARYVAR
  5
19F
102
{ACAD_REACTORS
330
196
102
}
330
196
100
DictionaryVariables
280
     0
  1
1:1
  0
DICTIONARYVAR
  5
198
102
{ACAD_REACTORS
330
196
102
}
330
196
100
DictionaryVariables
280
     0
  1
Standard
  0
DICTIONARYVAR
  5
197
102
{ACAD_REACTORS
330
196
102
}
330
196
100
DictionaryVariables
280
     0
  1
Standard
  0
DICTIONARYVAR
  5
19B
102
{ACAD_REACTORS
330
196
102
}
330
196
100
DictionaryVariables
280
     0
  1
2
  0
DICTIONARYVAR
  5
19C
102
{ACAD_REACTORS
330
196
102
}
330
196
100
DictionaryVariables
280
     0
  1
1
  0
DICTIONARYVAR
  5
1A0
102
{ACAD_REACTORS
330
196
102
}
330
196
100
DictionaryVariables
280
     0
  1
1
  0
DICTIONARY
  5
1A3
330
45
100
AcDbDictionary
280
     1
  3
ACAD_XREC_ROUNDTRIP
360
1A4
  0
DICTIONARY
  5
1A1
330
44
100
AcDbDictionary
280
     1
  3
ACAD_XREC_ROUNDTRIP
360
1A2
  0
DICTIONARY
  5
1A5
330
46
100
AcDbDictionary
280
     1
  3
ACAD_XREC_ROUNDTRIP
360
1A6
  0
XRECORD
  5
1A4
102
{ACAD_REACTORS
330
1A3
102
}
330
1A3
100
AcDbXrecord
102
MATERIAL
148
0.0
149
0.0
149
0.0
 93
        0
 94
      127
282
     0
 72
     1
 77
     1
171
     1
175
     1
179
     1
273
     0
  0
XRECORD
  5
1A2
102
{ACAD_REACTORS
330
1A1
102
}
330
1A1
100
AcDbXrecord
102
MATERIAL
148
0.0
149
0.0
149
0.0
 93
        0
 94
      127
282
     0
 72
     1
 77
     1
171
     1
175
     1
179
     1
273
     0
  0
XRECORD
  5
1A6
102
{ACAD_REACTORS
330
1A5
102
}
330
1A5
100
AcDbXrecord
102
MATERIAL
148
0.0
149
0.0
149
0.0
 93
        0
 94
      127
282
     0
 72
     1
 77
     1
171
     1
175
     1
179
     1
273
     0
  0
ENDSEC
  0
EOF
