  0
SECTION
  2
HEADER
  9
$LIMMIN
 10
0.000000
 20
0.000000
  9
$LIMMAX
 10
0.000000
 20
0.000000
  0
ENDSEC
  0
SECTION
  2
TABLES
  0
TABLE
  2
LAYER
  0
LAYER
  2
0
 70
0
 62
7
  6
CONTINUOUS
  0
ENDTAB
  0
TABLE
  2
STYLE
  0
STYLE
  2
ARIAL
 70
0
 40
0
 41
1
 50
0
 71
0
 42
0
  3
ARIAL.FON
  0
ENDTAB
  0
ENDSEC
  0
SECTION
  2
ENTITIES
  0
POLYLINE
  8
0
 62
3
  6
CONTINUOUS
 70
0
 66
1
 10
0.000000
 20
0.000000
  0
VERTEX
  8
0
 10
388610.114300
 20
804900.000000
  0
VERTEX
  8
0
 10
388610.332600
 20
804899.731200
  0
VERTEX
  8
0
 10
388610.963200
 20
804898.955100
  0
VERTEX
  8
0
 10
388611.593800
 20
804898.179000
  0
VERTEX
  8
0
 10
388612.224400
 20
804897.402900
  0
VERTEX
  8
0
 10
388612.855000
 20
804896.626800
  0
VERTEX
  8
0
 10
388613.485600
 20
804895.850600
  0
VERTEX
  8
0
 10
388614.116200
 20
804895.074500
  0
VERTEX
  8
0
 10
388614.746800
 20
804894.298400
  0
VERTEX
  8
0
 10
388615.377400
 20
804893.522300
  0
VERTEX
  8
0
 10
388616.008000
 20
804892.746200
  0
VERTEX
  8
0
 10
388616.638600
 20
804891.970100
  0
VERTEX
  8
0
 10
388617.269100
 20
804891.194000
  0
VERTEX
  8
0
 10
388617.899700
 20
804890.417800
  0
VERTEX
  8
0
 10
388618.530300
 20
804889.641700
  0
VERTEX
  8
0
 10
388619.160900
 20
804888.865600
  0
VERTEX
  8
0
 10
388619.791500
 20
804888.089500
  0
VERTEX
  8
0
 10
388620.422100
 20
804887.313400
  0
VERTEX
  8
0
 10
388621.052700
 20
804886.537300
  0
VERTEX
  8
0
 10
388621.683300
 20
804885.761100
  0
VERTEX
  8
0
 10
388622.313900
 20
804884.985000
  0
VERTEX
  8
0
 10
388622.944500
 20
804884.208900
  0
VERTEX
  8
0
 10
388623.100400
 20
804884.017000
  0
VERTEX
  8
0
 10
388623.575100
 20
804883.432800
  0
VERTEX
  8
0
 10
388623.774500
 20
804883.187300
  0
VERTEX
  8
0
 10
388624.006200
 20
804882.902200
  0
VERTEX
  8
0
 10
388624.105500
 20
804882.779900
  0
VERTEX
  8
0
 10
388624.205600
 20
804882.656700
  0
VERTEX
  8
0
 10
388624.836200
 20
804881.880600
  0
VERTEX
  8
0
 10
388625.466800
 20
804881.104500
  0
VERTEX
  8
0
 10
388626.097400
 20
804880.328300
  0
VERTEX
  8
0
 10
388626.728000
 20
804879.552200
  0
VERTEX
  8
0
 10
388627.358600
 20
804878.776100
  0
VERTEX
  8
0
 10
388627.989200
 20
804878.000000
  0
VERTEX
  8
0
 10
388628.619800
 20
804877.223900
  0
VERTEX
  8
0
 10
388629.250400
 20
804876.447800
  0
VERTEX
  8
0
 10
388629.881000
 20
804875.671600
  0
VERTEX
  8
0
 10
388630.511600
 20
804874.895500
  0
VERTEX
  8
0
 10
388631.142100
 20
804874.119400
  0
VERTEX
  8
0
 10
388631.772700
 20
804873.343300
  0
VERTEX
  8
0
 10
388632.403300
 20
804872.567200
  0
VERTEX
  8
0
 10
388633.033900
 20
804871.791100
  0
VERTEX
  8
0
 10
388633.664500
 20
804871.015000
  0
VERTEX
  8
0
 10
388634.295100
 20
804870.238800
  0
VERTEX
  8
0
 10
388634.925700
 20
804869.462700
  0
VERTEX
  8
0
 10
388635.556300
 20
804868.686600
  0
VERTEX
  8
0
 10
388636.186900
 20
804867.910500
  0
VERTEX
  8
0
 10
388636.817500
 20
804867.134400
  0
VERTEX
  8
0
 10
388637.448100
 20
804866.358300
  0
VERTEX
  8
0
 10
388638.078600
 20
804865.582100
  0
VERTEX
  8
0
 10
388638.709200
 20
804864.806000
  0
VERTEX
  8
0
 10
388639.339800
 20
804864.029900
  0
VERTEX
  8
0
 10
388639.726200
 20
804863.554300
  0
VERTEX
  8
0
 10
388639.869200
 20
804863.378400
  0
VERTEX
  8
0
 10
388639.970400
 20
804863.253800
  0
VERTEX
  8
0
 10
388640.601000
 20
804862.477700
  0
VERTEX
  8
0
 10
388641.231600
 20
804861.701600
  0
VERTEX
  8
0
 10
388641.862200
 20
804860.925500
  0
VERTEX
  8
0
 10
388642.492800
 20
804860.149300
  0
VERTEX
  8
0
 10
388643.123400
 20
804859.373200
  0
VERTEX
  8
0
 10
388643.754000
 20
804858.597100
  0
VERTEX
  8
0
 10
388644.384600
 20
804857.821000
  0
VERTEX
  8
0
 10
388645.015100
 20
804857.044900
  0
VERTEX
  8
0
 10
388645.645700
 20
804856.268800
  0
VERTEX
  8
0
 10
388646.276300
 20
804855.492600
  0
VERTEX
  8
0
 10
388646.906900
 20
804854.716500
  0
VERTEX
  8
0
 10
388647.537500
 20
804853.940400
  0
VERTEX
  8
0
 10
388648.168100
 20
804853.164300
  0
VERTEX
  8
0
 10
388648.480100
 20
804852.780300
  0
SEQEND
  0
POLYLINE
  8
0
 62
7
  6
CONTINUOUS
 70
0
 66
1
 10
0.000000
 20
0.000000
  0
VERTEX
  8
0
 10
388650.009000
 20
804853.060000
  0
VERTEX
  8
0
 10
388642.104000
 20
804863.068000
  0
VERTEX
  8
0
 10
388634.649000
 20
804872.536000
  0
VERTEX
  8
0
 10
388626.542000
 20
804882.266000
  0
VERTEX
  8
0
 10
388619.146000
 20
804891.278000
  0
SEQEND
  0
POLYLINE
  8
0
 62
7
  6
CONTINUOUS
 70
0
 66
1
 10
0.000000
 20
0.000000
  0
VERTEX
  8
0
 10
388623.874000
 20
804880.172000
  0
VERTEX
  8
0
 10
388631.515000
 20
804870.617000
  0
VERTEX
  8
0
 10
388639.881000
 20
804861.161000
  0
VERTEX
  8
0
 10
388647.490000
 20
804851.047000
  0
SEQEND
  0
POLYLINE
  8
0
 62
2
  6
CONTINUOUS
 70
0
 66
1
 10
0.000000
 20
0.000000
  0
VERTEX
  8
0
 10
388646.651000
 20
804850.021000
  0
VERTEX
  8
0
 10
388638.535000
 20
804859.850000
  0
VERTEX
  8
0
 10
388630.393000
 20
804869.867000
  0
VERTEX
  8
0
 10
388622.578000
 20
804879.177000
  0
SEQEND
  0
POLYLINE
  8
0
 62
2
  6
CONTINUOUS
 70
0
 66
1
 10
0.000000
 20
0.000000
  0
VERTEX
  8
0
 10
388651.453000
 20
804854.463000
  0
VERTEX
  8
0
 10
388643.619000
 20
804864.178000
  0
VERTEX
  8
0
 10
388636.135000
 20
804873.301000
  0
VERTEX
  8
0
 10
388627.854000
 20
804883.314000
  0
VERTEX
  8
0
 10
388620.529000
 20
804892.190000
  0
SEQEND
  0
POLYLINE
  8
0
 62
252
  6
CONTINUOUS
 70
0
 66
1
 10
0.000000
 20
0.000000
  0
VERTEX
  8
0
 10
388648.581000
 20
804851.935000
  0
VERTEX
  8
0
 10
388640.676000
 20
804861.849000
  0
VERTEX
  8
0
 10
388633.087000
 20
804871.645000
  0
VERTEX
  8
0
 10
388625.144000
 20
804881.139000
  0
SEQEND
  0
POLYLINE
  8
0
 62
7
  6
CONTINUOUS
 70
0
 66
1
 10
0.000000
 20
0.000000
  0
VERTEX
  8
0
 10
388579.323400
 20
804913.340700
  0
VERTEX
  8
0
 10
388580.196300
 20
804912.756800
  0
VERTEX
  8
0
 10
388580.955400
 20
804912.082500
  0
VERTEX
  8
0
 10
388581.714400
 20
804911.408200
  0
VERTEX
  8
0
 10
388582.473400
 20
804910.734000
  0
VERTEX
  8
0
 10
388583.232400
 20
804910.059700
  0
VERTEX
  8
0
 10
388583.991500
 20
804909.385400
  0
VERTEX
  8
0
 10
388584.750500
 20
804908.711100
  0
VERTEX
  8
0
 10
388585.509500
 20
804908.036800
  0
VERTEX
  8
0
 10
388586.268600
 20
804907.362500
  0
VERTEX
  8
0
 10
388587.027600
 20
804906.688200
  0
VERTEX
  8
0
 10
388587.786300
 20
804906.013700
  0
VERTEX
  8
0
 10
388588.082200
 20
804905.750300
  0
VERTEX
  8
0
 10
388588.625000
 20
804905.210500
  0
VERTEX
  8
0
 10
388589.528900
 20
804904.342300
  0
VERTEX
  8
0
 10
388590.606700
 20
804903.634300
  0
VERTEX
  8
0
 10
388591.744000
 20
804902.999500
  0
VERTEX
  8
0
 10
388592.888000
 20
804902.393600
  0
VERTEX
  8
0
 10
388593.997600
 20
804901.776600
  0
VERTEX
  8
0
 10
388595.036300
 20
804901.106300
  0
VERTEX
  8
0
 10
388596.083500
 20
804900.459200
  0
VERTEX
  8
0
 10
388596.316000
 20
804900.319400
  0
VERTEX
  8
0
 10
388596.911800
 20
804900.044000
  0
VERTEX
  8
0
 10
388597.004600
 20
804900.000000
  0
SEQEND
  0
POLYLINE
  8
0
 62
7
  6
CONTINUOUS
 70
0
 66
1
 10
0.000000
 20
0.000000
  0
VERTEX
  8
0
 10
388597.004600
 20
804900.000000
  0
VERTEX
  8
0
 10
388597.680100
 20
804899.680300
  0
VERTEX
  8
0
 10
388598.456800
 20
804899.309000
  0
VERTEX
  8
0
 10
388599.231300
 20
804898.919400
  0
VERTEX
  8
0
 10
388600.000000
 20
804898.512600
  0
SEQEND
  0
POLYLINE
  8
0
 62
7
  6
CONTINUOUS
 70
0
 66
1
 10
0.000000
 20
0.000000
  0
VERTEX
  8
0
 10
388600.000000
 20
804898.512600
  0
VERTEX
  8
0
 10
388600.002900
 20
804898.511100
  0
VERTEX
  8
0
 10
388600.771300
 20
804898.084100
  0
VERTEX
  8
0
 10
388601.581100
 20
804897.675600
  0
VERTEX
  8
0
 10
388601.918100
 20
804897.502700
  0
VERTEX
  8
0
 10
388601.967200
 20
804897.477200
  0
VERTEX
  8
0
 10
388602.447500
 20
804897.190000
  0
VERTEX
  8
0
 10
388603.352600
 20
804896.636900
  0
VERTEX
  8
0
 10
388604.245700
 20
804896.074100
  0
VERTEX
  8
0
 10
388605.098300
 20
804895.478300
  0
VERTEX
  8
0
 10
388606.011900
 20
804894.932200
  0
VERTEX
  8
0
 10
388606.947200
 20
804894.403600
  0
VERTEX
  8
0
 10
388607.871600
 20
804893.866200
  0
VERTEX
  8
0
 10
388608.785200
 20
804893.320100
  0
VERTEX
  8
0
 10
388609.688100
 20
804892.765100
  0
VERTEX
  8
0
 10
388610.423300
 20
804892.074100
  0
VERTEX
  8
0
 10
388611.129800
 20
804891.359700
  0
VERTEX
  8
0
 10
388611.824500
 20
804890.635600
  0
VERTEX
  8
0
 10
388612.507300
 20
804889.901900
  0
VERTEX
  8
0
 10
388613.178200
 20
804889.158600
  0
VERTEX
  8
0
 10
388613.837300
 20
804888.405600
  0
VERTEX
  8
0
 10
388614.617600
 20
804887.751100
  0
VERTEX
  8
0
 10
388615.354000
 20
804887.060900
  0
VERTEX
  8
0
 10
388616.055300
 20
804886.342300
  0
VERTEX
  8
0
 10
388616.742000
 20
804885.611800
  0
VERTEX
  8
0
 10
388617.415100
 20
804884.870200
  0
VERTEX
  8
0
 10
388618.080200
 20
804884.122100
  0
VERTEX
  8
0
 10
388618.737000
 20
804883.367300
  0
VERTEX
  8
0
 10
388619.385800
 20
804882.606000
  0
VERTEX
  8
0
 10
388620.026400
 20
804881.838000
  0
VERTEX
  8
0
 10
388620.183600
 20
804881.647100
  0
VERTEX
  8
0
 10
388620.658900
 20
804881.063400
  0
SEQEND
  0
POLYLINE
  8
0
 62
1
  6
CONTINUOUS
 70
0
 66
1
 10
0.000000
 20
0.000000
  0
VERTEX
  8
0
 10
388605.862300
 20
804900.000000
  0
VERTEX
  8
0
 10
388605.879700
 20
804899.978600
  0
VERTEX
  8
0
 10
388606.510300
 20
804899.202500
  0
VERTEX
  8
0
 10
388607.140900
 20
804898.426400
  0
VERTEX
  8
0
 10
388607.771500
 20
804897.650300
  0
VERTEX
  8
0
 10
388608.402100
 20
804896.874200
  0
VERTEX
  8
0
 10
388609.032600
 20
804896.098000
  0
VERTEX
  8
0
 10
388609.663200
 20
804895.321900
  0
VERTEX
  8
0
 10
388610.293800
 20
804894.545800
  0
VERTEX
  8
0
 10
388610.924400
 20
804893.769700
  0
VERTEX
  8
0
 10
388611.555000
 20
804892.993600
  0
VERTEX
  8
0
 10
388612.185600
 20
804892.217500
  0
VERTEX
  8
0
 10
388612.816200
 20
804891.441300
  0
VERTEX
  8
0
 10
388613.446800
 20
804890.665200
  0
VERTEX
  8
0
 10
388614.077400
 20
804889.889100
  0
VERTEX
  8
0
 10
388614.708000
 20
804889.113000
  0
VERTEX
  8
0
 10
388615.338600
 20
804888.336900
  0
VERTEX
  8
0
 10
388615.969100
 20
804887.560800
  0
VERTEX
  8
0
 10
388616.599700
 20
804886.784700
  0
VERTEX
  8
0
 10
388617.230300
 20
804886.008500
  0
VERTEX
  8
0
 10
388617.860900
 20
804885.232400
  0
VERTEX
  8
0
 10
388618.491500
 20
804884.456300
  0
VERTEX
  8
0
 10
388619.122100
 20
804883.680200
  0
VERTEX
  8
0
 10
388619.752700
 20
804882.904100
  0
VERTEX
  8
0
 10
388620.383300
 20
804882.128000
  0
VERTEX
  8
0
 10
388620.539200
 20
804881.936100
  0
VERTEX
  8
0
 10
388621.013900
 20
804881.351800
  0
SEQEND
  0
POLYLINE
  8
0
 62
2
  6
CONTINUOUS
 70
0
 66
1
 10
0.000000
 20
0.000000
  0
VERTEX
  8
0
 10
388606.893100
 20
804900.000000
  0
VERTEX
  8
0
 10
388607.131200
 20
804899.707000
  0
VERTEX
  8
0
 10
388607.761800
 20
804898.930900
  0
VERTEX
  8
0
 10
388608.392400
 20
804898.154700
  0
VERTEX
  8
0
 10
388609.022900
 20
804897.378600
  0
VERTEX
  8
0
 10
388609.653500
 20
804896.602500
  0
VERTEX
  8
0
 10
388610.284100
 20
804895.826400
  0
VERTEX
  8
0
 10
388610.914700
 20
804895.050300
  0
VERTEX
  8
0
 10
388611.545300
 20
804894.274200
  0
VERTEX
  8
0
 10
388612.175900
 20
804893.498100
  0
VERTEX
  8
0
 10
388612.806500
 20
804892.721900
  0
VERTEX
  8
0
 10
388613.437100
 20
804891.945800
  0
VERTEX
  8
0
 10
388614.067700
 20
804891.169700
  0
VERTEX
  8
0
 10
388614.698300
 20
804890.393600
  0
VERTEX
  8
0
 10
388615.328900
 20
804889.617500
  0
VERTEX
  8
0
 10
388615.959400
 20
804888.841400
  0
VERTEX
  8
0
 10
388616.590000
 20
804888.065200
  0
VERTEX
  8
0
 10
388617.220600
 20
804887.289100
  0
VERTEX
  8
0
 10
388617.851200
 20
804886.513000
  0
VERTEX
  8
0
 10
388618.481800
 20
804885.736900
  0
VERTEX
  8
0
 10
388619.112400
 20
804884.960800
  0
VERTEX
  8
0
 10
388619.743000
 20
804884.184700
  0
VERTEX
  8
0
 10
388620.373600
 20
804883.408600
  0
VERTEX
  8
0
 10
388621.004200
 20
804882.632400
  0
VERTEX
  8
0
 10
388621.160100
 20
804882.440500
  0
VERTEX
  8
0
 10
388621.634800
 20
804881.856300
  0
SEQEND
  0
POLYLINE
  8
0
 62
7
  6
CONTINUOUS
 70
0
 66
1
 10
0.000000
 20
0.000000
  0
VERTEX
  8
0
 10
388614.636400
 20
804900.000000
  0
VERTEX
  8
0
 10
388614.901200
 20
804899.577800
  0
VERTEX
  8
0
 10
388615.442000
 20
804898.728700
  0
VERTEX
  8
0
 10
388615.988300
 20
804897.884100
  0
VERTEX
  8
0
 10
388616.531700
 20
804897.037200
  0
VERTEX
  8
0
 10
388617.056400
 20
804896.175000
  0
VERTEX
  8
0
 10
388617.589000
 20
804895.319200
  0
VERTEX
  8
0
 10
388618.129300
 20
804894.469800
  0
VERTEX
  8
0
 10
388618.677500
 20
804893.626700
  0
VERTEX
  8
0
 10
388619.233400
 20
804892.789900
  0
SEQEND
  0
POLYLINE
  8
0
 62
2
  6
CONTINUOUS
 70
0
 66
1
 10
0.000000
 20
0.000000
  0
VERTEX
  8
0
 10
388613.335400
 20
804900.000000
  0
VERTEX
  8
0
 10
388613.534100
 20
804899.755500
  0
VERTEX
  8
0
 10
388614.164700
 20
804898.979400
  0
VERTEX
  8
0
 10
388614.795300
 20
804898.203200
  0
VERTEX
  8
0
 10
388615.425900
 20
804897.427100
  0
VERTEX
  8
0
 10
388616.056500
 20
804896.651000
  0
VERTEX
  8
0
 10
388616.687100
 20
804895.874900
  0
VERTEX
  8
0
 10
388617.317700
 20
804895.098800
  0
VERTEX
  8
0
 10
388617.948200
 20
804894.322700
  0
VERTEX
  8
0
 10
388618.578800
 20
804893.546500
  0
VERTEX
  8
0
 10
388619.209400
 20
804892.770400
  0
SEQEND
  0
POLYLINE
  8
0
 62
3
  6
CONTINUOUS
 70
0
 66
1
 10
0.000000
 20
0.000000
  0
VERTEX
  8
0
 10
388600.000000
 20
804910.909200
  0
VERTEX
  8
0
 10
388600.160800
 20
804910.730600
  0
VERTEX
  8
0
 10
388600.844600
 20
804910.000900
  0
VERTEX
  8
0
 10
388601.542800
 20
804909.285100
  0
VERTEX
  8
0
 10
388602.255300
 20
804908.583400
  0
VERTEX
  8
0
 10
388602.981600
 20
804907.896000
  0
VERTEX
  8
0
 10
388603.143900
 20
804907.746100
  0
VERTEX
  8
0
 10
388603.713300
 20
804907.214400
  0
VERTEX
  8
0
 10
388604.431900
 20
804906.519000
  0
VERTEX
  8
0
 10
388605.136400
 20
804905.809400
  0
VERTEX
  8
0
 10
388605.826600
 20
804905.085800
  0
VERTEX
  8
0
 10
388606.502200
 20
804904.348500
  0
VERTEX
  8
0
 10
388607.163000
 20
804903.597900
  0
VERTEX
  8
0
 10
388607.808500
 20
804902.834300
  0
VERTEX
  8
0
 10
388608.071200
 20
804902.514500
  0
VERTEX
  8
0
 10
388608.109300
 20
804902.467700
  0
VERTEX
  8
0
 10
388608.440900
 20
804902.059600
  0
VERTEX
  8
0
 10
388609.071500
 20
804901.283400
  0
VERTEX
  8
0
 10
388609.702000
 20
804900.507300
  0
VERTEX
  8
0
 10
388610.114300
 20
804900.000000
  0
SEQEND
  0
POLYLINE
  8
0
 62
7
  6
CONTINUOUS
 70
0
 66
1
 10
0.000000
 20
0.000000
  0
VERTEX
  8
0
 10
388603.702600
 20
804925.026200
  0
VERTEX
  8
0
 10
388603.898200
 20
804923.904800
  0
VERTEX
  8
0
 10
388604.022900
 20
804922.727200
  0
VERTEX
  8
0
 10
388604.244900
 20
804921.626700
  0
VERTEX
  8
0
 10
388604.453100
 20
804920.515400
  0
VERTEX
  8
0
 10
388604.831900
 20
804919.539400
  0
VERTEX
  8
0
 10
388604.979800
 20
804919.158400
  0
VERTEX
  8
0
 10
388605.152800
 20
804918.657000
  0
VERTEX
  8
0
 10
388605.448800
 20
804917.832200
  0
VERTEX
  8
0
 10
388605.759900
 20
804917.004300
  0
VERTEX
  8
0
 10
388606.075900
 20
804916.163800
  0
VERTEX
  8
0
 10
388606.414600
 20
804915.326400
  0
VERTEX
  8
0
 10
388606.801100
 20
804914.517700
  0
VERTEX
  8
0
 10
388607.189100
 20
804913.693500
  0
VERTEX
  8
0
 10
388607.610700
 20
804912.886600
  0
VERTEX
  8
0
 10
388607.709700
 20
804912.712200
  0
VERTEX
  8
0
 10
388608.270000
 20
804912.018300
  0
VERTEX
  8
0
 10
388609.258200
 20
804911.407500
  0
VERTEX
  8
0
 10
388610.032000
 20
804910.573600
  0
VERTEX
  8
0
 10
388610.478100
 20
804909.434700
  0
VERTEX
  8
0
 10
388610.674100
 20
804908.095600
  0
VERTEX
  8
0
 10
388611.698500
 20
804907.510600
  0
VERTEX
  8
0
 10
388611.340000
 20
804905.759600
  0
VERTEX
  8
0
 10
388611.561900
 20
804905.357700
  0
VERTEX
  8
0
 10
388611.594100
 20
804905.299100
  0
VERTEX
  8
0
 10
388611.846500
 20
804904.826600
  0
VERTEX
  8
0
 10
388612.330600
 20
804903.931500
  0
VERTEX
  8
0
 10
388612.820000
 20
804903.040700
  0
VERTEX
  8
0
 10
388613.311500
 20
804902.151500
  0
VERTEX
  8
0
 10
388613.835900
 20
804901.289200
  0
VERTEX
  8
0
 10
388614.365800
 20
804900.431300
  0
VERTEX
  8
0
 10
388614.636400
 20
804900.000000
  0
SEQEND
  0
POLYLINE
  8
0
 62
2
  6
CONTINUOUS
 70
0
 66
1
 10
0.000000
 20
0.000000
  0
VERTEX
  8
0
 10
388600.000000
 20
804914.749200
  0
VERTEX
  8
0
 10
388600.138200
 20
804914.577300
  0
VERTEX
  8
0
 10
388600.745000
 20
804913.846400
  0
VERTEX
  8
0
 10
388601.366400
 20
804913.127800
  0
VERTEX
  8
0
 10
388602.002000
 20
804912.421700
  0
VERTEX
  8
0
 10
388602.651600
 20
804911.728600
  0
VERTEX
  8
0
 10
388603.314900
 20
804911.048500
  0
VERTEX
  8
0
 10
388603.991700
 20
804910.381900
  0
VERTEX
  8
0
 10
388604.681700
 20
804909.728900
  0
VERTEX
  8
0
 10
388604.836000
 20
804909.586500
  0
VERTEX
  8
0
 10
388605.433800
 20
804909.028200
  0
VERTEX
  8
0
 10
388606.188300
 20
804908.298000
  0
VERTEX
  8
0
 10
388606.928100
 20
804907.552900
  0
VERTEX
  8
0
 10
388607.652800
 20
804906.793200
  0
VERTEX
  8
0
 10
388608.362200
 20
804906.019100
  0
VERTEX
  8
0
 10
388609.055900
 20
804905.230900
  0
VERTEX
  8
0
 10
388609.733800
 20
804904.429100
  0
VERTEX
  8
0
 10
388610.009600
 20
804904.093300
  0
VERTEX
  8
0
 10
388610.049600
 20
804904.044100
  0
VERTEX
  8
0
 10
388610.381200
 20
804903.636000
  0
VERTEX
  8
0
 10
388611.011700
 20
804902.859900
  0
VERTEX
  8
0
 10
388611.642300
 20
804902.083800
  0
VERTEX
  8
0
 10
388612.272900
 20
804901.307700
  0
VERTEX
  8
0
 10
388612.903500
 20
804900.531600
  0
VERTEX
  8
0
 10
388613.335400
 20
804900.000000
  0
SEQEND
  0
POLYLINE
  8
0
 62
1
  6
CONTINUOUS
 70
0
 66
1
 10
0.000000
 20
0.000000
  0
VERTEX
  8
0
 10
388600.000000
 20
804906.174400
  0
VERTEX
  8
0
 10
388600.737400
 20
804905.476600
  0
VERTEX
  8
0
 10
388600.910500
 20
804905.316800
  0
VERTEX
  8
0
 10
388601.442200
 20
804904.820200
  0
VERTEX
  8
0
 10
388602.113400
 20
804904.170700
  0
VERTEX
  8
0
 10
388602.771400
 20
804903.507900
  0
VERTEX
  8
0
 10
388603.416100
 20
804902.832000
  0
VERTEX
  8
0
 10
388604.047100
 20
804902.143400
  0
VERTEX
  8
0
 10
388604.664200
 20
804901.442400
  0
VERTEX
  8
0
 10
388605.267200
 20
804900.729100
  0
VERTEX
  8
0
 10
388605.512500
 20
804900.430400
  0
VERTEX
  8
0
 10
388605.548100
 20
804900.386700
  0
VERTEX
  8
0
 10
388605.862300
 20
804900.000000
  0
SEQEND
  0
POLYLINE
  8
0
 62
2
  6
CONTINUOUS
 70
0
 66
1
 10
0.000000
 20
0.000000
  0
VERTEX
  8
0
 10
388600.000000
 20
804907.295800
  0
VERTEX
  8
0
 10
388600.518800
 20
804906.784800
  0
VERTEX
  8
0
 10
388601.281400
 20
804906.063100
  0
VERTEX
  8
0
 10
388601.451900
 20
804905.905700
  0
VERTEX
  8
0
 10
388601.992800
 20
804905.400600
  0
VERTEX
  8
0
 10
388602.675500
 20
804904.740000
  0
VERTEX
  8
0
 10
388603.344800
 20
804904.065800
  0
VERTEX
  8
0
 10
388604.000500
 20
804903.378400
  0
VERTEX
  8
0
 10
388604.642300
 20
804902.678000
  0
VERTEX
  8
0
 10
388605.270000
 20
804901.964900
  0
VERTEX
  8
0
 10
388605.883300
 20
804901.239400
  0
VERTEX
  8
0
 10
388606.132800
 20
804900.935600
  0
VERTEX
  8
0
 10
388606.169000
 20
804900.891200
  0
VERTEX
  8
0
 10
388606.500600
 20
804900.483100
  0
VERTEX
  8
0
 10
388606.893100
 20
804900.000000
  0
SEQEND
  0
POLYLINE
  8
0
 62
3
  6
CONTINUOUS
 70
0
 66
1
 10
0.000000
 20
0.000000
  0
VERTEX
  8
0
 10
388586.385900
 20
804927.880800
  0
VERTEX
  8
0
 10
388587.007400
 20
804927.097400
  0
VERTEX
  8
0
 10
388587.621200
 20
804926.324000
  0
VERTEX
  8
0
 10
388587.629000
 20
804926.314100
  0
VERTEX
  8
0
 10
388587.685300
 20
804926.243200
  0
VERTEX
  8
0
 10
388588.250600
 20
804925.530800
  0
VERTEX
  8
0
 10
388588.872200
 20
804924.747400
  0
VERTEX
  8
0
 10
388589.493800
 20
804923.964100
  0
VERTEX
  8
0
 10
388590.115400
 20
804923.180700
  0
VERTEX
  8
0
 10
388590.737000
 20
804922.397400
  0
VERTEX
  8
0
 10
388591.358500
 20
804921.614000
  0
VERTEX
  8
0
 10
388591.980100
 20
804920.830700
  0
VERTEX
  8
0
 10
388592.601700
 20
804920.047300
  0
VERTEX
  8
0
 10
388593.223300
 20
804919.264000
  0
VERTEX
  8
0
 10
388593.844900
 20
804918.480600
  0
VERTEX
  8
0
 10
388594.466500
 20
804917.697300
  0
VERTEX
  8
0
 10
388595.088100
 20
804916.913900
  0
VERTEX
  8
0
 10
388595.709600
 20
804916.130600
  0
VERTEX
  8
0
 10
388596.331200
 20
804915.347200
  0
VERTEX
  8
0
 10
388596.952800
 20
804914.563900
  0
VERTEX
  8
0
 10
388597.574400
 20
804913.780600
  0
VERTEX
  8
0
 10
388597.817000
 20
804913.474800
  0
VERTEX
  8
0
 10
388598.198900
 20
804912.999500
  0
VERTEX
  8
0
 10
388598.837700
 20
804912.230200
  0
VERTEX
  8
0
 10
388599.491700
 20
804911.473800
  0
VERTEX
  8
0
 10
388600.000000
 20
804910.909200
  0
SEQEND
  0
POLYLINE
  8
0
 62
1
  6
CONTINUOUS
 70
0
 66
1
 10
0.000000
 20
0.000000
  0
VERTEX
  8
0
 10
388586.908700
 20
804921.912800
  0
VERTEX
  8
0
 10
388587.530300
 20
804921.129500
  0
VERTEX
  8
0
 10
388588.151900
 20
804920.346100
  0
VERTEX
  8
0
 10
388588.773500
 20
804919.562800
  0
VERTEX
  8
0
 10
388589.395100
 20
804918.779400
  0
VERTEX
  8
0
 10
388590.016700
 20
804917.996100
  0
VERTEX
  8
0
 10
388590.638300
 20
804917.212700
  0
VERTEX
  8
0
 10
388591.259800
 20
804916.429400
  0
VERTEX
  8
0
 10
388591.881400
 20
804915.646100
  0
VERTEX
  8
0
 10
388592.503000
 20
804914.862700
  0
VERTEX
  8
0
 10
388593.124600
 20
804914.079400
  0
VERTEX
  8
0
 10
388593.746200
 20
804913.296000
  0
VERTEX
  8
0
 10
388594.367800
 20
804912.512700
  0
VERTEX
  8
0
 10
388594.989300
 20
804911.729300
  0
VERTEX
  8
0
 10
388595.232000
 20
804911.423600
  0
VERTEX
  8
0
 10
388595.639000
 20
804910.916900
  0
VERTEX
  8
0
 10
388596.320000
 20
804910.096800
  0
VERTEX
  8
0
 10
388597.017200
 20
804909.290500
  0
VERTEX
  8
0
 10
388597.730500
 20
804908.498200
  0
VERTEX
  8
0
 10
388598.459400
 20
804907.720400
  0
VERTEX
  8
0
 10
388599.203700
 20
804906.957300
  0
VERTEX
  8
0
 10
388599.963100
 20
804906.209300
  0
VERTEX
  8
0
 10
388600.000000
 20
804906.174400
  0
SEQEND
  0
POLYLINE
  8
0
 62
2
  6
CONTINUOUS
 70
0
 66
1
 10
0.000000
 20
0.000000
  0
VERTEX
  8
0
 10
388589.587400
 20
804927.868100
  0
VERTEX
  8
0
 10
388589.643600
 20
804927.797200
  0
VERTEX
  8
0
 10
388590.209000
 20
804927.084700
  0
VERTEX
  8
0
 10
388590.830600
 20
804926.301400
  0
VERTEX
  8
0
 10
388591.452200
 20
804925.518000
  0
VERTEX
  8
0
 10
388592.073700
 20
804924.734700
  0
VERTEX
  8
0
 10
388592.695300
 20
804923.951300
  0
VERTEX
  8
0
 10
388593.316900
 20
804923.168000
  0
VERTEX
  8
0
 10
388593.938500
 20
804922.384600
  0
VERTEX
  8
0
 10
388594.560100
 20
804921.601300
  0
VERTEX
  8
0
 10
388595.181700
 20
804920.817900
  0
VERTEX
  8
0
 10
388595.803300
 20
804920.034600
  0
VERTEX
  8
0
 10
388596.424800
 20
804919.251200
  0
VERTEX
  8
0
 10
388597.046400
 20
804918.467900
  0
VERTEX
  8
0
 10
388597.668000
 20
804917.684600
  0
VERTEX
  8
0
 10
388598.289600
 20
804916.901200
  0
VERTEX
  8
0
 10
388598.911200
 20
804916.117900
  0
VERTEX
  8
0
 10
388599.532800
 20
804915.334500
  0
VERTEX
  8
0
 10
388599.775400
 20
804915.028800
  0
VERTEX
  8
0
 10
388600.000000
 20
804914.749200
  0
SEQEND
  0
POLYLINE
  8
0
 62
2
  6
CONTINUOUS
 70
0
 66
1
 10
0.000000
 20
0.000000
  0
VERTEX
  8
0
 10
388585.670700
 20
804924.760100
  0
VERTEX
  8
0
 10
388585.726900
 20
804924.689300
  0
VERTEX
  8
0
 10
388586.292300
 20
804923.976800
  0
VERTEX
  8
0
 10
388586.913800
 20
804923.193400
  0
VERTEX
  8
0
 10
388587.535400
 20
804922.410100
  0
VERTEX
  8
0
 10
388588.157000
 20
804921.626700
  0
VERTEX
  8
0
 10
388588.778600
 20
804920.843400
  0
VERTEX
  8
0
 10
388589.400200
 20
804920.060100
  0
VERTEX
  8
0
 10
388590.021800
 20
804919.276700
  0
VERTEX
  8
0
 10
388590.643300
 20
804918.493400
  0
VERTEX
  8
0
 10
388591.264900
 20
804917.710000
  0
VERTEX
  8
0
 10
388591.886500
 20
804916.926700
  0
VERTEX
  8
0
 10
388592.508100
 20
804916.143300
  0
VERTEX
  8
0
 10
388593.129700
 20
804915.360000
  0
VERTEX
  8
0
 10
388593.751300
 20
804914.576600
  0
VERTEX
  8
0
 10
388594.372900
 20
804913.793300
  0
VERTEX
  8
0
 10
388594.994400
 20
804913.009900
  0
VERTEX
  8
0
 10
388595.616000
 20
804912.226600
  0
VERTEX
  8
0
 10
388595.858600
 20
804911.920800
  0
VERTEX
  8
0
 10
388596.259600
 20
804911.421800
  0
VERTEX
  8
0
 10
388596.930400
 20
804910.614000
  0
VERTEX
  8
0
 10
388597.617100
 20
804909.819700
  0
VERTEX
  8
0
 10
388598.319600
 20
804909.039400
  0
VERTEX
  8
0
 10
388599.037600
 20
804908.273300
  0
VERTEX
  8
0
 10
388599.770800
 20
804907.521600
  0
VERTEX
  8
0
 10
388600.000000
 20
804907.295800
  0
SEQEND
  0
TEXT
  8
0
 62
2
 10
388604.154000
 20
804859.761400
 30
0.000000
 40
2.500
  1
100
  7
ARIAL
 50
219.094
 73
3
 11
388604.154000
 21
804859.761400
 31
0.000000
  0
LINE
  8
0
 62
1
 10
388648.185200
 20
804852.540800
 11
388648.774900
 21
804853.019900
  0
CIRCLE
  8
0
 62
1
 10
388647.993000
 20
804852.384500
 40
0.247724
  0
CIRCLE
  8
0
 62
1
 10
388648.968800
 20
804853.177400
 40
0.249745
  0
LINE
  8
0
 62
7
 10
388598.006600
 20
804900.000000
 11
388597.952300
 21
804899.880500
  0
LINE
  8
0
 62
7
 10
388597.952300
 20
804899.880500
 11
388597.904400
 21
804899.828800
  0
LINE
  8
0
 62
7
 10
388597.904400
 20
804899.828800
 11
388597.756700
 21
804899.773300
  0
LINE
  8
0
 62
7
 10
388597.756700
 20
804899.773300
 11
388597.657000
 21
804899.769500
  0
LINE
  8
0
 62
7
 10
388597.657000
 20
804899.769500
 11
388597.557300
 21
804899.765800
  0
LINE
  8
0
 62
7
 10
388597.557300
 20
804899.765800
 11
388597.306100
 21
804899.806300
  0
LINE
  8
0
 62
7
 10
388597.306100
 20
804899.806300
 11
388596.951600
 21
804899.942700
  0
LINE
  8
0
 62
7
 10
388596.951600
 20
804899.942700
 11
388596.825400
 21
804900.000000
  0
LINE
  8
0
 62
7
 10
388598.044600
 20
804900.083600
 11
388598.006600
 21
804900.000000
  0
LINE
  8
0
 62
7
 10
388596.825400
 20
804900.000000
 11
388596.748400
 21
804900.034900
  0
LINE
  8
0
 62
7
 10
388596.748400
 20
804900.034900
 11
388596.493500
 21
804900.175100
  0
LINE
  8
0
 62
7
 10
388596.493500
 20
804900.175100
 11
388596.083500
 21
804900.459200
  0
LINE
  8
0
 62
7
 10
388596.083500
 20
804900.459200
 11
388595.769400
 21
804900.846800
  0
LINE
  8
0
 62
7
 10
388595.769400
 20
804900.846800
 11
388595.610500
 21
804901.090500
  0
LINE
  8
0
 62
7
 10
388595.610500
 20
804901.090500
 11
388595.503300
 21
804901.286100
  0
LINE
  8
0
 62
3
 10
388626.048900
 20
804881.577400
 11
388624.884700
 21
804880.631500
  0
LINE
  8
0
 62
7
 10
388614.077400
 20
804889.889100
 11
388613.752900
 21
804889.625500
  0
LINE
  8
0
 62
7
 10
388613.752900
 20
804889.625500
 11
388613.723400
 21
804889.586100
  0
LINE
  8
0
 62
7
 10
388613.723400
 20
804889.586100
 11
388613.693800
 21
804889.546700
  0
LINE
  8
0
 62
7
 10
388613.693800
 20
804889.546700
 11
388613.664300
 21
804889.507300
  0
LINE
  8
0
 62
7
 10
388613.664300
 20
804889.507300
 11
388613.620300
 21
804889.410000
  0
LINE
  8
0
 62
7
 10
388613.620300
 20
804889.410000
 11
388613.509000
 21
804889.073400
  0
LINE
  8
0
 62
7
 10
388613.509000
 20
804889.073400
 11
388613.498000
 21
804889.049100
  0
LINE
  8
0
 62
7
 10
388613.498000
 20
804889.049100
 11
388613.477700
 21
804889.017200
  0
LINE
  8
0
 62
7
 10
388613.477700
 20
804889.017200
 11
388613.468500
 21
804889.009700
  0
LINE
  8
0
 62
7
 10
388613.468500
 20
804889.009700
 11
388613.442400
 21
804889.003900
  0
LINE
  8
0
 62
7
 10
388613.442400
 20
804889.003900
 11
388613.425600
 21
804889.005600
  0
LINE
  8
0
 62
7
 10
388613.425600
 20
804889.005600
 11
388613.408800
 21
804889.007400
  0
LINE
  8
0
 62
7
 10
388613.408800
 20
804889.007400
 11
388613.367700
 21
804889.020100
  0
LINE
  8
0
 62
7
 10
388613.367700
 20
804889.020100
 11
388613.311500
 21
804889.051400
  0
LINE
  8
0
 62
7
 10
388613.311500
 20
804889.051400
 11
388613.279600
 21
804889.071700
  0
LINE
  8
0
 62
7
 10
388613.279600
 20
804889.071700
 11
388613.240200
 21
804889.101200
  0
LINE
  8
0
 62
7
 10
388613.240200
 20
804889.101200
 11
388613.178200
 21
804889.158600
  0
LINE
  8
0
 62
7
 10
388613.178200
 20
804889.158600
 11
388613.134800
 21
804889.231000
  0
LINE
  8
0
 62
7
 10
388613.134800
 20
804889.231000
 11
388613.113900
 21
804889.275600
  0
LINE
  8
0
 62
7
 10
388613.113900
 20
804889.275600
 11
388613.100600
 21
804889.310900
  0
LINE
  8
0
 62
7
 10
388613.100600
 20
804889.310900
 11
388613.081500
 21
804889.372300
  0
LINE
  8
0
 62
7
 10
388613.081500
 20
804889.372300
 11
388613.077400
 21
804889.415200
  0
LINE
  8
0
 62
7
 10
388613.077400
 20
804889.415200
 11
388613.079200
 21
804889.432000
  0
LINE
  8
0
 62
7
 10
388613.079200
 20
804889.432000
 11
388613.080900
 21
804889.448800
  0
LINE
  8
0
 62
7
 10
388613.080900
 20
804889.448800
 11
388613.091900
 21
804889.473100
  0
LINE
  8
0
 62
7
 10
388613.091900
 20
804889.473100
 11
388613.101200
 21
804889.480700
  0
LINE
  8
0
 62
7
 10
388613.101200
 20
804889.480700
 11
388613.136500
 21
804889.494000
  0
LINE
  8
0
 62
7
 10
388613.136500
 20
804889.494000
 11
388613.162600
 21
804889.499800
  0
LINE
  8
0
 62
7
 10
388613.162600
 20
804889.499800
 11
388613.514800
 21
804889.539800
  0
LINE
  8
0
 62
7
 10
388613.514800
 20
804889.539800
 11
388613.619100
 21
804889.562900
  0
LINE
  8
0
 62
7
 10
388613.619100
 20
804889.562900
 11
388613.663700
 21
804889.583800
  0
LINE
  8
0
 62
7
 10
388613.663700
 20
804889.583800
 11
388613.708300
 21
804889.604700
  0
LINE
  8
0
 62
7
 10
388613.708300
 20
804889.604700
 11
388613.752900
 21
804889.625500
  0
LINE
  8
0
 62
7
 10
388609.600800
 20
804893.905200
 11
388609.526900
 21
804893.741900
  0
LINE
  8
0
 62
7
 10
388609.526900
 20
804893.741900
 11
388609.340300
 21
804893.177200
  0
LINE
  8
0
 62
7
 10
388609.340300
 20
804893.177200
 11
388609.321800
 21
804893.136400
  0
LINE
  8
0
 62
7
 10
388609.321800
 20
804893.136400
 11
388609.287800
 21
804893.082900
  0
LINE
  8
0
 62
7
 10
388609.287800
 20
804893.082900
 11
388609.272200
 21
804893.070300
  0
LINE
  8
0
 62
7
 10
388609.272200
 20
804893.070300
 11
388609.228500
 21
804893.060500
  0
LINE
  8
0
 62
7
 10
388609.228500
 20
804893.060500
 11
388609.200300
 21
804893.063500
  0
LINE
  8
0
 62
7
 10
388609.200300
 20
804893.063500
 11
388609.172100
 21
804893.066400
  0
LINE
  8
0
 62
7
 10
388609.172100
 20
804893.066400
 11
388609.103100
 21
804893.087800
  0
LINE
  8
0
 62
7
 10
388609.103100
 20
804893.087800
 11
388609.008800
 21
804893.140300
  0
LINE
  8
0
 62
7
 10
388609.008800
 20
804893.140300
 11
388608.955300
 21
804893.174300
  0
LINE
  8
0
 62
7
 10
388608.955300
 20
804893.174300
 11
388608.889200
 21
804893.223800
  0
LINE
  8
0
 62
7
 10
388608.889200
 20
804893.223800
 11
388608.785200
 21
804893.320100
  0
LINE
  8
0
 62
7
 10
388608.785200
 20
804893.320100
 11
388608.712300
 21
804893.441600
  0
LINE
  8
0
 62
7
 10
388608.712300
 20
804893.441600
 11
388608.677300
 21
804893.516400
  0
LINE
  8
0
 62
7
 10
388608.677300
 20
804893.516400
 11
388608.655000
 21
804893.575700
  0
LINE
  8
0
 62
7
 10
388608.655000
 20
804893.575700
 11
388608.622900
 21
804893.678800
  0
LINE
  8
0
 62
7
 10
388608.622900
 20
804893.678800
 11
388608.616100
 21
804893.750700
  0
LINE
  8
0
 62
7
 10
388608.616100
 20
804893.750700
 11
388608.619000
 21
804893.778900
  0
LINE
  8
0
 62
7
 10
388608.619000
 20
804893.778900
 11
388608.621900
 21
804893.807100
  0
LINE
  8
0
 62
7
 10
388608.621900
 20
804893.807100
 11
388608.640400
 21
804893.847900
  0
LINE
  8
0
 62
7
 10
388608.640400
 20
804893.847900
 11
388608.656000
 21
804893.860500
  0
LINE
  8
0
 62
7
 10
388608.656000
 20
804893.860500
 11
388608.715200
 21
804893.882900
  0
LINE
  8
0
 62
7
 10
388611.555000
 20
804892.993600
 11
388611.146700
 21
804892.661800
  0
LINE
  8
0
 62
7
 10
388611.146700
 20
804892.661800
 11
388611.109500
 21
804892.612200
  0
LINE
  8
0
 62
7
 10
388611.109500
 20
804892.612200
 11
388611.072300
 21
804892.562600
  0
LINE
  8
0
 62
7
 10
388611.072300
 20
804892.562600
 11
388611.035100
 21
804892.513100
  0
LINE
  8
0
 62
7
 10
388611.035100
 20
804892.513100
 11
388610.979700
 21
804892.390600
  0
LINE
  8
0
 62
7
 10
388610.979700
 20
804892.390600
 11
388610.839700
 21
804891.966900
  0
LINE
  8
0
 62
7
 10
388610.839700
 20
804891.966900
 11
388610.825800
 21
804891.936300
  0
LINE
  8
0
 62
7
 10
388610.825800
 20
804891.936300
 11
388610.800300
 21
804891.896200
  0
LINE
  8
0
 62
7
 10
388610.800300
 20
804891.896200
 11
388610.788600
 21
804891.886700
  0
LINE
  8
0
 62
7
 10
388610.788600
 20
804891.886700
 11
388610.755800
 21
804891.879400
  0
LINE
  8
0
 62
7
 10
388610.755800
 20
804891.879400
 11
388610.734700
 21
804891.881600
  0
LINE
  8
0
 62
7
 10
388610.734700
 20
804891.881600
 11
388610.713500
 21
804891.883800
  0
LINE
  8
0
 62
7
 10
388610.713500
 20
804891.883800
 11
388610.661800
 21
804891.899800
  0
LINE
  8
0
 62
7
 10
388610.661800
 20
804891.899800
 11
388610.591000
 21
804891.939200
  0
LINE
  8
0
 62
7
 10
388610.591000
 20
804891.939200
 11
388610.550900
 21
804891.964700
  0
LINE
  8
0
 62
7
 10
388610.550900
 20
804891.964700
 11
388610.501400
 21
804892.001900
  0
LINE
  8
0
 62
7
 10
388610.501400
 20
804892.001900
 11
388610.423300
 21
804892.074100
  0
LINE
  8
0
 62
7
 10
388610.423300
 20
804892.074100
 11
388610.368600
 21
804892.165200
  0
LINE
  8
0
 62
7
 10
388610.368600
 20
804892.165200
 11
388610.342400
 21
804892.221400
  0
LINE
  8
0
 62
7
 10
388610.342400
 20
804892.221400
 11
388610.325600
 21
804892.265900
  0
LINE
  8
0
 62
7
 10
388610.325600
 20
804892.265900
 11
388610.301600
 21
804892.343200
  0
LINE
  8
0
 62
7
 10
388610.301600
 20
804892.343200
 11
388610.296500
 21
804892.397100
  0
LINE
  8
0
 62
7
 10
388610.296500
 20
804892.397100
 11
388610.298600
 21
804892.418300
  0
LINE
  8
0
 62
7
 10
388610.298600
 20
804892.418300
 11
388610.300800
 21
804892.439400
  0
LINE
  8
0
 62
7
 10
388610.300800
 20
804892.439400
 11
388610.314700
 21
804892.470000
  0
LINE
  8
0
 62
7
 10
388610.314700
 20
804892.470000
 11
388610.326400
 21
804892.479500
  0
LINE
  8
0
 62
7
 10
388610.326400
 20
804892.479500
 11
388610.370800
 21
804892.496300
  0
LINE
  8
0
 62
7
 10
388610.370800
 20
804892.496300
 11
388610.403600
 21
804892.503600
  0
LINE
  8
0
 62
7
 10
388610.403600
 20
804892.503600
 11
388610.847000
 21
804892.553900
  0
LINE
  8
0
 62
7
 10
388610.847000
 20
804892.553900
 11
388610.978200
 21
804892.583100
  0
LINE
  8
0
 62
7
 10
388610.978200
 20
804892.583100
 11
388611.034400
 21
804892.609300
  0
LINE
  8
0
 62
7
 10
388611.034400
 20
804892.609300
 11
388611.090500
 21
804892.635600
  0
LINE
  8
0
 62
7
 10
388611.090500
 20
804892.635600
 11
388611.146700
 21
804892.661800
  0
LINE
  8
0
 62
7
 10
388610.293800
 20
804894.545800
 11
388609.749500
 21
804894.103500
  0
LINE
  8
0
 62
7
 10
388609.749500
 20
804894.103500
 11
388609.699900
 21
804894.037400
  0
LINE
  8
0
 62
7
 10
388609.699900
 20
804894.037400
 11
388609.650300
 21
804893.971300
  0
LINE
  8
0
 62
7
 10
388609.650300
 20
804893.971300
 11
388609.600800
 21
804893.905200
  0
LINE
  8
0
 62
7
 10
388608.715200
 20
804893.882900
 11
388608.759000
 21
804893.892600
  0
LINE
  8
0
 62
7
 10
388608.759000
 20
804893.892600
 11
388609.350000
 21
804893.959700
  0
LINE
  8
0
 62
7
 10
388609.350000
 20
804893.959700
 11
388609.524900
 21
804893.998600
  0
LINE
  8
0
 62
7
 10
388609.524900
 20
804893.998600
 11
388609.599800
 21
804894.033500
  0
LINE
  8
0
 62
7
 10
388609.599800
 20
804894.033500
 11
388609.674600
 21
804894.068500
  0
LINE
  8
0
 62
7
 10
388609.674600
 20
804894.068500
 11
388609.749500
 21
804894.103500
  0
LINE
  8
0
 62
7
 10
388608.402100
 20
804896.874200
 11
388607.539600
 21
804896.173400
  0
LINE
  8
0
 62
7
 10
388607.539600
 20
804896.173400
 11
388607.461100
 21
804896.068700
  0
LINE
  8
0
 62
7
 10
388607.461100
 20
804896.068700
 11
388607.382500
 21
804895.964000
  0
LINE
  8
0
 62
7
 10
388607.382500
 20
804895.964000
 11
388607.304000
 21
804895.859300
  0
LINE
  8
0
 62
7
 10
388607.304000
 20
804895.859300
 11
388607.186900
 21
804895.600500
  0
LINE
  8
0
 62
7
 10
388607.186900
 20
804895.600500
 11
388606.891300
 21
804894.705800
  0
LINE
  8
0
 62
7
 10
388606.891300
 20
804894.705800
 11
388606.862000
 21
804894.641100
  0
LINE
  8
0
 62
7
 10
388606.862000
 20
804894.641100
 11
388606.808100
 21
804894.556400
  0
LINE
  8
0
 62
7
 10
388606.808100
 20
804894.556400
 11
388606.783500
 21
804894.536400
  0
LINE
  8
0
 62
7
 10
388606.783500
 20
804894.536400
 11
388606.714200
 21
804894.521000
  0
LINE
  8
0
 62
7
 10
388606.714200
 20
804894.521000
 11
388606.669500
 21
804894.525600
  0
LINE
  8
0
 62
7
 10
388606.669500
 20
804894.525600
 11
388606.624800
 21
804894.530200
  0
LINE
  8
0
 62
7
 10
388606.624800
 20
804894.530200
 11
388606.515500
 21
804894.564100
  0
LINE
  8
0
 62
7
 10
388606.515500
 20
804894.564100
 11
388606.366100
 21
804894.647200
  0
LINE
  8
0
 62
7
 10
388606.366100
 20
804894.647200
 11
388606.281400
 21
804894.701100
  0
LINE
  8
0
 62
7
 10
388606.281400
 20
804894.701100
 11
388606.176700
 21
804894.779700
  0
LINE
  8
0
 62
7
 10
388606.176700
 20
804894.779700
 11
388606.011900
 21
804894.932200
  0
LINE
  8
0
 62
7
 10
388606.011900
 20
804894.932200
 11
388605.896400
 21
804895.124700
  0
LINE
  8
0
 62
7
 10
388605.896400
 20
804895.124700
 11
388605.840900
 21
804895.243200
  0
LINE
  8
0
 62
7
 10
388605.840900
 20
804895.243200
 11
388605.805500
 21
804895.337200
  0
LINE
  8
0
 62
7
 10
388605.805500
 20
804895.337200
 11
388605.754700
 21
804895.500400
  0
LINE
  8
0
 62
7
 10
388605.754700
 20
804895.500400
 11
388605.743900
 21
804895.614400
  0
LINE
  8
0
 62
7
 10
388605.743900
 20
804895.614400
 11
388605.748500
 21
804895.659100
  0
LINE
  8
0
 62
7
 10
388605.748500
 20
804895.659100
 11
388605.753200
 21
804895.703700
  0
LINE
  8
0
 62
7
 10
388605.753200
 20
804895.703700
 11
388605.782400
 21
804895.768400
  0
LINE
  8
0
 62
7
 10
388605.782400
 20
804895.768400
 11
388605.807100
 21
804895.788400
  0
LINE
  8
0
 62
7
 10
388605.807100
 20
804895.788400
 11
388605.901000
 21
804895.823800
  0
LINE
  8
0
 62
7
 10
388605.901000
 20
804895.823800
 11
388605.970300
 21
804895.839200
  0
LINE
  8
0
 62
7
 10
388605.970300
 20
804895.839200
 11
388606.906700
 21
804895.945500
  0
LINE
  8
0
 62
7
 10
388606.906700
 20
804895.945500
 11
388607.183900
 21
804896.007100
  0
LINE
  8
0
 62
7
 10
388607.183900
 20
804896.007100
 11
388607.302500
 21
804896.062500
  0
LINE
  8
0
 62
7
 10
388607.302500
 20
804896.062500
 11
388607.421000
 21
804896.118000
  0
LINE
  8
0
 62
7
 10
388607.421000
 20
804896.118000
 11
388607.539600
 21
804896.173400
  0
LINE
  8
0
 62
7
 10
388603.397500
 20
804898.731800
 11
388602.951100
 21
804897.336800
  0
LINE
  8
0
 62
7
 10
388602.951100
 20
804897.336800
 11
388602.906600
 21
804897.235800
  0
LINE
  8
0
 62
7
 10
388602.906600
 20
804897.235800
 11
388602.824100
 21
804897.103400
  0
LINE
  8
0
 62
7
 10
388602.824100
 20
804897.103400
 11
388602.786100
 21
804897.071900
  0
LINE
  8
0
 62
7
 10
388602.786100
 20
804897.071900
 11
388602.678600
 21
804897.046900
  0
LINE
  8
0
 62
7
 10
388602.678600
 20
804897.046900
 11
388602.609100
 21
804897.053400
  0
LINE
  8
0
 62
7
 10
388602.609100
 20
804897.053400
 11
388602.539600
 21
804897.060000
  0
LINE
  8
0
 62
7
 10
388602.539600
 20
804897.060000
 11
388602.369200
 21
804897.111000
  0
LINE
  8
0
 62
7
 10
388602.369200
 20
804897.111000
 11
388602.135800
 21
804897.238100
  0
LINE
  8
0
 62
7
 10
388602.135800
 20
804897.238100
 11
388602.003300
 21
804897.320600
  0
LINE
  8
0
 62
7
 10
388602.003300
 20
804897.320600
 11
388601.839400
 21
804897.441100
  0
LINE
  8
0
 62
7
 10
388601.839400
 20
804897.441100
 11
388601.581100
 21
804897.675600
  0
LINE
  8
0
 62
7
 10
388601.581100
 20
804897.675600
 11
388601.398700
 21
804897.973100
  0
LINE
  8
0
 62
7
 10
388604.387000
 20
804900.000000
 11
388603.937200
 21
804899.627300
  0
LINE
  8
0
 62
7
 10
388603.937200
 20
804899.627300
 11
388603.816600
 21
804899.463400
  0
LINE
  8
0
 62
7
 10
388603.816600
 20
804899.463400
 11
388603.696100
 21
804899.299500
  0
LINE
  8
0
 62
7
 10
388603.696100
 20
804899.299500
 11
388603.575600
 21
804899.135600
  0
LINE
  8
0
 62
7
 10
388603.575600
 20
804899.135600
 11
388603.397500
 21
804898.731800
  0
LINE
  8
0
 62
7
 10
388601.398700
 20
804897.973100
 11
388601.310800
 21
804898.156600
  0
LINE
  8
0
 62
7
 10
388601.310800
 20
804898.156600
 11
388601.254400
 21
804898.302100
  0
LINE
  8
0
 62
7
 10
388601.254400
 20
804898.302100
 11
388601.173000
 21
804898.555100
  0
LINE
  8
0
 62
7
 10
388601.173000
 20
804898.555100
 11
388601.154500
 21
804898.732000
  0
LINE
  8
0
 62
7
 10
388601.154500
 20
804898.732000
 11
388601.161100
 21
804898.801500
  0
LINE
  8
0
 62
7
 10
388601.161100
 20
804898.801500
 11
388601.167600
 21
804898.871000
  0
LINE
  8
0
 62
7
 10
388601.167600
 20
804898.871000
 11
388601.212100
 21
804898.971900
  0
LINE
  8
0
 62
7
 10
388601.212100
 20
804898.971900
 11
388601.250100
 21
804899.003400
  0
LINE
  8
0
 62
7
 10
388601.250100
 20
804899.003400
 11
388601.395600
 21
804899.059900
  0
LINE
  8
0
 62
7
 10
388601.395600
 20
804899.059900
 11
388601.503100
 21
804899.084800
  0
LINE
  8
0
 62
7
 10
388601.503100
 20
804899.084800
 11
388602.956800
 21
804899.263800
  0
LINE
  8
0
 62
7
 10
388602.956800
 20
804899.263800
 11
388603.386700
 21
804899.363600
  0
LINE
  8
0
 62
7
 10
388603.386700
 20
804899.363600
 11
388603.570200
 21
804899.451500
  0
LINE
  8
0
 62
7
 10
388603.570200
 20
804899.451500
 11
388603.753700
 21
804899.539400
  0
LINE
  8
0
 62
7
 10
388603.753700
 20
804899.539400
 11
388603.937200
 21
804899.627300
  0
LINE
  8
0
 62
7
 10
388605.267200
 20
804900.729100
 11
388604.387000
 21
804900.000000
  0
LINE
  8
0
 62
7
 10
388598.088800
 20
804900.235100
 11
388598.044600
 21
804900.083600
  0
LINE
  8
0
 62
7
 10
388598.460700
 20
804902.295900
 11
388598.088800
 21
804900.235100
  0
LINE
  8
0
 62
7
 10
388612.903500
 20
804900.531600
 11
388613.240000
 21
804900.804900
  0
LINE
  8
0
 62
7
 10
388613.240000
 20
804900.804900
 11
388613.270600
 21
804900.845800
  0
LINE
  8
0
 62
7
 10
388613.270600
 20
804900.845800
 11
388613.301200
 21
804900.886600
  0
LINE
  8
0
 62
7
 10
388613.301200
 20
804900.886600
 11
388613.331900
 21
804900.927500
  0
LINE
  8
0
 62
7
 10
388613.331900
 20
804900.927500
 11
388613.377500
 21
804901.028400
  0
LINE
  8
0
 62
7
 10
388613.377500
 20
804901.028400
 11
388613.492900
 21
804901.377500
  0
LINE
  8
0
 62
7
 10
388613.881000
 20
804901.214100
 11
388613.902600
 21
804901.167800
  0
LINE
  8
0
 62
7
 10
388613.902600
 20
804901.167800
 11
388613.916400
 21
804901.131200
  0
LINE
  8
0
 62
7
 10
388613.916400
 20
804901.131200
 11
388613.936300
 21
804901.067500
  0
LINE
  8
0
 62
7
 10
388613.936300
 20
804901.067500
 11
388613.940500
 21
804901.023000
  0
LINE
  8
0
 62
7
 10
388613.940500
 20
804901.023000
 11
388613.938700
 21
804901.005600
  0
LINE
  8
0
 62
7
 10
388613.938700
 20
804901.005600
 11
388613.936900
 21
804900.988200
  0
LINE
  8
0
 62
7
 10
388613.936900
 20
804900.988200
 11
388613.925400
 21
804900.962900
  0
LINE
  8
0
 62
7
 10
388613.925400
 20
804900.962900
 11
388613.915800
 21
804900.955100
  0
LINE
  8
0
 62
7
 10
388613.915800
 20
804900.955100
 11
388613.879200
 21
804900.941300
  0
LINE
  8
0
 62
7
 10
388613.879200
 20
804900.941300
 11
388613.852200
 21
804900.935300
  0
LINE
  8
0
 62
7
 10
388613.852200
 20
804900.935300
 11
388613.486900
 21
804900.893800
  0
LINE
  8
0
 62
7
 10
388613.486900
 20
804900.893800
 11
388613.378700
 21
804900.869800
  0
LINE
  8
0
 62
7
 10
388613.378700
 20
804900.869800
 11
388613.332500
 21
804900.848200
  0
LINE
  8
0
 62
7
 10
388613.332500
 20
804900.848200
 11
388613.286200
 21
804900.826600
  0
LINE
  8
0
 62
7
 10
388613.286200
 20
804900.826600
 11
388613.240000
 21
804900.804900
  0
LINE
  8
0
 62
7
 10
388595.503300
 20
804901.286100
 11
388595.340600
 21
804901.629500
  0
LINE
  8
0
 62
7
 10
388595.340600
 20
804901.629500
 11
388595.281400
 21
804901.876800
  0
LINE
  8
0
 62
7
 10
388595.281400
 20
804901.876800
 11
388595.277600
 21
804901.976600
  0
LINE
  8
0
 62
7
 10
388595.277600
 20
804901.976600
 11
388595.273900
 21
804902.076300
  0
LINE
  8
0
 62
7
 10
388595.273900
 20
804902.076300
 11
388595.318100
 21
804902.227700
  0
LINE
  8
0
 62
7
 10
388595.318100
 20
804902.227700
 11
388595.366100
 21
804902.279400
  0
LINE
  8
0
 62
7
 10
388595.366100
 20
804902.279400
 11
388595.561800
 21
804902.386600
  0
LINE
  8
0
 62
7
 10
388595.561800
 20
804902.386600
 11
388595.709400
 21
804902.442100
  0
LINE
  8
0
 62
7
 10
388595.709400
 20
804902.442100
 11
388597.736500
 21
804902.967500
  0
LINE
  8
0
 62
7
 10
388597.736500
 20
804902.967500
 11
388598.327200
 21
804903.189400
  0
LINE
  8
0
 62
7
 10
388588.273100
 20
804905.552900
 11
388587.786300
 21
804906.013700
  0
LINE
  8
0
 62
7
 10
388587.786300
 20
804906.013700
 11
388587.448100
 21
804906.592500
  0
LINE
  8
0
 62
7
 10
388587.448100
 20
804906.592500
 11
388587.286700
 21
804906.948400
  0
LINE
  8
0
 62
7
 10
388587.286700
 20
804906.948400
 11
388587.184200
 21
804907.230100
  0
LINE
  8
0
 62
7
 10
388587.184200
 20
804907.230100
 11
388587.038100
 21
804907.719300
  0
LINE
  8
0
 62
7
 10
388587.038100
 20
804907.719300
 11
388587.009800
 21
804908.059900
  0
LINE
  8
0
 62
7
 10
388589.868800
 20
804904.761900
 11
388589.735600
 21
804904.777200
  0
LINE
  8
0
 62
7
 10
388589.735600
 20
804904.777200
 11
388589.602500
 21
804904.792500
  0
LINE
  8
0
 62
7
 10
388589.602500
 20
804904.792500
 11
388589.277200
 21
804904.897500
  0
LINE
  8
0
 62
7
 10
388589.277200
 20
804904.897500
 11
388588.834000
 21
804905.150900
  0
LINE
  8
0
 62
7
 10
388588.834000
 20
804905.150900
 11
388588.583000
 21
804905.314700
  0
LINE
  8
0
 62
7
 10
388588.583000
 20
804905.314700
 11
388588.273100
 21
804905.552900
  0
LINE
  8
0
 62
7
 10
388591.317600
 20
804907.968700
 11
388590.404000
 21
804905.307500
  0
LINE
  8
0
 62
7
 10
388590.404000
 20
804905.307500
 11
388590.314400
 21
804905.115400
  0
LINE
  8
0
 62
7
 10
388590.314400
 20
804905.115400
 11
388590.150500
 21
804904.864400
  0
LINE
  8
0
 62
7
 10
388590.150500
 20
804904.864400
 11
388590.076300
 21
804904.805400
  0
LINE
  8
0
 62
7
 10
388590.076300
 20
804904.805400
 11
388589.868800
 21
804904.761900
  0
LINE
  8
0
 62
7
 10
388591.676000
 20
804908.737100
 11
388591.317600
 21
804907.968700
  0
LINE
  8
0
 62
7
 10
388587.009800
 20
804908.059900
 11
388587.025200
 21
804908.193100
  0
LINE
  8
0
 62
7
 10
388587.025200
 20
804908.193100
 11
388587.040500
 21
804908.326200
  0
LINE
  8
0
 62
7
 10
388587.040500
 20
804908.326200
 11
388587.130100
 21
804908.518300
  0
LINE
  8
0
 62
7
 10
388587.130100
 20
804908.518300
 11
388587.204300
 21
804908.577300
  0
LINE
  8
0
 62
7
 10
388587.204300
 20
804908.577300
 11
388587.486000
 21
804908.679800
  0
LINE
  8
0
 62
7
 10
388587.486000
 20
804908.679800
 11
388587.693500
 21
804908.723400
  0
LINE
  8
0
 62
7
 10
388587.693500
 20
804908.723400
 11
388590.492700
 21
804909.008300
  0
LINE
  8
0
 62
7
 10
388592.390300
 20
804909.667000
 11
388592.152200
 21
804909.357000
  0
LINE
  8
0
 62
7
 10
388592.152200
 20
804909.357000
 11
388591.914100
 21
804909.047100
  0
LINE
  8
0
 62
7
 10
388591.914100
 20
804909.047100
 11
388591.676000
 21
804908.737100
  0
LINE
  8
0
 62
7
 10
388590.492700
 20
804909.008300
 11
388591.322500
 21
804909.182700
  0
LINE
  8
0
 62
7
 10
388591.322500
 20
804909.182700
 11
388591.678400
 21
804909.344100
  0
LINE
  8
0
 62
7
 10
388591.678400
 20
804909.344100
 11
388592.034400
 21
804909.505600
  0
LINE
  8
0
 62
7
 10
388592.034400
 20
804909.505600
 11
388592.390300
 21
804909.667000
  0
LINE
  8
0
 62
7
 10
388594.989300
 20
804911.729300
 11
388592.390300
 21
804909.667000
  0
LINE
  8
0
 62
7
 10
388581.150700
 20
804911.972500
 11
388580.607500
 21
804912.283200
  0
LINE
  8
0
 62
7
 10
388580.607500
 20
804912.283200
 11
388580.299900
 21
804912.484000
  0
LINE
  8
0
 62
7
 10
388580.299900
 20
804912.484000
 11
388579.920000
 21
804912.775800
  0
LINE
  8
0
 62
7
 10
388579.920000
 20
804912.775800
 11
388579.323400
 21
804913.340700
  0
LINE
  8
0
 62
7
 10
388583.651600
 20
804915.736900
 11
388582.531700
 21
804912.475100
  0
LINE
  8
0
 62
7
 10
388582.531700
 20
804912.475100
 11
388582.421900
 21
804912.239700
  0
LINE
  8
0
 62
7
 10
388582.421900
 20
804912.239700
 11
388582.221100
 21
804911.932000
  0
LINE
  8
0
 62
7
 10
388582.221100
 20
804911.932000
 11
388582.130100
 21
804911.859800
  0
LINE
  8
0
 62
7
 10
388582.130100
 20
804911.859800
 11
388581.875800
 21
804911.806300
  0
LINE
  8
0
 62
7
 10
388581.875800
 20
804911.806300
 11
388581.712600
 21
804911.825100
  0
LINE
  8
0
 62
7
 10
388581.712600
 20
804911.825100
 11
388581.549400
 21
804911.843900
  0
LINE
  8
0
 62
7
 10
388581.549400
 20
804911.843900
 11
388581.150700
 21
804911.972500
  0
LINE
  8
0
 62
7
 10
388579.323400
 20
804913.340700
 11
388578.908900
 21
804914.050100
  0
LINE
  8
0
 62
1
 10
388598.114600
 20
804913.710900
 11
388597.519400
 21
804913.238700
  0
CIRCLE
  8
0
 62
1
 10
388597.323800
 20
804913.083400
 40
0.249745
  0
LINE
  8
0
 62
7
 10
388584.090800
 20
804916.678700
 11
388583.651600
 21
804915.736900
  0
LINE
  8
0
 62
7
 10
388579.209600
 20
804916.661800
 11
388582.640500
 21
804917.011100
  0
LINE
  8
0
 62
7
 10
388588.151900
 20
804920.346100
 11
388584.966400
 21
804917.818400
  0
LINE
  8
0
 62
7
 10
388584.966400
 20
804917.818400
 11
388584.674500
 21
804917.438500
  0
LINE
  8
0
 62
7
 10
388584.674500
 20
804917.438500
 11
388584.382700
 21
804917.058600
  0
LINE
  8
0
 62
7
 10
388584.382700
 20
804917.058600
 11
388584.090800
 21
804916.678700
  0
LINE
  8
0
 62
7
 10
388582.640500
 20
804917.011100
 11
388583.657500
 21
804917.224800
  0
LINE
  8
0
 62
7
 10
388583.657500
 20
804917.224800
 11
388584.093800
 21
804917.422700
  0
LINE
  8
0
 62
7
 10
388584.093800
 20
804917.422700
 11
388584.530100
 21
804917.620500
  0
LINE
  8
0
 62
7
 10
388584.530100
 20
804917.620500
 11
388584.966400
 21
804917.818400
  0
LINE
  8
0
 62
1
 10
388607.814400
 20
804902.228100
 11
388608.404100
 21
804902.707200
  0
LINE
  8
0
 62
7
 10
388598.918000
 20
804903.411300
 11
388598.777800
 21
804903.156400
  0
LINE
  8
0
 62
7
 10
388598.777800
 20
804903.156400
 11
388598.637600
 21
804902.901600
  0
LINE
  8
0
 62
7
 10
388598.637600
 20
804902.901600
 11
388598.460700
 21
804902.295900
  0
LINE
  8
0
 62
7
 10
388598.327200
 20
804903.189400
 11
388598.570900
 21
804903.348400
  0
LINE
  8
0
 62
7
 10
388599.058100
 20
804903.666200
 11
388598.918000
 21
804903.411300
  0
LINE
  8
0
 62
7
 10
388598.570900
 20
804903.348400
 11
388598.814500
 21
804903.507300
  0
LINE
  8
0
 62
7
 10
388598.814500
 20
804903.507300
 11
388599.058100
 21
804903.666200
  0
LINE
  8
0
 62
7
 10
388600.000000
 20
804904.681600
 11
388599.058100
 21
804903.666200
  0
CIRCLE
  8
0
 62
1
 10
388607.622200
 20
804902.071900
 40
0.247724
  0
LINE
  8
0
 62
7
 10
388611.642300
 20
804902.083800
 11
388612.067300
 21
804902.429100
  0
LINE
  8
0
 62
7
 10
388612.067300
 20
804902.429100
 11
388612.106000
 21
804902.480700
  0
LINE
  8
0
 62
7
 10
388612.106000
 20
804902.480700
 11
388612.144700
 21
804902.532300
  0
LINE
  8
0
 62
7
 10
388612.144700
 20
804902.532300
 11
388612.183400
 21
804902.583900
  0
LINE
  8
0
 62
7
 10
388612.183400
 20
804902.583900
 11
388612.241000
 21
804902.711300
  0
LINE
  8
0
 62
7
 10
388612.241000
 20
804902.711300
 11
388612.386700
 21
804903.152200
  0
LINE
  8
0
 62
7
 10
388612.386700
 20
804903.152200
 11
388612.401200
 21
804903.184100
  0
LINE
  8
0
 62
7
 10
388612.401200
 20
804903.184100
 11
388612.427700
 21
804903.225800
  0
LINE
  8
0
 62
7
 10
388612.427700
 20
804903.225800
 11
388612.439800
 21
804903.235700
  0
LINE
  8
0
 62
7
 10
388612.439800
 20
804903.235700
 11
388612.474000
 21
804903.243300
  0
LINE
  8
0
 62
7
 10
388612.474000
 20
804903.243300
 11
388612.496000
 21
804903.241000
  0
LINE
  8
0
 62
7
 10
388612.496000
 20
804903.241000
 11
388612.518000
 21
804903.238700
  0
LINE
  8
0
 62
7
 10
388612.518000
 20
804903.238700
 11
388612.571900
 21
804903.222000
  0
LINE
  8
0
 62
7
 10
388612.571900
 20
804903.222000
 11
388612.645500
 21
804903.181000
  0
LINE
  8
0
 62
7
 10
388612.645500
 20
804903.181000
 11
388612.687200
 21
804903.154500
  0
LINE
  8
0
 62
7
 10
388612.687200
 20
804903.154500
 11
388612.738800
 21
804903.115800
  0
LINE
  8
0
 62
7
 10
388612.738800
 20
804903.115800
 11
388612.820000
 21
804903.040700
  0
LINE
  8
0
 62
7
 10
388612.820000
 20
804903.040700
 11
388612.876900
 21
804902.945800
  0
LINE
  8
0
 62
7
 10
388612.876900
 20
804902.945800
 11
388612.904200
 21
804902.887400
  0
LINE
  8
0
 62
7
 10
388612.904200
 20
804902.887400
 11
388612.921700
 21
804902.841100
  0
LINE
  8
0
 62
7
 10
388612.921700
 20
804902.841100
 11
388612.946700
 21
804902.760700
  0
LINE
  8
0
 62
7
 10
388612.946700
 20
804902.760700
 11
388612.952000
 21
804902.704500
  0
LINE
  8
0
 62
7
 10
388612.952000
 20
804902.704500
 11
388612.949800
 21
804902.682500
  0
LINE
  8
0
 62
7
 10
388612.949800
 20
804902.682500
 11
388612.947500
 21
804902.660500
  0
LINE
  8
0
 62
7
 10
388612.947500
 20
804902.660500
 11
388612.933100
 21
804902.628600
  0
LINE
  8
0
 62
7
 10
388612.933100
 20
804902.628600
 11
388612.920900
 21
804902.618800
  0
LINE
  8
0
 62
7
 10
388612.920900
 20
804902.618800
 11
388612.874600
 21
804902.601300
  0
LINE
  8
0
 62
7
 10
388612.874600
 20
804902.601300
 11
388612.840500
 21
804902.593700
  0
LINE
  8
0
 62
7
 10
388612.840500
 20
804902.593700
 11
388612.379100
 21
804902.541400
  0
LINE
  8
0
 62
7
 10
388612.379100
 20
804902.541400
 11
388612.242600
 21
804902.511000
  0
LINE
  8
0
 62
7
 10
388612.242600
 20
804902.511000
 11
388612.184100
 21
804902.483700
  0
LINE
  8
0
 62
7
 10
388612.184100
 20
804902.483700
 11
388612.125700
 21
804902.456400
  0
LINE
  8
0
 62
7
 10
388612.125700
 20
804902.456400
 11
388612.067300
 21
804902.429100
  0
LINE
  8
0
 62
7
 10
388613.492900
 20
804901.377500
 11
388613.504300
 21
804901.402700
  0
LINE
  8
0
 62
7
 10
388613.504300
 20
804901.402700
 11
388613.525300
 21
804901.435800
  0
LINE
  8
0
 62
7
 10
388613.525300
 20
804901.435800
 11
388613.534900
 21
804901.443600
  0
LINE
  8
0
 62
7
 10
388613.534900
 20
804901.443600
 11
388613.562000
 21
804901.449600
  0
LINE
  8
0
 62
7
 10
388613.562000
 20
804901.449600
 11
388613.579400
 21
804901.447800
  0
LINE
  8
0
 62
7
 10
388613.579400
 20
804901.447800
 11
388613.596800
 21
804901.446000
  0
LINE
  8
0
 62
7
 10
388613.596800
 20
804901.446000
 11
388613.639500
 21
804901.432700
  0
LINE
  8
0
 62
7
 10
388613.639500
 20
804901.432700
 11
388613.697800
 21
804901.400300
  0
LINE
  8
0
 62
7
 10
388613.697800
 20
804901.400300
 11
388613.730800
 21
804901.379300
  0
LINE
  8
0
 62
7
 10
388613.730800
 20
804901.379300
 11
388613.771600
 21
804901.348600
  0
LINE
  8
0
 62
7
 10
388613.771600
 20
804901.348600
 11
388613.835900
 21
804901.289200
  0
LINE
  8
0
 62
7
 10
388613.835900
 20
804901.289200
 11
388613.881000
 21
804901.214100
  0
LINE
  8
0
 62
7
 10
388610.049600
 20
804904.044100
 11
388610.606900
 21
804904.496900
  0
LINE
  8
0
 62
7
 10
388610.606900
 20
804904.496900
 11
388610.657600
 21
804904.564600
  0
LINE
  8
0
 62
7
 10
388610.657600
 20
804904.564600
 11
388610.708400
 21
804904.632300
  0
LINE
  8
0
 62
7
 10
388610.836800
 20
804904.604400
 11
388610.760100
 21
804904.568600
  0
LINE
  8
0
 62
7
 10
388610.760100
 20
804904.568600
 11
388610.683500
 21
804904.532800
  0
LINE
  8
0
 62
7
 10
388610.683500
 20
804904.532800
 11
388610.606900
 21
804904.496900
  0
CIRCLE
  8
0
 62
1
 10
388608.598000
 20
804902.864700
 40
0.249745
  0
LINE
  8
0
 62
7
 10
388600.737400
 20
804905.476600
 11
388600.000000
 21
804904.681600
  0
LINE
  8
0
 62
1
 10
388602.886800
 20
804907.466400
 11
388603.401100
 21
804908.025700
  0
LINE
  8
0
 62
1
 10
388603.401100
 20
804908.025700
 11
388602.886800
 21
804907.466400
  0
CIRCLE
  8
0
 62
1
 10
388602.719200
 20
804907.284000
 40
0.247724
  0
CIRCLE
  8
0
 62
1
 10
388603.570100
 20
804908.209600
 40
0.249745
  0
CIRCLE
  8
0
 62
1
 10
388603.568700
 20
804908.208100
 40
0.247724
  0
CIRCLE
  8
0
 62
1
 10
388602.717800
 20
804907.282600
 40
0.249745
  0
LINE
  8
0
 62
7
 10
388608.362200
 20
804906.019100
 11
388609.196400
 21
804906.768300
  0
LINE
  8
0
 62
7
 10
388610.708400
 20
804904.632300
 11
388610.759200
 21
804904.700000
  0
LINE
  8
0
 62
7
 10
388610.759200
 20
804904.700000
 11
388610.834800
 21
804904.867200
  0
LINE
  8
0
 62
7
 10
388610.834800
 20
804904.867200
 11
388611.025900
 21
804905.445400
  0
LINE
  8
0
 62
7
 10
388611.025900
 20
804905.445400
 11
388611.044800
 21
804905.487200
  0
LINE
  8
0
 62
7
 10
388611.044800
 20
804905.487200
 11
388611.079600
 21
804905.541900
  0
LINE
  8
0
 62
7
 10
388611.079600
 20
804905.541900
 11
388611.095500
 21
804905.554800
  0
LINE
  8
0
 62
7
 10
388611.095500
 20
804905.554800
 11
388611.140300
 21
804905.564800
  0
LINE
  8
0
 62
7
 10
388611.140300
 20
804905.564800
 11
388611.169200
 21
804905.561800
  0
LINE
  8
0
 62
7
 10
388611.169200
 20
804905.561800
 11
388611.198000
 21
804905.558800
  0
LINE
  8
0
 62
7
 10
388611.198000
 20
804905.558800
 11
388611.268700
 21
804905.536900
  0
LINE
  8
0
 62
7
 10
388611.268700
 20
804905.536900
 11
388611.365200
 21
804905.483200
  0
LINE
  8
0
 62
7
 10
388611.365200
 20
804905.483200
 11
388611.420000
 21
804905.448400
  0
LINE
  8
0
 62
7
 10
388611.420000
 20
804905.448400
 11
388611.487600
 21
804905.397600
  0
LINE
  8
0
 62
7
 10
388611.487600
 20
804905.397600
 11
388611.594100
 21
804905.299100
  0
LINE
  8
0
 62
7
 10
388611.594100
 20
804905.299100
 11
388611.668800
 21
804905.174700
  0
LINE
  8
0
 62
7
 10
388611.668800
 20
804905.174700
 11
388611.704600
 21
804905.098000
  0
LINE
  8
0
 62
7
 10
388611.704600
 20
804905.098000
 11
388611.727500
 21
804905.037300
  0
LINE
  8
0
 62
7
 10
388611.727500
 20
804905.037300
 11
388611.760300
 21
804904.931800
  0
LINE
  8
0
 62
7
 10
388611.760300
 20
804904.931800
 11
388611.767300
 21
804904.858200
  0
LINE
  8
0
 62
7
 10
388611.767300
 20
804904.858200
 11
388611.764300
 21
804904.829300
  0
LINE
  8
0
 62
7
 10
388611.764300
 20
804904.829300
 11
388611.761300
 21
804904.800500
  0
LINE
  8
0
 62
7
 10
388611.761300
 20
804904.800500
 11
388611.742400
 21
804904.758700
  0
LINE
  8
0
 62
7
 10
388611.742400
 20
804904.758700
 11
388611.726500
 21
804904.745700
  0
LINE
  8
0
 62
7
 10
388611.726500
 20
804904.745700
 11
388611.665800
 21
804904.722900
  0
LINE
  8
0
 62
7
 10
388611.665800
 20
804904.722900
 11
388611.621000
 21
804904.712900
  0
LINE
  8
0
 62
7
 10
388611.621000
 20
804904.712900
 11
388611.015900
 21
804904.644200
  0
LINE
  8
0
 62
7
 10
388611.015900
 20
804904.644200
 11
388610.836800
 21
804904.604400
  0
LINE
  8
0
 62
7
 10
388609.196400
 20
804906.768300
 11
388609.270300
 21
804906.877800
  0
LINE
  8
0
 62
7
 10
388609.270300
 20
804906.877800
 11
388609.344200
 21
804906.987200
  0
LINE
  8
0
 62
7
 10
388609.344200
 20
804906.987200
 11
388609.418200
 21
804907.096700
  0
LINE
  8
0
 62
7
 10
388609.418200
 20
804907.096700
 11
388609.523200
 21
804907.363300
  0
LINE
  8
0
 62
7
 10
388609.523200
 20
804907.363300
 11
388609.776600
 21
804908.279800
  0
LINE
  8
0
 62
7
 10
388610.674100
 20
804908.095600
 11
388610.800100
 21
804907.907300
  0
LINE
  8
0
 62
7
 10
388610.800100
 20
804907.907300
 11
388610.861900
 21
804907.790600
  0
LINE
  8
0
 62
7
 10
388610.861900
 20
804907.790600
 11
388610.902300
 21
804907.697700
  0
LINE
  8
0
 62
7
 10
388610.902300
 20
804907.697700
 11
388610.961700
 21
804907.535700
  0
LINE
  8
0
 62
7
 10
388610.961700
 20
804907.535700
 11
388610.978200
 21
804907.421400
  0
LINE
  8
0
 62
7
 10
388610.978200
 20
804907.421400
 11
388610.975800
 21
804907.376100
  0
LINE
  8
0
 62
7
 10
388610.975800
 20
804907.376100
 11
388610.973400
 21
804907.330900
  0
LINE
  8
0
 62
7
 10
388610.973400
 20
804907.330900
 11
388610.947100
 21
804907.264200
  0
LINE
  8
0
 62
7
 10
388610.947100
 20
804907.264200
 11
388610.923300
 21
804907.242800
  0
LINE
  8
0
 62
7
 10
388610.923300
 20
804907.242800
 11
388610.830400
 21
804907.202400
  0
LINE
  8
0
 62
7
 10
388610.830400
 20
804907.202400
 11
388610.761300
 21
804907.183400
  0
LINE
  8
0
 62
7
 10
388610.761300
 20
804907.183400
 11
388609.822900
 21
804907.029600
  0
LINE
  8
0
 62
7
 10
388609.822900
 20
804907.029600
 11
388609.546600
 21
804906.953700
  0
LINE
  8
0
 62
7
 10
388609.546600
 20
804906.953700
 11
388609.429900
 21
804906.891900
  0
LINE
  8
0
 62
7
 10
388609.429900
 20
804906.891900
 11
388609.313100
 21
804906.830100
  0
LINE
  8
0
 62
7
 10
388609.313100
 20
804906.830100
 11
388609.196400
 21
804906.768300
  0
LINE
  8
0
 62
7
 10
388609.776600
 20
804908.279800
 11
388609.802800
 21
804908.346500
  0
LINE
  8
0
 62
7
 10
388609.802800
 20
804908.346500
 11
388609.852900
 21
804908.434500
  0
LINE
  8
0
 62
7
 10
388609.852900
 20
804908.434500
 11
388609.876800
 21
804908.456000
  0
LINE
  8
0
 62
7
 10
388609.876800
 20
804908.456000
 11
388609.945800
 21
804908.474900
  0
LINE
  8
0
 62
7
 10
388609.945800
 20
804908.474900
 11
388609.991100
 21
804908.472500
  0
LINE
  8
0
 62
7
 10
388609.991100
 20
804908.472500
 11
388610.036300
 21
804908.470100
  0
LINE
  8
0
 62
7
 10
388610.036300
 20
804908.470100
 11
388610.148200
 21
804908.441400
  0
LINE
  8
0
 62
7
 10
388610.148200
 20
804908.441400
 11
388610.302900
 21
804908.365000
  0
LINE
  8
0
 62
7
 10
388610.302900
 20
804908.365000
 11
388610.391000
 21
804908.314900
  0
LINE
  8
0
 62
7
 10
388610.391000
 20
804908.314900
 11
388610.500400
 21
804908.241000
  0
LINE
  8
0
 62
7
 10
388610.500400
 20
804908.241000
 11
388610.674100
 21
804908.095600
  0
LINE
  8
0
 62
7
 10
388601.366400
 20
804913.127800
 11
388602.951700
 21
804914.526500
  0
LINE
  8
0
 62
7
 10
388602.951700
 20
804914.526500
 11
388603.092900
 21
804914.731700
  0
LINE
  8
0
 62
7
 10
388603.092900
 20
804914.731700
 11
388603.234100
 21
804914.936800
  0
LINE
  8
0
 62
7
 10
388603.615100
 20
804914.870200
 11
388603.394000
 21
804914.755600
  0
LINE
  8
0
 62
7
 10
388603.394000
 20
804914.755600
 11
388603.172800
 21
804914.641100
  0
LINE
  8
0
 62
7
 10
388603.172800
 20
804914.641100
 11
388602.951700
 21
804914.526500
  0
CIRCLE
  8
0
 62
1
 10
388598.308700
 20
804913.864900
 40
0.247724
  0
LINE
  8
0
 62
7
 10
388603.234100
 20
804914.936800
 11
388603.375300
 21
804915.142000
  0
LINE
  8
0
 62
7
 10
388603.375300
 20
804915.142000
 11
388603.577800
 21
804915.642900
  0
LINE
  8
0
 62
7
 10
388603.577800
 20
804915.642900
 11
388604.070800
 21
804917.366700
  0
LINE
  8
0
 62
7
 10
388606.183600
 20
804916.250300
 11
388606.292800
 21
804915.943900
  0
LINE
  8
0
 62
7
 10
388606.292800
 20
804915.943900
 11
388606.322100
 21
804915.728100
  0
LINE
  8
0
 62
7
 10
388606.322100
 20
804915.728100
 11
388606.316800
 21
804915.642800
  0
LINE
  8
0
 62
7
 10
388606.316800
 20
804915.642800
 11
388606.311400
 21
804915.557500
  0
LINE
  8
0
 62
7
 10
388606.311400
 20
804915.557500
 11
388606.260800
 21
804915.432300
  0
LINE
  8
0
 62
7
 10
388606.260800
 20
804915.432300
 11
388606.215500
 21
804915.392400
  0
LINE
  8
0
 62
7
 10
388606.215500
 20
804915.392400
 11
388606.039700
 21
804915.317800
  0
LINE
  8
0
 62
7
 10
388606.039700
 20
804915.317800
 11
388605.909100
 21
804915.283100
  0
LINE
  8
0
 62
7
 10
388605.909100
 20
804915.283100
 11
388604.137300
 21
804915.008700
  0
LINE
  8
0
 62
7
 10
388604.137300
 20
804915.008700
 11
388603.615100
 21
804914.870200
  0
LINE
  8
0
 62
7
 10
388604.070800
 20
804917.366700
 11
388604.121400
 21
804917.491900
  0
LINE
  8
0
 62
7
 10
388604.121400
 20
804917.491900
 11
388604.217300
 21
804917.657100
  0
LINE
  8
0
 62
7
 10
388604.217300
 20
804917.657100
 11
388604.262600
 21
804917.697000
  0
LINE
  8
0
 62
7
 10
388604.262600
 20
804917.697000
 11
388604.393200
 21
804917.731700
  0
LINE
  8
0
 62
7
 10
388604.393200
 20
804917.731700
 11
388604.478400
 21
804917.726400
  0
LINE
  8
0
 62
7
 10
388604.478400
 20
804917.726400
 11
388604.563700
 21
804917.721000
  0
LINE
  8
0
 62
7
 10
388604.563700
 20
804917.721000
 11
388604.774200
 21
804917.665100
  0
LINE
  8
0
 62
7
 10
388604.774200
 20
804917.665100
 11
388605.064600
 21
804917.518500
  0
LINE
  8
0
 62
7
 10
388605.064600
 20
804917.518500
 11
388605.229800
 21
804917.422600
  0
LINE
  8
0
 62
7
 10
388605.229800
 20
804917.422600
 11
388605.434900
 21
804917.281400
  0
LINE
  8
0
 62
7
 10
388605.434900
 20
804917.281400
 11
388605.759900
 21
804917.004300
  0
LINE
  8
0
 62
7
 10
388605.759900
 20
804917.004300
 11
388605.994400
 21
804916.647300
  0
LINE
  8
0
 62
7
 10
388605.994400
 20
804916.647300
 11
388606.109000
 21
804916.426100
  0
LINE
  8
0
 62
7
 10
388606.109000
 20
804916.426100
 11
388606.183600
 21
804916.250300
  0
ENDSEC
  0
EOF
