  0
SECTION
  2
HEADER
  9
$LIMMIN
 10
0.000000
 20
0.000000
  9
$LIMMAX
 10
0.000000
 20
0.000000
  0
ENDSEC
  0
SECTION
  2
TABLES
  0
TABLE
  2
LAYER
  0
LAYER
  2
0
 70
0
 62
7
  6
CONTINUOUS
  0
ENDTAB
  0
TABLE
  2
STYLE
  0
ENDTAB
  0
ENDSEC
  0
SECTION
  2
ENTITIES
  0
POLYLINE
  8
0
 62
5
  6
CONTINUOUS
 70
0
 66
1
 10
0.000000
 20
0.000000
  0
VERTEX
  8
0
 10
385562.775700
 20
802600.000000
  0
VERTEX
  8
0
 10
385562.946800
 20
802599.280100
  0
VERTEX
  8
0
 10
385563.178000
 20
802598.306800
  0
VERTEX
  8
0
 10
385563.409200
 20
802597.333600
  0
VERTEX
  8
0
 10
385563.640400
 20
802596.360400
  0
VERTEX
  8
0
 10
385563.871600
 20
802595.387200
  0
VERTEX
  8
0
 10
385564.102800
 20
802594.414000
  0
VERTEX
  8
0
 10
385564.334000
 20
802593.440800
  0
VERTEX
  8
0
 10
385564.203400
 20
802593.990300
  0
VERTEX
  8
0
 10
385564.434900
 20
802593.015900
  0
VERTEX
  8
0
 10
385564.666400
 20
802592.041600
  0
VERTEX
  8
0
 10
385564.897900
 20
802591.067200
  0
VERTEX
  8
0
 10
385565.129300
 20
802590.092900
  0
VERTEX
  8
0
 10
385565.360800
 20
802589.118500
  0
VERTEX
  8
0
 10
385565.592300
 20
802588.144100
  0
VERTEX
  8
0
 10
385565.823800
 20
802587.169800
  0
VERTEX
  8
0
 10
385566.055200
 20
802586.195400
  0
VERTEX
  8
0
 10
385566.286700
 20
802585.221100
  0
VERTEX
  8
0
 10
385566.518200
 20
802584.246700
  0
VERTEX
  8
0
 10
385566.749600
 20
802583.272400
  0
VERTEX
  8
0
 10
385566.981100
 20
802582.298000
  0
VERTEX
  8
0
 10
385567.212600
 20
802581.323600
  0
VERTEX
  8
0
 10
385567.444100
 20
802580.349300
  0
VERTEX
  8
0
 10
385567.675500
 20
802579.374900
  0
VERTEX
  8
0
 10
385567.554500
 20
802579.884600
  0
VERTEX
  8
0
 10
385567.786400
 20
802578.908300
  0
VERTEX
  8
0
 10
385568.018300
 20
802577.932000
  0
VERTEX
  8
0
 10
385568.250300
 20
802576.955700
  0
VERTEX
  8
0
 10
385568.482200
 20
802575.979400
  0
VERTEX
  8
0
 10
385568.714100
 20
802575.003100
  0
VERTEX
  8
0
 10
385568.946100
 20
802574.026800
  0
VERTEX
  8
0
 10
385569.178000
 20
802573.050500
  0
VERTEX
  8
0
 10
385569.409900
 20
802572.074100
  0
VERTEX
  8
0
 10
385569.641900
 20
802571.097800
  0
VERTEX
  8
0
 10
385569.873800
 20
802570.121500
  0
VERTEX
  8
0
 10
385570.105800
 20
802569.145200
  0
VERTEX
  8
0
 10
385570.337700
 20
802568.168900
  0
VERTEX
  8
0
 10
385570.569600
 20
802567.192600
  0
VERTEX
  8
0
 10
385570.801600
 20
802566.216300
  0
VERTEX
  8
0
 10
385571.033500
 20
802565.240000
  0
VERTEX
  8
0
 10
385571.265400
 20
802564.263700
  0
VERTEX
  8
0
 10
385571.497400
 20
802563.287400
  0
VERTEX
  8
0
 10
385571.729300
 20
802562.311100
  0
VERTEX
  8
0
 10
385571.961200
 20
802561.334700
  0
VERTEX
  8
0
 10
385572.193200
 20
802560.358400
  0
VERTEX
  8
0
 10
385571.941800
 20
802561.416500
  0
VERTEX
  8
0
 10
385572.175600
 20
802560.432600
  0
VERTEX
  8
0
 10
385572.409300
 20
802559.448800
  0
VERTEX
  8
0
 10
385572.587600
 20
802558.460300
  0
VERTEX
  8
0
 10
385572.749600
 20
802557.470400
  0
VERTEX
  8
0
 10
385572.911700
 20
802556.480500
  0
VERTEX
  8
0
 10
385573.073700
 20
802555.490600
  0
VERTEX
  8
0
 10
385573.235800
 20
802554.500700
  0
VERTEX
  8
0
 10
385573.397900
 20
802553.510800
  0
VERTEX
  8
0
 10
385573.559900
 20
802552.521000
  0
VERTEX
  8
0
 10
385573.722000
 20
802551.531100
  0
VERTEX
  8
0
 10
385573.884100
 20
802550.541200
  0
VERTEX
  8
0
 10
385574.046100
 20
802549.551300
  0
VERTEX
  8
0
 10
385574.208200
 20
802548.561400
  0
VERTEX
  8
0
 10
385574.370200
 20
802547.571500
  0
VERTEX
  8
0
 10
385574.532300
 20
802546.581700
  0
VERTEX
  8
0
 10
385574.331800
 20
802547.806400
  0
VERTEX
  8
0
 10
385574.495400
 20
802546.806900
  0
VERTEX
  8
0
 10
385574.659100
 20
802545.807400
  0
VERTEX
  8
0
 10
385574.822700
 20
802544.807900
  0
VERTEX
  8
0
 10
385574.986300
 20
802543.808400
  0
VERTEX
  8
0
 10
385575.150000
 20
802542.808900
  0
VERTEX
  8
0
 10
385575.313600
 20
802541.809500
  0
VERTEX
  8
0
 10
385575.477200
 20
802540.810000
  0
VERTEX
  8
0
 10
385575.640900
 20
802539.810500
  0
VERTEX
  8
0
 10
385575.804500
 20
802538.811000
  0
VERTEX
  8
0
 10
385575.968100
 20
802537.811500
  0
VERTEX
  8
0
 10
385576.131800
 20
802536.812000
  0
VERTEX
  8
0
 10
385576.295400
 20
802535.812500
  0
VERTEX
  8
0
 10
385576.459000
 20
802534.813000
  0
VERTEX
  8
0
 10
385576.622700
 20
802533.813500
  0
VERTEX
  8
0
 10
385576.786300
 20
802532.814000
  0
VERTEX
  8
0
 10
385576.949900
 20
802531.814500
  0
VERTEX
  8
0
 10
385577.113600
 20
802530.815000
  0
VERTEX
  8
0
 10
385577.277200
 20
802529.815500
  0
VERTEX
  8
0
 10
385577.440900
 20
802528.816000
  0
VERTEX
  8
0
 10
385577.554800
 20
802527.816300
  0
VERTEX
  8
0
 10
385577.634600
 20
802526.816600
  0
VERTEX
  8
0
 10
385577.714400
 20
802525.816800
  0
VERTEX
  8
0
 10
385577.794200
 20
802524.817100
  0
VERTEX
  8
0
 10
385577.874000
 20
802523.817300
  0
VERTEX
  8
0
 10
385577.953900
 20
802522.817500
  0
VERTEX
  8
0
 10
385578.033700
 20
802521.817800
  0
VERTEX
  8
0
 10
385578.113500
 20
802520.818000
  0
VERTEX
  8
0
 10
385578.193300
 20
802519.818300
  0
VERTEX
  8
0
 10
385578.273100
 20
802518.818500
  0
VERTEX
  8
0
 10
385578.353000
 20
802517.818700
  0
VERTEX
  8
0
 10
385578.432800
 20
802516.819000
  0
VERTEX
  8
0
 10
385578.512600
 20
802515.819200
  0
VERTEX
  8
0
 10
385578.592400
 20
802514.819500
  0
VERTEX
  8
0
 10
385578.672200
 20
802513.819700
  0
VERTEX
  8
0
 10
385578.752100
 20
802512.820000
  0
VERTEX
  8
0
 10
385578.831900
 20
802511.820200
  0
VERTEX
  8
0
 10
385578.911700
 20
802510.820400
  0
VERTEX
  8
0
 10
385578.991500
 20
802509.820700
  0
VERTEX
  8
0
 10
385579.071300
 20
802508.820900
  0
VERTEX
  8
0
 10
385579.151100
 20
802507.821200
  0
VERTEX
  8
0
 10
385579.231000
 20
802506.821400
  0
VERTEX
  8
0
 10
385579.310800
 20
802505.821700
  0
VERTEX
  8
0
 10
385579.390600
 20
802504.821900
  0
VERTEX
  8
0
 10
385579.470400
 20
802503.822100
  0
VERTEX
  8
0
 10
385579.550200
 20
802502.822400
  0
VERTEX
  8
0
 10
385579.630000
 20
802501.822700
  0
SEQEND
  0
POLYLINE
  8
0
 62
3
  6
CONTINUOUS
 70
0
 66
1
 10
0.000000
 20
0.000000
  0
VERTEX
  8
0
 10
385544.617100
 20
802600.000000
  0
VERTEX
  8
0
 10
385544.827600
 20
802599.526100
  0
VERTEX
  8
0
 10
385545.190700
 20
802598.580900
  0
VERTEX
  8
0
 10
385545.292300
 20
802597.730700
  0
VERTEX
  8
0
 10
385545.399100
 20
802596.836100
  0
VERTEX
  8
0
 10
385545.519200
 20
802595.831200
  0
VERTEX
  8
0
 10
385546.478600
 20
802587.801300
  0
VERTEX
  8
0
 10
385547.664900
 20
802577.871900
  0
VERTEX
  8
0
 10
385547.793600
 20
802576.794700
  0
VERTEX
  8
0
 10
385547.992100
 20
802575.814400
  0
VERTEX
  8
0
 10
385547.781300
 20
802576.897700
  0
VERTEX
  8
0
 10
385547.903800
 20
802576.243800
  0
VERTEX
  8
0
 10
385547.965600
 20
802575.914200
  0
VERTEX
  8
0
 10
385548.136600
 20
802575.270900
  0
VERTEX
  8
0
 10
385548.420000
 20
802574.204900
  0
VERTEX
  8
0
 10
385548.677100
 20
802573.237500
  0
VERTEX
  8
0
 10
385549.458300
 20
802570.298600
  0
VERTEX
  8
0
 10
385552.027400
 20
802560.634200
  0
VERTEX
  8
0
 10
385554.596400
 20
802550.969800
  0
VERTEX
  8
0
 10
385556.515200
 20
802543.751200
  0
VERTEX
  8
0
 10
385556.785000
 20
802542.752100
  0
VERTEX
  8
0
 10
385557.326000
 20
802541.357600
  0
VERTEX
  8
0
 10
385557.412500
 20
802541.134800
  0
VERTEX
  8
0
 10
385557.786900
 20
802540.169900
  0
VERTEX
  8
0
 10
385560.943300
 20
802532.034800
  0
VERTEX
  8
0
 10
385564.560600
 20
802522.711900
  0
VERTEX
  8
0
 10
385566.085900
 20
802518.780800
  0
VERTEX
  8
0
 10
385566.344200
 20
802517.781600
  0
VERTEX
  8
0
 10
385566.766400
 20
802516.096400
  0
VERTEX
  8
0
 10
385567.017200
 20
802515.095300
  0
VERTEX
  8
0
 10
385567.498900
 20
802513.172800
  0
VERTEX
  8
0
 10
385569.098200
 20
802506.790000
  0
VERTEX
  8
0
 10
385569.234500
 20
802505.790400
  0
VERTEX
  8
0
 10
385569.366800
 20
802504.790900
  0
VERTEX
  8
0
 10
385569.439200
 20
802504.042500
  0
VERTEX
  8
0
 10
385569.463600
 20
802503.791100
  0
VERTEX
  8
0
 10
385569.485000
 20
802503.393300
  0
VERTEX
  8
0
 10
385569.504300
 20
802503.035800
  0
VERTEX
  8
0
 10
385569.558600
 20
802502.028300
  0
VERTEX
  8
0
 10
385569.571300
 20
802501.791600
  0
VERTEX
  8
0
 10
385569.749900
 20
802501.045700
  0
VERTEX
  8
0
 10
385569.951200
 20
802500.204700
  0
VERTEX
  8
0
 10
385570.107300
 20
802500.000000
  0
SEQEND
  0
POLYLINE
  8
0
 62
2
  6
CONTINUOUS
 70
0
 66
1
 10
0.000000
 20
0.000000
  0
VERTEX
  8
0
 10
385532.808400
 20
802600.000000
  0
VERTEX
  8
0
 10
385533.148500
 20
802599.093600
  0
VERTEX
  8
0
 10
385533.503800
 20
802598.146700
  0
VERTEX
  8
0
 10
385533.859100
 20
802597.199800
  0
VERTEX
  8
0
 10
385534.214400
 20
802596.253000
  0
VERTEX
  8
0
 10
385534.569700
 20
802595.306100
  0
VERTEX
  8
0
 10
385534.925000
 20
802594.359200
  0
VERTEX
  8
0
 10
385535.280300
 20
802593.412300
  0
VERTEX
  8
0
 10
385535.504800
 20
802592.437700
  0
VERTEX
  8
0
 10
385535.714500
 20
802591.459900
  0
VERTEX
  8
0
 10
385535.924200
 20
802590.482100
  0
VERTEX
  8
0
 10
385536.133800
 20
802589.504300
  0
VERTEX
  8
0
 10
385536.343500
 20
802588.526600
  0
VERTEX
  8
0
 10
385536.553200
 20
802587.548800
  0
VERTEX
  8
0
 10
385536.256000
 20
802588.934800
  0
VERTEX
  8
0
 10
385536.465800
 20
802587.956600
  0
VERTEX
  8
0
 10
385536.675500
 20
802586.978300
  0
VERTEX
  8
0
 10
385536.885300
 20
802586.000000
  0
VERTEX
  8
0
 10
385537.095100
 20
802585.021700
  0
VERTEX
  8
0
 10
385537.304900
 20
802584.043400
  0
VERTEX
  8
0
 10
385537.514700
 20
802583.065200
  0
VERTEX
  8
0
 10
385537.724500
 20
802582.086900
  0
VERTEX
  8
0
 10
385537.934300
 20
802581.108600
  0
VERTEX
  8
0
 10
385538.144100
 20
802580.130300
  0
VERTEX
  8
0
 10
385538.353900
 20
802579.152000
  0
VERTEX
  8
0
 10
385538.563700
 20
802578.173800
  0
VERTEX
  8
0
 10
385538.773400
 20
802577.195500
  0
VERTEX
  8
0
 10
385538.983200
 20
802576.217200
  0
VERTEX
  8
0
 10
385539.193000
 20
802575.238900
  0
VERTEX
  8
0
 10
385539.402800
 20
802574.260600
  0
VERTEX
  8
0
 10
385539.117900
 20
802575.589000
  0
VERTEX
  8
0
 10
385539.328000
 20
802574.609400
  0
VERTEX
  8
0
 10
385539.538100
 20
802573.629800
  0
VERTEX
  8
0
 10
385539.748200
 20
802572.650200
  0
VERTEX
  8
0
 10
385539.978100
 20
802571.673600
  0
VERTEX
  8
0
 10
385540.236100
 20
802570.701200
  0
VERTEX
  8
0
 10
385540.494100
 20
802569.728800
  0
VERTEX
  8
0
 10
385540.752100
 20
802568.756500
  0
VERTEX
  8
0
 10
385541.010100
 20
802567.784100
  0
VERTEX
  8
0
 10
385541.268100
 20
802566.811700
  0
VERTEX
  8
0
 10
385541.526100
 20
802565.839300
  0
VERTEX
  8
0
 10
385541.784100
 20
802564.867000
  0
VERTEX
  8
0
 10
385542.042100
 20
802563.894600
  0
VERTEX
  8
0
 10
385542.300100
 20
802562.922200
  0
VERTEX
  8
0
 10
385542.558100
 20
802561.949900
  0
VERTEX
  8
0
 10
385542.816100
 20
802560.977500
  0
VERTEX
  8
0
 10
385543.074100
 20
802560.005100
  0
VERTEX
  8
0
 10
385543.332100
 20
802559.032700
  0
VERTEX
  8
0
 10
385543.590100
 20
802558.060400
  0
VERTEX
  8
0
 10
385543.848100
 20
802557.088000
  0
VERTEX
  8
0
 10
385544.106100
 20
802556.115600
  0
VERTEX
  8
0
 10
385543.339500
 20
802559.005000
  0
VERTEX
  8
0
 10
385543.599900
 20
802558.023500
  0
VERTEX
  8
0
 10
385543.860400
 20
802557.041900
  0
VERTEX
  8
0
 10
385544.120800
 20
802556.060300
  0
VERTEX
  8
0
 10
385544.381300
 20
802555.078700
  0
VERTEX
  8
0
 10
385544.641700
 20
802554.097100
  0
VERTEX
  8
0
 10
385544.902200
 20
802553.115500
  0
VERTEX
  8
0
 10
385545.162600
 20
802552.133900
  0
VERTEX
  8
0
 10
385545.423100
 20
802551.152300
  0
VERTEX
  8
0
 10
385545.683500
 20
802550.170700
  0
VERTEX
  8
0
 10
385545.944000
 20
802549.189100
  0
VERTEX
  8
0
 10
385546.204400
 20
802548.207600
  0
VERTEX
  8
0
 10
385546.464900
 20
802547.226000
  0
VERTEX
  8
0
 10
385546.725300
 20
802546.244400
  0
VERTEX
  8
0
 10
385546.985700
 20
802545.262800
  0
VERTEX
  8
0
 10
385547.246200
 20
802544.281200
  0
VERTEX
  8
0
 10
385546.333800
 20
802547.719700
  0
VERTEX
  8
0
 10
385546.599000
 20
802546.720500
  0
VERTEX
  8
0
 10
385546.864100
 20
802545.721400
  0
VERTEX
  8
0
 10
385547.129200
 20
802544.722200
  0
VERTEX
  8
0
 10
385547.394300
 20
802543.723000
  0
VERTEX
  8
0
 10
385547.659400
 20
802542.723800
  0
VERTEX
  8
0
 10
385547.924500
 20
802541.724600
  0
VERTEX
  8
0
 10
385548.189600
 20
802540.725400
  0
VERTEX
  8
0
 10
385548.454800
 20
802539.726300
  0
VERTEX
  8
0
 10
385548.719900
 20
802538.727100
  0
VERTEX
  8
0
 10
385548.980100
 20
802537.727900
  0
VERTEX
  8
0
 10
385549.225400
 20
802536.728600
  0
VERTEX
  8
0
 10
385549.470700
 20
802535.729400
  0
VERTEX
  8
0
 10
385549.716000
 20
802534.730100
  0
VERTEX
  8
0
 10
385549.961300
 20
802533.730900
  0
VERTEX
  8
0
 10
385550.206700
 20
802532.731600
  0
VERTEX
  8
0
 10
385550.452000
 20
802531.732400
  0
VERTEX
  8
0
 10
385550.697300
 20
802530.733200
  0
VERTEX
  8
0
 10
385550.942600
 20
802529.733900
  0
VERTEX
  8
0
 10
385551.187900
 20
802528.734700
  0
VERTEX
  8
0
 10
385551.433200
 20
802527.735400
  0
VERTEX
  8
0
 10
385551.678600
 20
802526.736200
  0
VERTEX
  8
0
 10
385551.923900
 20
802525.736900
  0
VERTEX
  8
0
 10
385552.169200
 20
802524.737700
  0
VERTEX
  8
0
 10
385552.414500
 20
802523.738400
  0
VERTEX
  8
0
 10
385552.659800
 20
802522.739200
  0
VERTEX
  8
0
 10
385552.905100
 20
802521.739900
  0
VERTEX
  8
0
 10
385553.150500
 20
802520.740700
  0
VERTEX
  8
0
 10
385553.395800
 20
802519.741500
  0
VERTEX
  8
0
 10
385553.641100
 20
802518.742200
  0
VERTEX
  8
0
 10
385553.886400
 20
802517.743000
  0
VERTEX
  8
0
 10
385554.165500
 20
802516.743800
  0
VERTEX
  8
0
 10
385554.458400
 20
802515.744700
  0
VERTEX
  8
0
 10
385554.751300
 20
802514.745600
  0
VERTEX
  8
0
 10
385555.044200
 20
802513.746500
  0
VERTEX
  8
0
 10
385555.337100
 20
802512.747400
  0
VERTEX
  8
0
 10
385555.630000
 20
802511.748300
  0
VERTEX
  8
0
 10
385555.922900
 20
802510.749200
  0
VERTEX
  8
0
 10
385556.215800
 20
802509.750100
  0
VERTEX
  8
0
 10
385556.508700
 20
802508.751000
  0
VERTEX
  8
0
 10
385556.801600
 20
802507.752000
  0
VERTEX
  8
0
 10
385557.094500
 20
802506.752900
  0
VERTEX
  8
0
 10
385557.387400
 20
802505.753800
  0
VERTEX
  8
0
 10
385557.773200
 20
802504.754900
  0
VERTEX
  8
0
 10
385558.164300
 20
802503.756200
  0
VERTEX
  8
0
 10
385558.555300
 20
802502.757400
  0
VERTEX
  8
0
 10
385558.946400
 20
802501.758700
  0
VERTEX
  8
0
 10
385559.047200
 20
802501.501200
  0
SEQEND
  0
POLYLINE
  8
0
 62
1
  6
CONTINUOUS
 70
0
 66
1
 10
0.000000
 20
0.000000
  0
VERTEX
  8
0
 10
385559.634900
 20
802500.000000
  0
VERTEX
  8
0
 10
385559.954300
 20
802499.184200
  0
VERTEX
  8
0
 10
385560.962300
 20
802496.609700
  0
VERTEX
  8
0
 10
385561.969000
 20
802494.441700
  0
VERTEX
  8
0
 10
385562.974100
 20
802492.797600
  0
VERTEX
  8
0
 10
385563.977400
 20
802491.736400
  0
VERTEX
  8
0
 10
385564.979900
 20
802490.929700
  0
VERTEX
  8
0
 10
385565.982100
 20
802490.240300
  0
VERTEX
  8
0
 10
385566.983300
 20
802489.828100
  0
VERTEX
  8
0
 10
385567.984600
 20
802489.416000
  0
VERTEX
  8
0
 10
385568.985900
 20
802489.003800
  0
VERTEX
  8
0
 10
385569.611200
 20
802488.746400
  0
VERTEX
  8
0
 10
385569.987000
 20
802488.607800
  0
VERTEX
  8
0
 10
385570.987600
 20
802488.447100
  0
VERTEX
  8
0
 10
385571.988100
 20
802488.286400
  0
VERTEX
  8
0
 10
385572.988600
 20
802488.125700
  0
VERTEX
  8
0
 10
385573.988800
 20
802488.089300
  0
VERTEX
  8
0
 10
385574.988200
 20
802488.264000
  0
VERTEX
  8
0
 10
385575.987700
 20
802488.438600
  0
VERTEX
  8
0
 10
385576.987400
 20
802488.541700
  0
VERTEX
  8
0
 10
385577.987100
 20
802488.617900
  0
VERTEX
  8
0
 10
385578.986900
 20
802488.684300
  0
VERTEX
  8
0
 10
385579.670200
 20
802488.702600
  0
VERTEX
  8
0
 10
385579.987000
 20
802488.673900
  0
VERTEX
  8
0
 10
385580.987300
 20
802488.583300
  0
VERTEX
  8
0
 10
385581.988000
 20
802488.361500
  0
VERTEX
  8
0
 10
385582.988900
 20
802488.048800
  0
VERTEX
  8
0
 10
385583.989900
 20
802487.736100
  0
VERTEX
  8
0
 10
385584.990900
 20
802487.423400
  0
VERTEX
  8
0
 10
385585.991900
 20
802487.110700
  0
VERTEX
  8
0
 10
385586.992800
 20
802486.798000
  0
VERTEX
  8
0
 10
385587.993800
 20
802486.485300
  0
VERTEX
  8
0
 10
385588.994800
 20
802486.172600
  0
VERTEX
  8
0
 10
385589.812700
 20
802485.917100
  0
VERTEX
  8
0
 10
385589.995600
 20
802485.899000
  0
VERTEX
  8
0
 10
385590.995900
 20
802485.800900
  0
VERTEX
  8
0
 10
385591.996200
 20
802485.702700
  0
VERTEX
  8
0
 10
385592.996600
 20
802485.604600
  0
VERTEX
  8
0
 10
385593.996900
 20
802485.506500
  0
VERTEX
  8
0
 10
385594.996800
 20
802485.523000
  0
VERTEX
  8
0
 10
385595.996300
 20
802485.694800
  0
VERTEX
  8
0
 10
385596.995400
 20
802485.984800
  0
VERTEX
  8
0
 10
385597.994100
 20
802486.398700
  0
VERTEX
  8
0
 10
385598.992300
 20
802487.002800
  0
VERTEX
  8
0
 10
385599.990100
 20
802487.703400
  0
VERTEX
  8
0
 10
385600.000000
 20
802487.710300
  0
SEQEND
  0
POLYLINE
  8
0
 62
3
  6
CONTINUOUS
 70
0
 66
1
 10
0.000000
 20
0.000000
  0
VERTEX
  8
0
 10
385574.467600
 20
802500.000000
  0
VERTEX
  8
0
 10
385574.950900
 20
802500.317200
  0
VERTEX
  8
0
 10
385575.218100
 20
802500.413600
  0
VERTEX
  8
0
 10
385575.358300
 20
802500.464100
  0
VERTEX
  8
0
 10
385575.949800
 20
802500.677400
  0
VERTEX
  8
0
 10
385576.437400
 20
802500.840700
  0
VERTEX
  8
0
 10
385576.948800
 20
802501.011900
  0
VERTEX
  8
0
 10
385577.602400
 20
802501.024500
  0
VERTEX
  8
0
 10
385578.664200
 20
802501.044900
  0
VERTEX
  8
0
 10
385579.718000
 20
802501.065200
  0
VERTEX
  8
0
 10
385580.948500
 20
802501.088900
  0
VERTEX
  8
0
 10
385581.949200
 20
802500.878500
  0
VERTEX
  8
0
 10
385583.578500
 20
802500.248900
  0
VERTEX
  8
0
 10
385584.222700
 20
802500.000000
  0
SEQEND
  0
POLYLINE
  8
0
 62
3
  6
CONTINUOUS
 70
0
 66
1
 10
0.000000
 20
0.000000
  0
VERTEX
  8
0
 10
385570.107300
 20
802500.000000
  0
VERTEX
  8
0
 10
385570.640900
 20
802499.300400
  0
VERTEX
  8
0
 10
385570.955300
 20
802498.888200
  0
VERTEX
  8
0
 10
385571.956800
 20
802498.419600
  0
VERTEX
  8
0
 10
385571.964000
 20
802498.422600
  0
VERTEX
  8
0
 10
385572.955500
 20
802498.840800
  0
VERTEX
  8
0
 10
385573.403100
 20
802499.209500
  0
VERTEX
  8
0
 10
385573.952900
 20
802499.662300
  0
VERTEX
  8
0
 10
385574.282100
 20
802499.878300
  0
VERTEX
  8
0
 10
385574.467600
 20
802500.000000
  0
SEQEND
  0
POLYLINE
  8
0
 62
5
  6
CONTINUOUS
 70
0
 66
1
 10
0.000000
 20
0.000000
  0
VERTEX
  8
0
 10
385544.182700
 20
802700.000000
  0
VERTEX
  8
0
 10
385544.225000
 20
802699.610600
  0
VERTEX
  8
0
 10
385544.225200
 20
802699.067000
  0
VERTEX
  8
0
 10
385544.225100
 20
802699.292700
  0
VERTEX
  8
0
 10
385544.225500
 20
802698.287800
  0
VERTEX
  8
0
 10
385544.225900
 20
802697.282800
  0
VERTEX
  8
0
 10
385544.226400
 20
802696.277900
  0
VERTEX
  8
0
 10
385544.226800
 20
802695.273000
  0
VERTEX
  8
0
 10
385544.226400
 20
802696.165500
  0
VERTEX
  8
0
 10
385544.226900
 20
802695.153700
  0
VERTEX
  8
0
 10
385544.227300
 20
802694.141900
  0
VERTEX
  8
0
 10
385544.101100
 20
802693.149600
  0
VERTEX
  8
0
 10
385543.922900
 20
802692.165200
  0
VERTEX
  8
0
 10
385543.744700
 20
802691.180800
  0
VERTEX
  8
0
 10
385543.623900
 20
802690.513500
  0
VERTEX
  8
0
 10
385543.445300
 20
802689.527200
  0
VERTEX
  8
0
 10
385543.266800
 20
802688.540900
  0
VERTEX
  8
0
 10
385543.088200
 20
802687.554600
  0
VERTEX
  8
0
 10
385542.909700
 20
802686.568300
  0
VERTEX
  8
0
 10
385542.731200
 20
802685.582000
  0
VERTEX
  8
0
 10
385542.541400
 20
802684.534000
  0
VERTEX
  8
0
 10
385542.361800
 20
802683.541400
  0
VERTEX
  8
0
 10
385542.182100
 20
802682.548800
  0
VERTEX
  8
0
 10
385542.002400
 20
802681.556200
  0
VERTEX
  8
0
 10
385541.822700
 20
802680.563600
  0
VERTEX
  8
0
 10
385541.643000
 20
802679.571000
  0
VERTEX
  8
0
 10
385540.972200
 20
802675.865600
  0
VERTEX
  8
0
 10
385540.783500
 20
802674.822900
  0
VERTEX
  8
0
 10
385540.869600
 20
802673.824000
  0
VERTEX
  8
0
 10
385540.986100
 20
802672.830000
  0
VERTEX
  8
0
 10
385541.102600
 20
802671.835900
  0
VERTEX
  8
0
 10
385541.219000
 20
802670.841800
  0
VERTEX
  8
0
 10
385541.605700
 20
802667.942900
  0
VERTEX
  8
0
 10
385541.779500
 20
802666.948300
  0
VERTEX
  8
0
 10
385541.953300
 20
802665.953800
  0
VERTEX
  8
0
 10
385542.127100
 20
802664.959200
  0
VERTEX
  8
0
 10
385542.317900
 20
802663.970100
  0
VERTEX
  8
0
 10
385542.706500
 20
802663.044600
  0
VERTEX
  8
0
 10
385543.343000
 20
802661.528900
  0
VERTEX
  8
0
 10
385543.730200
 20
802660.606900
  0
VERTEX
  8
0
 10
385544.117400
 20
802659.684900
  0
VERTEX
  8
0
 10
385544.504600
 20
802658.762900
  0
VERTEX
  8
0
 10
385544.891700
 20
802657.840900
  0
VERTEX
  8
0
 10
385545.278900
 20
802656.918900
  0
VERTEX
  8
0
 10
385545.666100
 20
802655.996900
  0
VERTEX
  8
0
 10
385546.053300
 20
802655.074900
  0
VERTEX
  8
0
 10
385546.440500
 20
802654.152900
  0
VERTEX
  8
0
 10
385546.827700
 20
802653.230900
  0
VERTEX
  8
0
 10
385546.962600
 20
802652.876300
  0
VERTEX
  8
0
 10
385547.312600
 20
802651.939500
  0
VERTEX
  8
0
 10
385547.662500
 20
802651.002700
  0
VERTEX
  8
0
 10
385548.012400
 20
802650.065900
  0
VERTEX
  8
0
 10
385548.362300
 20
802649.129100
  0
VERTEX
  8
0
 10
385548.712200
 20
802648.192300
  0
VERTEX
  8
0
 10
385549.062100
 20
802647.255500
  0
VERTEX
  8
0
 10
385549.412000
 20
802646.318700
  0
VERTEX
  8
0
 10
385549.761900
 20
802645.381900
  0
VERTEX
  8
0
 10
385550.111800
 20
802644.445100
  0
VERTEX
  8
0
 10
385550.461700
 20
802643.508300
  0
VERTEX
  8
0
 10
385550.811700
 20
802642.571500
  0
VERTEX
  8
0
 10
385551.161600
 20
802641.634600
  0
VERTEX
  8
0
 10
385551.511500
 20
802640.697800
  0
VERTEX
  8
0
 10
385551.861400
 20
802639.761000
  0
VERTEX
  8
0
 10
385552.211300
 20
802638.824200
  0
VERTEX
  8
0
 10
385551.653300
 20
802640.318100
  0
VERTEX
  8
0
 10
385552.004200
 20
802639.378700
  0
VERTEX
  8
0
 10
385552.355100
 20
802638.439300
  0
VERTEX
  8
0
 10
385552.706000
 20
802637.499900
  0
VERTEX
  8
0
 10
385553.056900
 20
802636.560400
  0
VERTEX
  8
0
 10
385553.407700
 20
802635.621000
  0
VERTEX
  8
0
 10
385553.671600
 20
802634.656300
  0
VERTEX
  8
0
 10
385553.931400
 20
802633.690500
  0
VERTEX
  8
0
 10
385554.191200
 20
802632.724600
  0
VERTEX
  8
0
 10
385554.451100
 20
802631.758800
  0
VERTEX
  8
0
 10
385554.710900
 20
802630.792900
  0
VERTEX
  8
0
 10
385554.970700
 20
802629.827000
  0
VERTEX
  8
0
 10
385555.230600
 20
802628.861200
  0
VERTEX
  8
0
 10
385555.490400
 20
802627.895300
  0
VERTEX
  8
0
 10
385555.750200
 20
802626.929500
  0
VERTEX
  8
0
 10
385556.010100
 20
802625.963600
  0
VERTEX
  8
0
 10
385556.269900
 20
802624.997800
  0
VERTEX
  8
0
 10
385556.529800
 20
802624.031900
  0
VERTEX
  8
0
 10
385556.789600
 20
802623.066100
  0
VERTEX
  8
0
 10
385557.049400
 20
802622.100200
  0
VERTEX
  8
0
 10
385557.309300
 20
802621.134400
  0
VERTEX
  8
0
 10
385557.569100
 20
802620.168500
  0
VERTEX
  8
0
 10
385557.828900
 20
802619.202700
  0
VERTEX
  8
0
 10
385558.088800
 20
802618.236800
  0
VERTEX
  8
0
 10
385558.348600
 20
802617.270900
  0
VERTEX
  8
0
 10
385558.608400
 20
802616.305100
  0
VERTEX
  8
0
 10
385558.232400
 20
802617.702800
  0
VERTEX
  8
0
 10
385558.492600
 20
802616.735700
  0
VERTEX
  8
0
 10
385558.752700
 20
802615.768700
  0
VERTEX
  8
0
 10
385559.012900
 20
802614.801600
  0
VERTEX
  8
0
 10
385559.273000
 20
802613.834500
  0
VERTEX
  8
0
 10
385559.533200
 20
802612.867500
  0
VERTEX
  8
0
 10
385559.793400
 20
802611.900400
  0
VERTEX
  8
0
 10
385560.053500
 20
802610.933400
  0
VERTEX
  8
0
 10
385560.313700
 20
802609.966300
  0
VERTEX
  8
0
 10
385560.573800
 20
802608.999200
  0
VERTEX
  8
0
 10
385560.834000
 20
802608.032200
  0
VERTEX
  8
0
 10
385561.094200
 20
802607.065100
  0
VERTEX
  8
0
 10
385561.328400
 20
802606.092500
  0
VERTEX
  8
0
 10
385561.559600
 20
802605.119300
  0
VERTEX
  8
0
 10
385561.790800
 20
802604.146100
  0
VERTEX
  8
0
 10
385562.022000
 20
802603.172900
  0
VERTEX
  8
0
 10
385562.253200
 20
802602.199700
  0
VERTEX
  8
0
 10
385562.484400
 20
802601.226500
  0
VERTEX
  8
0
 10
385562.715600
 20
802600.253300
  0
VERTEX
  8
0
 10
385562.775700
 20
802600.000000
  0
SEQEND
  0
POLYLINE
  8
0
 62
3
  6
CONTINUOUS
 70
0
 66
1
 10
0.000000
 20
0.000000
  0
VERTEX
  8
0
 10
385528.647800
 20
802700.000000
  0
VERTEX
  8
0
 10
385528.726700
 20
802699.773500
  0
VERTEX
  8
0
 10
385528.804100
 20
802699.551600
  0
VERTEX
  8
0
 10
385529.042400
 20
802698.823600
  0
VERTEX
  8
0
 10
385529.116400
 20
802698.597600
  0
VERTEX
  8
0
 10
385529.331300
 20
802697.865300
  0
VERTEX
  8
0
 10
385529.613700
 20
802696.902900
  0
VERTEX
  8
0
 10
385529.669000
 20
802696.714200
  0
VERTEX
  8
0
 10
385529.443100
 20
802697.488300
  0
VERTEX
  8
0
 10
385529.153800
 20
802698.479700
  0
VERTEX
  8
0
 10
385529.395700
 20
802697.643700
  0
VERTEX
  8
0
 10
385529.412400
 20
802697.586000
  0
VERTEX
  8
0
 10
385529.766500
 20
802696.362200
  0
VERTEX
  8
0
 10
385529.917100
 20
802695.817700
  0
VERTEX
  8
0
 10
385530.058900
 20
802695.305600
  0
VERTEX
  8
0
 10
385530.346100
 20
802694.249800
  0
VERTEX
  8
0
 10
385530.475700
 20
802693.686000
  0
VERTEX
  8
0
 10
385530.587200
 20
802693.201000
  0
VERTEX
  8
0
 10
385530.677000
 20
802692.608400
  0
VERTEX
  8
0
 10
385530.777800
 20
802691.942300
  0
VERTEX
  8
0
 10
385530.820000
 20
802691.524200
  0
VERTEX
  8
0
 10
385530.880400
 20
802690.924700
  0
VERTEX
  8
0
 10
385530.897500
 20
802690.451500
  0
VERTEX
  8
0
 10
385530.916900
 20
802689.914500
  0
VERTEX
  8
0
 10
385530.898700
 20
802689.179100
  0
VERTEX
  8
0
 10
385530.892100
 20
802688.911100
  0
VERTEX
  8
0
 10
385530.843200
 20
802688.157700
  0
VERTEX
  8
0
 10
385530.827300
 20
802687.912100
  0
VERTEX
  8
0
 10
385530.814100
 20
802687.825300
  0
VERTEX
  8
0
 10
385530.712500
 20
802687.155900
  0
VERTEX
  8
0
 10
385530.677100
 20
802686.922700
  0
VERTEX
  8
0
 10
385530.507200
 20
802686.173600
  0
VERTEX
  8
0
 10
385530.285800
 20
802685.197400
  0
VERTEX
  8
0
 10
385530.267200
 20
802685.115300
  0
VERTEX
  8
0
 10
385530.008200
 20
802684.236900
  0
VERTEX
  8
0
 10
385529.976100
 20
802684.127900
  0
VERTEX
  8
0
 10
385529.565600
 20
802683.146300
  0
VERTEX
  8
0
 10
385529.284000
 20
802682.531300
  0
VERTEX
  8
0
 10
385529.116900
 20
802682.166400
  0
VERTEX
  8
0
 10
385528.815900
 20
802681.615600
  0
VERTEX
  8
0
 10
385528.583700
 20
802681.190500
  0
VERTEX
  8
0
 10
385528.281300
 20
802680.696000
  0
VERTEX
  8
0
 10
385527.988700
 20
802680.217600
  0
VERTEX
  8
0
 10
385527.644500
 20
802679.831600
  0
VERTEX
  8
0
 10
385526.904400
 20
802679.001600
  0
VERTEX
  8
0
 10
385526.783900
 20
802678.866500
  0
VERTEX
  8
0
 10
385526.145700
 20
802678.150800
  0
VERTEX
  8
0
 10
385521.312900
 20
802672.731000
  0
VERTEX
  8
0
 10
385519.885500
 20
802671.668500
  0
VERTEX
  8
0
 10
385519.581500
 20
802671.442300
  0
VERTEX
  8
0
 10
385519.269700
 20
802670.916700
  0
VERTEX
  8
0
 10
385518.918100
 20
802670.323900
  0
VERTEX
  8
0
 10
385518.641400
 20
802668.881400
  0
VERTEX
  8
0
 10
385518.517400
 20
802668.234700
  0
VERTEX
  8
0
 10
385518.571800
 20
802667.594500
  0
VERTEX
  8
0
 10
385518.602400
 20
802667.235600
  0
VERTEX
  8
0
 10
385519.384500
 20
802665.651400
  0
VERTEX
  8
0
 10
385519.828600
 20
802664.752000
  0
VERTEX
  8
0
 10
385520.900400
 20
802662.581200
  0
VERTEX
  8
0
 10
385521.455600
 20
802661.456700
  0
VERTEX
  8
0
 10
385522.073600
 20
802660.605100
  0
VERTEX
  8
0
 10
385522.663100
 20
802659.744300
  0
VERTEX
  8
0
 10
385523.009200
 20
802659.165500
  0
VERTEX
  8
0
 10
385523.189900
 20
802658.863400
  0
VERTEX
  8
0
 10
385523.516200
 20
802658.244200
  0
VERTEX
  8
0
 10
385523.663300
 20
802657.965200
  0
VERTEX
  8
0
 10
385523.967900
 20
802657.304400
  0
VERTEX
  8
0
 10
385524.085000
 20
802657.050400
  0
VERTEX
  8
0
 10
385524.306300
 20
802656.336600
  0
VERTEX
  8
0
 10
385524.606700
 20
802655.367100
  0
VERTEX
  8
0
 10
385524.904800
 20
802654.405200
  0
VERTEX
  8
0
 10
385525.061800
 20
802653.898700
  0
VERTEX
  8
0
 10
385525.103100
 20
802653.599800
  0
VERTEX
  8
0
 10
385525.203300
 20
802652.874200
  0
VERTEX
  8
0
 10
385525.334300
 20
802651.845300
  0
VERTEX
  8
0
 10
385525.479300
 20
802651.162200
  0
VERTEX
  8
0
 10
385525.545600
 20
802650.849800
  0
VERTEX
  8
0
 10
385525.892900
 20
802650.225300
  0
VERTEX
  8
0
 10
385526.034600
 20
802649.970300
  0
VERTEX
  8
0
 10
385526.339600
 20
802649.290300
  0
VERTEX
  8
0
 10
385526.444000
 20
802649.057600
  0
VERTEX
  8
0
 10
385526.745200
 20
802648.356600
  0
VERTEX
  8
0
 10
385526.838800
 20
802648.138800
  0
VERTEX
  8
0
 10
385527.131500
 20
802647.427700
  0
VERTEX
  8
0
 10
385527.219500
 20
802647.214000
  0
VERTEX
  8
0
 10
385527.502400
 20
802646.499000
  0
VERTEX
  8
0
 10
385527.587400
 20
802646.284000
  0
VERTEX
  8
0
 10
385527.859100
 20
802645.563800
  0
VERTEX
  8
0
 10
385528.212000
 20
802644.628100
  0
VERTEX
  8
0
 10
385528.293700
 20
802644.411600
  0
VERTEX
  8
0
 10
385528.365400
 20
802644.220000
  0
VERTEX
  8
0
 10
385528.549000
 20
802643.729500
  0
VERTEX
  8
0
 10
385528.565100
 20
802643.692600
  0
VERTEX
  8
0
 10
385528.949200
 20
802642.811900
  0
VERTEX
  8
0
 10
385529.452700
 20
802641.933500
  0
VERTEX
  8
0
 10
385529.467500
 20
802641.910100
  0
VERTEX
  8
0
 10
385529.857500
 20
802641.295400
  0
VERTEX
  8
0
 10
385529.999500
 20
802641.071600
  0
VERTEX
  8
0
 10
385530.407200
 20
802640.458900
  0
VERTEX
  8
0
 10
385530.567600
 20
802640.217900
  0
VERTEX
  8
0
 10
385530.968700
 20
802639.615700
  0
VERTEX
  8
0
 10
385531.534200
 20
802638.766800
  0
VERTEX
  8
0
 10
385531.704800
 20
802638.510700
  0
VERTEX
  8
0
 10
385532.095900
 20
802637.908200
  0
VERTEX
  8
0
 10
385532.261700
 20
802637.652700
  0
VERTEX
  8
0
 10
385532.793900
 20
802636.785200
  0
VERTEX
  8
0
 10
385533.158500
 20
802636.154400
  0
VERTEX
  8
0
 10
385533.300800
 20
802635.908100
  0
VERTEX
  8
0
 10
385533.449700
 20
802635.634400
  0
VERTEX
  8
0
 10
385533.653700
 20
802635.259200
  0
VERTEX
  8
0
 10
385533.782900
 20
802635.021600
  0
VERTEX
  8
0
 10
385534.125200
 20
802634.357100
  0
VERTEX
  8
0
 10
385534.200200
 20
802634.211500
  0
VERTEX
  8
0
 10
385534.556700
 20
802633.440700
  0
VERTEX
  8
0
 10
385534.624800
 20
802633.293500
  0
VERTEX
  8
0
 10
385534.939000
 20
802632.507200
  0
VERTEX
  8
0
 10
385534.997700
 20
802632.360400
  0
VERTEX
  8
0
 10
385535.239800
 20
802631.647500
  0
VERTEX
  8
0
 10
385535.319500
 20
802631.412600
  0
VERTEX
  8
0
 10
385535.529300
 20
802630.678000
  0
VERTEX
  8
0
 10
385535.594100
 20
802630.451000
  0
VERTEX
  8
0
 10
385535.780100
 20
802629.705900
  0
VERTEX
  8
0
 10
385535.836500
 20
802629.480100
  0
VERTEX
  8
0
 10
385536.020400
 20
802628.734200
  0
VERTEX
  8
0
 10
385536.076100
 20
802628.508400
  0
VERTEX
  8
0
 10
385536.251600
 20
802627.761300
  0
VERTEX
  8
0
 10
385536.305000
 20
802627.533500
  0
VERTEX
  8
0
 10
385536.463800
 20
802626.783100
  0
VERTEX
  8
0
 10
385536.512600
 20
802626.552500
  0
VERTEX
  8
0
 10
385536.580100
 20
802626.190400
  0
VERTEX
  8
0
 10
385536.652800
 20
802625.800200
  0
VERTEX
  8
0
 10
385536.696700
 20
802625.564700
  0
VERTEX
  8
0
 10
385536.829500
 20
802624.814900
  0
VERTEX
  8
0
 10
385536.872100
 20
802624.574300
  0
VERTEX
  8
0
 10
385536.999200
 20
802623.826400
  0
VERTEX
  8
0
 10
385537.040800
 20
802623.582000
  0
VERTEX
  8
0
 10
385537.162500
 20
802622.834700
  0
VERTEX
  8
0
 10
385537.202800
 20
802622.587800
  0
VERTEX
  8
0
 10
385537.319900
 20
802621.841100
  0
VERTEX
  8
0
 10
385537.358900
 20
802621.591800
  0
VERTEX
  8
0
 10
385537.473900
 20
802620.847000
  0
VERTEX
  8
0
 10
385537.627700
 20
802619.850800
  0
VERTEX
  8
0
 10
385537.781400
 20
802618.854500
  0
VERTEX
  8
0
 10
385537.820400
 20
802618.602000
  0
VERTEX
  8
0
 10
385537.975100
 20
802617.605600
  0
VERTEX
  8
0
 10
385538.132600
 20
802616.610000
  0
VERTEX
  8
0
 10
385538.179600
 20
802616.319600
  0
VERTEX
  8
0
 10
385538.253000
 20
802615.866500
  0
VERTEX
  8
0
 10
385538.293600
 20
802615.615500
  0
VERTEX
  8
0
 10
385538.416900
 20
802614.872000
  0
VERTEX
  8
0
 10
385538.458300
 20
802614.622100
  0
VERTEX
  8
0
 10
385538.601700
 20
802613.881100
  0
VERTEX
  8
0
 10
385538.649100
 20
802613.636200
  0
VERTEX
  8
0
 10
385538.898500
 20
802612.919800
  0
VERTEX
  8
0
 10
385538.978400
 20
802612.690500
  0
VERTEX
  8
0
 10
385539.288600
 20
802611.992200
  0
VERTEX
  8
0
 10
385539.696300
 20
802611.074700
  0
VERTEX
  8
0
 10
385540.102800
 20
802610.159900
  0
VERTEX
  8
0
 10
385541.526000
 20
802606.956800
  0
VERTEX
  8
0
 10
385544.617100
 20
802600.000000
  0
SEQEND
  0
POLYLINE
  8
0
 62
1
  6
CONTINUOUS
 70
0
 66
1
 10
0.000000
 20
0.000000
  0
VERTEX
  8
0
 10
385561.111400
 20
802700.000000
  0
VERTEX
  8
0
 10
385561.103900
 20
802699.628300
  0
VERTEX
  8
0
 10
385561.083700
 20
802698.628500
  0
VERTEX
  8
0
 10
385560.985200
 20
802697.633400
  0
VERTEX
  8
0
 10
385560.886600
 20
802696.638300
  0
VERTEX
  8
0
 10
385560.788100
 20
802695.643100
  0
VERTEX
  8
0
 10
385560.689600
 20
802694.648000
  0
VERTEX
  8
0
 10
385560.591100
 20
802693.652900
  0
VERTEX
  8
0
 10
385560.439300
 20
802692.664400
  0
VERTEX
  8
0
 10
385560.287600
 20
802691.676000
  0
VERTEX
  8
0
 10
385560.135800
 20
802690.687600
  0
VERTEX
  8
0
 10
385559.984000
 20
802689.699200
  0
VERTEX
  8
0
 10
385559.832300
 20
802688.710800
  0
VERTEX
  8
0
 10
385559.721700
 20
802687.716900
  0
VERTEX
  8
0
 10
385559.611200
 20
802686.723000
  0
VERTEX
  8
0
 10
385559.500700
 20
802685.729200
  0
VERTEX
  8
0
 10
385559.390100
 20
802684.735300
  0
VERTEX
  8
0
 10
385559.279600
 20
802683.741400
  0
VERTEX
  8
0
 10
385559.232300
 20
802682.742500
  0
VERTEX
  8
0
 10
385559.185000
 20
802681.743600
  0
VERTEX
  8
0
 10
385559.137700
 20
802680.744800
  0
VERTEX
  8
0
 10
385559.090400
 20
802679.745900
  0
VERTEX
  8
0
 10
385559.043100
 20
802678.747000
  0
VERTEX
  8
0
 10
385559.200500
 20
802677.759500
  0
VERTEX
  8
0
 10
385559.358000
 20
802676.772000
  0
VERTEX
  8
0
 10
385559.515400
 20
802675.784400
  0
VERTEX
  8
0
 10
385559.672900
 20
802674.796900
  0
VERTEX
  8
0
 10
385559.830400
 20
802673.809400
  0
VERTEX
  8
0
 10
385560.136800
 20
802672.857500
  0
VERTEX
  8
0
 10
385560.443200
 20
802671.905600
  0
VERTEX
  8
0
 10
385560.749600
 20
802670.953700
  0
VERTEX
  8
0
 10
385561.056000
 20
802670.001800
  0
VERTEX
  8
0
 10
385561.362400
 20
802669.049900
  0
VERTEX
  8
0
 10
385561.747600
 20
802668.127000
  0
VERTEX
  8
0
 10
385562.132800
 20
802667.204200
  0
VERTEX
  8
0
 10
385562.518000
 20
802666.281400
  0
VERTEX
  8
0
 10
385562.903100
 20
802665.358500
  0
VERTEX
  8
0
 10
385563.288300
 20
802664.435700
  0
VERTEX
  8
0
 10
385563.673500
 20
802663.512800
  0
VERTEX
  8
0
 10
385564.058700
 20
802662.590000
  0
VERTEX
  8
0
 10
385564.443800
 20
802661.667100
  0
VERTEX
  8
0
 10
385564.829000
 20
802660.744300
  0
VERTEX
  8
0
 10
385565.214200
 20
802659.821500
  0
VERTEX
  8
0
 10
385565.569800
 20
802658.886800
  0
VERTEX
  8
0
 10
385565.925500
 20
802657.952200
  0
VERTEX
  8
0
 10
385566.281100
 20
802657.017600
  0
VERTEX
  8
0
 10
385566.636800
 20
802656.083000
  0
VERTEX
  8
0
 10
385566.992400
 20
802655.148400
  0
VERTEX
  8
0
 10
385567.348100
 20
802654.213700
  0
VERTEX
  8
0
 10
385567.703700
 20
802653.279100
  0
VERTEX
  8
0
 10
385568.059400
 20
802652.344500
  0
VERTEX
  8
0
 10
385568.415000
 20
802651.409900
  0
VERTEX
  8
0
 10
385568.770600
 20
802650.475200
  0
VERTEX
  8
0
 10
385569.126300
 20
802649.540600
  0
VERTEX
  8
0
 10
385569.481900
 20
802648.606000
  0
VERTEX
  8
0
 10
385569.837600
 20
802647.671400
  0
VERTEX
  8
0
 10
385570.193200
 20
802646.736800
  0
VERTEX
  8
0
 10
385570.548900
 20
802645.802100
  0
VERTEX
  8
0
 10
385570.827600
 20
802644.841800
  0
VERTEX
  8
0
 10
385571.106300
 20
802643.881400
  0
VERTEX
  8
0
 10
385571.385100
 20
802642.921000
  0
VERTEX
  8
0
 10
385571.663800
 20
802641.960700
  0
VERTEX
  8
0
 10
385571.942500
 20
802641.000300
  0
VERTEX
  8
0
 10
385572.221200
 20
802640.039900
  0
VERTEX
  8
0
 10
385572.500000
 20
802639.079500
  0
VERTEX
  8
0
 10
385572.778700
 20
802638.119200
  0
VERTEX
  8
0
 10
385573.057400
 20
802637.158800
  0
VERTEX
  8
0
 10
385573.336100
 20
802636.198400
  0
VERTEX
  8
0
 10
385573.614900
 20
802635.238100
  0
VERTEX
  8
0
 10
385573.893600
 20
802634.277700
  0
VERTEX
  8
0
 10
385574.172300
 20
802633.317300
  0
VERTEX
  8
0
 10
385574.451000
 20
802632.357000
  0
VERTEX
  8
0
 10
385574.729800
 20
802631.396600
  0
VERTEX
  8
0
 10
385575.008500
 20
802630.436200
  0
VERTEX
  8
0
 10
385575.287200
 20
802629.475800
  0
VERTEX
  8
0
 10
385575.565900
 20
802628.515500
  0
VERTEX
  8
0
 10
385575.844700
 20
802627.555100
  0
VERTEX
  8
0
 10
385576.123400
 20
802626.594700
  0
VERTEX
  8
0
 10
385576.402100
 20
802625.634400
  0
VERTEX
  8
0
 10
385576.680800
 20
802624.674000
  0
VERTEX
  8
0
 10
385576.959600
 20
802623.713600
  0
VERTEX
  8
0
 10
385577.238300
 20
802622.753200
  0
VERTEX
  8
0
 10
385577.517000
 20
802621.792900
  0
VERTEX
  8
0
 10
385577.724500
 20
802620.814600
  0
VERTEX
  8
0
 10
385577.932000
 20
802619.836400
  0
VERTEX
  8
0
 10
385578.139400
 20
802618.858200
  0
VERTEX
  8
0
 10
385578.346900
 20
802617.879900
  0
VERTEX
  8
0
 10
385578.554400
 20
802616.901700
  0
VERTEX
  8
0
 10
385578.761900
 20
802615.923400
  0
VERTEX
  8
0
 10
385578.969300
 20
802614.945200
  0
VERTEX
  8
0
 10
385579.176800
 20
802613.966900
  0
VERTEX
  8
0
 10
385579.384300
 20
802612.988700
  0
VERTEX
  8
0
 10
385579.591800
 20
802612.010500
  0
VERTEX
  8
0
 10
385579.799200
 20
802611.032200
  0
VERTEX
  8
0
 10
385580.006700
 20
802610.054000
  0
VERTEX
  8
0
 10
385580.214200
 20
802609.075700
  0
VERTEX
  8
0
 10
385580.421700
 20
802608.097500
  0
VERTEX
  8
0
 10
385580.629100
 20
802607.119300
  0
VERTEX
  8
0
 10
385580.836600
 20
802606.141000
  0
VERTEX
  8
0
 10
385581.044100
 20
802605.162800
  0
VERTEX
  8
0
 10
385581.251600
 20
802604.184500
  0
VERTEX
  8
0
 10
385581.459000
 20
802603.206300
  0
VERTEX
  8
0
 10
385581.666500
 20
802602.228100
  0
VERTEX
  8
0
 10
385581.874000
 20
802601.249800
  0
VERTEX
  8
0
 10
385582.081400
 20
802600.271600
  0
VERTEX
  8
0
 10
385582.139000
 20
802600.000000
  0
SEQEND
  0
POLYLINE
  8
0
 62
2
  6
CONTINUOUS
 70
0
 66
1
 10
0.000000
 20
0.000000
  0
VERTEX
  8
0
 10
385525.825500
 20
802632.822200
  0
VERTEX
  8
0
 10
385526.354800
 20
802631.934600
  0
VERTEX
  8
0
 10
385526.825800
 20
802631.030000
  0
VERTEX
  8
0
 10
385527.256300
 20
802630.113700
  0
VERTEX
  8
0
 10
385527.618000
 20
802629.177400
  0
VERTEX
  8
0
 10
385527.899000
 20
802628.217700
  0
VERTEX
  8
0
 10
385528.098600
 20
802627.234300
  0
VERTEX
  8
0
 10
385528.057100
 20
802626.181000
  0
VERTEX
  8
0
 10
385528.011200
 20
802625.126500
  0
VERTEX
  8
0
 10
385527.918100
 20
802624.058200
  0
VERTEX
  8
0
 10
385527.824900
 20
802622.989800
  0
VERTEX
  8
0
 10
385527.731700
 20
802621.921500
  0
VERTEX
  8
0
 10
385527.638500
 20
802620.853200
  0
VERTEX
  8
0
 10
385527.579700
 20
802619.794900
  0
VERTEX
  8
0
 10
385527.526400
 20
802618.738200
  0
VERTEX
  8
0
 10
385527.473100
 20
802617.681400
  0
VERTEX
  8
0
 10
385527.419800
 20
802616.624700
  0
VERTEX
  8
0
 10
385527.393500
 20
802615.575800
  0
VERTEX
  8
0
 10
385527.587000
 20
802614.590700
  0
VERTEX
  8
0
 10
385527.826100
 20
802613.618800
  0
VERTEX
  8
0
 10
385528.089000
 20
802612.653900
  0
VERTEX
  8
0
 10
385528.422600
 20
802611.709400
  0
VERTEX
  8
0
 10
385528.763400
 20
802610.767100
  0
VERTEX
  8
0
 10
385529.113600
 20
802609.827400
  0
VERTEX
  8
0
 10
385529.469200
 20
802608.889400
  0
VERTEX
  8
0
 10
385529.824700
 20
802607.951300
  0
VERTEX
  8
0
 10
385528.533100
 20
802611.403900
  0
VERTEX
  8
0
 10
385528.876400
 20
802610.454500
  0
VERTEX
  8
0
 10
385529.234600
 20
802609.508200
  0
VERTEX
  8
0
 10
385529.593300
 20
802608.562000
  0
VERTEX
  8
0
 10
385529.950800
 20
802607.615600
  0
VERTEX
  8
0
 10
385530.306100
 20
802606.668700
  0
VERTEX
  8
0
 10
385530.661400
 20
802605.721800
  0
VERTEX
  8
0
 10
385531.016700
 20
802604.775000
  0
VERTEX
  8
0
 10
385531.372000
 20
802603.828100
  0
VERTEX
  8
0
 10
385531.727300
 20
802602.881200
  0
VERTEX
  8
0
 10
385532.082600
 20
802601.934300
  0
VERTEX
  8
0
 10
385532.437900
 20
802600.987400
  0
VERTEX
  8
0
 10
385532.793200
 20
802600.040500
  0
VERTEX
  8
0
 10
385532.808400
 20
802600.000000
  0
SEQEND
  0
POLYLINE
  8
0
 62
3
  6
CONTINUOUS
 70
0
 66
1
 10
0.000000
 20
0.000000
  0
VERTEX
  8
0
 10
385517.961400
 20
802700.000000
  0
VERTEX
  8
0
 10
385518.393000
 20
802698.912900
  0
VERTEX
  8
0
 10
385518.572600
 20
802698.445900
  0
VERTEX
  8
0
 10
385518.914400
 20
802697.504500
  0
VERTEX
  8
0
 10
385520.913800
 20
802689.014700
  0
VERTEX
  8
0
 10
385520.701500
 20
802688.032200
  0
VERTEX
  8
0
 10
385519.562400
 20
802685.622200
  0
VERTEX
  8
0
 10
385518.976800
 20
802684.648800
  0
VERTEX
  8
0
 10
385518.293500
 20
802683.680000
  0
VERTEX
  8
0
 10
385517.554100
 20
802682.713900
  0
VERTEX
  8
0
 10
385516.599000
 20
802681.758000
  0
VERTEX
  8
0
 10
385515.422500
 20
802680.812600
  0
VERTEX
  8
0
 10
385509.780200
 20
802670.892100
  0
VERTEX
  8
0
 10
385509.844800
 20
802669.889800
  0
VERTEX
  8
0
 10
385510.458900
 20
802666.949800
  0
VERTEX
  8
0
 10
385510.778200
 20
802665.988100
  0
VERTEX
  8
0
 10
385513.535000
 20
802658.907100
  0
VERTEX
  8
0
 10
385513.944600
 20
802657.988400
  0
VERTEX
  8
0
 10
385514.869100
 20
802656.184900
  0
VERTEX
  8
0
 10
385515.355700
 20
802655.291000
  0
VERTEX
  8
0
 10
385515.831000
 20
802654.393500
  0
VERTEX
  8
0
 10
385517.560300
 20
802650.767800
  0
VERTEX
  8
0
 10
385518.297300
 20
802648.908100
  0
VERTEX
  8
0
 10
385518.665600
 20
802647.978300
  0
VERTEX
  8
0
 10
385519.032100
 20
802647.047600
  0
VERTEX
  8
0
 10
385519.399400
 20
802646.117300
  0
VERTEX
  8
0
 10
385519.766000
 20
802645.186700
  0
VERTEX
  8
0
 10
385520.859000
 20
802642.392100
  0
VERTEX
  8
0
 10
385521.318800
 20
802641.500400
  0
VERTEX
  8
0
 10
385520.671400
 20
802642.871800
  0
VERTEX
  8
0
 10
385521.070100
 20
802641.953600
  0
VERTEX
  8
0
 10
385522.527500
 20
802639.298300
  0
VERTEX
  8
0
 10
385523.033400
 20
802638.420900
  0
VERTEX
  8
0
 10
385523.542500
 20
802637.544600
  0
VERTEX
  8
0
 10
385524.043700
 20
802636.665400
  0
VERTEX
  8
0
 10
385524.413400
 20
802635.736100
  0
VERTEX
  8
0
 10
385524.800300
 20
802634.813400
  0
VERTEX
  8
0
 10
385525.221900
 20
802633.903900
  0
VERTEX
  8
0
 10
385525.707400
 20
802633.018700
  0
VERTEX
  8
0
 10
385525.825500
 20
802632.822200
  0
SEQEND
  0
POLYLINE
  8
0
 62
1
  6
CONTINUOUS
 70
0
 66
1
 10
0.000000
 20
0.000000
  0
VERTEX
  8
0
 10
385582.139000
 20
802600.000000
  0
VERTEX
  8
0
 10
385582.288900
 20
802599.293300
  0
VERTEX
  8
0
 10
385582.496400
 20
802598.315100
  0
VERTEX
  8
0
 10
385582.703900
 20
802597.336900
  0
VERTEX
  8
0
 10
385582.881900
 20
802596.352800
  0
VERTEX
  8
0
 10
385583.059900
 20
802595.368800
  0
VERTEX
  8
0
 10
385583.237900
 20
802594.384800
  0
VERTEX
  8
0
 10
385583.415900
 20
802593.400700
  0
VERTEX
  8
0
 10
385583.593900
 20
802592.416700
  0
VERTEX
  8
0
 10
385583.771900
 20
802591.432700
  0
VERTEX
  8
0
 10
385583.949900
 20
802590.448700
  0
VERTEX
  8
0
 10
385584.127900
 20
802589.464600
  0
VERTEX
  8
0
 10
385584.305900
 20
802588.480600
  0
VERTEX
  8
0
 10
385584.483900
 20
802587.496600
  0
VERTEX
  8
0
 10
385584.661900
 20
802586.512500
  0
VERTEX
  8
0
 10
385584.839900
 20
802585.528500
  0
VERTEX
  8
0
 10
385585.017900
 20
802584.544500
  0
VERTEX
  8
0
 10
385585.195900
 20
802583.560400
  0
VERTEX
  8
0
 10
385585.373900
 20
802582.576400
  0
VERTEX
  8
0
 10
385585.523300
 20
802581.587600
  0
VERTEX
  8
0
 10
385585.672600
 20
802580.598800
  0
VERTEX
  8
0
 10
385585.822000
 20
802579.610100
  0
VERTEX
  8
0
 10
385585.971400
 20
802578.621300
  0
VERTEX
  8
0
 10
385586.120700
 20
802577.632500
  0
VERTEX
  8
0
 10
385586.270100
 20
802576.643700
  0
VERTEX
  8
0
 10
385586.419500
 20
802575.654900
  0
VERTEX
  8
0
 10
385586.568800
 20
802574.666200
  0
VERTEX
  8
0
 10
385586.718200
 20
802573.677400
  0
VERTEX
  8
0
 10
385586.867600
 20
802572.688600
  0
VERTEX
  8
0
 10
385587.016900
 20
802571.699800
  0
VERTEX
  8
0
 10
385587.166300
 20
802570.711000
  0
VERTEX
  8
0
 10
385587.315700
 20
802569.722200
  0
VERTEX
  8
0
 10
385587.465000
 20
802568.733500
  0
VERTEX
  8
0
 10
385587.614400
 20
802567.744700
  0
VERTEX
  8
0
 10
385587.763700
 20
802566.755900
  0
VERTEX
  8
0
 10
385587.913100
 20
802565.767100
  0
VERTEX
  8
0
 10
385588.062500
 20
802564.778300
  0
VERTEX
  8
0
 10
385588.211800
 20
802563.789500
  0
VERTEX
  8
0
 10
385588.361200
 20
802562.800800
  0
VERTEX
  8
0
 10
385588.445200
 20
802561.804300
  0
VERTEX
  8
0
 10
385588.529200
 20
802560.807800
  0
VERTEX
  8
0
 10
385588.613200
 20
802559.811400
  0
VERTEX
  8
0
 10
385588.697200
 20
802558.814900
  0
VERTEX
  8
0
 10
385588.781300
 20
802557.818400
  0
VERTEX
  8
0
 10
385588.865300
 20
802556.822000
  0
VERTEX
  8
0
 10
385588.949300
 20
802555.825500
  0
VERTEX
  8
0
 10
385589.033300
 20
802554.829000
  0
VERTEX
  8
0
 10
385589.117300
 20
802553.832600
  0
VERTEX
  8
0
 10
385589.201300
 20
802552.836100
  0
VERTEX
  8
0
 10
385589.285300
 20
802551.839700
  0
VERTEX
  8
0
 10
385589.369300
 20
802550.843200
  0
VERTEX
  8
0
 10
385589.453300
 20
802549.846700
  0
VERTEX
  8
0
 10
385589.537400
 20
802548.850300
  0
VERTEX
  8
0
 10
385589.621400
 20
802547.853800
  0
VERTEX
  8
0
 10
385589.624500
 20
802546.853800
  0
VERTEX
  8
0
 10
385589.627600
 20
802545.853800
  0
VERTEX
  8
0
 10
385589.630700
 20
802544.853800
  0
VERTEX
  8
0
 10
385589.633800
 20
802543.853800
  0
VERTEX
  8
0
 10
385589.636900
 20
802542.853800
  0
VERTEX
  8
0
 10
385589.639900
 20
802541.853800
  0
VERTEX
  8
0
 10
385589.643000
 20
802540.853800
  0
VERTEX
  8
0
 10
385589.646100
 20
802539.853800
  0
VERTEX
  8
0
 10
385589.649200
 20
802538.853800
  0
VERTEX
  8
0
 10
385589.652300
 20
802537.853800
  0
VERTEX
  8
0
 10
385589.655400
 20
802536.853800
  0
VERTEX
  8
0
 10
385589.658500
 20
802535.853900
  0
VERTEX
  8
0
 10
385589.661600
 20
802534.853900
  0
VERTEX
  8
0
 10
385589.664700
 20
802533.853900
  0
VERTEX
  8
0
 10
385589.667800
 20
802532.853900
  0
VERTEX
  8
0
 10
385589.670900
 20
802531.853900
  0
VERTEX
  8
0
 10
385589.674000
 20
802530.853900
  0
VERTEX
  8
0
 10
385589.677100
 20
802529.853900
  0
VERTEX
  8
0
 10
385589.680200
 20
802528.853900
  0
VERTEX
  8
0
 10
385589.683300
 20
802527.853900
  0
VERTEX
  8
0
 10
385589.686400
 20
802526.853900
  0
VERTEX
  8
0
 10
385589.689500
 20
802525.853900
  0
VERTEX
  8
0
 10
385589.692600
 20
802524.853900
  0
VERTEX
  8
0
 10
385589.695700
 20
802523.853900
  0
VERTEX
  8
0
 10
385589.698800
 20
802522.853900
  0
VERTEX
  8
0
 10
385589.701900
 20
802521.853900
  0
VERTEX
  8
0
 10
385589.705000
 20
802520.853900
  0
VERTEX
  8
0
 10
385589.708100
 20
802519.853900
  0
VERTEX
  8
0
 10
385589.711200
 20
802518.853900
  0
VERTEX
  8
0
 10
385589.714300
 20
802517.853900
  0
VERTEX
  8
0
 10
385589.717400
 20
802516.853900
  0
VERTEX
  8
0
 10
385589.720500
 20
802515.853900
  0
VERTEX
  8
0
 10
385589.723600
 20
802514.854000
  0
VERTEX
  8
0
 10
385589.726700
 20
802513.854000
  0
VERTEX
  8
0
 10
385589.729800
 20
802512.854000
  0
VERTEX
  8
0
 10
385589.732900
 20
802511.854000
  0
VERTEX
  8
0
 10
385589.736000
 20
802510.854000
  0
VERTEX
  8
0
 10
385589.739100
 20
802509.854000
  0
VERTEX
  8
0
 10
385589.742200
 20
802508.854000
  0
VERTEX
  8
0
 10
385589.745300
 20
802507.854000
  0
VERTEX
  8
0
 10
385589.748400
 20
802506.854000
  0
VERTEX
  8
0
 10
385589.751400
 20
802505.854000
  0
VERTEX
  8
0
 10
385589.754500
 20
802504.854000
  0
VERTEX
  8
0
 10
385589.757600
 20
802503.854000
  0
VERTEX
  8
0
 10
385589.760700
 20
802502.854000
  0
VERTEX
  8
0
 10
385589.763800
 20
802501.854100
  0
SEQEND
  0
POLYLINE
  8
0
 62
3
  6
CONTINUOUS
 70
0
 66
1
 10
0.000000
 20
0.000000
  0
VERTEX
  8
0
 10
385605.857600
 20
802500.000000
  0
VERTEX
  8
0
 10
385605.951500
 20
802500.143800
  0
VERTEX
  8
0
 10
385606.353300
 20
802501.004300
  0
VERTEX
  8
0
 10
385606.774700
 20
802501.906800
  0
VERTEX
  8
0
 10
385607.119100
 20
802502.655300
  0
VERTEX
  8
0
 10
385607.235400
 20
802502.908100
  0
VERTEX
  8
0
 10
385607.589100
 20
802503.909200
  0
VERTEX
  8
0
 10
385607.781100
 20
802504.484000
  0
VERTEX
  8
0
 10
385607.923600
 20
802504.910300
  0
VERTEX
  8
0
 10
385608.123000
 20
802505.531600
  0
VERTEX
  8
0
 10
385608.447300
 20
802506.541800
  0
VERTEX
  8
0
 10
385608.473600
 20
802506.623700
  0
VERTEX
  8
0
 10
385608.566200
 20
802506.912300
  0
VERTEX
  8
0
 10
385608.692400
 20
802507.567100
  0
VERTEX
  8
0
 10
385608.759100
 20
802507.912900
  0
VERTEX
  8
0
 10
385609.078400
 20
802509.634400
  0
VERTEX
  8
0
 10
385609.130300
 20
802509.914000
  0
VERTEX
  8
0
 10
385609.294300
 20
802510.630100
  0
VERTEX
  8
0
 10
385609.359400
 20
802510.914800
  0
VERTEX
  8
0
 10
385609.851600
 20
802512.586800
  0
VERTEX
  8
0
 10
385610.141400
 20
802513.571000
  0
VERTEX
  8
0
 10
385610.538000
 20
802514.918400
  0
VERTEX
  8
0
 10
385610.860500
 20
802515.919400
  0
VERTEX
  8
0
 10
385610.981600
 20
802516.291000
  0
VERTEX
  8
0
 10
385611.186700
 20
802516.920400
  0
VERTEX
  8
0
 10
385611.370900
 20
802517.559300
  0
VERTEX
  8
0
 10
385611.475300
 20
802517.921300
  0
VERTEX
  8
0
 10
385611.653800
 20
802518.572600
  0
VERTEX
  8
0
 10
385611.932200
 20
802519.588100
  0
VERTEX
  8
0
 10
385612.024000
 20
802519.923000
  0
VERTEX
  8
0
 10
385612.194300
 20
802520.595500
  0
VERTEX
  8
0
 10
385612.277500
 20
802520.923800
  0
VERTEX
  8
0
 10
385612.503900
 20
802522.646300
  0
VERTEX
  8
0
 10
385612.638400
 20
802523.669500
  0
VERTEX
  8
0
 10
385612.803500
 20
802524.925500
  0
VERTEX
  8
0
 10
385612.916400
 20
802525.925800
  0
VERTEX
  8
0
 10
385612.932300
 20
802526.070500
  0
VERTEX
  8
0
 10
385613.026400
 20
802526.926200
  0
VERTEX
  8
0
 10
385613.185500
 20
802527.665400
  0
VERTEX
  8
0
 10
385613.241800
 20
802527.926900
  0
VERTEX
  8
0
 10
385613.425500
 20
802528.643300
  0
VERTEX
  8
0
 10
385613.498400
 20
802528.927700
  0
VERTEX
  8
0
 10
385613.627600
 20
802529.628200
  0
VERTEX
  8
0
 10
385613.813500
 20
802530.635200
  0
VERTEX
  8
0
 10
385614.000900
 20
802531.651100
  0
VERTEX
  8
0
 10
385614.236900
 20
802532.930000
  0
VERTEX
  8
0
 10
385614.389300
 20
802533.930400
  0
VERTEX
  8
0
 10
385614.588000
 20
802535.676700
  0
VERTEX
  8
0
 10
385614.615500
 20
802535.918100
  0
VERTEX
  8
0
 10
385614.702500
 20
802536.682200
  0
VERTEX
  8
0
 10
385615.300300
 20
802541.933300
  0
VERTEX
  8
0
 10
385615.444300
 20
802542.933800
  0
VERTEX
  8
0
 10
385615.770900
 20
802544.661400
  0
VERTEX
  8
0
 10
385615.958700
 20
802545.654800
  0
VERTEX
  8
0
 10
385615.989500
 20
802545.817900
  0
VERTEX
  8
0
 10
385617.579000
 20
802554.225100
  0
VERTEX
  8
0
 10
385617.712800
 20
802555.239900
  0
VERTEX
  8
0
 10
385617.762000
 20
802555.657300
  0
VERTEX
  8
0
 10
385617.832200
 20
802556.253500
  0
VERTEX
  8
0
 10
385617.846700
 20
802556.979000
  0
VERTEX
  8
0
 10
385617.867200
 20
802558.001800
  0
VERTEX
  8
0
 10
385617.887700
 20
802559.022600
  0
VERTEX
  8
0
 10
385617.912700
 20
802560.274500
  0
VERTEX
  8
0
 10
385617.927300
 20
802561.279300
  0
VERTEX
  8
0
 10
385617.849700
 20
802563.042500
  0
VERTEX
  8
0
 10
385617.805500
 20
802564.045600
  0
VERTEX
  8
0
 10
385617.735000
 20
802565.648000
  0
VERTEX
  8
0
 10
385617.577000
 20
802569.236800
  0
VERTEX
  8
0
 10
385617.463400
 20
802570.231000
  0
VERTEX
  8
0
 10
385617.213800
 20
802571.982400
  0
VERTEX
  8
0
 10
385617.072800
 20
802572.972400
  0
VERTEX
  8
0
 10
385616.700700
 20
802575.584000
  0
VERTEX
  8
0
 10
385615.290200
 20
802585.484000
  0
VERTEX
  8
0
 10
385613.879600
 20
802595.384000
  0
VERTEX
  8
0
 10
385613.672000
 20
802596.841400
  0
VERTEX
  8
0
 10
385613.478900
 20
802597.822600
  0
VERTEX
  8
0
 10
385613.118200
 20
802599.554300
  0
VERTEX
  8
0
 10
385613.025300
 20
802600.000000
  0
SEQEND
  0
POLYLINE
  8
0
 62
3
  6
CONTINUOUS
 70
0
 66
1
 10
0.000000
 20
0.000000
  0
VERTEX
  8
0
 10
385611.246700
 20
802501.707000
  0
VERTEX
  8
0
 10
385611.312200
 20
802501.920900
  0
VERTEX
  8
0
 10
385611.619100
 20
802502.921700
  0
VERTEX
  8
0
 10
385611.926100
 20
802503.922700
  0
VERTEX
  8
0
 10
385612.228600
 20
802504.923600
  0
VERTEX
  8
0
 10
385612.531000
 20
802505.924600
  0
VERTEX
  8
0
 10
385612.833400
 20
802506.925500
  0
VERTEX
  8
0
 10
385613.145500
 20
802507.926500
  0
VERTEX
  8
0
 10
385613.483700
 20
802508.927500
  0
VERTEX
  8
0
 10
385613.821900
 20
802509.928600
  0
VERTEX
  8
0
 10
385614.160100
 20
802510.929600
  0
VERTEX
  8
0
 10
385614.498300
 20
802511.930700
  0
VERTEX
  8
0
 10
385614.838500
 20
802512.931700
  0
VERTEX
  8
0
 10
385615.179100
 20
802513.932800
  0
VERTEX
  8
0
 10
385615.519600
 20
802514.933800
  0
VERTEX
  8
0
 10
385615.855600
 20
802515.934900
  0
VERTEX
  8
0
 10
385616.130000
 20
802516.935700
  0
VERTEX
  8
0
 10
385616.404300
 20
802517.936600
  0
VERTEX
  8
0
 10
385616.678700
 20
802518.937500
  0
VERTEX
  8
0
 10
385616.967600
 20
802519.938400
  0
VERTEX
  8
0
 10
385617.314300
 20
802520.939400
  0
VERTEX
  8
0
 10
385617.661000
 20
802521.940500
  0
VERTEX
  8
0
 10
385617.963300
 20
802522.941500
  0
VERTEX
  8
0
 10
385618.234100
 20
802523.942300
  0
VERTEX
  8
0
 10
385618.504900
 20
802524.943100
  0
VERTEX
  8
0
 10
385618.715600
 20
802525.943800
  0
VERTEX
  8
0
 10
385618.926000
 20
802526.944500
  0
VERTEX
  8
0
 10
385619.208400
 20
802527.945300
  0
VERTEX
  8
0
 10
385619.497000
 20
802528.946200
  0
VERTEX
  8
0
 10
385619.604000
 20
802529.946600
  0
VERTEX
  8
0
 10
385619.710900
 20
802530.946900
  0
VERTEX
  8
0
 10
385619.817900
 20
802531.947200
  0
VERTEX
  8
0
 10
385619.924800
 20
802532.947600
  0
VERTEX
  8
0
 10
385620.031800
 20
802533.947900
  0
VERTEX
  8
0
 10
385620.138700
 20
802534.948300
  0
VERTEX
  8
0
 10
385620.245600
 20
802535.948600
  0
VERTEX
  8
0
 10
385620.352600
 20
802536.948900
  0
VERTEX
  8
0
 10
385620.459500
 20
802537.949300
  0
VERTEX
  8
0
 10
385620.566500
 20
802538.949600
  0
VERTEX
  8
0
 10
385620.673400
 20
802539.949900
  0
VERTEX
  8
0
 10
385620.780400
 20
802540.950300
  0
VERTEX
  8
0
 10
385620.887300
 20
802541.950600
  0
VERTEX
  8
0
 10
385620.994300
 20
802542.950900
  0
VERTEX
  8
0
 10
385621.101200
 20
802543.951300
  0
VERTEX
  8
0
 10
385621.208200
 20
802544.951600
  0
VERTEX
  8
0
 10
385621.315100
 20
802545.951900
  0
VERTEX
  8
0
 10
385621.422100
 20
802546.952300
  0
VERTEX
  8
0
 10
385621.529000
 20
802547.952600
  0
VERTEX
  8
0
 10
385621.808600
 20
802550.567500
  0
VERTEX
  8
0
 10
385621.916900
 20
802551.580100
  0
VERTEX
  8
0
 10
385622.025100
 20
802552.592800
  0
VERTEX
  8
0
 10
385622.133400
 20
802553.605500
  0
VERTEX
  8
0
 10
385622.241700
 20
802554.618200
  0
VERTEX
  8
0
 10
385622.357900
 20
802555.631500
  0
VERTEX
  8
0
 10
385622.489500
 20
802556.646200
  0
VERTEX
  8
0
 10
385622.621100
 20
802557.660800
  0
VERTEX
  8
0
 10
385622.694200
 20
802558.670500
  0
VERTEX
  8
0
 10
385622.748200
 20
802559.678600
  0
VERTEX
  8
0
 10
385622.802200
 20
802560.686700
  0
VERTEX
  8
0
 10
385622.856300
 20
802561.694800
  0
VERTEX
  8
0
 10
385622.910300
 20
802562.702900
  0
VERTEX
  8
0
 10
385622.964300
 20
802563.711000
  0
VERTEX
  8
0
 10
385623.007700
 20
802564.718200
  0
VERTEX
  8
0
 10
385623.027300
 20
802565.723400
  0
VERTEX
  8
0
 10
385623.072400
 20
802568.044200
  0
VERTEX
  8
0
 10
385623.092100
 20
802569.058500
  0
VERTEX
  8
0
 10
385623.111800
 20
802570.072900
  0
VERTEX
  8
0
 10
385623.130800
 20
802571.087100
  0
VERTEX
  8
0
 10
385623.148900
 20
802572.101200
  0
VERTEX
  8
0
 10
385623.167000
 20
802573.115200
  0
VERTEX
  8
0
 10
385623.185100
 20
802574.129300
  0
VERTEX
  8
0
 10
385623.203200
 20
802575.143400
  0
VERTEX
  8
0
 10
385623.221300
 20
802576.157500
  0
VERTEX
  8
0
 10
385623.239500
 20
802577.171600
  0
VERTEX
  8
0
 10
385623.257600
 20
802578.185600
  0
VERTEX
  8
0
 10
385623.275700
 20
802579.199700
  0
VERTEX
  8
0
 10
385623.293800
 20
802580.213800
  0
VERTEX
  8
0
 10
385623.311900
 20
802581.227900
  0
VERTEX
  8
0
 10
385623.330000
 20
802582.242000
  0
VERTEX
  8
0
 10
385623.348100
 20
802583.256000
  0
VERTEX
  8
0
 10
385623.366200
 20
802584.270100
  0
VERTEX
  8
0
 10
385623.365300
 20
802585.281300
  0
VERTEX
  8
0
 10
385623.306900
 20
802586.283900
  0
VERTEX
  8
0
 10
385623.248600
 20
802587.286400
  0
VERTEX
  8
0
 10
385623.190200
 20
802588.288900
  0
VERTEX
  8
0
 10
385623.125300
 20
802589.405300
  0
VERTEX
  8
0
 10
385623.066700
 20
802590.410900
  0
VERTEX
  8
0
 10
385623.008200
 20
802591.416600
  0
VERTEX
  8
0
 10
385622.938400
 20
802592.420200
  0
VERTEX
  8
0
 10
385622.844600
 20
802593.419500
  0
VERTEX
  8
0
 10
385622.750900
 20
802594.418700
  0
VERTEX
  8
0
 10
385622.657100
 20
802595.418000
  0
VERTEX
  8
0
 10
385622.563300
 20
802596.417200
  0
VERTEX
  8
0
 10
385622.469500
 20
802597.416500
  0
VERTEX
  8
0
 10
385622.350100
 20
802598.411100
  0
VERTEX
  8
0
 10
385622.199900
 20
802599.400200
  0
VERTEX
  8
0
 10
385622.108800
 20
802600.000000
  0
SEQEND
  0
POLYLINE
  8
0
 62
1
  6
CONTINUOUS
 70
0
 66
1
 10
0.000000
 20
0.000000
  0
VERTEX
  8
0
 10
385600.000000
 20
802487.710300
  0
VERTEX
  8
0
 10
385600.987900
 20
802488.404000
  0
VERTEX
  8
0
 10
385601.985500
 20
802489.180300
  0
VERTEX
  8
0
 10
385602.982800
 20
802490.072100
  0
VERTEX
  8
0
 10
385603.979700
 20
802491.050300
  0
VERTEX
  8
0
 10
385604.974900
 20
802492.628400
  0
VERTEX
  8
0
 10
385605.970000
 20
802494.152400
  0
VERTEX
  8
0
 10
385606.795300
 20
802495.103300
  0
VERTEX
  8
0
 10
385606.966600
 20
802495.300600
  0
VERTEX
  8
0
 10
385607.962300
 20
802496.685500
  0
VERTEX
  8
0
 10
385608.957700
 20
802498.189300
  0
VERTEX
  8
0
 10
385609.954300
 20
802499.281300
  0
VERTEX
  8
0
 10
385610.419500
 20
802500.000000
  0
SEQEND
  0
POLYLINE
  8
0
 62
3
  6
CONTINUOUS
 70
0
 66
1
 10
0.000000
 20
0.000000
  0
VERTEX
  8
0
 10
385584.222700
 20
802500.000000
  0
VERTEX
  8
0
 10
385584.532700
 20
802499.880200
  0
VERTEX
  8
0
 10
385585.022400
 20
802499.691000
  0
VERTEX
  8
0
 10
385589.775700
 20
802497.854200
  0
VERTEX
  8
0
 10
385589.958700
 20
802497.812000
  0
VERTEX
  8
0
 10
385592.474400
 20
802497.233300
  0
VERTEX
  8
0
 10
385592.657600
 20
802497.191100
  0
VERTEX
  8
0
 10
385594.555000
 20
802496.754600
  0
VERTEX
  8
0
 10
385596.963800
 20
802496.200500
  0
VERTEX
  8
0
 10
385597.963900
 20
802496.142900
  0
VERTEX
  8
0
 10
385598.964100
 20
802496.094900
  0
VERTEX
  8
0
 10
385599.729700
 20
802496.065800
  0
VERTEX
  8
0
 10
385599.964200
 20
802496.056900
  0
VERTEX
  8
0
 10
385600.000000
 20
802496.062800
  0
SEQEND
  0
POLYLINE
  8
0
 62
3
  6
CONTINUOUS
 70
0
 66
1
 10
0.000000
 20
0.000000
  0
VERTEX
  8
0
 10
385600.000000
 20
802496.062800
  0
VERTEX
  8
0
 10
385600.721400
 20
802496.181600
  0
VERTEX
  8
0
 10
385600.963700
 20
802496.221500
  0
VERTEX
  8
0
 10
385601.684900
 20
802496.446200
  0
VERTEX
  8
0
 10
385601.962700
 20
802496.532800
  0
VERTEX
  8
0
 10
385602.604700
 20
802496.836000
  0
VERTEX
  8
0
 10
385602.961300
 20
802497.004400
  0
VERTEX
  8
0
 10
385603.474700
 20
802497.349600
  0
VERTEX
  8
0
 10
385603.959200
 20
802497.675300
  0
VERTEX
  8
0
 10
385604.074100
 20
802497.784100
  0
VERTEX
  8
0
 10
385604.294700
 20
802497.993200
  0
VERTEX
  8
0
 10
385604.956300
 20
802498.619900
  0
VERTEX
  8
0
 10
385605.062200
 20
802498.782100
  0
VERTEX
  8
0
 10
385605.719500
 20
802499.788500
  0
VERTEX
  8
0
 10
385605.857600
 20
802500.000000
  0
SEQEND
  0
POLYLINE
  8
0
 62
1
  6
CONTINUOUS
 70
0
 66
1
 10
0.000000
 20
0.000000
  0
VERTEX
  8
0
 10
385610.419500
 20
802500.000000
  0
VERTEX
  8
0
 10
385610.949500
 20
802500.818700
  0
VERTEX
  8
0
 10
385611.246700
 20
802501.707000
  0
SEQEND
  0
POLYLINE
  8
0
 62
3
  6
CONTINUOUS
 70
0
 66
1
 10
0.000000
 20
0.000000
  0
VERTEX
  8
0
 10
385613.025300
 20
802600.000000
  0
VERTEX
  8
0
 10
385612.914100
 20
802600.534300
  0
VERTEX
  8
0
 10
385611.943800
 20
802605.192300
  0
VERTEX
  8
0
 10
385609.904600
 20
802614.982200
  0
VERTEX
  8
0
 10
385607.865500
 20
802624.772100
  0
VERTEX
  8
0
 10
385607.175800
 20
802628.083200
  0
VERTEX
  8
0
 10
385606.782100
 20
802630.286400
  0
VERTEX
  8
0
 10
385606.739000
 20
802630.816400
  0
VERTEX
  8
0
 10
385606.557700
 20
802633.047000
  0
VERTEX
  8
0
 10
385606.427300
 20
802634.651700
  0
VERTEX
  8
0
 10
385605.617100
 20
802644.618900
  0
VERTEX
  8
0
 10
385605.128400
 20
802650.631700
  0
VERTEX
  8
0
 10
385604.994900
 20
802651.634200
  0
VERTEX
  8
0
 10
385604.520900
 20
802653.327100
  0
VERTEX
  8
0
 10
385604.248000
 20
802654.301600
  0
VERTEX
  8
0
 10
385604.197900
 20
802654.480700
  0
VERTEX
  8
0
 10
385604.186000
 20
802654.523300
  0
VERTEX
  8
0
 10
385603.850100
 20
802655.467000
  0
VERTEX
  8
0
 10
385603.188300
 20
802657.106500
  0
VERTEX
  8
0
 10
385602.813600
 20
802658.034700
  0
VERTEX
  8
0
 10
385601.300200
 20
802661.783600
  0
VERTEX
  8
0
 10
385600.936800
 20
802662.715300
  0
VERTEX
  8
0
 10
385600.538800
 20
802663.785900
  0
VERTEX
  8
0
 10
385600.320400
 20
802664.373600
  0
VERTEX
  8
0
 10
385600.000000
 20
802665.235500
  0
SEQEND
  0
POLYLINE
  8
0
 62
3
  6
CONTINUOUS
 70
0
 66
1
 10
0.000000
 20
0.000000
  0
VERTEX
  8
0
 10
385622.108800
 20
802600.000000
  0
VERTEX
  8
0
 10
385622.049700
 20
802600.389300
  0
VERTEX
  8
0
 10
385621.899500
 20
802601.378300
  0
VERTEX
  8
0
 10
385621.749300
 20
802602.367400
  0
VERTEX
  8
0
 10
385621.599200
 20
802603.356500
  0
VERTEX
  8
0
 10
385621.449000
 20
802604.345500
  0
VERTEX
  8
0
 10
385621.271200
 20
802605.516600
  0
VERTEX
  8
0
 10
385621.120800
 20
802606.506900
  0
VERTEX
  8
0
 10
385620.970400
 20
802607.497300
  0
VERTEX
  8
0
 10
385620.820000
 20
802608.487600
  0
VERTEX
  8
0
 10
385620.669600
 20
802609.478000
  0
VERTEX
  8
0
 10
385620.519300
 20
802610.468300
  0
VERTEX
  8
0
 10
385620.368900
 20
802611.458700
  0
VERTEX
  8
0
 10
385620.218500
 20
802612.449000
  0
VERTEX
  8
0
 10
385620.068100
 20
802613.439400
  0
VERTEX
  8
0
 10
385619.917800
 20
802614.429700
  0
VERTEX
  8
0
 10
385619.767400
 20
802615.420100
  0
VERTEX
  8
0
 10
385619.617000
 20
802616.410400
  0
VERTEX
  8
0
 10
385619.466600
 20
802617.400800
  0
VERTEX
  8
0
 10
385619.316200
 20
802618.391100
  0
VERTEX
  8
0
 10
385619.165900
 20
802619.381500
  0
VERTEX
  8
0
 10
385618.988600
 20
802620.366100
  0
VERTEX
  8
0
 10
385618.796600
 20
802621.347600
  0
VERTEX
  8
0
 10
385618.604500
 20
802622.329100
  0
VERTEX
  8
0
 10
385618.412500
 20
802623.310700
  0
VERTEX
  8
0
 10
385618.220500
 20
802624.292200
  0
VERTEX
  8
0
 10
385618.028400
 20
802625.273700
  0
VERTEX
  8
0
 10
385617.836400
 20
802626.255200
  0
VERTEX
  8
0
 10
385617.644300
 20
802627.236700
  0
VERTEX
  8
0
 10
385617.452300
 20
802628.218200
  0
VERTEX
  8
0
 10
385617.260200
 20
802629.199700
  0
VERTEX
  8
0
 10
385617.068200
 20
802630.181300
  0
VERTEX
  8
0
 10
385616.496000
 20
802633.105600
  0
VERTEX
  8
0
 10
385616.303200
 20
802634.090900
  0
VERTEX
  8
0
 10
385616.110400
 20
802635.076200
  0
VERTEX
  8
0
 10
385615.917600
 20
802636.061600
  0
VERTEX
  8
0
 10
385615.685400
 20
802637.035400
  0
VERTEX
  8
0
 10
385615.426100
 20
802638.001400
  0
VERTEX
  8
0
 10
385615.166700
 20
802638.967400
  0
VERTEX
  8
0
 10
385614.907400
 20
802639.933400
  0
VERTEX
  8
0
 10
385614.648000
 20
802640.899400
  0
VERTEX
  8
0
 10
385614.388700
 20
802641.865400
  0
VERTEX
  8
0
 10
385614.129300
 20
802642.831400
  0
VERTEX
  8
0
 10
385613.870000
 20
802643.797400
  0
VERTEX
  8
0
 10
385613.610700
 20
802644.763400
  0
VERTEX
  8
0
 10
385613.351300
 20
802645.729400
  0
VERTEX
  8
0
 10
385613.092000
 20
802646.695400
  0
VERTEX
  8
0
 10
385612.832600
 20
802647.661400
  0
VERTEX
  8
0
 10
385612.573300
 20
802648.627400
  0
VERTEX
  8
0
 10
385612.313900
 20
802649.593400
  0
VERTEX
  8
0
 10
385612.054600
 20
802650.559400
  0
VERTEX
  8
0
 10
385611.795200
 20
802651.525400
  0
VERTEX
  8
0
 10
385611.534900
 20
802652.491100
  0
VERTEX
  8
0
 10
385611.265200
 20
802653.454100
  0
VERTEX
  8
0
 10
385610.995600
 20
802654.417100
  0
VERTEX
  8
0
 10
385610.725900
 20
802655.380100
  0
VERTEX
  8
0
 10
385610.455700
 20
802656.342900
  0
VERTEX
  8
0
 10
385610.184500
 20
802657.305500
  0
VERTEX
  8
0
 10
385609.273600
 20
802660.537900
  0
VERTEX
  8
0
 10
385609.001300
 20
802661.504200
  0
VERTEX
  8
0
 10
385608.729000
 20
802662.470500
  0
VERTEX
  8
0
 10
385608.456600
 20
802663.436800
  0
VERTEX
  8
0
 10
385608.184300
 20
802664.403200
  0
VERTEX
  8
0
 10
385607.912000
 20
802665.369500
  0
VERTEX
  8
0
 10
385607.635600
 20
802666.334300
  0
VERTEX
  8
0
 10
385607.358300
 20
802667.298700
  0
VERTEX
  8
0
 10
385607.081000
 20
802668.263200
  0
VERTEX
  8
0
 10
385606.803800
 20
802669.227600
  0
VERTEX
  8
0
 10
385606.522000
 20
802670.190300
  0
VERTEX
  8
0
 10
385606.234300
 20
802671.150800
  0
VERTEX
  8
0
 10
385605.946500
 20
802672.111300
  0
VERTEX
  8
0
 10
385605.660500
 20
802673.072400
  0
VERTEX
  8
0
 10
385605.375800
 20
802674.034000
  0
VERTEX
  8
0
 10
385605.091100
 20
802674.995600
  0
VERTEX
  8
0
 10
385604.704000
 20
802676.303700
  0
VERTEX
  8
0
 10
385604.418500
 20
802677.268100
  0
VERTEX
  8
0
 10
385604.133000
 20
802678.232600
  0
VERTEX
  8
0
 10
385603.847500
 20
802679.197000
  0
VERTEX
  8
0
 10
385603.562000
 20
802680.161500
  0
VERTEX
  8
0
 10
385603.276500
 20
802681.125900
  0
VERTEX
  8
0
 10
385602.991000
 20
802682.090400
  0
VERTEX
  8
0
 10
385602.705600
 20
802683.054900
  0
VERTEX
  8
0
 10
385602.420100
 20
802684.019300
  0
VERTEX
  8
0
 10
385602.134600
 20
802684.983800
  0
VERTEX
  8
0
 10
385601.849100
 20
802685.948200
  0
VERTEX
  8
0
 10
385602.893900
 20
802682.418700
  0
VERTEX
  8
0
 10
385602.609900
 20
802683.377800
  0
VERTEX
  8
0
 10
385602.326000
 20
802684.337000
  0
VERTEX
  8
0
 10
385602.042100
 20
802685.296100
  0
VERTEX
  8
0
 10
385601.758200
 20
802686.255300
  0
VERTEX
  8
0
 10
385601.474300
 20
802687.214400
  0
VERTEX
  8
0
 10
385603.386500
 20
802680.754300
  0
VERTEX
  8
0
 10
385603.100300
 20
802681.721300
  0
VERTEX
  8
0
 10
385602.814000
 20
802682.688300
  0
VERTEX
  8
0
 10
385602.527800
 20
802683.655300
  0
VERTEX
  8
0
 10
385602.241600
 20
802684.622300
  0
VERTEX
  8
0
 10
385601.955300
 20
802685.589300
  0
VERTEX
  8
0
 10
385604.619600
 20
802676.588800
  0
VERTEX
  8
0
 10
385604.319000
 20
802677.604100
  0
VERTEX
  8
0
 10
385604.018500
 20
802678.619500
  0
VERTEX
  8
0
 10
385603.717900
 20
802679.634800
  0
VERTEX
  8
0
 10
385603.417400
 20
802680.650200
  0
VERTEX
  8
0
 10
385603.116800
 20
802681.665500
  0
VERTEX
  8
0
 10
385603.973800
 20
802678.770400
  0
VERTEX
  8
0
 10
385603.665800
 20
802679.810800
  0
VERTEX
  8
0
 10
385603.357800
 20
802680.851200
  0
VERTEX
  8
0
 10
385603.049900
 20
802681.891600
  0
VERTEX
  8
0
 10
385602.741900
 20
802682.932100
  0
VERTEX
  8
0
 10
385602.433900
 20
802683.972500
  0
VERTEX
  8
0
 10
385602.993000
 20
802682.083900
  0
VERTEX
  8
0
 10
385602.679200
 20
802683.143800
  0
VERTEX
  8
0
 10
385602.365500
 20
802684.203700
  0
VERTEX
  8
0
 10
385602.051700
 20
802685.263600
  0
VERTEX
  8
0
 10
385601.738000
 20
802686.323500
  0
VERTEX
  8
0
 10
385601.424300
 20
802687.383400
  0
VERTEX
  8
0
 10
385600.759200
 20
802689.676100
  0
VERTEX
  8
0
 10
385600.466900
 20
802690.709900
  0
VERTEX
  8
0
 10
385600.174600
 20
802691.743700
  0
VERTEX
  8
0
 10
385600.000000
 20
802692.361300
  0
SEQEND
  0
POLYLINE
  8
0
 62
3
  6
CONTINUOUS
 70
0
 66
1
 10
0.000000
 20
0.000000
  0
VERTEX
  8
0
 10
385590.533600
 20
802700.000000
  0
VERTEX
  8
0
 10
385590.319500
 20
802700.653200
  0
VERTEX
  8
0
 10
385590.192200
 20
802701.041700
  0
VERTEX
  8
0
 10
385589.764200
 20
802702.050500
  0
VERTEX
  8
0
 10
385589.250600
 20
802703.061100
  0
VERTEX
  8
0
 10
385588.992000
 20
802703.534800
  0
VERTEX
  8
0
 10
385588.466900
 20
802704.496800
  0
VERTEX
  8
0
 10
385587.923500
 20
802705.492200
  0
VERTEX
  8
0
 10
385587.424300
 20
802706.406800
  0
VERTEX
  8
0
 10
385585.750900
 20
802709.472500
  0
VERTEX
  8
0
 10
385585.278500
 20
802710.388100
  0
VERTEX
  8
0
 10
385584.769700
 20
802711.294900
  0
VERTEX
  8
0
 10
385584.507000
 20
802711.746400
  0
VERTEX
  8
0
 10
385584.408900
 20
802711.893600
  0
VERTEX
  8
0
 10
385583.838000
 20
802712.750900
  0
VERTEX
  8
0
 10
385583.261600
 20
802713.616600
  0
VERTEX
  8
0
 10
385582.971800
 20
802714.051900
  0
VERTEX
  8
0
 10
385582.337100
 20
802715.004900
  0
VERTEX
  8
0
 10
385582.165400
 20
802715.262900
  0
VERTEX
  8
0
 10
385581.877500
 20
802715.683600
  0
VERTEX
  8
0
 10
385581.295000
 20
802716.522300
  0
VERTEX
  8
0
 10
385580.821700
 20
802717.407600
  0
VERTEX
  8
0
 10
385580.758200
 20
802717.633100
  0
VERTEX
  8
0
 10
385580.620000
 20
802718.124000
  0
VERTEX
  8
0
 10
385580.548400
 20
802718.378200
  0
VERTEX
  8
0
 10
385580.401100
 20
802719.120700
  0
VERTEX
  8
0
 10
385580.349600
 20
802719.380600
  0
VERTEX
  8
0
 10
385580.260600
 20
802720.114300
  0
VERTEX
  8
0
 10
385580.224200
 20
802720.414400
  0
VERTEX
  8
0
 10
385580.160200
 20
802721.117200
  0
VERTEX
  8
0
 10
385580.128900
 20
802721.461000
  0
VERTEX
  8
0
 10
385580.155700
 20
802722.137200
  0
VERTEX
  8
0
 10
385580.191300
 20
802723.035200
  0
VERTEX
  8
0
 10
385580.206400
 20
802723.177700
  0
VERTEX
  8
0
 10
385580.316800
 20
802724.222900
  0
VERTEX
  8
0
 10
385580.344400
 20
802724.484400
  0
VERTEX
  8
0
 10
385580.394300
 20
802724.956700
  0
VERTEX
  8
0
 10
385580.513800
 20
802725.785200
  0
VERTEX
  8
0
 10
385580.610500
 20
802726.456000
  0
VERTEX
  8
0
 10
385580.787800
 20
802727.455400
  0
VERTEX
  8
0
 10
385580.836900
 20
802727.689600
  0
VERTEX
  8
0
 10
385581.148100
 20
802729.172300
  0
VERTEX
  8
0
 10
385581.207200
 20
802729.454000
  0
VERTEX
  8
0
 10
385581.326800
 20
802729.953600
  0
VERTEX
  8
0
 10
385581.378600
 20
802730.160700
  0
VERTEX
  8
0
 10
385581.822000
 20
802731.934900
  0
VERTEX
  8
0
 10
385581.883600
 20
802732.139000
  0
VERTEX
  8
0
 10
385582.032100
 20
802732.631100
  0
VERTEX
  8
0
 10
385582.125100
 20
802732.939400
  0
VERTEX
  8
0
 10
385582.460200
 20
802733.944400
  0
VERTEX
  8
0
 10
385582.568700
 20
802734.211800
  0
VERTEX
  8
0
 10
385582.708700
 20
802734.556500
  0
VERTEX
  8
0
 10
385582.868700
 20
802734.950500
  0
VERTEX
  8
0
 10
385583.096600
 20
802735.532100
  0
VERTEX
  8
0
 10
385583.262900
 20
802735.956300
  0
VERTEX
  8
0
 10
385583.474200
 20
802736.521500
  0
VERTEX
  8
0
 10
385583.638800
 20
802736.961900
  0
VERTEX
  8
0
 10
385583.852400
 20
802737.539500
  0
VERTEX
  8
0
 10
385584.010700
 20
802737.967400
  0
VERTEX
  8
0
 10
385584.150100
 20
802738.575400
  0
VERTEX
  8
0
 10
385584.390100
 20
802739.622200
  0
VERTEX
  8
0
 10
385584.629700
 20
802740.667100
  0
VERTEX
  8
0
 10
385584.823600
 20
802741.512800
  0
VERTEX
  8
0
 10
385584.806300
 20
802742.519100
  0
VERTEX
  8
0
 10
385584.757500
 20
802743.521300
  0
VERTEX
  8
0
 10
385584.712000
 20
802743.847700
  0
VERTEX
  8
0
 10
385584.652800
 20
802744.273600
  0
VERTEX
  8
0
 10
385584.619600
 20
802744.511800
  0
VERTEX
  8
0
 10
385584.501500
 20
802745.269100
  0
VERTEX
  8
0
 10
385584.465500
 20
802745.500100
  0
VERTEX
  8
0
 10
385584.294400
 20
802746.250100
  0
VERTEX
  8
0
 10
385584.242100
 20
802746.479400
  0
VERTEX
  8
0
 10
385583.953100
 20
802747.187500
  0
VERTEX
  8
0
 10
385583.575300
 20
802748.113400
  0
VERTEX
  8
0
 10
385583.195600
 20
802749.043900
  0
VERTEX
  8
0
 10
385582.762800
 20
802750.104400
  0
VERTEX
  8
0
 10
385582.382500
 20
802751.038200
  0
VERTEX
  8
0
 10
385581.752900
 20
802752.683100
  0
VERTEX
  8
0
 10
385581.524100
 20
802753.280800
  0
VERTEX
  8
0
 10
385581.392500
 20
802753.624500
  0
VERTEX
  8
0
 10
385579.506300
 20
802758.552500
  0
VERTEX
  8
0
 10
385579.219900
 20
802759.511200
  0
VERTEX
  8
0
 10
385578.832500
 20
802761.237100
  0
VERTEX
  8
0
 10
385578.613200
 20
802762.213700
  0
VERTEX
  8
0
 10
385578.485000
 20
802762.784500
  0
VERTEX
  8
0
 10
385578.343100
 20
802763.416800
  0
VERTEX
  8
0
 10
385578.126700
 20
802764.394000
  0
VERTEX
  8
0
 10
385577.745800
 20
802766.120600
  0
VERTEX
  8
0
 10
385577.530100
 20
802767.098100
  0
VERTEX
  8
0
 10
385577.264200
 20
802768.303400
  0
VERTEX
  8
0
 10
385577.097500
 20
802769.293700
  0
VERTEX
  8
0
 10
385576.864600
 20
802771.043700
  0
VERTEX
  8
0
 10
385576.732100
 20
802772.039000
  0
VERTEX
  8
0
 10
385576.656400
 20
802772.607900
  0
VERTEX
  8
0
 10
385576.499300
 20
802773.787800
  0
VERTEX
  8
0
 10
385576.321700
 20
802776.219500
  0
VERTEX
  8
0
 10
385576.308600
 20
802776.550800
  0
VERTEX
  8
0
 10
385576.282000
 20
802777.219900
  0
VERTEX
  8
0
 10
385576.538900
 20
802778.969500
  0
VERTEX
  8
0
 10
385576.684300
 20
802779.959900
  0
VERTEX
  8
0
 10
385577.062200
 20
802782.533300
  0
VERTEX
  8
0
 10
385578.515000
 20
802792.427200
  0
VERTEX
  8
0
 10
385579.071200
 20
802796.215100
  0
SEQEND
  0
POLYLINE
  8
0
 62
5
  6
CONTINUOUS
 70
0
 66
1
 10
0.000000
 20
0.000000
  0
VERTEX
  8
0
 10
385523.655700
 20
802800.000000
  0
VERTEX
  8
0
 10
385524.268700
 20
802796.390500
  0
VERTEX
  8
0
 10
385524.448800
 20
802795.329800
  0
VERTEX
  8
0
 10
385524.628900
 20
802794.269200
  0
VERTEX
  8
0
 10
385524.809000
 20
802793.208600
  0
VERTEX
  8
0
 10
385524.989100
 20
802792.147900
  0
VERTEX
  8
0
 10
385525.169200
 20
802791.087300
  0
VERTEX
  8
0
 10
385525.398300
 20
802790.016300
  0
VERTEX
  8
0
 10
385525.727300
 20
802788.924000
  0
VERTEX
  8
0
 10
385526.056400
 20
802787.831700
  0
VERTEX
  8
0
 10
385526.385400
 20
802786.739400
  0
VERTEX
  8
0
 10
385526.817000
 20
802785.306800
  0
VERTEX
  8
0
 10
385527.133200
 20
802784.257100
  0
VERTEX
  8
0
 10
385527.449400
 20
802783.207400
  0
VERTEX
  8
0
 10
385527.765600
 20
802782.157700
  0
VERTEX
  8
0
 10
385528.081900
 20
802781.108100
  0
VERTEX
  8
0
 10
385528.556700
 20
802780.037700
  0
VERTEX
  8
0
 10
385530.022700
 20
802777.111500
  0
VERTEX
  8
0
 10
385530.504200
 20
802776.150500
  0
VERTEX
  8
0
 10
385530.985700
 20
802775.189500
  0
VERTEX
  8
0
 10
385531.467200
 20
802774.228400
  0
VERTEX
  8
0
 10
385531.948700
 20
802773.267400
  0
VERTEX
  8
0
 10
385532.430200
 20
802772.306300
  0
VERTEX
  8
0
 10
385533.462900
 20
802770.356600
  0
VERTEX
  8
0
 10
385533.946200
 20
802769.458600
  0
VERTEX
  8
0
 10
385534.429500
 20
802768.560500
  0
VERTEX
  8
0
 10
385534.912900
 20
802767.662400
  0
VERTEX
  8
0
 10
385535.396200
 20
802766.764300
  0
VERTEX
  8
0
 10
385535.637800
 20
802766.315300
  0
VERTEX
  8
0
 10
385536.965900
 20
802763.847500
  0
VERTEX
  8
0
 10
385537.204500
 20
802763.404200
  0
VERTEX
  8
0
 10
385537.571800
 20
802762.440700
  0
VERTEX
  8
0
 10
385537.867500
 20
802761.427000
  0
VERTEX
  8
0
 10
385538.163200
 20
802760.413300
  0
VERTEX
  8
0
 10
385538.425900
 20
802759.376600
  0
VERTEX
  8
0
 10
385538.266700
 20
802760.058400
  0
VERTEX
  8
0
 10
385538.496900
 20
802759.028300
  0
VERTEX
  8
0
 10
385538.709100
 20
802757.987300
  0
VERTEX
  8
0
 10
385538.921400
 20
802756.946300
  0
VERTEX
  8
0
 10
385539.133700
 20
802755.905200
  0
VERTEX
  8
0
 10
385538.486700
 20
802759.078100
  0
VERTEX
  8
0
 10
385538.686800
 20
802758.096700
  0
VERTEX
  8
0
 10
385538.887000
 20
802757.115200
  0
VERTEX
  8
0
 10
385539.087100
 20
802756.133700
  0
VERTEX
  8
0
 10
385539.287200
 20
802755.152300
  0
VERTEX
  8
0
 10
385539.487300
 20
802754.170800
  0
VERTEX
  8
0
 10
385539.687400
 20
802753.189400
  0
VERTEX
  8
0
 10
385539.887500
 20
802752.207900
  0
VERTEX
  8
0
 10
385540.087600
 20
802751.226400
  0
VERTEX
  8
0
 10
385540.287700
 20
802750.245000
  0
VERTEX
  8
0
 10
385540.396000
 20
802749.239200
  0
VERTEX
  8
0
 10
385540.478500
 20
802748.226600
  0
VERTEX
  8
0
 10
385540.561000
 20
802747.214000
  0
VERTEX
  8
0
 10
385540.643500
 20
802746.201500
  0
VERTEX
  8
0
 10
385540.726000
 20
802745.188900
  0
VERTEX
  8
0
 10
385540.808600
 20
802744.176300
  0
VERTEX
  8
0
 10
385540.891100
 20
802743.163700
  0
VERTEX
  8
0
 10
385540.973600
 20
802742.151200
  0
VERTEX
  8
0
 10
385541.056100
 20
802741.138600
  0
VERTEX
  8
0
 10
385541.138600
 20
802740.126000
  0
VERTEX
  8
0
 10
385541.043200
 20
802739.066300
  0
VERTEX
  8
0
 10
385541.013100
 20
802738.767900
  0
VERTEX
  8
0
 10
385540.910000
 20
802737.745700
  0
VERTEX
  8
0
 10
385540.806900
 20
802736.723500
  0
VERTEX
  8
0
 10
385540.703800
 20
802735.701200
  0
VERTEX
  8
0
 10
385540.869000
 20
802737.339100
  0
VERTEX
  8
0
 10
385540.768000
 20
802736.337600
  0
VERTEX
  8
0
 10
385540.666900
 20
802735.336000
  0
VERTEX
  8
0
 10
385540.565900
 20
802734.334400
  0
VERTEX
  8
0
 10
385540.464900
 20
802733.332800
  0
VERTEX
  8
0
 10
385540.363900
 20
802732.331200
  0
VERTEX
  8
0
 10
385540.262900
 20
802731.329700
  0
VERTEX
  8
0
 10
385540.161800
 20
802730.328100
  0
VERTEX
  8
0
 10
385540.123700
 20
802729.827500
  0
VERTEX
  8
0
 10
385540.138800
 20
802730.088900
  0
VERTEX
  8
0
 10
385540.109900
 20
802729.589000
  0
VERTEX
  8
0
 10
385540.052000
 20
802728.589200
  0
VERTEX
  8
0
 10
385539.994100
 20
802727.589300
  0
VERTEX
  8
0
 10
385539.936200
 20
802726.589500
  0
VERTEX
  8
0
 10
385539.878400
 20
802725.589700
  0
VERTEX
  8
0
 10
385539.849400
 20
802725.089800
  0
VERTEX
  8
0
 10
385539.743100
 20
802723.252500
  0
VERTEX
  8
0
 10
385539.713700
 20
802722.745500
  0
VERTEX
  8
0
 10
385539.655100
 20
802721.731400
  0
VERTEX
  8
0
 10
385539.596400
 20
802720.717400
  0
VERTEX
  8
0
 10
385539.579100
 20
802719.708300
  0
VERTEX
  8
0
 10
385539.618900
 20
802718.705900
  0
VERTEX
  8
0
 10
385539.638800
 20
802718.204800
  0
VERTEX
  8
0
 10
385539.753100
 20
802715.765100
  0
VERTEX
  8
0
 10
385539.886100
 20
802715.283100
  0
VERTEX
  8
0
 10
385540.152100
 20
802714.319100
  0
VERTEX
  8
0
 10
385540.418000
 20
802713.355100
  0
VERTEX
  8
0
 10
385540.684000
 20
802712.391100
  0
VERTEX
  8
0
 10
385540.950000
 20
802711.427200
  0
VERTEX
  8
0
 10
385541.083000
 20
802710.945200
  0
VERTEX
  8
0
 10
385541.662300
 20
802708.846000
  0
VERTEX
  8
0
 10
385541.796500
 20
802708.359600
  0
VERTEX
  8
0
 10
385542.064900
 20
802707.386900
  0
VERTEX
  8
0
 10
385542.333300
 20
802706.414200
  0
VERTEX
  8
0
 10
385542.607700
 20
802705.444000
  0
VERTEX
  8
0
 10
385542.908600
 20
802704.485200
  0
VERTEX
  8
0
 10
385543.209500
 20
802703.526300
  0
VERTEX
  8
0
 10
385543.510400
 20
802702.567500
  0
VERTEX
  8
0
 10
385543.811400
 20
802701.608600
  0
VERTEX
  8
0
 10
385544.112300
 20
802700.649800
  0
VERTEX
  8
0
 10
385544.182700
 20
802700.000000
  0
SEQEND
  0
POLYLINE
  8
0
 62
3
  6
CONTINUOUS
 70
0
 66
1
 10
0.000000
 20
0.000000
  0
VERTEX
  8
0
 10
385523.355700
 20
802800.000000
  0
VERTEX
  8
0
 10
385520.956400
 20
802798.116900
  0
VERTEX
  8
0
 10
385520.013200
 20
802797.295000
  0
VERTEX
  8
0
 10
385519.104300
 20
802796.466100
  0
VERTEX
  8
0
 10
385518.802100
 20
802796.187500
  0
VERTEX
  8
0
 10
385515.499400
 20
802793.142800
  0
VERTEX
  8
0
 10
385514.675100
 20
802792.295800
  0
VERTEX
  8
0
 10
385512.404500
 20
802789.711500
  0
VERTEX
  8
0
 10
385511.838700
 20
802789.029700
  0
VERTEX
  8
0
 10
385510.513100
 20
802787.432200
  0
VERTEX
  8
0
 10
385508.383900
 20
802784.684500
  0
VERTEX
  8
0
 10
385507.806200
 20
802783.751200
  0
VERTEX
  8
0
 10
385507.331000
 20
802782.804700
  0
VERTEX
  8
0
 10
385507.309400
 20
802780.513500
  0
VERTEX
  8
0
 10
385507.258400
 20
802775.082000
  0
VERTEX
  8
0
 10
385508.032700
 20
802774.147100
  0
VERTEX
  8
0
 10
385509.013200
 20
802773.230500
  0
VERTEX
  8
0
 10
385510.089800
 20
802772.322900
  0
VERTEX
  8
0
 10
385510.545800
 20
802771.926800
  0
VERTEX
  8
0
 10
385511.138400
 20
802771.412000
  0
VERTEX
  8
0
 10
385512.491100
 20
802770.528700
  0
VERTEX
  8
0
 10
385518.955400
 20
802766.533100
  0
VERTEX
  8
0
 10
385519.605200
 20
802766.131400
  0
VERTEX
  8
0
 10
385520.766500
 20
802765.439900
  0
VERTEX
  8
0
 10
385521.829500
 20
802764.718800
  0
VERTEX
  8
0
 10
385522.794400
 20
802763.967500
  0
VERTEX
  8
0
 10
385523.674100
 20
802763.190100
  0
VERTEX
  8
0
 10
385524.082400
 20
802762.792300
  0
VERTEX
  8
0
 10
385526.159500
 20
802759.811600
  0
VERTEX
  8
0
 10
385527.811700
 20
802757.440500
  0
VERTEX
  8
0
 10
385528.339800
 20
802756.393500
  0
VERTEX
  8
0
 10
385528.776900
 20
802755.474800
  0
VERTEX
  8
0
 10
385528.919400
 20
802755.164100
  0
VERTEX
  8
0
 10
385529.290600
 20
802754.203300
  0
VERTEX
  8
0
 10
385529.618300
 20
802753.212100
  0
VERTEX
  8
0
 10
385529.780800
 20
802752.637500
  0
VERTEX
  8
0
 10
385530.004700
 20
802751.661900
  0
VERTEX
  8
0
 10
385530.165600
 20
802750.770200
  0
VERTEX
  8
0
 10
385530.182800
 20
802750.674800
  0
VERTEX
  8
0
 10
385530.308400
 20
802749.673600
  0
VERTEX
  8
0
 10
385530.380200
 20
802748.658100
  0
VERTEX
  8
0
 10
385530.409400
 20
802747.631600
  0
VERTEX
  8
0
 10
385530.394100
 20
802746.592900
  0
VERTEX
  8
0
 10
385530.324800
 20
802745.540200
  0
VERTEX
  8
0
 10
385530.129300
 20
802743.419900
  0
VERTEX
  8
0
 10
385530.015200
 20
802742.355000
  0
VERTEX
  8
0
 10
385529.857400
 20
802741.278900
  0
VERTEX
  8
0
 10
385529.765000
 20
802740.820800
  0
VERTEX
  8
0
 10
385529.637000
 20
802740.186600
  0
VERTEX
  8
0
 10
385529.282100
 20
802739.086400
  0
VERTEX
  8
0
 10
385528.915200
 20
802737.949100
  0
VERTEX
  8
0
 10
385528.654200
 20
802737.140000
  0
VERTEX
  8
0
 10
385528.502600
 20
802736.782800
  0
VERTEX
  8
0
 10
385528.445300
 20
802736.649800
  0
VERTEX
  8
0
 10
385528.008500
 20
802735.635900
  0
VERTEX
  8
0
 10
385527.999700
 20
802735.615300
  0
VERTEX
  8
0
 10
385527.709800
 20
802734.998300
  0
VERTEX
  8
0
 10
385527.522200
 20
802734.612600
  0
VERTEX
  8
0
 10
385527.352500
 20
802734.263700
  0
VERTEX
  8
0
 10
385527.185700
 20
802733.920600
  0
VERTEX
  8
0
 10
385526.779400
 20
802733.133500
  0
VERTEX
  8
0
 10
385526.777600
 20
802733.130300
  0
VERTEX
  8
0
 10
385526.448500
 20
802732.532900
  0
VERTEX
  8
0
 10
385526.224000
 20
802732.125300
  0
VERTEX
  8
0
 10
385525.937500
 20
802731.626000
  0
VERTEX
  8
0
 10
385525.859300
 20
802731.489800
  0
VERTEX
  8
0
 10
385525.645200
 20
802731.116800
  0
VERTEX
  8
0
 10
385525.414100
 20
802730.723800
  0
VERTEX
  8
0
 10
385524.830500
 20
802729.731700
  0
VERTEX
  8
0
 10
385524.240900
 20
802728.729300
  0
VERTEX
  8
0
 10
385523.602000
 20
802727.643200
  0
VERTEX
  8
0
 10
385523.015300
 20
802726.645100
  0
VERTEX
  8
0
 10
385522.198600
 20
802725.255100
  0
VERTEX
  8
0
 10
385522.135700
 20
802725.148000
  0
VERTEX
  8
0
 10
385522.058400
 20
802724.118100
  0
VERTEX
  8
0
 10
385521.949400
 20
802722.666200
  0
VERTEX
  8
0
 10
385521.928400
 20
802722.386000
  0
VERTEX
  8
0
 10
385521.833300
 20
802721.119200
  0
VERTEX
  8
0
 10
385521.857100
 20
802719.611400
  0
VERTEX
  8
0
 10
385522.055900
 20
802718.628000
  0
VERTEX
  8
0
 10
385522.115700
 20
802718.376700
  0
VERTEX
  8
0
 10
385522.289100
 20
802717.648700
  0
VERTEX
  8
0
 10
385522.451000
 20
802716.906500
  0
VERTEX
  8
0
 10
385522.503200
 20
802716.667200
  0
VERTEX
  8
0
 10
385522.591200
 20
802716.174100
  0
VERTEX
  8
0
 10
385522.675800
 20
802715.931200
  0
VERTEX
  8
0
 10
385523.006900
 20
802714.980200
  0
VERTEX
  8
0
 10
385523.337100
 20
802714.032000
  0
VERTEX
  8
0
 10
385523.501800
 20
802713.558900
  0
VERTEX
  8
0
 10
385523.717500
 20
802712.939400
  0
VERTEX
  8
0
 10
385524.228000
 20
802711.473400
  0
VERTEX
  8
0
 10
385524.387600
 20
802710.998800
  0
VERTEX
  8
0
 10
385524.735300
 20
802710.057400
  0
VERTEX
  8
0
 10
385525.100800
 20
802709.120900
  0
VERTEX
  8
0
 10
385525.196300
 20
802708.879000
  0
VERTEX
  8
0
 10
385525.380200
 20
802708.412900
  0
VERTEX
  8
0
 10
385525.470000
 20
802708.185400
  0
VERTEX
  8
0
 10
385525.751000
 20
802707.481000
  0
VERTEX
  8
0
 10
385525.842700
 20
802707.251000
  0
VERTEX
  8
0
 10
385526.030100
 20
802706.784000
  0
VERTEX
  8
0
 10
385526.124500
 20
802706.547900
  0
VERTEX
  8
0
 10
385526.497600
 20
802705.613700
  0
VERTEX
  8
0
 10
385526.870800
 20
802704.679500
  0
VERTEX
  8
0
 10
385527.057400
 20
802704.212400
  0
VERTEX
  8
0
 10
385527.300000
 20
802703.605000
  0
VERTEX
  8
0
 10
385527.603700
 20
802702.844700
  0
VERTEX
  8
0
 10
385527.782200
 20
802702.377300
  0
VERTEX
  8
0
 10
385528.133300
 20
802701.439800
  0
VERTEX
  8
0
 10
385528.474300
 20
802700.498100
  0
VERTEX
  8
0
 10
385528.561900
 20
802700.246600
  0
VERTEX
  8
0
 10
385528.647800
 20
802700.000000
  0
SEQEND
  0
POLYLINE
  8
0
 62
3
  6
CONTINUOUS
 70
0
 66
1
 10
0.000000
 20
0.000000
  0
VERTEX
  8
0
 10
385500.000000
 20
802769.759100
  0
VERTEX
  8
0
 10
385500.240900
 20
802769.436500
  0
VERTEX
  8
0
 10
385508.031200
 20
802762.602300
  0
VERTEX
  8
0
 10
385509.089100
 20
802761.879400
  0
VERTEX
  8
0
 10
385510.199300
 20
802761.172400
  0
VERTEX
  8
0
 10
385511.238300
 20
802760.443800
  0
VERTEX
  8
0
 10
385512.431000
 20
802759.762000
  0
VERTEX
  8
0
 10
385513.098700
 20
802759.442900
  0
VERTEX
  8
0
 10
385520.324900
 20
802752.200200
  0
VERTEX
  8
0
 10
385520.488300
 20
802751.704300
  0
VERTEX
  8
0
 10
385520.799200
 20
802750.701300
  0
VERTEX
  8
0
 10
385520.955900
 20
802749.590400
  0
VERTEX
  8
0
 10
385521.021600
 20
802748.415800
  0
VERTEX
  8
0
 10
385521.024900
 20
802748.251700
  0
VERTEX
  8
0
 10
385521.014300
 20
802747.214500
  0
VERTEX
  8
0
 10
385520.951500
 20
802746.163400
  0
VERTEX
  8
0
 10
385520.841000
 20
802744.065400
  0
VERTEX
  8
0
 10
385520.620900
 20
802742.972700
  0
VERTEX
  8
0
 10
385520.386200
 20
802741.876200
  0
VERTEX
  8
0
 10
385519.921200
 20
802740.718800
  0
VERTEX
  8
0
 10
385519.434600
 20
802739.555600
  0
VERTEX
  8
0
 10
385518.900000
 20
802738.379800
  0
VERTEX
  8
0
 10
385518.406200
 20
802737.214700
  0
VERTEX
  8
0
 10
385517.922700
 20
802736.052400
  0
VERTEX
  8
0
 10
385517.377300
 20
802734.996800
  0
VERTEX
  8
0
 10
385515.597200
 20
802731.970600
  0
VERTEX
  8
0
 10
385515.058900
 20
802730.962600
  0
VERTEX
  8
0
 10
385514.463800
 20
802729.673200
  0
VERTEX
  8
0
 10
385514.085200
 20
802728.674400
  0
VERTEX
  8
0
 10
385513.102300
 20
802725.177600
  0
VERTEX
  8
0
 10
385512.160500
 20
802719.967000
  0
VERTEX
  8
0
 10
385512.237300
 20
802717.458400
  0
VERTEX
  8
0
 10
385512.293000
 20
802716.458000
  0
VERTEX
  8
0
 10
385512.642800
 20
802714.989100
  0
VERTEX
  8
0
 10
385514.537000
 20
802708.794500
  0
VERTEX
  8
0
 10
385514.733900
 20
802708.330100
  0
VERTEX
  8
0
 10
385515.048300
 20
802707.379500
  0
VERTEX
  8
0
 10
385515.415400
 20
802706.443500
  0
VERTEX
  8
0
 10
385516.147100
 20
802704.570800
  0
VERTEX
  8
0
 10
385516.332100
 20
802704.103200
  0
VERTEX
  8
0
 10
385517.961400
 20
802700.000000
  0
SEQEND
  0
POLYLINE
  8
0
 62
1
  6
CONTINUOUS
 70
0
 66
1
 10
0.000000
 20
0.000000
  0
VERTEX
  8
0
 10
385547.676100
 20
802800.000000
  0
VERTEX
  8
0
 10
385547.524400
 20
802799.567400
  0
VERTEX
  8
0
 10
385547.193400
 20
802798.623700
  0
VERTEX
  8
0
 10
385546.862500
 20
802797.680100
  0
VERTEX
  8
0
 10
385546.531500
 20
802796.736400
  0
VERTEX
  8
0
 10
385546.200600
 20
802795.792800
  0
VERTEX
  8
0
 10
385545.869600
 20
802794.849100
  0
VERTEX
  8
0
 10
385545.538700
 20
802793.905500
  0
VERTEX
  8
0
 10
385545.207800
 20
802792.961900
  0
VERTEX
  8
0
 10
385545.187000
 20
802792.864100
  0
VERTEX
  8
0
 10
385545.176600
 20
802792.815200
  0
VERTEX
  8
0
 10
385544.999800
 20
802791.983700
  0
VERTEX
  8
0
 10
385544.791900
 20
802791.005600
  0
VERTEX
  8
0
 10
385544.584000
 20
802790.027400
  0
VERTEX
  8
0
 10
385544.376000
 20
802789.049300
  0
VERTEX
  8
0
 10
385544.168100
 20
802788.071100
  0
VERTEX
  8
0
 10
385543.960200
 20
802787.093000
  0
VERTEX
  8
0
 10
385543.752300
 20
802786.114800
  0
VERTEX
  8
0
 10
385543.544400
 20
802785.136700
  0
VERTEX
  8
0
 10
385543.336400
 20
802784.158500
  0
VERTEX
  8
0
 10
385543.128500
 20
802783.180400
  0
VERTEX
  8
0
 10
385542.999300
 20
802782.188800
  0
VERTEX
  8
0
 10
385542.870000
 20
802781.197200
  0
VERTEX
  8
0
 10
385542.740700
 20
802780.205600
  0
VERTEX
  8
0
 10
385542.611400
 20
802779.214000
  0
VERTEX
  8
0
 10
385542.482200
 20
802778.222300
  0
VERTEX
  8
0
 10
385542.571000
 20
802777.226300
  0
VERTEX
  8
0
 10
385542.659800
 20
802776.230200
  0
VERTEX
  8
0
 10
385542.748600
 20
802775.234200
  0
VERTEX
  8
0
 10
385542.837400
 20
802774.238100
  0
VERTEX
  8
0
 10
385542.926200
 20
802773.242100
  0
VERTEX
  8
0
 10
385543.217800
 20
802772.285600
  0
VERTEX
  8
0
 10
385543.509500
 20
802771.329100
  0
VERTEX
  8
0
 10
385543.801200
 20
802770.372500
  0
VERTEX
  8
0
 10
385544.092800
 20
802769.416000
  0
VERTEX
  8
0
 10
385544.238600
 20
802768.937700
  0
VERTEX
  8
0
 10
385544.525300
 20
802768.528100
  0
VERTEX
  8
0
 10
385545.098800
 20
802767.708800
  0
VERTEX
  8
0
 10
385545.672200
 20
802766.889600
  0
VERTEX
  8
0
 10
385546.245600
 20
802766.070300
  0
VERTEX
  8
0
 10
385546.819000
 20
802765.251000
  0
VERTEX
  8
0
 10
385547.338000
 20
802764.396300
  0
VERTEX
  8
0
 10
385547.857000
 20
802763.541500
  0
VERTEX
  8
0
 10
385548.376000
 20
802762.686700
  0
VERTEX
  8
0
 10
385548.895000
 20
802761.831900
  0
VERTEX
  8
0
 10
385549.150700
 20
802760.865200
  0
VERTEX
  8
0
 10
385549.406500
 20
802759.898500
  0
VERTEX
  8
0
 10
385549.662300
 20
802758.931700
  0
VERTEX
  8
0
 10
385549.918100
 20
802757.965000
  0
VERTEX
  8
0
 10
385550.173800
 20
802756.998200
  0
VERTEX
  8
0
 10
385550.429600
 20
802756.031500
  0
VERTEX
  8
0
 10
385550.685400
 20
802755.064800
  0
VERTEX
  8
0
 10
385550.941200
 20
802754.098000
  0
VERTEX
  8
0
 10
385551.196900
 20
802753.131300
  0
VERTEX
  8
0
 10
385551.452700
 20
802752.164600
  0
VERTEX
  8
0
 10
385551.708500
 20
802751.197800
  0
VERTEX
  8
0
 10
385551.964300
 20
802750.231100
  0
VERTEX
  8
0
 10
385552.220100
 20
802749.264400
  0
VERTEX
  8
0
 10
385552.475800
 20
802748.297600
  0
VERTEX
  8
0
 10
385552.731600
 20
802747.330900
  0
VERTEX
  8
0
 10
385552.987400
 20
802746.364200
  0
VERTEX
  8
0
 10
385553.243200
 20
802745.397400
  0
VERTEX
  8
0
 10
385553.498900
 20
802744.430700
  0
VERTEX
  8
0
 10
385553.754700
 20
802743.463900
  0
VERTEX
  8
0
 10
385554.010500
 20
802742.497200
  0
VERTEX
  8
0
 10
385554.141100
 20
802741.505800
  0
VERTEX
  8
0
 10
385554.271700
 20
802740.514300
  0
VERTEX
  8
0
 10
385554.402300
 20
802739.522900
  0
VERTEX
  8
0
 10
385554.532900
 20
802738.531500
  0
VERTEX
  8
0
 10
385554.663500
 20
802737.540000
  0
VERTEX
  8
0
 10
385554.678000
 20
802736.540100
  0
VERTEX
  8
0
 10
385554.692600
 20
802735.540200
  0
VERTEX
  8
0
 10
385554.707200
 20
802734.540300
  0
VERTEX
  8
0
 10
385554.721700
 20
802733.540500
  0
VERTEX
  8
0
 10
385554.736300
 20
802732.540600
  0
VERTEX
  8
0
 10
385554.750800
 20
802731.540700
  0
VERTEX
  8
0
 10
385554.765400
 20
802730.540800
  0
VERTEX
  8
0
 10
385554.772700
 20
802730.040800
  0
VERTEX
  8
0
 10
385554.771000
 20
802729.540800
  0
VERTEX
  8
0
 10
385554.767800
 20
802728.540800
  0
VERTEX
  8
0
 10
385554.764500
 20
802727.540800
  0
VERTEX
  8
0
 10
385554.761200
 20
802726.540800
  0
VERTEX
  8
0
 10
385554.757900
 20
802725.540800
  0
VERTEX
  8
0
 10
385554.756300
 20
802725.040800
  0
VERTEX
  8
0
 10
385554.815400
 20
802724.544400
  0
VERTEX
  8
0
 10
385554.933700
 20
802723.551400
  0
VERTEX
  8
0
 10
385555.052000
 20
802722.558400
  0
VERTEX
  8
0
 10
385555.170200
 20
802721.565400
  0
VERTEX
  8
0
 10
385555.288500
 20
802720.572400
  0
VERTEX
  8
0
 10
385555.347700
 20
802720.075900
  0
VERTEX
  8
0
 10
385555.480900
 20
802719.594000
  0
VERTEX
  8
0
 10
385555.747300
 20
802718.630200
  0
VERTEX
  8
0
 10
385556.013800
 20
802717.666300
  0
VERTEX
  8
0
 10
385556.280200
 20
802716.702500
  0
VERTEX
  8
0
 10
385556.546700
 20
802715.738600
  0
VERTEX
  8
0
 10
385556.679900
 20
802715.256700
  0
VERTEX
  8
0
 10
385556.876200
 20
802714.796800
  0
VERTEX
  8
0
 10
385557.268800
 20
802713.877100
  0
VERTEX
  8
0
 10
385557.661400
 20
802712.957400
  0
VERTEX
  8
0
 10
385558.054000
 20
802712.037700
  0
VERTEX
  8
0
 10
385558.446600
 20
802711.118000
  0
VERTEX
  8
0
 10
385558.839200
 20
802710.198300
  0
VERTEX
  8
0
 10
385559.231800
 20
802709.278600
  0
VERTEX
  8
0
 10
385559.624400
 20
802708.358900
  0
VERTEX
  8
0
 10
385560.017000
 20
802707.439200
  0
VERTEX
  8
0
 10
385560.409600
 20
802706.519500
  0
VERTEX
  8
0
 10
385560.605900
 20
802706.059600
  0
VERTEX
  8
0
 10
385560.721600
 20
802705.573200
  0
VERTEX
  8
0
 10
385560.953100
 20
802704.600400
  0
VERTEX
  8
0
 10
385561.184600
 20
802703.627500
  0
VERTEX
  8
0
 10
385561.164400
 20
802702.627700
  0
VERTEX
  8
0
 10
385561.144200
 20
802701.627900
  0
VERTEX
  8
0
 10
385561.124000
 20
802700.628100
  0
VERTEX
  8
0
 10
385561.111400
 20
802700.000000
  0
SEQEND
  0
POLYLINE
  8
0
 62
3
  6
CONTINUOUS
 70
0
 66
1
 10
0.000000
 20
0.000000
  0
VERTEX
  8
0
 10
385583.121700
 20
802807.486900
  0
VERTEX
  8
0
 10
385582.029000
 20
802810.171700
  0
VERTEX
  8
0
 10
385581.380500
 20
802811.369200
  0
VERTEX
  8
0
 10
385580.604900
 20
802812.193600
  0
VERTEX
  8
0
 10
385579.781400
 20
802812.877500
  0
VERTEX
  8
0
 10
385578.892000
 20
802813.367900
  0
VERTEX
  8
0
 10
385577.968600
 20
802813.758500
  0
VERTEX
  8
0
 10
385577.008500
 20
802814.041300
  0
VERTEX
  8
0
 10
385576.042800
 20
802814.307400
  0
VERTEX
  8
0
 10
385574.038800
 20
802814.627100
  0
VERTEX
  8
0
 10
385572.996700
 20
802814.669000
  0
VERTEX
  8
0
 10
385571.938600
 20
802814.664000
  0
VERTEX
  8
0
 10
385570.888300
 20
802814.682100
  0
VERTEX
  8
0
 10
385569.835400
 20
802814.692200
  0
VERTEX
  8
0
 10
385567.728100
 20
802814.708700
  0
VERTEX
  8
0
 10
385566.671700
 20
802814.708700
  0
VERTEX
  8
0
 10
385560.286900
 20
802814.572500
  0
VERTEX
  8
0
 10
385559.219000
 20
802814.538800
  0
VERTEX
  8
0
 10
385553.867400
 20
802814.334800
  0
VERTEX
  8
0
 10
385552.838900
 20
802814.416800
  0
VERTEX
  8
0
 10
385545.567300
 20
802815.172100
  0
VERTEX
  8
0
 10
385544.559600
 20
802815.351400
  0
VERTEX
  8
0
 10
385541.535700
 20
802815.908600
  0
VERTEX
  8
0
 10
385540.527700
 20
802816.093900
  0
VERTEX
  8
0
 10
385536.424500
 20
802816.654000
  0
VERTEX
  8
0
 10
385534.597500
 20
802816.768700
  0
VERTEX
  8
0
 10
385532.655900
 20
802816.678600
  0
VERTEX
  8
0
 10
385531.655400
 20
802816.582500
  0
VERTEX
  8
0
 10
385527.887600
 20
802815.601500
  0
VERTEX
  8
0
 10
385526.922600
 20
802815.339300
  0
VERTEX
  8
0
 10
385526.441000
 20
802815.201500
  0
VERTEX
  8
0
 10
385524.345700
 20
802814.415200
  0
VERTEX
  8
0
 10
385520.756700
 20
802812.612800
  0
VERTEX
  8
0
 10
385520.187900
 20
802812.320800
  0
VERTEX
  8
0
 10
385517.198500
 20
802810.285500
  0
VERTEX
  8
0
 10
385516.589500
 20
802809.723700
  0
VERTEX
  8
0
 10
385514.721800
 20
802807.448000
  0
VERTEX
  8
0
 10
385509.237600
 20
802800.505700
  0
VERTEX
  8
0
 10
385508.875800
 20
802800.000000
  0
SEQEND
  0
POLYLINE
  8
0
 62
3
  6
CONTINUOUS
 70
0
 66
1
 10
0.000000
 20
0.000000
  0
VERTEX
  8
0
 10
385500.000000
 20
802785.903300
  0
VERTEX
  8
0
 10
385499.014900
 20
802783.888800
  0
VERTEX
  8
0
 10
385497.721700
 20
802774.231800
  0
VERTEX
  8
0
 10
385499.537900
 20
802770.377800
  0
VERTEX
  8
0
 10
385500.000000
 20
802769.759100
  0
SEQEND
  0
POLYLINE
  8
0
 62
3
  6
CONTINUOUS
 70
0
 66
1
 10
0.000000
 20
0.000000
  0
VERTEX
  8
0
 10
385578.939500
 20
802800.000000
  0
VERTEX
  8
0
 10
385578.853400
 20
802800.848300
  0
VERTEX
  8
0
 10
385578.264000
 20
802802.218200
  0
VERTEX
  8
0
 10
385577.558500
 20
802803.249600
  0
VERTEX
  8
0
 10
385576.795600
 20
802804.110700
  0
VERTEX
  8
0
 10
385576.013900
 20
802804.916900
  0
VERTEX
  8
0
 10
385575.739800
 20
802805.118100
  0
VERTEX
  8
0
 10
385575.168500
 20
802805.537400
  0
VERTEX
  8
0
 10
385574.293200
 20
802806.069200
  0
VERTEX
  8
0
 10
385573.327800
 20
802806.336300
  0
VERTEX
  8
0
 10
385572.396000
 20
802806.702100
  0
VERTEX
  8
0
 10
385571.339500
 20
802806.700800
  0
VERTEX
  8
0
 10
385566.139300
 20
802806.417300
  0
VERTEX
  8
0
 10
385564.880700
 20
802806.348700
  0
VERTEX
  8
0
 10
385563.798500
 20
802806.273100
  0
VERTEX
  8
0
 10
385559.467000
 20
802805.962200
  0
VERTEX
  8
0
 10
385558.391200
 20
802805.905300
  0
VERTEX
  8
0
 10
385556.156400
 20
802805.901700
  0
VERTEX
  8
0
 10
385553.106200
 20
802805.896800
  0
VERTEX
  8
0
 10
385552.051300
 20
802805.901000
  0
VERTEX
  8
0
 10
385549.756500
 20
802805.922200
  0
VERTEX
  8
0
 10
385547.474100
 20
802805.943300
  0
VERTEX
  8
0
 10
385546.157500
 20
802805.894300
  0
VERTEX
  8
0
 10
385544.742500
 20
802805.841700
  0
VERTEX
  8
0
 10
385542.082500
 20
802805.714800
  0
VERTEX
  8
0
 10
385539.440100
 20
802805.581800
  0
VERTEX
  8
0
 10
385536.860900
 20
802805.426700
  0
VERTEX
  8
0
 10
385536.178900
 20
802805.313300
  0
VERTEX
  8
0
 10
385534.811100
 20
802805.085800
  0
VERTEX
  8
0
 10
385533.009300
 20
802804.658100
  0
VERTEX
  8
0
 10
385531.306600
 20
802804.195500
  0
VERTEX
  8
0
 10
385529.642700
 20
802803.719300
  0
VERTEX
  8
0
 10
385528.379800
 20
802803.102500
  0
VERTEX
  8
0
 10
385527.137300
 20
802802.478600
  0
VERTEX
  8
0
 10
385526.725100
 20
802802.251700
  0
VERTEX
  8
0
 10
385525.961300
 20
802801.831300
  0
VERTEX
  8
0
 10
385523.906700
 20
802800.432500
  0
VERTEX
  8
0
 10
385523.615900
 20
802800.204300
  0
VERTEX
  8
0
 10
385523.355700
 20
802800.000000
  0
SEQEND
  0
POLYLINE
  8
0
 62
3
  6
CONTINUOUS
 70
0
 66
1
 10
0.000000
 20
0.000000
  0
VERTEX
  8
0
 10
385508.875800
 20
802800.000000
  0
VERTEX
  8
0
 10
385508.031100
 20
802798.819700
  0
VERTEX
  8
0
 10
385507.425300
 20
802797.926100
  0
VERTEX
  8
0
 10
385504.470500
 20
802793.442500
  0
VERTEX
  8
0
 10
385503.883800
 20
802792.544900
  0
VERTEX
  8
0
 10
385501.382100
 20
802788.622500
  0
VERTEX
  8
0
 10
385500.869200
 20
802787.680900
  0
VERTEX
  8
0
 10
385500.000000
 20
802785.903300
  0
SEQEND
  0
POLYLINE
  8
0
 62
3
  6
CONTINUOUS
 70
0
 66
1
 10
0.000000
 20
0.000000
  0
VERTEX
  8
0
 10
385579.071200
 20
802796.215100
  0
VERTEX
  8
0
 10
385579.096000
 20
802798.458700
  0
VERTEX
  8
0
 10
385578.939500
 20
802800.000000
  0
SEQEND
  0
POLYLINE
  8
0
 62
1
  6
CONTINUOUS
 70
0
 66
1
 10
0.000000
 20
0.000000
  0
VERTEX
  8
0
 10
385549.841100
 20
802806.172900
  0
VERTEX
  8
0
 10
385549.721600
 20
802805.832300
  0
VERTEX
  8
0
 10
385549.675600
 20
802805.701200
  0
VERTEX
  8
0
 10
385549.510100
 20
802805.229300
  0
VERTEX
  8
0
 10
385549.179200
 20
802804.285600
  0
VERTEX
  8
0
 10
385548.848200
 20
802803.342000
  0
VERTEX
  8
0
 10
385548.517200
 20
802802.398300
  0
VERTEX
  8
0
 10
385548.186300
 20
802801.454700
  0
VERTEX
  8
0
 10
385547.855300
 20
802800.511000
  0
VERTEX
  8
0
 10
385547.676100
 20
802800.000000
  0
SEQEND
  0
POLYLINE
  8
0
 62
3
  6
CONTINUOUS
 70
0
 66
1
 10
0.000000
 20
0.000000
  0
VERTEX
  8
0
 10
385600.000000
 20
802665.235500
  0
VERTEX
  8
0
 10
385599.972000
 20
802665.310900
  0
VERTEX
  8
0
 10
385597.452500
 20
802672.088900
  0
VERTEX
  8
0
 10
385597.107700
 20
802673.133100
  0
VERTEX
  8
0
 10
385597.096900
 20
802673.174000
  0
VERTEX
  8
0
 10
385596.682400
 20
802674.748300
  0
VERTEX
  8
0
 10
385596.402600
 20
802675.811100
  0
VERTEX
  8
0
 10
385595.822400
 20
802678.014700
  0
VERTEX
  8
0
 10
385595.562300
 20
802678.989800
  0
VERTEX
  8
0
 10
385595.108200
 20
802680.690300
  0
VERTEX
  8
0
 10
385594.847900
 20
802681.665200
  0
VERTEX
  8
0
 10
385594.534200
 20
802682.840000
  0
VERTEX
  8
0
 10
385594.133100
 20
802684.342100
  0
VERTEX
  8
0
 10
385594.846100
 20
802681.666100
  0
VERTEX
  8
0
 10
385596.091500
 20
802676.992600
  0
VERTEX
  8
0
 10
385595.877800
 20
802677.804300
  0
VERTEX
  8
0
 10
385595.824600
 20
802678.006400
  0
VERTEX
  8
0
 10
385595.554200
 20
802679.020300
  0
VERTEX
  8
0
 10
385595.380900
 20
802679.669200
  0
VERTEX
  8
0
 10
385595.110500
 20
802680.681800
  0
VERTEX
  8
0
 10
385594.839600
 20
802681.696200
  0
VERTEX
  8
0
 10
385593.298900
 20
802687.466100
  0
VERTEX
  8
0
 10
385593.256200
 20
802687.625800
  0
VERTEX
  8
0
 10
385593.094500
 20
802688.662300
  0
VERTEX
  8
0
 10
385592.836300
 20
802690.363400
  0
VERTEX
  8
0
 10
385592.678900
 20
802691.400600
  0
VERTEX
  8
0
 10
385592.356800
 20
802693.522600
  0
VERTEX
  8
0
 10
385592.110600
 20
802694.551900
  0
VERTEX
  8
0
 10
385591.852000
 20
802695.582400
  0
VERTEX
  8
0
 10
385591.680100
 20
802696.208100
  0
VERTEX
  8
0
 10
385591.399900
 20
802697.228300
  0
VERTEX
  8
0
 10
385591.388800
 20
802697.268800
  0
VERTEX
  8
0
 10
385591.182100
 20
802698.021100
  0
VERTEX
  8
0
 10
385591.107100
 20
802698.250000
  0
VERTEX
  8
0
 10
385590.533600
 20
802700.000000
  0
SEQEND
  0
POLYLINE
  8
0
 62
3
  6
CONTINUOUS
 70
0
 66
1
 10
0.000000
 20
0.000000
  0
VERTEX
  8
0
 10
385600.000000
 20
802692.361300
  0
VERTEX
  8
0
 10
385599.882300
 20
802692.777600
  0
VERTEX
  8
0
 10
385599.590000
 20
802693.811400
  0
VERTEX
  8
0
 10
385599.297700
 20
802694.845200
  0
VERTEX
  8
0
 10
385598.441100
 20
802697.874600
  0
VERTEX
  8
0
 10
385598.156700
 20
802698.880500
  0
VERTEX
  8
0
 10
385597.840600
 20
802699.887100
  0
VERTEX
  8
0
 10
385597.802400
 20
802700.000000
  0
SEQEND
  0
POLYLINE
  8
0
 62
3
  6
CONTINUOUS
 70
0
 66
1
 10
0.000000
 20
0.000000
  0
VERTEX
  8
0
 10
385597.802400
 20
802700.000000
  0
VERTEX
  8
0
 10
385597.499700
 20
802700.894200
  0
VERTEX
  8
0
 10
385597.149600
 20
802701.901500
  0
VERTEX
  8
0
 10
385596.746500
 20
802702.909800
  0
VERTEX
  8
0
 10
385592.532800
 20
802711.086100
  0
VERTEX
  8
0
 10
385591.995600
 20
802711.986300
  0
VERTEX
  8
0
 10
385591.499100
 20
802712.896000
  0
VERTEX
  8
0
 10
385591.260300
 20
802713.353200
  0
VERTEX
  8
0
 10
385589.064000
 20
802718.207800
  0
VERTEX
  8
0
 10
385588.845400
 20
802718.658100
  0
VERTEX
  8
0
 10
385588.416300
 20
802719.562200
  0
VERTEX
  8
0
 10
385587.978500
 20
802720.462600
  0
VERTEX
  8
0
 10
385587.497800
 20
802721.344700
  0
VERTEX
  8
0
 10
385587.041700
 20
802722.237300
  0
VERTEX
  8
0
 10
385586.645600
 20
802723.155600
  0
VERTEX
  8
0
 10
385586.403200
 20
802723.775200
  0
VERTEX
  8
0
 10
385586.299000
 20
802724.266300
  0
VERTEX
  8
0
 10
385586.191000
 20
802724.937600
  0
VERTEX
  8
0
 10
385586.199500
 20
802725.437600
  0
VERTEX
  8
0
 10
385586.307500
 20
802726.437200
  0
VERTEX
  8
0
 10
385586.477500
 20
802727.436700
  0
VERTEX
  8
0
 10
385586.762800
 20
802728.435800
  0
VERTEX
  8
0
 10
385587.165800
 20
802729.434400
  0
VERTEX
  8
0
 10
385587.371800
 20
802729.933800
  0
VERTEX
  8
0
 10
385587.637800
 20
802730.519500
  0
VERTEX
  8
0
 10
385587.900700
 20
802731.023300
  0
VERTEX
  8
0
 10
385588.426400
 20
802732.031100
  0
VERTEX
  8
0
 10
385588.957900
 20
802733.038900
  0
VERTEX
  8
0
 10
385589.490500
 20
802734.046800
  0
VERTEX
  8
0
 10
385589.872700
 20
802735.052500
  0
VERTEX
  8
0
 10
385590.172700
 20
802736.057000
  0
VERTEX
  8
0
 10
385590.410000
 20
802737.060500
  0
VERTEX
  8
0
 10
385590.593400
 20
802738.063300
  0
VERTEX
  8
0
 10
385590.850200
 20
802742.306600
  0
VERTEX
  8
0
 10
385590.804700
 20
802743.309200
  0
VERTEX
  8
0
 10
385590.729600
 20
802744.308000
  0
VERTEX
  8
0
 10
385590.586700
 20
802745.297800
  0
VERTEX
  8
0
 10
385590.442100
 20
802746.287400
  0
VERTEX
  8
0
 10
385590.234600
 20
802747.268700
  0
VERTEX
  8
0
 10
385588.627100
 20
802751.656000
  0
VERTEX
  8
0
 10
385588.227500
 20
802752.584700
  0
VERTEX
  8
0
 10
385587.856700
 20
802753.521000
  0
VERTEX
  8
0
 10
385587.497200
 20
802754.460300
  0
VERTEX
  8
0
 10
385587.137600
 20
802755.399600
  0
VERTEX
  8
0
 10
385586.778100
 20
802756.338800
  0
VERTEX
  8
0
 10
385586.418600
 20
802757.278100
  0
VERTEX
  8
0
 10
385586.059100
 20
802758.217400
  0
VERTEX
  8
0
 10
385585.699500
 20
802759.156700
  0
VERTEX
  8
0
 10
385585.340000
 20
802760.096000
  0
VERTEX
  8
0
 10
385585.024500
 20
802761.046900
  0
VERTEX
  8
0
 10
385584.805300
 20
802762.023300
  0
VERTEX
  8
0
 10
385584.586100
 20
802762.999700
  0
VERTEX
  8
0
 10
385584.366900
 20
802763.976200
  0
VERTEX
  8
0
 10
385584.147700
 20
802764.952600
  0
VERTEX
  8
0
 10
385583.928400
 20
802765.929000
  0
VERTEX
  8
0
 10
385583.709200
 20
802766.905400
  0
VERTEX
  8
0
 10
385583.490000
 20
802767.881800
  0
VERTEX
  8
0
 10
385583.270800
 20
802768.858200
  0
VERTEX
  8
0
 10
385583.085100
 20
802769.843500
  0
VERTEX
  8
0
 10
385582.974700
 20
802770.848700
  0
VERTEX
  8
0
 10
385582.425800
 20
802775.849400
  0
VERTEX
  8
0
 10
385582.540700
 20
802774.802700
  0
VERTEX
  8
0
 10
385582.310900
 20
802776.896200
  0
VERTEX
  8
0
 10
385582.333000
 20
802777.913900
  0
VERTEX
  8
0
 10
385582.392200
 20
802778.923600
  0
VERTEX
  8
0
 10
385582.451400
 20
802779.933400
  0
VERTEX
  8
0
 10
385582.875500
 20
802782.463600
  0
VERTEX
  8
0
 10
385583.187900
 20
802783.823200
  0
VERTEX
  8
0
 10
385583.500400
 20
802785.182800
  0
VERTEX
  8
0
 10
385583.812800
 20
802786.542300
  0
VERTEX
  8
0
 10
385584.125200
 20
802787.901900
  0
VERTEX
  8
0
 10
385584.666600
 20
802791.741000
  0
VERTEX
  8
0
 10
385584.813100
 20
802793.064100
  0
VERTEX
  8
0
 10
385584.959500
 20
802794.387300
  0
VERTEX
  8
0
 10
385585.065600
 20
802795.682100
  0
VERTEX
  8
0
 10
385585.079200
 20
802796.912200
  0
VERTEX
  8
0
 10
385585.086000
 20
802797.527300
  0
SEQEND
  0
POLYLINE
  8
0
 62
2
  6
CONTINUOUS
 70
0
 66
1
 10
0.000000
 20
0.000000
  0
VERTEX
  8
0
 10
385584.729200
 20
802800.000000
  0
VERTEX
  8
0
 10
385584.289000
 20
802803.049800
  0
VERTEX
  8
0
 10
385584.102500
 20
802803.758600
  0
VERTEX
  8
0
 10
385583.121700
 20
802807.486900
  0
SEQEND
  0
LINE
  8
0
 62
1
 10
385559.047200
 20
802501.501200
 11
385559.634900
 21
802500.000000
  0
LINE
  8
0
 62
5
 10
385523.619500
 20
802800.213200
 11
385523.655700
 21
802800.000000
  0
LINE
  8
0
 62
2
 10
385586.934500
 20
802728.873800
 11
385586.735200
 21
802728.346500
  0
LINE
  8
0
 62
2
 10
385585.086000
 20
802797.527300
 11
385584.729200
 21
802800.000000
  0
ENDSEC
  0
EOF
