  0
SECTION
  2
HEADER
  9
$LIMMIN
 10
0.000000
 20
0.000000
  9
$LIMMAX
 10
0.000000
 20
0.000000
  0
ENDSEC
  0
SECTION
  2
TABLES
  0
TABLE
  2
LAYER
  0
LAYER
  2
0
 70
0
 62
7
  6
CONTINUOUS
  0
ENDTAB
  0
TABLE
  2
STYLE
  0
ENDTAB
  0
ENDSEC
  0
SECTION
  2
ENTITIES
  0
POLYLINE
  8
0
 62
1
  6
CONTINUOUS
 70
0
 66
1
 10
0.000000
 20
0.000000
  0
VERTEX
  8
0
 10
385756.197600
 20
803100.000000
  0
VERTEX
  8
0
 10
385756.463100
 20
803098.208100
  0
VERTEX
  8
0
 10
385757.282000
 20
803094.538000
  0
VERTEX
  8
0
 10
385758.986500
 20
803086.899400
  0
VERTEX
  8
0
 10
385759.359100
 20
803084.758100
  0
VERTEX
  8
0
 10
385759.879700
 20
803081.765200
  0
VERTEX
  8
0
 10
385759.757700
 20
803075.128200
  0
VERTEX
  8
0
 10
385759.712200
 20
803074.807300
  0
VERTEX
  8
0
 10
385759.077200
 20
803070.329300
  0
VERTEX
  8
0
 10
385757.214600
 20
803065.178600
  0
VERTEX
  8
0
 10
385757.152700
 20
803065.007400
  0
VERTEX
  8
0
 10
385754.771700
 20
803060.046400
  0
VERTEX
  8
0
 10
385752.691200
 20
803056.265900
  0
VERTEX
  8
0
 10
385752.253600
 20
803055.470700
  0
VERTEX
  8
0
 10
385749.175800
 20
803051.476400
  0
VERTEX
  8
0
 10
385747.049500
 20
803048.029700
  0
VERTEX
  8
0
 10
385746.595000
 20
803047.292900
  0
VERTEX
  8
0
 10
385743.258300
 20
803041.310100
  0
VERTEX
  8
0
 10
385742.266200
 20
803039.252800
  0
VERTEX
  8
0
 10
385741.428300
 20
803037.515200
  0
VERTEX
  8
0
 10
385737.988100
 20
803030.979800
  0
VERTEX
  8
0
 10
385737.683300
 20
803030.366000
  0
VERTEX
  8
0
 10
385733.235600
 20
803021.409600
  0
VERTEX
  8
0
 10
385732.388700
 20
803019.704300
  0
VERTEX
  8
0
 10
385729.783400
 20
803015.335300
  0
VERTEX
  8
0
 10
385727.973600
 20
803012.931200
  0
VERTEX
  8
0
 10
385726.199000
 20
803010.573900
  0
VERTEX
  8
0
 10
385722.175000
 20
803005.535700
  0
VERTEX
  8
0
 10
385721.833900
 20
803005.040300
  0
VERTEX
  8
0
 10
385718.363500
 20
803000.000000
  0
SEQEND
  0
POLYLINE
  8
0
 62
1
  6
CONTINUOUS
 70
0
 66
1
 10
0.000000
 20
0.000000
  0
VERTEX
  8
0
 10
385700.000000
 20
803000.248700
  0
VERTEX
  8
0
 10
385700.675900
 20
803000.693700
  0
VERTEX
  8
0
 10
385701.228100
 20
803001.527500
  0
VERTEX
  8
0
 10
385701.780300
 20
803002.361200
  0
VERTEX
  8
0
 10
385702.332500
 20
803003.194900
  0
VERTEX
  8
0
 10
385702.884700
 20
803004.028600
  0
VERTEX
  8
0
 10
385703.436900
 20
803004.862300
  0
VERTEX
  8
0
 10
385703.989100
 20
803005.696000
  0
VERTEX
  8
0
 10
385704.541300
 20
803006.529700
  0
VERTEX
  8
0
 10
385705.093400
 20
803007.363500
  0
VERTEX
  8
0
 10
385705.645600
 20
803008.197200
  0
VERTEX
  8
0
 10
385706.197800
 20
803009.030900
  0
VERTEX
  8
0
 10
385706.750000
 20
803009.864600
  0
VERTEX
  8
0
 10
385707.302200
 20
803010.698300
  0
VERTEX
  8
0
 10
385707.854400
 20
803011.532000
  0
VERTEX
  8
0
 10
385708.406600
 20
803012.365800
  0
VERTEX
  8
0
 10
385708.958800
 20
803013.199500
  0
VERTEX
  8
0
 10
385709.511000
 20
803014.033200
  0
VERTEX
  8
0
 10
385710.063200
 20
803014.866900
  0
VERTEX
  8
0
 10
385710.615400
 20
803015.700600
  0
VERTEX
  8
0
 10
385711.167600
 20
803016.534300
  0
VERTEX
  8
0
 10
385711.719800
 20
803017.368100
  0
VERTEX
  8
0
 10
385712.272000
 20
803018.201800
  0
VERTEX
  8
0
 10
385712.824100
 20
803019.035500
  0
VERTEX
  8
0
 10
385713.376300
 20
803019.869200
  0
VERTEX
  8
0
 10
385713.928500
 20
803020.702900
  0
VERTEX
  8
0
 10
385714.480700
 20
803021.536600
  0
VERTEX
  8
0
 10
385715.032900
 20
803022.370400
  0
VERTEX
  8
0
 10
385715.585100
 20
803023.204100
  0
VERTEX
  8
0
 10
385716.137300
 20
803024.037800
  0
VERTEX
  8
0
 10
385716.689500
 20
803024.871500
  0
VERTEX
  8
0
 10
385717.241700
 20
803025.705200
  0
VERTEX
  8
0
 10
385717.793900
 20
803026.538900
  0
VERTEX
  8
0
 10
385718.346100
 20
803027.372700
  0
VERTEX
  8
0
 10
385718.749000
 20
803028.287900
  0
VERTEX
  8
0
 10
385719.151900
 20
803029.203100
  0
VERTEX
  8
0
 10
385719.554800
 20
803030.118400
  0
VERTEX
  8
0
 10
385719.957700
 20
803031.033600
  0
VERTEX
  8
0
 10
385720.360600
 20
803031.948900
  0
VERTEX
  8
0
 10
385720.763500
 20
803032.864100
  0
VERTEX
  8
0
 10
385721.166400
 20
803033.779300
  0
VERTEX
  8
0
 10
385721.569300
 20
803034.694600
  0
VERTEX
  8
0
 10
385721.972200
 20
803035.609800
  0
VERTEX
  8
0
 10
385722.375100
 20
803036.525100
  0
VERTEX
  8
0
 10
385722.778000
 20
803037.440300
  0
VERTEX
  8
0
 10
385723.180900
 20
803038.355600
  0
VERTEX
  8
0
 10
385723.583900
 20
803039.270800
  0
VERTEX
  8
0
 10
385723.986800
 20
803040.186000
  0
VERTEX
  8
0
 10
385724.389700
 20
803041.101300
  0
VERTEX
  8
0
 10
385724.792600
 20
803042.016500
  0
VERTEX
  8
0
 10
385725.195500
 20
803042.931800
  0
VERTEX
  8
0
 10
385725.598400
 20
803043.847000
  0
VERTEX
  8
0
 10
385726.001300
 20
803044.762200
  0
VERTEX
  8
0
 10
385726.404200
 20
803045.677500
  0
VERTEX
  8
0
 10
385726.807100
 20
803046.592700
  0
VERTEX
  8
0
 10
385727.210000
 20
803047.508000
  0
VERTEX
  8
0
 10
385727.612900
 20
803048.423200
  0
VERTEX
  8
0
 10
385728.015800
 20
803049.338500
  0
VERTEX
  8
0
 10
385728.418700
 20
803050.253700
  0
VERTEX
  8
0
 10
385728.821600
 20
803051.168900
  0
VERTEX
  8
0
 10
385729.224500
 20
803052.084200
  0
VERTEX
  8
0
 10
385729.627400
 20
803052.999400
  0
VERTEX
  8
0
 10
385730.030400
 20
803053.914700
  0
VERTEX
  8
0
 10
385730.433300
 20
803054.829900
  0
VERTEX
  8
0
 10
385730.836200
 20
803055.745100
  0
VERTEX
  8
0
 10
385731.239100
 20
803056.660400
  0
VERTEX
  8
0
 10
385731.642000
 20
803057.575600
  0
VERTEX
  8
0
 10
385732.044900
 20
803058.490900
  0
VERTEX
  8
0
 10
385732.447800
 20
803059.406100
  0
VERTEX
  8
0
 10
385732.850700
 20
803060.321300
  0
VERTEX
  8
0
 10
385732.925900
 20
803061.318500
  0
VERTEX
  8
0
 10
385733.001100
 20
803062.315700
  0
VERTEX
  8
0
 10
385733.076300
 20
803063.312900
  0
VERTEX
  8
0
 10
385733.151400
 20
803064.310000
  0
VERTEX
  8
0
 10
385733.226600
 20
803065.307200
  0
VERTEX
  8
0
 10
385733.301800
 20
803066.304400
  0
VERTEX
  8
0
 10
385733.377000
 20
803067.301500
  0
VERTEX
  8
0
 10
385733.452200
 20
803068.298700
  0
VERTEX
  8
0
 10
385733.527400
 20
803069.295900
  0
VERTEX
  8
0
 10
385733.602600
 20
803070.293000
  0
VERTEX
  8
0
 10
385733.677800
 20
803071.290200
  0
VERTEX
  8
0
 10
385733.752900
 20
803072.287400
  0
VERTEX
  8
0
 10
385733.828100
 20
803073.284500
  0
VERTEX
  8
0
 10
385733.903300
 20
803074.281700
  0
VERTEX
  8
0
 10
385733.978500
 20
803075.278900
  0
VERTEX
  8
0
 10
385734.053700
 20
803076.276100
  0
VERTEX
  8
0
 10
385734.128900
 20
803077.273200
  0
VERTEX
  8
0
 10
385734.204100
 20
803078.270400
  0
VERTEX
  8
0
 10
385734.279300
 20
803079.267600
  0
VERTEX
  8
0
 10
385734.354400
 20
803080.264700
  0
VERTEX
  8
0
 10
385734.429600
 20
803081.261900
  0
VERTEX
  8
0
 10
385734.504800
 20
803082.259100
  0
VERTEX
  8
0
 10
385734.580000
 20
803083.256200
  0
VERTEX
  8
0
 10
385734.655200
 20
803084.253400
  0
VERTEX
  8
0
 10
385734.730400
 20
803085.250600
  0
VERTEX
  8
0
 10
385734.805600
 20
803086.247800
  0
VERTEX
  8
0
 10
385734.880800
 20
803087.244900
  0
VERTEX
  8
0
 10
385734.955900
 20
803088.242100
  0
VERTEX
  8
0
 10
385735.031100
 20
803089.239300
  0
VERTEX
  8
0
 10
385735.106300
 20
803090.236400
  0
VERTEX
  8
0
 10
385735.181500
 20
803091.233600
  0
VERTEX
  8
0
 10
385735.256700
 20
803092.230800
  0
VERTEX
  8
0
 10
385735.331900
 20
803093.227900
  0
VERTEX
  8
0
 10
385735.407100
 20
803094.225100
  0
VERTEX
  8
0
 10
385735.482300
 20
803095.222300
  0
VERTEX
  8
0
 10
385735.557500
 20
803096.219400
  0
VERTEX
  8
0
 10
385735.302000
 20
803097.186300
  0
VERTEX
  8
0
 10
385735.046600
 20
803098.153100
  0
VERTEX
  8
0
 10
385734.791100
 20
803099.119900
  0
VERTEX
  8
0
 10
385734.558600
 20
803100.000000
  0
SEQEND
  0
POLYLINE
  8
0
 62
4
  6
CONTINUOUS
 70
0
 66
1
 10
0.000000
 20
0.000000
  0
VERTEX
  8
0
 10
385764.578300
 20
803100.000000
  0
VERTEX
  8
0
 10
385766.513900
 20
803093.489000
  0
VERTEX
  8
0
 10
385766.980100
 20
803091.814500
  0
VERTEX
  8
0
 10
385767.993600
 20
803086.920400
  0
VERTEX
  8
0
 10
385768.011900
 20
803086.801700
  0
VERTEX
  8
0
 10
385768.354100
 20
803084.564900
  0
VERTEX
  8
0
 10
385768.613800
 20
803081.962000
  0
VERTEX
  8
0
 10
385768.548600
 20
803078.631700
  0
VERTEX
  8
0
 10
385768.309200
 20
803076.721800
  0
VERTEX
  8
0
 10
385767.538600
 20
803072.043500
  0
VERTEX
  8
0
 10
385767.342300
 20
803070.851100
  0
VERTEX
  8
0
 10
385766.908300
 20
803068.771700
  0
VERTEX
  8
0
 10
385765.876700
 20
803065.604600
  0
VERTEX
  8
0
 10
385765.854600
 20
803065.549900
  0
VERTEX
  8
0
 10
385764.529700
 20
803062.556200
  0
VERTEX
  8
0
 10
385762.136100
 20
803058.168700
  0
VERTEX
  8
0
 10
385759.316500
 20
803054.042100
  0
VERTEX
  8
0
 10
385759.195600
 20
803053.883500
  0
VERTEX
  8
0
 10
385758.465700
 20
803052.930200
  0
VERTEX
  8
0
 10
385756.382100
 20
803049.995500
  0
VERTEX
  8
0
 10
385753.849500
 20
803045.686800
  0
VERTEX
  8
0
 10
385751.759600
 20
803041.146800
  0
VERTEX
  8
0
 10
385750.229800
 20
803036.750000
  0
VERTEX
  8
0
 10
385750.132300
 20
803036.421200
  0
VERTEX
  8
0
 10
385749.362700
 20
803033.825900
  0
VERTEX
  8
0
 10
385749.167100
 20
803033.409200
  0
VERTEX
  8
0
 10
385748.358000
 20
803031.764900
  0
VERTEX
  8
0
 10
385745.850400
 20
803027.441600
  0
VERTEX
  8
0
 10
385742.923600
 20
803023.390200
  0
VERTEX
  8
0
 10
385741.783100
 20
803022.018000
  0
VERTEX
  8
0
 10
385741.171900
 20
803021.308700
  0
VERTEX
  8
0
 10
385739.722600
 20
803019.549800
  0
VERTEX
  8
0
 10
385736.824700
 20
803015.477600
  0
VERTEX
  8
0
 10
385734.725100
 20
803011.890700
  0
VERTEX
  8
0
 10
385734.322900
 20
803011.150300
  0
VERTEX
  8
0
 10
385731.927500
 20
803007.259100
  0
VERTEX
  8
0
 10
385731.687700
 20
803006.903400
  0
VERTEX
  8
0
 10
385729.115300
 20
803002.618100
  0
VERTEX
  8
0
 10
385728.694200
 20
803001.815500
  0
VERTEX
  8
0
 10
385727.761700
 20
803000.000000
  0
SEQEND
  0
POLYLINE
  8
0
 62
4
  6
CONTINUOUS
 70
0
 66
1
 10
0.000000
 20
0.000000
  0
VERTEX
  8
0
 10
385766.143200
 20
803100.000000
  0
VERTEX
  8
0
 10
385767.951700
 20
803093.916500
  0
VERTEX
  8
0
 10
385769.494600
 20
803087.028500
  0
VERTEX
  8
0
 10
385769.392500
 20
803087.669000
  0
VERTEX
  8
0
 10
385768.336300
 20
803092.554200
  0
VERTEX
  8
0
 10
385767.951700
 20
803093.916500
  0
VERTEX
  8
0
 10
385769.494600
 20
803087.028500
  0
VERTEX
  8
0
 10
385769.836800
 20
803084.791700
  0
VERTEX
  8
0
 10
385770.103200
 20
803082.210200
  0
VERTEX
  8
0
 10
385770.072900
 20
803078.879200
  0
VERTEX
  8
0
 10
385769.789200
 20
803076.478000
  0
VERTEX
  8
0
 10
385768.821800
 20
803070.604200
  0
VERTEX
  8
0
 10
385767.169200
 20
803064.799500
  0
VERTEX
  8
0
 10
385767.941400
 20
803066.922500
  0
VERTEX
  8
0
 10
385768.743900
 20
803070.155500
  0
VERTEX
  8
0
 10
385768.821800
 20
803070.604200
  0
VERTEX
  8
0
 10
385767.169200
 20
803064.799500
  0
VERTEX
  8
0
 10
385767.098300
 20
803064.627700
  0
VERTEX
  8
0
 10
385766.441700
 20
803063.106900
  0
VERTEX
  8
0
 10
385764.168400
 20
803058.655700
  0
VERTEX
  8
0
 10
385761.474300
 20
803054.446000
  0
VERTEX
  8
0
 10
385760.386600
 20
803052.971700
  0
VERTEX
  8
0
 10
385759.993400
 20
803052.458100
  0
VERTEX
  8
0
 10
385758.510500
 20
803050.419600
  0
VERTEX
  8
0
 10
385755.873000
 20
803046.174200
  0
VERTEX
  8
0
 10
385753.659400
 20
803041.693100
  0
VERTEX
  8
0
 10
385751.890700
 20
803037.018500
  0
VERTEX
  8
0
 10
385751.510400
 20
803035.792500
  0
VERTEX
  8
0
 10
385750.768700
 20
803033.290900
  0
VERTEX
  8
0
 10
385750.524900
 20
803032.771700
  0
VERTEX
  8
0
 10
385750.295600
 20
803032.289900
  0
VERTEX
  8
0
 10
385747.908900
 20
803027.898600
  0
VERTEX
  8
0
 10
385745.107700
 20
803023.759300
  0
VERTEX
  8
0
 10
385742.919400
 20
803021.038800
  0
VERTEX
  8
0
 10
385742.308100
 20
803020.329500
  0
VERTEX
  8
0
 10
385741.937500
 20
803019.894400
  0
VERTEX
  8
0
 10
385738.913400
 20
803015.915200
  0
VERTEX
  8
0
 10
385736.301600
 20
803011.654000
  0
VERTEX
  8
0
 10
385736.044600
 20
803011.177300
  0
VERTEX
  8
0
 10
385733.782500
 20
803007.337000
  0
VERTEX
  8
0
 10
385733.168300
 20
803006.412400
  0
VERTEX
  8
0
 10
385731.108300
 20
803003.113800
  0
VERTEX
  8
0
 10
385730.011800
 20
803001.089100
  0
VERTEX
  8
0
 10
385729.454000
 20
803000.000000
  0
SEQEND
  0
POLYLINE
  8
0
 62
6
  6
CONTINUOUS
 70
0
 66
1
 10
0.000000
 20
0.000000
  0
VERTEX
  8
0
 10
385769.673300
 20
803100.000000
  0
VERTEX
  8
0
 10
385771.265800
 20
803093.677400
  0
VERTEX
  8
0
 10
385771.894100
 20
803091.182800
  0
VERTEX
  8
0
 10
385773.017200
 20
803083.840700
  0
VERTEX
  8
0
 10
385773.510800
 20
803080.613700
  0
VERTEX
  8
0
 10
385772.416200
 20
803073.967700
  0
VERTEX
  8
0
 10
385771.232400
 20
803066.780300
  0
VERTEX
  8
0
 10
385770.196200
 20
803064.270000
  0
VERTEX
  8
0
 10
385767.132300
 20
803056.847800
  0
VERTEX
  8
0
 10
385765.934700
 20
803055.283400
  0
VERTEX
  8
0
 10
385759.855800
 20
803047.343200
  0
VERTEX
  8
0
 10
385756.932300
 20
803043.524500
  0
VERTEX
  8
0
 10
385755.456600
 20
803038.547900
  0
VERTEX
  8
0
 10
385753.580500
 20
803032.220900
  0
VERTEX
  8
0
 10
385752.135200
 20
803029.142600
  0
VERTEX
  8
0
 10
385750.066900
 20
803024.737200
  0
VERTEX
  8
0
 10
385746.715900
 20
803020.848700
  0
VERTEX
  8
0
 10
385740.714000
 20
803013.884100
  0
VERTEX
  8
0
 10
385740.355700
 20
803013.162100
  0
VERTEX
  8
0
 10
385737.508000
 20
803007.422600
  0
VERTEX
  8
0
 10
385735.468100
 20
803004.464900
  0
VERTEX
  8
0
 10
385734.081700
 20
803002.454700
  0
VERTEX
  8
0
 10
385732.824600
 20
803000.000000
  0
SEQEND
  0
POLYLINE
  8
0
 62
6
  6
CONTINUOUS
 70
0
 66
1
 10
0.000000
 20
0.000000
  0
VERTEX
  8
0
 10
385770.704500
 20
803100.000000
  0
VERTEX
  8
0
 10
385772.060600
 20
803094.615900
  0
VERTEX
  8
0
 10
385772.875400
 20
803091.381000
  0
VERTEX
  8
0
 10
385773.883100
 20
803084.793500
  0
VERTEX
  8
0
 10
385774.523300
 20
803080.607900
  0
VERTEX
  8
0
 10
385773.586300
 20
803074.918900
  0
VERTEX
  8
0
 10
385772.200500
 20
803066.504700
  0
VERTEX
  8
0
 10
385771.638600
 20
803065.143600
  0
VERTEX
  8
0
 10
385768.006400
 20
803056.344500
  0
VERTEX
  8
0
 10
385767.714300
 20
803055.962800
  0
VERTEX
  8
0
 10
385761.635300
 20
803048.022600
  0
VERTEX
  8
0
 10
385757.838500
 20
803043.063200
  0
VERTEX
  8
0
 10
385756.771300
 20
803039.464000
  0
VERTEX
  8
0
 10
385754.517800
 20
803031.864200
  0
VERTEX
  8
0
 10
385753.636700
 20
803029.987600
  0
VERTEX
  8
0
 10
385750.913800
 20
803024.188100
  0
VERTEX
  8
0
 10
385748.568200
 20
803021.466300
  0
VERTEX
  8
0
 10
385742.040100
 20
803013.891100
  0
VERTEX
  8
0
 10
385741.553700
 20
803013.326800
  0
VERTEX
  8
0
 10
385738.371900
 20
803006.913800
  0
VERTEX
  8
0
 10
385737.181800
 20
803005.188300
  0
VERTEX
  8
0
 10
385734.942000
 20
803001.940800
  0
VERTEX
  8
0
 10
385733.948100
 20
803000.000000
  0
SEQEND
  0
POLYLINE
  8
0
 62
4
  6
CONTINUOUS
 70
0
 66
1
 10
0.000000
 20
0.000000
  0
VERTEX
  8
0
 10
385700.000000
 20
802982.958700
  0
VERTEX
  8
0
 10
385699.361300
 20
802982.906500
  0
VERTEX
  8
0
 10
385698.584300
 20
802982.843100
  0
VERTEX
  8
0
 10
385697.596100
 20
802982.541300
  0
VERTEX
  8
0
 10
385695.648200
 20
802981.513800
  0
VERTEX
  8
0
 10
385692.693900
 20
802979.547900
  0
VERTEX
  8
0
 10
385690.773200
 20
802978.049200
  0
VERTEX
  8
0
 10
385688.941600
 20
802976.620100
  0
VERTEX
  8
0
 10
385685.688400
 20
802974.530600
  0
VERTEX
  8
0
 10
385682.436100
 20
802972.545200
  0
VERTEX
  8
0
 10
385682.360600
 20
802972.499200
  0
VERTEX
  8
0
 10
385678.535600
 20
802971.015500
  0
VERTEX
  8
0
 10
385675.996900
 20
802970.371000
  0
VERTEX
  8
0
 10
385673.424600
 20
802970.120800
  0
VERTEX
  8
0
 10
385672.819700
 20
802970.101600
  0
VERTEX
  8
0
 10
385668.972900
 20
802969.978900
  0
VERTEX
  8
0
 10
385666.290300
 20
802970.307900
  0
VERTEX
  8
0
 10
385664.469000
 20
802970.846400
  0
VERTEX
  8
0
 10
385663.045300
 20
802971.457300
  0
VERTEX
  8
0
 10
385661.860000
 20
802971.966000
  0
VERTEX
  8
0
 10
385659.780900
 20
802973.688100
  0
VERTEX
  8
0
 10
385658.395800
 20
802975.927900
  0
VERTEX
  8
0
 10
385658.160900
 20
802978.060600
  0
VERTEX
  8
0
 10
385658.526000
 20
802979.236700
  0
VERTEX
  8
0
 10
385659.189500
 20
802981.373500
  0
VERTEX
  8
0
 10
385660.961100
 20
802985.770400
  0
VERTEX
  8
0
 10
385662.393000
 20
802988.431800
  0
VERTEX
  8
0
 10
385663.072700
 20
802989.695200
  0
VERTEX
  8
0
 10
385665.116500
 20
802992.471800
  0
VERTEX
  8
0
 10
385667.061200
 20
802994.523100
  0
VERTEX
  8
0
 10
385668.643600
 20
802996.179900
  0
VERTEX
  8
0
 10
385672.291900
 20
803000.000000
  0
SEQEND
  0
POLYLINE
  8
0
 62
2
  6
CONTINUOUS
 70
0
 66
1
 10
0.000000
 20
0.000000
  0
VERTEX
  8
0
 10
385658.160900
 20
802978.060600
  0
VERTEX
  8
0
 10
385658.204300
 20
802979.146000
  0
VERTEX
  8
0
 10
385658.366500
 20
802980.410500
  0
VERTEX
  8
0
 10
385658.774900
 20
802982.304200
  0
VERTEX
  8
0
 10
385659.156900
 20
802983.620700
  0
VERTEX
  8
0
 10
385659.462700
 20
802984.503800
  0
VERTEX
  8
0
 10
385659.721800
 20
802985.251800
  0
VERTEX
  8
0
 10
385660.432400
 20
802986.877000
  0
VERTEX
  8
0
 10
385661.269700
 20
802988.501000
  0
VERTEX
  8
0
 10
385662.107100
 20
802990.125000
  0
VERTEX
  8
0
 10
385662.716100
 20
802991.100100
  0
VERTEX
  8
0
 10
385663.064500
 20
802991.658100
  0
VERTEX
  8
0
 10
385664.067700
 20
802993.000600
  0
VERTEX
  8
0
 10
385665.270800
 20
802994.522600
  0
VERTEX
  8
0
 10
385666.945800
 20
802996.318700
  0
VERTEX
  8
0
 10
385667.208500
 20
802996.600400
  0
VERTEX
  8
0
 10
385669.347300
 20
802998.873400
  0
VERTEX
  8
0
 10
385669.900700
 20
802999.438400
  0
VERTEX
  8
0
 10
385670.137600
 20
802999.692200
  0
VERTEX
  8
0
 10
385670.425100
 20
803000.000000
  0
SEQEND
  0
POLYLINE
  8
0
 62
1
  6
CONTINUOUS
 70
0
 66
1
 10
0.000000
 20
0.000000
  0
VERTEX
  8
0
 10
385718.363500
 20
803000.000000
  0
VERTEX
  8
0
 10
385717.256100
 20
802998.391700
  0
VERTEX
  8
0
 10
385716.170700
 20
802996.798500
  0
VERTEX
  8
0
 10
385713.181600
 20
802992.410800
  0
VERTEX
  8
0
 10
385712.166500
 20
802991.549100
  0
VERTEX
  8
0
 10
385710.287500
 20
802990.466900
  0
VERTEX
  8
0
 10
385709.182400
 20
802990.022700
  0
VERTEX
  8
0
 10
385708.161100
 20
802989.612200
  0
VERTEX
  8
0
 10
385705.869400
 20
802989.279500
  0
VERTEX
  8
0
 10
385700.629200
 20
802989.531700
  0
VERTEX
  8
0
 10
385700.000000
 20
802989.480300
  0
SEQEND
  0
POLYLINE
  8
0
 62
4
  6
CONTINUOUS
 70
0
 66
1
 10
0.000000
 20
0.000000
  0
VERTEX
  8
0
 10
385727.761700
 20
803000.000000
  0
VERTEX
  8
0
 10
385724.539500
 20
802993.726500
  0
VERTEX
  8
0
 10
385722.139400
 20
802989.053400
  0
VERTEX
  8
0
 10
385721.426300
 20
802987.957700
  0
VERTEX
  8
0
 10
385720.595300
 20
802986.988600
  0
VERTEX
  8
0
 10
385719.890300
 20
802986.330800
  0
VERTEX
  8
0
 10
385719.066700
 20
802985.800300
  0
VERTEX
  8
0
 10
385718.864100
 20
802985.717700
  0
VERTEX
  8
0
 10
385716.419600
 20
802984.720700
  0
VERTEX
  8
0
 10
385712.702500
 20
802983.517300
  0
VERTEX
  8
0
 10
385709.333500
 20
802982.760400
  0
VERTEX
  8
0
 10
385708.771400
 20
802982.634100
  0
VERTEX
  8
0
 10
385706.183000
 20
802982.756800
  0
VERTEX
  8
0
 10
385700.738000
 20
802983.019000
  0
VERTEX
  8
0
 10
385700.000000
 20
802982.958700
  0
SEQEND
  0
POLYLINE
  8
0
 62
4
  6
CONTINUOUS
 70
0
 66
1
 10
0.000000
 20
0.000000
  0
VERTEX
  8
0
 10
385729.454000
 20
803000.000000
  0
VERTEX
  8
0
 10
385722.384400
 20
802986.195500
  0
VERTEX
  8
0
 10
385722.012200
 20
802985.709800
  0
VERTEX
  8
0
 10
385721.585600
 20
802985.282600
  0
VERTEX
  8
0
 10
385721.120200
 20
802984.896900
  0
VERTEX
  8
0
 10
385720.603700
 20
802984.566100
  0
VERTEX
  8
0
 10
385718.446700
 20
802983.340500
  0
VERTEX
  8
0
 10
385716.068800
 20
802982.307700
  0
VERTEX
  8
0
 10
385712.802900
 20
802981.262900
  0
SEQEND
  0
POLYLINE
  8
0
 62
6
  6
CONTINUOUS
 70
0
 66
1
 10
0.000000
 20
0.000000
  0
VERTEX
  8
0
 10
385732.824600
 20
803000.000000
  0
VERTEX
  8
0
 10
385730.636500
 20
802995.727500
  0
VERTEX
  8
0
 10
385726.078200
 20
802986.826900
  0
VERTEX
  8
0
 10
385725.009300
 20
802984.739600
  0
VERTEX
  8
0
 10
385721.501300
 20
802978.745000
  0
VERTEX
  8
0
 10
385721.017500
 20
802978.226200
  0
VERTEX
  8
0
 10
385720.120300
 20
802977.264100
  0
VERTEX
  8
0
 10
385718.664600
 20
802976.538500
  0
VERTEX
  8
0
 10
385716.573800
 20
802976.026600
  0
VERTEX
  8
0
 10
385715.218800
 20
802975.475100
  0
SEQEND
  0
POLYLINE
  8
0
 62
6
  6
CONTINUOUS
 70
0
 66
1
 10
0.000000
 20
0.000000
  0
VERTEX
  8
0
 10
385733.948100
 20
803000.000000
  0
VERTEX
  8
0
 10
385732.182000
 20
802996.551500
  0
VERTEX
  8
0
 10
385727.623700
 20
802987.650800
  0
VERTEX
  8
0
 10
385725.886600
 20
802984.258700
  0
VERTEX
  8
0
 10
385722.760700
 20
802978.917100
  0
VERTEX
  8
0
 10
385722.308400
 20
802978.144200
  0
VERTEX
  8
0
 10
385720.728300
 20
802976.449800
  0
VERTEX
  8
0
 10
385719.010800
 20
802975.593700
  0
VERTEX
  8
0
 10
385716.709900
 20
802975.030400
  0
VERTEX
  8
0
 10
385715.224800
 20
802975.473300
  0
SEQEND
  0
POLYLINE
  8
0
 62
1
  6
CONTINUOUS
 70
0
 66
1
 10
0.000000
 20
0.000000
  0
VERTEX
  8
0
 10
385700.000000
 20
802989.480300
  0
VERTEX
  8
0
 10
385699.296300
 20
802989.422900
  0
VERTEX
  8
0
 10
385697.356600
 20
802989.264400
  0
VERTEX
  8
0
 10
385695.108600
 20
802988.578100
  0
VERTEX
  8
0
 10
385692.322800
 20
802987.108600
  0
VERTEX
  8
0
 10
385690.196700
 20
802985.693800
  0
VERTEX
  8
0
 10
385688.888700
 20
802984.823400
  0
VERTEX
  8
0
 10
385685.178000
 20
802981.928100
  0
VERTEX
  8
0
 10
385682.238200
 20
802980.039900
  0
VERTEX
  8
0
 10
385682.043400
 20
802979.920900
  0
VERTEX
  8
0
 10
385679.469100
 20
802978.349500
  0
VERTEX
  8
0
 10
385677.021200
 20
802977.399900
  0
VERTEX
  8
0
 10
385675.841400
 20
802977.286600
  0
VERTEX
  8
0
 10
385674.340300
 20
802977.518000
  0
VERTEX
  8
0
 10
385672.915400
 20
802978.328800
  0
VERTEX
  8
0
 10
385672.904300
 20
802978.338700
  0
VERTEX
  8
0
 10
385671.589800
 20
802979.524100
  0
VERTEX
  8
0
 10
385670.608400
 20
802980.896200
  0
VERTEX
  8
0
 10
385669.697800
 20
802982.368600
  0
VERTEX
  8
0
 10
385668.925200
 20
802983.845100
  0
VERTEX
  8
0
 10
385668.684700
 20
802985.312000
  0
VERTEX
  8
0
 10
385669.072800
 20
802986.881800
  0
VERTEX
  8
0
 10
385669.097600
 20
802986.915400
  0
VERTEX
  8
0
 10
385670.111700
 20
802988.293100
  0
VERTEX
  8
0
 10
385671.770000
 20
802990.042300
  0
VERTEX
  8
0
 10
385675.830400
 20
802994.293800
  0
VERTEX
  8
0
 10
385679.168400
 20
802997.788900
  0
VERTEX
  8
0
 10
385681.014300
 20
803000.000000
  0
SEQEND
  0
POLYLINE
  8
0
 62
1
  6
CONTINUOUS
 70
0
 66
1
 10
0.000000
 20
0.000000
  0
VERTEX
  8
0
 10
385670.608300
 20
802980.896300
  0
VERTEX
  8
0
 10
385671.443500
 20
802981.446300
  0
VERTEX
  8
0
 10
385672.278700
 20
802981.996200
  0
VERTEX
  8
0
 10
385673.113900
 20
802982.546100
  0
VERTEX
  8
0
 10
385673.949100
 20
802983.096000
  0
VERTEX
  8
0
 10
385674.784300
 20
802983.646000
  0
VERTEX
  8
0
 10
385675.619500
 20
802984.195900
  0
VERTEX
  8
0
 10
385676.454800
 20
802984.745800
  0
VERTEX
  8
0
 10
385677.290000
 20
802985.295800
  0
VERTEX
  8
0
 10
385678.125200
 20
802985.845700
  0
VERTEX
  8
0
 10
385678.960400
 20
802986.395600
  0
VERTEX
  8
0
 10
385679.795600
 20
802986.945500
  0
VERTEX
  8
0
 10
385680.630800
 20
802987.495500
  0
VERTEX
  8
0
 10
385681.466000
 20
802988.045400
  0
VERTEX
  8
0
 10
385682.301200
 20
802988.595300
  0
VERTEX
  8
0
 10
385683.136400
 20
802989.145200
  0
VERTEX
  8
0
 10
385683.971700
 20
802989.695200
  0
VERTEX
  8
0
 10
385684.806900
 20
802990.245100
  0
VERTEX
  8
0
 10
385685.642100
 20
802990.795000
  0
VERTEX
  8
0
 10
385686.477300
 20
802991.345000
  0
VERTEX
  8
0
 10
385687.312500
 20
802991.894900
  0
VERTEX
  8
0
 10
385688.147700
 20
802992.444800
  0
VERTEX
  8
0
 10
385688.982900
 20
802992.994700
  0
VERTEX
  8
0
 10
385689.818100
 20
802993.544700
  0
VERTEX
  8
0
 10
385690.653400
 20
802994.094600
  0
VERTEX
  8
0
 10
385691.488600
 20
802994.644500
  0
VERTEX
  8
0
 10
385692.323800
 20
802995.194500
  0
VERTEX
  8
0
 10
385693.159000
 20
802995.744400
  0
VERTEX
  8
0
 10
385693.994200
 20
802996.294300
  0
VERTEX
  8
0
 10
385694.829400
 20
802996.844200
  0
VERTEX
  8
0
 10
385695.664600
 20
802997.394200
  0
VERTEX
  8
0
 10
385696.499800
 20
802997.944100
  0
VERTEX
  8
0
 10
385697.335100
 20
802998.494000
  0
VERTEX
  8
0
 10
385698.170300
 20
802999.044000
  0
VERTEX
  8
0
 10
385699.005500
 20
802999.593900
  0
VERTEX
  8
0
 10
385699.622300
 20
803000.000000
  0
SEQEND
  0
POLYLINE
  8
0
 62
1
  6
CONTINUOUS
 70
0
 66
1
 10
0.000000
 20
0.000000
  0
VERTEX
  8
0
 10
385671.770000
 20
802990.042400
  0
VERTEX
  8
0
 10
385675.619500
 20
802984.195900
  0
VERTEX
  8
0
 10
385679.469000
 20
802978.349400
  0
SEQEND
  0
POLYLINE
  8
0
 62
4
  6
CONTINUOUS
 70
0
 66
1
 10
0.000000
 20
0.000000
  0
VERTEX
  8
0
 10
385712.802900
 20
802981.262900
  0
VERTEX
  8
0
 10
385711.365200
 20
802980.384500
  0
VERTEX
  8
0
 10
385709.803100
 20
802978.606200
  0
VERTEX
  8
0
 10
385708.768300
 20
802976.715500
  0
VERTEX
  8
0
 10
385708.266000
 20
802974.858100
  0
VERTEX
  8
0
 10
385708.300400
 20
802972.856700
  0
VERTEX
  8
0
 10
385709.079800
 20
802971.308200
  0
VERTEX
  8
0
 10
385710.243600
 20
802970.035100
  0
VERTEX
  8
0
 10
385711.390700
 20
802969.470700
  0
VERTEX
  8
0
 10
385712.701800
 20
802969.001800
  0
VERTEX
  8
0
 10
385713.970800
 20
802968.861700
  0
VERTEX
  8
0
 10
385715.629400
 20
802968.969900
  0
VERTEX
  8
0
 10
385717.989200
 20
802969.749100
  0
VERTEX
  8
0
 10
385719.198700
 20
802970.675200
  0
VERTEX
  8
0
 10
385720.021600
 20
802971.916600
  0
VERTEX
  8
0
 10
385721.322000
 20
802973.993000
  0
SEQEND
  0
POLYLINE
  8
0
 62
1
  6
CONTINUOUS
 70
0
 66
1
 10
0.000000
 20
0.000000
  0
VERTEX
  8
0
 10
385681.014300
 20
803000.000000
  0
VERTEX
  8
0
 10
385682.479800
 20
803001.755300
  0
VERTEX
  8
0
 10
385684.076900
 20
803003.668200
  0
VERTEX
  8
0
 10
385688.170000
 20
803008.976500
  0
VERTEX
  8
0
 10
385688.656800
 20
803009.617600
  0
VERTEX
  8
0
 10
385690.883800
 20
803012.551200
  0
VERTEX
  8
0
 10
385693.968900
 20
803016.854500
  0
VERTEX
  8
0
 10
385694.512000
 20
803017.720200
  0
VERTEX
  8
0
 10
385698.417100
 20
803023.944500
  0
VERTEX
  8
0
 10
385699.713600
 20
803026.258000
  0
VERTEX
  8
0
 10
385700.000000
 20
803026.769000
  0
SEQEND
  0
POLYLINE
  8
0
 62
4
  6
CONTINUOUS
 70
0
 66
1
 10
0.000000
 20
0.000000
  0
VERTEX
  8
0
 10
385672.291900
 20
803000.000000
  0
VERTEX
  8
0
 10
385674.317800
 20
803002.121300
  0
VERTEX
  8
0
 10
385675.461400
 20
803003.491000
  0
VERTEX
  8
0
 10
385679.006500
 20
803007.737200
  0
VERTEX
  8
0
 10
385681.735100
 20
803011.275900
  0
VERTEX
  8
0
 10
385683.007800
 20
803012.926400
  0
VERTEX
  8
0
 10
385685.652900
 20
803016.410600
  0
VERTEX
  8
0
 10
385687.716200
 20
803019.288700
  0
VERTEX
  8
0
 10
385688.569300
 20
803020.478800
  0
VERTEX
  8
0
 10
385692.825500
 20
803027.262600
  0
VERTEX
  8
0
 10
385693.083200
 20
803027.722600
  0
VERTEX
  8
0
 10
385695.822000
 20
803032.609400
  0
VERTEX
  8
0
 10
385697.787900
 20
803036.543600
  0
VERTEX
  8
0
 10
385699.000800
 20
803038.970800
  0
VERTEX
  8
0
 10
385700.000000
 20
803041.395400
  0
SEQEND
  0
POLYLINE
  8
0
 62
2
  6
CONTINUOUS
 70
0
 66
1
 10
0.000000
 20
0.000000
  0
VERTEX
  8
0
 10
385670.425100
 20
803000.000000
  0
VERTEX
  8
0
 10
385672.920000
 20
803002.672200
  0
VERTEX
  8
0
 10
385673.312700
 20
803003.092900
  0
VERTEX
  8
0
 10
385676.571200
 20
803006.884800
  0
VERTEX
  8
0
 10
385679.670700
 20
803010.807700
  0
VERTEX
  8
0
 10
385681.427300
 20
803013.230000
  0
VERTEX
  8
0
 10
385681.539400
 20
803013.384500
  0
VERTEX
  8
0
 10
385682.605900
 20
803014.855100
  0
VERTEX
  8
0
 10
385685.371800
 20
803019.020000
  0
VERTEX
  8
0
 10
385687.963700
 20
803023.295300
  0
VERTEX
  8
0
 10
385688.366700
 20
803024.026400
  0
VERTEX
  8
0
 10
385690.377300
 20
803027.673800
  0
VERTEX
  8
0
 10
385691.009900
 20
803028.942500
  0
VERTEX
  8
0
 10
385692.608300
 20
803032.148000
  0
VERTEX
  8
0
 10
385694.212000
 20
803035.726100
  0
VERTEX
  8
0
 10
385694.653200
 20
803036.710400
  0
VERTEX
  8
0
 10
385696.508200
 20
803041.353200
  0
VERTEX
  8
0
 10
385697.959200
 20
803045.469200
  0
VERTEX
  8
0
 10
385698.170400
 20
803046.068400
  0
VERTEX
  8
0
 10
385699.636800
 20
803050.848200
  0
VERTEX
  8
0
 10
385700.000000
 20
803052.233000
  0
SEQEND
  0
POLYLINE
  8
0
 62
1
  6
CONTINUOUS
 70
0
 66
1
 10
0.000000
 20
0.000000
  0
VERTEX
  8
0
 10
385700.000000
 20
803001.141400
  0
VERTEX
  8
0
 10
385700.675900
 20
803000.693700
  0
VERTEX
  8
0
 10
385701.723300
 20
803000.000000
  0
SEQEND
  0
POLYLINE
  8
0
 62
1
  6
CONTINUOUS
 70
0
 66
1
 10
0.000000
 20
0.000000
  0
VERTEX
  8
0
 10
385699.622300
 20
803000.000000
  0
VERTEX
  8
0
 10
385699.840700
 20
803000.143800
  0
VERTEX
  8
0
 10
385700.000000
 20
803000.248700
  0
SEQEND
  0
POLYLINE
  8
0
 62
1
  6
CONTINUOUS
 70
0
 66
1
 10
0.000000
 20
0.000000
  0
VERTEX
  8
0
 10
385704.303500
 20
803035.041200
  0
VERTEX
  8
0
 10
385713.080100
 20
803030.248400
  0
VERTEX
  8
0
 10
385718.346100
 20
803027.372700
  0
VERTEX
  8
0
 10
385721.856700
 20
803025.455500
  0
VERTEX
  8
0
 10
385730.633300
 20
803020.662700
  0
VERTEX
  8
0
 10
385732.388600
 20
803019.704100
  0
SEQEND
  0
POLYLINE
  8
0
 62
1
  6
CONTINUOUS
 70
0
 66
1
 10
0.000000
 20
0.000000
  0
VERTEX
  8
0
 10
385700.000000
 20
803026.769000
  0
VERTEX
  8
0
 10
385701.567500
 20
803029.566000
  0
VERTEX
  8
0
 10
385704.303500
 20
803035.041200
  0
VERTEX
  8
0
 10
385704.336800
 20
803035.121900
  0
VERTEX
  8
0
 10
385706.392700
 20
803040.110500
  0
VERTEX
  8
0
 10
385707.868400
 20
803044.471900
  0
VERTEX
  8
0
 10
385708.597500
 20
803046.626800
  0
VERTEX
  8
0
 10
385710.855400
 20
803053.738900
  0
VERTEX
  8
0
 10
385710.924200
 20
803053.993000
  0
VERTEX
  8
0
 10
385712.652000
 20
803060.378600
  0
VERTEX
  8
0
 10
385713.206400
 20
803063.717600
  0
VERTEX
  8
0
 10
385713.447800
 20
803065.171700
  0
VERTEX
  8
0
 10
385713.706100
 20
803067.657500
  0
VERTEX
  8
0
 10
385714.382100
 20
803073.646300
  0
VERTEX
  8
0
 10
385714.399600
 20
803073.801700
  0
VERTEX
  8
0
 10
385714.984300
 20
803081.622300
  0
VERTEX
  8
0
 10
385715.026000
 20
803083.623100
  0
VERTEX
  8
0
 10
385715.116600
 20
803087.967300
  0
VERTEX
  8
0
 10
385714.698100
 20
803093.606600
  0
VERTEX
  8
0
 10
385714.651800
 20
803094.230900
  0
VERTEX
  8
0
 10
385713.965600
 20
803100.000000
  0
SEQEND
  0
POLYLINE
  8
0
 62
4
  6
CONTINUOUS
 70
0
 66
1
 10
0.000000
 20
0.000000
  0
VERTEX
  8
0
 10
385700.000000
 20
803041.395400
  0
VERTEX
  8
0
 10
385700.396600
 20
803042.357700
  0
VERTEX
  8
0
 10
385701.557900
 20
803045.789900
  0
VERTEX
  8
0
 10
385702.515700
 20
803048.620900
  0
VERTEX
  8
0
 10
385704.637400
 20
803055.303600
  0
VERTEX
  8
0
 10
385704.713700
 20
803055.543900
  0
VERTEX
  8
0
 10
385706.390800
 20
803061.741900
  0
VERTEX
  8
0
 10
385706.935700
 20
803065.023900
  0
VERTEX
  8
0
 10
385707.102300
 20
803066.027600
  0
VERTEX
  8
0
 10
385707.343300
 20
803068.347100
  0
VERTEX
  8
0
 10
385708.026400
 20
803074.399400
  0
VERTEX
  8
0
 10
385708.068200
 20
803074.957700
  0
VERTEX
  8
0
 10
385708.589300
 20
803081.927800
  0
VERTEX
  8
0
 10
385708.652000
 20
803084.937600
  0
VERTEX
  8
0
 10
385708.711600
 20
803087.796800
  0
VERTEX
  8
0
 10
385708.495200
 20
803093.498500
  0
VERTEX
  8
0
 10
385708.325800
 20
803094.922900
  0
VERTEX
  8
0
 10
385707.721900
 20
803100.000000
  0
SEQEND
  0
POLYLINE
  8
0
 62
1
  6
CONTINUOUS
 70
0
 66
1
 10
0.000000
 20
0.000000
  0
VERTEX
  8
0
 10
385713.447800
 20
803065.172000
  0
VERTEX
  8
0
 10
385732.850700
 20
803060.321300
  0
VERTEX
  8
0
 10
385752.253600
 20
803055.470700
  0
SEQEND
  0
POLYLINE
  8
0
 62
2
  6
CONTINUOUS
 70
0
 66
1
 10
0.000000
 20
0.000000
  0
VERTEX
  8
0
 10
385700.000000
 20
803052.233000
  0
VERTEX
  8
0
 10
385700.682200
 20
803054.834400
  0
VERTEX
  8
0
 10
385700.905100
 20
803055.684300
  0
VERTEX
  8
0
 10
385701.226200
 20
803057.152800
  0
VERTEX
  8
0
 10
385701.973000
 20
803060.568600
  0
VERTEX
  8
0
 10
385702.189600
 20
803061.800600
  0
VERTEX
  8
0
 10
385702.587400
 20
803064.063600
  0
VERTEX
  8
0
 10
385702.684300
 20
803064.614500
  0
VERTEX
  8
0
 10
385702.838700
 20
803065.492700
  0
VERTEX
  8
0
 10
385702.897000
 20
803065.929600
  0
VERTEX
  8
0
 10
385702.946200
 20
803066.297900
  0
VERTEX
  8
0
 10
385703.094300
 20
803067.406500
  0
VERTEX
  8
0
 10
385703.167200
 20
803067.951800
  0
VERTEX
  8
0
 10
385703.236100
 20
803068.467400
  0
VERTEX
  8
0
 10
385703.500700
 20
803070.448300
  0
VERTEX
  8
0
 10
385703.955500
 20
803075.400300
  0
VERTEX
  8
0
 10
385703.958000
 20
803075.427000
  0
VERTEX
  8
0
 10
385704.209700
 20
803080.420300
  0
VERTEX
  8
0
 10
385704.225900
 20
803082.188600
  0
VERTEX
  8
0
 10
385704.255500
 20
803085.419700
  0
VERTEX
  8
0
 10
385704.095200
 20
803090.416800
  0
VERTEX
  8
0
 10
385703.729100
 20
803095.403000
  0
VERTEX
  8
0
 10
385703.465500
 20
803097.695400
  0
VERTEX
  8
0
 10
385703.200400
 20
803100.000000
  0
SEQEND
  0
POLYLINE
  8
0
 62
4
  6
CONTINUOUS
 70
0
 66
1
 10
0.000000
 20
0.000000
  0
VERTEX
  8
0
 10
385700.000000
 20
803190.985000
  0
VERTEX
  8
0
 10
385705.189800
 20
803191.198800
  0
VERTEX
  8
0
 10
385707.270900
 20
803190.842600
  0
VERTEX
  8
0
 10
385709.648000
 20
803190.435600
  0
VERTEX
  8
0
 10
385713.005400
 20
803189.237900
  0
VERTEX
  8
0
 10
385716.535900
 20
803187.307700
  0
VERTEX
  8
0
 10
385716.559000
 20
803187.295200
  0
VERTEX
  8
0
 10
385719.924500
 20
803184.954200
  0
VERTEX
  8
0
 10
385721.912700
 20
803183.375000
  0
VERTEX
  8
0
 10
385724.188800
 20
803180.944900
  0
VERTEX
  8
0
 10
385725.005900
 20
803179.835600
  0
VERTEX
  8
0
 10
385729.877400
 20
803172.721800
  0
VERTEX
  8
0
 10
385735.527500
 20
803164.471000
  0
VERTEX
  8
0
 10
385741.177600
 20
803156.220100
  0
VERTEX
  8
0
 10
385743.248400
 20
803153.196200
  0
VERTEX
  8
0
 10
385746.807900
 20
803147.955800
  0
VERTEX
  8
0
 10
385749.136100
 20
803144.528300
  0
VERTEX
  8
0
 10
385749.611300
 20
803143.815600
  0
VERTEX
  8
0
 10
385752.135900
 20
803139.502200
  0
VERTEX
  8
0
 10
385754.217300
 20
803134.958300
  0
VERTEX
  8
0
 10
385755.834600
 20
803130.229300
  0
VERTEX
  8
0
 10
385755.880100
 20
803130.069900
  0
VERTEX
  8
0
 10
385758.562100
 20
803120.608500
  0
VERTEX
  8
0
 10
385760.825900
 20
803112.622400
  0
VERTEX
  8
0
 10
385761.310100
 20
803110.993600
  0
VERTEX
  8
0
 10
385764.159600
 20
803101.408200
  0
VERTEX
  8
0
 10
385764.578300
 20
803100.000000
  0
SEQEND
  0
POLYLINE
  8
0
 62
4
  6
CONTINUOUS
 70
0
 66
1
 10
0.000000
 20
0.000000
  0
VERTEX
  8
0
 10
385700.000000
 20
803193.720500
  0
VERTEX
  8
0
 10
385700.403100
 20
803193.772000
  0
VERTEX
  8
0
 10
385703.136300
 20
803193.895400
  0
VERTEX
  8
0
 10
385706.263400
 20
803193.625600
  0
VERTEX
  8
0
 10
385710.286200
 20
803192.621300
  0
VERTEX
  8
0
 10
385713.929200
 20
803190.951500
  0
VERTEX
  8
0
 10
385720.781000
 20
803186.185700
  0
VERTEX
  8
0
 10
385721.736700
 20
803185.481000
  0
VERTEX
  8
0
 10
385724.194700
 20
803183.234400
  0
VERTEX
  8
0
 10
385726.243500
 20
803180.683100
  0
VERTEX
  8
0
 10
385744.487600
 20
803154.041400
  0
VERTEX
  8
0
 10
385750.376900
 20
803145.371100
  0
VERTEX
  8
0
 10
385751.619500
 20
803143.451400
  0
VERTEX
  8
0
 10
385754.032000
 20
803139.074100
  0
VERTEX
  8
0
 10
385756.008800
 20
803134.483700
  0
VERTEX
  8
0
 10
385757.323200
 20
803130.479000
  0
VERTEX
  8
0
 10
385762.266400
 20
803113.040600
  0
VERTEX
  8
0
 10
385766.143200
 20
803100.000000
  0
SEQEND
  0
POLYLINE
  8
0
 62
6
  6
CONTINUOUS
 70
0
 66
1
 10
0.000000
 20
0.000000
  0
VERTEX
  8
0
 10
385707.811000
 20
803200.000000
  0
VERTEX
  8
0
 10
385711.327600
 20
803197.531500
  0
VERTEX
  8
0
 10
385713.620100
 20
803195.391000
  0
VERTEX
  8
0
 10
385716.014400
 20
803193.155400
  0
VERTEX
  8
0
 10
385721.806100
 20
803190.345100
  0
VERTEX
  8
0
 10
385722.011500
 20
803190.145000
  0
VERTEX
  8
0
 10
385726.161600
 20
803186.103000
  0
VERTEX
  8
0
 10
385728.347500
 20
803182.508800
  0
VERTEX
  8
0
 10
385733.543900
 20
803173.964900
  0
VERTEX
  8
0
 10
385735.747400
 20
803170.341800
  0
VERTEX
  8
0
 10
385739.254700
 20
803165.773400
  0
VERTEX
  8
0
 10
385745.344400
 20
803157.841400
  0
VERTEX
  8
0
 10
385746.981300
 20
803155.709200
  0
VERTEX
  8
0
 10
385751.089800
 20
803149.660700
  0
VERTEX
  8
0
 10
385756.708700
 20
803141.388600
  0
VERTEX
  8
0
 10
385757.807500
 20
803139.771000
  0
VERTEX
  8
0
 10
385760.287300
 20
803132.118300
  0
VERTEX
  8
0
 10
385763.369900
 20
803122.605200
  0
VERTEX
  8
0
 10
385766.107900
 20
803114.156000
  0
VERTEX
  8
0
 10
385766.381000
 20
803113.071700
  0
VERTEX
  8
0
 10
385768.823400
 20
803103.374500
  0
VERTEX
  8
0
 10
385769.673300
 20
803100.000000
  0
SEQEND
  0
POLYLINE
  8
0
 62
6
  6
CONTINUOUS
 70
0
 66
1
 10
0.000000
 20
0.000000
  0
VERTEX
  8
0
 10
385709.551500
 20
803200.000000
  0
VERTEX
  8
0
 10
385711.959200
 20
803198.310000
  0
VERTEX
  8
0
 10
385714.200700
 20
803196.217000
  0
VERTEX
  8
0
 10
385716.586600
 20
803193.989300
  0
VERTEX
  8
0
 10
385722.388000
 20
803191.174200
  0
VERTEX
  8
0
 10
385722.593900
 20
803190.973700
  0
VERTEX
  8
0
 10
385726.950100
 20
803186.730900
  0
VERTEX
  8
0
 10
385728.986600
 20
803183.382500
  0
VERTEX
  8
0
 10
385734.182900
 20
803174.838600
  0
VERTEX
  8
0
 10
385736.573600
 20
803170.907800
  0
VERTEX
  8
0
 10
385739.861600
 20
803166.625100
  0
VERTEX
  8
0
 10
385745.951200
 20
803158.693100
  0
VERTEX
  8
0
 10
385747.792200
 20
803156.295200
  0
VERTEX
  8
0
 10
385751.712400
 20
803150.523800
  0
VERTEX
  8
0
 10
385757.331300
 20
803142.251700
  0
VERTEX
  8
0
 10
385758.714800
 20
803140.214900
  0
VERTEX
  8
0
 10
385761.038400
 20
803133.044200
  0
VERTEX
  8
0
 10
385764.121100
 20
803123.531200
  0
VERTEX
  8
0
 10
385767.069400
 20
803114.432600
  0
VERTEX
  8
0
 10
385767.175800
 20
803114.010200
  0
VERTEX
  8
0
 10
385769.618200
 20
803104.313000
  0
VERTEX
  8
0
 10
385770.704500
 20
803100.000000
  0
SEQEND
  0
POLYLINE
  8
0
 62
2
  6
CONTINUOUS
 70
0
 66
1
 10
0.000000
 20
0.000000
  0
VERTEX
  8
0
 10
385700.000000
 20
803115.853500
  0
VERTEX
  8
0
 10
385698.845900
 20
803119.876400
  0
VERTEX
  8
0
 10
385697.517400
 20
803123.918700
  0
VERTEX
  8
0
 10
385697.246500
 20
803124.612300
  0
VERTEX
  8
0
 10
385696.487700
 20
803126.034100
  0
VERTEX
  8
0
 10
385696.168500
 20
803126.531100
  0
VERTEX
  8
0
 10
385690.730200
 20
803134.999100
  0
VERTEX
  8
0
 10
385685.871500
 20
803142.564700
  0
VERTEX
  8
0
 10
385680.839400
 20
803150.400200
  0
VERTEX
  8
0
 10
385677.775300
 20
803155.171400
  0
VERTEX
  8
0
 10
385674.640800
 20
803160.052100
  0
VERTEX
  8
0
 10
385669.217900
 20
803168.496100
  0
VERTEX
  8
0
 10
385667.593400
 20
803171.025700
  0
VERTEX
  8
0
 10
385669.217900
 20
803168.496100
  0
VERTEX
  8
0
 10
385674.640800
 20
803160.052100
  0
VERTEX
  8
0
 10
385677.775300
 20
803155.171400
  0
VERTEX
  8
0
 10
385680.839400
 20
803150.400200
  0
VERTEX
  8
0
 10
385685.871500
 20
803142.564700
  0
VERTEX
  8
0
 10
385690.730200
 20
803134.999100
  0
VERTEX
  8
0
 10
385696.168500
 20
803126.531100
  0
VERTEX
  8
0
 10
385696.487700
 20
803126.034100
  0
VERTEX
  8
0
 10
385696.168500
 20
803126.531100
  0
VERTEX
  8
0
 10
385690.730200
 20
803134.999100
  0
VERTEX
  8
0
 10
385685.871500
 20
803142.564700
  0
VERTEX
  8
0
 10
385680.839400
 20
803150.400200
  0
VERTEX
  8
0
 10
385677.775300
 20
803155.171400
  0
VERTEX
  8
0
 10
385674.640800
 20
803160.052100
  0
VERTEX
  8
0
 10
385669.217900
 20
803168.496100
  0
VERTEX
  8
0
 10
385667.593400
 20
803171.025700
  0
VERTEX
  8
0
 10
385667.273000
 20
803171.870200
  0
VERTEX
  8
0
 10
385667.035800
 20
803173.355300
  0
VERTEX
  8
0
 10
385667.170100
 20
803174.830300
  0
VERTEX
  8
0
 10
385667.589700
 20
803176.432500
  0
VERTEX
  8
0
 10
385668.267200
 20
803177.901000
  0
VERTEX
  8
0
 10
385669.287400
 20
803179.458400
  0
VERTEX
  8
0
 10
385669.480400
 20
803179.753100
  0
VERTEX
  8
0
 10
385671.532800
 20
803181.863600
  0
VERTEX
  8
0
 10
385674.184100
 20
803183.650700
  0
VERTEX
  8
0
 10
385675.390700
 20
803184.207600
  0
VERTEX
  8
0
 10
385677.106000
 20
803184.999300
  0
VERTEX
  8
0
 10
385678.704200
 20
803185.385900
  0
VERTEX
  8
0
 10
385679.442400
 20
803185.564500
  0
VERTEX
  8
0
 10
385681.301500
 20
803185.844200
  0
VERTEX
  8
0
 10
385684.294600
 20
803186.015700
  0
VERTEX
  8
0
 10
385686.204400
 20
803186.239300
  0
VERTEX
  8
0
 10
385686.528700
 20
803186.309200
  0
VERTEX
  8
0
 10
385689.551600
 20
803186.961300
  0
VERTEX
  8
0
 10
385692.795900
 20
803187.830300
  0
SEQEND
  0
POLYLINE
  8
0
 62
1
  6
CONTINUOUS
 70
0
 66
1
 10
0.000000
 20
0.000000
  0
VERTEX
  8
0
 10
385700.000000
 20
803184.627300
  0
VERTEX
  8
0
 10
385701.092400
 20
803185.024900
  0
VERTEX
  8
0
 10
385703.686000
 20
803185.131800
  0
VERTEX
  8
0
 10
385704.802800
 20
803185.177800
  0
VERTEX
  8
0
 10
385708.122400
 20
803184.609500
  0
VERTEX
  8
0
 10
385710.543000
 20
803183.746000
  0
VERTEX
  8
0
 10
385713.126500
 20
803182.333600
  0
VERTEX
  8
0
 10
385713.282500
 20
803182.248300
  0
VERTEX
  8
0
 10
385715.713300
 20
803180.308500
  0
VERTEX
  8
0
 10
385717.792400
 20
803178.137700
  0
VERTEX
  8
0
 10
385719.263500
 20
803176.165500
  0
VERTEX
  8
0
 10
385720.023300
 20
803175.178000
  0
VERTEX
  8
0
 10
385726.121300
 20
803167.252400
  0
VERTEX
  8
0
 10
385732.127500
 20
803159.446100
  0
VERTEX
  8
0
 10
385732.204400
 20
803159.316700
  0
VERTEX
  8
0
 10
385737.312800
 20
803150.720000
  0
VERTEX
  8
0
 10
385738.596400
 20
803148.559800
  0
VERTEX
  8
0
 10
385742.055900
 20
803141.919800
  0
VERTEX
  8
0
 10
385743.790000
 20
803138.591400
  0
VERTEX
  8
0
 10
385746.288800
 20
803132.865900
  0
VERTEX
  8
0
 10
385748.152900
 20
803128.594600
  0
VERTEX
  8
0
 10
385749.887100
 20
803123.544500
  0
VERTEX
  8
0
 10
385752.483800
 20
803115.982800
  0
VERTEX
  8
0
 10
385753.057100
 20
803114.061600
  0
VERTEX
  8
0
 10
385754.330600
 20
803109.794000
  0
VERTEX
  8
0
 10
385755.482400
 20
803104.368500
  0
VERTEX
  8
0
 10
385755.707100
 20
803103.309900
  0
VERTEX
  8
0
 10
385756.197600
 20
803100.000000
  0
SEQEND
  0
POLYLINE
  8
0
 62
1
  6
CONTINUOUS
 70
0
 66
1
 10
0.000000
 20
0.000000
  0
VERTEX
  8
0
 10
385713.965600
 20
803100.000000
  0
VERTEX
  8
0
 10
385713.641500
 20
803102.724400
  0
VERTEX
  8
0
 10
385713.496400
 20
803103.532100
  0
VERTEX
  8
0
 10
385712.232300
 20
803110.565800
  0
VERTEX
  8
0
 10
385711.524900
 20
803113.330300
  0
VERTEX
  8
0
 10
385709.045800
 20
803123.018200
  0
VERTEX
  8
0
 10
385708.933000
 20
803123.458900
  0
VERTEX
  8
0
 10
385705.199700
 20
803132.243600
  0
VERTEX
  8
0
 10
385704.937000
 20
803132.861900
  0
VERTEX
  8
0
 10
385700.385800
 20
803140.991600
  0
VERTEX
  8
0
 10
385700.379400
 20
803141.000800
  0
VERTEX
  8
0
 10
385700.000000
 20
803141.546100
  0
SEQEND
  0
POLYLINE
  8
0
 62
1
  6
CONTINUOUS
 70
0
 66
1
 10
0.000000
 20
0.000000
  0
VERTEX
  8
0
 10
385734.558600
 20
803100.000000
  0
VERTEX
  8
0
 10
385734.535700
 20
803100.086700
  0
VERTEX
  8
0
 10
385734.280200
 20
803101.053600
  0
VERTEX
  8
0
 10
385734.024800
 20
803102.020400
  0
VERTEX
  8
0
 10
385733.769400
 20
803102.987200
  0
VERTEX
  8
0
 10
385733.513900
 20
803103.954000
  0
VERTEX
  8
0
 10
385733.258500
 20
803104.920900
  0
VERTEX
  8
0
 10
385733.003000
 20
803105.887700
  0
VERTEX
  8
0
 10
385732.747600
 20
803106.854500
  0
VERTEX
  8
0
 10
385732.492100
 20
803107.821300
  0
VERTEX
  8
0
 10
385732.236700
 20
803108.788200
  0
VERTEX
  8
0
 10
385731.981300
 20
803109.755000
  0
VERTEX
  8
0
 10
385731.725800
 20
803110.721800
  0
VERTEX
  8
0
 10
385731.470400
 20
803111.688600
  0
VERTEX
  8
0
 10
385731.214900
 20
803112.655500
  0
VERTEX
  8
0
 10
385730.959500
 20
803113.622300
  0
VERTEX
  8
0
 10
385730.704100
 20
803114.589100
  0
VERTEX
  8
0
 10
385730.448600
 20
803115.555900
  0
VERTEX
  8
0
 10
385730.193200
 20
803116.522800
  0
VERTEX
  8
0
 10
385729.937700
 20
803117.489600
  0
VERTEX
  8
0
 10
385729.682300
 20
803118.456400
  0
VERTEX
  8
0
 10
385729.426800
 20
803119.423200
  0
VERTEX
  8
0
 10
385729.171400
 20
803120.390100
  0
VERTEX
  8
0
 10
385728.916000
 20
803121.356900
  0
VERTEX
  8
0
 10
385728.660500
 20
803122.323700
  0
VERTEX
  8
0
 10
385728.405100
 20
803123.290500
  0
VERTEX
  8
0
 10
385728.149600
 20
803124.257400
  0
VERTEX
  8
0
 10
385727.894200
 20
803125.224200
  0
VERTEX
  8
0
 10
385727.638800
 20
803126.191000
  0
VERTEX
  8
0
 10
385727.383300
 20
803127.157800
  0
VERTEX
  8
0
 10
385727.127900
 20
803128.124700
  0
VERTEX
  8
0
 10
385726.872400
 20
803129.091500
  0
VERTEX
  8
0
 10
385726.617000
 20
803130.058300
  0
VERTEX
  8
0
 10
385726.361500
 20
803131.025100
  0
VERTEX
  8
0
 10
385725.829600
 20
803131.871900
  0
VERTEX
  8
0
 10
385725.297700
 20
803132.718700
  0
VERTEX
  8
0
 10
385724.765800
 20
803133.565500
  0
VERTEX
  8
0
 10
385724.233900
 20
803134.412300
  0
VERTEX
  8
0
 10
385723.702000
 20
803135.259100
  0
VERTEX
  8
0
 10
385723.170100
 20
803136.105900
  0
VERTEX
  8
0
 10
385722.638200
 20
803136.952700
  0
VERTEX
  8
0
 10
385722.106300
 20
803137.799500
  0
VERTEX
  8
0
 10
385721.574400
 20
803138.646300
  0
VERTEX
  8
0
 10
385721.042400
 20
803139.493100
  0
VERTEX
  8
0
 10
385720.510500
 20
803140.339900
  0
VERTEX
  8
0
 10
385719.978600
 20
803141.186700
  0
VERTEX
  8
0
 10
385719.446700
 20
803142.033500
  0
VERTEX
  8
0
 10
385718.914800
 20
803142.880300
  0
VERTEX
  8
0
 10
385718.382900
 20
803143.727100
  0
VERTEX
  8
0
 10
385717.851000
 20
803144.573900
  0
VERTEX
  8
0
 10
385717.319100
 20
803145.420700
  0
VERTEX
  8
0
 10
385716.787200
 20
803146.267500
  0
VERTEX
  8
0
 10
385716.255300
 20
803147.114300
  0
VERTEX
  8
0
 10
385715.723400
 20
803147.961100
  0
VERTEX
  8
0
 10
385715.191400
 20
803148.807900
  0
VERTEX
  8
0
 10
385714.659500
 20
803149.654800
  0
VERTEX
  8
0
 10
385714.127600
 20
803150.501600
  0
VERTEX
  8
0
 10
385713.595700
 20
803151.348400
  0
VERTEX
  8
0
 10
385713.063800
 20
803152.195200
  0
VERTEX
  8
0
 10
385712.531900
 20
803153.042000
  0
VERTEX
  8
0
 10
385712.000000
 20
803153.888800
  0
VERTEX
  8
0
 10
385711.468100
 20
803154.735600
  0
VERTEX
  8
0
 10
385710.936200
 20
803155.582400
  0
VERTEX
  8
0
 10
385710.404300
 20
803156.429200
  0
VERTEX
  8
0
 10
385709.872400
 20
803157.276000
  0
VERTEX
  8
0
 10
385709.340400
 20
803158.122800
  0
VERTEX
  8
0
 10
385708.808500
 20
803158.969600
  0
VERTEX
  8
0
 10
385708.276600
 20
803159.816400
  0
VERTEX
  8
0
 10
385707.744700
 20
803160.663200
  0
VERTEX
  8
0
 10
385707.212800
 20
803161.510000
  0
VERTEX
  8
0
 10
385706.680900
 20
803162.356800
  0
VERTEX
  8
0
 10
385706.149000
 20
803163.203600
  0
VERTEX
  8
0
 10
385705.617100
 20
803164.050400
  0
VERTEX
  8
0
 10
385705.085200
 20
803164.897200
  0
VERTEX
  8
0
 10
385704.553300
 20
803165.744000
  0
VERTEX
  8
0
 10
385704.021300
 20
803166.590800
  0
VERTEX
  8
0
 10
385703.489400
 20
803167.437600
  0
VERTEX
  8
0
 10
385702.957500
 20
803168.284400
  0
VERTEX
  8
0
 10
385702.425600
 20
803169.131200
  0
VERTEX
  8
0
 10
385701.893700
 20
803169.978000
  0
VERTEX
  8
0
 10
385701.361800
 20
803170.824800
  0
VERTEX
  8
0
 10
385700.829900
 20
803171.671600
  0
VERTEX
  8
0
 10
385700.298000
 20
803172.518400
  0
VERTEX
  8
0
 10
385700.000000
 20
803172.992800
  0
SEQEND
  0
POLYLINE
  8
0
 62
4
  6
CONTINUOUS
 70
0
 66
1
 10
0.000000
 20
0.000000
  0
VERTEX
  8
0
 10
385707.721900
 20
803100.000000
  0
VERTEX
  8
0
 10
385707.506700
 20
803101.809100
  0
VERTEX
  8
0
 10
385706.964500
 20
803104.826000
  0
VERTEX
  8
0
 10
385706.170000
 20
803109.247300
  0
VERTEX
  8
0
 10
385704.804500
 20
803114.583200
  0
VERTEX
  8
0
 10
385703.043100
 20
803121.466500
  0
VERTEX
  8
0
 10
385701.910800
 20
803124.130800
  0
VERTEX
  8
0
 10
385700.000000
 20
803128.627100
  0
SEQEND
  0
POLYLINE
  8
0
 62
2
  6
CONTINUOUS
 70
0
 66
1
 10
0.000000
 20
0.000000
  0
VERTEX
  8
0
 10
385703.200400
 20
803100.000000
  0
VERTEX
  8
0
 10
385703.157900
 20
803100.369900
  0
VERTEX
  8
0
 10
385703.049100
 20
803101.062900
  0
VERTEX
  8
0
 10
385702.786000
 20
803102.738600
  0
VERTEX
  8
0
 10
385702.382400
 20
803105.309100
  0
VERTEX
  8
0
 10
385702.380300
 20
803105.319900
  0
VERTEX
  8
0
 10
385701.404100
 20
803110.212100
  0
VERTEX
  8
0
 10
385700.224600
 20
803115.070600
  0
VERTEX
  8
0
 10
385700.000000
 20
803115.853500
  0
SEQEND
  0
POLYLINE
  8
0
 62
1
  6
CONTINUOUS
 70
0
 66
1
 10
0.000000
 20
0.000000
  0
VERTEX
  8
0
 10
385714.651800
 20
803094.230800
  0
VERTEX
  8
0
 10
385735.557500
 20
803096.219400
  0
VERTEX
  8
0
 10
385756.463100
 20
803098.208100
  0
SEQEND
  0
POLYLINE
  8
0
 62
4
  6
CONTINUOUS
 70
0
 66
1
 10
0.000000
 20
0.000000
  0
VERTEX
  8
0
 10
385700.000000
 20
803128.627100
  0
VERTEX
  8
0
 10
385699.362600
 20
803130.127000
  0
VERTEX
  8
0
 10
385697.660300
 20
803133.167700
  0
VERTEX
  8
0
 10
385695.123700
 20
803137.698900
  0
VERTEX
  8
0
 10
385692.378000
 20
803141.644700
  0
VERTEX
  8
0
 10
385690.474500
 20
803144.380200
  0
VERTEX
  8
0
 10
385686.486200
 20
803149.723200
  0
VERTEX
  8
0
 10
385683.661400
 20
803153.507400
  0
VERTEX
  8
0
 10
385680.854100
 20
803157.976600
  0
VERTEX
  8
0
 10
385680.071300
 20
803159.222800
  0
VERTEX
  8
0
 10
385676.842200
 20
803164.740100
  0
VERTEX
  8
0
 10
385675.869300
 20
803166.637400
  0
VERTEX
  8
0
 10
385675.220500
 20
803169.046200
  0
VERTEX
  8
0
 10
385675.131200
 20
803171.539200
  0
VERTEX
  8
0
 10
385675.605800
 20
803173.988300
  0
VERTEX
  8
0
 10
385676.620100
 20
803176.267400
  0
VERTEX
  8
0
 10
385678.121800
 20
803178.259400
  0
VERTEX
  8
0
 10
385680.033800
 20
803179.861700
  0
VERTEX
  8
0
 10
385680.246900
 20
803179.999000
  0
SEQEND
  0
POLYLINE
  8
0
 62
1
  6
CONTINUOUS
 70
0
 66
1
 10
0.000000
 20
0.000000
  0
VERTEX
  8
0
 10
385708.933100
 20
803123.458900
  0
VERTEX
  8
0
 10
385726.361500
 20
803131.025100
  0
VERTEX
  8
0
 10
385743.790000
 20
803138.591400
  0
SEQEND
  0
POLYLINE
  8
0
 62
1
  6
CONTINUOUS
 70
0
 66
1
 10
0.000000
 20
0.000000
  0
VERTEX
  8
0
 10
385700.000000
 20
803141.546100
  0
VERTEX
  8
0
 10
385695.504700
 20
803148.006200
  0
VERTEX
  8
0
 10
385694.628100
 20
803149.180600
  0
VERTEX
  8
0
 10
385688.779000
 20
803157.016300
  0
VERTEX
  8
0
 10
385688.660900
 20
803157.204200
  0
VERTEX
  8
0
 10
385683.341800
 20
803165.672300
  0
VERTEX
  8
0
 10
385681.890800
 20
803167.982400
  0
VERTEX
  8
0
 10
385681.346200
 20
803169.128100
  0
VERTEX
  8
0
 10
385681.115300
 20
803171.101300
  0
VERTEX
  8
0
 10
385681.671000
 20
803173.008700
  0
VERTEX
  8
0
 10
385682.925700
 20
803174.549100
  0
VERTEX
  8
0
 10
385683.438300
 20
803174.918200
  0
VERTEX
  8
0
 10
385691.371000
 20
803179.901100
  0
VERTEX
  8
0
 10
385694.446600
 20
803181.833000
  0
SEQEND
  0
POLYLINE
  8
0
 62
1
  6
CONTINUOUS
 70
0
 66
1
 10
0.000000
 20
0.000000
  0
VERTEX
  8
0
 10
385688.778900
 20
803157.016400
  0
VERTEX
  8
0
 10
385697.246900
 20
803162.335500
  0
VERTEX
  8
0
 10
385700.000000
 20
803164.064800
  0
SEQEND
  0
POLYLINE
  8
0
 62
1
  6
CONTINUOUS
 70
0
 66
1
 10
0.000000
 20
0.000000
  0
VERTEX
  8
0
 10
385700.000000
 20
803164.064800
  0
VERTEX
  8
0
 10
385704.021300
 20
803166.590800
  0
VERTEX
  8
0
 10
385705.714900
 20
803167.654600
  0
VERTEX
  8
0
 10
385714.183000
 20
803172.973700
  0
VERTEX
  8
0
 10
385719.263800
 20
803176.165100
  0
SEQEND
  0
POLYLINE
  8
0
 62
4
  6
CONTINUOUS
 70
0
 66
1
 10
0.000000
 20
0.000000
  0
VERTEX
  8
0
 10
385680.246900
 20
803179.999000
  0
VERTEX
  8
0
 10
385688.714900
 20
803185.318100
  0
VERTEX
  8
0
 10
385691.319800
 20
803186.954400
  0
VERTEX
  8
0
 10
385695.236000
 20
803189.278200
  0
VERTEX
  8
0
 10
385697.463100
 20
803190.088900
  0
VERTEX
  8
0
 10
385699.914900
 20
803190.981500
  0
VERTEX
  8
0
 10
385700.000000
 20
803190.985000
  0
SEQEND
  0
POLYLINE
  8
0
 62
1
  6
CONTINUOUS
 70
0
 66
1
 10
0.000000
 20
0.000000
  0
VERTEX
  8
0
 10
385700.000000
 20
803172.992800
  0
VERTEX
  8
0
 10
385699.766100
 20
803173.365200
  0
VERTEX
  8
0
 10
385699.234200
 20
803174.212000
  0
VERTEX
  8
0
 10
385698.702300
 20
803175.058800
  0
VERTEX
  8
0
 10
385698.170300
 20
803175.905600
  0
VERTEX
  8
0
 10
385697.638400
 20
803176.752400
  0
VERTEX
  8
0
 10
385697.106500
 20
803177.599200
  0
VERTEX
  8
0
 10
385696.574600
 20
803178.446000
  0
VERTEX
  8
0
 10
385696.042700
 20
803179.292800
  0
VERTEX
  8
0
 10
385695.510800
 20
803180.139600
  0
VERTEX
  8
0
 10
385694.978900
 20
803180.986400
  0
VERTEX
  8
0
 10
385694.447000
 20
803181.833200
  0
SEQEND
  0
POLYLINE
  8
0
 62
1
  6
CONTINUOUS
 70
0
 66
1
 10
0.000000
 20
0.000000
  0
VERTEX
  8
0
 10
385694.447000
 20
803181.833200
  0
VERTEX
  8
0
 10
385697.815500
 20
803183.832000
  0
VERTEX
  8
0
 10
385700.000000
 20
803184.627300
  0
SEQEND
  0
POLYLINE
  8
0
 62
4
  6
CONTINUOUS
 70
0
 66
1
 10
0.000000
 20
0.000000
  0
VERTEX
  8
0
 10
385691.140300
 20
803190.937400
  0
VERTEX
  8
0
 10
385693.401800
 20
803192.103100
  0
VERTEX
  8
0
 10
385697.426600
 20
803193.392100
  0
VERTEX
  8
0
 10
385700.000000
 20
803193.720500
  0
SEQEND
  0
LINE
  8
0
 62
1
 10
385701.723300
 20
803000.000000
 11
385713.181600
 21
802992.410800
  0
LINE
  8
0
 62
1
 10
385688.170200
 20
803008.976600
 11
385700.000000
 21
803001.141400
  0
LINE
  8
0
 62
4
 10
385741.783100
 20
803022.018000
 11
385741.171900
 21
803021.308700
  0
LINE
  8
0
 62
4
 10
385742.919400
 20
803021.038800
 11
385742.308100
 21
803020.329500
  0
LINE
  8
0
 62
4
 10
385759.195600
 20
803053.883500
 11
385758.465700
 21
803052.930200
  0
LINE
  8
0
 62
6
 10
385705.709900
 20
803201.474900
 11
385707.811000
 21
803200.000000
  0
LINE
  8
0
 62
6
 10
385706.284400
 20
803202.293400
 11
385709.551500
 21
803200.000000
  0
ENDSEC
  0
EOF
