  0
SECTION
  2
HEADER
  9
$ACADVER
  1
AC1014
  9
$ACADMAINTVER
 70
     9
  9
$DWGCODEPAGE
  3
ANSI_1252
  9
$INSBASE
 10
0.0
 20
0.0
 30
0.0
  9
$EXTMIN
 10
9296.396642
 20
3931.258486
 30
1950.000057
  9
$EXTMAX
 10
9406.395403
 20
4014.480119
 30
1979.999938
  9
$LIMMIN
 10
0.0
 20
0.0
  9
$LIMMAX
 10
12.0
 20
9.0
  9
$ORTHOMODE
 70
     0
  9
$REGENMODE
 70
     1
  9
$FILLMODE
 70
     1
  9
$QTEXTMODE
 70
     0
  9
$MIRRTEXT
 70
     1
  9
$DRAGMODE
 70
     2
  9
$LTSCALE
 40
1.0
  9
$OSMODE
 70
    37
  9
$ATTMODE
 70
     1
  9
$TEXTSIZE
 40
0.2
  9
$TRACEWID
 40
0.05
  9
$TEXTSTYLE
  7
STANDARD
  9
$CLAYER
  8
0
  9
$CELTYPE
  6
BYLAYER
  9
$CECOLOR
 62
   256
  9
$CELTSCALE
 40
1.0
  9
$DELOBJ
 70
     1
  9
$DISPSILH
 70
     0
  9
$DIMSCALE
 40
1.0
  9
$DIMASZ
 40
0.18
  9
$DIMEXO
 40
0.0625
  9
$DIMDLI
 40
0.38
  9
$DIMRND
 40
0.0
  9
$DIMDLE
 40
0.0
  9
$DIMEXE
 40
0.18
  9
$DIMTP
 40
0.0
  9
$DIMTM
 40
0.0
  9
$DIMTXT
 40
0.18
  9
$DIMCEN
 40
0.09
  9
$DIMTSZ
 40
0.0
  9
$DIMTOL
 70
     0
  9
$DIMLIM
 70
     0
  9
$DIMTIH
 70
     1
  9
$DIMTOH
 70
     1
  9
$DIMSE1
 70
     0
  9
$DIMSE2
 70
     0
  9
$DIMTAD
 70
     0
  9
$DIMZIN
 70
     0
  9
$DIMBLK
  1

  9
$DIMASO
 70
     1
  9
$DIMSHO
 70
     1
  9
$DIMPOST
  1

  9
$DIMAPOST
  1

  9
$DIMALT
 70
     0
  9
$DIMALTD
 70
     2
  9
$DIMALTF
 40
25.4
  9
$DIMLFAC
 40
1.0
  9
$DIMTOFL
 70
     0
  9
$DIMTVP
 40
0.0
  9
$DIMTIX
 70
     0
  9
$DIMSOXD
 70
     0
  9
$DIMSAH
 70
     0
  9
$DIMBLK1
  1

  9
$DIMBLK2
  1

  9
$DIMSTYLE
  2
STANDARD
  9
$DIMCLRD
 70
     0
  9
$DIMCLRE
 70
     0
  9
$DIMCLRT
 70
     0
  9
$DIMTFAC
 40
1.0
  9
$DIMGAP
 40
0.09
  9
$DIMJUST
 70
     0
  9
$DIMSD1
 70
     0
  9
$DIMSD2
 70
     0
  9
$DIMTOLJ
 70
     1
  9
$DIMTZIN
 70
     0
  9
$DIMALTZ
 70
     0
  9
$DIMALTTZ
 70
     0
  9
$DIMFIT
 70
     3
  9
$DIMUPT
 70
     0
  9
$DIMUNIT
 70
     2
  9
$DIMDEC
 70
     4
  9
$DIMTDEC
 70
     4
  9
$DIMALTU
 70
     2
  9
$DIMALTTD
 70
     2
  9
$DIMTXSTY
  7
STANDARD
  9
$DIMAUNIT
 70
     0
  9
$LUNITS
 70
     2
  9
$LUPREC
 70
     4
  9
$SKETCHINC
 40
0.1
  9
$FILLETRAD
 40
0.5
  9
$AUNITS
 70
     0
  9
$AUPREC
 70
     0
  9
$MENU
  1
.
  9
$ELEVATION
 40
0.0
  9
$PELEVATION
 40
0.0
  9
$THICKNESS
 40
0.0
  9
$LIMCHECK
 70
     0
  9
$CHAMFERA
 40
0.5
  9
$CHAMFERB
 40
0.5
  9
$CHAMFERC
 40
1.0
  9
$CHAMFERD
 40
0.0
  9
$SKPOLY
 70
     0
  9
$TDCREATE
 40
2456233.475825197
  9
$TDUPDATE
 40
2456233.475825926
  9
$TDINDWG
 40
0.0000000116
  9
$TDUSRTIMER
 40
0.0000000116
  9
$USRTIMER
 70
     1
  9
$ANGBASE
 50
0.0
  9
$ANGDIR
 70
     0
  9
$PDMODE
 70
     0
  9
$PDSIZE
 40
0.0
  9
$PLINEWID
 40
0.0
  9
$COORDS
 70
     1
  9
$SPLFRAME
 70
     0
  9
$SPLINETYPE
 70
     6
  9
$SPLINESEGS
 70
     8
  9
$ATTDIA
 70
     0
  9
$ATTREQ
 70
     1
  9
$HANDLING
 70
     1
  9
$HANDSEED
  5
16A
  9
$SURFTAB1
 70
     6
  9
$SURFTAB2
 70
     6
  9
$SURFTYPE
 70
     6
  9
$SURFU
 70
     6
  9
$SURFV
 70
     6
  9
$UCSNAME
  2

  9
$UCSORG
 10
0.0
 20
0.0
 30
0.0
  9
$UCSXDIR
 10
1.0
 20
0.0
 30
0.0
  9
$UCSYDIR
 10
0.0
 20
1.0
 30
0.0
  9
$PUCSNAME
  2

  9
$PUCSORG
 10
0.0
 20
0.0
 30
0.0
  9
$PUCSXDIR
 10
1.0
 20
0.0
 30
0.0
  9
$PUCSYDIR
 10
0.0
 20
1.0
 30
0.0
  9
$USERI1
 70
     0
  9
$USERI2
 70
     0
  9
$USERI3
 70
     0
  9
$USERI4
 70
     0
  9
$USERI5
 70
     0
  9
$USERR1
 40
0.0
  9
$USERR2
 40
0.0
  9
$USERR3
 40
0.0
  9
$USERR4
 40
0.0
  9
$USERR5
 40
0.0
  9
$WORLDVIEW
 70
     1
  9
$SHADEDGE
 70
     3
  9
$SHADEDIF
 70
    70
  9
$TILEMODE
 70
     1
  9
$MAXACTVP
 70
    64
  9
$PINSBASE
 10
0.0
 20
0.0
 30
0.0
  9
$PLIMCHECK
 70
     0
  9
$PEXTMIN
 10
1.000000E+20
 20
1.000000E+20
 30
1.000000E+20
  9
$PEXTMAX
 10
-1.000000E+20
 20
-1.000000E+20
 30
-1.000000E+20
  9
$PLIMMIN
 10
0.0
 20
0.0
  9
$PLIMMAX
 10
12.0
 20
9.0
  9
$UNITMODE
 70
     0
  9
$VISRETAIN
 70
     1
  9
$PLINEGEN
 70
     0
  9
$PSLTSCALE
 70
     1
  9
$TREEDEPTH
 70
  3020
  9
$PICKSTYLE
 70
     1
  9
$CMLSTYLE
  2
STANDARD
  9
$CMLJUST
 70
     0
  9
$CMLSCALE
 40
1.0
  9
$PROXYGRAPHICS
 70
     1
  9
$MEASUREMENT
 70
     0
  0
ENDSEC
  0
SECTION
  2
CLASSES
  0
CLASS
  1
ACDBDICTIONARYWDFLT
  2
AcDbDictionaryWithDefault
  3
ObjectDBX Classes
 90
        0
280
     0
281
     0
  0
CLASS
  1
VISUALSTYLE
  2
AcDbVisualStyle
  3
ObjectDBX Classes
 90
     4095
280
     0
281
     0
  0
CLASS
  1
MATERIAL
  2
AcDbMaterial
  3
ObjectDBX Classes
 90
     1153
280
     0
281
     0
  0
CLASS
  1
SUN
  2
AcDbSun
  3
SCENEOE
 90
     1024
280
     0
281
     0
  0
CLASS
  1
DICTIONARYVAR
  2
AcDbDictionaryVar
  3
ObjectDBX Classes
 90
        0
280
     0
281
     0
  0
CLASS
  1
XRECORD
  2
AcDbXrecord
  3
AutoCAD 2000
 90
        0
280
     0
281
     0
  0
CLASS
  1
LWPOLYLINE
  2
AcDbPolyline
  3
AutoCAD 2000
 90
        0
280
     0
281
     1
  0
CLASS
  1
HATCH
  2
AcDbHatch
  3
AutoCAD 2000
 90
        0
280
     0
281
     1
  0
CLASS
  1
ACDBPLACEHOLDER
  2
AcDbPlaceHolder
  3
ObjectDBX Classes
 90
        0
280
     0
281
     0
  0
CLASS
  1
LAYOUT
  2
AcDbLayout
  3
ObjectDBX Classes
 90
        0
280
     0
281
     0
  0
ENDSEC
  0
SECTION
  2
TABLES
  0
TABLE
  2
VPORT
  5
8
330
0
100
AcDbSymbolTable
 70
     1
  0
VPORT
  5
29
330
8
100
AcDbSymbolTableRecord
100
AcDbViewportTableRecord
  2
*ACTIVE
 70
     0
 10
0.0
 20
0.0
 11
1.0
 21
1.0
 12
10.429907
 22
4.5
 13
0.0
 23
0.0
 14
0.5
 24
0.5
 15
0.5
 25
0.5
 16
0.0
 26
0.0
 36
1.0
 17
0.0
 27
0.0
 37
0.0
 40
9.0
 41
1.972973
 42
50.0
 43
0.0
 44
0.0
 50
0.0
 51
0.0
 71
     0
 72
   100
 73
     1
 74
     3
 75
     0
 76
     0
 77
     0
 78
     0
  0
ENDTAB
  0
TABLE
  2
LTYPE
  5
5
330
0
100
AcDbSymbolTable
 70
     1
  0
LTYPE
  5
14
330
5
100
AcDbSymbolTableRecord
100
AcDbLinetypeTableRecord
  2
BYBLOCK
 70
     0
  3

 72
    65
 73
     0
 40
0.0
  0
LTYPE
  5
15
330
5
100
AcDbSymbolTableRecord
100
AcDbLinetypeTableRecord
  2
BYLAYER
 70
     0
  3

 72
    65
 73
     0
 40
0.0
  0
LTYPE
  5
16
330
5
100
AcDbSymbolTableRecord
100
AcDbLinetypeTableRecord
  2
CONTINUOUS
 70
     0
  3
Solid line
 72
    65
 73
     0
 40
0.0
  0
ENDTAB
  0
TABLE
  2
LAYER
  5
2
330
0
100
AcDbSymbolTable
 70
     2
  0
LAYER
  5
10
330
2
100
AcDbSymbolTableRecord
100
AcDbLayerTableRecord
  2
0
 70
     0
 62
     7
  6
CONTINUOUS
  0
LAYER
  5
43
330
2
100
AcDbSymbolTableRecord
100
AcDbLayerTableRecord
  2
BUILDING_PAD
 70
     0
 62
     7
  6
CONTINUOUS
  0
ENDTAB
  0
TABLE
  2
STYLE
  5
3
330
0
100
AcDbSymbolTable
 70
     1
  0
STYLE
  5
11
330
3
100
AcDbSymbolTableRecord
100
AcDbTextStyleTableRecord
  2
STANDARD
 70
     0
 40
0.0
 41
1.0
 50
0.0
 71
     0
 42
0.2
  3
txt
  4

  0
ENDTAB
  0
TABLE
  2
VIEW
  5
6
330
0
100
AcDbSymbolTable
 70
     0
  0
ENDTAB
  0
TABLE
  2
UCS
  5
7
330
0
100
AcDbSymbolTable
 70
     0
  0
ENDTAB
  0
TABLE
  2
APPID
  5
9
330
0
100
AcDbSymbolTable
 70
     3
  0
APPID
  5
12
330
9
100
AcDbSymbolTableRecord
100
AcDbRegAppTableRecord
  2
ACAD
 70
     0
  0
APPID
  5
40
330
9
100
AcDbSymbolTableRecord
100
AcDbRegAppTableRecord
  2
TRIMBLENAME
 70
     0
  0
APPID
  5
41
330
9
100
AcDbSymbolTableRecord
100
AcDbRegAppTableRecord
  2
TRIMBLEBNDYTYPE
 70
     0
  0
ENDTAB
  0
TABLE
  2
DIMSTYLE
  5
A
330
0
100
AcDbSymbolTable
 70
     1
  0
DIMSTYLE
105
27
330
A
100
AcDbSymbolTableRecord
100
AcDbDimStyleTableRecord
  2
STANDARD
 70
     0
  3

  4

  5

  6

  7

 40
1.0
 41
0.18
 42
0.0625
 43
0.38
 44
0.18
 45
0.0
 46
0.0
 47
0.0
 48
0.0
140
0.18
141
0.09
142
0.0
143
25.4
144
1.0
145
0.0
146
1.0
147
0.09
 71
     0
 72
     0
 73
     1
 74
     1
 75
     0
 76
     0
 77
     0
 78
     0
170
     0
171
     2
172
     0
173
     0
174
     0
175
     0
176
     0
177
     0
178
     0
270
     2
271
     4
272
     4
273
     2
274
     2
340
11
275
     0
280
     0
281
     0
282
     0
283
     1
284
     0
285
     0
286
     0
287
     3
288
     0
  0
ENDTAB
  0
TABLE
  2
BLOCK_RECORD
  5
1
330
0
100
AcDbSymbolTable
 70
     1
  0
BLOCK_RECORD
  5
1F
330
1
100
AcDbSymbolTableRecord
100
AcDbBlockTableRecord
  2
*MODEL_SPACE
  0
BLOCK_RECORD
  5
1B
330
1
100
AcDbSymbolTableRecord
100
AcDbBlockTableRecord
  2
*PAPER_SPACE
  0
ENDTAB
  0
ENDSEC
  0
SECTION
  2
BLOCKS
  0
BLOCK
  5
20
330
1F
100
AcDbEntity
  8
0
100
AcDbBlockBegin
  2
*MODEL_SPACE
 70
     0
 10
0.0
 20
0.0
 30
0.0
  3
*MODEL_SPACE
  1

  0
ENDBLK
  5
21
330
1F
100
AcDbEntity
  8
0
100
AcDbBlockEnd
  0
BLOCK
  5
1C
330
1B
100
AcDbEntity
 67
     1
  8
0
100
AcDbBlockBegin
  2
*PAPER_SPACE
 70
     0
 10
0.0
 20
0.0
 30
0.0
  3
*PAPER_SPACE
  1

  0
ENDBLK
  5
1D
330
1B
100
AcDbEntity
 67
     1
  8
0
100
AcDbBlockEnd
  0
ENDSEC
  0
SECTION
  2
ENTITIES
  0
3DFACE
  5
42
330
1F
100
AcDbEntity
  8
BUILDING_PAD
 62
     8
100
AcDbFace
 10
9397.999715
 20
3931.454118
 30
1979.999938
 11
9395.521591
 21
3931.64975
 31
1979.999938
 12
9399.180196
 22
3946.407595
 32
1965.000097
 13
9397.999715
 23
3931.454118
 33
1979.999938
  0
3DFACE
  5
44
330
1F
100
AcDbEntity
  8
BUILDING_PAD
 62
     8
100
AcDbFace
 10
9385.609096
 20
3932.432278
 30
1979.999938
 11
9383.130972
 21
3932.62791
 31
1979.999938
 12
9386.789577
 22
3947.385754
 32
1965.000097
 13
9385.609096
 23
3932.432278
 33
1979.999938
  0
3DFACE
  5
45
330
1F
100
AcDbEntity
  8
BUILDING_PAD
 62
     8
100
AcDbFace
 10
9373.218477
 20
3933.410438
 30
1979.999938
 11
9370.740354
 21
3933.606069
 31
1979.999938
 12
9374.398958
 22
3948.363914
 32
1965.000097
 13
9373.218477
 23
3933.410438
 33
1979.999938
  0
3DFACE
  5
46
330
1F
100
AcDbEntity
  8
BUILDING_PAD
 62
     8
100
AcDbFace
 10
9360.827859
 20
3934.388597
 30
1979.999938
 11
9358.349735
 21
3934.584229
 31
1979.999938
 12
9362.00834
 22
3949.342074
 32
1965.000097
 13
9360.827859
 23
3934.388597
 33
1979.999938
  0
3DFACE
  5
47
330
1F
100
AcDbEntity
  8
BUILDING_PAD
 62
     8
100
AcDbFace
 10
9348.43724
 20
3935.366757
 30
1979.999938
 11
9345.959116
 21
3935.562389
 31
1979.999938
 12
9349.617721
 22
3950.320234
 32
1965.000097
 13
9348.43724
 23
3935.366757
 33
1979.999938
  0
3DFACE
  5
48
330
1F
100
AcDbEntity
  8
BUILDING_PAD
 62
     8
100
AcDbFace
 10
9336.046621
 20
3936.344917
 30
1979.999938
 11
9333.568498
 21
3936.540549
 31
1979.999938
 12
9337.227102
 22
3951.298394
 32
1965.000097
 13
9336.046621
 23
3936.344917
 33
1979.999938
  0
3DFACE
  5
49
330
1F
100
AcDbEntity
  8
BUILDING_PAD
 62
     8
100
AcDbFace
 10
9323.656003
 20
3937.323077
 30
1979.999938
 11
9321.177879
 21
3937.518709
 31
1979.999938
 12
9324.836484
 22
3952.276553
 32
1965.000097
 13
9323.656003
 23
3937.323077
 33
1979.999938
  0
3DFACE
  5
4A
330
1F
100
AcDbEntity
  8
BUILDING_PAD
 62
     8
100
AcDbFace
 10
9311.265384
 20
3938.301237
 30
1979.999938
 11
9308.78726
 21
3938.496869
 31
1979.999938
 12
9312.445865
 22
3953.254713
 32
1965.000097
 13
9311.265384
 23
3938.301237
 33
1979.999938
  0
3DFACE
  5
4B
330
1F
100
AcDbEntity
  8
BUILDING_PAD
 62
     8
100
AcDbFace
 10
9298.874765
 20
3939.279396
 30
1979.999938
 11
9296.396642
 21
3939.475028
 31
1979.999938
 12
9300.055246
 22
3954.232873
 32
1965.000097
 13
9298.874765
 23
3939.279396
 33
1979.999938
  0
3DFACE
  5
4C
330
1F
100
AcDbEntity
  8
BUILDING_PAD
 62
     8
100
AcDbFace
 10
9309.211251
 20
4013.88996
 30
1950.000057
 11
9311.703153
 21
4013.693241
 31
1950.000057
 12
9308.03077
 22
3998.936484
 32
1965.000097
 13
9309.211251
 23
4013.88996
 33
1950.000057
  0
3DFACE
  5
4D
330
1F
100
AcDbEntity
  8
BUILDING_PAD
 62
     8
100
AcDbFace
 10
9321.670758
 20
4012.906362
 30
1950.000057
 11
9324.162659
 21
4012.709643
 31
1950.000057
 12
9320.490277
 22
3997.952886
 32
1965.000097
 13
9321.670758
 23
4012.906362
 33
1950.000057
  0
3DFACE
  5
4E
330
1F
100
AcDbEntity
  8
BUILDING_PAD
 62
     8
100
AcDbFace
 10
9334.130265
 20
4011.922764
 30
1950.000057
 11
9336.622166
 21
4011.726045
 31
1950.000057
 12
9332.949784
 22
3996.969288
 32
1965.000097
 13
9334.130265
 23
4011.922764
 33
1950.000057
  0
3DFACE
  5
4F
330
1F
100
AcDbEntity
  8
BUILDING_PAD
 62
     8
100
AcDbFace
 10
9346.589771
 20
4010.939166
 30
1950.000057
 11
9349.081672
 21
4010.742446
 31
1950.000057
 12
9345.40929
 22
3995.985689
 32
1965.000097
 13
9346.589771
 23
4010.939166
 33
1950.000057
  0
3DFACE
  5
50
330
1F
100
AcDbEntity
  8
BUILDING_PAD
 62
     8
100
AcDbFace
 10
9359.049278
 20
4009.955568
 30
1950.000057
 11
9361.541179
 21
4009.758848
 31
1950.000057
 12
9357.868797
 22
3995.002091
 32
1965.000097
 13
9359.049278
 23
4009.955568
 33
1950.000057
  0
3DFACE
  5
51
330
1F
100
AcDbEntity
  8
BUILDING_PAD
 62
     8
100
AcDbFace
 10
9371.508784
 20
4008.97197
 30
1950.000057
 11
9374.000686
 21
4008.77525
 31
1950.000057
 12
9370.328303
 22
3994.018493
 32
1965.000097
 13
9371.508784
 23
4008.97197
 33
1950.000057
  0
3DFACE
  5
52
330
1F
100
AcDbEntity
  8
BUILDING_PAD
 62
     8
100
AcDbFace
 10
9383.968291
 20
4007.988372
 30
1950.000057
 11
9386.460192
 21
4007.791652
 31
1950.000057
 12
9382.78781
 22
3993.034895
 32
1965.000097
 13
9383.968291
 23
4007.988372
 33
1950.000057
  0
3DFACE
  5
53
330
1F
100
AcDbEntity
  8
BUILDING_PAD
 62
     8
100
AcDbFace
 10
9396.427798
 20
4007.004774
 30
1950.000057
 11
9398.919699
 21
4006.808054
 31
1950.000057
 12
9395.247317
 22
3992.051297
 32
1965.000097
 13
9396.427798
 23
4007.004774
 33
1950.000057
  0
3DFACE
  5
54
330
1F
100
AcDbEntity
  8
BUILDING_PAD
 62
     8
100
AcDbFace
 10
9399.180196
 20
3946.407595
 30
1965.000097
 11
9402.72302
 21
3991.461138
 31
1965.000097
 12
9405.214922
 22
3991.264419
 32
1965.000097
 13
9399.180196
 23
3946.407595
 33
1965.000097
  0
3DFACE
  5
55
330
1F
100
AcDbEntity
  8
BUILDING_PAD
 62
     8
100
AcDbFace
 10
9397.999715
 20
3931.454118
 30
1979.999938
 11
9401.65832
 21
3946.211963
 31
1965.000097
 12
9400.477839
 22
3931.258486
 32
1979.999938
 13
9397.999715
 23
3931.454118
 33
1979.999938
  0
3DFACE
  5
56
330
1F
100
AcDbEntity
  8
BUILDING_PAD
 62
     8
100
AcDbFace
 10
9386.789577
 20
3947.385754
 30
1965.000097
 11
9383.130972
 21
3932.62791
 31
1979.999938
 12
9384.311453
 22
3947.581386
 32
1965.000097
 13
9386.789577
 23
3947.385754
 33
1965.000097
  0
3DFACE
  5
57
330
1F
100
AcDbEntity
  8
BUILDING_PAD
 62
     8
100
AcDbFace
 10
9386.789577
 20
3947.385754
 30
1965.000097
 11
9384.311453
 21
3947.581386
 31
1965.000097
 12
9390.263514
 22
3992.444736
 32
1965.000097
 13
9386.789577
 23
3947.385754
 33
1965.000097
  0
3DFACE
  5
58
330
1F
100
AcDbEntity
  8
BUILDING_PAD
 62
     8
100
AcDbFace
 10
9374.398958
 20
3948.363914
 30
1965.000097
 11
9370.740354
 21
3933.606069
 31
1979.999938
 12
9371.920835
 22
3948.559546
 32
1965.000097
 13
9374.398958
 23
3948.363914
 33
1965.000097
  0
3DFACE
  5
59
330
1F
100
AcDbEntity
  8
BUILDING_PAD
 62
     8
100
AcDbFace
 10
9374.398958
 20
3948.363914
 30
1965.000097
 11
9371.920835
 21
3948.559546
 31
1965.000097
 12
9377.804007
 22
3993.428334
 32
1965.000097
 13
9374.398958
 23
3948.363914
 33
1965.000097
  0
3DFACE
  5
5A
330
1F
100
AcDbEntity
  8
BUILDING_PAD
 62
     8
100
AcDbFace
 10
9362.00834
 20
3949.342074
 30
1965.000097
 11
9365.344501
 21
3994.411932
 31
1965.000097
 12
9367.836402
 22
3994.215213
 32
1965.000097
 13
9362.00834
 23
3949.342074
 33
1965.000097
  0
3DFACE
  5
5B
330
1F
100
AcDbEntity
  8
BUILDING_PAD
 62
     8
100
AcDbFace
 10
9360.827859
 20
3934.388597
 30
1979.999938
 11
9364.486464
 21
3949.146442
 31
1965.000097
 12
9363.305983
 22
3934.192965
 32
1979.999938
 13
9360.827859
 23
3934.388597
 33
1979.999938
  0
3DFACE
  5
5C
330
1F
100
AcDbEntity
  8
BUILDING_PAD
 62
     8
100
AcDbFace
 10
9349.617721
 20
3950.320234
 30
1965.000097
 11
9345.959116
 21
3935.562389
 31
1979.999938
 12
9347.139597
 22
3950.515866
 32
1965.000097
 13
9349.617721
 23
3950.320234
 33
1965.000097
  0
3DFACE
  5
5D
330
1F
100
AcDbEntity
  8
BUILDING_PAD
 62
     8
100
AcDbFace
 10
9349.617721
 20
3950.320234
 30
1965.000097
 11
9347.139597
 21
3950.515866
 31
1965.000097
 12
9352.884994
 22
3995.395531
 32
1965.000097
 13
9349.617721
 23
3950.320234
 33
1965.000097
  0
3DFACE
  5
5E
330
1F
100
AcDbEntity
  8
BUILDING_PAD
 62
     8
100
AcDbFace
 10
9337.227102
 20
3951.298394
 30
1965.000097
 11
9333.568498
 21
3936.540549
 31
1979.999938
 12
9334.748979
 22
3951.494026
 32
1965.000097
 13
9337.227102
 23
3951.298394
 33
1965.000097
  0
3DFACE
  5
5F
330
1F
100
AcDbEntity
  8
BUILDING_PAD
 62
     8
100
AcDbFace
 10
9337.227102
 20
3951.298394
 30
1965.000097
 11
9334.748979
 21
3951.494026
 31
1965.000097
 12
9340.425487
 22
3996.379129
 32
1965.000097
 13
9337.227102
 23
3951.298394
 33
1965.000097
  0
3DFACE
  5
60
330
1F
100
AcDbEntity
  8
BUILDING_PAD
 62
     8
100
AcDbFace
 10
9324.836484
 20
3952.276553
 30
1965.000097
 11
9327.965981
 21
3997.362727
 31
1965.000097
 12
9330.457882
 22
3997.166007
 32
1965.000097
 13
9324.836484
 23
3952.276553
 33
1965.000097
  0
3DFACE
  5
61
330
1F
100
AcDbEntity
  8
BUILDING_PAD
 62
     8
100
AcDbFace
 10
9323.656003
 20
3937.323077
 30
1979.999938
 11
9327.314608
 21
3952.080922
 31
1965.000097
 12
9326.134127
 22
3937.127445
 32
1979.999938
 13
9323.656003
 23
3937.323077
 33
1979.999938
  0
3DFACE
  5
62
330
1F
100
AcDbEntity
  8
BUILDING_PAD
 62
     8
100
AcDbFace
 10
9312.445865
 20
3953.254713
 30
1965.000097
 11
9315.506474
 21
3998.346325
 31
1965.000097
 12
9317.998376
 22
3998.149605
 32
1965.000097
 13
9312.445865
 23
3953.254713
 33
1965.000097
  0
3DFACE
  5
63
330
1F
100
AcDbEntity
  8
BUILDING_PAD
 62
     8
100
AcDbFace
 10
9311.265384
 20
3938.301237
 30
1979.999938
 11
9314.923989
 21
3953.059081
 31
1965.000097
 12
9313.743508
 22
3938.105605
 32
1979.999938
 13
9311.265384
 23
3938.301237
 33
1979.999938
  0
3DFACE
  5
64
330
1F
100
AcDbEntity
  8
BUILDING_PAD
 62
     8
100
AcDbFace
 10
9300.055246
 20
3954.232873
 30
1965.000097
 11
9296.396642
 21
3939.475028
 31
1979.999938
 12
9297.577123
 22
3954.428505
 32
1965.000097
 13
9300.055246
 23
3954.232873
 33
1965.000097
  0
3DFACE
  5
65
330
1F
100
AcDbEntity
  8
BUILDING_PAD
 62
     8
100
AcDbFace
 10
9300.055246
 20
3954.232873
 30
1965.000097
 11
9297.577123
 21
3954.428505
 31
1965.000097
 12
9303.046968
 22
3999.329923
 32
1965.000097
 13
9300.055246
 23
3954.232873
 33
1965.000097
  0
3DFACE
  5
66
330
1F
100
AcDbEntity
  8
BUILDING_PAD
 62
     8
100
AcDbFace
 10
9308.03077
 20
3998.936484
 30
1965.000097
 11
9311.703153
 21
4013.693241
 31
1950.000057
 12
9310.522672
 22
3998.739764
 32
1965.000097
 13
9308.03077
 23
3998.936484
 33
1965.000097
  0
3DFACE
  5
67
330
1F
100
AcDbEntity
  8
BUILDING_PAD
 62
     8
100
AcDbFace
 10
9308.03077
 20
3998.936484
 30
1965.000097
 11
9310.522672
 21
3998.739764
 31
1965.000097
 12
9305.011494
 22
3953.841609
 32
1965.000097
 13
9308.03077
 23
3998.936484
 33
1965.000097
  0
3DFACE
  5
68
330
1F
100
AcDbEntity
  8
BUILDING_PAD
 62
     8
100
AcDbFace
 10
9320.490277
 20
3997.952886
 30
1965.000097
 11
9324.162659
 21
4012.709643
 31
1950.000057
 12
9322.982178
 22
3997.756166
 32
1965.000097
 13
9320.490277
 23
3997.952886
 33
1965.000097
  0
3DFACE
  5
69
330
1F
100
AcDbEntity
  8
BUILDING_PAD
 62
     8
100
AcDbFace
 10
9320.490277
 20
3997.952886
 30
1965.000097
 11
9322.982178
 21
3997.756166
 31
1965.000097
 12
9317.402113
 22
3952.863449
 32
1965.000097
 13
9320.490277
 23
3997.952886
 33
1965.000097
  0
3DFACE
  5
6A
330
1F
100
AcDbEntity
  8
BUILDING_PAD
 62
     8
100
AcDbFace
 10
9332.949784
 20
3996.969288
 30
1965.000097
 11
9336.622166
 21
4011.726045
 31
1950.000057
 12
9335.441685
 22
3996.772568
 32
1965.000097
 13
9332.949784
 23
3996.969288
 33
1965.000097
  0
3DFACE
  5
6B
330
1F
100
AcDbEntity
  8
BUILDING_PAD
 62
     8
100
AcDbFace
 10
9332.949784
 20
3996.969288
 30
1965.000097
 11
9335.441685
 21
3996.772568
 31
1965.000097
 12
9329.792731
 22
3951.88529
 32
1965.000097
 13
9332.949784
 23
3996.969288
 33
1965.000097
  0
3DFACE
  5
6C
330
1F
100
AcDbEntity
  8
BUILDING_PAD
 62
     8
100
AcDbFace
 10
9345.40929
 20
3995.985689
 30
1965.000097
 11
9342.18335
 21
3950.90713
 31
1965.000097
 12
9339.705226
 22
3951.102762
 32
1965.000097
 13
9345.40929
 23
3995.985689
 33
1965.000097
  0
3DFACE
  5
6D
330
1F
100
AcDbEntity
  8
BUILDING_PAD
 62
     8
100
AcDbFace
 10
9346.589771
 20
4010.939166
 30
1950.000057
 11
9342.917389
 21
3996.182409
 31
1965.000097
 12
9344.09787
 22
4011.135886
 32
1950.000057
 13
9346.589771
 23
4010.939166
 33
1950.000057
  0
3DFACE
  5
6E
330
1F
100
AcDbEntity
  8
BUILDING_PAD
 62
     8
100
AcDbFace
 10
9357.868797
 20
3995.002091
 30
1965.000097
 11
9354.573969
 21
3949.92897
 31
1965.000097
 12
9352.095845
 22
3950.124602
 32
1965.000097
 13
9357.868797
 23
3995.002091
 33
1965.000097
  0
3DFACE
  5
6F
330
1F
100
AcDbEntity
  8
BUILDING_PAD
 62
     8
100
AcDbFace
 10
9359.049278
 20
4009.955568
 30
1950.000057
 11
9355.376895
 21
3995.198811
 31
1965.000097
 12
9356.557376
 22
4010.152288
 32
1950.000057
 13
9359.049278
 23
4009.955568
 33
1950.000057
  0
3DFACE
  5
70
330
1F
100
AcDbEntity
  8
BUILDING_PAD
 62
     8
100
AcDbFace
 10
9370.328303
 20
3994.018493
 30
1965.000097
 11
9366.964587
 21
3948.95081
 31
1965.000097
 12
9364.486464
 22
3949.146442
 32
1965.000097
 13
9370.328303
 23
3994.018493
 33
1965.000097
  0
3DFACE
  5
71
330
1F
100
AcDbEntity
  8
BUILDING_PAD
 62
     8
100
AcDbFace
 10
9371.508784
 20
4008.97197
 30
1950.000057
 11
9367.836402
 21
3994.215213
 31
1965.000097
 12
9369.016883
 22
4009.16869
 32
1950.000057
 13
9371.508784
 23
4008.97197
 33
1950.000057
  0
3DFACE
  5
72
330
1F
100
AcDbEntity
  8
BUILDING_PAD
 62
     8
100
AcDbFace
 10
9382.78781
 20
3993.034895
 30
1965.000097
 11
9386.460192
 21
4007.791652
 31
1950.000057
 12
9385.279711
 22
3992.838176
 32
1965.000097
 13
9382.78781
 23
3993.034895
 33
1965.000097
  0
3DFACE
  5
73
330
1F
100
AcDbEntity
  8
BUILDING_PAD
 62
     8
100
AcDbFace
 10
9382.78781
 20
3993.034895
 30
1965.000097
 11
9385.279711
 21
3992.838176
 31
1965.000097
 12
9379.355206
 22
3947.97265
 32
1965.000097
 13
9382.78781
 23
3993.034895
 33
1965.000097
  0
3DFACE
  5
74
330
1F
100
AcDbEntity
  8
BUILDING_PAD
 62
     8
100
AcDbFace
 10
9395.247317
 20
3992.051297
 30
1965.000097
 11
9391.745825
 21
3946.99449
 31
1965.000097
 12
9389.267701
 22
3947.190122
 32
1965.000097
 13
9395.247317
 23
3992.051297
 33
1965.000097
  0
3DFACE
  5
75
330
1F
100
AcDbEntity
  8
BUILDING_PAD
 62
     8
100
AcDbFace
 10
9396.427798
 20
4007.004774
 30
1950.000057
 11
9392.755415
 21
3992.248017
 31
1965.000097
 12
9393.935896
 22
4007.201493
 32
1950.000057
 13
9396.427798
 23
4007.004774
 33
1950.000057
  0
3DFACE
  5
76
330
1F
100
AcDbEntity
  8
BUILDING_PAD
 62
     8
100
AcDbFace
 10
9395.521591
 20
3931.64975
 30
1979.999938
 11
9393.043467
 21
3931.845382
 31
1979.999938
 12
9396.702072
 22
3946.603227
 32
1965.000097
 13
9395.521591
 23
3931.64975
 33
1979.999938
  0
3DFACE
  5
77
330
1F
100
AcDbEntity
  8
BUILDING_PAD
 62
     8
100
AcDbFace
 10
9383.130972
 20
3932.62791
 30
1979.999938
 11
9380.652849
 21
3932.823542
 31
1979.999938
 12
9384.311453
 22
3947.581386
 32
1965.000097
 13
9383.130972
 23
3932.62791
 33
1979.999938
  0
3DFACE
  5
78
330
1F
100
AcDbEntity
  8
BUILDING_PAD
 62
     8
100
AcDbFace
 10
9370.740354
 20
3933.606069
 30
1979.999938
 11
9368.26223
 21
3933.801701
 31
1979.999938
 12
9371.920835
 22
3948.559546
 32
1965.000097
 13
9370.740354
 23
3933.606069
 33
1979.999938
  0
3DFACE
  5
79
330
1F
100
AcDbEntity
  8
BUILDING_PAD
 62
     8
100
AcDbFace
 10
9358.349735
 20
3934.584229
 30
1979.999938
 11
9355.871611
 21
3934.779861
 31
1979.999938
 12
9359.530216
 22
3949.537706
 32
1965.000097
 13
9358.349735
 23
3934.584229
 33
1979.999938
  0
3DFACE
  5
7A
330
1F
100
AcDbEntity
  8
BUILDING_PAD
 62
     8
100
AcDbFace
 10
9345.959116
 20
3935.562389
 30
1979.999938
 11
9343.480993
 21
3935.758021
 31
1979.999938
 12
9347.139597
 22
3950.515866
 32
1965.000097
 13
9345.959116
 23
3935.562389
 33
1979.999938
  0
3DFACE
  5
7B
330
1F
100
AcDbEntity
  8
BUILDING_PAD
 62
     8
100
AcDbFace
 10
9333.568498
 20
3936.540549
 30
1979.999938
 11
9331.090374
 21
3936.736181
 31
1979.999938
 12
9334.748979
 22
3951.494026
 32
1965.000097
 13
9333.568498
 23
3936.540549
 33
1979.999938
  0
3DFACE
  5
7C
330
1F
100
AcDbEntity
  8
BUILDING_PAD
 62
     8
100
AcDbFace
 10
9321.177879
 20
3937.518709
 30
1979.999938
 11
9318.699755
 21
3937.714341
 31
1979.999938
 12
9322.35836
 22
3952.472185
 32
1965.000097
 13
9321.177879
 23
3937.518709
 33
1979.999938
  0
3DFACE
  5
7D
330
1F
100
AcDbEntity
  8
BUILDING_PAD
 62
     8
100
AcDbFace
 10
9308.78726
 20
3938.496869
 30
1979.999938
 11
9306.309137
 21
3938.692501
 31
1979.999938
 12
9309.967741
 22
3953.450345
 32
1965.000097
 13
9308.78726
 23
3938.496869
 33
1979.999938
  0
3DFACE
  5
7E
330
1F
100
AcDbEntity
  8
BUILDING_PAD
 62
     8
100
AcDbFace
 10
9311.703153
 20
4013.693241
 30
1950.000057
 11
9314.195054
 21
4013.496521
 31
1950.000057
 12
9310.522672
 22
3998.739764
 32
1965.000097
 13
9311.703153
 23
4013.693241
 33
1950.000057
  0
3DFACE
  5
7F
330
1F
100
AcDbEntity
  8
BUILDING_PAD
 62
     8
100
AcDbFace
 10
9324.162659
 20
4012.709643
 30
1950.000057
 11
9326.654561
 21
4012.512923
 31
1950.000057
 12
9322.982178
 22
3997.756166
 32
1965.000097
 13
9324.162659
 23
4012.709643
 33
1950.000057
  0
3DFACE
  5
80
330
1F
100
AcDbEntity
  8
BUILDING_PAD
 62
     8
100
AcDbFace
 10
9336.622166
 20
4011.726045
 30
1950.000057
 11
9339.114067
 21
4011.529325
 31
1950.000057
 12
9335.441685
 22
3996.772568
 32
1965.000097
 13
9336.622166
 23
4011.726045
 33
1950.000057
  0
3DFACE
  5
81
330
1F
100
AcDbEntity
  8
BUILDING_PAD
 62
     8
100
AcDbFace
 10
9349.081672
 20
4010.742446
 30
1950.000057
 11
9351.573574
 21
4010.545727
 31
1950.000057
 12
9347.901191
 22
3995.78897
 32
1965.000097
 13
9349.081672
 23
4010.742446
 33
1950.000057
  0
3DFACE
  5
82
330
1F
100
AcDbEntity
  8
BUILDING_PAD
 62
     8
100
AcDbFace
 10
9361.541179
 20
4009.758848
 30
1950.000057
 11
9364.03308
 21
4009.562129
 31
1950.000057
 12
9360.360698
 22
3994.805372
 32
1965.000097
 13
9361.541179
 23
4009.758848
 33
1950.000057
  0
3DFACE
  5
83
330
1F
100
AcDbEntity
  8
BUILDING_PAD
 62
     8
100
AcDbFace
 10
9374.000686
 20
4008.77525
 30
1950.000057
 11
9376.492587
 21
4008.578531
 31
1950.000057
 12
9372.820205
 22
3993.821774
 32
1965.000097
 13
9374.000686
 23
4008.77525
 33
1950.000057
  0
3DFACE
  5
84
330
1F
100
AcDbEntity
  8
BUILDING_PAD
 62
     8
100
AcDbFace
 10
9386.460192
 20
4007.791652
 30
1950.000057
 11
9388.952094
 21
4007.594933
 31
1950.000057
 12
9385.279711
 22
3992.838176
 32
1965.000097
 13
9386.460192
 23
4007.791652
 33
1950.000057
  0
3DFACE
  5
85
330
1F
100
AcDbEntity
  8
BUILDING_PAD
 62
     8
100
AcDbFace
 10
9398.919699
 20
4006.808054
 30
1950.000057
 11
9401.4116
 21
4006.611335
 31
1950.000057
 12
9397.739218
 22
3991.854577
 32
1965.000097
 13
9398.919699
 23
4006.808054
 33
1950.000057
  0
3DFACE
  5
86
330
1F
100
AcDbEntity
  8
BUILDING_PAD
 62
     8
100
AcDbFace
 10
9396.702072
 20
3946.603227
 30
1965.000097
 11
9393.043467
 21
3931.845382
 31
1979.999938
 12
9394.223948
 22
3946.798858
 32
1965.000097
 13
9396.702072
 23
3946.603227
 33
1965.000097
  0
3DFACE
  5
87
330
1F
100
AcDbEntity
  8
BUILDING_PAD
 62
     8
100
AcDbFace
 10
9396.702072
 20
3946.603227
 30
1965.000097
 11
9394.223948
 21
3946.798858
 31
1965.000097
 12
9400.231119
 22
3991.657858
 32
1965.000097
 13
9396.702072
 23
3946.603227
 33
1965.000097
  0
3DFACE
  5
88
330
1F
100
AcDbEntity
  8
BUILDING_PAD
 62
     8
100
AcDbFace
 10
9386.789577
 20
3947.385754
 30
1965.000097
 11
9390.263514
 21
3992.444736
 31
1965.000097
 12
9392.755415
 22
3992.248017
 32
1965.000097
 13
9386.789577
 23
3947.385754
 33
1965.000097
  0
3DFACE
  5
89
330
1F
100
AcDbEntity
  8
BUILDING_PAD
 62
     8
100
AcDbFace
 10
9385.609096
 20
3932.432278
 30
1979.999938
 11
9386.789577
 21
3947.385754
 31
1965.000097
 12
9389.267701
 22
3947.190122
 32
1965.000097
 13
9385.609096
 23
3932.432278
 33
1979.999938
  0
3DFACE
  5
8A
330
1F
100
AcDbEntity
  8
BUILDING_PAD
 62
     8
100
AcDbFace
 10
9374.398958
 20
3948.363914
 30
1965.000097
 11
9377.804007
 21
3993.428334
 31
1965.000097
 12
9380.295909
 22
3993.231615
 32
1965.000097
 13
9374.398958
 23
3948.363914
 33
1965.000097
  0
3DFACE
  5
8B
330
1F
100
AcDbEntity
  8
BUILDING_PAD
 62
     8
100
AcDbFace
 10
9373.218477
 20
3933.410438
 30
1979.999938
 11
9374.398958
 21
3948.363914
 31
1965.000097
 12
9376.877082
 22
3948.168282
 32
1965.000097
 13
9373.218477
 23
3933.410438
 33
1979.999938
  0
3DFACE
  5
8C
330
1F
100
AcDbEntity
  8
BUILDING_PAD
 62
     8
100
AcDbFace
 10
9359.530216
 20
3949.537706
 30
1965.000097
 11
9355.871611
 21
3934.779861
 31
1979.999938
 12
9357.052092
 22
3949.733338
 32
1965.000097
 13
9359.530216
 23
3949.537706
 33
1965.000097
  0
3DFACE
  5
8D
330
1F
100
AcDbEntity
  8
BUILDING_PAD
 62
     8
100
AcDbFace
 10
9359.530216
 20
3949.537706
 30
1965.000097
 11
9357.052092
 21
3949.733338
 31
1965.000097
 12
9362.852599
 22
3994.608652
 32
1965.000097
 13
9359.530216
 23
3949.537706
 33
1965.000097
  0
3DFACE
  5
8E
330
1F
100
AcDbEntity
  8
BUILDING_PAD
 62
     8
100
AcDbFace
 10
9347.139597
 20
3950.515866
 30
1965.000097
 11
9343.480993
 21
3935.758021
 31
1979.999938
 12
9344.661474
 22
3950.711498
 32
1965.000097
 13
9347.139597
 23
3950.515866
 33
1965.000097
  0
3DFACE
  5
8F
330
1F
100
AcDbEntity
  8
BUILDING_PAD
 62
     8
100
AcDbFace
 10
9347.139597
 20
3950.515866
 30
1965.000097
 11
9344.661474
 21
3950.711498
 31
1965.000097
 12
9350.393093
 22
3995.59225
 32
1965.000097
 13
9347.139597
 23
3950.515866
 33
1965.000097
  0
3DFACE
  5
90
330
1F
100
AcDbEntity
  8
BUILDING_PAD
 62
     8
100
AcDbFace
 10
9337.227102
 20
3951.298394
 30
1965.000097
 11
9340.425487
 21
3996.379129
 31
1965.000097
 12
9342.917389
 22
3996.182409
 32
1965.000097
 13
9337.227102
 23
3951.298394
 33
1965.000097
  0
3DFACE
  5
91
330
1F
100
AcDbEntity
  8
BUILDING_PAD
 62
     8
100
AcDbFace
 10
9336.046621
 20
3936.344917
 30
1979.999938
 11
9337.227102
 21
3951.298394
 31
1965.000097
 12
9339.705226
 22
3951.102762
 32
1965.000097
 13
9336.046621
 23
3936.344917
 33
1979.999938
  0
3DFACE
  5
92
330
1F
100
AcDbEntity
  8
BUILDING_PAD
 62
     8
100
AcDbFace
 10
9322.35836
 20
3952.472185
 30
1965.000097
 11
9327.965981
 21
3997.362727
 31
1965.000097
 12
9324.836484
 22
3952.276553
 32
1965.000097
 13
9322.35836
 23
3952.472185
 33
1965.000097
  0
3DFACE
  5
93
330
1F
100
AcDbEntity
  8
BUILDING_PAD
 62
     8
100
AcDbFace
 10
9323.656003
 20
3937.323077
 30
1979.999938
 11
9324.836484
 21
3952.276553
 31
1965.000097
 12
9327.314608
 22
3952.080922
 32
1965.000097
 13
9323.656003
 23
3937.323077
 33
1979.999938
  0
3DFACE
  5
94
330
1F
100
AcDbEntity
  8
BUILDING_PAD
 62
     8
100
AcDbFace
 10
9309.967741
 20
3953.450345
 30
1965.000097
 11
9306.309137
 21
3938.692501
 31
1979.999938
 12
9307.489618
 22
3953.645977
 32
1965.000097
 13
9309.967741
 23
3953.450345
 33
1965.000097
  0
3DFACE
  5
95
330
1F
100
AcDbEntity
  8
BUILDING_PAD
 62
     8
100
AcDbFace
 10
9309.967741
 20
3953.450345
 30
1965.000097
 11
9307.489618
 21
3953.645977
 31
1965.000097
 12
9313.014573
 22
3998.543044
 32
1965.000097
 13
9309.967741
 23
3953.450345
 33
1965.000097
  0
3DFACE
  5
96
330
1F
100
AcDbEntity
  8
BUILDING_PAD
 62
     8
100
AcDbFace
 10
9298.874765
 20
3939.279396
 30
1979.999938
 11
9302.53337
 21
3954.037241
 31
1965.000097
 12
9301.352889
 22
3939.083764
 32
1979.999938
 13
9298.874765
 23
3939.279396
 33
1979.999938
  0
3DFACE
  5
97
330
1F
100
AcDbEntity
  8
BUILDING_PAD
 62
     8
100
AcDbFace
 10
9297.577123
 20
3954.428505
 30
1965.000097
 11
9300.555066
 21
3999.526643
 31
1965.000097
 12
9303.046968
 22
3999.329923
 32
1965.000097
 13
9297.577123
 23
3954.428505
 33
1965.000097
  0
3DFACE
  5
98
330
1F
100
AcDbEntity
  8
BUILDING_PAD
 62
     8
100
AcDbFace
 10
9310.522672
 20
3998.739764
 30
1965.000097
 11
9314.195054
 21
4013.496521
 31
1950.000057
 12
9313.014573
 22
3998.543044
 32
1965.000097
 13
9310.522672
 23
3998.739764
 33
1965.000097
  0
3DFACE
  5
99
330
1F
100
AcDbEntity
  8
BUILDING_PAD
 62
     8
100
AcDbFace
 10
9310.522672
 20
3998.739764
 30
1965.000097
 11
9313.014573
 21
3998.543044
 31
1965.000097
 12
9307.489618
 22
3953.645977
 32
1965.000097
 13
9310.522672
 23
3998.739764
 33
1965.000097
  0
3DFACE
  5
9A
330
1F
100
AcDbEntity
  8
BUILDING_PAD
 62
     8
100
AcDbFace
 10
9320.490277
 20
3997.952886
 30
1965.000097
 11
9317.402113
 21
3952.863449
 31
1965.000097
 12
9314.923989
 22
3953.059081
 32
1965.000097
 13
9320.490277
 23
3997.952886
 33
1965.000097
  0
3DFACE
  5
9B
330
1F
100
AcDbEntity
  8
BUILDING_PAD
 62
     8
100
AcDbFace
 10
9321.670758
 20
4012.906362
 30
1950.000057
 11
9320.490277
 21
3997.952886
 31
1965.000097
 12
9317.998376
 22
3998.149605
 32
1965.000097
 13
9321.670758
 23
4012.906362
 33
1950.000057
  0
3DFACE
  5
9C
330
1F
100
AcDbEntity
  8
BUILDING_PAD
 62
     8
100
AcDbFace
 10
9335.441685
 20
3996.772568
 30
1965.000097
 11
9339.114067
 21
4011.529325
 31
1950.000057
 12
9337.933586
 22
3996.575848
 32
1965.000097
 13
9335.441685
 23
3996.772568
 33
1965.000097
  0
3DFACE
  5
9D
330
1F
100
AcDbEntity
  8
BUILDING_PAD
 62
     8
100
AcDbFace
 10
9335.441685
 20
3996.772568
 30
1965.000097
 11
9337.933586
 21
3996.575848
 31
1965.000097
 12
9332.270855
 22
3951.689658
 32
1965.000097
 13
9335.441685
 23
3996.772568
 33
1965.000097
  0
3DFACE
  5
9E
330
1F
100
AcDbEntity
  8
BUILDING_PAD
 62
     8
100
AcDbFace
 10
9347.901191
 20
3995.78897
 30
1965.000097
 11
9342.18335
 21
3950.90713
 31
1965.000097
 12
9345.40929
 22
3995.985689
 32
1965.000097
 13
9347.901191
 23
3995.78897
 33
1965.000097
  0
3DFACE
  5
9F
330
1F
100
AcDbEntity
  8
BUILDING_PAD
 62
     8
100
AcDbFace
 10
9346.589771
 20
4010.939166
 30
1950.000057
 11
9345.40929
 21
3995.985689
 31
1965.000097
 12
9342.917389
 22
3996.182409
 32
1965.000097
 13
9346.589771
 23
4010.939166
 33
1950.000057
  0
3DFACE
  5
A0
330
1F
100
AcDbEntity
  8
BUILDING_PAD
 62
     8
100
AcDbFace
 10
9360.360698
 20
3994.805372
 30
1965.000097
 11
9364.03308
 21
4009.562129
 31
1950.000057
 12
9362.852599
 22
3994.608652
 32
1965.000097
 13
9360.360698
 23
3994.805372
 33
1965.000097
  0
3DFACE
  5
A1
330
1F
100
AcDbEntity
  8
BUILDING_PAD
 62
     8
100
AcDbFace
 10
9360.360698
 20
3994.805372
 30
1965.000097
 11
9362.852599
 21
3994.608652
 31
1965.000097
 12
9357.052092
 22
3949.733338
 32
1965.000097
 13
9360.360698
 23
3994.805372
 33
1965.000097
  0
3DFACE
  5
A2
330
1F
100
AcDbEntity
  8
BUILDING_PAD
 62
     8
100
AcDbFace
 10
9372.820205
 20
3993.821774
 30
1965.000097
 11
9366.964587
 21
3948.95081
 31
1965.000097
 12
9370.328303
 22
3994.018493
 32
1965.000097
 13
9372.820205
 23
3993.821774
 33
1965.000097
  0
3DFACE
  5
A3
330
1F
100
AcDbEntity
  8
BUILDING_PAD
 62
     8
100
AcDbFace
 10
9371.508784
 20
4008.97197
 30
1950.000057
 11
9370.328303
 21
3994.018493
 31
1965.000097
 12
9367.836402
 22
3994.215213
 32
1965.000097
 13
9371.508784
 23
4008.97197
 33
1950.000057
  0
3DFACE
  5
A4
330
1F
100
AcDbEntity
  8
BUILDING_PAD
 62
     8
100
AcDbFace
 10
9382.78781
 20
3993.034895
 30
1965.000097
 11
9379.355206
 21
3947.97265
 31
1965.000097
 12
9376.877082
 22
3948.168282
 32
1965.000097
 13
9382.78781
 23
3993.034895
 33
1965.000097
  0
3DFACE
  5
A5
330
1F
100
AcDbEntity
  8
BUILDING_PAD
 62
     8
100
AcDbFace
 10
9383.968291
 20
4007.988372
 30
1950.000057
 11
9382.78781
 21
3993.034895
 31
1965.000097
 12
9380.295909
 22
3993.231615
 32
1965.000097
 13
9383.968291
 23
4007.988372
 33
1950.000057
  0
3DFACE
  5
A6
330
1F
100
AcDbEntity
  8
BUILDING_PAD
 62
     8
100
AcDbFace
 10
9397.739218
 20
3991.854577
 30
1965.000097
 11
9391.745825
 21
3946.99449
 31
1965.000097
 12
9395.247317
 22
3992.051297
 32
1965.000097
 13
9397.739218
 23
3991.854577
 33
1965.000097
  0
3DFACE
  5
A7
330
1F
100
AcDbEntity
  8
BUILDING_PAD
 62
     8
100
AcDbFace
 10
9396.427798
 20
4007.004774
 30
1950.000057
 11
9395.247317
 21
3992.051297
 31
1965.000097
 12
9392.755415
 22
3992.248017
 32
1965.000097
 13
9396.427798
 23
4007.004774
 33
1950.000057
  0
3DFACE
  5
A8
330
1F
100
AcDbEntity
  8
BUILDING_PAD
 62
     8
100
AcDbFace
 10
9393.043467
 20
3931.845382
 30
1979.999938
 11
9390.565344
 21
3932.041014
 31
1979.999938
 12
9394.223948
 22
3946.798858
 32
1965.000097
 13
9393.043467
 23
3931.845382
 33
1979.999938
  0
3DFACE
  5
A9
330
1F
100
AcDbEntity
  8
BUILDING_PAD
 62
     8
100
AcDbFace
 10
9380.652849
 20
3932.823542
 30
1979.999938
 11
9378.174725
 21
3933.019174
 31
1979.999938
 12
9381.83333
 22
3947.777018
 32
1965.000097
 13
9380.652849
 23
3932.823542
 33
1979.999938
  0
3DFACE
  5
AA
330
1F
100
AcDbEntity
  8
BUILDING_PAD
 62
     8
100
AcDbFace
 10
9368.26223
 20
3933.801701
 30
1979.999938
 11
9365.784106
 21
3933.997333
 31
1979.999938
 12
9369.442711
 22
3948.755178
 32
1965.000097
 13
9368.26223
 23
3933.801701
 33
1979.999938
  0
3DFACE
  5
AB
330
1F
100
AcDbEntity
  8
BUILDING_PAD
 62
     8
100
AcDbFace
 10
9355.871611
 20
3934.779861
 30
1979.999938
 11
9353.393488
 21
3934.975493
 31
1979.999938
 12
9357.052092
 22
3949.733338
 32
1965.000097
 13
9355.871611
 23
3934.779861
 33
1979.999938
  0
3DFACE
  5
AC
330
1F
100
AcDbEntity
  8
BUILDING_PAD
 62
     8
100
AcDbFace
 10
9343.480993
 20
3935.758021
 30
1979.999938
 11
9341.002869
 21
3935.953653
 31
1979.999938
 12
9344.661474
 22
3950.711498
 32
1965.000097
 13
9343.480993
 23
3935.758021
 33
1979.999938
  0
3DFACE
  5
AD
330
1F
100
AcDbEntity
  8
BUILDING_PAD
 62
     8
100
AcDbFace
 10
9331.090374
 20
3936.736181
 30
1979.999938
 11
9328.61225
 21
3936.931813
 31
1979.999938
 12
9332.270855
 22
3951.689658
 32
1965.000097
 13
9331.090374
 23
3936.736181
 33
1979.999938
  0
3DFACE
  5
AE
330
1F
100
AcDbEntity
  8
BUILDING_PAD
 62
     8
100
AcDbFace
 10
9318.699755
 20
3937.714341
 30
1979.999938
 11
9316.221632
 21
3937.909973
 31
1979.999938
 12
9319.880236
 22
3952.667817
 32
1965.000097
 13
9318.699755
 23
3937.714341
 33
1979.999938
  0
3DFACE
  5
AF
330
1F
100
AcDbEntity
  8
BUILDING_PAD
 62
     8
100
AcDbFace
 10
9306.309137
 20
3938.692501
 30
1979.999938
 11
9303.831013
 21
3938.888133
 31
1979.999938
 12
9307.489618
 22
3953.645977
 32
1965.000097
 13
9306.309137
 23
3938.692501
 33
1979.999938
  0
3DFACE
  5
B0
330
1F
100
AcDbEntity
  8
BUILDING_PAD
 62
     8
100
AcDbFace
 10
9314.195054
 20
4013.496521
 30
1950.000057
 11
9316.686955
 21
4013.299801
 31
1950.000057
 12
9313.014573
 22
3998.543044
 32
1965.000097
 13
9314.195054
 23
4013.496521
 33
1950.000057
  0
3DFACE
  5
B1
330
1F
100
AcDbEntity
  8
BUILDING_PAD
 62
     8
100
AcDbFace
 10
9326.654561
 20
4012.512923
 30
1950.000057
 11
9329.146462
 21
4012.316203
 31
1950.000057
 12
9325.47408
 22
3997.559446
 32
1965.000097
 13
9326.654561
 23
4012.512923
 33
1950.000057
  0
3DFACE
  5
B2
330
1F
100
AcDbEntity
  8
BUILDING_PAD
 62
     8
100
AcDbFace
 10
9339.114067
 20
4011.529325
 30
1950.000057
 11
9341.605969
 21
4011.332605
 31
1950.000057
 12
9337.933586
 22
3996.575848
 32
1965.000097
 13
9339.114067
 23
4011.529325
 33
1950.000057
  0
3DFACE
  5
B3
330
1F
100
AcDbEntity
  8
BUILDING_PAD
 62
     8
100
AcDbFace
 10
9351.573574
 20
4010.545727
 30
1950.000057
 11
9354.065475
 21
4010.349007
 31
1950.000057
 12
9350.393093
 22
3995.59225
 32
1965.000097
 13
9351.573574
 23
4010.545727
 33
1950.000057
  0
3DFACE
  5
B4
330
1F
100
AcDbEntity
  8
BUILDING_PAD
 62
     8
100
AcDbFace
 10
9364.03308
 20
4009.562129
 30
1950.000057
 11
9366.524982
 21
4009.365409
 31
1950.000057
 12
9362.852599
 22
3994.608652
 32
1965.000097
 13
9364.03308
 23
4009.562129
 33
1950.000057
  0
3DFACE
  5
B5
330
1F
100
AcDbEntity
  8
BUILDING_PAD
 62
     8
100
AcDbFace
 10
9376.492587
 20
4008.578531
 30
1950.000057
 11
9378.984488
 21
4008.381811
 31
1950.000057
 12
9375.312106
 22
3993.625054
 32
1965.000097
 13
9376.492587
 23
4008.578531
 33
1950.000057
  0
3DFACE
  5
B6
330
1F
100
AcDbEntity
  8
BUILDING_PAD
 62
     8
100
AcDbFace
 10
9388.952094
 20
4007.594933
 30
1950.000057
 11
9391.443995
 21
4007.398213
 31
1950.000057
 12
9387.771613
 22
3992.641456
 32
1965.000097
 13
9388.952094
 23
4007.594933
 33
1950.000057
  0
3DFACE
  5
B7
330
1F
100
AcDbEntity
  8
BUILDING_PAD
 62
     8
100
AcDbFace
 10
9401.4116
 20
4006.611335
 30
1950.000057
 11
9403.903502
 21
4006.414615
 31
1950.000057
 12
9400.231119
 22
3991.657858
 32
1965.000097
 13
9401.4116
 23
4006.611335
 33
1950.000057
  0
3DFACE
  5
B8
330
1F
100
AcDbEntity
  8
BUILDING_PAD
 62
     8
100
AcDbFace
 10
9396.702072
 20
3946.603227
 30
1965.000097
 11
9400.231119
 21
3991.657858
 31
1965.000097
 12
9402.72302
 22
3991.461138
 32
1965.000097
 13
9396.702072
 23
3946.603227
 33
1965.000097
  0
3DFACE
  5
B9
330
1F
100
AcDbEntity
  8
BUILDING_PAD
 62
     8
100
AcDbFace
 10
9395.521591
 20
3931.64975
 30
1979.999938
 11
9396.702072
 21
3946.603227
 31
1965.000097
 12
9399.180196
 22
3946.407595
 32
1965.000097
 13
9395.521591
 23
3931.64975
 33
1979.999938
  0
3DFACE
  5
BA
330
1F
100
AcDbEntity
  8
BUILDING_PAD
 62
     8
100
AcDbFace
 10
9381.83333
 20
3947.777018
 30
1965.000097
 11
9378.174725
 21
3933.019174
 31
1979.999938
 12
9379.355206
 22
3947.97265
 32
1965.000097
 13
9381.83333
 23
3947.777018
 33
1965.000097
  0
3DFACE
  5
BB
330
1F
100
AcDbEntity
  8
BUILDING_PAD
 62
     8
100
AcDbFace
 10
9381.83333
 20
3947.777018
 30
1965.000097
 11
9379.355206
 21
3947.97265
 31
1965.000097
 12
9385.279711
 22
3992.838176
 32
1965.000097
 13
9381.83333
 23
3947.777018
 33
1965.000097
  0
3DFACE
  5
BC
330
1F
100
AcDbEntity
  8
BUILDING_PAD
 62
     8
100
AcDbFace
 10
9369.442711
 20
3948.755178
 30
1965.000097
 11
9365.784106
 21
3933.997333
 31
1979.999938
 12
9366.964587
 22
3948.95081
 32
1965.000097
 13
9369.442711
 23
3948.755178
 33
1965.000097
  0
3DFACE
  5
BD
330
1F
100
AcDbEntity
  8
BUILDING_PAD
 62
     8
100
AcDbFace
 10
9369.442711
 20
3948.755178
 30
1965.000097
 11
9366.964587
 21
3948.95081
 31
1965.000097
 12
9372.820205
 22
3993.821774
 32
1965.000097
 13
9369.442711
 23
3948.755178
 33
1965.000097
  0
3DFACE
  5
BE
330
1F
100
AcDbEntity
  8
BUILDING_PAD
 62
     8
100
AcDbFace
 10
9359.530216
 20
3949.537706
 30
1965.000097
 11
9362.852599
 21
3994.608652
 31
1965.000097
 12
9365.344501
 22
3994.411932
 32
1965.000097
 13
9359.530216
 23
3949.537706
 33
1965.000097
  0
3DFACE
  5
BF
330
1F
100
AcDbEntity
  8
BUILDING_PAD
 62
     8
100
AcDbFace
 10
9358.349735
 20
3934.584229
 30
1979.999938
 11
9359.530216
 21
3949.537706
 31
1965.000097
 12
9362.00834
 22
3949.342074
 32
1965.000097
 13
9358.349735
 23
3934.584229
 33
1979.999938
  0
3DFACE
  5
C0
330
1F
100
AcDbEntity
  8
BUILDING_PAD
 62
     8
100
AcDbFace
 10
9347.139597
 20
3950.515866
 30
1965.000097
 11
9350.393093
 21
3995.59225
 31
1965.000097
 12
9352.884994
 22
3995.395531
 32
1965.000097
 13
9347.139597
 23
3950.515866
 33
1965.000097
  0
3DFACE
  5
C1
330
1F
100
AcDbEntity
  8
BUILDING_PAD
 62
     8
100
AcDbFace
 10
9350.915364
 20
3935.171125
 30
1979.999938
 11
9348.43724
 21
3935.366757
 31
1979.999938
 12
9352.095845
 22
3950.124602
 32
1965.000097
 13
9350.915364
 23
3935.171125
 33
1979.999938
  0
3DFACE
  5
C2
330
1F
100
AcDbEntity
  8
BUILDING_PAD
 62
     8
100
AcDbFace
 10
9332.270855
 20
3951.689658
 30
1965.000097
 11
9328.61225
 21
3936.931813
 31
1979.999938
 12
9329.792731
 22
3951.88529
 32
1965.000097
 13
9332.270855
 23
3951.689658
 33
1965.000097
  0
3DFACE
  5
C3
330
1F
100
AcDbEntity
  8
BUILDING_PAD
 62
     8
100
AcDbFace
 10
9332.270855
 20
3951.689658
 30
1965.000097
 11
9329.792731
 21
3951.88529
 31
1965.000097
 12
9335.441685
 22
3996.772568
 32
1965.000097
 13
9332.270855
 23
3951.689658
 33
1965.000097
  0
3DFACE
  5
C4
330
1F
100
AcDbEntity
  8
BUILDING_PAD
 62
     8
100
AcDbFace
 10
9319.880236
 20
3952.667817
 30
1965.000097
 11
9316.221632
 21
3937.909973
 31
1979.999938
 12
9317.402113
 22
3952.863449
 32
1965.000097
 13
9319.880236
 23
3952.667817
 33
1965.000097
  0
3DFACE
  5
C5
330
1F
100
AcDbEntity
  8
BUILDING_PAD
 62
     8
100
AcDbFace
 10
9319.880236
 20
3952.667817
 30
1965.000097
 11
9317.402113
 21
3952.863449
 31
1965.000097
 12
9322.982178
 22
3997.756166
 32
1965.000097
 13
9319.880236
 23
3952.667817
 33
1965.000097
  0
3DFACE
  5
C6
330
1F
100
AcDbEntity
  8
BUILDING_PAD
 62
     8
100
AcDbFace
 10
9309.967741
 20
3953.450345
 30
1965.000097
 11
9313.014573
 21
3998.543044
 31
1965.000097
 12
9315.506474
 22
3998.346325
 32
1965.000097
 13
9309.967741
 23
3953.450345
 33
1965.000097
  0
3DFACE
  5
C7
330
1F
100
AcDbEntity
  8
BUILDING_PAD
 62
     8
100
AcDbFace
 10
9308.78726
 20
3938.496869
 30
1979.999938
 11
9309.967741
 21
3953.450345
 31
1965.000097
 12
9312.445865
 22
3953.254713
 32
1965.000097
 13
9308.78726
 23
3938.496869
 33
1979.999938
  0
3DFACE
  5
C8
330
1F
100
AcDbEntity
  8
BUILDING_PAD
 62
     8
100
AcDbFace
 10
9300.555066
 20
3999.526643
 30
1965.000097
 11
9301.735547
 21
4014.480119
 31
1950.000057
 12
9304.227449
 22
4014.2834
 32
1950.000057
 13
9300.555066
 23
3999.526643
 33
1965.000097
  0
3DFACE
  5
C9
330
1F
100
AcDbEntity
  8
BUILDING_PAD
 62
     8
100
AcDbFace
 10
9308.03077
 20
3998.936484
 30
1965.000097
 11
9305.011494
 21
3953.841609
 31
1965.000097
 12
9302.53337
 22
3954.037241
 32
1965.000097
 13
9308.03077
 23
3998.936484
 33
1965.000097
  0
3DFACE
  5
CA
330
1F
100
AcDbEntity
  8
BUILDING_PAD
 62
     8
100
AcDbFace
 10
9306.71935
 20
4014.08668
 30
1950.000057
 11
9309.211251
 21
4013.88996
 31
1950.000057
 12
9305.538869
 22
3999.133203
 32
1965.000097
 13
9306.71935
 23
4014.08668
 33
1950.000057
  0
3DFACE
  5
CB
330
1F
100
AcDbEntity
  8
BUILDING_PAD
 62
     8
100
AcDbFace
 10
9325.47408
 20
3997.559446
 30
1965.000097
 11
9319.880236
 21
3952.667817
 31
1965.000097
 12
9322.982178
 22
3997.756166
 32
1965.000097
 13
9325.47408
 23
3997.559446
 33
1965.000097
  0
3DFACE
  5
CC
330
1F
100
AcDbEntity
  8
BUILDING_PAD
 62
     8
100
AcDbFace
 10
9319.178857
 20
4013.103082
 30
1950.000057
 11
9321.670758
 21
4012.906362
 31
1950.000057
 12
9317.998376
 22
3998.149605
 32
1965.000097
 13
9319.178857
 23
4013.103082
 33
1950.000057
  0
3DFACE
  5
CD
330
1F
100
AcDbEntity
  8
BUILDING_PAD
 62
     8
100
AcDbFace
 10
9332.949784
 20
3996.969288
 30
1965.000097
 11
9329.792731
 21
3951.88529
 31
1965.000097
 12
9327.314608
 22
3952.080922
 32
1965.000097
 13
9332.949784
 23
3996.969288
 33
1965.000097
  0
3DFACE
  5
CE
330
1F
100
AcDbEntity
  8
BUILDING_PAD
 62
     8
100
AcDbFace
 10
9331.638363
 20
4012.119484
 30
1950.000057
 11
9334.130265
 21
4011.922764
 31
1950.000057
 12
9330.457882
 22
3997.166007
 32
1965.000097
 13
9331.638363
 23
4012.119484
 33
1950.000057
  0
3DFACE
  5
CF
330
1F
100
AcDbEntity
  8
BUILDING_PAD
 62
     8
100
AcDbFace
 10
9350.393093
 20
3995.59225
 30
1965.000097
 11
9354.065475
 21
4010.349007
 31
1950.000057
 12
9352.884994
 22
3995.395531
 32
1965.000097
 13
9350.393093
 23
3995.59225
 33
1965.000097
  0
3DFACE
  5
D0
330
1F
100
AcDbEntity
  8
BUILDING_PAD
 62
     8
100
AcDbFace
 10
9349.617721
 20
3950.320234
 30
1965.000097
 11
9352.884994
 21
3995.395531
 31
1965.000097
 12
9355.376895
 22
3995.198811
 32
1965.000097
 13
9349.617721
 23
3950.320234
 33
1965.000097
  0
3DFACE
  5
D1
330
1F
100
AcDbEntity
  8
BUILDING_PAD
 62
     8
100
AcDbFace
 10
9360.360698
 20
3994.805372
 30
1965.000097
 11
9354.573969
 21
3949.92897
 31
1965.000097
 12
9357.868797
 22
3995.002091
 32
1965.000097
 13
9360.360698
 23
3994.805372
 33
1965.000097
  0
3DFACE
  5
D2
330
1F
100
AcDbEntity
  8
BUILDING_PAD
 62
     8
100
AcDbFace
 10
9361.541179
 20
4009.758848
 30
1950.000057
 11
9360.360698
 21
3994.805372
 31
1965.000097
 12
9357.868797
 22
3995.002091
 32
1965.000097
 13
9361.541179
 23
4009.758848
 33
1950.000057
  0
3DFACE
  5
D3
330
1F
100
AcDbEntity
  8
BUILDING_PAD
 62
     8
100
AcDbFace
 10
9375.312106
 20
3993.625054
 30
1965.000097
 11
9378.984488
 21
4008.381811
 31
1950.000057
 12
9377.804007
 22
3993.428334
 32
1965.000097
 13
9375.312106
 23
3993.625054
 33
1965.000097
  0
3DFACE
  5
D4
330
1F
100
AcDbEntity
  8
BUILDING_PAD
 62
     8
100
AcDbFace
 10
9369.442711
 20
3948.755178
 30
1965.000097
 11
9375.312106
 21
3993.625054
 31
1965.000097
 12
9371.920835
 22
3948.559546
 32
1965.000097
 13
9369.442711
 23
3948.755178
 33
1965.000097
  0
3DFACE
  5
D5
330
1F
100
AcDbEntity
  8
BUILDING_PAD
 62
     8
100
AcDbFace
 10
9387.771613
 20
3992.641456
 30
1965.000097
 11
9381.83333
 21
3947.777018
 31
1965.000097
 12
9385.279711
 22
3992.838176
 32
1965.000097
 13
9387.771613
 23
3992.641456
 33
1965.000097
  0
3DFACE
  5
D6
330
1F
100
AcDbEntity
  8
BUILDING_PAD
 62
     8
100
AcDbFace
 10
9381.47639
 20
4008.185091
 30
1950.000057
 11
9383.968291
 21
4007.988372
 31
1950.000057
 12
9380.295909
 22
3993.231615
 32
1965.000097
 13
9381.47639
 23
4008.185091
 33
1950.000057
  0
3DFACE
  5
D7
330
1F
100
AcDbEntity
  8
BUILDING_PAD
 62
     8
100
AcDbFace
 10
9400.231119
 20
3991.657858
 30
1965.000097
 11
9403.903502
 21
4006.414615
 31
1950.000057
 12
9402.72302
 22
3991.461138
 32
1965.000097
 13
9400.231119
 23
3991.657858
 33
1965.000097
  0
3DFACE
  5
D8
330
1F
100
AcDbEntity
  8
BUILDING_PAD
 62
     8
100
AcDbFace
 10
9396.702072
 20
3946.603227
 30
1965.000097
 11
9402.72302
 21
3991.461138
 31
1965.000097
 12
9399.180196
 22
3946.407595
 32
1965.000097
 13
9396.702072
 23
3946.603227
 33
1965.000097
  0
3DFACE
  5
D9
330
1F
100
AcDbEntity
  8
BUILDING_PAD
 62
     8
100
AcDbFace
 10
9390.565344
 20
3932.041014
 30
1979.999938
 11
9388.08722
 21
3932.236646
 31
1979.999938
 12
9391.745825
 22
3946.99449
 32
1965.000097
 13
9390.565344
 23
3932.041014
 33
1979.999938
  0
3DFACE
  5
DA
330
1F
100
AcDbEntity
  8
BUILDING_PAD
 62
     8
100
AcDbFace
 10
9378.174725
 20
3933.019174
 30
1979.999938
 11
9375.696601
 21
3933.214806
 31
1979.999938
 12
9379.355206
 22
3947.97265
 32
1965.000097
 13
9378.174725
 23
3933.019174
 33
1979.999938
  0
3DFACE
  5
DB
330
1F
100
AcDbEntity
  8
BUILDING_PAD
 62
     8
100
AcDbFace
 10
9365.784106
 20
3933.997333
 30
1979.999938
 11
9363.305983
 21
3934.192965
 31
1979.999938
 12
9366.964587
 22
3948.95081
 32
1965.000097
 13
9365.784106
 23
3933.997333
 33
1979.999938
  0
3DFACE
  5
DC
330
1F
100
AcDbEntity
  8
BUILDING_PAD
 62
     8
100
AcDbFace
 10
9353.393488
 20
3934.975493
 30
1979.999938
 11
9350.915364
 21
3935.171125
 31
1979.999938
 12
9354.573969
 22
3949.92897
 32
1965.000097
 13
9353.393488
 23
3934.975493
 33
1979.999938
  0
3DFACE
  5
DD
330
1F
100
AcDbEntity
  8
BUILDING_PAD
 62
     8
100
AcDbFace
 10
9341.002869
 20
3935.953653
 30
1979.999938
 11
9338.524745
 21
3936.149285
 31
1979.999938
 12
9342.18335
 22
3950.90713
 32
1965.000097
 13
9341.002869
 23
3935.953653
 33
1979.999938
  0
3DFACE
  5
DE
330
1F
100
AcDbEntity
  8
BUILDING_PAD
 62
     8
100
AcDbFace
 10
9328.61225
 20
3936.931813
 30
1979.999938
 11
9326.134127
 21
3937.127445
 31
1979.999938
 12
9329.792731
 22
3951.88529
 32
1965.000097
 13
9328.61225
 23
3936.931813
 33
1979.999938
  0
3DFACE
  5
DF
330
1F
100
AcDbEntity
  8
BUILDING_PAD
 62
     8
100
AcDbFace
 10
9316.221632
 20
3937.909973
 30
1979.999938
 11
9313.743508
 21
3938.105605
 31
1979.999938
 12
9317.402113
 22
3952.863449
 32
1965.000097
 13
9316.221632
 23
3937.909973
 33
1979.999938
  0
3DFACE
  5
E0
330
1F
100
AcDbEntity
  8
BUILDING_PAD
 62
     8
100
AcDbFace
 10
9303.831013
 20
3938.888133
 30
1979.999938
 11
9301.352889
 21
3939.083764
 31
1979.999938
 12
9305.011494
 22
3953.841609
 32
1965.000097
 13
9303.831013
 23
3938.888133
 33
1979.999938
  0
3DFACE
  5
E1
330
1F
100
AcDbEntity
  8
BUILDING_PAD
 62
     8
100
AcDbFace
 10
9304.227449
 20
4014.2834
 30
1950.000057
 11
9306.71935
 21
4014.08668
 31
1950.000057
 12
9303.046968
 22
3999.329923
 32
1965.000097
 13
9304.227449
 23
4014.2834
 33
1950.000057
  0
3DFACE
  5
E2
330
1F
100
AcDbEntity
  8
BUILDING_PAD
 62
     8
100
AcDbFace
 10
9316.686955
 20
4013.299801
 30
1950.000057
 11
9319.178857
 21
4013.103082
 31
1950.000057
 12
9315.506474
 22
3998.346325
 32
1965.000097
 13
9316.686955
 23
4013.299801
 33
1950.000057
  0
3DFACE
  5
E3
330
1F
100
AcDbEntity
  8
BUILDING_PAD
 62
     8
100
AcDbFace
 10
9329.146462
 20
4012.316203
 30
1950.000057
 11
9331.638363
 21
4012.119484
 31
1950.000057
 12
9327.965981
 22
3997.362727
 32
1965.000097
 13
9329.146462
 23
4012.316203
 33
1950.000057
  0
3DFACE
  5
E4
330
1F
100
AcDbEntity
  8
BUILDING_PAD
 62
     8
100
AcDbFace
 10
9341.605969
 20
4011.332605
 30
1950.000057
 11
9344.09787
 21
4011.135886
 31
1950.000057
 12
9340.425487
 22
3996.379129
 32
1965.000097
 13
9341.605969
 23
4011.332605
 33
1950.000057
  0
3DFACE
  5
E5
330
1F
100
AcDbEntity
  8
BUILDING_PAD
 62
     8
100
AcDbFace
 10
9354.065475
 20
4010.349007
 30
1950.000057
 11
9356.557376
 21
4010.152288
 31
1950.000057
 12
9352.884994
 22
3995.395531
 32
1965.000097
 13
9354.065475
 23
4010.349007
 33
1950.000057
  0
3DFACE
  5
E6
330
1F
100
AcDbEntity
  8
BUILDING_PAD
 62
     8
100
AcDbFace
 10
9366.524982
 20
4009.365409
 30
1950.000057
 11
9369.016883
 21
4009.16869
 31
1950.000057
 12
9365.344501
 22
3994.411932
 32
1965.000097
 13
9366.524982
 23
4009.365409
 33
1950.000057
  0
3DFACE
  5
E7
330
1F
100
AcDbEntity
  8
BUILDING_PAD
 62
     8
100
AcDbFace
 10
9378.984488
 20
4008.381811
 30
1950.000057
 11
9381.47639
 21
4008.185091
 31
1950.000057
 12
9377.804007
 22
3993.428334
 32
1965.000097
 13
9378.984488
 23
4008.381811
 33
1950.000057
  0
3DFACE
  5
E8
330
1F
100
AcDbEntity
  8
BUILDING_PAD
 62
     8
100
AcDbFace
 10
9391.443995
 20
4007.398213
 30
1950.000057
 11
9393.935896
 21
4007.201493
 31
1950.000057
 12
9390.263514
 22
3992.444736
 32
1965.000097
 13
9391.443995
 23
4007.398213
 33
1950.000057
  0
3DFACE
  5
E9
330
1F
100
AcDbEntity
  8
BUILDING_PAD
 62
     8
100
AcDbFace
 10
9403.903502
 20
4006.414615
 30
1950.000057
 11
9406.395403
 21
4006.217895
 31
1950.000057
 12
9402.72302
 22
3991.461138
 32
1965.000097
 13
9403.903502
 23
4006.414615
 33
1950.000057
  0
3DFACE
  5
EA
330
1F
100
AcDbEntity
  8
BUILDING_PAD
 62
     8
100
AcDbFace
 10
9391.745825
 20
3946.99449
 30
1965.000097
 11
9388.08722
 21
3932.236646
 31
1979.999938
 12
9389.267701
 22
3947.190122
 32
1965.000097
 13
9391.745825
 23
3946.99449
 33
1965.000097
  0
3DFACE
  5
EB
330
1F
100
AcDbEntity
  8
BUILDING_PAD
 62
     8
100
AcDbFace
 10
9395.247317
 20
3992.051297
 30
1965.000097
 11
9389.267701
 21
3947.190122
 31
1965.000097
 12
9392.755415
 22
3992.248017
 32
1965.000097
 13
9395.247317
 23
3992.051297
 33
1965.000097
  0
3DFACE
  5
EC
330
1F
100
AcDbEntity
  8
BUILDING_PAD
 62
     8
100
AcDbFace
 10
9384.311453
 20
3947.581386
 30
1965.000097
 11
9387.771613
 21
3992.641456
 31
1965.000097
 12
9390.263514
 22
3992.444736
 32
1965.000097
 13
9384.311453
 23
3947.581386
 33
1965.000097
  0
3DFACE
  5
ED
330
1F
100
AcDbEntity
  8
BUILDING_PAD
 62
     8
100
AcDbFace
 10
9380.652849
 20
3932.823542
 30
1979.999938
 11
9381.83333
 21
3947.777018
 31
1965.000097
 12
9384.311453
 22
3947.581386
 32
1965.000097
 13
9380.652849
 23
3932.823542
 33
1979.999938
  0
3DFACE
  5
EE
330
1F
100
AcDbEntity
  8
BUILDING_PAD
 62
     8
100
AcDbFace
 10
9371.920835
 20
3948.559546
 30
1965.000097
 11
9375.312106
 21
3993.625054
 31
1965.000097
 12
9377.804007
 22
3993.428334
 32
1965.000097
 13
9371.920835
 23
3948.559546
 33
1965.000097
  0
3DFACE
  5
EF
330
1F
100
AcDbEntity
  8
BUILDING_PAD
 62
     8
100
AcDbFace
 10
9368.26223
 20
3933.801701
 30
1979.999938
 11
9369.442711
 21
3948.755178
 31
1965.000097
 12
9371.920835
 22
3948.559546
 32
1965.000097
 13
9368.26223
 23
3933.801701
 33
1979.999938
  0
3DFACE
  5
F0
330
1F
100
AcDbEntity
  8
BUILDING_PAD
 62
     8
100
AcDbFace
 10
9354.573969
 20
3949.92897
 30
1965.000097
 11
9350.915364
 21
3935.171125
 31
1979.999938
 12
9352.095845
 22
3950.124602
 32
1965.000097
 13
9354.573969
 23
3949.92897
 33
1965.000097
  0
3DFACE
  5
F1
330
1F
100
AcDbEntity
  8
BUILDING_PAD
 62
     8
100
AcDbFace
 10
9357.868797
 20
3995.002091
 30
1965.000097
 11
9352.095845
 21
3950.124602
 31
1965.000097
 12
9355.376895
 22
3995.198811
 32
1965.000097
 13
9357.868797
 23
3995.002091
 33
1965.000097
  0
3DFACE
  5
F2
330
1F
100
AcDbEntity
  8
BUILDING_PAD
 62
     8
100
AcDbFace
 10
9342.18335
 20
3950.90713
 30
1965.000097
 11
9338.524745
 21
3936.149285
 31
1979.999938
 12
9339.705226
 22
3951.102762
 32
1965.000097
 13
9342.18335
 23
3950.90713
 33
1965.000097
  0
3DFACE
  5
F3
330
1F
100
AcDbEntity
  8
BUILDING_PAD
 62
     8
100
AcDbFace
 10
9345.40929
 20
3995.985689
 30
1965.000097
 11
9339.705226
 21
3951.102762
 31
1965.000097
 12
9342.917389
 22
3996.182409
 32
1965.000097
 13
9345.40929
 23
3995.985689
 33
1965.000097
  0
3DFACE
  5
F4
330
1F
100
AcDbEntity
  8
BUILDING_PAD
 62
     8
100
AcDbFace
 10
9334.748979
 20
3951.494026
 30
1965.000097
 11
9337.933586
 21
3996.575848
 31
1965.000097
 12
9340.425487
 22
3996.379129
 32
1965.000097
 13
9334.748979
 23
3951.494026
 33
1965.000097
  0
3DFACE
  5
F5
330
1F
100
AcDbEntity
  8
BUILDING_PAD
 62
     8
100
AcDbFace
 10
9331.090374
 20
3936.736181
 30
1979.999938
 11
9332.270855
 21
3951.689658
 31
1965.000097
 12
9334.748979
 22
3951.494026
 32
1965.000097
 13
9331.090374
 23
3936.736181
 33
1979.999938
  0
3DFACE
  5
F6
330
1F
100
AcDbEntity
  8
BUILDING_PAD
 62
     8
100
AcDbFace
 10
9322.35836
 20
3952.472185
 30
1965.000097
 11
9325.47408
 21
3997.559446
 31
1965.000097
 12
9327.965981
 22
3997.362727
 32
1965.000097
 13
9322.35836
 23
3952.472185
 33
1965.000097
  0
3DFACE
  5
F7
330
1F
100
AcDbEntity
  8
BUILDING_PAD
 62
     8
100
AcDbFace
 10
9318.699755
 20
3937.714341
 30
1979.999938
 11
9319.880236
 21
3952.667817
 31
1965.000097
 12
9322.35836
 22
3952.472185
 32
1965.000097
 13
9318.699755
 23
3937.714341
 33
1979.999938
  0
3DFACE
  5
F8
330
1F
100
AcDbEntity
  8
BUILDING_PAD
 62
     8
100
AcDbFace
 10
9305.011494
 20
3953.841609
 30
1965.000097
 11
9301.352889
 21
3939.083764
 31
1979.999938
 12
9302.53337
 22
3954.037241
 32
1965.000097
 13
9305.011494
 23
3953.841609
 33
1965.000097
  0
3DFACE
  5
F9
330
1F
100
AcDbEntity
  8
BUILDING_PAD
 62
     8
100
AcDbFace
 10
9308.03077
 20
3998.936484
 30
1965.000097
 11
9302.53337
 21
3954.037241
 31
1965.000097
 12
9305.538869
 22
3999.133203
 32
1965.000097
 13
9308.03077
 23
3998.936484
 33
1965.000097
  0
3DFACE
  5
FA
330
1F
100
AcDbEntity
  8
BUILDING_PAD
 62
     8
100
AcDbFace
 10
9300.055246
 20
3954.232873
 30
1965.000097
 11
9305.538869
 21
3999.133203
 31
1965.000097
 12
9302.53337
 22
3954.037241
 32
1965.000097
 13
9300.055246
 23
3954.232873
 33
1965.000097
  0
3DFACE
  5
FB
330
1F
100
AcDbEntity
  8
BUILDING_PAD
 62
     8
100
AcDbFace
 10
9303.046968
 20
3999.329923
 30
1965.000097
 11
9300.555066
 21
3999.526643
 31
1965.000097
 12
9304.227449
 22
4014.2834
 32
1950.000057
 13
9303.046968
 23
3999.329923
 33
1965.000097
  0
3DFACE
  5
FC
330
1F
100
AcDbEntity
  8
BUILDING_PAD
 62
     8
100
AcDbFace
 10
9315.506474
 20
3998.346325
 30
1965.000097
 11
9312.445865
 21
3953.254713
 31
1965.000097
 12
9309.967741
 22
3953.450345
 32
1965.000097
 13
9315.506474
 23
3998.346325
 33
1965.000097
  0
3DFACE
  5
FD
330
1F
100
AcDbEntity
  8
BUILDING_PAD
 62
     8
100
AcDbFace
 10
9305.538869
 20
3999.133203
 30
1965.000097
 11
9309.211251
 21
4013.88996
 31
1950.000057
 12
9308.03077
 22
3998.936484
 32
1965.000097
 13
9305.538869
 23
3999.133203
 33
1965.000097
  0
3DFACE
  5
FE
330
1F
100
AcDbEntity
  8
BUILDING_PAD
 62
     8
100
AcDbFace
 10
9327.965981
 20
3997.362727
 30
1965.000097
 11
9331.638363
 21
4012.119484
 31
1950.000057
 12
9330.457882
 22
3997.166007
 32
1965.000097
 13
9327.965981
 23
3997.362727
 33
1965.000097
  0
3DFACE
  5
FF
330
1F
100
AcDbEntity
  8
BUILDING_PAD
 62
     8
100
AcDbFace
 10
9324.836484
 20
3952.276553
 30
1965.000097
 11
9330.457882
 21
3997.166007
 31
1965.000097
 12
9327.314608
 22
3952.080922
 32
1965.000097
 13
9324.836484
 23
3952.276553
 33
1965.000097
  0
3DFACE
  5
100
330
1F
100
AcDbEntity
  8
BUILDING_PAD
 62
     8
100
AcDbFace
 10
9337.933586
 20
3996.575848
 30
1965.000097
 11
9334.748979
 21
3951.494026
 31
1965.000097
 12
9332.270855
 22
3951.689658
 32
1965.000097
 13
9337.933586
 23
3996.575848
 33
1965.000097
  0
3DFACE
  5
101
330
1F
100
AcDbEntity
  8
BUILDING_PAD
 62
     8
100
AcDbFace
 10
9330.457882
 20
3997.166007
 30
1965.000097
 11
9334.130265
 21
4011.922764
 31
1950.000057
 12
9332.949784
 22
3996.969288
 32
1965.000097
 13
9330.457882
 23
3997.166007
 33
1965.000097
  0
3DFACE
  5
102
330
1F
100
AcDbEntity
  8
BUILDING_PAD
 62
     8
100
AcDbFace
 10
9350.393093
 20
3995.59225
 30
1965.000097
 11
9344.661474
 21
3950.711498
 31
1965.000097
 12
9347.901191
 22
3995.78897
 32
1965.000097
 13
9350.393093
 23
3995.59225
 33
1965.000097
  0
3DFACE
  5
103
330
1F
100
AcDbEntity
  8
BUILDING_PAD
 62
     8
100
AcDbFace
 10
9351.573574
 20
4010.545727
 30
1950.000057
 11
9350.393093
 21
3995.59225
 31
1965.000097
 12
9347.901191
 22
3995.78897
 32
1965.000097
 13
9351.573574
 23
4010.545727
 33
1950.000057
  0
3DFACE
  5
104
330
1F
100
AcDbEntity
  8
BUILDING_PAD
 62
     8
100
AcDbFace
 10
9365.344501
 20
3994.411932
 30
1965.000097
 11
9362.00834
 21
3949.342074
 31
1965.000097
 12
9359.530216
 22
3949.537706
 32
1965.000097
 13
9365.344501
 23
3994.411932
 33
1965.000097
  0
3DFACE
  5
105
330
1F
100
AcDbEntity
  8
BUILDING_PAD
 62
     8
100
AcDbFace
 10
9355.376895
 20
3995.198811
 30
1965.000097
 11
9359.049278
 21
4009.955568
 31
1950.000057
 12
9357.868797
 22
3995.002091
 32
1965.000097
 13
9355.376895
 23
3995.198811
 33
1965.000097
  0
3DFACE
  5
106
330
1F
100
AcDbEntity
  8
BUILDING_PAD
 62
     8
100
AcDbFace
 10
9375.312106
 20
3993.625054
 30
1965.000097
 11
9369.442711
 21
3948.755178
 31
1965.000097
 12
9372.820205
 22
3993.821774
 32
1965.000097
 13
9375.312106
 23
3993.625054
 33
1965.000097
  0
3DFACE
  5
107
330
1F
100
AcDbEntity
  8
BUILDING_PAD
 62
     8
100
AcDbFace
 10
9376.492587
 20
4008.578531
 30
1950.000057
 11
9375.312106
 21
3993.625054
 31
1965.000097
 12
9372.820205
 22
3993.821774
 32
1965.000097
 13
9376.492587
 23
4008.578531
 33
1950.000057
  0
3DFACE
  5
108
330
1F
100
AcDbEntity
  8
BUILDING_PAD
 62
     8
100
AcDbFace
 10
9387.771613
 20
3992.641456
 30
1965.000097
 11
9384.311453
 21
3947.581386
 31
1965.000097
 12
9381.83333
 22
3947.777018
 32
1965.000097
 13
9387.771613
 23
3992.641456
 33
1965.000097
  0
3DFACE
  5
109
330
1F
100
AcDbEntity
  8
BUILDING_PAD
 62
     8
100
AcDbFace
 10
9388.952094
 20
4007.594933
 30
1950.000057
 11
9387.771613
 21
3992.641456
 31
1965.000097
 12
9385.279711
 22
3992.838176
 32
1965.000097
 13
9388.952094
 23
4007.594933
 33
1950.000057
  0
3DFACE
  5
10A
330
1F
100
AcDbEntity
  8
BUILDING_PAD
 62
     8
100
AcDbFace
 10
9400.231119
 20
3991.657858
 30
1965.000097
 11
9394.223948
 21
3946.798858
 31
1965.000097
 12
9397.739218
 22
3991.854577
 32
1965.000097
 13
9400.231119
 23
3991.657858
 33
1965.000097
  0
3DFACE
  5
10B
330
1F
100
AcDbEntity
  8
BUILDING_PAD
 62
     8
100
AcDbFace
 10
9401.4116
 20
4006.611335
 30
1950.000057
 11
9400.231119
 21
3991.657858
 31
1965.000097
 12
9397.739218
 22
3991.854577
 32
1965.000097
 13
9401.4116
 23
4006.611335
 33
1950.000057
  0
3DFACE
  5
10C
330
1F
100
AcDbEntity
  8
BUILDING_PAD
 62
     8
100
AcDbFace
 10
9385.609096
 20
3932.432278
 30
1979.999938
 11
9389.267701
 21
3947.190122
 31
1965.000097
 12
9388.08722
 22
3932.236646
 32
1979.999938
 13
9385.609096
 23
3932.432278
 33
1979.999938
  0
3DFACE
  5
10D
330
1F
100
AcDbEntity
  8
BUILDING_PAD
 62
     8
100
AcDbFace
 10
9373.218477
 20
3933.410438
 30
1979.999938
 11
9376.877082
 21
3948.168282
 31
1965.000097
 12
9375.696601
 22
3933.214806
 32
1979.999938
 13
9373.218477
 23
3933.410438
 33
1979.999938
  0
3DFACE
  5
10E
330
1F
100
AcDbEntity
  8
BUILDING_PAD
 62
     8
100
AcDbFace
 10
9357.052092
 20
3949.733338
 30
1965.000097
 11
9353.393488
 21
3934.975493
 31
1979.999938
 12
9354.573969
 22
3949.92897
 32
1965.000097
 13
9357.052092
 23
3949.733338
 33
1965.000097
  0
3DFACE
  5
10F
330
1F
100
AcDbEntity
  8
BUILDING_PAD
 62
     8
100
AcDbFace
 10
9344.661474
 20
3950.711498
 30
1965.000097
 11
9341.002869
 21
3935.953653
 31
1979.999938
 12
9342.18335
 22
3950.90713
 32
1965.000097
 13
9344.661474
 23
3950.711498
 33
1965.000097
  0
3DFACE
  5
110
330
1F
100
AcDbEntity
  8
BUILDING_PAD
 62
     8
100
AcDbFace
 10
9336.046621
 20
3936.344917
 30
1979.999938
 11
9339.705226
 21
3951.102762
 31
1965.000097
 12
9338.524745
 22
3936.149285
 32
1979.999938
 13
9336.046621
 23
3936.344917
 33
1979.999938
  0
3DFACE
  5
111
330
1F
100
AcDbEntity
  8
BUILDING_PAD
 62
     8
100
AcDbFace
 10
9322.35836
 20
3952.472185
 30
1965.000097
 11
9324.836484
 21
3952.276553
 31
1965.000097
 12
9321.177879
 22
3937.518709
 32
1979.999938
 13
9322.35836
 23
3952.472185
 33
1965.000097
  0
3DFACE
  5
112
330
1F
100
AcDbEntity
  8
BUILDING_PAD
 62
     8
100
AcDbFace
 10
9307.489618
 20
3953.645977
 30
1965.000097
 11
9303.831013
 21
3938.888133
 31
1979.999938
 12
9305.011494
 22
3953.841609
 32
1965.000097
 13
9307.489618
 23
3953.645977
 33
1965.000097
  0
3DFACE
  5
113
330
1F
100
AcDbEntity
  8
BUILDING_PAD
 62
     8
100
AcDbFace
 10
9302.53337
 20
3954.037241
 30
1965.000097
 11
9298.874765
 21
3939.279396
 31
1979.999938
 12
9300.055246
 22
3954.232873
 32
1965.000097
 13
9302.53337
 23
3954.037241
 33
1965.000097
  0
3DFACE
  5
114
330
1F
100
AcDbEntity
  8
BUILDING_PAD
 62
     8
100
AcDbFace
 10
9313.014573
 20
3998.543044
 30
1965.000097
 11
9316.686955
 21
4013.299801
 31
1950.000057
 12
9315.506474
 22
3998.346325
 32
1965.000097
 13
9313.014573
 23
3998.543044
 33
1965.000097
  0
3DFACE
  5
115
330
1F
100
AcDbEntity
  8
BUILDING_PAD
 62
     8
100
AcDbFace
 10
9325.47408
 20
3997.559446
 30
1965.000097
 11
9329.146462
 21
4012.316203
 31
1950.000057
 12
9327.965981
 22
3997.362727
 32
1965.000097
 13
9325.47408
 23
3997.559446
 33
1965.000097
  0
3DFACE
  5
116
330
1F
100
AcDbEntity
  8
BUILDING_PAD
 62
     8
100
AcDbFace
 10
9337.933586
 20
3996.575848
 30
1965.000097
 11
9341.605969
 21
4011.332605
 31
1950.000057
 12
9340.425487
 22
3996.379129
 32
1965.000097
 13
9337.933586
 23
3996.575848
 33
1965.000097
  0
3DFACE
  5
117
330
1F
100
AcDbEntity
  8
BUILDING_PAD
 62
     8
100
AcDbFace
 10
9347.901191
 20
3995.78897
 30
1965.000097
 11
9345.40929
 21
3995.985689
 31
1965.000097
 12
9349.081672
 22
4010.742446
 32
1950.000057
 13
9347.901191
 23
3995.78897
 33
1965.000097
  0
3DFACE
  5
118
330
1F
100
AcDbEntity
  8
BUILDING_PAD
 62
     8
100
AcDbFace
 10
9362.852599
 20
3994.608652
 30
1965.000097
 11
9366.524982
 21
4009.365409
 31
1950.000057
 12
9365.344501
 22
3994.411932
 32
1965.000097
 13
9362.852599
 23
3994.608652
 33
1965.000097
  0
3DFACE
  5
119
330
1F
100
AcDbEntity
  8
BUILDING_PAD
 62
     8
100
AcDbFace
 10
9372.820205
 20
3993.821774
 30
1965.000097
 11
9370.328303
 21
3994.018493
 31
1965.000097
 12
9374.000686
 22
4008.77525
 32
1950.000057
 13
9372.820205
 23
3993.821774
 33
1965.000097
  0
3DFACE
  5
11A
330
1F
100
AcDbEntity
  8
BUILDING_PAD
 62
     8
100
AcDbFace
 10
9387.771613
 20
3992.641456
 30
1965.000097
 11
9391.443995
 21
4007.398213
 31
1950.000057
 12
9390.263514
 22
3992.444736
 32
1965.000097
 13
9387.771613
 23
3992.641456
 33
1965.000097
  0
3DFACE
  5
11B
330
1F
100
AcDbEntity
  8
BUILDING_PAD
 62
     8
100
AcDbFace
 10
9397.739218
 20
3991.854577
 30
1965.000097
 11
9395.247317
 21
3992.051297
 31
1965.000097
 12
9398.919699
 22
4006.808054
 32
1950.000057
 13
9397.739218
 23
3991.854577
 33
1965.000097
  0
3DFACE
  5
11C
330
1F
100
AcDbEntity
  8
BUILDING_PAD
 62
     8
100
AcDbFace
 10
9406.395403
 20
4006.217895
 30
1950.000057
 11
9405.214922
 21
3991.264419
 31
1965.000097
 12
9402.72302
 22
3991.461138
 32
1965.000097
 13
9406.395403
 23
4006.217895
 33
1950.000057
  0
3DFACE
  5
11D
330
1F
100
AcDbEntity
  8
BUILDING_PAD
 62
     8
100
AcDbFace
 10
9391.745825
 20
3946.99449
 30
1965.000097
 11
9394.223948
 21
3946.798858
 31
1965.000097
 12
9390.565344
 22
3932.041014
 32
1979.999938
 13
9391.745825
 23
3946.99449
 33
1965.000097
  0
3DFACE
  5
11E
330
1F
100
AcDbEntity
  8
BUILDING_PAD
 62
     8
100
AcDbFace
 10
9382.78781
 20
3993.034895
 30
1965.000097
 11
9376.877082
 21
3948.168282
 31
1965.000097
 12
9380.295909
 22
3993.231615
 32
1965.000097
 13
9382.78781
 23
3993.034895
 33
1965.000097
  0
3DFACE
  5
11F
330
1F
100
AcDbEntity
  8
BUILDING_PAD
 62
     8
100
AcDbFace
 10
9401.65832
 20
3946.211963
 30
1965.000097
 11
9397.999715
 21
3931.454118
 31
1979.999938
 12
9399.180196
 22
3946.407595
 32
1965.000097
 13
9401.65832
 23
3946.211963
 33
1965.000097
  0
3DFACE
  5
120
330
1F
100
AcDbEntity
  8
BUILDING_PAD
 62
     8
100
AcDbFace
 10
9370.328303
 20
3994.018493
 30
1965.000097
 11
9364.486464
 21
3949.146442
 31
1965.000097
 12
9367.836402
 22
3994.215213
 32
1965.000097
 13
9370.328303
 23
3994.018493
 33
1965.000097
  0
3DFACE
  5
121
330
1F
100
AcDbEntity
  8
BUILDING_PAD
 62
     8
100
AcDbFace
 10
9376.877082
 20
3948.168282
 30
1965.000097
 11
9379.355206
 21
3947.97265
 31
1965.000097
 12
9375.696601
 22
3933.214806
 32
1979.999938
 13
9376.877082
 23
3948.168282
 33
1965.000097
  0
3DFACE
  5
122
330
1F
100
AcDbEntity
  8
BUILDING_PAD
 62
     8
100
AcDbFace
 10
9357.052092
 20
3949.733338
 30
1965.000097
 11
9354.573969
 21
3949.92897
 31
1965.000097
 12
9360.360698
 22
3994.805372
 32
1965.000097
 13
9357.052092
 23
3949.733338
 33
1965.000097
  0
3DFACE
  5
123
330
1F
100
AcDbEntity
  8
BUILDING_PAD
 62
     8
100
AcDbFace
 10
9364.486464
 20
3949.146442
 30
1965.000097
 11
9366.964587
 21
3948.95081
 31
1965.000097
 12
9363.305983
 22
3934.192965
 32
1979.999938
 13
9364.486464
 23
3949.146442
 33
1965.000097
  0
3DFACE
  5
124
330
1F
100
AcDbEntity
  8
BUILDING_PAD
 62
     8
100
AcDbFace
 10
9344.661474
 20
3950.711498
 30
1965.000097
 11
9342.18335
 21
3950.90713
 31
1965.000097
 12
9347.901191
 22
3995.78897
 32
1965.000097
 13
9344.661474
 23
3950.711498
 33
1965.000097
  0
3DFACE
  5
125
330
1F
100
AcDbEntity
  8
BUILDING_PAD
 62
     8
100
AcDbFace
 10
9364.486464
 20
3949.146442
 30
1965.000097
 11
9360.827859
 21
3934.388597
 31
1979.999938
 12
9362.00834
 22
3949.342074
 32
1965.000097
 13
9364.486464
 23
3949.146442
 33
1965.000097
  0
3DFACE
  5
126
330
1F
100
AcDbEntity
  8
BUILDING_PAD
 62
     8
100
AcDbFace
 10
9332.949784
 20
3996.969288
 30
1965.000097
 11
9327.314608
 21
3952.080922
 31
1965.000097
 12
9330.457882
 22
3997.166007
 32
1965.000097
 13
9332.949784
 23
3996.969288
 33
1965.000097
  0
3DFACE
  5
127
330
1F
100
AcDbEntity
  8
BUILDING_PAD
 62
     8
100
AcDbFace
 10
9352.095845
 20
3950.124602
 30
1965.000097
 11
9348.43724
 21
3935.366757
 31
1979.999938
 12
9349.617721
 22
3950.320234
 32
1965.000097
 13
9352.095845
 23
3950.124602
 33
1965.000097
  0
3DFACE
  5
128
330
1F
100
AcDbEntity
  8
BUILDING_PAD
 62
     8
100
AcDbFace
 10
9320.490277
 20
3997.952886
 30
1965.000097
 11
9314.923989
 21
3953.059081
 31
1965.000097
 12
9317.998376
 22
3998.149605
 32
1965.000097
 13
9320.490277
 23
3997.952886
 33
1965.000097
  0
3DFACE
  5
129
330
1F
100
AcDbEntity
  8
BUILDING_PAD
 62
     8
100
AcDbFace
 10
9327.314608
 20
3952.080922
 30
1965.000097
 11
9329.792731
 21
3951.88529
 31
1965.000097
 12
9326.134127
 22
3937.127445
 32
1979.999938
 13
9327.314608
 23
3952.080922
 33
1965.000097
  0
3DFACE
  5
12A
330
1F
100
AcDbEntity
  8
BUILDING_PAD
 62
     8
100
AcDbFace
 10
9307.489618
 20
3953.645977
 30
1965.000097
 11
9305.011494
 21
3953.841609
 31
1965.000097
 12
9310.522672
 22
3998.739764
 32
1965.000097
 13
9307.489618
 23
3953.645977
 33
1965.000097
  0
3DFACE
  5
12B
330
1F
100
AcDbEntity
  8
BUILDING_PAD
 62
     8
100
AcDbFace
 10
9314.923989
 20
3953.059081
 30
1965.000097
 11
9317.402113
 21
3952.863449
 31
1965.000097
 12
9313.743508
 22
3938.105605
 32
1979.999938
 13
9314.923989
 23
3953.059081
 33
1965.000097
  0
3DFACE
  5
12C
330
1F
100
AcDbEntity
  8
BUILDING_PAD
 62
     8
100
AcDbFace
 10
9322.35836
 20
3952.472185
 30
1965.000097
 11
9319.880236
 21
3952.667817
 31
1965.000097
 12
9325.47408
 22
3997.559446
 32
1965.000097
 13
9322.35836
 23
3952.472185
 33
1965.000097
  0
3DFACE
  5
12D
330
1F
100
AcDbEntity
  8
BUILDING_PAD
 62
     8
100
AcDbFace
 10
9312.445865
 20
3953.254713
 30
1965.000097
 11
9317.998376
 21
3998.149605
 31
1965.000097
 12
9314.923989
 22
3953.059081
 32
1965.000097
 13
9312.445865
 23
3953.254713
 33
1965.000097
  0
3DFACE
  5
12E
330
1F
100
AcDbEntity
  8
BUILDING_PAD
 62
     8
100
AcDbFace
 10
9305.538869
 20
3999.133203
 30
1965.000097
 11
9303.046968
 21
3999.329923
 31
1965.000097
 12
9306.71935
 22
4014.08668
 32
1950.000057
 13
9305.538869
 23
3999.133203
 33
1965.000097
  0
3DFACE
  5
12F
330
1F
100
AcDbEntity
  8
BUILDING_PAD
 62
     8
100
AcDbFace
 10
9339.705226
 20
3951.102762
 30
1965.000097
 11
9337.227102
 21
3951.298394
 31
1965.000097
 12
9342.917389
 22
3996.182409
 32
1965.000097
 13
9339.705226
 23
3951.102762
 33
1965.000097
  0
3DFACE
  5
130
330
1F
100
AcDbEntity
  8
BUILDING_PAD
 62
     8
100
AcDbFace
 10
9317.998376
 20
3998.149605
 30
1965.000097
 11
9315.506474
 21
3998.346325
 31
1965.000097
 12
9319.178857
 22
4013.103082
 32
1950.000057
 13
9317.998376
 23
3998.149605
 33
1965.000097
  0
3DFACE
  5
131
330
1F
100
AcDbEntity
  8
BUILDING_PAD
 62
     8
100
AcDbFace
 10
9352.095845
 20
3950.124602
 30
1965.000097
 11
9349.617721
 21
3950.320234
 31
1965.000097
 12
9355.376895
 22
3995.198811
 32
1965.000097
 13
9352.095845
 23
3950.124602
 33
1965.000097
  0
3DFACE
  5
132
330
1F
100
AcDbEntity
  8
BUILDING_PAD
 62
     8
100
AcDbFace
 10
9326.654561
 20
4012.512923
 30
1950.000057
 11
9325.47408
 21
3997.559446
 31
1965.000097
 12
9322.982178
 22
3997.756166
 32
1965.000097
 13
9326.654561
 23
4012.512923
 33
1950.000057
  0
3DFACE
  5
133
330
1F
100
AcDbEntity
  8
BUILDING_PAD
 62
     8
100
AcDbFace
 10
9364.486464
 20
3949.146442
 30
1965.000097
 11
9362.00834
 21
3949.342074
 31
1965.000097
 12
9367.836402
 22
3994.215213
 32
1965.000097
 13
9364.486464
 23
3949.146442
 33
1965.000097
  0
3DFACE
  5
134
330
1F
100
AcDbEntity
  8
BUILDING_PAD
 62
     8
100
AcDbFace
 10
9342.917389
 20
3996.182409
 30
1965.000097
 11
9340.425487
 21
3996.379129
 31
1965.000097
 12
9344.09787
 22
4011.135886
 32
1950.000057
 13
9342.917389
 23
3996.182409
 33
1965.000097
  0
3DFACE
  5
135
330
1F
100
AcDbEntity
  8
BUILDING_PAD
 62
     8
100
AcDbFace
 10
9376.877082
 20
3948.168282
 30
1965.000097
 11
9374.398958
 21
3948.363914
 31
1965.000097
 12
9380.295909
 22
3993.231615
 32
1965.000097
 13
9376.877082
 23
3948.168282
 33
1965.000097
  0
3DFACE
  5
136
330
1F
100
AcDbEntity
  8
BUILDING_PAD
 62
     8
100
AcDbFace
 10
9355.376895
 20
3995.198811
 30
1965.000097
 11
9352.884994
 21
3995.395531
 31
1965.000097
 12
9356.557376
 22
4010.152288
 32
1950.000057
 13
9355.376895
 23
3995.198811
 33
1965.000097
  0
3DFACE
  5
137
330
1F
100
AcDbEntity
  8
BUILDING_PAD
 62
     8
100
AcDbFace
 10
9389.267701
 20
3947.190122
 30
1965.000097
 11
9386.789577
 21
3947.385754
 31
1965.000097
 12
9392.755415
 22
3992.248017
 32
1965.000097
 13
9389.267701
 23
3947.190122
 33
1965.000097
  0
3DFACE
  5
138
330
1F
100
AcDbEntity
  8
BUILDING_PAD
 62
     8
100
AcDbFace
 10
9367.836402
 20
3994.215213
 30
1965.000097
 11
9365.344501
 21
3994.411932
 31
1965.000097
 12
9369.016883
 22
4009.16869
 32
1950.000057
 13
9367.836402
 23
3994.215213
 33
1965.000097
  0
3DFACE
  5
139
330
1F
100
AcDbEntity
  8
BUILDING_PAD
 62
     8
100
AcDbFace
 10
9401.65832
 20
3946.211963
 30
1965.000097
 11
9399.180196
 21
3946.407595
 31
1965.000097
 12
9405.214922
 22
3991.264419
 32
1965.000097
 13
9401.65832
 23
3946.211963
 33
1965.000097
  0
3DFACE
  5
13A
330
1F
100
AcDbEntity
  8
BUILDING_PAD
 62
     8
100
AcDbFace
 10
9380.295909
 20
3993.231615
 30
1965.000097
 11
9377.804007
 21
3993.428334
 31
1965.000097
 12
9381.47639
 22
4008.185091
 32
1950.000057
 13
9380.295909
 23
3993.231615
 33
1965.000097
  0
3DFACE
  5
13B
330
1F
100
AcDbEntity
  8
BUILDING_PAD
 62
     8
100
AcDbFace
 10
9392.755415
 20
3992.248017
 30
1965.000097
 11
9390.263514
 21
3992.444736
 31
1965.000097
 12
9393.935896
 22
4007.201493
 32
1950.000057
 13
9392.755415
 23
3992.248017
 33
1965.000097
  0
3DFACE
  5
13C
330
1F
100
AcDbEntity
  8
BUILDING_PAD
 62
     8
100
AcDbFace
 10
9303.046968
 20
3999.329923
 30
1965.000097
 11
9305.538869
 21
3999.133203
 31
1965.000097
 12
9300.055246
 22
3954.232873
 32
1965.000097
 13
9303.046968
 23
3999.329923
 33
1965.000097
  0
3DFACE
  5
13D
330
1F
100
AcDbEntity
  8
BUILDING_PAD
 62
     8
100
AcDbFace
 10
9314.923989
 20
3953.059081
 30
1965.000097
 11
9311.265384
 21
3938.301237
 31
1979.999938
 12
9312.445865
 22
3953.254713
 32
1965.000097
 13
9314.923989
 23
3953.059081
 33
1965.000097
  0
3DFACE
  5
13E
330
1F
100
AcDbEntity
  8
BUILDING_PAD
 62
     8
100
AcDbFace
 10
9391.745825
 20
3946.99449
 30
1965.000097
 11
9397.739218
 21
3991.854577
 31
1965.000097
 12
9394.223948
 22
3946.798858
 32
1965.000097
 13
9391.745825
 23
3946.99449
 33
1965.000097
  0
ENDSEC
  0
SECTION
  2
OBJECTS
  0
DICTIONARY
  5
C
330
0
100
AcDbDictionary
  3
ACAD_GROUP
350
D
  3
ACAD_LAYOUT
350
1A
  3
ACAD_MATERIAL
350
3B
  3
ACAD_MLEADERSTYLE
350
161
  3
ACAD_MLINESTYLE
350
17
  3
ACAD_PLOTSETTINGS
350
19
  3
ACAD_VISUALSTYLE
350
2A
  3
ACDBHEADERROUNDTRIPXREC
350
13F
  3
ACDBVARIABLEDICTIONARY
350
15F
  0
DICTIONARY
  5
D
102
{ACAD_REACTORS
330
C
102
}
330
C
100
AcDbDictionary
  0
DICTIONARY
  5
1A
102
{ACAD_REACTORS
330
C
102
}
330
C
100
AcDbDictionary
  0
DICTIONARY
  5
3B
102
{ACAD_REACTORS
330
C
102
}
330
C
100
AcDbDictionary
  3
BYBLOCK
350
3D
  3
BYLAYER
350
3C
  3
GLOBAL
350
3E
  0
DICTIONARY
  5
161
102
{ACAD_REACTORS
330
C
102
}
330
C
100
AcDbDictionary
  0
DICTIONARY
  5
17
102
{ACAD_REACTORS
330
C
102
}
330
C
100
AcDbDictionary
  3
STANDARD
350
18
  0
DICTIONARY
  5
19
102
{ACAD_REACTORS
330
C
102
}
330
C
100
AcDbDictionary
  0
DICTIONARY
  5
2A
102
{ACAD_REACTORS
330
C
102
}
330
C
100
AcDbDictionary
  3
2DWIREFRAME
350
2F
  3
3D_HIDDEN
350
31
  3
3DWIREFRAME
350
30
  3
BASIC
350
32
  3
BRIGHTEN
350
36
  3
COLORCHANGE
350
3A
  3
CONCEPTUAL
350
34
  3
DIM
350
35
  3
FACEPATTERN
350
39
  3
FLAT
350
2B
  3
FLATWITHEDGES
350
2C
  3
GOURAUD
350
2D
  3
GOURAUDWITHEDGES
350
2E
  3
LINEPATTERN
350
38
  3
REALISTIC
350
33
  3
THICKEN
350
37
  0
DICTIONARY
  5
13F
102
{ACAD_REACTORS
330
C
102
}
330
C
100
AcDbDictionary
  3
CEPSNTYPE
350
148
  3
DIMSTYLEDATA
350
15E
  3
FINGERPRINTGUID
350
149
  3
HYPERLINKBASE
350
142
  3
INSUNITS
350
147
  3
LAYOUTDICT
350
144
  3
LWETCUNION
350
146
  3
PLOTSETDICT
350
145
  3
PSVPSCALE
350
14B
  3
PUCSBASE
350
14E
  3
PUCSORGBACK
350
154
  3
PUCSORGBOTTOM
350
150
  3
PUCSORGFRONT
350
153
  3
PUCSORGLEFT
350
151
  3
PUCSORGRIGHT
350
152
  3
PUCSORGTOP
350
14F
  3
PUCSORTHOREF
350
14C
  3
PUCSORTHOVIEW
350
14D
  3
STYLESHEET
350
143
  3
TSTACKALIGN
350
140
  3
TSTACKSIZE
350
141
  3
UCSBASE
350
157
  3
UCSORGBACK
350
15D
  3
UCSORGBOTTOM
350
159
  3
UCSORGFRONT
350
15C
  3
UCSORGLEFT
350
15A
  3
UCSORGRIGHT
350
15B
  3
UCSORGTOP
350
158
  3
UCSORTHOREF
350
155
  3
UCSORTHOVIEW
350
156
  3
VERSIONGUID
350
14A
  0
DICTIONARY
  5
15F
102
{ACAD_REACTORS
330
C
102
}
330
C
100
AcDbDictionary
  3
DIMASSOC
350
162
  3
HIDETEXT
350
163
  0
MATERIAL
  5
3D
102
{ACAD_REACTORS
330
3B
102
}
102
{ACAD_XDICTIONARY
360
166
102
}
330
3B
100
AcDbMaterial
  1
ByBlock
  0
MATERIAL
  5
3C
102
{ACAD_REACTORS
330
3B
102
}
102
{ACAD_XDICTIONARY
360
164
102
}
330
3B
100
AcDbMaterial
  1
ByLayer
  0
MATERIAL
  5
3E
102
{ACAD_REACTORS
330
3B
102
}
102
{ACAD_XDICTIONARY
360
168
102
}
330
3B
100
AcDbMaterial
  1
Global
  0
MLINESTYLE
  5
18
102
{ACAD_REACTORS
330
17
102
}
330
17
100
AcDbMlineStyle
  2
Standard
 70
     0
  3

 62
   256
 51
90.0
 52
90.0
 71
     2
 49
0.5
 62
   256
  6
BYLAYER
 49
-0.5
 62
   256
  6
BYLAYER
  0
ACAD_PROXY_OBJECT
  5
2F
102
{ACAD_REACTORS
330
2A
102
}
330
2A
100
AcDbProxyObject
 90
      499
 91
      501
 93
      436
310
42CC9915DA5C99599C985B595049028333333333333E3BF0000000000000FB0107901411070040501600405405064090741402480A0340
1001
ACAD
1000
AcDbSavedByObjectVersion
1070
     0
  0
ACAD_PROXY_OBJECT
  5
31
102
{ACAD_REACTORS
330
2A
102
}
330
2A
100
AcDbProxyObject
 90
      499
 91
      501
 93
      500
310
424CD108121A5919195B90640502408333333333333E3BF0000000000000FB01079024090700405020000000000001110200405405064090740C02480A0340
1001
ACAD
1000
AcDbSavedByObjectVersion
1070
     0
  0
ACAD_PROXY_OBJECT
  5
30
102
{ACAD_REACTORS
330
2A
102
}
330
2A
100
AcDbProxyObject
 90
      499
 91
      501
 93
      436
310
42CCD915DA5C99599C985B595059028333333333333E3BF0000000000000FB0107901411070040501600405405064090741402480A0340
1001
ACAD
1000
AcDbSavedByObjectVersion
1070
     0
  0
ACAD_PROXY_OBJECT
  5
32
102
{ACAD_REACTORS
330
2A
102
}
330
2A
100
AcDbProxyObject
 90
      499
 91
      501
 93
      388
310
4150985CDA58D07406404333333333333E3BF0000000000000FB0107A41107004050150841D405064090741402480A0350
1001
ACAD
1000
AcDbSavedByObjectVersion
1070
     0
  0
ACAD_PROXY_OBJECT
  5
36
102
{ACAD_REACTORS
330
2A
102
}
330
2A
100
AcDbProxyObject
 90
      499
 91
      501
 93
      428
310
42109C9A59DA1D195B90C409028333333333333E3BF0000000000000FB010790141107004050150841D405064090741402480A029950
1001
ACAD
1000
AcDbSavedByObjectVersion
1070
     0
  0
ACAD_PROXY_OBJECT
  5
3A
102
{ACAD_REACTORS
330
2A
102
}
330
2A
100
AcDbProxyObject
 90
      499
 91
      501
 93
      452
310
42D0DBDB1BDC90DA185B99D95104090240C333333333333E3BF0000000000000FB0108901411070040501508421405064090741402480A0350
1001
ACAD
1000
AcDbSavedByObjectVersion
1070
     0
  0
ACAD_PROXY_OBJECT
  5
34
102
{ACAD_REACTORS
330
2A
102
}
330
2A
100
AcDbProxyObject
 90
      499
 91
      501
 93
      500
310
4290DBDB98D95C1D1D585B10940D028333333333333E3BF0000000000000FB0107902409070040501000000000000111010841D405064090740C02480A0340
1001
ACAD
1000
AcDbSavedByObjectVersion
1070
     0
  0
ACAD_PROXY_OBJECT
  5
35
102
{ACAD_REACTORS
330
2A
102
}
330
2A
100
AcDbProxyObject
 90
      499
 91
      501
 93
      412
310
40D11A5B50B409028333333333333E3BF0000000000000FB010790141107004050150841D405064090741402480A02677FFFFFD0
1001
ACAD
1000
AcDbSavedByObjectVersion
1070
     0
  0
ACAD_PROXY_OBJECT
  5
39
102
{ACAD_REACTORS
330
2A
102
}
330
2A
100
AcDbProxyObject
 90
      499
 91
      501
 93
      444
310
42D19858D95C185D1D195C9B90F409028333333333333E3BF0000000000000FB010790141107004050150841D405064090741402480A0350
1001
ACAD
1000
AcDbSavedByObjectVersion
1070
     0
  0
ACAD_PROXY_OBJECT
  5
2B
102
{ACAD_REACTORS
330
2A
102
}
330
2A
100
AcDbProxyObject
 90
      499
 91
      501
 93
      388
310
41119B185D240901404333333333333E3BF0000000000000F9010740A41107004050150841D405064090741402480A1B50
1001
ACAD
1000
AcDbSavedByObjectVersion
1070
     0
  0
ACAD_PROXY_OBJECT
  5
2C
102
{ACAD_REACTORS
330
2A
102
}
330
2A
100
AcDbProxyObject
 90
      499
 91
      501
 93
      476
310
43519B185D15DA5D1A115919D95CD0140901404333333333333E3BF0000000000000F9010740901411070040501600405405064090741402480A1B50
1001
ACAD
1000
AcDbSavedByObjectVersion
1070
     0
  0
ACAD_PROXY_OBJECT
  5
2D
102
{ACAD_REACTORS
330
2A
102
}
330
2A
100
AcDbProxyObject
 90
      499
 91
      501
 93
      412
310
41D1DBDD5C985D5910240902404333333333333E3BF0000000000000F9010740A411070040501641D405064090741402480A1B50
1001
ACAD
1000
AcDbSavedByObjectVersion
1070
     0
  0
ACAD_PROXY_OBJECT
  5
2E
102
{ACAD_REACTORS
330
2A
102
}
330
2A
100
AcDbProxyObject
 90
      499
 91
      501
 93
      500
310
4411DBDD5C985D5915DA5D1A115919D95CD0340902404333333333333E3BF0000000000000F9010740901411070040501600405405064090741402480A1B50
1001
ACAD
1000
AcDbSavedByObjectVersion
1070
     0
  0
ACAD_PROXY_OBJECT
  5
38
102
{ACAD_REACTORS
330
2A
102
}
330
2A
100
AcDbProxyObject
 90
      499
 91
      501
 93
      444
310
42D31A5B995C185D1D195C9B90E409028333333333333E3BF0000000000000FB010790141107004050750841D405064090741402483A0350
1001
ACAD
1000
AcDbSavedByObjectVersion
1070
     0
  0
ACAD_PROXY_OBJECT
  5
33
102
{ACAD_REACTORS
330
2A
102
}
330
2A
100
AcDbProxyObject
 90
      499
 91
      501
 93
      420
310
425499585B1A5CDD1A58D08409028333333333333E3BF0000000000000FB01079019070040501508421405064090741402480A1B40
1001
ACAD
1000
AcDbSavedByObjectVersion
1070
     0
  0
ACAD_PROXY_OBJECT
  5
37
102
{ACAD_REACTORS
330
2A
102
}
330
2A
100
AcDbProxyObject
 90
      499
 91
      501
 93
      412
310
41D51A1A58DAD95B90D409028333333333333E3BF0000000000000FB010790141107004050150C41D405064090741402480A0350
1001
ACAD
1000
AcDbSavedByObjectVersion
1070
     0
  0
XRECORD
  5
148
102
{ACAD_REACTORS
330
13F
102
}
330
13F
100
AcDbXrecord
 90
        0
  0
XRECORD
  5
15E
102
{ACAD_REACTORS
330
13F
102
}
330
13F
100
AcDbXrecord
1000
DSTYLE
1002
{
1070
   340
340
11
1002
}
  0
XRECORD
  5
149
102
{ACAD_REACTORS
330
13F
102
}
330
13F
100
AcDbXrecord
  1
{6BE019F9-F1AC-4E61-9307-B9DE41FA5212}
  0
XRECORD
  5
142
102
{ACAD_REACTORS
330
13F
102
}
330
13F
100
AcDbXrecord
  1

  0
XRECORD
  5
147
102
{ACAD_REACTORS
330
13F
102
}
330
13F
100
AcDbXrecord
 90
        2
  0
XRECORD
  5
144
102
{ACAD_REACTORS
330
13F
102
}
330
13F
100
AcDbXrecord
340
1A
  0
XRECORD
  5
146
102
{ACAD_REACTORS
330
13F
102
}
330
13F
100
AcDbXrecord
 90
    10781
  0
XRECORD
  5
145
102
{ACAD_REACTORS
330
13F
102
}
330
13F
100
AcDbXrecord
340
19
  0
XRECORD
  5
14B
102
{ACAD_REACTORS
330
13F
102
}
330
13F
100
AcDbXrecord
 40
0.0
  0
XRECORD
  5
14E
102
{ACAD_REACTORS
330
13F
102
}
330
13F
100
AcDbXrecord
340
0
  0
XRECORD
  5
154
102
{ACAD_REACTORS
330
13F
102
}
330
13F
100
AcDbXrecord
 10
0.0
 20
0.0
 30
0.0
  0
XRECORD
  5
150
102
{ACAD_REACTORS
330
13F
102
}
330
13F
100
AcDbXrecord
 10
0.0
 20
0.0
 30
0.0
  0
XRECORD
  5
153
102
{ACAD_REACTORS
330
13F
102
}
330
13F
100
AcDbXrecord
 10
0.0
 20
0.0
 30
0.0
  0
XRECORD
  5
151
102
{ACAD_REACTORS
330
13F
102
}
330
13F
100
AcDbXrecord
 10
0.0
 20
0.0
 30
0.0
  0
XRECORD
  5
152
102
{ACAD_REACTORS
330
13F
102
}
330
13F
100
AcDbXrecord
 10
0.0
 20
0.0
 30
0.0
  0
XRECORD
  5
14F
102
{ACAD_REACTORS
330
13F
102
}
330
13F
100
AcDbXrecord
 10
0.0
 20
0.0
 30
0.0
  0
XRECORD
  5
14C
102
{ACAD_REACTORS
330
13F
102
}
330
13F
100
AcDbXrecord
340
0
  0
XRECORD
  5
14D
102
{ACAD_REACTORS
330
13F
102
}
330
13F
100
AcDbXrecord
 70
     0
  0
XRECORD
  5
143
102
{ACAD_REACTORS
330
13F
102
}
330
13F
100
AcDbXrecord
  1

  0
XRECORD
  5
140
102
{ACAD_REACTORS
330
13F
102
}
330
13F
100
AcDbXrecord
 90
        1
  0
XRECORD
  5
141
102
{ACAD_REACTORS
330
13F
102
}
330
13F
100
AcDbXrecord
 90
       70
  0
XRECORD
  5
157
102
{ACAD_REACTORS
330
13F
102
}
330
13F
100
AcDbXrecord
340
0
  0
XRECORD
  5
15D
102
{ACAD_REACTORS
330
13F
102
}
330
13F
100
AcDbXrecord
 10
0.0
 20
0.0
 30
0.0
  0
XRECORD
  5
159
102
{ACAD_REACTORS
330
13F
102
}
330
13F
100
AcDbXrecord
 10
0.0
 20
0.0
 30
0.0
  0
XRECORD
  5
15C
102
{ACAD_REACTORS
330
13F
102
}
330
13F
100
AcDbXrecord
 10
0.0
 20
0.0
 30
0.0
  0
XRECORD
  5
15A
102
{ACAD_REACTORS
330
13F
102
}
330
13F
100
AcDbXrecord
 10
0.0
 20
0.0
 30
0.0
  0
XRECORD
  5
15B
102
{ACAD_REACTORS
330
13F
102
}
330
13F
100
AcDbXrecord
 10
0.0
 20
0.0
 30
0.0
  0
XRECORD
  5
158
102
{ACAD_REACTORS
330
13F
102
}
330
13F
100
AcDbXrecord
 10
0.0
 20
0.0
 30
0.0
  0
XRECORD
  5
155
102
{ACAD_REACTORS
330
13F
102
}
330
13F
100
AcDbXrecord
340
0
  0
XRECORD
  5
156
102
{ACAD_REACTORS
330
13F
102
}
330
13F
100
AcDbXrecord
 70
     0
  0
XRECORD
  5
14A
102
{ACAD_REACTORS
330
13F
102
}
330
13F
100
AcDbXrecord
  1
{FAEB1C32-E019-11D5-929B-00C0DF256EC4}
  0
DICTIONARYVAR
  5
162
102
{ACAD_REACTORS
330
15F
102
}
330
15F
100
DictionaryVariables
280
     0
  1
2
  0
DICTIONARYVAR
  5
163
102
{ACAD_REACTORS
330
15F
102
}
330
15F
100
DictionaryVariables
280
     0
  1
1
  0
DICTIONARY
  5
166
330
3D
100
AcDbDictionary
280
     1
  3
ACAD_XREC_ROUNDTRIP
360
167
  0
DICTIONARY
  5
164
330
3C
100
AcDbDictionary
280
     1
  3
ACAD_XREC_ROUNDTRIP
360
165
  0
DICTIONARY
  5
168
330
3E
100
AcDbDictionary
280
     1
  3
ACAD_XREC_ROUNDTRIP
360
169
  0
XRECORD
  5
167
102
{ACAD_REACTORS
330
166
102
}
330
166
100
AcDbXrecord
102
MATERIAL
148
0.0
149
0.0
149
0.0
 93
        0
 94
      127
282
     0
 72
     1
 77
     1
171
     1
175
     1
179
     1
273
     0
  0
XRECORD
  5
165
102
{ACAD_REACTORS
330
164
102
}
330
164
100
AcDbXrecord
102
MATERIAL
148
0.0
149
0.0
149
0.0
 93
        0
 94
      127
282
     0
 72
     1
 77
     1
171
     1
175
     1
179
     1
273
     0
  0
XRECORD
  5
169
102
{ACAD_REACTORS
330
168
102
}
330
168
100
AcDbXrecord
102
MATERIAL
148
0.0
149
0.0
149
0.0
 93
        0
 94
      127
282
     0
 72
     1
 77
     1
171
     1
175
     1
179
     1
273
     0
  0
ENDSEC
  0
EOF
