  0
SECTION
  2
HEADER
  9
$LIMMIN
 10
0.000000
 20
0.000000
  9
$LIMMAX
 10
0.000000
 20
0.000000
  0
ENDSEC
  0
SECTION
  2
TABLES
  0
TABLE
  2
LAYER
  0
LAYER
  2
0
 70
0
 62
7
  6
CONTINUOUS
  0
ENDTAB
  0
TABLE
  2
STYLE
  0
ENDTAB
  0
ENDSEC
  0
SECTION
  2
ENTITIES
  0
POLYLINE
  8
0
 62
9
  6
CONTINUOUS
 70
0
 66
1
 10
0.000000
 20
0.000000
  0
VERTEX
  8
0
 10
386200.000000
 20
802949.024300
  0
VERTEX
  8
0
 10
386203.339500
 20
802950.317000
  0
VERTEX
  8
0
 10
386204.082000
 20
802950.653800
  0
VERTEX
  8
0
 10
386205.025100
 20
802951.081500
  0
VERTEX
  8
0
 10
386207.104500
 20
802952.025700
  0
VERTEX
  8
0
 10
386211.682300
 20
802954.038900
  0
VERTEX
  8
0
 10
386215.392800
 20
802955.656700
  0
VERTEX
  8
0
 10
386219.140200
 20
802957.327100
  0
VERTEX
  8
0
 10
386223.677200
 20
802959.430400
  0
VERTEX
  8
0
 10
386225.697500
 20
802960.370900
  0
VERTEX
  8
0
 10
386230.234600
 20
802962.473600
  0
VERTEX
  8
0
 10
386234.132100
 20
802964.146400
  0
VERTEX
  8
0
 10
386236.077900
 20
802964.917900
  0
VERTEX
  8
0
 10
386240.484700
 20
802966.738800
  0
VERTEX
  8
0
 10
386245.056300
 20
802968.765300
  0
VERTEX
  8
0
 10
386249.628900
 20
802970.789400
  0
VERTEX
  8
0
 10
386251.703900
 20
802971.708300
  0
VERTEX
  8
0
 10
386254.746500
 20
802973.058800
  0
VERTEX
  8
0
 10
386258.235100
 20
802974.607300
  0
VERTEX
  8
0
 10
386262.611700
 20
802976.516200
  0
VERTEX
  8
0
 10
386264.470500
 20
802977.336100
  0
VERTEX
  8
0
 10
386265.430100
 20
802977.772200
  0
VERTEX
  8
0
 10
386269.990400
 20
802979.823800
  0
VERTEX
  8
0
 10
386273.588400
 20
802981.313400
  0
VERTEX
  8
0
 10
386277.635500
 20
802983.027400
  0
VERTEX
  8
0
 10
386279.430200
 20
802983.894000
  0
VERTEX
  8
0
 10
386283.927900
 20
802986.083600
  0
VERTEX
  8
0
 10
386287.835700
 20
802987.972200
  0
VERTEX
  8
0
 10
386292.353500
 20
802990.117900
  0
VERTEX
  8
0
 10
386294.292200
 20
802990.999800
  0
VERTEX
  8
0
 10
386296.524600
 20
802991.958700
  0
VERTEX
  8
0
 10
386300.000000
 20
802993.033100
  0
SEQEND
  0
POLYLINE
  8
0
 62
9
  6
CONTINUOUS
 70
0
 66
1
 10
0.000000
 20
0.000000
  0
VERTEX
  8
0
 10
386300.000000
 20
802996.962100
  0
VERTEX
  8
0
 10
386295.530000
 20
802995.580200
  0
VERTEX
  8
0
 10
386295.398100
 20
802995.539400
  0
VERTEX
  8
0
 10
386292.771800
 20
802994.431900
  0
VERTEX
  8
0
 10
386290.782300
 20
802993.527000
  0
VERTEX
  8
0
 10
386286.213400
 20
802991.357300
  0
VERTEX
  8
0
 10
386282.290000
 20
802989.461200
  0
VERTEX
  8
0
 10
386277.788300
 20
802987.269600
  0
VERTEX
  8
0
 10
386277.787100
 20
802987.269000
  0
VERTEX
  8
0
 10
386276.055400
 20
802986.432300
  0
VERTEX
  8
0
 10
386272.139300
 20
802984.776200
  0
VERTEX
  8
0
 10
386268.508800
 20
802983.272800
  0
VERTEX
  8
0
 10
386263.879200
 20
802981.190600
  0
VERTEX
  8
0
 10
386262.930400
 20
802980.759400
  0
VERTEX
  8
0
 10
386261.101000
 20
802979.952500
  0
VERTEX
  8
0
 10
386256.722100
 20
802978.042700
  0
VERTEX
  8
0
 10
386253.223600
 20
802976.489800
  0
VERTEX
  8
0
 10
386250.182700
 20
802975.140100
  0
VERTEX
  8
0
 10
386248.109100
 20
802974.221700
  0
VERTEX
  8
0
 10
386243.536000
 20
802972.197400
  0
VERTEX
  8
0
 10
386239.008300
 20
802970.190000
  0
VERTEX
  8
0
 10
386234.679100
 20
802968.401300
  0
VERTEX
  8
0
 10
386232.716400
 20
802967.622900
  0
VERTEX
  8
0
 10
386228.709100
 20
802965.903400
  0
VERTEX
  8
0
 10
386224.115000
 20
802963.774800
  0
VERTEX
  8
0
 10
386222.094600
 20
802962.834200
  0
VERTEX
  8
0
 10
386217.589100
 20
802960.745400
  0
VERTEX
  8
0
 10
386213.878600
 20
802959.091500
  0
VERTEX
  8
0
 10
386210.177200
 20
802957.477700
  0
VERTEX
  8
0
 10
386205.565300
 20
802955.449400
  0
VERTEX
  8
0
 10
386203.474200
 20
802954.499900
  0
VERTEX
  8
0
 10
386202.531400
 20
802954.072300
  0
VERTEX
  8
0
 10
386201.818000
 20
802953.748600
  0
VERTEX
  8
0
 10
386200.000000
 20
802953.046900
  0
SEQEND
  0
POLYLINE
  8
0
 62
3
  6
CONTINUOUS
 70
0
 66
1
 10
0.000000
 20
0.000000
  0
VERTEX
  8
0
 10
386300.000000
 20
802993.033100
  0
VERTEX
  8
0
 10
386296.638700
 20
802991.993900
  0
VERTEX
  8
0
 10
386296.524600
 20
802991.958700
  0
VERTEX
  8
0
 10
386294.292200
 20
802990.999800
  0
VERTEX
  8
0
 10
386292.353500
 20
802990.117900
  0
VERTEX
  8
0
 10
386287.836100
 20
802987.972400
  0
VERTEX
  8
0
 10
386283.927900
 20
802986.083600
  0
VERTEX
  8
0
 10
386279.431400
 20
802983.894600
  0
VERTEX
  8
0
 10
386279.430200
 20
802983.894000
  0
VERTEX
  8
0
 10
386277.635500
 20
802983.027400
  0
VERTEX
  8
0
 10
386273.588400
 20
802981.313400
  0
VERTEX
  8
0
 10
386269.990400
 20
802979.823800
  0
VERTEX
  8
0
 10
386265.430100
 20
802977.772200
  0
VERTEX
  8
0
 10
386264.470500
 20
802977.336100
  0
VERTEX
  8
0
 10
386262.611700
 20
802976.516200
  0
VERTEX
  8
0
 10
386258.235100
 20
802974.607300
  0
VERTEX
  8
0
 10
386254.746500
 20
802973.058800
  0
VERTEX
  8
0
 10
386251.703900
 20
802971.708300
  0
VERTEX
  8
0
 10
386249.628900
 20
802970.789400
  0
VERTEX
  8
0
 10
386245.056300
 20
802968.765300
  0
VERTEX
  8
0
 10
386240.484700
 20
802966.738800
  0
VERTEX
  8
0
 10
386236.077900
 20
802964.917900
  0
VERTEX
  8
0
 10
386234.132100
 20
802964.146400
  0
VERTEX
  8
0
 10
386230.234600
 20
802962.473600
  0
VERTEX
  8
0
 10
386225.697500
 20
802960.370900
  0
VERTEX
  8
0
 10
386223.677200
 20
802959.430400
  0
VERTEX
  8
0
 10
386219.140200
 20
802957.327100
  0
VERTEX
  8
0
 10
386215.392800
 20
802955.656700
  0
VERTEX
  8
0
 10
386211.682300
 20
802954.038900
  0
VERTEX
  8
0
 10
386207.104500
 20
802952.025700
  0
VERTEX
  8
0
 10
386205.025100
 20
802951.081500
  0
VERTEX
  8
0
 10
386204.082000
 20
802950.653800
  0
VERTEX
  8
0
 10
386203.339500
 20
802950.317000
  0
VERTEX
  8
0
 10
386200.000000
 20
802949.024300
  0
SEQEND
  0
POLYLINE
  8
0
 62
1
  6
CONTINUOUS
 70
0
 66
1
 10
0.000000
 20
0.000000
  0
VERTEX
  8
0
 10
386200.000000
 20
802946.641800
  0
VERTEX
  8
0
 10
386204.240300
 20
802948.284700
  0
VERTEX
  8
0
 10
386205.000000
 20
802948.629200
  0
VERTEX
  8
0
 10
386205.943100
 20
802949.056900
  0
VERTEX
  8
0
 10
386208.023100
 20
802950.000000
  0
VERTEX
  8
0
 10
386212.577300
 20
802952.065100
  0
VERTEX
  8
0
 10
386216.263500
 20
802953.736500
  0
VERTEX
  8
0
 10
386220.000000
 20
802955.430800
  0
VERTEX
  8
0
 10
386224.554400
 20
802957.496000
  0
VERTEX
  8
0
 10
386226.583800
 20
802958.416200
  0
VERTEX
  8
0
 10
386231.138000
 20
802960.481300
  0
VERTEX
  8
0
 10
386235.000000
 20
802962.232400
  0
VERTEX
  8
0
 10
386236.904100
 20
802963.095900
  0
VERTEX
  8
0
 10
386241.244200
 20
802965.063800
  0
VERTEX
  8
0
 10
386245.798300
 20
802967.128800
  0
VERTEX
  8
0
 10
386250.352400
 20
802969.193800
  0
VERTEX
  8
0
 10
386252.419100
 20
802970.131000
  0
VERTEX
  8
0
 10
386255.450800
 20
802971.505600
  0
VERTEX
  8
0
 10
386258.926900
 20
802973.081800
  0
VERTEX
  8
0
 10
386263.274900
 20
802975.053400
  0
VERTEX
  8
0
 10
386265.125200
 20
802975.892400
  0
VERTEX
  8
0
 10
386266.085100
 20
802976.327700
  0
VERTEX
  8
0
 10
386270.639300
 20
802978.392700
  0
VERTEX
  8
0
 10
386274.183900
 20
802980.000000
  0
VERTEX
  8
0
 10
386278.185500
 20
802981.814500
  0
VERTEX
  8
0
 10
386280.000000
 20
802982.637300
  0
VERTEX
  8
0
 10
386284.554200
 20
802984.702300
  0
VERTEX
  8
0
 10
386288.505900
 20
802986.494100
  0
VERTEX
  8
0
 10
386293.060200
 20
802988.559300
  0
VERTEX
  8
0
 10
386295.000000
 20
802989.438900
  0
VERTEX
  8
0
 10
386297.160700
 20
802990.418600
  0
VERTEX
  8
0
 10
386300.000000
 20
802991.359600
  0
SEQEND
  0
POLYLINE
  8
0
 62
9
  6
CONTINUOUS
 70
0
 66
1
 10
0.000000
 20
0.000000
  0
VERTEX
  8
0
 10
386077.874700
 20
802900.000000
  0
VERTEX
  8
0
 10
386076.521300
 20
802896.589800
  0
VERTEX
  8
0
 10
386075.581700
 20
802894.122100
  0
VERTEX
  8
0
 10
386075.232700
 20
802893.205300
  0
VERTEX
  8
0
 10
386074.125600
 20
802890.295500
  0
VERTEX
  8
0
 10
386073.116900
 20
802887.568500
  0
VERTEX
  8
0
 10
386072.393400
 20
802886.109400
  0
VERTEX
  8
0
 10
386071.500400
 20
802885.094300
  0
VERTEX
  8
0
 10
386070.386600
 20
802884.327900
  0
VERTEX
  8
0
 10
386069.119400
 20
802883.856400
  0
VERTEX
  8
0
 10
386067.775500
 20
802883.708400
  0
VERTEX
  8
0
 10
386066.436100
 20
802883.892900
  0
VERTEX
  8
0
 10
386065.182200
 20
802884.398700
  0
VERTEX
  8
0
 10
386064.089700
 20
802885.195200
  0
VERTEX
  8
0
 10
386063.224500
 20
802886.234200
  0
VERTEX
  8
0
 10
386062.862300
 20
802886.888900
  0
VERTEX
  8
0
 10
386062.400800
 20
802887.889600
  0
VERTEX
  8
0
 10
386060.177000
 20
802892.425700
  0
VERTEX
  8
0
 10
386060.150400
 20
802892.479900
  0
VERTEX
  8
0
 10
386058.014600
 20
802896.957400
  0
VERTEX
  8
0
 10
386057.869800
 20
802897.260400
  0
VERTEX
  8
0
 10
386057.494900
 20
802898.433100
  0
VERTEX
  8
0
 10
386057.312600
 20
802899.589300
  0
VERTEX
  8
0
 10
386057.309200
 20
802900.000000
  0
SEQEND
  0
POLYLINE
  8
0
 62
3
  6
CONTINUOUS
 70
0
 66
1
 10
0.000000
 20
0.000000
  0
VERTEX
  8
0
 10
386081.924400
 20
802900.000000
  0
VERTEX
  8
0
 10
386081.673400
 20
802899.396200
  0
VERTEX
  8
0
 10
386080.022400
 20
802895.236000
  0
VERTEX
  8
0
 10
386079.089800
 20
802892.786500
  0
VERTEX
  8
0
 10
386078.740800
 20
802891.869800
  0
VERTEX
  8
0
 10
386077.638100
 20
802888.971600
  0
VERTEX
  8
0
 10
386076.535700
 20
802886.018500
  0
VERTEX
  8
0
 10
386075.495200
 20
802883.995200
  0
VERTEX
  8
0
 10
386073.992400
 20
802882.287100
  0
VERTEX
  8
0
 10
386072.118200
 20
802880.997400
  0
VERTEX
  8
0
 10
386069.985800
 20
802880.204000
  0
VERTEX
  8
0
 10
386067.724400
 20
802879.955000
  0
VERTEX
  8
0
 10
386065.470600
 20
802880.265400
  0
VERTEX
  8
0
 10
386063.360600
 20
802881.116500
  0
VERTEX
  8
0
 10
386061.522200
 20
802882.456800
  0
VERTEX
  8
0
 10
386060.066400
 20
802884.205200
  0
VERTEX
  8
0
 10
386059.524200
 20
802885.171900
  0
VERTEX
  8
0
 10
386059.003000
 20
802886.294200
  0
VERTEX
  8
0
 10
386056.806700
 20
802890.773000
  0
VERTEX
  8
0
 10
386056.779900
 20
802890.827600
  0
VERTEX
  8
0
 10
386054.626700
 20
802895.341200
  0
VERTEX
  8
0
 10
386054.460900
 20
802895.688800
  0
VERTEX
  8
0
 10
386053.832000
 20
802897.295000
  0
VERTEX
  8
0
 10
386053.439900
 20
802898.974700
  0
VERTEX
  8
0
 10
386053.352100
 20
802900.000000
  0
SEQEND
  0
POLYLINE
  8
0
 62
9
  6
CONTINUOUS
 70
0
 66
1
 10
0.000000
 20
0.000000
  0
VERTEX
  8
0
 10
386081.406600
 20
802883.810100
  0
VERTEX
  8
0
 10
386079.919400
 20
802880.979700
  0
VERTEX
  8
0
 10
386077.600700
 20
802878.222400
  0
VERTEX
  8
0
 10
386074.696500
 20
802876.038200
  0
VERTEX
  8
0
 10
386071.292000
 20
802874.698200
  0
VERTEX
  8
0
 10
386067.646700
 20
802874.246200
  0
VERTEX
  8
0
 10
386063.986000
 20
802874.687800
  0
VERTEX
  8
0
 10
386060.510500
 20
802875.981100
  0
VERTEX
  8
0
 10
386057.440200
 20
802878.103200
  0
VERTEX
  8
0
 10
386055.008700
 20
802880.955800
  0
VERTEX
  8
0
 10
386054.173100
 20
802882.419600
  0
VERTEX
  8
0
 10
386053.573300
 20
802883.744600
  0
VERTEX
  8
0
 10
386051.476000
 20
802888.158800
  0
VERTEX
  8
0
 10
386051.449500
 20
802888.214500
  0
VERTEX
  8
0
 10
386049.242800
 20
802892.772800
  0
VERTEX
  8
0
 10
386049.039900
 20
802893.189500
  0
VERTEX
  8
0
 10
386048.009200
 20
802895.485800
  0
VERTEX
  8
0
 10
386047.313400
 20
802898.002500
  0
VERTEX
  8
0
 10
386047.075500
 20
802900.000000
  0
SEQEND
  0
POLYLINE
  8
0
 62
9
  6
CONTINUOUS
 70
0
 66
1
 10
0.000000
 20
0.000000
  0
VERTEX
  8
0
 10
386057.309200
 20
802900.000000
  0
VERTEX
  8
0
 10
386057.303000
 20
802900.747600
  0
VERTEX
  8
0
 10
386057.462800
 20
802901.881800
  0
VERTEX
  8
0
 10
386057.785300
 20
802902.967100
  0
VERTEX
  8
0
 10
386058.259700
 20
802903.979700
  0
VERTEX
  8
0
 10
386058.871700
 20
802904.898000
  0
VERTEX
  8
0
 10
386059.604100
 20
802905.702900
  0
VERTEX
  8
0
 10
386060.436800
 20
802906.378400
  0
VERTEX
  8
0
 10
386061.347600
 20
802906.911700
  0
VERTEX
  8
0
 10
386062.312600
 20
802907.293700
  0
VERTEX
  8
0
 10
386063.164500
 20
802907.531500
  0
VERTEX
  8
0
 10
386067.700700
 20
802909.114100
  0
VERTEX
  8
0
 10
386068.868200
 20
802909.522500
  0
VERTEX
  8
0
 10
386073.594600
 20
802911.190600
  0
VERTEX
  8
0
 10
386073.646200
 20
802911.208800
  0
VERTEX
  8
0
 10
386078.370400
 20
802912.890800
  0
VERTEX
  8
0
 10
386078.421700
 20
802912.909100
  0
VERTEX
  8
0
 10
386083.141300
 20
802914.604200
  0
VERTEX
  8
0
 10
386083.192200
 20
802914.622500
  0
VERTEX
  8
0
 10
386087.907100
 20
802916.330800
  0
VERTEX
  8
0
 10
386087.957700
 20
802916.349100
  0
VERTEX
  8
0
 10
386092.667800
 20
802918.070500
  0
VERTEX
  8
0
 10
386092.718100
 20
802918.088900
  0
VERTEX
  8
0
 10
386097.423400
 20
802919.823300
  0
VERTEX
  8
0
 10
386097.473400
 20
802919.841800
  0
VERTEX
  8
0
 10
386100.000000
 20
802920.781100
  0
SEQEND
  0
POLYLINE
  8
0
 62
3
  6
CONTINUOUS
 70
0
 66
1
 10
0.000000
 20
0.000000
  0
VERTEX
  8
0
 10
386053.352100
 20
802900.000000
  0
VERTEX
  8
0
 10
386053.292700
 20
802900.693400
  0
VERTEX
  8
0
 10
386053.393400
 20
802902.415300
  0
VERTEX
  8
0
 10
386053.739900
 20
802904.105100
  0
VERTEX
  8
0
 10
386054.325200
 20
802905.727700
  0
VERTEX
  8
0
 10
386055.137000
 20
802907.249600
  0
VERTEX
  8
0
 10
386056.158600
 20
802908.639500
  0
VERTEX
  8
0
 10
386057.369000
 20
802909.868500
  0
VERTEX
  8
0
 10
386058.743000
 20
802910.911200
  0
VERTEX
  8
0
 10
386060.252400
 20
802911.746200
  0
VERTEX
  8
0
 10
386061.329400
 20
802912.182600
  0
VERTEX
  8
0
 10
386066.049800
 20
802913.833700
  0
VERTEX
  8
0
 10
386067.214700
 20
802914.241200
  0
VERTEX
  8
0
 10
386071.930600
 20
802915.905500
  0
VERTEX
  8
0
 10
386071.982100
 20
802915.923700
  0
VERTEX
  8
0
 10
386076.693300
 20
802917.601100
  0
VERTEX
  8
0
 10
386076.744500
 20
802917.619400
  0
VERTEX
  8
0
 10
386081.451100
 20
802919.309900
  0
VERTEX
  8
0
 10
386081.501900
 20
802919.328100
  0
VERTEX
  8
0
 10
386086.203800
 20
802921.031700
  0
VERTEX
  8
0
 10
386086.254300
 20
802921.050000
  0
VERTEX
  8
0
 10
386090.951400
 20
802922.766700
  0
VERTEX
  8
0
 10
386091.001700
 20
802922.785000
  0
VERTEX
  8
0
 10
386095.694000
 20
802924.514700
  0
VERTEX
  8
0
 10
386095.743900
 20
802924.533100
  0
VERTEX
  8
0
 10
386100.000000
 20
802926.115500
  0
SEQEND
  0
POLYLINE
  8
0
 62
9
  6
CONTINUOUS
 70
0
 66
1
 10
0.000000
 20
0.000000
  0
VERTEX
  8
0
 10
386047.075500
 20
802900.000000
  0
VERTEX
  8
0
 10
386047.003100
 20
802900.608300
  0
VERTEX
  8
0
 10
386047.060000
 20
802903.245600
  0
VERTEX
  8
0
 10
386047.412700
 20
802905.885000
  0
VERTEX
  8
0
 10
386048.161600
 20
802908.466100
  0
VERTEX
  8
0
 10
386049.290300
 20
802910.931200
  0
VERTEX
  8
0
 10
386050.782700
 20
802913.221300
  0
VERTEX
  8
0
 10
386052.628500
 20
802915.261300
  0
VERTEX
  8
0
 10
386054.797800
 20
802916.969400
  0
VERTEX
  8
0
 10
386057.202800
 20
802918.337000
  0
VERTEX
  8
0
 10
386058.650800
 20
802918.971500
  0
SEQEND
  0
POLYLINE
  8
0
 62
1
  6
CONTINUOUS
 70
0
 66
1
 10
0.000000
 20
0.000000
  0
VERTEX
  8
0
 10
386035.748500
 20
802913.300100
  0
VERTEX
  8
0
 10
386040.550100
 20
802914.800300
  0
VERTEX
  8
0
 10
386045.347600
 20
802916.313800
  0
VERTEX
  8
0
 10
386050.140800
 20
802917.840700
  0
VERTEX
  8
0
 10
386054.929800
 20
802919.380800
  0
VERTEX
  8
0
 10
386059.714500
 20
802920.934300
  0
VERTEX
  8
0
 10
386064.494900
 20
802922.501000
  0
VERTEX
  8
0
 10
386069.270800
 20
802924.081000
  0
VERTEX
  8
0
 10
386074.042400
 20
802925.674300
  0
VERTEX
  8
0
 10
386078.809600
 20
802927.280800
  0
VERTEX
  8
0
 10
386083.572200
 20
802928.900600
  0
VERTEX
  8
0
 10
386088.330300
 20
802930.533600
  0
VERTEX
  8
0
 10
386093.083900
 20
802932.179800
  0
VERTEX
  8
0
 10
386097.832900
 20
802933.839200
  0
VERTEX
  8
0
 10
386100.000000
 20
802934.603100
  0
SEQEND
  0
POLYLINE
  8
0
 62
1
  6
CONTINUOUS
 70
0
 66
1
 10
0.000000
 20
0.000000
  0
VERTEX
  8
0
 10
386100.000000
 20
802908.418600
  0
VERTEX
  8
0
 10
386104.748500
 20
802909.986200
  0
VERTEX
  8
0
 10
386108.707000
 20
802911.293000
  0
VERTEX
  8
0
 10
386109.116900
 20
802911.428300
  0
VERTEX
  8
0
 10
386113.780000
 20
802913.235100
  0
VERTEX
  8
0
 10
386115.000000
 20
802913.707800
  0
VERTEX
  8
0
 10
386119.535100
 20
802915.464900
  0
VERTEX
  8
0
 10
386124.197800
 20
802917.271500
  0
VERTEX
  8
0
 10
386128.860400
 20
802919.078100
  0
VERTEX
  8
0
 10
386130.000000
 20
802919.519700
  0
VERTEX
  8
0
 10
386130.296800
 20
802919.634700
  0
VERTEX
  8
0
 10
386131.239700
 20
802920.000000
  0
VERTEX
  8
0
 10
386135.902400
 20
802921.806600
  0
VERTEX
  8
0
 10
386140.565100
 20
802923.613200
  0
VERTEX
  8
0
 10
386141.157300
 20
802923.842700
  0
VERTEX
  8
0
 10
386145.000000
 20
802925.331500
  0
VERTEX
  8
0
 10
386149.204500
 20
802926.960600
  0
VERTEX
  8
0
 10
386153.867400
 20
802928.767300
  0
VERTEX
  8
0
 10
386156.326700
 20
802929.720200
  0
VERTEX
  8
0
 10
386160.000000
 20
802931.143400
  0
VERTEX
  8
0
 10
386162.779600
 20
802932.220400
  0
VERTEX
  8
0
 10
386167.442500
 20
802934.027100
  0
VERTEX
  8
0
 10
386169.953500
 20
802935.000000
  0
VERTEX
  8
0
 10
386173.590700
 20
802936.409300
  0
VERTEX
  8
0
 10
386175.000000
 20
802936.955300
  0
VERTEX
  8
0
 10
386179.662700
 20
802938.761900
  0
VERTEX
  8
0
 10
386184.325500
 20
802940.568600
  0
VERTEX
  8
0
 10
386184.401800
 20
802940.598200
  0
VERTEX
  8
0
 10
386189.064900
 20
802942.404900
  0
VERTEX
  8
0
 10
386190.000000
 20
802942.767200
  0
VERTEX
  8
0
 10
386194.663100
 20
802944.574000
  0
VERTEX
  8
0
 10
386195.213000
 20
802944.787000
  0
VERTEX
  8
0
 10
386199.875700
 20
802946.593600
  0
VERTEX
  8
0
 10
386200.000000
 20
802946.641800
  0
SEQEND
  0
POLYLINE
  8
0
 62
1
  6
CONTINUOUS
 70
0
 66
1
 10
0.000000
 20
0.000000
  0
VERTEX
  8
0
 10
386082.029200
 20
802885.434300
  0
VERTEX
  8
0
 10
386082.650900
 20
802887.095800
  0
VERTEX
  8
0
 10
386083.737700
 20
802890.000000
  0
VERTEX
  8
0
 10
386084.081400
 20
802890.918600
  0
VERTEX
  8
0
 10
386085.000000
 20
802893.373400
  0
VERTEX
  8
0
 10
386086.568300
 20
802897.564500
  0
VERTEX
  8
0
 10
386087.380000
 20
802899.733600
  0
VERTEX
  8
0
 10
386087.479700
 20
802900.000000
  0
SEQEND
  0
POLYLINE
  8
0
 62
9
  6
CONTINUOUS
 70
0
 66
1
 10
0.000000
 20
0.000000
  0
VERTEX
  8
0
 10
386077.018700
 20
802887.309200
  0
VERTEX
  8
0
 10
386077.638100
 20
802888.971600
  0
VERTEX
  8
0
 10
386078.740800
 20
802891.869800
  0
VERTEX
  8
0
 10
386079.089800
 20
802892.786500
  0
VERTEX
  8
0
 10
386080.022400
 20
802895.236000
  0
VERTEX
  8
0
 10
386081.673400
 20
802899.396200
  0
VERTEX
  8
0
 10
386081.924400
 20
802900.000000
  0
SEQEND
  0
POLYLINE
  8
0
 62
9
  6
CONTINUOUS
 70
0
 66
1
 10
0.000000
 20
0.000000
  0
VERTEX
  8
0
 10
386081.924400
 20
802900.000000
  0
VERTEX
  8
0
 10
386082.563200
 20
802901.536100
  0
VERTEX
  8
0
 10
386084.415400
 20
802906.182500
  0
VERTEX
  8
0
 10
386086.143800
 20
802908.793300
  0
VERTEX
  8
0
 10
386088.070100
 20
802909.768700
  0
VERTEX
  8
0
 10
386092.826200
 20
802911.313200
  0
VERTEX
  8
0
 10
386095.878800
 20
802912.268400
  0
VERTEX
  8
0
 10
386098.480300
 20
802913.022000
  0
VERTEX
  8
0
 10
386100.000000
 20
802913.453500
  0
SEQEND
  0
POLYLINE
  8
0
 62
9
  6
CONTINUOUS
 70
0
 66
1
 10
0.000000
 20
0.000000
  0
VERTEX
  8
0
 10
386100.000000
 20
802917.355600
  0
VERTEX
  8
0
 10
386097.458900
 20
802916.634100
  0
VERTEX
  8
0
 10
386097.455000
 20
802916.632900
  0
VERTEX
  8
0
 10
386094.799300
 20
802915.863600
  0
VERTEX
  8
0
 10
386091.690200
 20
802914.891000
  0
VERTEX
  8
0
 10
386086.532100
 20
802913.193000
  0
VERTEX
  8
0
 10
386083.787000
 20
802911.714900
  0
VERTEX
  8
0
 10
386081.131600
 20
802908.001100
  0
VERTEX
  8
0
 10
386079.090800
 20
802902.962100
  0
VERTEX
  8
0
 10
386078.199400
 20
802900.818200
  0
VERTEX
  8
0
 10
386077.874700
 20
802900.000000
  0
SEQEND
  0
POLYLINE
  8
0
 62
3
  6
CONTINUOUS
 70
0
 66
1
 10
0.000000
 20
0.000000
  0
VERTEX
  8
0
 10
386100.000000
 20
802913.453500
  0
VERTEX
  8
0
 10
386098.484200
 20
802913.023000
  0
VERTEX
  8
0
 10
386098.480300
 20
802913.022000
  0
VERTEX
  8
0
 10
386095.878800
 20
802912.268400
  0
VERTEX
  8
0
 10
386092.826200
 20
802911.313200
  0
VERTEX
  8
0
 10
386088.070100
 20
802909.768700
  0
VERTEX
  8
0
 10
386086.143800
 20
802908.793300
  0
VERTEX
  8
0
 10
386084.415400
 20
802906.182500
  0
VERTEX
  8
0
 10
386082.563600
 20
802901.537000
  0
VERTEX
  8
0
 10
386081.924400
 20
802900.000000
  0
SEQEND
  0
POLYLINE
  8
0
 62
1
  6
CONTINUOUS
 70
0
 66
1
 10
0.000000
 20
0.000000
  0
VERTEX
  8
0
 10
386087.479700
 20
802900.000000
  0
VERTEX
  8
0
 10
386089.132700
 20
802904.417300
  0
VERTEX
  8
0
 10
386089.309400
 20
802904.889400
  0
VERTEX
  8
0
 10
386089.644300
 20
802905.000000
  0
VERTEX
  8
0
 10
386094.392900
 20
802906.567600
  0
VERTEX
  8
0
 10
386097.429800
 20
802907.570200
  0
VERTEX
  8
0
 10
386100.000000
 20
802908.418600
  0
SEQEND
  0
POLYLINE
  8
0
 62
1
  6
CONTINUOUS
 70
0
 66
1
 10
0.000000
 20
0.000000
  0
VERTEX
  8
0
 10
386100.000000
 20
802934.603100
  0
VERTEX
  8
0
 10
386102.577300
 20
802935.511700
  0
VERTEX
  8
0
 10
386107.317000
 20
802937.197500
  0
VERTEX
  8
0
 10
386112.052000
 20
802938.896400
  0
VERTEX
  8
0
 10
386115.836600
 20
802940.265000
  0
VERTEX
  8
0
 10
386116.850600
 20
802940.420500
  0
VERTEX
  8
0
 10
386120.906700
 20
802941.048500
  0
VERTEX
  8
0
 10
386121.852000
 20
802941.394700
  0
VERTEX
  8
0
 10
386126.575200
 20
802943.134000
  0
VERTEX
  8
0
 10
386131.293700
 20
802944.886400
  0
VERTEX
  8
0
 10
386136.007200
 20
802946.651900
  0
VERTEX
  8
0
 10
386140.715800
 20
802948.430400
  0
VERTEX
  8
0
 10
386145.419500
 20
802950.222100
  0
VERTEX
  8
0
 10
386150.118200
 20
802952.026800
  0
VERTEX
  8
0
 10
386154.811800
 20
802953.844500
  0
VERTEX
  8
0
 10
386159.500400
 20
802955.675300
  0
VERTEX
  8
0
 10
386164.183800
 20
802957.519100
  0
VERTEX
  8
0
 10
386168.862200
 20
802959.375900
  0
VERTEX
  8
0
 10
386173.535300
 20
802961.245600
  0
VERTEX
  8
0
 10
386178.203300
 20
802963.128400
  0
VERTEX
  8
0
 10
386182.866000
 20
802965.024100
  0
VERTEX
  8
0
 10
386187.523400
 20
802966.932800
  0
VERTEX
  8
0
 10
386192.175500
 20
802968.854400
  0
VERTEX
  8
0
 10
386196.822200
 20
802970.788900
  0
VERTEX
  8
0
 10
386200.000000
 20
802972.122200
  0
SEQEND
  0
POLYLINE
  8
0
 62
9
  6
CONTINUOUS
 70
0
 66
1
 10
0.000000
 20
0.000000
  0
VERTEX
  8
0
 10
386100.000000
 20
802913.453500
  0
VERTEX
  8
0
 10
386103.295000
 20
802914.389100
  0
VERTEX
  8
0
 10
386107.307200
 20
802915.533300
  0
VERTEX
  8
0
 10
386107.703900
 20
802915.651300
  0
VERTEX
  8
0
 10
386112.223300
 20
802917.252600
  0
VERTEX
  8
0
 10
386113.457000
 20
802917.690100
  0
VERTEX
  8
0
 10
386118.042800
 20
802919.316200
  0
VERTEX
  8
0
 10
386122.770500
 20
802920.955200
  0
VERTEX
  8
0
 10
386127.499000
 20
802922.592000
  0
VERTEX
  8
0
 10
386128.654600
 20
802922.992000
  0
VERTEX
  8
0
 10
386128.955600
 20
802923.096200
  0
VERTEX
  8
0
 10
386129.911800
 20
802923.427200
  0
VERTEX
  8
0
 10
386134.618000
 20
802925.121600
  0
VERTEX
  8
0
 10
386139.296700
 20
802926.886900
  0
VERTEX
  8
0
 10
386139.890900
 20
802927.111200
  0
VERTEX
  8
0
 10
386143.746800
 20
802928.566000
  0
VERTEX
  8
0
 10
386147.972100
 20
802930.141500
  0
VERTEX
  8
0
 10
386152.718300
 20
802931.733200
  0
VERTEX
  8
0
 10
386155.221500
 20
802932.572700
  0
VERTEX
  8
0
 10
386158.936100
 20
802933.889200
  0
VERTEX
  8
0
 10
386161.734800
 20
802934.916900
  0
VERTEX
  8
0
 10
386166.445200
 20
802936.600800
  0
VERTEX
  8
0
 10
386168.979000
 20
802937.515000
  0
VERTEX
  8
0
 10
386172.643000
 20
802938.855300
  0
VERTEX
  8
0
 10
386174.062600
 20
802939.374600
  0
VERTEX
  8
0
 10
386178.769000
 20
802941.068700
  0
VERTEX
  8
0
 10
386183.478100
 20
802942.755500
  0
VERTEX
  8
0
 10
386183.555300
 20
802942.783100
  0
VERTEX
  8
0
 10
386188.237800
 20
802944.539600
  0
VERTEX
  8
0
 10
386189.175500
 20
802944.895300
  0
VERTEX
  8
0
 10
386193.851300
 20
802946.669100
  0
VERTEX
  8
0
 10
386194.402700
 20
802946.878200
  0
VERTEX
  8
0
 10
386199.073000
 20
802948.665500
  0
VERTEX
  8
0
 10
386200.000000
 20
802949.024300
  0
SEQEND
  0
POLYLINE
  8
0
 62
9
  6
CONTINUOUS
 70
0
 66
1
 10
0.000000
 20
0.000000
  0
VERTEX
  8
0
 10
386200.000000
 20
802953.046900
  0
VERTEX
  8
0
 10
386197.724300
 20
802952.168600
  0
VERTEX
  8
0
 10
386193.070200
 20
802950.387500
  0
VERTEX
  8
0
 10
386192.519900
 20
802950.178800
  0
VERTEX
  8
0
 10
386187.844100
 20
802948.405000
  0
VERTEX
  8
0
 10
386186.908600
 20
802948.050100
  0
VERTEX
  8
0
 10
386182.288600
 20
802946.316700
  0
VERTEX
  8
0
 10
386182.212200
 20
802946.289300
  0
VERTEX
  8
0
 10
386177.504200
 20
802944.602900
  0
VERTEX
  8
0
 10
386177.503200
 20
802944.602500
  0
VERTEX
  8
0
 10
386172.778200
 20
802942.901700
  0
VERTEX
  8
0
 10
386171.353500
 20
802942.380600
  0
VERTEX
  8
0
 10
386167.698700
 20
802941.043700
  0
VERTEX
  8
0
 10
386165.174900
 20
802940.133100
  0
VERTEX
  8
0
 10
386160.472500
 20
802938.452100
  0
VERTEX
  8
0
 10
386160.471200
 20
802938.451600
  0
VERTEX
  8
0
 10
386157.659400
 20
802937.419100
  0
VERTEX
  8
0
 10
386154.003600
 20
802936.123400
  0
VERTEX
  8
0
 10
386151.524700
 20
802935.292200
  0
VERTEX
  8
0
 10
386146.783200
 20
802933.702000
  0
VERTEX
  8
0
 10
386146.778400
 20
802933.700400
  0
VERTEX
  8
0
 10
386142.428200
 20
802932.080500
  0
VERTEX
  8
0
 10
386138.565800
 20
802930.623200
  0
VERTEX
  8
0
 10
386137.971600
 20
802930.399000
  0
VERTEX
  8
0
 10
386133.319600
 20
802928.643700
  0
VERTEX
  8
0
 10
386128.677400
 20
802926.972200
  0
VERTEX
  8
0
 10
386127.727700
 20
802926.643400
  0
VERTEX
  8
0
 10
386127.426700
 20
802926.539300
  0
VERTEX
  8
0
 10
386126.271100
 20
802926.139200
  0
VERTEX
  8
0
 10
386121.545200
 20
802924.503300
  0
VERTEX
  8
0
 10
386121.542600
 20
802924.502400
  0
VERTEX
  8
0
 10
386116.815800
 20
802922.863800
  0
VERTEX
  8
0
 10
386116.813300
 20
802922.862900
  0
VERTEX
  8
0
 10
386112.202500
 20
802921.228000
  0
VERTEX
  8
0
 10
386110.968900
 20
802920.790600
  0
VERTEX
  8
0
 10
386106.619200
 20
802919.244900
  0
VERTEX
  8
0
 10
386106.240800
 20
802919.132400
  0
VERTEX
  8
0
 10
386102.267400
 20
802917.999400
  0
VERTEX
  8
0
 10
386100.000000
 20
802917.355600
  0
SEQEND
  0
POLYLINE
  8
0
 62
9
  6
CONTINUOUS
 70
0
 66
1
 10
0.000000
 20
0.000000
  0
VERTEX
  8
0
 10
386100.000000
 20
802920.781100
  0
VERTEX
  8
0
 10
386102.173800
 20
802921.589300
  0
VERTEX
  8
0
 10
386102.223500
 20
802921.607800
  0
VERTEX
  8
0
 10
386106.919100
 20
802923.368300
  0
VERTEX
  8
0
 10
386106.968500
 20
802923.386900
  0
VERTEX
  8
0
 10
386111.659100
 20
802925.160500
  0
VERTEX
  8
0
 10
386111.708200
 20
802925.179000
  0
VERTEX
  8
0
 10
386116.393900
 20
802926.965700
  0
VERTEX
  8
0
 10
386116.456500
 20
802926.989600
  0
VERTEX
  8
0
 10
386119.098000
 20
802928.551000
  0
VERTEX
  8
0
 10
386119.592700
 20
802928.726900
  0
VERTEX
  8
0
 10
386124.138600
 20
802930.067000
  0
VERTEX
  8
0
 10
386124.353900
 20
802930.131000
  0
VERTEX
  8
0
 10
386125.850300
 20
802930.688200
  0
VERTEX
  8
0
 10
386130.543200
 20
802932.522400
  0
VERTEX
  8
0
 10
386130.590900
 20
802932.541000
  0
VERTEX
  8
0
 10
386135.256400
 20
802934.379600
  0
VERTEX
  8
0
 10
386135.303800
 20
802934.398300
  0
VERTEX
  8
0
 10
386139.964200
 20
802936.249900
  0
VERTEX
  8
0
 10
386140.011300
 20
802936.268600
  0
VERTEX
  8
0
 10
386144.666500
 20
802938.133100
  0
VERTEX
  8
0
 10
386144.713200
 20
802938.151800
  0
VERTEX
  8
0
 10
386149.363300
 20
802940.029200
  0
VERTEX
  8
0
 10
386149.409700
 20
802940.048000
  0
VERTEX
  8
0
 10
386154.054500
 20
802941.938300
  0
VERTEX
  8
0
 10
386154.100700
 20
802941.957100
  0
VERTEX
  8
0
 10
386158.740200
 20
802943.860400
  0
VERTEX
  8
0
 10
386158.786000
 20
802943.879200
  0
VERTEX
  8
0
 10
386163.420300
 20
802945.795300
  0
VERTEX
  8
0
 10
386163.465800
 20
802945.814100
  0
VERTEX
  8
0
 10
386168.094600
 20
802947.743100
  0
VERTEX
  8
0
 10
386168.139800
 20
802947.762000
  0
VERTEX
  8
0
 10
386172.763400
 20
802949.703800
  0
VERTEX
  8
0
 10
386172.808200
 20
802949.722700
  0
VERTEX
  8
0
 10
386177.426300
 20
802951.677400
  0
VERTEX
  8
0
 10
386177.470900
 20
802951.696300
  0
VERTEX
  8
0
 10
386182.083600
 20
802953.663800
  0
VERTEX
  8
0
 10
386182.127800
 20
802953.682700
  0
VERTEX
  8
0
 10
386186.735000
 20
802955.663000
  0
VERTEX
  8
0
 10
386186.779000
 20
802955.681900
  0
VERTEX
  8
0
 10
386191.380600
 20
802957.675000
  0
VERTEX
  8
0
 10
386191.424300
 20
802957.694000
  0
VERTEX
  8
0
 10
386196.020400
 20
802959.699900
  0
VERTEX
  8
0
 10
386196.063700
 20
802959.718800
  0
VERTEX
  8
0
 10
386200.000000
 20
802961.449800
  0
SEQEND
  0
POLYLINE
  8
0
 62
3
  6
CONTINUOUS
 70
0
 66
1
 10
0.000000
 20
0.000000
  0
VERTEX
  8
0
 10
386200.000000
 20
802949.024300
  0
VERTEX
  8
0
 10
386199.073000
 20
802948.665500
  0
VERTEX
  8
0
 10
386194.402700
 20
802946.878200
  0
VERTEX
  8
0
 10
386193.851300
 20
802946.669100
  0
VERTEX
  8
0
 10
386189.175500
 20
802944.895300
  0
VERTEX
  8
0
 10
386188.237800
 20
802944.539600
  0
VERTEX
  8
0
 10
386183.555400
 20
802942.783100
  0
VERTEX
  8
0
 10
386183.478100
 20
802942.755500
  0
VERTEX
  8
0
 10
386178.770100
 20
802941.069000
  0
VERTEX
  8
0
 10
386178.769000
 20
802941.068700
  0
VERTEX
  8
0
 10
386174.063500
 20
802939.374900
  0
VERTEX
  8
0
 10
386172.643000
 20
802938.855300
  0
VERTEX
  8
0
 10
386168.979000
 20
802937.515000
  0
VERTEX
  8
0
 10
386166.445200
 20
802936.600800
  0
VERTEX
  8
0
 10
386161.736100
 20
802934.917400
  0
VERTEX
  8
0
 10
386161.734800
 20
802934.916900
  0
VERTEX
  8
0
 10
386158.936100
 20
802933.889200
  0
VERTEX
  8
0
 10
386155.221500
 20
802932.572700
  0
VERTEX
  8
0
 10
386152.718300
 20
802931.733200
  0
VERTEX
  8
0
 10
386147.976800
 20
802930.143100
  0
VERTEX
  8
0
 10
386147.972100
 20
802930.141500
  0
VERTEX
  8
0
 10
386143.746800
 20
802928.566000
  0
VERTEX
  8
0
 10
386139.890900
 20
802927.111200
  0
VERTEX
  8
0
 10
386139.296700
 20
802926.886900
  0
VERTEX
  8
0
 10
386134.618000
 20
802925.121600
  0
VERTEX
  8
0
 10
386129.912700
 20
802923.427500
  0
VERTEX
  8
0
 10
386128.955600
 20
802923.096200
  0
VERTEX
  8
0
 10
386128.654600
 20
802922.992000
  0
VERTEX
  8
0
 10
386127.499000
 20
802922.592000
  0
VERTEX
  8
0
 10
386122.773100
 20
802920.956100
  0
VERTEX
  8
0
 10
386122.770500
 20
802920.955200
  0
VERTEX
  8
0
 10
386118.045400
 20
802919.317100
  0
VERTEX
  8
0
 10
386118.042800
 20
802919.316200
  0
VERTEX
  8
0
 10
386113.457000
 20
802917.690100
  0
VERTEX
  8
0
 10
386112.223300
 20
802917.252600
  0
VERTEX
  8
0
 10
386107.703900
 20
802915.651300
  0
VERTEX
  8
0
 10
386107.307200
 20
802915.533300
  0
VERTEX
  8
0
 10
386103.295000
 20
802914.389100
  0
VERTEX
  8
0
 10
386100.000000
 20
802913.453500
  0
SEQEND
  0
POLYLINE
  8
0
 62
3
  6
CONTINUOUS
 70
0
 66
1
 10
0.000000
 20
0.000000
  0
VERTEX
  8
0
 10
386100.000000
 20
802926.115500
  0
VERTEX
  8
0
 10
386100.431400
 20
802926.275900
  0
VERTEX
  8
0
 10
386100.481000
 20
802926.294300
  0
VERTEX
  8
0
 10
386105.163700
 20
802928.050100
  0
VERTEX
  8
0
 10
386105.212900
 20
802928.068500
  0
VERTEX
  8
0
 10
386109.890700
 20
802929.837300
  0
VERTEX
  8
0
 10
386109.939600
 20
802929.855800
  0
VERTEX
  8
0
 10
386114.612500
 20
802931.637600
  0
VERTEX
  8
0
 10
386114.661100
 20
802931.656100
  0
VERTEX
  8
0
 10
386117.210800
 20
802933.181200
  0
VERTEX
  8
0
 10
386117.923100
 20
802933.439900
  0
VERTEX
  8
0
 10
386122.717900
 20
802934.860900
  0
VERTEX
  8
0
 10
386122.888600
 20
802934.911500
  0
VERTEX
  8
0
 10
386124.065100
 20
802935.358600
  0
VERTEX
  8
0
 10
386128.722900
 20
802937.179300
  0
VERTEX
  8
0
 10
386128.770500
 20
802937.197900
  0
VERTEX
  8
0
 10
386133.423200
 20
802939.031400
  0
VERTEX
  8
0
 10
386133.470500
 20
802939.050100
  0
VERTEX
  8
0
 10
386138.118100
 20
802940.896600
  0
VERTEX
  8
0
 10
386138.165000
 20
802940.915200
  0
VERTEX
  8
0
 10
386142.807500
 20
802942.774600
  0
VERTEX
  8
0
 10
386142.854100
 20
802942.793300
  0
VERTEX
  8
0
 10
386147.491400
 20
802944.665600
  0
VERTEX
  8
0
 10
386147.537700
 20
802944.684300
  0
VERTEX
  8
0
 10
386152.169700
 20
802946.569500
  0
VERTEX
  8
0
 10
386152.215700
 20
802946.588200
  0
VERTEX
  8
0
 10
386156.842500
 20
802948.486300
  0
VERTEX
  8
0
 10
386156.888200
 20
802948.505000
  0
VERTEX
  8
0
 10
386161.509700
 20
802950.415900
  0
VERTEX
  8
0
 10
386161.555100
 20
802950.434700
  0
VERTEX
  8
0
 10
386166.171300
 20
802952.358400
  0
VERTEX
  8
0
 10
386166.216400
 20
802952.377200
  0
VERTEX
  8
0
 10
386170.827200
 20
802954.313700
  0
VERTEX
  8
0
 10
386170.872000
 20
802954.332500
  0
VERTEX
  8
0
 10
386175.477400
 20
802956.281900
  0
VERTEX
  8
0
 10
386175.521800
 20
802956.300700
  0
VERTEX
  8
0
 10
386180.121800
 20
802958.262900
  0
VERTEX
  8
0
 10
386180.166000
 20
802958.281700
  0
VERTEX
  8
0
 10
386184.760500
 20
802960.256600
  0
VERTEX
  8
0
 10
386184.804300
 20
802960.275500
  0
VERTEX
  8
0
 10
386189.393300
 20
802962.263100
  0
VERTEX
  8
0
 10
386189.436900
 20
802962.282000
  0
VERTEX
  8
0
 10
386194.020300
 20
802964.282400
  0
VERTEX
  8
0
 10
386194.063500
 20
802964.301300
  0
VERTEX
  8
0
 10
386198.641400
 20
802966.314500
  0
VERTEX
  8
0
 10
386198.684400
 20
802966.333300
  0
VERTEX
  8
0
 10
386200.000000
 20
802966.916300
  0
SEQEND
  0
POLYLINE
  8
0
 62
9
  6
CONTINUOUS
 70
0
 66
1
 10
0.000000
 20
0.000000
  0
VERTEX
  8
0
 10
386200.000000
 20
802961.449800
  0
VERTEX
  8
0
 10
386200.654200
 20
802961.737500
  0
VERTEX
  8
0
 10
386200.697200
 20
802961.756400
  0
VERTEX
  8
0
 10
386205.282100
 20
802963.787800
  0
VERTEX
  8
0
 10
386205.324800
 20
802963.806800
  0
VERTEX
  8
0
 10
386209.904100
 20
802965.850900
  0
VERTEX
  8
0
 10
386209.946500
 20
802965.869900
  0
VERTEX
  8
0
 10
386214.520000
 20
802967.926700
  0
VERTEX
  8
0
 10
386214.562100
 20
802967.945700
  0
VERTEX
  8
0
 10
386219.129900
 20
802970.015300
  0
VERTEX
  8
0
 10
386219.171700
 20
802970.034200
  0
VERTEX
  8
0
 10
386223.787600
 20
802972.141100
  0
SEQEND
  0
POLYLINE
  8
0
 62
3
  6
CONTINUOUS
 70
0
 66
1
 10
0.000000
 20
0.000000
  0
VERTEX
  8
0
 10
386200.000000
 20
802966.916300
  0
VERTEX
  8
0
 10
386203.256600
 20
802968.359200
  0
VERTEX
  8
0
 10
386203.299300
 20
802968.378100
  0
VERTEX
  8
0
 10
386207.865900
 20
802970.416700
  0
VERTEX
  8
0
 10
386207.908200
 20
802970.435500
  0
VERTEX
  8
0
 10
386212.469100
 20
802972.486800
  0
VERTEX
  8
0
 10
386212.511100
 20
802972.505700
  0
VERTEX
  8
0
 10
386217.066400
 20
802974.569600
  0
VERTEX
  8
0
 10
386217.108100
 20
802974.588500
  0
VERTEX
  8
0
 10
386221.698900
 20
802976.684000
  0
SEQEND
  0
POLYLINE
  8
0
 62
9
  6
CONTINUOUS
 70
0
 66
1
 10
0.000000
 20
0.000000
  0
VERTEX
  8
0
 10
386223.787700
 20
802972.141200
  0
VERTEX
  8
0
 10
386228.331400
 20
802974.230400
  0
VERTEX
  8
0
 10
386228.372600
 20
802974.249300
  0
VERTEX
  8
0
 10
386232.923000
 20
802976.356900
  0
VERTEX
  8
0
 10
386232.963900
 20
802976.375800
  0
VERTEX
  8
0
 10
386237.508400
 20
802978.496100
  0
VERTEX
  8
0
 10
386237.549000
 20
802978.515000
  0
VERTEX
  8
0
 10
386242.087500
 20
802980.647900
  0
VERTEX
  8
0
 10
386242.127800
 20
802980.666800
  0
VERTEX
  8
0
 10
386246.660500
 20
802982.812200
  0
VERTEX
  8
0
 10
386246.700400
 20
802982.831200
  0
VERTEX
  8
0
 10
386251.227100
 20
802984.989200
  0
VERTEX
  8
0
 10
386251.266800
 20
802985.008100
  0
VERTEX
  8
0
 10
386255.787400
 20
802987.178700
  0
VERTEX
  8
0
 10
386255.826800
 20
802987.197600
  0
VERTEX
  8
0
 10
386260.341400
 20
802989.380800
  0
VERTEX
  8
0
 10
386260.380500
 20
802989.399700
  0
VERTEX
  8
0
 10
386264.889000
 20
802991.595400
  0
VERTEX
  8
0
 10
386264.927800
 20
802991.614300
  0
VERTEX
  8
0
 10
386269.430200
 20
802993.822500
  0
VERTEX
  8
0
 10
386269.468600
 20
802993.841400
  0
VERTEX
  8
0
 10
386273.964900
 20
802996.062100
  0
VERTEX
  8
0
 10
386274.003000
 20
802996.080900
  0
VERTEX
  8
0
 10
386278.493100
 20
802998.314200
  0
VERTEX
  8
0
 10
386278.530900
 20
802998.333000
  0
VERTEX
  8
0
 10
386281.859400
 20
803000.000000
  0
SEQEND
  0
POLYLINE
  8
0
 62
3
  6
CONTINUOUS
 70
0
 66
1
 10
0.000000
 20
0.000000
  0
VERTEX
  8
0
 10
386221.698900
 20
802976.684000
  0
VERTEX
  8
0
 10
386226.242600
 20
802978.773200
  0
VERTEX
  8
0
 10
386226.283700
 20
802978.792000
  0
VERTEX
  8
0
 10
386230.821600
 20
802980.893900
  0
VERTEX
  8
0
 10
386230.862400
 20
802980.912800
  0
VERTEX
  8
0
 10
386235.394400
 20
802983.027200
  0
VERTEX
  8
0
 10
386235.434800
 20
802983.046100
  0
VERTEX
  8
0
 10
386239.961000
 20
802985.173100
  0
VERTEX
  8
0
 10
386240.001100
 20
802985.192000
  0
VERTEX
  8
0
 10
386244.521300
 20
802987.331500
  0
VERTEX
  8
0
 10
386244.561200
 20
802987.350400
  0
VERTEX
  8
0
 10
386249.075400
 20
802989.502500
  0
VERTEX
  8
0
 10
386249.115000
 20
802989.521400
  0
VERTEX
  8
0
 10
386253.623200
 20
802991.686100
  0
VERTEX
  8
0
 10
386253.662500
 20
802991.704900
  0
VERTEX
  8
0
 10
386258.164700
 20
802993.882100
  0
VERTEX
  8
0
 10
386258.203600
 20
802993.900900
  0
VERTEX
  8
0
 10
386262.699700
 20
802996.090600
  0
VERTEX
  8
0
 10
386262.738400
 20
802996.109500
  0
VERTEX
  8
0
 10
386267.228400
 20
802998.311600
  0
VERTEX
  8
0
 10
386267.266800
 20
802998.330400
  0
VERTEX
  8
0
 10
386270.647000
 20
803000.000000
  0
SEQEND
  0
POLYLINE
  8
0
 62
1
  6
CONTINUOUS
 70
0
 66
1
 10
0.000000
 20
0.000000
  0
VERTEX
  8
0
 10
386200.000000
 20
802972.122200
  0
VERTEX
  8
0
 10
386201.463500
 20
802972.736300
  0
VERTEX
  8
0
 10
386206.099400
 20
802974.696600
  0
VERTEX
  8
0
 10
386210.729900
 20
802976.669700
  0
VERTEX
  8
0
 10
386215.354800
 20
802978.655700
  0
VERTEX
  8
0
 10
386219.974300
 20
802980.654600
  0
VERTEX
  8
0
 10
386224.588100
 20
802982.666300
  0
VERTEX
  8
0
 10
386229.196400
 20
802984.690700
  0
VERTEX
  8
0
 10
386233.799000
 20
802986.728000
  0
VERTEX
  8
0
 10
386238.395900
 20
802988.778100
  0
VERTEX
  8
0
 10
386242.987100
 20
802990.840900
  0
VERTEX
  8
0
 10
386247.572600
 20
802992.916400
  0
VERTEX
  8
0
 10
386252.152200
 20
802995.004700
  0
VERTEX
  8
0
 10
386256.726100
 20
802997.105700
  0
VERTEX
  8
0
 10
386261.294100
 20
802999.219400
  0
VERTEX
  8
0
 10
386262.968800
 20
803000.000000
  0
SEQEND
  0
POLYLINE
  8
0
 62
9
  6
CONTINUOUS
 70
0
 66
1
 10
0.000000
 20
0.000000
  0
VERTEX
  8
0
 10
386300.000000
 20
803009.210200
  0
VERTEX
  8
0
 10
386301.033000
 20
803009.738900
  0
VERTEX
  8
0
 10
386301.069200
 20
803009.757400
  0
VERTEX
  8
0
 10
386305.524200
 20
803012.045300
  0
VERTEX
  8
0
 10
386305.560100
 20
803012.063700
  0
VERTEX
  8
0
 10
386310.011800
 20
803014.358200
  0
VERTEX
  8
0
 10
386310.047300
 20
803014.376500
  0
VERTEX
  8
0
 10
386314.495700
 20
803016.677400
  0
VERTEX
  8
0
 10
386314.530900
 20
803016.695700
  0
VERTEX
  8
0
 10
386318.975900
 20
803019.003100
  0
VERTEX
  8
0
 10
386319.010900
 20
803019.021200
  0
VERTEX
  8
0
 10
386323.452500
 20
803021.335100
  0
VERTEX
  8
0
 10
386323.487300
 20
803021.353200
  0
VERTEX
  8
0
 10
386327.925600
 20
803023.673500
  0
VERTEX
  8
0
 10
386327.960100
 20
803023.691600
  0
VERTEX
  8
0
 10
386332.395000
 20
803026.018400
  0
VERTEX
  8
0
 10
386332.429300
 20
803026.036400
  0
VERTEX
  8
0
 10
386336.860800
 20
803028.369600
  0
VERTEX
  8
0
 10
386336.895000
 20
803028.387600
  0
VERTEX
  8
0
 10
386341.323100
 20
803030.727300
  0
VERTEX
  8
0
 10
386341.357200
 20
803030.745300
  0
VERTEX
  8
0
 10
386345.781900
 20
803033.091400
  0
VERTEX
  8
0
 10
386345.815800
 20
803033.109400
  0
VERTEX
  8
0
 10
386350.237100
 20
803035.462000
  0
VERTEX
  8
0
 10
386350.270900
 20
803035.480000
  0
VERTEX
  8
0
 10
386354.688700
 20
803037.839000
  0
VERTEX
  8
0
 10
386354.722500
 20
803037.857000
  0
VERTEX
  8
0
 10
386357.600200
 20
803039.398000
  0
VERTEX
  8
0
 10
386359.176200
 20
803040.243400
  0
VERTEX
  8
0
 10
386362.820100
 20
803042.242600
  0
VERTEX
  8
0
 10
386363.832100
 20
803042.658400
  0
VERTEX
  8
0
 10
386364.419100
 20
803042.687800
  0
VERTEX
  8
0
 10
386364.989400
 20
803042.545200
  0
VERTEX
  8
0
 10
386365.493500
 20
803042.243100
  0
VERTEX
  8
0
 10
386365.888100
 20
803041.807400
  0
VERTEX
  8
0
 10
386366.074300
 20
803041.490200
  0
VERTEX
  8
0
 10
386367.696900
 20
803038.508000
  0
VERTEX
  8
0
 10
386369.413500
 20
803035.361100
  0
VERTEX
  8
0
 10
386371.130100
 20
803032.214100
  0
VERTEX
  8
0
 10
386372.698800
 20
803029.361000
  0
VERTEX
  8
0
 10
386372.987900
 20
803028.743100
  0
VERTEX
  8
0
 10
386373.069800
 20
803028.399100
  0
VERTEX
  8
0
 10
386373.089900
 20
803028.046200
  0
VERTEX
  8
0
 10
386373.058000
 20
803027.687600
  0
VERTEX
  8
0
 10
386372.705400
 20
803024.786500
  0
VERTEX
  8
0
 10
386372.536000
 20
803023.264700
  0
VERTEX
  8
0
 10
386372.688300
 20
803022.102400
  0
VERTEX
  8
0
 10
386372.509100
 20
803021.212200
  0
VERTEX
  8
0
 10
386371.940800
 20
803020.401200
  0
VERTEX
  8
0
 10
386371.245200
 20
803019.961700
  0
VERTEX
  8
0
 10
386366.876700
 20
803018.560100
  0
VERTEX
  8
0
 10
386362.118600
 20
803017.023200
  0
VERTEX
  8
0
 10
386357.360400
 20
803015.486300
  0
VERTEX
  8
0
 10
386352.602300
 20
803013.949300
  0
VERTEX
  8
0
 10
386347.844100
 20
803012.412400
  0
VERTEX
  8
0
 10
386343.086000
 20
803010.875500
  0
VERTEX
  8
0
 10
386338.327900
 20
803009.338500
  0
VERTEX
  8
0
 10
386333.569700
 20
803007.801600
  0
VERTEX
  8
0
 10
386328.811600
 20
803006.264700
  0
VERTEX
  8
0
 10
386324.053500
 20
803004.727700
  0
VERTEX
  8
0
 10
386319.295300
 20
803003.190800
  0
VERTEX
  8
0
 10
386314.537200
 20
803001.653900
  0
VERTEX
  8
0
 10
386309.779000
 20
803000.116900
  0
VERTEX
  8
0
 10
386309.417000
 20
803000.000000
  0
SEQEND
  0
POLYLINE
  8
0
 62
3
  6
CONTINUOUS
 70
0
 66
1
 10
0.000000
 20
0.000000
  0
VERTEX
  8
0
 10
386300.000000
 20
803014.829100
  0
VERTEX
  8
0
 10
386303.240000
 20
803016.493100
  0
VERTEX
  8
0
 10
386303.275800
 20
803016.511500
  0
VERTEX
  8
0
 10
386307.721100
 20
803018.802600
  0
VERTEX
  8
0
 10
386307.756600
 20
803018.820900
  0
VERTEX
  8
0
 10
386312.198500
 20
803021.118500
  0
VERTEX
  8
0
 10
386312.233700
 20
803021.136700
  0
VERTEX
  8
0
 10
386316.672300
 20
803023.440800
  0
VERTEX
  8
0
 10
386316.707200
 20
803023.458900
  0
VERTEX
  8
0
 10
386321.142500
 20
803025.769500
  0
VERTEX
  8
0
 10
386321.177200
 20
803025.787500
  0
VERTEX
  8
0
 10
386325.609000
 20
803028.104500
  0
VERTEX
  8
0
 10
386325.643500
 20
803028.122600
  0
VERTEX
  8
0
 10
386330.072000
 20
803030.446000
  0
VERTEX
  8
0
 10
386330.106300
 20
803030.464000
  0
VERTEX
  8
0
 10
386334.531400
 20
803032.793900
  0
VERTEX
  8
0
 10
386334.565600
 20
803032.811800
  0
VERTEX
  8
0
 10
386338.987300
 20
803035.148100
  0
VERTEX
  8
0
 10
386339.021300
 20
803035.166100
  0
VERTEX
  8
0
 10
386343.439600
 20
803037.508900
  0
VERTEX
  8
0
 10
386343.473500
 20
803037.526800
  0
VERTEX
  8
0
 10
386347.888400
 20
803039.876000
  0
VERTEX
  8
0
 10
386347.922100
 20
803039.894000
  0
VERTEX
  8
0
 10
386352.333600
 20
803042.249600
  0
VERTEX
  8
0
 10
386352.367300
 20
803042.267600
  0
VERTEX
  8
0
 10
386355.237800
 20
803043.804700
  0
VERTEX
  8
0
 10
386356.809100
 20
803044.647600
  0
VERTEX
  8
0
 10
386360.915000
 20
803046.865500
  0
VERTEX
  8
0
 10
386362.851000
 20
803047.561200
  0
VERTEX
  8
0
 10
386364.905600
 20
803047.664000
  0
VERTEX
  8
0
 10
386366.901400
 20
803047.165200
  0
VERTEX
  8
0
 10
386368.666000
 20
803046.107700
  0
VERTEX
  8
0
 10
386370.047000
 20
803044.582900
  0
VERTEX
  8
0
 10
386370.369700
 20
803044.049300
  0
VERTEX
  8
0
 10
386372.086300
 20
803040.902400
  0
VERTEX
  8
0
 10
386373.802900
 20
803037.755400
  0
VERTEX
  8
0
 10
386375.519500
 20
803034.608500
  0
VERTEX
  8
0
 10
386377.236100
 20
803031.461500
  0
VERTEX
  8
0
 10
386377.730400
 20
803030.327100
  0
VERTEX
  8
0
 10
386378.017100
 20
803029.123400
  0
VERTEX
  8
0
 10
386378.087400
 20
803027.888000
  0
VERTEX
  8
0
 10
386378.040800
 20
803027.273000
  0
VERTEX
  8
0
 10
386377.669600
 20
803024.189000
  0
VERTEX
  8
0
 10
386377.442600
 20
803022.303100
  0
VERTEX
  8
0
 10
386376.822100
 20
803020.149700
  0
VERTEX
  8
0
 10
386375.552900
 20
803018.302700
  0
VERTEX
  8
0
 10
386373.765000
 20
803016.951500
  0
VERTEX
  8
0
 10
386372.644400
 20
803016.478500
  0
VERTEX
  8
0
 10
386368.030500
 20
803014.988100
  0
VERTEX
  8
0
 10
386363.272400
 20
803013.451200
  0
VERTEX
  8
0
 10
386358.514200
 20
803011.914200
  0
VERTEX
  8
0
 10
386353.756100
 20
803010.377300
  0
VERTEX
  8
0
 10
386348.998000
 20
803008.840400
  0
VERTEX
  8
0
 10
386344.239800
 20
803007.303500
  0
VERTEX
  8
0
 10
386339.481700
 20
803005.766500
  0
VERTEX
  8
0
 10
386334.723500
 20
803004.229600
  0
VERTEX
  8
0
 10
386329.965400
 20
803002.692700
  0
VERTEX
  8
0
 10
386325.207300
 20
803001.155700
  0
VERTEX
  8
0
 10
386321.629300
 20
803000.000000
  0
SEQEND
  0
POLYLINE
  8
0
 62
1
  6
CONTINUOUS
 70
0
 66
1
 10
0.000000
 20
0.000000
  0
VERTEX
  8
0
 10
386300.000000
 20
803017.757000
  0
VERTEX
  8
0
 10
386302.137000
 20
803018.811400
  0
VERTEX
  8
0
 10
386306.644500
 20
803021.051200
  0
VERTEX
  8
0
 10
386311.145800
 20
803023.303400
  0
VERTEX
  8
0
 10
386315.640800
 20
803025.568200
  0
VERTEX
  8
0
 10
386320.129500
 20
803027.845400
  0
VERTEX
  8
0
 10
386324.611900
 20
803030.135100
  0
VERTEX
  8
0
 10
386329.087900
 20
803032.437300
  0
VERTEX
  8
0
 10
386333.557500
 20
803034.751900
  0
VERTEX
  8
0
 10
386338.020600
 20
803037.078800
  0
VERTEX
  8
0
 10
386342.477300
 20
803039.418200
  0
VERTEX
  8
0
 10
386346.927400
 20
803041.769900
  0
VERTEX
  8
0
 10
386351.371000
 20
803044.134000
  0
VERTEX
  8
0
 10
386354.238700
 20
803045.668100
  0
VERTEX
  8
0
 10
386355.808000
 20
803046.510400
  0
VERTEX
  8
0
 10
386360.238400
 20
803048.899200
  0
VERTEX
  8
0
 10
386364.662200
 20
803051.300200
  0
VERTEX
  8
0
 10
386369.079200
 20
803053.713500
  0
VERTEX
  8
0
 10
386373.489600
 20
803056.139100
  0
VERTEX
  8
0
 10
386377.893100
 20
803058.576900
  0
VERTEX
  8
0
 10
386382.289900
 20
803061.027000
  0
VERTEX
  8
0
 10
386386.679900
 20
803063.489200
  0
VERTEX
  8
0
 10
386391.063000
 20
803065.963600
  0
VERTEX
  8
0
 10
386395.439200
 20
803068.450200
  0
VERTEX
  8
0
 10
386399.808500
 20
803070.949000
  0
VERTEX
  8
0
 10
386400.000000
 20
803071.059200
  0
SEQEND
  0
POLYLINE
  8
0
 62
9
  6
CONTINUOUS
 70
0
 66
1
 10
0.000000
 20
0.000000
  0
VERTEX
  8
0
 10
386300.000000
 20
802993.033100
  0
VERTEX
  8
0
 10
386301.416600
 20
802993.471100
  0
VERTEX
  8
0
 10
386306.174700
 20
802995.008000
  0
VERTEX
  8
0
 10
386310.932800
 20
802996.544900
  0
VERTEX
  8
0
 10
386315.691000
 20
802998.081900
  0
VERTEX
  8
0
 10
386320.449100
 20
802999.618800
  0
VERTEX
  8
0
 10
386321.629300
 20
803000.000000
  0
SEQEND
  0
POLYLINE
  8
0
 62
3
  6
CONTINUOUS
 70
0
 66
1
 10
0.000000
 20
0.000000
  0
VERTEX
  8
0
 10
386321.629300
 20
803000.000000
  0
VERTEX
  8
0
 10
386320.449100
 20
802999.618800
  0
VERTEX
  8
0
 10
386315.691000
 20
802998.081900
  0
VERTEX
  8
0
 10
386310.932800
 20
802996.544900
  0
VERTEX
  8
0
 10
386306.174700
 20
802995.008000
  0
VERTEX
  8
0
 10
386301.416600
 20
802993.471100
  0
VERTEX
  8
0
 10
386300.000000
 20
802993.033100
  0
SEQEND
  0
POLYLINE
  8
0
 62
1
  6
CONTINUOUS
 70
0
 66
1
 10
0.000000
 20
0.000000
  0
VERTEX
  8
0
 10
386300.000000
 20
802991.359600
  0
VERTEX
  8
0
 10
386301.906900
 20
802991.991600
  0
VERTEX
  8
0
 10
386306.653100
 20
802993.564700
  0
VERTEX
  8
0
 10
386311.399300
 20
802995.137700
  0
VERTEX
  8
0
 10
386316.145400
 20
802996.710700
  0
VERTEX
  8
0
 10
386320.891600
 20
802998.283700
  0
VERTEX
  8
0
 10
386325.637800
 20
802999.856700
  0
VERTEX
  8
0
 10
386326.070100
 20
803000.000000
  0
SEQEND
  0
POLYLINE
  8
0
 62
3
  6
CONTINUOUS
 70
0
 66
1
 10
0.000000
 20
0.000000
  0
VERTEX
  8
0
 10
386270.647000
 20
803000.000000
  0
VERTEX
  8
0
 10
386271.750700
 20
803000.545100
  0
VERTEX
  8
0
 10
386271.788700
 20
803000.563900
  0
VERTEX
  8
0
 10
386276.266400
 20
803002.791000
  0
VERTEX
  8
0
 10
386276.304200
 20
803002.809800
  0
VERTEX
  8
0
 10
386280.775700
 20
803005.049300
  0
VERTEX
  8
0
 10
386280.813100
 20
803005.068000
  0
VERTEX
  8
0
 10
386285.278400
 20
803007.320000
  0
VERTEX
  8
0
 10
386285.315600
 20
803007.338700
  0
VERTEX
  8
0
 10
386288.223200
 20
803008.813500
  0
VERTEX
  8
0
 10
386289.811600
 20
803009.621400
  0
VERTEX
  8
0
 10
386294.266800
 20
803011.893100
  0
VERTEX
  8
0
 10
386294.303300
 20
803011.911700
  0
VERTEX
  8
0
 10
386298.755300
 20
803014.189900
  0
VERTEX
  8
0
 10
386298.791400
 20
803014.208400
  0
VERTEX
  8
0
 10
386300.000000
 20
803014.829100
  0
SEQEND
  0
POLYLINE
  8
0
 62
1
  6
CONTINUOUS
 70
0
 66
1
 10
0.000000
 20
0.000000
  0
VERTEX
  8
0
 10
386262.968800
 20
803000.000000
  0
VERTEX
  8
0
 10
386265.856200
 20
803001.345800
  0
VERTEX
  8
0
 10
386270.412400
 20
803003.484900
  0
VERTEX
  8
0
 10
386274.962700
 20
803005.636600
  0
VERTEX
  8
0
 10
386279.506900
 20
803007.800900
  0
VERTEX
  8
0
 10
386284.045100
 20
803009.977800
  0
VERTEX
  8
0
 10
386286.976100
 20
803011.392100
  0
VERTEX
  8
0
 10
386288.577300
 20
803012.167400
  0
VERTEX
  8
0
 10
386293.103300
 20
803014.369500
  0
VERTEX
  8
0
 10
386297.623200
 20
803016.584200
  0
VERTEX
  8
0
 10
386300.000000
 20
803017.757000
  0
SEQEND
  0
POLYLINE
  8
0
 62
9
  6
CONTINUOUS
 70
0
 66
1
 10
0.000000
 20
0.000000
  0
VERTEX
  8
0
 10
386281.859400
 20
803000.000000
  0
VERTEX
  8
0
 10
386283.014800
 20
803000.578700
  0
VERTEX
  8
0
 10
386283.052300
 20
803000.597500
  0
VERTEX
  8
0
 10
386287.529900
 20
803002.855600
  0
VERTEX
  8
0
 10
386287.567200
 20
803002.874400
  0
VERTEX
  8
0
 10
386290.488200
 20
803004.355900
  0
VERTEX
  8
0
 10
386292.079600
 20
803005.165400
  0
VERTEX
  8
0
 10
386296.538100
 20
803007.438800
  0
VERTEX
  8
0
 10
386296.574600
 20
803007.457400
  0
VERTEX
  8
0
 10
386300.000000
 20
803009.210200
  0
SEQEND
  0
POLYLINE
  8
0
 62
9
  6
CONTINUOUS
 70
0
 66
1
 10
0.000000
 20
0.000000
  0
VERTEX
  8
0
 10
386309.417000
 20
803000.000000
  0
VERTEX
  8
0
 10
386305.020900
 20
802998.580000
  0
VERTEX
  8
0
 10
386300.285300
 20
802997.050300
  0
VERTEX
  8
0
 10
386300.000000
 20
802996.962100
  0
SEQEND
  0
POLYLINE
  8
0
 62
9
  6
CONTINUOUS
 70
0
 66
1
 10
0.000000
 20
0.000000
  0
VERTEX
  8
0
 10
386321.629300
 20
803000.000000
  0
VERTEX
  8
0
 10
386325.207300
 20
803001.155700
  0
VERTEX
  8
0
 10
386329.965400
 20
803002.692700
  0
VERTEX
  8
0
 10
386334.723500
 20
803004.229600
  0
VERTEX
  8
0
 10
386339.481700
 20
803005.766500
  0
VERTEX
  8
0
 10
386344.239800
 20
803007.303500
  0
VERTEX
  8
0
 10
386348.998000
 20
803008.840400
  0
VERTEX
  8
0
 10
386353.756100
 20
803010.377300
  0
VERTEX
  8
0
 10
386358.514200
 20
803011.914200
  0
VERTEX
  8
0
 10
386363.272400
 20
803013.451200
  0
VERTEX
  8
0
 10
386368.030500
 20
803014.988100
  0
VERTEX
  8
0
 10
386372.788600
 20
803016.525000
  0
VERTEX
  8
0
 10
386376.551700
 20
803017.694900
  0
VERTEX
  8
0
 10
386377.069400
 20
803018.094200
  0
VERTEX
  8
0
 10
386381.032700
 20
803021.143700
  0
VERTEX
  8
0
 10
386384.417700
 20
803023.830800
  0
VERTEX
  8
0
 10
386385.485300
 20
803024.679300
  0
VERTEX
  8
0
 10
386386.851300
 20
803025.764900
  0
VERTEX
  8
0
 10
386390.759500
 20
803028.884900
  0
VERTEX
  8
0
 10
386393.823000
 20
803031.364500
  0
VERTEX
  8
0
 10
386397.697200
 20
803034.528200
  0
VERTEX
  8
0
 10
386399.237200
 20
803035.785700
  0
VERTEX
  8
0
 10
386400.000000
 20
803036.412900
  0
SEQEND
  0
POLYLINE
  8
0
 62
1
  6
CONTINUOUS
 70
0
 66
1
 10
0.000000
 20
0.000000
  0
VERTEX
  8
0
 10
386326.070100
 20
803000.000000
  0
VERTEX
  8
0
 10
386330.384000
 20
803001.429700
  0
VERTEX
  8
0
 10
386335.130100
 20
803003.002800
  0
VERTEX
  8
0
 10
386339.876300
 20
803004.575800
  0
VERTEX
  8
0
 10
386344.622500
 20
803006.148800
  0
VERTEX
  8
0
 10
386349.368700
 20
803007.721800
  0
VERTEX
  8
0
 10
386354.114900
 20
803009.294800
  0
VERTEX
  8
0
 10
386358.861000
 20
803010.867900
  0
VERTEX
  8
0
 10
386363.607200
 20
803012.440900
  0
VERTEX
  8
0
 10
386368.353400
 20
803014.013900
  0
VERTEX
  8
0
 10
386373.099600
 20
803015.586900
  0
VERTEX
  8
0
 10
386377.103500
 20
803016.913900
  0
VERTEX
  8
0
 10
386377.655000
 20
803017.345000
  0
VERTEX
  8
0
 10
386381.594900
 20
803020.424400
  0
VERTEX
  8
0
 10
386385.000000
 20
803023.085800
  0
VERTEX
  8
0
 10
386386.074400
 20
803023.925600
  0
VERTEX
  8
0
 10
386387.449100
 20
803025.000000
  0
VERTEX
  8
0
 10
386391.389000
 20
803028.079400
  0
VERTEX
  8
0
 10
386394.493900
 20
803030.506100
  0
VERTEX
  8
0
 10
386398.433900
 20
803033.585600
  0
VERTEX
  8
0
 10
386400.000000
 20
803034.809700
  0
SEQEND
  0
POLYLINE
  8
0
 62
9
  6
CONTINUOUS
 70
0
 66
1
 10
0.000000
 20
0.000000
  0
VERTEX
  8
0
 10
386400.000000
 20
803041.273200
  0
VERTEX
  8
0
 10
386399.708600
 20
803041.033100
  0
VERTEX
  8
0
 10
386396.859500
 20
803038.690300
  0
VERTEX
  8
0
 10
386395.321700
 20
803037.434600
  0
VERTEX
  8
0
 10
386392.610200
 20
803035.197300
  0
VERTEX
  8
0
 10
386391.815900
 20
803034.805000
  0
VERTEX
  8
0
 10
386391.246300
 20
803034.732200
  0
VERTEX
  8
0
 10
386390.702200
 20
803034.797500
  0
VERTEX
  8
0
 10
386390.217200
 20
803034.986400
  0
VERTEX
  8
0
 10
386389.819900
 20
803035.276400
  0
VERTEX
  8
0
 10
386389.532200
 20
803035.638300
  0
VERTEX
  8
0
 10
386389.367600
 20
803036.037800
  0
VERTEX
  8
0
 10
386389.110100
 20
803036.803000
  0
VERTEX
  8
0
 10
386386.935500
 20
803040.827500
  0
VERTEX
  8
0
 10
386384.541000
 20
803045.217200
  0
VERTEX
  8
0
 10
386382.146500
 20
803049.606900
  0
VERTEX
  8
0
 10
386381.886800
 20
803050.077200
  0
VERTEX
  8
0
 10
386381.656600
 20
803050.585100
  0
VERTEX
  8
0
 10
386381.576800
 20
803050.968600
  0
VERTEX
  8
0
 10
386381.573400
 20
803051.360400
  0
VERTEX
  8
0
 10
386381.646300
 20
803051.745300
  0
VERTEX
  8
0
 10
386381.792900
 20
803052.108600
  0
VERTEX
  8
0
 10
386382.007500
 20
803052.436300
  0
VERTEX
  8
0
 10
386382.281800
 20
803052.715900
  0
VERTEX
  8
0
 10
386382.911400
 20
803053.118600
  0
VERTEX
  8
0
 10
386385.789900
 20
803054.679100
  0
VERTEX
  8
0
 10
386390.177400
 20
803057.087900
  0
VERTEX
  8
0
 10
386390.211500
 20
803057.106600
  0
VERTEX
  8
0
 10
386394.598100
 20
803059.523200
  0
VERTEX
  8
0
 10
386394.632300
 20
803059.542100
  0
VERTEX
  8
0
 10
386399.015400
 20
803061.965100
  0
VERTEX
  8
0
 10
386399.049800
 20
803061.984100
  0
VERTEX
  8
0
 10
386400.000000
 20
803062.511200
  0
SEQEND
  0
POLYLINE
  8
0
 62
3
  6
CONTINUOUS
 70
0
 66
1
 10
0.000000
 20
0.000000
  0
VERTEX
  8
0
 10
386400.000000
 20
803036.412900
  0
VERTEX
  8
0
 10
386399.237200
 20
803035.785700
  0
VERTEX
  8
0
 10
386397.697200
 20
803034.528200
  0
VERTEX
  8
0
 10
386394.736200
 20
803032.103600
  0
VERTEX
  8
0
 10
386393.541000
 20
803031.335900
  0
VERTEX
  8
0
 10
386392.207500
 20
803030.846200
  0
VERTEX
  8
0
 10
386390.799500
 20
803030.657800
  0
VERTEX
  8
0
 10
386389.384200
 20
803030.779900
  0
VERTEX
  8
0
 10
386388.029200
 20
803031.206400
  0
VERTEX
  8
0
 10
386386.799200
 20
803031.917200
  0
VERTEX
  8
0
 10
386385.753000
 20
803032.878100
  0
VERTEX
  8
0
 10
386384.940600
 20
803034.043400
  0
VERTEX
  8
0
 10
386382.546100
 20
803038.433100
  0
VERTEX
  8
0
 10
386380.151600
 20
803042.822800
  0
VERTEX
  8
0
 10
386377.757100
 20
803047.212500
  0
VERTEX
  8
0
 10
386377.420200
 20
803047.830100
  0
VERTEX
  8
0
 10
386376.884700
 20
803049.092300
  0
VERTEX
  8
0
 10
386376.605400
 20
803050.434700
  0
VERTEX
  8
0
 10
386376.593200
 20
803051.805800
  0
VERTEX
  8
0
 10
386376.848600
 20
803053.153000
  0
VERTEX
  8
0
 10
386377.361600
 20
803054.424500
  0
VERTEX
  8
0
 10
386378.112600
 20
803055.571600
  0
VERTEX
  8
0
 10
386379.072900
 20
803056.550400
  0
VERTEX
  8
0
 10
386380.205500
 20
803057.323100
  0
VERTEX
  8
0
 10
386383.387300
 20
803059.064000
  0
VERTEX
  8
0
 10
386387.771100
 20
803061.470800
  0
VERTEX
  8
0
 10
386387.805100
 20
803061.489500
  0
VERTEX
  8
0
 10
386392.185400
 20
803063.902600
  0
VERTEX
  8
0
 10
386392.219600
 20
803063.921500
  0
VERTEX
  8
0
 10
386396.596300
 20
803066.341000
  0
VERTEX
  8
0
 10
386396.630700
 20
803066.360000
  0
VERTEX
  8
0
 10
386400.000000
 20
803068.229000
  0
SEQEND
  0
POLYLINE
  8
0
 62
3
  6
CONTINUOUS
 70
0
 66
1
 10
0.000000
 20
0.000000
  0
VERTEX
  8
0
 10
386369.521800
 20
803053.956900
  0
VERTEX
  8
0
 10
386371.916100
 20
803049.567500
  0
VERTEX
  8
0
 10
386373.823400
 20
803046.070800
  0
SEQEND
  0
POLYLINE
  8
0
 62
9
  6
CONTINUOUS
 70
0
 66
1
 10
0.000000
 20
0.000000
  0
VERTEX
  8
0
 10
386363.815500
 20
803050.844300
  0
VERTEX
  8
0
 10
386367.920100
 20
803047.387700
  0
VERTEX
  8
0
 10
386371.189800
 20
803044.634200
  0
SEQEND
  0
POLYLINE
  8
0
 62
9
  6
CONTINUOUS
 70
0
 66
1
 10
0.000000
 20
0.000000
  0
VERTEX
  8
0
 10
386375.228000
 20
803057.069600
  0
VERTEX
  8
0
 10
386375.912100
 20
803051.747200
  0
VERTEX
  8
0
 10
386376.457100
 20
803047.507500
  0
SEQEND
  0
POLYLINE
  8
0
 62
9
  6
CONTINUOUS
 70
0
 66
1
 10
0.000000
 20
0.000000
  0
VERTEX
  8
0
 10
386380.205900
 20
803057.322500
  0
VERTEX
  8
0
 10
386383.387300
 20
803059.064000
  0
VERTEX
  8
0
 10
386387.805100
 20
803061.489500
  0
VERTEX
  8
0
 10
386392.219600
 20
803063.921500
  0
VERTEX
  8
0
 10
386396.630700
 20
803066.360000
  0
VERTEX
  8
0
 10
386400.000000
 20
803068.229000
  0
SEQEND
  0
POLYLINE
  8
0
 62
9
  6
CONTINUOUS
 70
0
 66
1
 10
0.000000
 20
0.000000
  0
VERTEX
  8
0
 10
386407.881100
 20
803066.891400
  0
VERTEX
  8
0
 10
386412.247300
 20
803069.330000
  0
VERTEX
  8
0
 10
386412.282300
 20
803069.349600
  0
VERTEX
  8
0
 10
386416.651200
 20
803071.798100
  0
VERTEX
  8
0
 10
386416.686600
 20
803071.818000
  0
VERTEX
  8
0
 10
386421.051900
 20
803074.272800
  0
VERTEX
  8
0
 10
386421.087500
 20
803074.292900
  0
VERTEX
  8
0
 10
386425.449300
 20
803076.754100
  0
VERTEX
  8
0
 10
386425.485200
 20
803076.774400
  0
VERTEX
  8
0
 10
386429.843300
 20
803079.241900
  0
VERTEX
  8
0
 10
386429.879600
 20
803079.262500
  0
VERTEX
  8
0
 10
386434.234200
 20
803081.736400
  0
VERTEX
  8
0
 10
386434.270800
 20
803081.757200
  0
VERTEX
  8
0
 10
386438.621800
 20
803084.237500
  0
VERTEX
  8
0
 10
386438.655300
 20
803084.256600
  0
VERTEX
  8
0
 10
386440.398300
 20
803085.146200
  0
VERTEX
  8
0
 10
386442.712900
 20
803086.059400
  0
VERTEX
  8
0
 10
386445.264800
 20
803086.453200
  0
VERTEX
  8
0
 10
386449.946500
 20
803086.717100
  0
VERTEX
  8
0
 10
386454.938300
 20
803087.008900
  0
VERTEX
  8
0
 10
386457.424500
 20
803087.180700
  0
VERTEX
  8
0
 10
386456.393500
 20
803086.416700
  0
VERTEX
  8
0
 10
386453.724100
 20
803084.393900
  0
VERTEX
  8
0
 10
386449.744100
 20
803081.348500
  0
VERTEX
  8
0
 10
386449.205300
 20
803080.936300
  0
VERTEX
  8
0
 10
386445.225000
 20
803077.742600
  0
VERTEX
  8
0
 10
386441.299200
 20
803074.502300
  0
VERTEX
  8
0
 10
386441.283100
 20
803074.488600
  0
VERTEX
  8
0
 10
386441.271600
 20
803074.478700
  0
VERTEX
  8
0
 10
386440.765600
 20
803074.045400
  0
VERTEX
  8
0
 10
386436.957300
 20
803070.877500
  0
VERTEX
  8
0
 10
386436.956000
 20
803070.876400
  0
VERTEX
  8
0
 10
386433.102500
 20
803067.805900
  0
VERTEX
  8
0
 10
386430.486700
 20
803065.711100
  0
VERTEX
  8
0
 10
386426.587800
 20
803062.661300
  0
VERTEX
  8
0
 10
386424.763800
 20
803061.262900
  0
VERTEX
  8
0
 10
386422.423100
 20
803059.492600
  0
VERTEX
  8
0
 10
386420.227300
 20
803057.868400
  0
VERTEX
  8
0
 10
386416.171100
 20
803054.707100
  0
VERTEX
  8
0
 10
386415.355100
 20
803054.036400
  0
VERTEX
  8
0
 10
386411.502500
 20
803050.782500
  0
VERTEX
  8
0
 10
386411.499900
 20
803050.780300
  0
VERTEX
  8
0
 10
386407.982900
 20
803047.804500
  0
VERTEX
  8
0
 10
386407.253100
 20
803047.208400
  0
VERTEX
  8
0
 10
386403.368700
 20
803044.049200
  0
VERTEX
  8
0
 10
386400.000000
 20
803041.273200
  0
SEQEND
  0
POLYLINE
  8
0
 62
3
  6
CONTINUOUS
 70
0
 66
1
 10
0.000000
 20
0.000000
  0
VERTEX
  8
0
 10
386405.443000
 20
803071.256700
  0
VERTEX
  8
0
 10
386409.809100
 20
803073.695300
  0
VERTEX
  8
0
 10
386409.844200
 20
803073.714900
  0
VERTEX
  8
0
 10
386414.206700
 20
803076.159800
  0
VERTEX
  8
0
 10
386414.242000
 20
803076.179600
  0
VERTEX
  8
0
 10
386418.601000
 20
803078.631000
  0
VERTEX
  8
0
 10
386418.636600
 20
803078.651000
  0
VERTEX
  8
0
 10
386422.992100
 20
803081.108600
  0
VERTEX
  8
0
 10
386423.028000
 20
803081.128900
  0
VERTEX
  8
0
 10
386427.379800
 20
803083.592900
  0
VERTEX
  8
0
 10
386427.416100
 20
803083.613400
  0
VERTEX
  8
0
 10
386431.764300
 20
803086.083800
  0
VERTEX
  8
0
 10
386431.800900
 20
803086.104600
  0
VERTEX
  8
0
 10
386436.145600
 20
803088.581300
  0
VERTEX
  8
0
 10
386436.182500
 20
803088.602400
  0
VERTEX
  8
0
 10
386438.320400
 20
803089.694000
  0
VERTEX
  8
0
 10
386441.402200
 20
803090.884600
  0
VERTEX
  8
0
 10
386444.662900
 20
803091.416900
  0
VERTEX
  8
0
 10
386449.654700
 20
803091.708600
  0
VERTEX
  8
0
 10
386454.646600
 20
803092.000400
  0
VERTEX
  8
0
 10
386458.952700
 20
803092.252100
  0
VERTEX
  8
0
 10
386460.138500
 20
803092.131700
  0
VERTEX
  8
0
 10
386461.226600
 20
803091.645200
  0
VERTEX
  8
0
 10
386462.107100
 20
803090.841900
  0
VERTEX
  8
0
 10
386462.691100
 20
803089.802900
  0
VERTEX
  8
0
 10
386462.919500
 20
803088.633100
  0
VERTEX
  8
0
 10
386462.769300
 20
803087.450800
  0
VERTEX
  8
0
 10
386462.255700
 20
803086.375200
  0
VERTEX
  8
0
 10
386461.430500
 20
803085.515200
  0
VERTEX
  8
0
 10
386458.657700
 20
803083.422700
  0
VERTEX
  8
0
 10
386455.996700
 20
803081.406300
  0
VERTEX
  8
0
 10
386452.025200
 20
803078.367400
  0
VERTEX
  8
0
 10
386451.494500
 20
803077.961300
  0
VERTEX
  8
0
 10
386447.594400
 20
803074.831200
  0
VERTEX
  8
0
 10
386443.737200
 20
803071.648100
  0
VERTEX
  8
0
 10
386443.723400
 20
803071.636300
  0
VERTEX
  8
0
 10
386443.713300
 20
803071.627600
  0
VERTEX
  8
0
 10
386443.202500
 20
803071.190200
  0
VERTEX
  8
0
 10
386439.358000
 20
803067.991800
  0
VERTEX
  8
0
 10
386439.356700
 20
803067.990600
  0
VERTEX
  8
0
 10
386435.446200
 20
803064.873700
  0
VERTEX
  8
0
 10
386432.819600
 20
803062.770300
  0
VERTEX
  8
0
 10
386428.880900
 20
803059.689400
  0
VERTEX
  8
0
 10
386427.039100
 20
803058.277300
  0
VERTEX
  8
0
 10
386424.670700
 20
803056.486100
  0
VERTEX
  8
0
 10
386422.486100
 20
803054.870300
  0
VERTEX
  8
0
 10
386418.541700
 20
803051.796600
  0
VERTEX
  8
0
 10
386417.745200
 20
803051.141900
  0
VERTEX
  8
0
 10
386413.924800
 20
803047.914800
  0
VERTEX
  8
0
 10
386413.922200
 20
803047.912600
  0
VERTEX
  8
0
 10
386410.365900
 20
803044.904200
  0
VERTEX
  8
0
 10
386409.626600
 20
803044.300400
  0
VERTEX
  8
0
 10
386405.746800
 20
803041.144900
  0
VERTEX
  8
0
 10
386402.094100
 20
803038.134800
  0
VERTEX
  8
0
 10
386400.000000
 20
803036.412900
  0
SEQEND
  0
POLYLINE
  8
0
 62
9
  6
CONTINUOUS
 70
0
 66
1
 10
0.000000
 20
0.000000
  0
VERTEX
  8
0
 10
386400.000000
 20
803036.412900
  0
VERTEX
  8
0
 10
386402.094100
 20
803038.134800
  0
VERTEX
  8
0
 10
386405.746200
 20
803041.144400
  0
VERTEX
  8
0
 10
386409.626600
 20
803044.300400
  0
VERTEX
  8
0
 10
386410.365900
 20
803044.904200
  0
VERTEX
  8
0
 10
386413.922200
 20
803047.912600
  0
VERTEX
  8
0
 10
386417.745200
 20
803051.141900
  0
VERTEX
  8
0
 10
386418.541700
 20
803051.796600
  0
VERTEX
  8
0
 10
386422.486100
 20
803054.870300
  0
VERTEX
  8
0
 10
386424.670700
 20
803056.486100
  0
VERTEX
  8
0
 10
386427.039100
 20
803058.277300
  0
VERTEX
  8
0
 10
386428.880900
 20
803059.689400
  0
VERTEX
  8
0
 10
386432.819600
 20
803062.770300
  0
VERTEX
  8
0
 10
386435.446200
 20
803064.873700
  0
VERTEX
  8
0
 10
386439.356700
 20
803067.990600
  0
VERTEX
  8
0
 10
386443.202500
 20
803071.190200
  0
VERTEX
  8
0
 10
386443.713300
 20
803071.627600
  0
VERTEX
  8
0
 10
386443.723400
 20
803071.636300
  0
VERTEX
  8
0
 10
386443.736300
 20
803071.647300
  0
VERTEX
  8
0
 10
386447.594400
 20
803074.831200
  0
VERTEX
  8
0
 10
386451.494500
 20
803077.961300
  0
VERTEX
  8
0
 10
386452.025200
 20
803078.367400
  0
VERTEX
  8
0
 10
386455.996700
 20
803081.406300
  0
VERTEX
  8
0
 10
386458.657700
 20
803083.422700
  0
VERTEX
  8
0
 10
386460.531500
 20
803084.836800
  0
SEQEND
  0
POLYLINE
  8
0
 62
1
  6
CONTINUOUS
 70
0
 66
1
 10
0.000000
 20
0.000000
  0
VERTEX
  8
0
 10
386400.000000
 20
803034.809700
  0
VERTEX
  8
0
 10
386402.913300
 20
803037.086700
  0
VERTEX
  8
0
 10
386406.640700
 20
803040.000000
  0
VERTEX
  8
0
 10
386410.580800
 20
803043.079600
  0
VERTEX
  8
0
 10
386411.332700
 20
803043.667300
  0
VERTEX
  8
0
 10
386415.000000
 20
803046.533600
  0
VERTEX
  8
0
 10
386418.940100
 20
803049.613200
  0
VERTEX
  8
0
 10
386419.752200
 20
803050.247800
  0
VERTEX
  8
0
 10
386423.692100
 20
803053.327300
  0
VERTEX
  8
0
 10
386425.832200
 20
803055.000000
  0
VERTEX
  8
0
 10
386428.171600
 20
803056.828400
  0
VERTEX
  8
0
 10
386430.000000
 20
803058.257500
  0
VERTEX
  8
0
 10
386433.939900
 20
803061.336900
  0
VERTEX
  8
0
 10
386436.591000
 20
803063.409000
  0
VERTEX
  8
0
 10
386440.530800
 20
803066.488300
  0
VERTEX
  8
0
 10
386444.470700
 20
803069.567700
  0
VERTEX
  8
0
 10
386445.000000
 20
803069.981400
  0
VERTEX
  8
0
 10
386445.010400
 20
803069.989600
  0
VERTEX
  8
0
 10
386445.023800
 20
803070.000000
  0
VERTEX
  8
0
 10
386448.963600
 20
803073.079300
  0
VERTEX
  8
0
 10
386452.903500
 20
803076.158700
  0
VERTEX
  8
0
 10
386453.429900
 20
803076.570100
  0
VERTEX
  8
0
 10
386457.369800
 20
803079.649600
  0
VERTEX
  8
0
 10
386460.000000
 20
803081.705300
  0
VERTEX
  8
0
 10
386461.849300
 20
803083.150700
  0
SEQEND
  0
POLYLINE
  8
0
 62
9
  6
CONTINUOUS
 70
0
 66
1
 10
0.000000
 20
0.000000
  0
VERTEX
  8
0
 10
386400.000000
 20
803068.229000
  0
VERTEX
  8
0
 10
386401.038500
 20
803068.805100
  0
VERTEX
  8
0
 10
386405.443000
 20
803071.256700
  0
VERTEX
  8
0
 10
386409.844200
 20
803073.714900
  0
VERTEX
  8
0
 10
386414.242000
 20
803076.179600
  0
VERTEX
  8
0
 10
386418.636600
 20
803078.651000
  0
VERTEX
  8
0
 10
386423.028000
 20
803081.128900
  0
VERTEX
  8
0
 10
386427.416100
 20
803083.613400
  0
VERTEX
  8
0
 10
386431.800900
 20
803086.104600
  0
VERTEX
  8
0
 10
386436.182500
 20
803088.602400
  0
VERTEX
  8
0
 10
386440.561000
 20
803091.106800
  0
VERTEX
  8
0
 10
386444.936200
 20
803093.617800
  0
VERTEX
  8
0
 10
386449.517800
 20
803095.794800
  0
VERTEX
  8
0
 10
386454.098100
 20
803097.979700
  0
VERTEX
  8
0
 10
386458.317200
 20
803100.000000
  0
SEQEND
  0
POLYLINE
  8
0
 62
1
  6
CONTINUOUS
 70
0
 66
1
 10
0.000000
 20
0.000000
  0
VERTEX
  8
0
 10
386400.000000
 20
803071.059200
  0
VERTEX
  8
0
 10
386404.170800
 20
803073.459800
  0
VERTEX
  8
0
 10
386408.526200
 20
803075.982800
  0
VERTEX
  8
0
 10
386412.874500
 20
803078.517900
  0
VERTEX
  8
0
 10
386417.215800
 20
803081.065000
  0
VERTEX
  8
0
 10
386421.549900
 20
803083.624200
  0
VERTEX
  8
0
 10
386425.877000
 20
803086.195400
  0
VERTEX
  8
0
 10
386430.196900
 20
803088.778600
  0
VERTEX
  8
0
 10
386434.509500
 20
803091.373800
  0
VERTEX
  8
0
 10
386438.815000
 20
803093.981000
  0
VERTEX
  8
0
 10
386443.113200
 20
803096.600100
  0
VERTEX
  8
0
 10
386447.404100
 20
803099.231200
  0
VERTEX
  8
0
 10
386448.650200
 20
803100.000000
  0
SEQEND
  0
POLYLINE
  8
0
 62
9
  6
CONTINUOUS
 70
0
 66
1
 10
0.000000
 20
0.000000
  0
VERTEX
  8
0
 10
386400.000000
 20
803062.511200
  0
VERTEX
  8
0
 10
386403.429400
 20
803064.413500
  0
VERTEX
  8
0
 10
386403.464000
 20
803064.432700
  0
VERTEX
  8
0
 10
386407.840000
 20
803066.868500
  0
VERTEX
  8
0
 10
386407.874800
 20
803066.887900
  0
SEQEND
  0
POLYLINE
  8
0
 62
3
  6
CONTINUOUS
 70
0
 66
1
 10
0.000000
 20
0.000000
  0
VERTEX
  8
0
 10
386400.000000
 20
803068.229000
  0
VERTEX
  8
0
 10
386401.003900
 20
803068.785900
  0
VERTEX
  8
0
 10
386401.038500
 20
803068.805100
  0
VERTEX
  8
0
 10
386405.408200
 20
803071.237300
  0
VERTEX
  8
0
 10
386405.443000
 20
803071.256700
  0
SEQEND
  0
POLYLINE
  8
0
 62
9
  6
CONTINUOUS
 70
0
 66
1
 10
0.000000
 20
0.000000
  0
VERTEX
  8
0
 10
386460.905200
 20
803095.004400
  0
VERTEX
  8
0
 10
386462.718400
 20
803093.922300
  0
VERTEX
  8
0
 10
386464.081300
 20
803092.411200
  0
VERTEX
  8
0
 10
386464.916000
 20
803090.621200
  0
VERTEX
  8
0
 10
386465.198100
 20
803088.708900
  0
VERTEX
  8
0
 10
386464.884900
 20
803086.828800
  0
VERTEX
  8
0
 10
386464.031600
 20
803085.146800
  0
VERTEX
  8
0
 10
386462.897700
 20
803083.988100
  0
SEQEND
  0
POLYLINE
  8
0
 62
9
  6
CONTINUOUS
 70
0
 66
1
 10
0.000000
 20
0.000000
  0
VERTEX
  8
0
 10
386444.482300
 20
803092.905900
  0
VERTEX
  8
0
 10
386449.567200
 20
803093.206100
  0
VERTEX
  8
0
 10
386454.559000
 20
803093.497800
  0
VERTEX
  8
0
 10
386459.052800
 20
803093.748800
  0
SEQEND
  0
POLYLINE
  8
0
 62
1
  6
CONTINUOUS
 70
0
 66
1
 10
0.000000
 20
0.000000
  0
VERTEX
  8
0
 10
386448.650200
 20
803100.000000
  0
VERTEX
  8
0
 10
386451.687700
 20
803101.874100
  0
VERTEX
  8
0
 10
386455.964000
 20
803104.529000
  0
SEQEND
  0
LINE
  8
0
 62
9
 10
386371.190000
 20
803044.634000
 11
386376.457000
 21
803047.507000
  0
LINE
  8
0
 62
9
 10
386458.317200
 20
803100.000000
 11
386458.677100
 21
803100.172300
  0
ENDSEC
  0
EOF
