  0
SECTION
  2
HEADER
  9
$ACADVER
  1
AC1014
  9
$ACADMAINTVER
 70
     9
  9
$DWGCODEPAGE
  3
ANSI_1252
  9
$INSBASE
 10
0.0
 20
0.0
 30
0.0
  9
$EXTMIN
 10
385207.718042
 20
803510.221097
 30
1.0
  9
$EXTMAX
 10
386802.076851
 20
805250.799761
 30
3.0
  9
$LIMMIN
 10
0.0
 20
0.0
  9
$LIMMAX
 10
420.0
 20
297.0
  9
$ORTHOMODE
 70
     0
  9
$REGENMODE
 70
     1
  9
$FILLMODE
 70
     1
  9
$QTEXTMODE
 70
     0
  9
$MIRRTEXT
 70
     1
  9
$DRAGMODE
 70
     2
  9
$LTSCALE
 40
1.0
  9
$OSMODE
 70
    37
  9
$ATTMODE
 70
     1
  9
$TEXTSIZE
 40
2.5
  9
$TRACEWID
 40
1.0
  9
$TEXTSTYLE
  7
STANDARD
  9
$CLAYER
  8
0
  9
$CELTYPE
  6
BYLAYER
  9
$CECOLOR
 62
   256
  9
$CELTSCALE
 40
1.0
  9
$DELOBJ
 70
     1
  9
$DISPSILH
 70
     0
  9
$DIMSCALE
 40
1.0
  9
$DIMASZ
 40
2.5
  9
$DIMEXO
 40
0.625
  9
$DIMDLI
 40
3.75
  9
$DIMRND
 40
0.0
  9
$DIMDLE
 40
0.0
  9
$DIMEXE
 40
1.25
  9
$DIMTP
 40
0.0
  9
$DIMTM
 40
0.0
  9
$DIMTXT
 40
2.5
  9
$DIMCEN
 40
2.5
  9
$DIMTSZ
 40
0.0
  9
$DIMTOL
 70
     0
  9
$DIMLIM
 70
     0
  9
$DIMTIH
 70
     0
  9
$DIMTOH
 70
     0
  9
$DIMSE1
 70
     0
  9
$DIMSE2
 70
     0
  9
$DIMTAD
 70
     1
  9
$DIMZIN
 70
     8
  9
$DIMBLK
  1

  9
$DIMASO
 70
     1
  9
$DIMSHO
 70
     1
  9
$DIMPOST
  1

  9
$DIMAPOST
  1

  9
$DIMALT
 70
     0
  9
$DIMALTD
 70
     3
  9
$DIMALTF
 40
0.03937
  9
$DIMLFAC
 40
1.0
  9
$DIMTOFL
 70
     1
  9
$DIMTVP
 40
0.0
  9
$DIMTIX
 70
     0
  9
$DIMSOXD
 70
     0
  9
$DIMSAH
 70
     0
  9
$DIMBLK1
  1

  9
$DIMBLK2
  1

  9
$DIMSTYLE
  2
ISO-25
  9
$DIMCLRD
 70
     0
  9
$DIMCLRE
 70
     0
  9
$DIMCLRT
 70
     0
  9
$DIMTFAC
 40
1.0
  9
$DIMGAP
 40
0.625
  9
$DIMJUST
 70
     0
  9
$DIMSD1
 70
     0
  9
$DIMSD2
 70
     0
  9
$DIMTOLJ
 70
     0
  9
$DIMTZIN
 70
     8
  9
$DIMALTZ
 70
     0
  9
$DIMALTTZ
 70
     0
  9
$DIMFIT
 70
     3
  9
$DIMUPT
 70
     0
  9
$DIMUNIT
 70
     2
  9
$DIMDEC
 70
     2
  9
$DIMTDEC
 70
     2
  9
$DIMALTU
 70
     2
  9
$DIMALTTD
 70
     3
  9
$DIMTXSTY
  7
STANDARD
  9
$DIMAUNIT
 70
     0
  9
$LUNITS
 70
     2
  9
$LUPREC
 70
     4
  9
$SKETCHINC
 40
1.0
  9
$FILLETRAD
 40
10.0
  9
$AUNITS
 70
     0
  9
$AUPREC
 70
     0
  9
$MENU
  1
.
  9
$ELEVATION
 40
0.0
  9
$PELEVATION
 40
0.0
  9
$THICKNESS
 40
0.0
  9
$LIMCHECK
 70
     0
  9
$CHAMFERA
 40
0.0
  9
$CHAMFERB
 40
0.0
  9
$CHAMFERC
 40
0.0
  9
$CHAMFERD
 40
0.0
  9
$SKPOLY
 70
     0
  9
$TDCREATE
 40
2456409.673938426
  9
$TDUPDATE
 40
2456409.673945914
  9
$TDINDWG
 40
0.0000000116
  9
$TDUSRTIMER
 40
0.0000000116
  9
$USRTIMER
 70
     1
  9
$ANGBASE
 50
0.0
  9
$ANGDIR
 70
     0
  9
$PDMODE
 70
     0
  9
$PDSIZE
 40
0.0
  9
$PLINEWID
 40
0.0
  9
$COORDS
 70
     1
  9
$SPLFRAME
 70
     0
  9
$SPLINETYPE
 70
     6
  9
$SPLINESEGS
 70
     8
  9
$ATTDIA
 70
     0
  9
$ATTREQ
 70
     1
  9
$HANDLING
 70
     1
  9
$HANDSEED
  5
489
  9
$SURFTAB1
 70
     6
  9
$SURFTAB2
 70
     6
  9
$SURFTYPE
 70
     6
  9
$SURFU
 70
     6
  9
$SURFV
 70
     6
  9
$UCSNAME
  2

  9
$UCSORG
 10
0.0
 20
0.0
 30
0.0
  9
$UCSXDIR
 10
1.0
 20
0.0
 30
0.0
  9
$UCSYDIR
 10
0.0
 20
1.0
 30
0.0
  9
$PUCSNAME
  2

  9
$PUCSORG
 10
0.0
 20
0.0
 30
0.0
  9
$PUCSXDIR
 10
1.0
 20
0.0
 30
0.0
  9
$PUCSYDIR
 10
0.0
 20
1.0
 30
0.0
  9
$USERI1
 70
     0
  9
$USERI2
 70
     0
  9
$USERI3
 70
     0
  9
$USERI4
 70
     0
  9
$USERI5
 70
     0
  9
$USERR1
 40
0.0
  9
$USERR2
 40
0.0
  9
$USERR3
 40
0.0
  9
$USERR4
 40
0.0
  9
$USERR5
 40
0.0
  9
$WORLDVIEW
 70
     1
  9
$SHADEDGE
 70
     3
  9
$SHADEDIF
 70
    70
  9
$TILEMODE
 70
     1
  9
$MAXACTVP
 70
    64
  9
$PINSBASE
 10
0.0
 20
0.0
 30
0.0
  9
$PLIMCHECK
 70
     0
  9
$PEXTMIN
 10
1.000000E+20
 20
1.000000E+20
 30
1.000000E+20
  9
$PEXTMAX
 10
-1.000000E+20
 20
-1.000000E+20
 30
-1.000000E+20
  9
$PLIMMIN
 10
0.0
 20
0.0
  9
$PLIMMAX
 10
420.0
 20
297.0
  9
$UNITMODE
 70
     0
  9
$VISRETAIN
 70
     1
  9
$PLINEGEN
 70
     0
  9
$PSLTSCALE
 70
     1
  9
$TREEDEPTH
 70
  3020
  9
$PICKSTYLE
 70
     1
  9
$CMLSTYLE
  2
STANDARD
  9
$CMLJUST
 70
     0
  9
$CMLSCALE
 40
20.0
  9
$PROXYGRAPHICS
 70
     1
  9
$MEASUREMENT
 70
     1
  0
ENDSEC
  0
SECTION
  2
CLASSES
  0
CLASS
  1
ACDBDICTIONARYWDFLT
  2
AcDbDictionaryWithDefault
  3
ObjectDBX Classes
 90
        0
280
     0
281
     0
  0
CLASS
  1
VISUALSTYLE
  2
AcDbVisualStyle
  3
ObjectDBX Classes
 90
     4095
280
     0
281
     0
  0
CLASS
  1
MATERIAL
  2
AcDbMaterial
  3
ObjectDBX Classes
 90
     1153
280
     0
281
     0
  0
CLASS
  1
SCALE
  2
AcDbScale
  3
ObjectDBX Classes
 90
     1153
280
     0
281
     0
  0
CLASS
  1
SUN
  2
AcDbSun
  3
SCENEOE
 90
     1153
280
     0
281
     0
  0
CLASS
  1
DICTIONARYVAR
  2
AcDbDictionaryVar
  3
ObjectDBX Classes
 90
        0
280
     0
281
     0
  0
CLASS
  1
XRECORD
  2
AcDbXrecord
  3
ObjectDBX Classes
 90
        0
280
     0
281
     0
  0
CLASS
  1
LWPOLYLINE
  2
AcDbPolyline
  3
ObjectDBX Classes
 90
        0
280
     0
281
     1
  0
CLASS
  1
HATCH
  2
AcDbHatch
  3
ObjectDBX Classes
 90
        0
280
     0
281
     1
  0
CLASS
  1
ACDBPLACEHOLDER
  2
AcDbPlaceHolder
  3
ObjectDBX Classes
 90
        0
280
     0
281
     0
  0
CLASS
  1
LAYOUT
  2
AcDbLayout
  3
ObjectDBX Classes
 90
        0
280
     0
281
     0
  0
ENDSEC
  0
SECTION
  2
TABLES
  0
TABLE
  2
VPORT
  5
8
330
0
100
AcDbSymbolTable
 70
     1
  0
VPORT
  5
29
330
8
100
AcDbSymbolTableRecord
100
AcDbViewportTableRecord
  2
*ACTIVE
 70
     0
 10
0.0
 20
0.0
 11
1.0
 21
1.0
 12
344.186916
 22
148.5
 13
0.0
 23
0.0
 14
10.0
 24
10.0
 15
10.0
 25
10.0
 16
0.0
 26
0.0
 36
1.0
 17
0.0
 27
0.0
 37
0.0
 40
297.0
 41
1.972973
 42
50.0
 43
0.0
 44
0.0
 50
0.0
 51
0.0
 71
     0
 72
   100
 73
     1
 74
     3
 75
     0
 76
     0
 77
     0
 78
     0
  0
ENDTAB
  0
TABLE
  2
LTYPE
  5
5
330
0
100
AcDbSymbolTable
 70
     1
  0
LTYPE
  5
14
330
5
100
AcDbSymbolTableRecord
100
AcDbLinetypeTableRecord
  2
BYBLOCK
 70
     0
  3

 72
    65
 73
     0
 40
0.0
  0
LTYPE
  5
15
330
5
100
AcDbSymbolTableRecord
100
AcDbLinetypeTableRecord
  2
BYLAYER
 70
     0
  3

 72
    65
 73
     0
 40
0.0
  0
LTYPE
  5
16
330
5
100
AcDbSymbolTableRecord
100
AcDbLinetypeTableRecord
  2
CONTINUOUS
 70
     0
  3
Solid line
 72
    65
 73
     0
 40
0.0
  0
ENDTAB
  0
TABLE
  2
LAYER
  5
2
330
0
100
AcDbSymbolTable
 70
     1
  0
LAYER
  5
10
330
2
100
AcDbSymbolTableRecord
100
AcDbLayerTableRecord
  2
0
 70
     0
 62
     7
  6
CONTINUOUS
  0
ENDTAB
  0
TABLE
  2
STYLE
  5
3
330
0
100
AcDbSymbolTable
 70
     2
  0
STYLE
  5
11
330
3
100
AcDbSymbolTableRecord
100
AcDbTextStyleTableRecord
  2
STANDARD
 70
     0
 40
0.0
 41
1.0
 50
0.0
 71
     0
 42
2.5
  3
txt
  4

  0
STYLE
  5
6C
330
3
100
AcDbSymbolTableRecord
100
AcDbTextStyleTableRecord
  2
ARIAL
 70
     0
 40
0.0
 41
1.0
 50
0.0
 71
     0
 42
2.5
  3

  4

  0
ENDTAB
  0
TABLE
  2
VIEW
  5
6
330
0
100
AcDbSymbolTable
 70
     0
  0
ENDTAB
  0
TABLE
  2
UCS
  5
7
330
0
100
AcDbSymbolTable
 70
     0
  0
ENDTAB
  0
TABLE
  2
APPID
  5
9
330
0
100
AcDbSymbolTable
 70
     3
  0
APPID
  5
12
330
9
100
AcDbSymbolTableRecord
100
AcDbRegAppTableRecord
  2
ACAD
 70
     0
  0
APPID
  5
6A
330
9
100
AcDbSymbolTableRecord
100
AcDbRegAppTableRecord
  2
TRIMBLENAME
 70
     0
  0
APPID
  5
6B
330
9
100
AcDbSymbolTableRecord
100
AcDbRegAppTableRecord
  2
TRIMBLEBNDYTYPE
 70
     0
  0
ENDTAB
  0
TABLE
  2
DIMSTYLE
  5
A
330
0
100
AcDbSymbolTable
 70
     1
  0
DIMSTYLE
105
27
330
A
100
AcDbSymbolTableRecord
100
AcDbDimStyleTableRecord
  2
ISO-25
 70
     0
  3

  4

  5

  6

  7

 40
1.0
 41
2.5
 42
0.625
 43
3.75
 44
1.25
 45
0.0
 46
0.0
 47
0.0
 48
0.0
140
2.5
141
2.5
142
0.0
143
0.03937
144
1.0
145
0.0
146
1.0
147
0.625
 71
     0
 72
     0
 73
     0
 74
     0
 75
     0
 76
     0
 77
     1
 78
     8
170
     0
171
     3
172
     1
173
     0
174
     0
175
     0
176
     0
177
     0
178
     0
270
     2
271
     2
272
     2
273
     2
274
     3
340
11
275
     0
280
     0
281
     0
282
     0
283
     0
284
     8
285
     0
286
     0
287
     3
288
     0
  0
ENDTAB
  0
TABLE
  2
BLOCK_RECORD
  5
1
330
0
100
AcDbSymbolTable
 70
     1
  0
BLOCK_RECORD
  5
1F
330
1
100
AcDbSymbolTableRecord
100
AcDbBlockTableRecord
  2
*MODEL_SPACE
  0
BLOCK_RECORD
  5
1B
330
1
100
AcDbSymbolTableRecord
100
AcDbBlockTableRecord
  2
*PAPER_SPACE
  0
ENDTAB
  0
ENDSEC
  0
SECTION
  2
BLOCKS
  0
BLOCK
  5
20
330
1F
100
AcDbEntity
  8
0
100
AcDbBlockBegin
  2
*MODEL_SPACE
 70
     0
 10
0.0
 20
0.0
 30
0.0
  3
*MODEL_SPACE
  1

  0
ENDBLK
  5
21
330
1F
100
AcDbEntity
  8
0
100
AcDbBlockEnd
  0
BLOCK
  5
1C
330
1B
100
AcDbEntity
 67
     1
  8
0
100
AcDbBlockBegin
  2
*PAPER_SPACE
 70
     0
 10
0.0
 20
0.0
 30
0.0
  3
*PAPER_SPACE
  1

  0
ENDBLK
  5
1D
330
1B
100
AcDbEntity
 67
     1
  8
0
100
AcDbBlockEnd
  0
ENDSEC
  0
SECTION
  2
ENTITIES
  0
POLYLINE
  5
6D
330
1F
100
AcDbEntity
  8
0
100
AcDb3dPolyline
 66
     1
 10
0.0
 20
0.0
 30
0.0
 70
     9
1001
TRIMBLENAME
1000
55 points
  0
VERTEX
  5
6E
330
6D
100
AcDbEntity
  8
0
100
AcDbVertex
100
AcDb3dPolylineVertex
 10
385494.533912
 20
804497.205121
 30
1.0
 70
    32
  0
VERTEX
  5
6F
330
6D
100
AcDbEntity
  8
0
100
AcDbVertex
100
AcDb3dPolylineVertex
 10
385494.533912
 20
804506.919277
 30
1.0
 70
    32
  0
VERTEX
  5
70
330
6D
100
AcDbEntity
  8
0
100
AcDbVertex
100
AcDb3dPolylineVertex
 10
385494.533912
 20
804516.633433
 30
1.0
 70
    32
  0
VERTEX
  5
71
330
6D
100
AcDbEntity
  8
0
100
AcDbVertex
100
AcDb3dPolylineVertex
 10
385494.533912
 20
804526.347589
 30
1.0
 70
    32
  0
VERTEX
  5
72
330
6D
100
AcDbEntity
  8
0
100
AcDbVertex
100
AcDb3dPolylineVertex
 10
385494.533912
 20
804536.061745
 30
1.0
 70
    32
  0
VERTEX
  5
73
330
6D
100
AcDbEntity
  8
0
100
AcDbVertex
100
AcDb3dPolylineVertex
 10
385494.533912
 20
804545.775901
 30
1.0
 70
    32
  0
VERTEX
  5
74
330
6D
100
AcDbEntity
  8
0
100
AcDbVertex
100
AcDb3dPolylineVertex
 10
385494.533912
 20
804555.490057
 30
1.0
 70
    32
  0
VERTEX
  5
75
330
6D
100
AcDbEntity
  8
0
100
AcDbVertex
100
AcDb3dPolylineVertex
 10
385494.533912
 20
804565.204213
 30
1.0
 70
    32
  0
VERTEX
  5
76
330
6D
100
AcDbEntity
  8
0
100
AcDbVertex
100
AcDb3dPolylineVertex
 10
385494.533912
 20
804574.918369
 30
1.0
 70
    32
  0
VERTEX
  5
77
330
6D
100
AcDbEntity
  8
0
100
AcDbVertex
100
AcDb3dPolylineVertex
 10
385494.533912
 20
804584.632524
 30
1.0
 70
    32
  0
VERTEX
  5
78
330
6D
100
AcDbEntity
  8
0
100
AcDbVertex
100
AcDb3dPolylineVertex
 10
385494.533912
 20
804594.34668
 30
1.0
 70
    32
  0
VERTEX
  5
79
330
6D
100
AcDbEntity
  8
0
100
AcDbVertex
100
AcDb3dPolylineVertex
 10
385494.533912
 20
804604.060836
 30
1.0
 70
    32
  0
VERTEX
  5
7A
330
6D
100
AcDbEntity
  8
0
100
AcDbVertex
100
AcDb3dPolylineVertex
 10
385494.533912
 20
804613.774992
 30
1.0
 70
    32
  0
VERTEX
  5
7B
330
6D
100
AcDbEntity
  8
0
100
AcDbVertex
100
AcDb3dPolylineVertex
 10
385494.533912
 20
804623.489148
 30
1.0
 70
    32
  0
VERTEX
  5
7C
330
6D
100
AcDbEntity
  8
0
100
AcDbVertex
100
AcDb3dPolylineVertex
 10
385494.533912
 20
804633.203304
 30
1.0
 70
    32
  0
VERTEX
  5
7D
330
6D
100
AcDbEntity
  8
0
100
AcDbVertex
100
AcDb3dPolylineVertex
 10
385494.533912
 20
804642.91746
 30
1.0
 70
    32
  0
VERTEX
  5
7E
330
6D
100
AcDbEntity
  8
0
100
AcDbVertex
100
AcDb3dPolylineVertex
 10
385494.533912
 20
804652.631616
 30
1.0
 70
    32
  0
VERTEX
  5
7F
330
6D
100
AcDbEntity
  8
0
100
AcDbVertex
100
AcDb3dPolylineVertex
 10
385494.533912
 20
804662.345772
 30
1.0
 70
    32
  0
VERTEX
  5
80
330
6D
100
AcDbEntity
  8
0
100
AcDbVertex
100
AcDb3dPolylineVertex
 10
385494.533912
 20
804663.108419
 30
1.0
 70
    32
  0
VERTEX
  5
81
330
6D
100
AcDbEntity
  8
0
100
AcDbVertex
100
AcDb3dPolylineVertex
 10
385504.174782
 20
804663.710973
 30
1.0
 70
    32
  0
VERTEX
  5
82
330
6D
100
AcDbEntity
  8
0
100
AcDbVertex
100
AcDb3dPolylineVertex
 10
385513.815651
 20
804664.313528
 30
1.0
 70
    32
  0
VERTEX
  5
83
330
6D
100
AcDbEntity
  8
0
100
AcDbVertex
100
AcDb3dPolylineVertex
 10
385523.456521
 20
804664.916082
 30
1.0
 70
    32
  0
VERTEX
  5
84
330
6D
100
AcDbEntity
  8
0
100
AcDbVertex
100
AcDb3dPolylineVertex
 10
385533.097391
 20
804665.518636
 30
1.0
 70
    32
  0
VERTEX
  5
85
330
6D
100
AcDbEntity
  8
0
100
AcDbVertex
100
AcDb3dPolylineVertex
 10
385542.73826
 20
804666.121191
 30
1.0
 70
    32
  0
VERTEX
  5
86
330
6D
100
AcDbEntity
  8
0
100
AcDbVertex
100
AcDb3dPolylineVertex
 10
385552.37913
 20
804666.723745
 30
1.0
 70
    32
  0
VERTEX
  5
87
330
6D
100
AcDbEntity
  8
0
100
AcDbVertex
100
AcDb3dPolylineVertex
 10
385562.019999
 20
804667.326299
 30
1.0
 70
    32
  0
VERTEX
  5
88
330
6D
100
AcDbEntity
  8
0
100
AcDbVertex
100
AcDb3dPolylineVertex
 10
385571.660869
 20
804667.928854
 30
1.0
 70
    32
  0
VERTEX
  5
89
330
6D
100
AcDbEntity
  8
0
100
AcDbVertex
100
AcDb3dPolylineVertex
 10
385581.301739
 20
804668.531408
 30
1.0
 70
    32
  0
VERTEX
  5
8A
330
6D
100
AcDbEntity
  8
0
100
AcDbVertex
100
AcDb3dPolylineVertex
 10
385590.942608
 20
804669.133963
 30
1.0
 70
    32
  0
VERTEX
  5
8B
330
6D
100
AcDbEntity
  8
0
100
AcDbVertex
100
AcDb3dPolylineVertex
 10
385600.583478
 20
804669.736517
 30
1.0
 70
    32
  0
VERTEX
  5
8C
330
6D
100
AcDbEntity
  8
0
100
AcDbVertex
100
AcDb3dPolylineVertex
 10
385610.224347
 20
804670.339071
 30
1.0
 70
    32
  0
VERTEX
  5
8D
330
6D
100
AcDbEntity
  8
0
100
AcDbVertex
100
AcDb3dPolylineVertex
 10
385619.865217
 20
804670.941626
 30
1.0
 70
    32
  0
VERTEX
  5
8E
330
6D
100
AcDbEntity
  8
0
100
AcDbVertex
100
AcDb3dPolylineVertex
 10
385629.506087
 20
804671.54418
 30
1.0
 70
    32
  0
VERTEX
  5
8F
330
6D
100
AcDbEntity
  8
0
100
AcDbVertex
100
AcDb3dPolylineVertex
 10
385629.881009
 20
804681.104709
 30
1.066667
 70
    32
  0
VERTEX
  5
90
330
6D
100
AcDbEntity
  8
0
100
AcDbVertex
100
AcDb3dPolylineVertex
 10
385630.255932
 20
804690.665238
 30
1.133333
 70
    32
  0
VERTEX
  5
91
330
6D
100
AcDbEntity
  8
0
100
AcDbVertex
100
AcDb3dPolylineVertex
 10
385630.630855
 20
804700.225767
 30
1.2
 70
    32
  0
VERTEX
  5
92
330
6D
100
AcDbEntity
  8
0
100
AcDbVertex
100
AcDb3dPolylineVertex
 10
385631.005777
 20
804709.786296
 30
1.266667
 70
    32
  0
VERTEX
  5
93
330
6D
100
AcDbEntity
  8
0
100
AcDbVertex
100
AcDb3dPolylineVertex
 10
385631.3807
 20
804719.346825
 30
1.333333
 70
    32
  0
VERTEX
  5
94
330
6D
100
AcDbEntity
  8
0
100
AcDbVertex
100
AcDb3dPolylineVertex
 10
385631.755623
 20
804728.907354
 30
1.4
 70
    32
  0
VERTEX
  5
95
330
6D
100
AcDbEntity
  8
0
100
AcDbVertex
100
AcDb3dPolylineVertex
 10
385632.130546
 20
804738.467883
 30
1.466667
 70
    32
  0
VERTEX
  5
96
330
6D
100
AcDbEntity
  8
0
100
AcDbVertex
100
AcDb3dPolylineVertex
 10
385632.505468
 20
804748.028412
 30
1.533333
 70
    32
  0
VERTEX
  5
97
330
6D
100
AcDbEntity
  8
0
100
AcDbVertex
100
AcDb3dPolylineVertex
 10
385632.880391
 20
804757.588941
 30
1.6
 70
    32
  0
VERTEX
  5
98
330
6D
100
AcDbEntity
  8
0
100
AcDbVertex
100
AcDb3dPolylineVertex
 10
385633.255314
 20
804767.14947
 30
1.666667
 70
    32
  0
VERTEX
  5
99
330
6D
100
AcDbEntity
  8
0
100
AcDbVertex
100
AcDb3dPolylineVertex
 10
385633.630236
 20
804776.709999
 30
1.733333
 70
    32
  0
VERTEX
  5
9A
330
6D
100
AcDbEntity
  8
0
100
AcDbVertex
100
AcDb3dPolylineVertex
 10
385634.005159
 20
804786.270528
 30
1.8
 70
    32
  0
VERTEX
  5
9B
330
6D
100
AcDbEntity
  8
0
100
AcDbVertex
100
AcDb3dPolylineVertex
 10
385634.380082
 20
804795.831057
 30
1.866667
 70
    32
  0
VERTEX
  5
9C
330
6D
100
AcDbEntity
  8
0
100
AcDbVertex
100
AcDb3dPolylineVertex
 10
385634.755004
 20
804805.391586
 30
1.933333
 70
    32
  0
VERTEX
  5
9D
330
6D
100
AcDbEntity
  8
0
100
AcDbVertex
100
AcDb3dPolylineVertex
 10
385635.129927
 20
804814.952115
 30
2.0
 70
    32
  0
VERTEX
  5
9E
330
6D
100
AcDbEntity
  8
0
100
AcDbVertex
100
AcDb3dPolylineVertex
 10
385644.770797
 20
804814.148709
 30
2.071429
 70
    32
  0
VERTEX
  5
9F
330
6D
100
AcDbEntity
  8
0
100
AcDbVertex
100
AcDb3dPolylineVertex
 10
385654.411666
 20
804813.345304
 30
2.142857
 70
    32
  0
VERTEX
  5
A0
330
6D
100
AcDbEntity
  8
0
100
AcDbVertex
100
AcDb3dPolylineVertex
 10
385664.052536
 20
804812.541898
 30
2.214286
 70
    32
  0
VERTEX
  5
A1
330
6D
100
AcDbEntity
  8
0
100
AcDbVertex
100
AcDb3dPolylineVertex
 10
385673.693406
 20
804811.738492
 30
2.285714
 70
    32
  0
VERTEX
  5
A2
330
6D
100
AcDbEntity
  8
0
100
AcDbVertex
100
AcDb3dPolylineVertex
 10
385683.334275
 20
804810.935086
 30
2.357143
 70
    32
  0
VERTEX
  5
A3
330
6D
100
AcDbEntity
  8
0
100
AcDbVertex
100
AcDb3dPolylineVertex
 10
385692.975145
 20
804810.13168
 30
2.428571
 70
    32
  0
VERTEX
  5
A4
330
6D
100
AcDbEntity
  8
0
100
AcDbVertex
100
AcDb3dPolylineVertex
 10
385702.616014
 20
804809.328275
 30
2.5
 70
    32
  0
VERTEX
  5
A5
330
6D
100
AcDbEntity
  8
0
100
AcDbVertex
100
AcDb3dPolylineVertex
 10
385712.256884
 20
804808.524869
 30
2.571429
 70
    32
  0
VERTEX
  5
A6
330
6D
100
AcDbEntity
  8
0
100
AcDbVertex
100
AcDb3dPolylineVertex
 10
385721.897754
 20
804807.721463
 30
2.642857
 70
    32
  0
VERTEX
  5
A7
330
6D
100
AcDbEntity
  8
0
100
AcDbVertex
100
AcDb3dPolylineVertex
 10
385731.538623
 20
804806.918057
 30
2.714286
 70
    32
  0
VERTEX
  5
A8
330
6D
100
AcDbEntity
  8
0
100
AcDbVertex
100
AcDb3dPolylineVertex
 10
385741.179493
 20
804806.114651
 30
2.785714
 70
    32
  0
VERTEX
  5
A9
330
6D
100
AcDbEntity
  8
0
100
AcDbVertex
100
AcDb3dPolylineVertex
 10
385750.820362
 20
804805.311246
 30
2.857143
 70
    32
  0
VERTEX
  5
AA
330
6D
100
AcDbEntity
  8
0
100
AcDbVertex
100
AcDb3dPolylineVertex
 10
385760.461232
 20
804804.50784
 30
2.928571
 70
    32
  0
VERTEX
  5
AB
330
6D
100
AcDbEntity
  8
0
100
AcDbVertex
100
AcDb3dPolylineVertex
 10
385770.102102
 20
804803.704434
 30
3.0
 70
    32
  0
VERTEX
  5
AC
330
6D
100
AcDbEntity
  8
0
100
AcDbVertex
100
AcDb3dPolylineVertex
 10
385771.820497
 20
804813.233719
 30
2.99788
 70
    32
  0
VERTEX
  5
AD
330
6D
100
AcDbEntity
  8
0
100
AcDbVertex
100
AcDb3dPolylineVertex
 10
385773.538893
 20
804822.763005
 30
2.99576
 70
    32
  0
VERTEX
  5
AE
330
6D
100
AcDbEntity
  8
0
100
AcDbVertex
100
AcDb3dPolylineVertex
 10
385775.257289
 20
804832.29229
 30
2.99364
 70
    32
  0
VERTEX
  5
AF
330
6D
100
AcDbEntity
  8
0
100
AcDbVertex
100
AcDb3dPolylineVertex
 10
385776.975684
 20
804841.821576
 30
2.991521
 70
    32
  0
VERTEX
  5
B0
330
6D
100
AcDbEntity
  8
0
100
AcDbVertex
100
AcDb3dPolylineVertex
 10
385778.69408
 20
804851.350861
 30
2.989401
 70
    32
  0
VERTEX
  5
B1
330
6D
100
AcDbEntity
  8
0
100
AcDbVertex
100
AcDb3dPolylineVertex
 10
385780.412476
 20
804860.880147
 30
2.987281
 70
    32
  0
VERTEX
  5
B2
330
6D
100
AcDbEntity
  8
0
100
AcDbVertex
100
AcDb3dPolylineVertex
 10
385782.130872
 20
804870.409432
 30
2.985161
 70
    32
  0
VERTEX
  5
B3
330
6D
100
AcDbEntity
  8
0
100
AcDbVertex
100
AcDb3dPolylineVertex
 10
385783.849267
 20
804879.938718
 30
2.983041
 70
    32
  0
VERTEX
  5
B4
330
6D
100
AcDbEntity
  8
0
100
AcDbVertex
100
AcDb3dPolylineVertex
 10
385785.567663
 20
804889.468003
 30
2.980921
 70
    32
  0
VERTEX
  5
B5
330
6D
100
AcDbEntity
  8
0
100
AcDbVertex
100
AcDb3dPolylineVertex
 10
385787.286059
 20
804898.997289
 30
2.978801
 70
    32
  0
VERTEX
  5
B6
330
6D
100
AcDbEntity
  8
0
100
AcDbVertex
100
AcDb3dPolylineVertex
 10
385789.004455
 20
804908.526574
 30
2.976681
 70
    32
  0
VERTEX
  5
B7
330
6D
100
AcDbEntity
  8
0
100
AcDbVertex
100
AcDb3dPolylineVertex
 10
385790.72285
 20
804918.055859
 30
2.974562
 70
    32
  0
VERTEX
  5
B8
330
6D
100
AcDbEntity
  8
0
100
AcDbVertex
100
AcDb3dPolylineVertex
 10
385792.441246
 20
804927.585145
 30
2.972442
 70
    32
  0
VERTEX
  5
B9
330
6D
100
AcDbEntity
  8
0
100
AcDbVertex
100
AcDb3dPolylineVertex
 10
385794.159642
 20
804937.11443
 30
2.970322
 70
    32
  0
VERTEX
  5
BA
330
6D
100
AcDbEntity
  8
0
100
AcDbVertex
100
AcDb3dPolylineVertex
 10
385795.878038
 20
804946.643716
 30
2.968202
 70
    32
  0
VERTEX
  5
BB
330
6D
100
AcDbEntity
  8
0
100
AcDbVertex
100
AcDb3dPolylineVertex
 10
385797.596433
 20
804956.173001
 30
2.966082
 70
    32
  0
VERTEX
  5
BC
330
6D
100
AcDbEntity
  8
0
100
AcDbVertex
100
AcDb3dPolylineVertex
 10
385799.314829
 20
804965.702287
 30
2.963962
 70
    32
  0
VERTEX
  5
BD
330
6D
100
AcDbEntity
  8
0
100
AcDbVertex
100
AcDb3dPolylineVertex
 10
385801.033225
 20
804975.231572
 30
2.961842
 70
    32
  0
VERTEX
  5
BE
330
6D
100
AcDbEntity
  8
0
100
AcDbVertex
100
AcDb3dPolylineVertex
 10
385810.523456
 20
804975.055827
 30
2.959764
 70
    32
  0
VERTEX
  5
BF
330
6D
100
AcDbEntity
  8
0
100
AcDbVertex
100
AcDb3dPolylineVertex
 10
385820.013687
 20
804974.880082
 30
2.957686
 70
    32
  0
VERTEX
  5
C0
330
6D
100
AcDbEntity
  8
0
100
AcDbVertex
100
AcDb3dPolylineVertex
 10
385829.503918
 20
804974.704337
 30
2.955608
 70
    32
  0
VERTEX
  5
C1
330
6D
100
AcDbEntity
  8
0
100
AcDbVertex
100
AcDb3dPolylineVertex
 10
385838.994149
 20
804974.528592
 30
2.95353
 70
    32
  0
VERTEX
  5
C2
330
6D
100
AcDbEntity
  8
0
100
AcDbVertex
100
AcDb3dPolylineVertex
 10
385848.48438
 20
804974.352847
 30
2.951452
 70
    32
  0
VERTEX
  5
C3
330
6D
100
AcDbEntity
  8
0
100
AcDbVertex
100
AcDb3dPolylineVertex
 10
385857.974611
 20
804974.177102
 30
2.949374
 70
    32
  0
VERTEX
  5
C4
330
6D
100
AcDbEntity
  8
0
100
AcDbVertex
100
AcDb3dPolylineVertex
 10
385867.464842
 20
804974.001357
 30
2.947296
 70
    32
  0
VERTEX
  5
C5
330
6D
100
AcDbEntity
  8
0
100
AcDbVertex
100
AcDb3dPolylineVertex
 10
385876.955073
 20
804973.825612
 30
2.945218
 70
    32
  0
VERTEX
  5
C6
330
6D
100
AcDbEntity
  8
0
100
AcDbVertex
100
AcDb3dPolylineVertex
 10
385886.445304
 20
804973.649867
 30
2.94314
 70
    32
  0
VERTEX
  5
C7
330
6D
100
AcDbEntity
  8
0
100
AcDbVertex
100
AcDb3dPolylineVertex
 10
385895.935535
 20
804973.474122
 30
2.941062
 70
    32
  0
VERTEX
  5
C8
330
6D
100
AcDbEntity
  8
0
100
AcDbVertex
100
AcDb3dPolylineVertex
 10
385905.425766
 20
804973.298377
 30
2.938984
 70
    32
  0
VERTEX
  5
C9
330
6D
100
AcDbEntity
  8
0
100
AcDbVertex
100
AcDb3dPolylineVertex
 10
385914.915997
 20
804973.122632
 30
2.936906
 70
    32
  0
VERTEX
  5
CA
330
6D
100
AcDbEntity
  8
0
100
AcDbVertex
100
AcDb3dPolylineVertex
 10
385924.406228
 20
804972.946887
 30
2.934828
 70
    32
  0
VERTEX
  5
CB
330
6D
100
AcDbEntity
  8
0
100
AcDbVertex
100
AcDb3dPolylineVertex
 10
385933.896459
 20
804972.771142
 30
2.93275
 70
    32
  0
VERTEX
  5
CC
330
6D
100
AcDbEntity
  8
0
100
AcDbVertex
100
AcDb3dPolylineVertex
 10
385943.38669
 20
804972.595397
 30
2.930672
 70
    32
  0
VERTEX
  5
CD
330
6D
100
AcDbEntity
  8
0
100
AcDbVertex
100
AcDb3dPolylineVertex
 10
385952.876921
 20
804972.419652
 30
2.928594
 70
    32
  0
VERTEX
  5
CE
330
6D
100
AcDbEntity
  8
0
100
AcDbVertex
100
AcDb3dPolylineVertex
 10
385953.251844
 20
804981.980181
 30
2.926499
 70
    32
  0
VERTEX
  5
CF
330
6D
100
AcDbEntity
  8
0
100
AcDbVertex
100
AcDb3dPolylineVertex
 10
385953.626766
 20
804991.54071
 30
2.924405
 70
    32
  0
VERTEX
  5
D0
330
6D
100
AcDbEntity
  8
0
100
AcDbVertex
100
AcDb3dPolylineVertex
 10
385954.001689
 20
805001.101239
 30
2.92231
 70
    32
  0
VERTEX
  5
D1
330
6D
100
AcDbEntity
  8
0
100
AcDbVertex
100
AcDb3dPolylineVertex
 10
385954.376612
 20
805010.661768
 30
2.920215
 70
    32
  0
VERTEX
  5
D2
330
6D
100
AcDbEntity
  8
0
100
AcDbVertex
100
AcDb3dPolylineVertex
 10
385954.751534
 20
805020.222297
 30
2.918121
 70
    32
  0
VERTEX
  5
D3
330
6D
100
AcDbEntity
  8
0
100
AcDbVertex
100
AcDb3dPolylineVertex
 10
385955.126457
 20
805029.782826
 30
2.916026
 70
    32
  0
VERTEX
  5
D4
330
6D
100
AcDbEntity
  8
0
100
AcDbVertex
100
AcDb3dPolylineVertex
 10
385955.50138
 20
805039.343355
 30
2.913931
 70
    32
  0
VERTEX
  5
D5
330
6D
100
AcDbEntity
  8
0
100
AcDbVertex
100
AcDb3dPolylineVertex
 10
385955.876303
 20
805048.903884
 30
2.911837
 70
    32
  0
VERTEX
  5
D6
330
6D
100
AcDbEntity
  8
0
100
AcDbVertex
100
AcDb3dPolylineVertex
 10
385956.251225
 20
805058.464413
 30
2.909742
 70
    32
  0
VERTEX
  5
D7
330
6D
100
AcDbEntity
  8
0
100
AcDbVertex
100
AcDb3dPolylineVertex
 10
385956.626148
 20
805068.024942
 30
2.907647
 70
    32
  0
VERTEX
  5
D8
330
6D
100
AcDbEntity
  8
0
100
AcDbVertex
100
AcDb3dPolylineVertex
 10
385957.001071
 20
805077.585471
 30
2.905553
 70
    32
  0
VERTEX
  5
D9
330
6D
100
AcDbEntity
  8
0
100
AcDbVertex
100
AcDb3dPolylineVertex
 10
385957.375993
 20
805087.146
 30
2.903458
 70
    32
  0
VERTEX
  5
DA
330
6D
100
AcDbEntity
  8
0
100
AcDbVertex
100
AcDb3dPolylineVertex
 10
385957.750916
 20
805096.706529
 30
2.901363
 70
    32
  0
VERTEX
  5
DB
330
6D
100
AcDbEntity
  8
0
100
AcDbVertex
100
AcDb3dPolylineVertex
 10
385958.125839
 20
805106.267058
 30
2.899269
 70
    32
  0
VERTEX
  5
DC
330
6D
100
AcDbEntity
  8
0
100
AcDbVertex
100
AcDb3dPolylineVertex
 10
385958.500761
 20
805115.827587
 30
2.897174
 70
    32
  0
VERTEX
  5
DD
330
6D
100
AcDbEntity
  8
0
100
AcDbVertex
100
AcDb3dPolylineVertex
 10
385967.873829
 20
805115.827587
 30
2.895122
 70
    32
  0
VERTEX
  5
DE
330
6D
100
AcDbEntity
  8
0
100
AcDbVertex
100
AcDb3dPolylineVertex
 10
385977.246897
 20
805115.827587
 30
2.89307
 70
    32
  0
VERTEX
  5
DF
330
6D
100
AcDbEntity
  8
0
100
AcDbVertex
100
AcDb3dPolylineVertex
 10
385986.619964
 20
805115.827587
 30
2.891018
 70
    32
  0
VERTEX
  5
E0
330
6D
100
AcDbEntity
  8
0
100
AcDbVertex
100
AcDb3dPolylineVertex
 10
385995.993032
 20
805115.827587
 30
2.888966
 70
    32
  0
VERTEX
  5
E1
330
6D
100
AcDbEntity
  8
0
100
AcDbVertex
100
AcDb3dPolylineVertex
 10
386005.3661
 20
805115.827587
 30
2.886914
 70
    32
  0
VERTEX
  5
E2
330
6D
100
AcDbEntity
  8
0
100
AcDbVertex
100
AcDb3dPolylineVertex
 10
386014.739167
 20
805115.827587
 30
2.884862
 70
    32
  0
VERTEX
  5
E3
330
6D
100
AcDbEntity
  8
0
100
AcDbVertex
100
AcDb3dPolylineVertex
 10
386024.112235
 20
805115.827587
 30
2.88281
 70
    32
  0
VERTEX
  5
E4
330
6D
100
AcDbEntity
  8
0
100
AcDbVertex
100
AcDb3dPolylineVertex
 10
386033.485303
 20
805115.827587
 30
2.880758
 70
    32
  0
VERTEX
  5
E5
330
6D
100
AcDbEntity
  8
0
100
AcDbVertex
100
AcDb3dPolylineVertex
 10
386042.85837
 20
805115.827587
 30
2.878706
 70
    32
  0
VERTEX
  5
E6
330
6D
100
AcDbEntity
  8
0
100
AcDbVertex
100
AcDb3dPolylineVertex
 10
386052.231438
 20
805115.827587
 30
2.876654
 70
    32
  0
VERTEX
  5
E7
330
6D
100
AcDbEntity
  8
0
100
AcDbVertex
100
AcDb3dPolylineVertex
 10
386061.604506
 20
805115.827587
 30
2.874602
 70
    32
  0
VERTEX
  5
E8
330
6D
100
AcDbEntity
  8
0
100
AcDbVertex
100
AcDb3dPolylineVertex
 10
386070.977573
 20
805115.827587
 30
2.87255
 70
    32
  0
VERTEX
  5
E9
330
6D
100
AcDbEntity
  8
0
100
AcDbVertex
100
AcDb3dPolylineVertex
 10
386072.785236
 20
805125.468457
 30
2.870402
 70
    32
  0
VERTEX
  5
EA
330
6D
100
AcDbEntity
  8
0
100
AcDbVertex
100
AcDb3dPolylineVertex
 10
386074.5929
 20
805135.109326
 30
2.868255
 70
    32
  0
VERTEX
  5
EB
330
6D
100
AcDbEntity
  8
0
100
AcDbVertex
100
AcDb3dPolylineVertex
 10
386076.400563
 20
805144.750196
 30
2.866108
 70
    32
  0
VERTEX
  5
EC
330
6D
100
AcDbEntity
  8
0
100
AcDbVertex
100
AcDb3dPolylineVertex
 10
386078.208226
 20
805154.391065
 30
2.86396
 70
    32
  0
VERTEX
  5
ED
330
6D
100
AcDbEntity
  8
0
100
AcDbVertex
100
AcDb3dPolylineVertex
 10
386080.015889
 20
805164.031935
 30
2.861813
 70
    32
  0
VERTEX
  5
EE
330
6D
100
AcDbEntity
  8
0
100
AcDbVertex
100
AcDb3dPolylineVertex
 10
386081.823552
 20
805173.672805
 30
2.859665
 70
    32
  0
VERTEX
  5
EF
330
6D
100
AcDbEntity
  8
0
100
AcDbVertex
100
AcDb3dPolylineVertex
 10
386083.631215
 20
805183.313674
 30
2.857518
 70
    32
  0
VERTEX
  5
F0
330
6D
100
AcDbEntity
  8
0
100
AcDbVertex
100
AcDb3dPolylineVertex
 10
386085.438878
 20
805192.954544
 30
2.85537
 70
    32
  0
VERTEX
  5
F1
330
6D
100
AcDbEntity
  8
0
100
AcDbVertex
100
AcDb3dPolylineVertex
 10
386087.246541
 20
805202.595413
 30
2.853223
 70
    32
  0
VERTEX
  5
F2
330
6D
100
AcDbEntity
  8
0
100
AcDbVertex
100
AcDb3dPolylineVertex
 10
386089.054204
 20
805212.236283
 30
2.851076
 70
    32
  0
VERTEX
  5
F3
330
6D
100
AcDbEntity
  8
0
100
AcDbVertex
100
AcDb3dPolylineVertex
 10
386090.861867
 20
805221.877153
 30
2.848928
 70
    32
  0
VERTEX
  5
F4
330
6D
100
AcDbEntity
  8
0
100
AcDbVertex
100
AcDb3dPolylineVertex
 10
386092.66953
 20
805231.518022
 30
2.846781
 70
    32
  0
VERTEX
  5
F5
330
6D
100
AcDbEntity
  8
0
100
AcDbVertex
100
AcDb3dPolylineVertex
 10
386094.477193
 20
805241.158892
 30
2.844633
 70
    32
  0
VERTEX
  5
F6
330
6D
100
AcDbEntity
  8
0
100
AcDbVertex
100
AcDb3dPolylineVertex
 10
386096.284856
 20
805250.799761
 30
2.842486
 70
    32
  0
VERTEX
  5
F7
330
6D
100
AcDbEntity
  8
0
100
AcDbVertex
100
AcDb3dPolylineVertex
 10
386105.950832
 20
805250.272526
 30
2.840367
 70
    32
  0
VERTEX
  5
F8
330
6D
100
AcDbEntity
  8
0
100
AcDbVertex
100
AcDb3dPolylineVertex
 10
386115.616808
 20
805249.745291
 30
2.838247
 70
    32
  0
VERTEX
  5
F9
330
6D
100
AcDbEntity
  8
0
100
AcDbVertex
100
AcDb3dPolylineVertex
 10
386125.282784
 20
805249.218056
 30
2.836128
 70
    32
  0
VERTEX
  5
FA
330
6D
100
AcDbEntity
  8
0
100
AcDbVertex
100
AcDb3dPolylineVertex
 10
386134.94876
 20
805248.690821
 30
2.834009
 70
    32
  0
VERTEX
  5
FB
330
6D
100
AcDbEntity
  8
0
100
AcDbVertex
100
AcDb3dPolylineVertex
 10
386144.614736
 20
805248.163586
 30
2.831889
 70
    32
  0
VERTEX
  5
FC
330
6D
100
AcDbEntity
  8
0
100
AcDbVertex
100
AcDb3dPolylineVertex
 10
386154.280712
 20
805247.636351
 30
2.82977
 70
    32
  0
VERTEX
  5
FD
330
6D
100
AcDbEntity
  8
0
100
AcDbVertex
100
AcDb3dPolylineVertex
 10
386163.946688
 20
805247.109116
 30
2.827651
 70
    32
  0
VERTEX
  5
FE
330
6D
100
AcDbEntity
  8
0
100
AcDbVertex
100
AcDb3dPolylineVertex
 10
386173.612664
 20
805246.581881
 30
2.825532
 70
    32
  0
VERTEX
  5
FF
330
6D
100
AcDbEntity
  8
0
100
AcDbVertex
100
AcDb3dPolylineVertex
 10
386183.27864
 20
805246.054646
 30
2.823412
 70
    32
  0
VERTEX
  5
100
330
6D
100
AcDbEntity
  8
0
100
AcDbVertex
100
AcDb3dPolylineVertex
 10
386192.944616
 20
805245.527411
 30
2.821293
 70
    32
  0
VERTEX
  5
101
330
6D
100
AcDbEntity
  8
0
100
AcDbVertex
100
AcDb3dPolylineVertex
 10
386202.610592
 20
805245.000176
 30
2.819174
 70
    32
  0
VERTEX
  5
102
330
6D
100
AcDbEntity
  8
0
100
AcDbVertex
100
AcDb3dPolylineVertex
 10
386212.276568
 20
805244.472941
 30
2.817054
 70
    32
  0
VERTEX
  5
103
330
6D
100
AcDbEntity
  8
0
100
AcDbVertex
100
AcDb3dPolylineVertex
 10
386221.942544
 20
805243.945706
 30
2.814935
 70
    32
  0
VERTEX
  5
104
330
6D
100
AcDbEntity
  8
0
100
AcDbVertex
100
AcDb3dPolylineVertex
 10
386231.60852
 20
805243.418471
 30
2.812816
 70
    32
  0
VERTEX
  5
105
330
6D
100
AcDbEntity
  8
0
100
AcDbVertex
100
AcDb3dPolylineVertex
 10
386241.274496
 20
805242.891236
 30
2.810697
 70
    32
  0
VERTEX
  5
106
330
6D
100
AcDbEntity
  8
0
100
AcDbVertex
100
AcDb3dPolylineVertex
 10
386250.940472
 20
805242.364
 30
2.808577
 70
    32
  0
VERTEX
  5
107
330
6D
100
AcDbEntity
  8
0
100
AcDbVertex
100
AcDb3dPolylineVertex
 10
386251.156774
 20
805233.063033
 30
2.80654
 70
    32
  0
VERTEX
  5
108
330
6D
100
AcDbEntity
  8
0
100
AcDbVertex
100
AcDb3dPolylineVertex
 10
386251.373076
 20
805223.762066
 30
2.804504
 70
    32
  0
VERTEX
  5
109
330
6D
100
AcDbEntity
  8
0
100
AcDbVertex
100
AcDb3dPolylineVertex
 10
386251.589377
 20
805214.461099
 30
2.802467
 70
    32
  0
VERTEX
  5
10A
330
6D
100
AcDbEntity
  8
0
100
AcDbVertex
100
AcDb3dPolylineVertex
 10
386251.805679
 20
805205.160132
 30
2.80043
 70
    32
  0
VERTEX
  5
10B
330
6D
100
AcDbEntity
  8
0
100
AcDbVertex
100
AcDb3dPolylineVertex
 10
386252.02198
 20
805195.859165
 30
2.798393
 70
    32
  0
VERTEX
  5
10C
330
6D
100
AcDbEntity
  8
0
100
AcDbVertex
100
AcDb3dPolylineVertex
 10
386252.238282
 20
805186.558198
 30
2.796357
 70
    32
  0
VERTEX
  5
10D
330
6D
100
AcDbEntity
  8
0
100
AcDbVertex
100
AcDb3dPolylineVertex
 10
386252.454583
 20
805177.25723
 30
2.79432
 70
    32
  0
VERTEX
  5
10E
330
6D
100
AcDbEntity
  8
0
100
AcDbVertex
100
AcDb3dPolylineVertex
 10
386252.670885
 20
805167.956263
 30
2.792283
 70
    32
  0
VERTEX
  5
10F
330
6D
100
AcDbEntity
  8
0
100
AcDbVertex
100
AcDb3dPolylineVertex
 10
386252.887187
 20
805158.655296
 30
2.790246
 70
    32
  0
VERTEX
  5
110
330
6D
100
AcDbEntity
  8
0
100
AcDbVertex
100
AcDb3dPolylineVertex
 10
386253.103488
 20
805149.354329
 30
2.788209
 70
    32
  0
VERTEX
  5
111
330
6D
100
AcDbEntity
  8
0
100
AcDbVertex
100
AcDb3dPolylineVertex
 10
386253.31979
 20
805140.053362
 30
2.786173
 70
    32
  0
VERTEX
  5
112
330
6D
100
AcDbEntity
  8
0
100
AcDbVertex
100
AcDb3dPolylineVertex
 10
386253.536091
 20
805130.752395
 30
2.784136
 70
    32
  0
VERTEX
  5
113
330
6D
100
AcDbEntity
  8
0
100
AcDbVertex
100
AcDb3dPolylineVertex
 10
386253.752393
 20
805121.451428
 30
2.782099
 70
    32
  0
VERTEX
  5
114
330
6D
100
AcDbEntity
  8
0
100
AcDbVertex
100
AcDb3dPolylineVertex
 10
386263.594114
 20
805120.924193
 30
2.779941
 70
    32
  0
VERTEX
  5
115
330
6D
100
AcDbEntity
  8
0
100
AcDbVertex
100
AcDb3dPolylineVertex
 10
386273.435835
 20
805120.396958
 30
2.777784
 70
    32
  0
VERTEX
  5
116
330
6D
100
AcDbEntity
  8
0
100
AcDbVertex
100
AcDb3dPolylineVertex
 10
386283.277556
 20
805119.869722
 30
2.775626
 70
    32
  0
VERTEX
  5
117
330
6D
100
AcDbEntity
  8
0
100
AcDbVertex
100
AcDb3dPolylineVertex
 10
386293.119277
 20
805119.342487
 30
2.773468
 70
    32
  0
VERTEX
  5
118
330
6D
100
AcDbEntity
  8
0
100
AcDbVertex
100
AcDb3dPolylineVertex
 10
386302.960998
 20
805118.815252
 30
2.771311
 70
    32
  0
VERTEX
  5
119
330
6D
100
AcDbEntity
  8
0
100
AcDbVertex
100
AcDb3dPolylineVertex
 10
386312.802719
 20
805118.288017
 30
2.769153
 70
    32
  0
VERTEX
  5
11A
330
6D
100
AcDbEntity
  8
0
100
AcDbVertex
100
AcDb3dPolylineVertex
 10
386322.64444
 20
805117.760782
 30
2.766995
 70
    32
  0
VERTEX
  5
11B
330
6D
100
AcDbEntity
  8
0
100
AcDbVertex
100
AcDb3dPolylineVertex
 10
386332.486161
 20
805117.233547
 30
2.764837
 70
    32
  0
VERTEX
  5
11C
330
6D
100
AcDbEntity
  8
0
100
AcDbVertex
100
AcDb3dPolylineVertex
 10
386342.327882
 20
805116.706312
 30
2.76268
 70
    32
  0
VERTEX
  5
11D
330
6D
100
AcDbEntity
  8
0
100
AcDbVertex
100
AcDb3dPolylineVertex
 10
386352.169603
 20
805116.179077
 30
2.760522
 70
    32
  0
VERTEX
  5
11E
330
6D
100
AcDbEntity
  8
0
100
AcDbVertex
100
AcDb3dPolylineVertex
 10
386362.011324
 20
805115.651842
 30
2.758364
 70
    32
  0
VERTEX
  5
11F
330
6D
100
AcDbEntity
  8
0
100
AcDbVertex
100
AcDb3dPolylineVertex
 10
386371.853045
 20
805115.124607
 30
2.756207
 70
    32
  0
VERTEX
  5
120
330
6D
100
AcDbEntity
  8
0
100
AcDbVertex
100
AcDb3dPolylineVertex
 10
386381.694766
 20
805114.597372
 30
2.754049
 70
    32
  0
VERTEX
  5
121
330
6D
100
AcDbEntity
  8
0
100
AcDbVertex
100
AcDb3dPolylineVertex
 10
386391.536487
 20
805114.070137
 30
2.751891
 70
    32
  0
VERTEX
  5
122
330
6D
100
AcDbEntity
  8
0
100
AcDbVertex
100
AcDb3dPolylineVertex
 10
386401.378208
 20
805113.542902
 30
2.749733
 70
    32
  0
VERTEX
  5
123
330
6D
100
AcDbEntity
  8
0
100
AcDbVertex
100
AcDb3dPolylineVertex
 10
386411.219929
 20
805113.015667
 30
2.747576
 70
    32
  0
VERTEX
  5
124
330
6D
100
AcDbEntity
  8
0
100
AcDbVertex
100
AcDb3dPolylineVertex
 10
386411.003628
 20
805103.065795
 30
2.745397
 70
    32
  0
VERTEX
  5
125
330
6D
100
AcDbEntity
  8
0
100
AcDbVertex
100
AcDb3dPolylineVertex
 10
386410.787326
 20
805093.115923
 30
2.743218
 70
    32
  0
VERTEX
  5
126
330
6D
100
AcDbEntity
  8
0
100
AcDbVertex
100
AcDb3dPolylineVertex
 10
386410.571025
 20
805083.166051
 30
2.741039
 70
    32
  0
VERTEX
  5
127
330
6D
100
AcDbEntity
  8
0
100
AcDbVertex
100
AcDb3dPolylineVertex
 10
386410.354723
 20
805073.216179
 30
2.738861
 70
    32
  0
VERTEX
  5
128
330
6D
100
AcDbEntity
  8
0
100
AcDbVertex
100
AcDb3dPolylineVertex
 10
386410.138422
 20
805063.266308
 30
2.736682
 70
    32
  0
VERTEX
  5
129
330
6D
100
AcDbEntity
  8
0
100
AcDbVertex
100
AcDb3dPolylineVertex
 10
386409.92212
 20
805053.316436
 30
2.734503
 70
    32
  0
VERTEX
  5
12A
330
6D
100
AcDbEntity
  8
0
100
AcDbVertex
100
AcDb3dPolylineVertex
 10
386409.705819
 20
805043.366564
 30
2.732324
 70
    32
  0
VERTEX
  5
12B
330
6D
100
AcDbEntity
  8
0
100
AcDbVertex
100
AcDb3dPolylineVertex
 10
386409.489517
 20
805033.416692
 30
2.730145
 70
    32
  0
VERTEX
  5
12C
330
6D
100
AcDbEntity
  8
0
100
AcDbVertex
100
AcDb3dPolylineVertex
 10
386409.273215
 20
805023.46682
 30
2.727966
 70
    32
  0
VERTEX
  5
12D
330
6D
100
AcDbEntity
  8
0
100
AcDbVertex
100
AcDb3dPolylineVertex
 10
386409.056914
 20
805013.516949
 30
2.725788
 70
    32
  0
VERTEX
  5
12E
330
6D
100
AcDbEntity
  8
0
100
AcDbVertex
100
AcDb3dPolylineVertex
 10
386408.840612
 20
805003.567077
 30
2.723609
 70
    32
  0
VERTEX
  5
12F
330
6D
100
AcDbEntity
  8
0
100
AcDbVertex
100
AcDb3dPolylineVertex
 10
386408.624311
 20
804993.617205
 30
2.72143
 70
    32
  0
VERTEX
  5
130
330
6D
100
AcDbEntity
  8
0
100
AcDbVertex
100
AcDb3dPolylineVertex
 10
386408.408009
 20
804983.667333
 30
2.719251
 70
    32
  0
VERTEX
  5
131
330
6D
100
AcDbEntity
  8
0
100
AcDbVertex
100
AcDb3dPolylineVertex
 10
386418.167027
 20
804983.171112
 30
2.717112
 70
    32
  0
VERTEX
  5
132
330
6D
100
AcDbEntity
  8
0
100
AcDbVertex
100
AcDb3dPolylineVertex
 10
386427.926044
 20
804982.674891
 30
2.714973
 70
    32
  0
VERTEX
  5
133
330
6D
100
AcDbEntity
  8
0
100
AcDbVertex
100
AcDb3dPolylineVertex
 10
386437.685062
 20
804982.178669
 30
2.712833
 70
    32
  0
VERTEX
  5
134
330
6D
100
AcDbEntity
  8
0
100
AcDbVertex
100
AcDb3dPolylineVertex
 10
386447.444079
 20
804981.682448
 30
2.710694
 70
    32
  0
VERTEX
  5
135
330
6D
100
AcDbEntity
  8
0
100
AcDbVertex
100
AcDb3dPolylineVertex
 10
386457.203097
 20
804981.186227
 30
2.708555
 70
    32
  0
VERTEX
  5
136
330
6D
100
AcDbEntity
  8
0
100
AcDbVertex
100
AcDb3dPolylineVertex
 10
386466.962114
 20
804980.690006
 30
2.706416
 70
    32
  0
VERTEX
  5
137
330
6D
100
AcDbEntity
  8
0
100
AcDbVertex
100
AcDb3dPolylineVertex
 10
386476.721132
 20
804980.193784
 30
2.704276
 70
    32
  0
VERTEX
  5
138
330
6D
100
AcDbEntity
  8
0
100
AcDbVertex
100
AcDb3dPolylineVertex
 10
386486.480149
 20
804979.697563
 30
2.702137
 70
    32
  0
VERTEX
  5
139
330
6D
100
AcDbEntity
  8
0
100
AcDbVertex
100
AcDb3dPolylineVertex
 10
386496.239167
 20
804979.201342
 30
2.699998
 70
    32
  0
VERTEX
  5
13A
330
6D
100
AcDbEntity
  8
0
100
AcDbVertex
100
AcDb3dPolylineVertex
 10
386505.998184
 20
804978.705121
 30
2.697858
 70
    32
  0
VERTEX
  5
13B
330
6D
100
AcDbEntity
  8
0
100
AcDbVertex
100
AcDb3dPolylineVertex
 10
386515.757202
 20
804978.2089
 30
2.695719
 70
    32
  0
VERTEX
  5
13C
330
6D
100
AcDbEntity
  8
0
100
AcDbVertex
100
AcDb3dPolylineVertex
 10
386525.516219
 20
804977.712678
 30
2.69358
 70
    32
  0
VERTEX
  5
13D
330
6D
100
AcDbEntity
  8
0
100
AcDbVertex
100
AcDb3dPolylineVertex
 10
386535.275237
 20
804977.216457
 30
2.691441
 70
    32
  0
VERTEX
  5
13E
330
6D
100
AcDbEntity
  8
0
100
AcDbVertex
100
AcDb3dPolylineVertex
 10
386545.034254
 20
804976.720236
 30
2.689301
 70
    32
  0
VERTEX
  5
13F
330
6D
100
AcDbEntity
  8
0
100
AcDbVertex
100
AcDb3dPolylineVertex
 10
386554.793272
 20
804976.224015
 30
2.687162
 70
    32
  0
VERTEX
  5
140
330
6D
100
AcDbEntity
  8
0
100
AcDbVertex
100
AcDb3dPolylineVertex
 10
386564.552289
 20
804975.727793
 30
2.685023
 70
    32
  0
VERTEX
  5
141
330
6D
100
AcDbEntity
  8
0
100
AcDbVertex
100
AcDb3dPolylineVertex
 10
386574.311307
 20
804975.231572
 30
2.682884
 70
    32
  0
VERTEX
  5
142
330
6D
100
AcDbEntity
  8
0
100
AcDbVertex
100
AcDb3dPolylineVertex
 10
386574.913861
 20
804965.590703
 30
2.680769
 70
    32
  0
VERTEX
  5
143
330
6D
100
AcDbEntity
  8
0
100
AcDbVertex
100
AcDb3dPolylineVertex
 10
386575.516415
 20
804955.949833
 30
2.678654
 70
    32
  0
VERTEX
  5
144
330
6D
100
AcDbEntity
  8
0
100
AcDbVertex
100
AcDb3dPolylineVertex
 10
386576.11897
 20
804946.308963
 30
2.676539
 70
    32
  0
VERTEX
  5
145
330
6D
100
AcDbEntity
  8
0
100
AcDbVertex
100
AcDb3dPolylineVertex
 10
386576.721524
 20
804936.668094
 30
2.674425
 70
    32
  0
VERTEX
  5
146
330
6D
100
AcDbEntity
  8
0
100
AcDbVertex
100
AcDb3dPolylineVertex
 10
386577.324079
 20
804927.027224
 30
2.67231
 70
    32
  0
VERTEX
  5
147
330
6D
100
AcDbEntity
  8
0
100
AcDbVertex
100
AcDb3dPolylineVertex
 10
386577.926633
 20
804917.386355
 30
2.670195
 70
    32
  0
VERTEX
  5
148
330
6D
100
AcDbEntity
  8
0
100
AcDbVertex
100
AcDb3dPolylineVertex
 10
386578.529187
 20
804907.745485
 30
2.66808
 70
    32
  0
VERTEX
  5
149
330
6D
100
AcDbEntity
  8
0
100
AcDbVertex
100
AcDb3dPolylineVertex
 10
386579.131742
 20
804898.104615
 30
2.665965
 70
    32
  0
VERTEX
  5
14A
330
6D
100
AcDbEntity
  8
0
100
AcDbVertex
100
AcDb3dPolylineVertex
 10
386579.734296
 20
804888.463746
 30
2.663851
 70
    32
  0
VERTEX
  5
14B
330
6D
100
AcDbEntity
  8
0
100
AcDbVertex
100
AcDb3dPolylineVertex
 10
386580.33685
 20
804878.822876
 30
2.661736
 70
    32
  0
VERTEX
  5
14C
330
6D
100
AcDbEntity
  8
0
100
AcDbVertex
100
AcDb3dPolylineVertex
 10
386580.939405
 20
804869.182007
 30
2.659621
 70
    32
  0
VERTEX
  5
14D
330
6D
100
AcDbEntity
  8
0
100
AcDbVertex
100
AcDb3dPolylineVertex
 10
386581.541959
 20
804859.541137
 30
2.657506
 70
    32
  0
VERTEX
  5
14E
330
6D
100
AcDbEntity
  8
0
100
AcDbVertex
100
AcDb3dPolylineVertex
 10
386582.144513
 20
804849.900267
 30
2.655392
 70
    32
  0
VERTEX
  5
14F
330
6D
100
AcDbEntity
  8
0
100
AcDbVertex
100
AcDb3dPolylineVertex
 10
386582.747068
 20
804840.259398
 30
2.653277
 70
    32
  0
VERTEX
  5
150
330
6D
100
AcDbEntity
  8
0
100
AcDbVertex
100
AcDb3dPolylineVertex
 10
386592.218799
 20
804840.555389
 30
2.651202
 70
    32
  0
VERTEX
  5
151
330
6D
100
AcDbEntity
  8
0
100
AcDbVertex
100
AcDb3dPolylineVertex
 10
386601.690531
 20
804840.851381
 30
2.649128
 70
    32
  0
VERTEX
  5
152
330
6D
100
AcDbEntity
  8
0
100
AcDbVertex
100
AcDb3dPolylineVertex
 10
386611.162262
 20
804841.147373
 30
2.647053
 70
    32
  0
VERTEX
  5
153
330
6D
100
AcDbEntity
  8
0
100
AcDbVertex
100
AcDb3dPolylineVertex
 10
386620.633994
 20
804841.443364
 30
2.644978
 70
    32
  0
VERTEX
  5
154
330
6D
100
AcDbEntity
  8
0
100
AcDbVertex
100
AcDb3dPolylineVertex
 10
386630.105725
 20
804841.739356
 30
2.642904
 70
    32
  0
VERTEX
  5
155
330
6D
100
AcDbEntity
  8
0
100
AcDbVertex
100
AcDb3dPolylineVertex
 10
386639.577457
 20
804842.035347
 30
2.640829
 70
    32
  0
VERTEX
  5
156
330
6D
100
AcDbEntity
  8
0
100
AcDbVertex
100
AcDb3dPolylineVertex
 10
386649.049188
 20
804842.331339
 30
2.638754
 70
    32
  0
VERTEX
  5
157
330
6D
100
AcDbEntity
  8
0
100
AcDbVertex
100
AcDb3dPolylineVertex
 10
386658.52092
 20
804842.627331
 30
2.63668
 70
    32
  0
VERTEX
  5
158
330
6D
100
AcDbEntity
  8
0
100
AcDbVertex
100
AcDb3dPolylineVertex
 10
386667.992651
 20
804842.923322
 30
2.634605
 70
    32
  0
VERTEX
  5
159
330
6D
100
AcDbEntity
  8
0
100
AcDbVertex
100
AcDb3dPolylineVertex
 10
386677.464383
 20
804843.219314
 30
2.632531
 70
    32
  0
VERTEX
  5
15A
330
6D
100
AcDbEntity
  8
0
100
AcDbVertex
100
AcDb3dPolylineVertex
 10
386686.936115
 20
804843.515306
 30
2.630456
 70
    32
  0
VERTEX
  5
15B
330
6D
100
AcDbEntity
  8
0
100
AcDbVertex
100
AcDb3dPolylineVertex
 10
386696.407846
 20
804843.811297
 30
2.628381
 70
    32
  0
VERTEX
  5
15C
330
6D
100
AcDbEntity
  8
0
100
AcDbVertex
100
AcDb3dPolylineVertex
 10
386705.879578
 20
804844.107289
 30
2.626307
 70
    32
  0
VERTEX
  5
15D
330
6D
100
AcDbEntity
  8
0
100
AcDbVertex
100
AcDb3dPolylineVertex
 10
386715.351309
 20
804844.40328
 30
2.624232
 70
    32
  0
VERTEX
  5
15E
330
6D
100
AcDbEntity
  8
0
100
AcDbVertex
100
AcDb3dPolylineVertex
 10
386724.823041
 20
804844.699272
 30
2.622157
 70
    32
  0
VERTEX
  5
15F
330
6D
100
AcDbEntity
  8
0
100
AcDbVertex
100
AcDb3dPolylineVertex
 10
386734.294772
 20
804844.995264
 30
2.620083
 70
    32
  0
VERTEX
  5
160
330
6D
100
AcDbEntity
  8
0
100
AcDbVertex
100
AcDb3dPolylineVertex
 10
386743.766504
 20
804845.291255
 30
2.618008
 70
    32
  0
VERTEX
  5
161
330
6D
100
AcDbEntity
  8
0
100
AcDbVertex
100
AcDb3dPolylineVertex
 10
386753.238235
 20
804845.587247
 30
2.615934
 70
    32
  0
VERTEX
  5
162
330
6D
100
AcDbEntity
  8
0
100
AcDbVertex
100
AcDb3dPolylineVertex
 10
386762.709967
 20
804845.883238
 30
2.613859
 70
    32
  0
VERTEX
  5
163
330
6D
100
AcDbEntity
  8
0
100
AcDbVertex
100
AcDb3dPolylineVertex
 10
386763.30195
 20
804836.115515
 30
2.611717
 70
    32
  0
VERTEX
  5
164
330
6D
100
AcDbEntity
  8
0
100
AcDbVertex
100
AcDb3dPolylineVertex
 10
386763.893933
 20
804826.347792
 30
2.609574
 70
    32
  0
VERTEX
  5
165
330
6D
100
AcDbEntity
  8
0
100
AcDbVertex
100
AcDb3dPolylineVertex
 10
386764.485916
 20
804816.580069
 30
2.607432
 70
    32
  0
VERTEX
  5
166
330
6D
100
AcDbEntity
  8
0
100
AcDbVertex
100
AcDb3dPolylineVertex
 10
386765.0779
 20
804806.812346
 30
2.60529
 70
    32
  0
VERTEX
  5
167
330
6D
100
AcDbEntity
  8
0
100
AcDbVertex
100
AcDb3dPolylineVertex
 10
386765.669883
 20
804797.044623
 30
2.603147
 70
    32
  0
VERTEX
  5
168
330
6D
100
AcDbEntity
  8
0
100
AcDbVertex
100
AcDb3dPolylineVertex
 10
386766.261866
 20
804787.2769
 30
2.601005
 70
    32
  0
VERTEX
  5
169
330
6D
100
AcDbEntity
  8
0
100
AcDbVertex
100
AcDb3dPolylineVertex
 10
386766.853849
 20
804777.509176
 30
2.598863
 70
    32
  0
VERTEX
  5
16A
330
6D
100
AcDbEntity
  8
0
100
AcDbVertex
100
AcDb3dPolylineVertex
 10
386767.445833
 20
804767.741453
 30
2.59672
 70
    32
  0
VERTEX
  5
16B
330
6D
100
AcDbEntity
  8
0
100
AcDbVertex
100
AcDb3dPolylineVertex
 10
386768.037816
 20
804757.97373
 30
2.594578
 70
    32
  0
VERTEX
  5
16C
330
6D
100
AcDbEntity
  8
0
100
AcDbVertex
100
AcDb3dPolylineVertex
 10
386768.629799
 20
804748.206007
 30
2.592436
 70
    32
  0
VERTEX
  5
16D
330
6D
100
AcDbEntity
  8
0
100
AcDbVertex
100
AcDb3dPolylineVertex
 10
386769.221782
 20
804738.438284
 30
2.590293
 70
    32
  0
VERTEX
  5
16E
330
6D
100
AcDbEntity
  8
0
100
AcDbVertex
100
AcDb3dPolylineVertex
 10
386769.813765
 20
804728.670561
 30
2.588151
 70
    32
  0
VERTEX
  5
16F
330
6D
100
AcDbEntity
  8
0
100
AcDbVertex
100
AcDb3dPolylineVertex
 10
386770.405749
 20
804718.902838
 30
2.586008
 70
    32
  0
VERTEX
  5
170
330
6D
100
AcDbEntity
  8
0
100
AcDbVertex
100
AcDb3dPolylineVertex
 10
386770.997732
 20
804709.135114
 30
2.583866
 70
    32
  0
VERTEX
  5
171
330
6D
100
AcDbEntity
  8
0
100
AcDbVertex
100
AcDb3dPolylineVertex
 10
386771.589715
 20
804699.367391
 30
2.581724
 70
    32
  0
VERTEX
  5
172
330
6D
100
AcDbEntity
  8
0
100
AcDbVertex
100
AcDb3dPolylineVertex
 10
386772.181698
 20
804689.599668
 30
2.579581
 70
    32
  0
VERTEX
  5
173
330
6D
100
AcDbEntity
  8
0
100
AcDbVertex
100
AcDb3dPolylineVertex
 10
386772.773682
 20
804679.831945
 30
2.577439
 70
    32
  0
VERTEX
  5
174
330
6D
100
AcDbEntity
  8
0
100
AcDbVertex
100
AcDb3dPolylineVertex
 10
386773.365665
 20
804670.064222
 30
2.575297
 70
    32
  0
VERTEX
  5
175
330
6D
100
AcDbEntity
  8
0
100
AcDbVertex
100
AcDb3dPolylineVertex
 10
386773.957648
 20
804660.296499
 30
2.573154
 70
    32
  0
VERTEX
  5
176
330
6D
100
AcDbEntity
  8
0
100
AcDbVertex
100
AcDb3dPolylineVertex
 10
386764.337921
 20
804659.55652
 30
2.571042
 70
    32
  0
VERTEX
  5
177
330
6D
100
AcDbEntity
  8
0
100
AcDbVertex
100
AcDb3dPolylineVertex
 10
386754.718193
 20
804658.816541
 30
2.56893
 70
    32
  0
VERTEX
  5
178
330
6D
100
AcDbEntity
  8
0
100
AcDbVertex
100
AcDb3dPolylineVertex
 10
386745.098466
 20
804658.076562
 30
2.566818
 70
    32
  0
VERTEX
  5
179
330
6D
100
AcDbEntity
  8
0
100
AcDbVertex
100
AcDb3dPolylineVertex
 10
386735.478739
 20
804657.336583
 30
2.564705
 70
    32
  0
VERTEX
  5
17A
330
6D
100
AcDbEntity
  8
0
100
AcDbVertex
100
AcDb3dPolylineVertex
 10
386725.859011
 20
804656.596604
 30
2.562593
 70
    32
  0
VERTEX
  5
17B
330
6D
100
AcDbEntity
  8
0
100
AcDbVertex
100
AcDb3dPolylineVertex
 10
386716.239284
 20
804655.856625
 30
2.560481
 70
    32
  0
VERTEX
  5
17C
330
6D
100
AcDbEntity
  8
0
100
AcDbVertex
100
AcDb3dPolylineVertex
 10
386706.619557
 20
804655.116646
 30
2.558369
 70
    32
  0
VERTEX
  5
17D
330
6D
100
AcDbEntity
  8
0
100
AcDbVertex
100
AcDb3dPolylineVertex
 10
386696.999829
 20
804654.376667
 30
2.556257
 70
    32
  0
VERTEX
  5
17E
330
6D
100
AcDbEntity
  8
0
100
AcDbVertex
100
AcDb3dPolylineVertex
 10
386687.380102
 20
804653.636688
 30
2.554144
 70
    32
  0
VERTEX
  5
17F
330
6D
100
AcDbEntity
  8
0
100
AcDbVertex
100
AcDb3dPolylineVertex
 10
386677.760375
 20
804652.896708
 30
2.552032
 70
    32
  0
VERTEX
  5
180
330
6D
100
AcDbEntity
  8
0
100
AcDbVertex
100
AcDb3dPolylineVertex
 10
386668.140647
 20
804652.156729
 30
2.54992
 70
    32
  0
VERTEX
  5
181
330
6D
100
AcDbEntity
  8
0
100
AcDbVertex
100
AcDb3dPolylineVertex
 10
386658.52092
 20
804651.41675
 30
2.547808
 70
    32
  0
VERTEX
  5
182
330
6D
100
AcDbEntity
  8
0
100
AcDbVertex
100
AcDb3dPolylineVertex
 10
386648.901193
 20
804650.676771
 30
2.545695
 70
    32
  0
VERTEX
  5
183
330
6D
100
AcDbEntity
  8
0
100
AcDbVertex
100
AcDb3dPolylineVertex
 10
386639.281465
 20
804649.936792
 30
2.543583
 70
    32
  0
VERTEX
  5
184
330
6D
100
AcDbEntity
  8
0
100
AcDbVertex
100
AcDb3dPolylineVertex
 10
386629.661738
 20
804649.196813
 30
2.541471
 70
    32
  0
VERTEX
  5
185
330
6D
100
AcDbEntity
  8
0
100
AcDbVertex
100
AcDb3dPolylineVertex
 10
386620.042011
 20
804648.456834
 30
2.539359
 70
    32
  0
VERTEX
  5
186
330
6D
100
AcDbEntity
  8
0
100
AcDbVertex
100
AcDb3dPolylineVertex
 10
386610.422283
 20
804647.716855
 30
2.537246
 70
    32
  0
VERTEX
  5
187
330
6D
100
AcDbEntity
  8
0
100
AcDbVertex
100
AcDb3dPolylineVertex
 10
386600.802556
 20
804646.976876
 30
2.535134
 70
    32
  0
VERTEX
  5
188
330
6D
100
AcDbEntity
  8
0
100
AcDbVertex
100
AcDb3dPolylineVertex
 10
386591.182829
 20
804646.236897
 30
2.533022
 70
    32
  0
VERTEX
  5
189
330
6D
100
AcDbEntity
  8
0
100
AcDbVertex
100
AcDb3dPolylineVertex
 10
386591.348236
 20
804636.47788
 30
2.530885
 70
    32
  0
VERTEX
  5
18A
330
6D
100
AcDbEntity
  8
0
100
AcDbVertex
100
AcDb3dPolylineVertex
 10
386591.513643
 20
804626.718862
 30
2.528748
 70
    32
  0
VERTEX
  5
18B
330
6D
100
AcDbEntity
  8
0
100
AcDbVertex
100
AcDb3dPolylineVertex
 10
386591.67905
 20
804616.959845
 30
2.526611
 70
    32
  0
VERTEX
  5
18C
330
6D
100
AcDbEntity
  8
0
100
AcDbVertex
100
AcDb3dPolylineVertex
 10
386591.844457
 20
804607.200827
 30
2.524475
 70
    32
  0
VERTEX
  5
18D
330
6D
100
AcDbEntity
  8
0
100
AcDbVertex
100
AcDb3dPolylineVertex
 10
386592.009864
 20
804597.44181
 30
2.522338
 70
    32
  0
VERTEX
  5
18E
330
6D
100
AcDbEntity
  8
0
100
AcDbVertex
100
AcDb3dPolylineVertex
 10
386592.175271
 20
804587.682792
 30
2.520201
 70
    32
  0
VERTEX
  5
18F
330
6D
100
AcDbEntity
  8
0
100
AcDbVertex
100
AcDb3dPolylineVertex
 10
386592.340678
 20
804577.923775
 30
2.518064
 70
    32
  0
VERTEX
  5
190
330
6D
100
AcDbEntity
  8
0
100
AcDbVertex
100
AcDb3dPolylineVertex
 10
386592.506085
 20
804568.164757
 30
2.515927
 70
    32
  0
VERTEX
  5
191
330
6D
100
AcDbEntity
  8
0
100
AcDbVertex
100
AcDb3dPolylineVertex
 10
386592.671492
 20
804558.40574
 30
2.513791
 70
    32
  0
VERTEX
  5
192
330
6D
100
AcDbEntity
  8
0
100
AcDbVertex
100
AcDb3dPolylineVertex
 10
386592.836899
 20
804548.646722
 30
2.511654
 70
    32
  0
VERTEX
  5
193
330
6D
100
AcDbEntity
  8
0
100
AcDbVertex
100
AcDb3dPolylineVertex
 10
386593.002306
 20
804538.887705
 30
2.509517
 70
    32
  0
VERTEX
  5
194
330
6D
100
AcDbEntity
  8
0
100
AcDbVertex
100
AcDb3dPolylineVertex
 10
386593.167713
 20
804529.128687
 30
2.50738
 70
    32
  0
VERTEX
  5
195
330
6D
100
AcDbEntity
  8
0
100
AcDbVertex
100
AcDb3dPolylineVertex
 10
386593.333121
 20
804519.36967
 30
2.505243
 70
    32
  0
VERTEX
  5
196
330
6D
100
AcDbEntity
  8
0
100
AcDbVertex
100
AcDb3dPolylineVertex
 10
386593.498528
 20
804509.610652
 30
2.503106
 70
    32
  0
VERTEX
  5
197
330
6D
100
AcDbEntity
  8
0
100
AcDbVertex
100
AcDb3dPolylineVertex
 10
386593.663935
 20
804499.851635
 30
2.50097
 70
    32
  0
VERTEX
  5
198
330
6D
100
AcDbEntity
  8
0
100
AcDbVertex
100
AcDb3dPolylineVertex
 10
386593.829342
 20
804490.092617
 30
2.498833
 70
    32
  0
VERTEX
  5
199
330
6D
100
AcDbEntity
  8
0
100
AcDbVertex
100
AcDb3dPolylineVertex
 10
386593.994749
 20
804480.3336
 30
2.496696
 70
    32
  0
VERTEX
  5
19A
330
6D
100
AcDbEntity
  8
0
100
AcDbVertex
100
AcDb3dPolylineVertex
 10
386584.293624
 20
804480.755388
 30
2.49457
 70
    32
  0
VERTEX
  5
19B
330
6D
100
AcDbEntity
  8
0
100
AcDbVertex
100
AcDb3dPolylineVertex
 10
386574.592499
 20
804481.177176
 30
2.492444
 70
    32
  0
VERTEX
  5
19C
330
6D
100
AcDbEntity
  8
0
100
AcDbVertex
100
AcDb3dPolylineVertex
 10
386564.891374
 20
804481.598964
 30
2.490318
 70
    32
  0
VERTEX
  5
19D
330
6D
100
AcDbEntity
  8
0
100
AcDbVertex
100
AcDb3dPolylineVertex
 10
386555.190249
 20
804482.020752
 30
2.488193
 70
    32
  0
VERTEX
  5
19E
330
6D
100
AcDbEntity
  8
0
100
AcDbVertex
100
AcDb3dPolylineVertex
 10
386545.489124
 20
804482.44254
 30
2.486067
 70
    32
  0
VERTEX
  5
19F
330
6D
100
AcDbEntity
  8
0
100
AcDbVertex
100
AcDb3dPolylineVertex
 10
386535.787999
 20
804482.864328
 30
2.483941
 70
    32
  0
VERTEX
  5
1A0
330
6D
100
AcDbEntity
  8
0
100
AcDbVertex
100
AcDb3dPolylineVertex
 10
386526.086874
 20
804483.286116
 30
2.481815
 70
    32
  0
VERTEX
  5
1A1
330
6D
100
AcDbEntity
  8
0
100
AcDbVertex
100
AcDb3dPolylineVertex
 10
386516.385749
 20
804483.707904
 30
2.479689
 70
    32
  0
VERTEX
  5
1A2
330
6D
100
AcDbEntity
  8
0
100
AcDbVertex
100
AcDb3dPolylineVertex
 10
386506.684624
 20
804484.129692
 30
2.477563
 70
    32
  0
VERTEX
  5
1A3
330
6D
100
AcDbEntity
  8
0
100
AcDbVertex
100
AcDb3dPolylineVertex
 10
386496.983499
 20
804484.55148
 30
2.475438
 70
    32
  0
VERTEX
  5
1A4
330
6D
100
AcDbEntity
  8
0
100
AcDbVertex
100
AcDb3dPolylineVertex
 10
386487.282374
 20
804484.973268
 30
2.473312
 70
    32
  0
VERTEX
  5
1A5
330
6D
100
AcDbEntity
  8
0
100
AcDbVertex
100
AcDb3dPolylineVertex
 10
386477.581249
 20
804485.395056
 30
2.471186
 70
    32
  0
VERTEX
  5
1A6
330
6D
100
AcDbEntity
  8
0
100
AcDbVertex
100
AcDb3dPolylineVertex
 10
386467.880123
 20
804485.816844
 30
2.46906
 70
    32
  0
VERTEX
  5
1A7
330
6D
100
AcDbEntity
  8
0
100
AcDbVertex
100
AcDb3dPolylineVertex
 10
386458.178998
 20
804486.238632
 30
2.466934
 70
    32
  0
VERTEX
  5
1A8
330
6D
100
AcDbEntity
  8
0
100
AcDbVertex
100
AcDb3dPolylineVertex
 10
386448.477873
 20
804486.66042
 30
2.464808
 70
    32
  0
VERTEX
  5
1A9
330
6D
100
AcDbEntity
  8
0
100
AcDbVertex
100
AcDb3dPolylineVertex
 10
386438.776748
 20
804487.082208
 30
2.462682
 70
    32
  0
VERTEX
  5
1AA
330
6D
100
AcDbEntity
  8
0
100
AcDbVertex
100
AcDb3dPolylineVertex
 10
386429.075623
 20
804487.503996
 30
2.460557
 70
    32
  0
VERTEX
  5
1AB
330
6D
100
AcDbEntity
  8
0
100
AcDbVertex
100
AcDb3dPolylineVertex
 10
386419.374498
 20
804487.925784
 30
2.458431
 70
    32
  0
VERTEX
  5
1AC
330
6D
100
AcDbEntity
  8
0
100
AcDbVertex
100
AcDb3dPolylineVertex
 10
386409.673373
 20
804488.347573
 30
2.456305
 70
    32
  0
VERTEX
  5
1AD
330
6D
100
AcDbEntity
  8
0
100
AcDbVertex
100
AcDb3dPolylineVertex
 10
386399.972248
 20
804488.769361
 30
2.454179
 70
    32
  0
VERTEX
  5
1AE
330
6D
100
AcDbEntity
  8
0
100
AcDbVertex
100
AcDb3dPolylineVertex
 10
386401.097016
 20
804479.208832
 30
2.452072
 70
    32
  0
VERTEX
  5
1AF
330
6D
100
AcDbEntity
  8
0
100
AcDbVertex
100
AcDb3dPolylineVertex
 10
386402.221785
 20
804469.648303
 30
2.449964
 70
    32
  0
VERTEX
  5
1B0
330
6D
100
AcDbEntity
  8
0
100
AcDbVertex
100
AcDb3dPolylineVertex
 10
386403.346553
 20
804460.087774
 30
2.447857
 70
    32
  0
VERTEX
  5
1B1
330
6D
100
AcDbEntity
  8
0
100
AcDbVertex
100
AcDb3dPolylineVertex
 10
386404.471321
 20
804450.527245
 30
2.445749
 70
    32
  0
VERTEX
  5
1B2
330
6D
100
AcDbEntity
  8
0
100
AcDbVertex
100
AcDb3dPolylineVertex
 10
386405.596089
 20
804440.966715
 30
2.443642
 70
    32
  0
VERTEX
  5
1B3
330
6D
100
AcDbEntity
  8
0
100
AcDbVertex
100
AcDb3dPolylineVertex
 10
386406.720857
 20
804431.406186
 30
2.441534
 70
    32
  0
VERTEX
  5
1B4
330
6D
100
AcDbEntity
  8
0
100
AcDbVertex
100
AcDb3dPolylineVertex
 10
386407.845625
 20
804421.845657
 30
2.439427
 70
    32
  0
VERTEX
  5
1B5
330
6D
100
AcDbEntity
  8
0
100
AcDbVertex
100
AcDb3dPolylineVertex
 10
386408.970393
 20
804412.285128
 30
2.437319
 70
    32
  0
VERTEX
  5
1B6
330
6D
100
AcDbEntity
  8
0
100
AcDbVertex
100
AcDb3dPolylineVertex
 10
386410.095161
 20
804402.724599
 30
2.435212
 70
    32
  0
VERTEX
  5
1B7
330
6D
100
AcDbEntity
  8
0
100
AcDbVertex
100
AcDb3dPolylineVertex
 10
386411.219929
 20
804393.16407
 30
2.433104
 70
    32
  0
VERTEX
  5
1B8
330
6D
100
AcDbEntity
  8
0
100
AcDbVertex
100
AcDb3dPolylineVertex
 10
386412.344698
 20
804383.603541
 30
2.430997
 70
    32
  0
VERTEX
  5
1B9
330
6D
100
AcDbEntity
  8
0
100
AcDbVertex
100
AcDb3dPolylineVertex
 10
386413.469466
 20
804374.043012
 30
2.428889
 70
    32
  0
VERTEX
  5
1BA
330
6D
100
AcDbEntity
  8
0
100
AcDbVertex
100
AcDb3dPolylineVertex
 10
386414.594234
 20
804364.482483
 30
2.426782
 70
    32
  0
VERTEX
  5
1BB
330
6D
100
AcDbEntity
  8
0
100
AcDbVertex
100
AcDb3dPolylineVertex
 10
386415.719002
 20
804354.921954
 30
2.424674
 70
    32
  0
VERTEX
  5
1BC
330
6D
100
AcDbEntity
  8
0
100
AcDbVertex
100
AcDb3dPolylineVertex
 10
386416.84377
 20
804345.361425
 30
2.422567
 70
    32
  0
VERTEX
  5
1BD
330
6D
100
AcDbEntity
  8
0
100
AcDbVertex
100
AcDb3dPolylineVertex
 10
386423.471868
 20
804338.130773
 30
2.420419
 70
    32
  0
VERTEX
  5
1BE
330
6D
100
AcDbEntity
  8
0
100
AcDbVertex
100
AcDb3dPolylineVertex
 10
386430.099966
 20
804330.900121
 30
2.418272
 70
    32
  0
VERTEX
  5
1BF
330
6D
100
AcDbEntity
  8
0
100
AcDbVertex
100
AcDb3dPolylineVertex
 10
386436.728064
 20
804323.669469
 30
2.416124
 70
    32
  0
VERTEX
  5
1C0
330
6D
100
AcDbEntity
  8
0
100
AcDbVertex
100
AcDb3dPolylineVertex
 10
386443.356161
 20
804316.438817
 30
2.413977
 70
    32
  0
VERTEX
  5
1C1
330
6D
100
AcDbEntity
  8
0
100
AcDbVertex
100
AcDb3dPolylineVertex
 10
386449.984259
 20
804309.208164
 30
2.41183
 70
    32
  0
VERTEX
  5
1C2
330
6D
100
AcDbEntity
  8
0
100
AcDbVertex
100
AcDb3dPolylineVertex
 10
386456.612357
 20
804301.977512
 30
2.409682
 70
    32
  0
VERTEX
  5
1C3
330
6D
100
AcDbEntity
  8
0
100
AcDbVertex
100
AcDb3dPolylineVertex
 10
386463.240455
 20
804294.74686
 30
2.407535
 70
    32
  0
VERTEX
  5
1C4
330
6D
100
AcDbEntity
  8
0
100
AcDbVertex
100
AcDb3dPolylineVertex
 10
386469.868553
 20
804287.516208
 30
2.405387
 70
    32
  0
VERTEX
  5
1C5
330
6D
100
AcDbEntity
  8
0
100
AcDbVertex
100
AcDb3dPolylineVertex
 10
386476.496651
 20
804280.285556
 30
2.40324
 70
    32
  0
VERTEX
  5
1C6
330
6D
100
AcDbEntity
  8
0
100
AcDbVertex
100
AcDb3dPolylineVertex
 10
386483.124749
 20
804273.054903
 30
2.401092
 70
    32
  0
VERTEX
  5
1C7
330
6D
100
AcDbEntity
  8
0
100
AcDbVertex
100
AcDb3dPolylineVertex
 10
386489.752846
 20
804265.824251
 30
2.398945
 70
    32
  0
VERTEX
  5
1C8
330
6D
100
AcDbEntity
  8
0
100
AcDbVertex
100
AcDb3dPolylineVertex
 10
386496.380944
 20
804258.593599
 30
2.396798
 70
    32
  0
VERTEX
  5
1C9
330
6D
100
AcDbEntity
  8
0
100
AcDbVertex
100
AcDb3dPolylineVertex
 10
386503.009042
 20
804251.362947
 30
2.39465
 70
    32
  0
VERTEX
  5
1CA
330
6D
100
AcDbEntity
  8
0
100
AcDbVertex
100
AcDb3dPolylineVertex
 10
386509.63714
 20
804244.132295
 30
2.392503
 70
    32
  0
VERTEX
  5
1CB
330
6D
100
AcDbEntity
  8
0
100
AcDbVertex
100
AcDb3dPolylineVertex
 10
386512.44906
 20
804234.571766
 30
2.390321
 70
    32
  0
VERTEX
  5
1CC
330
6D
100
AcDbEntity
  8
0
100
AcDbVertex
100
AcDb3dPolylineVertex
 10
386515.260981
 20
804225.011237
 30
2.388139
 70
    32
  0
VERTEX
  5
1CD
330
6D
100
AcDbEntity
  8
0
100
AcDbVertex
100
AcDb3dPolylineVertex
 10
386518.072901
 20
804215.450708
 30
2.385958
 70
    32
  0
VERTEX
  5
1CE
330
6D
100
AcDbEntity
  8
0
100
AcDbVertex
100
AcDb3dPolylineVertex
 10
386520.884821
 20
804205.890179
 30
2.383776
 70
    32
  0
VERTEX
  5
1CF
330
6D
100
AcDbEntity
  8
0
100
AcDbVertex
100
AcDb3dPolylineVertex
 10
386523.696741
 20
804196.32965
 30
2.381594
 70
    32
  0
VERTEX
  5
1D0
330
6D
100
AcDbEntity
  8
0
100
AcDbVertex
100
AcDb3dPolylineVertex
 10
386526.508662
 20
804186.769121
 30
2.379412
 70
    32
  0
VERTEX
  5
1D1
330
6D
100
AcDbEntity
  8
0
100
AcDbVertex
100
AcDb3dPolylineVertex
 10
386529.320582
 20
804177.208592
 30
2.377231
 70
    32
  0
VERTEX
  5
1D2
330
6D
100
AcDbEntity
  8
0
100
AcDbVertex
100
AcDb3dPolylineVertex
 10
386532.132502
 20
804167.648063
 30
2.375049
 70
    32
  0
VERTEX
  5
1D3
330
6D
100
AcDbEntity
  8
0
100
AcDbVertex
100
AcDb3dPolylineVertex
 10
386534.944423
 20
804158.087534
 30
2.372867
 70
    32
  0
VERTEX
  5
1D4
330
6D
100
AcDbEntity
  8
0
100
AcDbVertex
100
AcDb3dPolylineVertex
 10
386537.756343
 20
804148.527004
 30
2.370686
 70
    32
  0
VERTEX
  5
1D5
330
6D
100
AcDbEntity
  8
0
100
AcDbVertex
100
AcDb3dPolylineVertex
 10
386540.568263
 20
804138.966475
 30
2.368504
 70
    32
  0
VERTEX
  5
1D6
330
6D
100
AcDbEntity
  8
0
100
AcDbVertex
100
AcDb3dPolylineVertex
 10
386543.380183
 20
804129.405946
 30
2.366322
 70
    32
  0
VERTEX
  5
1D7
330
6D
100
AcDbEntity
  8
0
100
AcDbVertex
100
AcDb3dPolylineVertex
 10
386546.192104
 20
804119.845417
 30
2.36414
 70
    32
  0
VERTEX
  5
1D8
330
6D
100
AcDbEntity
  8
0
100
AcDbVertex
100
AcDb3dPolylineVertex
 10
386549.004024
 20
804110.284888
 30
2.361959
 70
    32
  0
VERTEX
  5
1D9
330
6D
100
AcDbEntity
  8
0
100
AcDbVertex
100
AcDb3dPolylineVertex
 10
386551.815944
 20
804100.724359
 30
2.359777
 70
    32
  0
VERTEX
  5
1DA
330
6D
100
AcDbEntity
  8
0
100
AcDbVertex
100
AcDb3dPolylineVertex
 10
386557.791275
 20
804093.167324
 30
2.357668
 70
    32
  0
VERTEX
  5
1DB
330
6D
100
AcDbEntity
  8
0
100
AcDbVertex
100
AcDb3dPolylineVertex
 10
386563.766606
 20
804085.610288
 30
2.355559
 70
    32
  0
VERTEX
  5
1DC
330
6D
100
AcDbEntity
  8
0
100
AcDbVertex
100
AcDb3dPolylineVertex
 10
386569.741936
 20
804078.053252
 30
2.35345
 70
    32
  0
VERTEX
  5
1DD
330
6D
100
AcDbEntity
  8
0
100
AcDbVertex
100
AcDb3dPolylineVertex
 10
386575.717267
 20
804070.496216
 30
2.351341
 70
    32
  0
VERTEX
  5
1DE
330
6D
100
AcDbEntity
  8
0
100
AcDbVertex
100
AcDb3dPolylineVertex
 10
386581.692598
 20
804062.93918
 30
2.349231
 70
    32
  0
VERTEX
  5
1DF
330
6D
100
AcDbEntity
  8
0
100
AcDbVertex
100
AcDb3dPolylineVertex
 10
386587.667928
 20
804055.382145
 30
2.347122
 70
    32
  0
VERTEX
  5
1E0
330
6D
100
AcDbEntity
  8
0
100
AcDbVertex
100
AcDb3dPolylineVertex
 10
386593.643259
 20
804047.825109
 30
2.345013
 70
    32
  0
VERTEX
  5
1E1
330
6D
100
AcDbEntity
  8
0
100
AcDbVertex
100
AcDb3dPolylineVertex
 10
386599.618589
 20
804040.268073
 30
2.342904
 70
    32
  0
VERTEX
  5
1E2
330
6D
100
AcDbEntity
  8
0
100
AcDbVertex
100
AcDb3dPolylineVertex
 10
386605.59392
 20
804032.711037
 30
2.340795
 70
    32
  0
VERTEX
  5
1E3
330
6D
100
AcDbEntity
  8
0
100
AcDbVertex
100
AcDb3dPolylineVertex
 10
386611.569251
 20
804025.154001
 30
2.338686
 70
    32
  0
VERTEX
  5
1E4
330
6D
100
AcDbEntity
  8
0
100
AcDbVertex
100
AcDb3dPolylineVertex
 10
386617.544581
 20
804017.596966
 30
2.336577
 70
    32
  0
VERTEX
  5
1E5
330
6D
100
AcDbEntity
  8
0
100
AcDbVertex
100
AcDb3dPolylineVertex
 10
386623.519912
 20
804010.03993
 30
2.334467
 70
    32
  0
VERTEX
  5
1E6
330
6D
100
AcDbEntity
  8
0
100
AcDbVertex
100
AcDb3dPolylineVertex
 10
386629.495243
 20
804002.482894
 30
2.332358
 70
    32
  0
VERTEX
  5
1E7
330
6D
100
AcDbEntity
  8
0
100
AcDbVertex
100
AcDb3dPolylineVertex
 10
386635.470573
 20
803994.925858
 30
2.330249
 70
    32
  0
VERTEX
  5
1E8
330
6D
100
AcDbEntity
  8
0
100
AcDbVertex
100
AcDb3dPolylineVertex
 10
386641.445904
 20
803987.368822
 30
2.32814
 70
    32
  0
VERTEX
  5
1E9
330
6D
100
AcDbEntity
  8
0
100
AcDbVertex
100
AcDb3dPolylineVertex
 10
386647.421235
 20
803979.811787
 30
2.326031
 70
    32
  0
VERTEX
  5
1EA
330
6D
100
AcDbEntity
  8
0
100
AcDbVertex
100
AcDb3dPolylineVertex
 10
386652.601088
 20
803988.247547
 30
2.323864
 70
    32
  0
VERTEX
  5
1EB
330
6D
100
AcDbEntity
  8
0
100
AcDbVertex
100
AcDb3dPolylineVertex
 10
386657.780941
 20
803996.683308
 30
2.321697
 70
    32
  0
VERTEX
  5
1EC
330
6D
100
AcDbEntity
  8
0
100
AcDbVertex
100
AcDb3dPolylineVertex
 10
386662.960794
 20
804005.119069
 30
2.319529
 70
    32
  0
VERTEX
  5
1ED
330
6D
100
AcDbEntity
  8
0
100
AcDbVertex
100
AcDb3dPolylineVertex
 10
386668.140647
 20
804013.55483
 30
2.317362
 70
    32
  0
VERTEX
  5
1EE
330
6D
100
AcDbEntity
  8
0
100
AcDbVertex
100
AcDb3dPolylineVertex
 10
386673.3205
 20
804021.990591
 30
2.315195
 70
    32
  0
VERTEX
  5
1EF
330
6D
100
AcDbEntity
  8
0
100
AcDbVertex
100
AcDb3dPolylineVertex
 10
386678.500354
 20
804030.426352
 30
2.313028
 70
    32
  0
VERTEX
  5
1F0
330
6D
100
AcDbEntity
  8
0
100
AcDbVertex
100
AcDb3dPolylineVertex
 10
386683.680207
 20
804038.862113
 30
2.310861
 70
    32
  0
VERTEX
  5
1F1
330
6D
100
AcDbEntity
  8
0
100
AcDbVertex
100
AcDb3dPolylineVertex
 10
386688.86006
 20
804047.297874
 30
2.308693
 70
    32
  0
VERTEX
  5
1F2
330
6D
100
AcDbEntity
  8
0
100
AcDbVertex
100
AcDb3dPolylineVertex
 10
386694.039913
 20
804055.733635
 30
2.306526
 70
    32
  0
VERTEX
  5
1F3
330
6D
100
AcDbEntity
  8
0
100
AcDbVertex
100
AcDb3dPolylineVertex
 10
386699.219766
 20
804064.169396
 30
2.304359
 70
    32
  0
VERTEX
  5
1F4
330
6D
100
AcDbEntity
  8
0
100
AcDbVertex
100
AcDb3dPolylineVertex
 10
386704.39962
 20
804072.605156
 30
2.302192
 70
    32
  0
VERTEX
  5
1F5
330
6D
100
AcDbEntity
  8
0
100
AcDbVertex
100
AcDb3dPolylineVertex
 10
386709.579473
 20
804081.040917
 30
2.300025
 70
    32
  0
VERTEX
  5
1F6
330
6D
100
AcDbEntity
  8
0
100
AcDbVertex
100
AcDb3dPolylineVertex
 10
386714.759326
 20
804089.476678
 30
2.297857
 70
    32
  0
VERTEX
  5
1F7
330
6D
100
AcDbEntity
  8
0
100
AcDbVertex
100
AcDb3dPolylineVertex
 10
386719.939179
 20
804097.912439
 30
2.29569
 70
    32
  0
VERTEX
  5
1F8
330
6D
100
AcDbEntity
  8
0
100
AcDbVertex
100
AcDb3dPolylineVertex
 10
386725.119032
 20
804106.3482
 30
2.293523
 70
    32
  0
VERTEX
  5
1F9
330
6D
100
AcDbEntity
  8
0
100
AcDbVertex
100
AcDb3dPolylineVertex
 10
386730.298885
 20
804114.783961
 30
2.291356
 70
    32
  0
VERTEX
  5
1FA
330
6D
100
AcDbEntity
  8
0
100
AcDbVertex
100
AcDb3dPolylineVertex
 10
386735.478739
 20
804123.219722
 30
2.289189
 70
    32
  0
VERTEX
  5
1FB
330
6D
100
AcDbEntity
  8
0
100
AcDbVertex
100
AcDb3dPolylineVertex
 10
386740.658592
 20
804131.655483
 30
2.287022
 70
    32
  0
VERTEX
  5
1FC
330
6D
100
AcDbEntity
  8
0
100
AcDbVertex
100
AcDb3dPolylineVertex
 10
386745.838445
 20
804140.091244
 30
2.284854
 70
    32
  0
VERTEX
  5
1FD
330
6D
100
AcDbEntity
  8
0
100
AcDbVertex
100
AcDb3dPolylineVertex
 10
386747.280455
 20
804130.357673
 30
2.2827
 70
    32
  0
VERTEX
  5
1FE
330
6D
100
AcDbEntity
  8
0
100
AcDbVertex
100
AcDb3dPolylineVertex
 10
386748.722466
 20
804120.624103
 30
2.280546
 70
    32
  0
VERTEX
  5
1FF
330
6D
100
AcDbEntity
  8
0
100
AcDbVertex
100
AcDb3dPolylineVertex
 10
386750.164476
 20
804110.890533
 30
2.278392
 70
    32
  0
VERTEX
  5
200
330
6D
100
AcDbEntity
  8
0
100
AcDbVertex
100
AcDb3dPolylineVertex
 10
386751.606487
 20
804101.156963
 30
2.276238
 70
    32
  0
VERTEX
  5
201
330
6D
100
AcDbEntity
  8
0
100
AcDbVertex
100
AcDb3dPolylineVertex
 10
386753.048497
 20
804091.423392
 30
2.274083
 70
    32
  0
VERTEX
  5
202
330
6D
100
AcDbEntity
  8
0
100
AcDbVertex
100
AcDb3dPolylineVertex
 10
386754.490507
 20
804081.689822
 30
2.271929
 70
    32
  0
VERTEX
  5
203
330
6D
100
AcDbEntity
  8
0
100
AcDbVertex
100
AcDb3dPolylineVertex
 10
386755.932518
 20
804071.956252
 30
2.269775
 70
    32
  0
VERTEX
  5
204
330
6D
100
AcDbEntity
  8
0
100
AcDbVertex
100
AcDb3dPolylineVertex
 10
386757.374528
 20
804062.222681
 30
2.267621
 70
    32
  0
VERTEX
  5
205
330
6D
100
AcDbEntity
  8
0
100
AcDbVertex
100
AcDb3dPolylineVertex
 10
386758.816539
 20
804052.489111
 30
2.265467
 70
    32
  0
VERTEX
  5
206
330
6D
100
AcDbEntity
  8
0
100
AcDbVertex
100
AcDb3dPolylineVertex
 10
386760.258549
 20
804042.755541
 30
2.263312
 70
    32
  0
VERTEX
  5
207
330
6D
100
AcDbEntity
  8
0
100
AcDbVertex
100
AcDb3dPolylineVertex
 10
386761.700559
 20
804033.021971
 30
2.261158
 70
    32
  0
VERTEX
  5
208
330
6D
100
AcDbEntity
  8
0
100
AcDbVertex
100
AcDb3dPolylineVertex
 10
386763.14257
 20
804023.2884
 30
2.259004
 70
    32
  0
VERTEX
  5
209
330
6D
100
AcDbEntity
  8
0
100
AcDbVertex
100
AcDb3dPolylineVertex
 10
386764.58458
 20
804013.55483
 30
2.25685
 70
    32
  0
VERTEX
  5
20A
330
6D
100
AcDbEntity
  8
0
100
AcDbVertex
100
AcDb3dPolylineVertex
 10
386766.026591
 20
804003.82126
 30
2.254696
 70
    32
  0
VERTEX
  5
20B
330
6D
100
AcDbEntity
  8
0
100
AcDbVertex
100
AcDb3dPolylineVertex
 10
386767.468601
 20
803994.08769
 30
2.252541
 70
    32
  0
VERTEX
  5
20C
330
6D
100
AcDbEntity
  8
0
100
AcDbVertex
100
AcDb3dPolylineVertex
 10
386768.910612
 20
803984.354119
 30
2.250387
 70
    32
  0
VERTEX
  5
20D
330
6D
100
AcDbEntity
  8
0
100
AcDbVertex
100
AcDb3dPolylineVertex
 10
386770.352622
 20
803974.620549
 30
2.248233
 70
    32
  0
VERTEX
  5
20E
330
6D
100
AcDbEntity
  8
0
100
AcDbVertex
100
AcDb3dPolylineVertex
 10
386771.794632
 20
803964.886979
 30
2.246079
 70
    32
  0
VERTEX
  5
20F
330
6D
100
AcDbEntity
  8
0
100
AcDbVertex
100
AcDb3dPolylineVertex
 10
386773.236643
 20
803955.153409
 30
2.243925
 70
    32
  0
VERTEX
  5
210
330
6D
100
AcDbEntity
  8
0
100
AcDbVertex
100
AcDb3dPolylineVertex
 10
386774.678653
 20
803945.419838
 30
2.24177
 70
    32
  0
VERTEX
  5
211
330
6D
100
AcDbEntity
  8
0
100
AcDbVertex
100
AcDb3dPolylineVertex
 10
386776.120664
 20
803935.686268
 30
2.239616
 70
    32
  0
VERTEX
  5
212
330
6D
100
AcDbEntity
  8
0
100
AcDbVertex
100
AcDb3dPolylineVertex
 10
386777.562674
 20
803925.952698
 30
2.237462
 70
    32
  0
VERTEX
  5
213
330
6D
100
AcDbEntity
  8
0
100
AcDbVertex
100
AcDb3dPolylineVertex
 10
386779.004684
 20
803916.219128
 30
2.235308
 70
    32
  0
VERTEX
  5
214
330
6D
100
AcDbEntity
  8
0
100
AcDbVertex
100
AcDb3dPolylineVertex
 10
386780.446695
 20
803906.485557
 30
2.233154
 70
    32
  0
VERTEX
  5
215
330
6D
100
AcDbEntity
  8
0
100
AcDbVertex
100
AcDb3dPolylineVertex
 10
386781.888705
 20
803896.751987
 30
2.230999
 70
    32
  0
VERTEX
  5
216
330
6D
100
AcDbEntity
  8
0
100
AcDbVertex
100
AcDb3dPolylineVertex
 10
386783.330716
 20
803887.018417
 30
2.228845
 70
    32
  0
VERTEX
  5
217
330
6D
100
AcDbEntity
  8
0
100
AcDbVertex
100
AcDb3dPolylineVertex
 10
386784.772726
 20
803877.284847
 30
2.226691
 70
    32
  0
VERTEX
  5
218
330
6D
100
AcDbEntity
  8
0
100
AcDbVertex
100
AcDb3dPolylineVertex
 10
386786.214736
 20
803867.551276
 30
2.224537
 70
    32
  0
VERTEX
  5
219
330
6D
100
AcDbEntity
  8
0
100
AcDbVertex
100
AcDb3dPolylineVertex
 10
386787.656747
 20
803857.817706
 30
2.222383
 70
    32
  0
VERTEX
  5
21A
330
6D
100
AcDbEntity
  8
0
100
AcDbVertex
100
AcDb3dPolylineVertex
 10
386789.098757
 20
803848.084136
 30
2.220228
 70
    32
  0
VERTEX
  5
21B
330
6D
100
AcDbEntity
  8
0
100
AcDbVertex
100
AcDb3dPolylineVertex
 10
386790.540768
 20
803838.350565
 30
2.218074
 70
    32
  0
VERTEX
  5
21C
330
6D
100
AcDbEntity
  8
0
100
AcDbVertex
100
AcDb3dPolylineVertex
 10
386791.982778
 20
803828.616995
 30
2.21592
 70
    32
  0
VERTEX
  5
21D
330
6D
100
AcDbEntity
  8
0
100
AcDbVertex
100
AcDb3dPolylineVertex
 10
386793.424788
 20
803818.883425
 30
2.213766
 70
    32
  0
VERTEX
  5
21E
330
6D
100
AcDbEntity
  8
0
100
AcDbVertex
100
AcDb3dPolylineVertex
 10
386794.866799
 20
803809.149855
 30
2.211612
 70
    32
  0
VERTEX
  5
21F
330
6D
100
AcDbEntity
  8
0
100
AcDbVertex
100
AcDb3dPolylineVertex
 10
386796.308809
 20
803799.416284
 30
2.209457
 70
    32
  0
VERTEX
  5
220
330
6D
100
AcDbEntity
  8
0
100
AcDbVertex
100
AcDb3dPolylineVertex
 10
386797.75082
 20
803789.682714
 30
2.207303
 70
    32
  0
VERTEX
  5
221
330
6D
100
AcDbEntity
  8
0
100
AcDbVertex
100
AcDb3dPolylineVertex
 10
386799.19283
 20
803779.949144
 30
2.205149
 70
    32
  0
VERTEX
  5
222
330
6D
100
AcDbEntity
  8
0
100
AcDbVertex
100
AcDb3dPolylineVertex
 10
386800.634841
 20
803770.215574
 30
2.202995
 70
    32
  0
VERTEX
  5
223
330
6D
100
AcDbEntity
  8
0
100
AcDbVertex
100
AcDb3dPolylineVertex
 10
386802.076851
 20
803760.482003
 30
2.200841
 70
    32
  0
VERTEX
  5
224
330
6D
100
AcDbEntity
  8
0
100
AcDbVertex
100
AcDb3dPolylineVertex
 10
386792.126979
 20
803761.34721
 30
2.198654
 70
    32
  0
VERTEX
  5
225
330
6D
100
AcDbEntity
  8
0
100
AcDbVertex
100
AcDb3dPolylineVertex
 10
386782.177107
 20
803762.212416
 30
2.196468
 70
    32
  0
VERTEX
  5
226
330
6D
100
AcDbEntity
  8
0
100
AcDbVertex
100
AcDb3dPolylineVertex
 10
386772.227235
 20
803763.077622
 30
2.194281
 70
    32
  0
VERTEX
  5
227
330
6D
100
AcDbEntity
  8
0
100
AcDbVertex
100
AcDb3dPolylineVertex
 10
386762.277364
 20
803763.942828
 30
2.192095
 70
    32
  0
VERTEX
  5
228
330
6D
100
AcDbEntity
  8
0
100
AcDbVertex
100
AcDb3dPolylineVertex
 10
386752.327492
 20
803764.808035
 30
2.189908
 70
    32
  0
VERTEX
  5
229
330
6D
100
AcDbEntity
  8
0
100
AcDbVertex
100
AcDb3dPolylineVertex
 10
386742.37762
 20
803765.673241
 30
2.187721
 70
    32
  0
VERTEX
  5
22A
330
6D
100
AcDbEntity
  8
0
100
AcDbVertex
100
AcDb3dPolylineVertex
 10
386732.427748
 20
803766.538447
 30
2.185535
 70
    32
  0
VERTEX
  5
22B
330
6D
100
AcDbEntity
  8
0
100
AcDbVertex
100
AcDb3dPolylineVertex
 10
386722.477876
 20
803767.403653
 30
2.183348
 70
    32
  0
VERTEX
  5
22C
330
6D
100
AcDbEntity
  8
0
100
AcDbVertex
100
AcDb3dPolylineVertex
 10
386712.528005
 20
803768.26886
 30
2.181162
 70
    32
  0
VERTEX
  5
22D
330
6D
100
AcDbEntity
  8
0
100
AcDbVertex
100
AcDb3dPolylineVertex
 10
386702.578133
 20
803769.134066
 30
2.178975
 70
    32
  0
VERTEX
  5
22E
330
6D
100
AcDbEntity
  8
0
100
AcDbVertex
100
AcDb3dPolylineVertex
 10
386692.628261
 20
803769.999272
 30
2.176789
 70
    32
  0
VERTEX
  5
22F
330
6D
100
AcDbEntity
  8
0
100
AcDbVertex
100
AcDb3dPolylineVertex
 10
386682.678389
 20
803770.864478
 30
2.174602
 70
    32
  0
VERTEX
  5
230
330
6D
100
AcDbEntity
  8
0
100
AcDbVertex
100
AcDb3dPolylineVertex
 10
386672.728517
 20
803771.729685
 30
2.172416
 70
    32
  0
VERTEX
  5
231
330
6D
100
AcDbEntity
  8
0
100
AcDbVertex
100
AcDb3dPolylineVertex
 10
386667.260894
 20
803779.696792
 30
2.1703
 70
    32
  0
VERTEX
  5
232
330
6D
100
AcDbEntity
  8
0
100
AcDbVertex
100
AcDb3dPolylineVertex
 10
386661.793272
 20
803787.6639
 30
2.168185
 70
    32
  0
VERTEX
  5
233
330
6D
100
AcDbEntity
  8
0
100
AcDbVertex
100
AcDb3dPolylineVertex
 10
386656.325649
 20
803795.631007
 30
2.16607
 70
    32
  0
VERTEX
  5
234
330
6D
100
AcDbEntity
  8
0
100
AcDbVertex
100
AcDb3dPolylineVertex
 10
386650.858026
 20
803803.598115
 30
2.163954
 70
    32
  0
VERTEX
  5
235
330
6D
100
AcDbEntity
  8
0
100
AcDbVertex
100
AcDb3dPolylineVertex
 10
386645.390403
 20
803811.565222
 30
2.161839
 70
    32
  0
VERTEX
  5
236
330
6D
100
AcDbEntity
  8
0
100
AcDbVertex
100
AcDb3dPolylineVertex
 10
386639.92278
 20
803819.53233
 30
2.159723
 70
    32
  0
VERTEX
  5
237
330
6D
100
AcDbEntity
  8
0
100
AcDbVertex
100
AcDb3dPolylineVertex
 10
386634.455158
 20
803827.499437
 30
2.157608
 70
    32
  0
VERTEX
  5
238
330
6D
100
AcDbEntity
  8
0
100
AcDbVertex
100
AcDb3dPolylineVertex
 10
386628.987535
 20
803835.466545
 30
2.155492
 70
    32
  0
VERTEX
  5
239
330
6D
100
AcDbEntity
  8
0
100
AcDbVertex
100
AcDb3dPolylineVertex
 10
386623.519912
 20
803843.433652
 30
2.153377
 70
    32
  0
VERTEX
  5
23A
330
6D
100
AcDbEntity
  8
0
100
AcDbVertex
100
AcDb3dPolylineVertex
 10
386618.052289
 20
803851.40076
 30
2.151261
 70
    32
  0
VERTEX
  5
23B
330
6D
100
AcDbEntity
  8
0
100
AcDbVertex
100
AcDb3dPolylineVertex
 10
386612.584666
 20
803859.367867
 30
2.149146
 70
    32
  0
VERTEX
  5
23C
330
6D
100
AcDbEntity
  8
0
100
AcDbVertex
100
AcDb3dPolylineVertex
 10
386607.117044
 20
803867.334975
 30
2.147031
 70
    32
  0
VERTEX
  5
23D
330
6D
100
AcDbEntity
  8
0
100
AcDbVertex
100
AcDb3dPolylineVertex
 10
386601.649421
 20
803875.302082
 30
2.144915
 70
    32
  0
VERTEX
  5
23E
330
6D
100
AcDbEntity
  8
0
100
AcDbVertex
100
AcDb3dPolylineVertex
 10
386596.181798
 20
803883.26919
 30
2.1428
 70
    32
  0
VERTEX
  5
23F
330
6D
100
AcDbEntity
  8
0
100
AcDbVertex
100
AcDb3dPolylineVertex
 10
386590.714175
 20
803891.236297
 30
2.140684
 70
    32
  0
VERTEX
  5
240
330
6D
100
AcDbEntity
  8
0
100
AcDbVertex
100
AcDb3dPolylineVertex
 10
386585.246552
 20
803899.203405
 30
2.138569
 70
    32
  0
VERTEX
  5
241
330
6D
100
AcDbEntity
  8
0
100
AcDbVertex
100
AcDb3dPolylineVertex
 10
386579.77893
 20
803907.170512
 30
2.136453
 70
    32
  0
VERTEX
  5
242
330
6D
100
AcDbEntity
  8
0
100
AcDbVertex
100
AcDb3dPolylineVertex
 10
386574.311307
 20
803915.13762
 30
2.134338
 70
    32
  0
VERTEX
  5
243
330
6D
100
AcDbEntity
  8
0
100
AcDbVertex
100
AcDb3dPolylineVertex
 10
386567.703294
 20
803922.026824
 30
2.132248
 70
    32
  0
VERTEX
  5
244
330
6D
100
AcDbEntity
  8
0
100
AcDbVertex
100
AcDb3dPolylineVertex
 10
386561.095281
 20
803928.916029
 30
2.130158
 70
    32
  0
VERTEX
  5
245
330
6D
100
AcDbEntity
  8
0
100
AcDbVertex
100
AcDb3dPolylineVertex
 10
386554.487269
 20
803935.805234
 30
2.128068
 70
    32
  0
VERTEX
  5
246
330
6D
100
AcDbEntity
  8
0
100
AcDbVertex
100
AcDb3dPolylineVertex
 10
386547.879256
 20
803942.694439
 30
2.125978
 70
    32
  0
VERTEX
  5
247
330
6D
100
AcDbEntity
  8
0
100
AcDbVertex
100
AcDb3dPolylineVertex
 10
386541.271243
 20
803949.583643
 30
2.123888
 70
    32
  0
VERTEX
  5
248
330
6D
100
AcDbEntity
  8
0
100
AcDbVertex
100
AcDb3dPolylineVertex
 10
386534.663231
 20
803956.472848
 30
2.121799
 70
    32
  0
VERTEX
  5
249
330
6D
100
AcDbEntity
  8
0
100
AcDbVertex
100
AcDb3dPolylineVertex
 10
386528.055218
 20
803963.362053
 30
2.119709
 70
    32
  0
VERTEX
  5
24A
330
6D
100
AcDbEntity
  8
0
100
AcDbVertex
100
AcDb3dPolylineVertex
 10
386521.447205
 20
803970.251258
 30
2.117619
 70
    32
  0
VERTEX
  5
24B
330
6D
100
AcDbEntity
  8
0
100
AcDbVertex
100
AcDb3dPolylineVertex
 10
386514.839192
 20
803977.140462
 30
2.115529
 70
    32
  0
VERTEX
  5
24C
330
6D
100
AcDbEntity
  8
0
100
AcDbVertex
100
AcDb3dPolylineVertex
 10
386508.23118
 20
803984.029667
 30
2.113439
 70
    32
  0
VERTEX
  5
24D
330
6D
100
AcDbEntity
  8
0
100
AcDbVertex
100
AcDb3dPolylineVertex
 10
386501.623167
 20
803990.918872
 30
2.111349
 70
    32
  0
VERTEX
  5
24E
330
6D
100
AcDbEntity
  8
0
100
AcDbVertex
100
AcDb3dPolylineVertex
 10
386495.015154
 20
803997.808077
 30
2.109259
 70
    32
  0
VERTEX
  5
24F
330
6D
100
AcDbEntity
  8
0
100
AcDbVertex
100
AcDb3dPolylineVertex
 10
386488.407142
 20
804004.697281
 30
2.107169
 70
    32
  0
VERTEX
  5
250
330
6D
100
AcDbEntity
  8
0
100
AcDbVertex
100
AcDb3dPolylineVertex
 10
386481.799129
 20
804011.586486
 30
2.105079
 70
    32
  0
VERTEX
  5
251
330
6D
100
AcDbEntity
  8
0
100
AcDbVertex
100
AcDb3dPolylineVertex
 10
386475.191116
 20
804018.475691
 30
2.10299
 70
    32
  0
VERTEX
  5
252
330
6D
100
AcDbEntity
  8
0
100
AcDbVertex
100
AcDb3dPolylineVertex
 10
386468.583104
 20
804025.364895
 30
2.1009
 70
    32
  0
VERTEX
  5
253
330
6D
100
AcDbEntity
  8
0
100
AcDbVertex
100
AcDb3dPolylineVertex
 10
386461.975091
 20
804032.2541
 30
2.09881
 70
    32
  0
VERTEX
  5
254
330
6D
100
AcDbEntity
  8
0
100
AcDbVertex
100
AcDb3dPolylineVertex
 10
386455.367078
 20
804039.143305
 30
2.09672
 70
    32
  0
VERTEX
  5
255
330
6D
100
AcDbEntity
  8
0
100
AcDbVertex
100
AcDb3dPolylineVertex
 10
386448.759065
 20
804046.03251
 30
2.09463
 70
    32
  0
VERTEX
  5
256
330
6D
100
AcDbEntity
  8
0
100
AcDbVertex
100
AcDb3dPolylineVertex
 10
386442.151053
 20
804052.921714
 30
2.09254
 70
    32
  0
VERTEX
  5
257
330
6D
100
AcDbEntity
  8
0
100
AcDbVertex
100
AcDb3dPolylineVertex
 10
386438.181283
 20
804062.019104
 30
2.090367
 70
    32
  0
VERTEX
  5
258
330
6D
100
AcDbEntity
  8
0
100
AcDbVertex
100
AcDb3dPolylineVertex
 10
386434.211513
 20
804071.116493
 30
2.088194
 70
    32
  0
VERTEX
  5
259
330
6D
100
AcDbEntity
  8
0
100
AcDbVertex
100
AcDb3dPolylineVertex
 10
386430.241743
 20
804080.213882
 30
2.086021
 70
    32
  0
VERTEX
  5
25A
330
6D
100
AcDbEntity
  8
0
100
AcDbVertex
100
AcDb3dPolylineVertex
 10
386426.271973
 20
804089.311271
 30
2.083848
 70
    32
  0
VERTEX
  5
25B
330
6D
100
AcDbEntity
  8
0
100
AcDbVertex
100
AcDb3dPolylineVertex
 10
386422.302204
 20
804098.40866
 30
2.081675
 70
    32
  0
VERTEX
  5
25C
330
6D
100
AcDbEntity
  8
0
100
AcDbVertex
100
AcDb3dPolylineVertex
 10
386418.332434
 20
804107.50605
 30
2.079502
 70
    32
  0
VERTEX
  5
25D
330
6D
100
AcDbEntity
  8
0
100
AcDbVertex
100
AcDb3dPolylineVertex
 10
386414.362664
 20
804116.603439
 30
2.077329
 70
    32
  0
VERTEX
  5
25E
330
6D
100
AcDbEntity
  8
0
100
AcDbVertex
100
AcDb3dPolylineVertex
 10
386410.392894
 20
804125.700828
 30
2.075156
 70
    32
  0
VERTEX
  5
25F
330
6D
100
AcDbEntity
  8
0
100
AcDbVertex
100
AcDb3dPolylineVertex
 10
386406.423124
 20
804134.798217
 30
2.072983
 70
    32
  0
VERTEX
  5
260
330
6D
100
AcDbEntity
  8
0
100
AcDbVertex
100
AcDb3dPolylineVertex
 10
386402.453354
 20
804143.895606
 30
2.07081
 70
    32
  0
VERTEX
  5
261
330
6D
100
AcDbEntity
  8
0
100
AcDbVertex
100
AcDb3dPolylineVertex
 10
386398.483585
 20
804152.992996
 30
2.068637
 70
    32
  0
VERTEX
  5
262
330
6D
100
AcDbEntity
  8
0
100
AcDbVertex
100
AcDb3dPolylineVertex
 10
386394.513815
 20
804162.090385
 30
2.066464
 70
    32
  0
VERTEX
  5
263
330
6D
100
AcDbEntity
  8
0
100
AcDbVertex
100
AcDb3dPolylineVertex
 10
386390.544045
 20
804171.187774
 30
2.064291
 70
    32
  0
VERTEX
  5
264
330
6D
100
AcDbEntity
  8
0
100
AcDbVertex
100
AcDb3dPolylineVertex
 10
386386.574275
 20
804180.285163
 30
2.062118
 70
    32
  0
VERTEX
  5
265
330
6D
100
AcDbEntity
  8
0
100
AcDbVertex
100
AcDb3dPolylineVertex
 10
386382.604505
 20
804189.382552
 30
2.059945
 70
    32
  0
VERTEX
  5
266
330
6D
100
AcDbEntity
  8
0
100
AcDbVertex
100
AcDb3dPolylineVertex
 10
386378.634735
 20
804198.479942
 30
2.057772
 70
    32
  0
VERTEX
  5
267
330
6D
100
AcDbEntity
  8
0
100
AcDbVertex
100
AcDb3dPolylineVertex
 10
386374.664966
 20
804207.577331
 30
2.055599
 70
    32
  0
VERTEX
  5
268
330
6D
100
AcDbEntity
  8
0
100
AcDbVertex
100
AcDb3dPolylineVertex
 10
386367.251721
 20
804213.71243
 30
2.053492
 70
    32
  0
VERTEX
  5
269
330
6D
100
AcDbEntity
  8
0
100
AcDbVertex
100
AcDb3dPolylineVertex
 10
386359.838477
 20
804219.847528
 30
2.051385
 70
    32
  0
VERTEX
  5
26A
330
6D
100
AcDbEntity
  8
0
100
AcDbVertex
100
AcDb3dPolylineVertex
 10
386352.425232
 20
804225.982627
 30
2.049279
 70
    32
  0
VERTEX
  5
26B
330
6D
100
AcDbEntity
  8
0
100
AcDbVertex
100
AcDb3dPolylineVertex
 10
386345.011988
 20
804232.117726
 30
2.047172
 70
    32
  0
VERTEX
  5
26C
330
6D
100
AcDbEntity
  8
0
100
AcDbVertex
100
AcDb3dPolylineVertex
 10
386337.598743
 20
804238.252825
 30
2.045065
 70
    32
  0
VERTEX
  5
26D
330
6D
100
AcDbEntity
  8
0
100
AcDbVertex
100
AcDb3dPolylineVertex
 10
386330.185499
 20
804244.387924
 30
2.042959
 70
    32
  0
VERTEX
  5
26E
330
6D
100
AcDbEntity
  8
0
100
AcDbVertex
100
AcDb3dPolylineVertex
 10
386322.772255
 20
804250.523023
 30
2.040852
 70
    32
  0
VERTEX
  5
26F
330
6D
100
AcDbEntity
  8
0
100
AcDbVertex
100
AcDb3dPolylineVertex
 10
386315.35901
 20
804256.658121
 30
2.038745
 70
    32
  0
VERTEX
  5
270
330
6D
100
AcDbEntity
  8
0
100
AcDbVertex
100
AcDb3dPolylineVertex
 10
386307.945766
 20
804262.79322
 30
2.036639
 70
    32
  0
VERTEX
  5
271
330
6D
100
AcDbEntity
  8
0
100
AcDbVertex
100
AcDb3dPolylineVertex
 10
386300.532521
 20
804268.928319
 30
2.034532
 70
    32
  0
VERTEX
  5
272
330
6D
100
AcDbEntity
  8
0
100
AcDbVertex
100
AcDb3dPolylineVertex
 10
386293.119277
 20
804275.063418
 30
2.032425
 70
    32
  0
VERTEX
  5
273
330
6D
100
AcDbEntity
  8
0
100
AcDbVertex
100
AcDb3dPolylineVertex
 10
386283.277556
 20
804275.844507
 30
2.030264
 70
    32
  0
VERTEX
  5
274
330
6D
100
AcDbEntity
  8
0
100
AcDbVertex
100
AcDb3dPolylineVertex
 10
386273.435835
 20
804276.625596
 30
2.028103
 70
    32
  0
VERTEX
  5
275
330
6D
100
AcDbEntity
  8
0
100
AcDbVertex
100
AcDb3dPolylineVertex
 10
386263.594114
 20
804277.406685
 30
2.025941
 70
    32
  0
VERTEX
  5
276
330
6D
100
AcDbEntity
  8
0
100
AcDbVertex
100
AcDb3dPolylineVertex
 10
386253.752393
 20
804278.187774
 30
2.02378
 70
    32
  0
VERTEX
  5
277
330
6D
100
AcDbEntity
  8
0
100
AcDbVertex
100
AcDb3dPolylineVertex
 10
386243.910672
 20
804278.968863
 30
2.021618
 70
    32
  0
VERTEX
  5
278
330
6D
100
AcDbEntity
  8
0
100
AcDbVertex
100
AcDb3dPolylineVertex
 10
386234.068951
 20
804279.749952
 30
2.019457
 70
    32
  0
VERTEX
  5
279
330
6D
100
AcDbEntity
  8
0
100
AcDbVertex
100
AcDb3dPolylineVertex
 10
386224.22723
 20
804280.531041
 30
2.017296
 70
    32
  0
VERTEX
  5
27A
330
6D
100
AcDbEntity
  8
0
100
AcDbVertex
100
AcDb3dPolylineVertex
 10
386214.385509
 20
804281.31213
 30
2.015134
 70
    32
  0
VERTEX
  5
27B
330
6D
100
AcDbEntity
  8
0
100
AcDbVertex
100
AcDb3dPolylineVertex
 10
386204.543788
 20
804282.093219
 30
2.012973
 70
    32
  0
VERTEX
  5
27C
330
6D
100
AcDbEntity
  8
0
100
AcDbVertex
100
AcDb3dPolylineVertex
 10
386194.702067
 20
804282.874308
 30
2.010811
 70
    32
  0
VERTEX
  5
27D
330
6D
100
AcDbEntity
  8
0
100
AcDbVertex
100
AcDb3dPolylineVertex
 10
386184.860345
 20
804283.655397
 30
2.00865
 70
    32
  0
VERTEX
  5
27E
330
6D
100
AcDbEntity
  8
0
100
AcDbVertex
100
AcDb3dPolylineVertex
 10
386175.018624
 20
804284.436486
 30
2.006489
 70
    32
  0
VERTEX
  5
27F
330
6D
100
AcDbEntity
  8
0
100
AcDbVertex
100
AcDb3dPolylineVertex
 10
386165.176903
 20
804285.217575
 30
2.004327
 70
    32
  0
VERTEX
  5
280
330
6D
100
AcDbEntity
  8
0
100
AcDbVertex
100
AcDb3dPolylineVertex
 10
386155.335182
 20
804285.998664
 30
2.002166
 70
    32
  0
VERTEX
  5
281
330
6D
100
AcDbEntity
  8
0
100
AcDbVertex
100
AcDb3dPolylineVertex
 10
386145.493461
 20
804286.779752
 30
2.000004
 70
    32
  0
VERTEX
  5
282
330
6D
100
AcDbEntity
  8
0
100
AcDbVertex
100
AcDb3dPolylineVertex
 10
386135.65174
 20
804287.560841
 30
1.997843
 70
    32
  0
VERTEX
  5
283
330
6D
100
AcDbEntity
  8
0
100
AcDbVertex
100
AcDb3dPolylineVertex
 10
386125.810019
 20
804288.34193
 30
1.995682
 70
    32
  0
VERTEX
  5
284
330
6D
100
AcDbEntity
  8
0
100
AcDbVertex
100
AcDb3dPolylineVertex
 10
386115.968298
 20
804289.123019
 30
1.99352
 70
    32
  0
VERTEX
  5
285
330
6D
100
AcDbEntity
  8
0
100
AcDbVertex
100
AcDb3dPolylineVertex
 10
386117.126148
 20
804279.364002
 30
1.991369
 70
    32
  0
VERTEX
  5
286
330
6D
100
AcDbEntity
  8
0
100
AcDbVertex
100
AcDb3dPolylineVertex
 10
386118.283997
 20
804269.604984
 30
1.989217
 70
    32
  0
VERTEX
  5
287
330
6D
100
AcDbEntity
  8
0
100
AcDbVertex
100
AcDb3dPolylineVertex
 10
386119.441847
 20
804259.845967
 30
1.987066
 70
    32
  0
VERTEX
  5
288
330
6D
100
AcDbEntity
  8
0
100
AcDbVertex
100
AcDb3dPolylineVertex
 10
386120.599696
 20
804250.086949
 30
1.984914
 70
    32
  0
VERTEX
  5
289
330
6D
100
AcDbEntity
  8
0
100
AcDbVertex
100
AcDb3dPolylineVertex
 10
386121.757546
 20
804240.327932
 30
1.982763
 70
    32
  0
VERTEX
  5
28A
330
6D
100
AcDbEntity
  8
0
100
AcDbVertex
100
AcDb3dPolylineVertex
 10
386122.915395
 20
804230.568914
 30
1.980611
 70
    32
  0
VERTEX
  5
28B
330
6D
100
AcDbEntity
  8
0
100
AcDbVertex
100
AcDb3dPolylineVertex
 10
386124.073245
 20
804220.809897
 30
1.97846
 70
    32
  0
VERTEX
  5
28C
330
6D
100
AcDbEntity
  8
0
100
AcDbVertex
100
AcDb3dPolylineVertex
 10
386125.231094
 20
804211.050879
 30
1.976308
 70
    32
  0
VERTEX
  5
28D
330
6D
100
AcDbEntity
  8
0
100
AcDbVertex
100
AcDb3dPolylineVertex
 10
386126.388944
 20
804201.291862
 30
1.974157
 70
    32
  0
VERTEX
  5
28E
330
6D
100
AcDbEntity
  8
0
100
AcDbVertex
100
AcDb3dPolylineVertex
 10
386127.546794
 20
804191.532844
 30
1.972005
 70
    32
  0
VERTEX
  5
28F
330
6D
100
AcDbEntity
  8
0
100
AcDbVertex
100
AcDb3dPolylineVertex
 10
386128.704643
 20
804181.773827
 30
1.969854
 70
    32
  0
VERTEX
  5
290
330
6D
100
AcDbEntity
  8
0
100
AcDbVertex
100
AcDb3dPolylineVertex
 10
386129.862493
 20
804172.014809
 30
1.967702
 70
    32
  0
VERTEX
  5
291
330
6D
100
AcDbEntity
  8
0
100
AcDbVertex
100
AcDb3dPolylineVertex
 10
386131.020342
 20
804162.255792
 30
1.965551
 70
    32
  0
VERTEX
  5
292
330
6D
100
AcDbEntity
  8
0
100
AcDbVertex
100
AcDb3dPolylineVertex
 10
386132.178192
 20
804152.496774
 30
1.963399
 70
    32
  0
VERTEX
  5
293
330
6D
100
AcDbEntity
  8
0
100
AcDbVertex
100
AcDb3dPolylineVertex
 10
386133.336041
 20
804142.737757
 30
1.961248
 70
    32
  0
VERTEX
  5
294
330
6D
100
AcDbEntity
  8
0
100
AcDbVertex
100
AcDb3dPolylineVertex
 10
386134.493891
 20
804132.978739
 30
1.959096
 70
    32
  0
VERTEX
  5
295
330
6D
100
AcDbEntity
  8
0
100
AcDbVertex
100
AcDb3dPolylineVertex
 10
386135.65174
 20
804123.219722
 30
1.956945
 70
    32
  0
VERTEX
  5
296
330
6D
100
AcDbEntity
  8
0
100
AcDbVertex
100
AcDb3dPolylineVertex
 10
386135.969215
 20
804113.378001
 30
1.954789
 70
    32
  0
VERTEX
  5
297
330
6D
100
AcDbEntity
  8
0
100
AcDbVertex
100
AcDb3dPolylineVertex
 10
386136.28669
 20
804103.53628
 30
1.952633
 70
    32
  0
VERTEX
  5
298
330
6D
100
AcDbEntity
  8
0
100
AcDbVertex
100
AcDb3dPolylineVertex
 10
386136.604165
 20
804093.694559
 30
1.950478
 70
    32
  0
VERTEX
  5
299
330
6D
100
AcDbEntity
  8
0
100
AcDbVertex
100
AcDb3dPolylineVertex
 10
386136.92164
 20
804083.852838
 30
1.948322
 70
    32
  0
VERTEX
  5
29A
330
6D
100
AcDbEntity
  8
0
100
AcDbVertex
100
AcDb3dPolylineVertex
 10
386137.239115
 20
804074.011117
 30
1.946166
 70
    32
  0
VERTEX
  5
29B
330
6D
100
AcDbEntity
  8
0
100
AcDbVertex
100
AcDb3dPolylineVertex
 10
386137.55659
 20
804064.169396
 30
1.94401
 70
    32
  0
VERTEX
  5
29C
330
6D
100
AcDbEntity
  8
0
100
AcDbVertex
100
AcDb3dPolylineVertex
 10
386137.874064
 20
804054.327675
 30
1.941855
 70
    32
  0
VERTEX
  5
29D
330
6D
100
AcDbEntity
  8
0
100
AcDbVertex
100
AcDb3dPolylineVertex
 10
386138.191539
 20
804044.485953
 30
1.939699
 70
    32
  0
VERTEX
  5
29E
330
6D
100
AcDbEntity
  8
0
100
AcDbVertex
100
AcDb3dPolylineVertex
 10
386138.509014
 20
804034.644232
 30
1.937543
 70
    32
  0
VERTEX
  5
29F
330
6D
100
AcDbEntity
  8
0
100
AcDbVertex
100
AcDb3dPolylineVertex
 10
386138.826489
 20
804024.802511
 30
1.935387
 70
    32
  0
VERTEX
  5
2A0
330
6D
100
AcDbEntity
  8
0
100
AcDbVertex
100
AcDb3dPolylineVertex
 10
386139.143964
 20
804014.96079
 30
1.933232
 70
    32
  0
VERTEX
  5
2A1
330
6D
100
AcDbEntity
  8
0
100
AcDbVertex
100
AcDb3dPolylineVertex
 10
386139.461439
 20
804005.119069
 30
1.931076
 70
    32
  0
VERTEX
  5
2A2
330
6D
100
AcDbEntity
  8
0
100
AcDbVertex
100
AcDb3dPolylineVertex
 10
386139.778914
 20
803995.277348
 30
1.92892
 70
    32
  0
VERTEX
  5
2A3
330
6D
100
AcDbEntity
  8
0
100
AcDbVertex
100
AcDb3dPolylineVertex
 10
386140.096388
 20
803985.435627
 30
1.926765
 70
    32
  0
VERTEX
  5
2A4
330
6D
100
AcDbEntity
  8
0
100
AcDbVertex
100
AcDb3dPolylineVertex
 10
386140.413863
 20
803975.593906
 30
1.924609
 70
    32
  0
VERTEX
  5
2A5
330
6D
100
AcDbEntity
  8
0
100
AcDbVertex
100
AcDb3dPolylineVertex
 10
386140.731338
 20
803965.752185
 30
1.922453
 70
    32
  0
VERTEX
  5
2A6
330
6D
100
AcDbEntity
  8
0
100
AcDbVertex
100
AcDb3dPolylineVertex
 10
386141.048813
 20
803955.910464
 30
1.920297
 70
    32
  0
VERTEX
  5
2A7
330
6D
100
AcDbEntity
  8
0
100
AcDbVertex
100
AcDb3dPolylineVertex
 10
386141.366288
 20
803946.068743
 30
1.918142
 70
    32
  0
VERTEX
  5
2A8
330
6D
100
AcDbEntity
  8
0
100
AcDbVertex
100
AcDb3dPolylineVertex
 10
386141.683763
 20
803936.227022
 30
1.915986
 70
    32
  0
VERTEX
  5
2A9
330
6D
100
AcDbEntity
  8
0
100
AcDbVertex
100
AcDb3dPolylineVertex
 10
386142.001238
 20
803926.385301
 30
1.91383
 70
    32
  0
VERTEX
  5
2AA
330
6D
100
AcDbEntity
  8
0
100
AcDbVertex
100
AcDb3dPolylineVertex
 10
386142.318713
 20
803916.54358
 30
1.911674
 70
    32
  0
VERTEX
  5
2AB
330
6D
100
AcDbEntity
  8
0
100
AcDbVertex
100
AcDb3dPolylineVertex
 10
386142.636187
 20
803906.701859
 30
1.909519
 70
    32
  0
VERTEX
  5
2AC
330
6D
100
AcDbEntity
  8
0
100
AcDbVertex
100
AcDb3dPolylineVertex
 10
386142.953662
 20
803896.860138
 30
1.907363
 70
    32
  0
VERTEX
  5
2AD
330
6D
100
AcDbEntity
  8
0
100
AcDbVertex
100
AcDb3dPolylineVertex
 10
386143.271137
 20
803887.018417
 30
1.905207
 70
    32
  0
VERTEX
  5
2AE
330
6D
100
AcDbEntity
  8
0
100
AcDbVertex
100
AcDb3dPolylineVertex
 10
386143.588612
 20
803877.176696
 30
1.903051
 70
    32
  0
VERTEX
  5
2AF
330
6D
100
AcDbEntity
  8
0
100
AcDbVertex
100
AcDb3dPolylineVertex
 10
386143.906087
 20
803867.334975
 30
1.900896
 70
    32
  0
VERTEX
  5
2B0
330
6D
100
AcDbEntity
  8
0
100
AcDbVertex
100
AcDb3dPolylineVertex
 10
386144.223562
 20
803857.493254
 30
1.89874
 70
    32
  0
VERTEX
  5
2B1
330
6D
100
AcDbEntity
  8
0
100
AcDbVertex
100
AcDb3dPolylineVertex
 10
386144.541037
 20
803847.651533
 30
1.896584
 70
    32
  0
VERTEX
  5
2B2
330
6D
100
AcDbEntity
  8
0
100
AcDbVertex
100
AcDb3dPolylineVertex
 10
386144.858512
 20
803837.809812
 30
1.894428
 70
    32
  0
VERTEX
  5
2B3
330
6D
100
AcDbEntity
  8
0
100
AcDbVertex
100
AcDb3dPolylineVertex
 10
386145.175986
 20
803827.968091
 30
1.892273
 70
    32
  0
VERTEX
  5
2B4
330
6D
100
AcDbEntity
  8
0
100
AcDbVertex
100
AcDb3dPolylineVertex
 10
386145.493461
 20
803818.126369
 30
1.890117
 70
    32
  0
VERTEX
  5
2B5
330
6D
100
AcDbEntity
  8
0
100
AcDbVertex
100
AcDb3dPolylineVertex
 10
386145.810936
 20
803808.284648
 30
1.887961
 70
    32
  0
VERTEX
  5
2B6
330
6D
100
AcDbEntity
  8
0
100
AcDbVertex
100
AcDb3dPolylineVertex
 10
386146.128411
 20
803798.442927
 30
1.885805
 70
    32
  0
VERTEX
  5
2B7
330
6D
100
AcDbEntity
  8
0
100
AcDbVertex
100
AcDb3dPolylineVertex
 10
386146.445886
 20
803788.601206
 30
1.88365
 70
    32
  0
VERTEX
  5
2B8
330
6D
100
AcDbEntity
  8
0
100
AcDbVertex
100
AcDb3dPolylineVertex
 10
386146.763361
 20
803778.759485
 30
1.881494
 70
    32
  0
VERTEX
  5
2B9
330
6D
100
AcDbEntity
  8
0
100
AcDbVertex
100
AcDb3dPolylineVertex
 10
386147.080836
 20
803768.917764
 30
1.879338
 70
    32
  0
VERTEX
  5
2BA
330
6D
100
AcDbEntity
  8
0
100
AcDbVertex
100
AcDb3dPolylineVertex
 10
386147.398311
 20
803759.076043
 30
1.877183
 70
    32
  0
VERTEX
  5
2BB
330
6D
100
AcDbEntity
  8
0
100
AcDbVertex
100
AcDb3dPolylineVertex
 10
386147.715785
 20
803749.234322
 30
1.875027
 70
    32
  0
VERTEX
  5
2BC
330
6D
100
AcDbEntity
  8
0
100
AcDbVertex
100
AcDb3dPolylineVertex
 10
386148.03326
 20
803739.392601
 30
1.872871
 70
    32
  0
VERTEX
  5
2BD
330
6D
100
AcDbEntity
  8
0
100
AcDbVertex
100
AcDb3dPolylineVertex
 10
386148.350735
 20
803729.55088
 30
1.870715
 70
    32
  0
VERTEX
  5
2BE
330
6D
100
AcDbEntity
  8
0
100
AcDbVertex
100
AcDb3dPolylineVertex
 10
386148.66821
 20
803719.709159
 30
1.86856
 70
    32
  0
VERTEX
  5
2BF
330
6D
100
AcDbEntity
  8
0
100
AcDbVertex
100
AcDb3dPolylineVertex
 10
386148.985685
 20
803709.867438
 30
1.866404
 70
    32
  0
VERTEX
  5
2C0
330
6D
100
AcDbEntity
  8
0
100
AcDbVertex
100
AcDb3dPolylineVertex
 10
386149.30316
 20
803700.025717
 30
1.864248
 70
    32
  0
VERTEX
  5
2C1
330
6D
100
AcDbEntity
  8
0
100
AcDbVertex
100
AcDb3dPolylineVertex
 10
386149.620635
 20
803690.183996
 30
1.862092
 70
    32
  0
VERTEX
  5
2C2
330
6D
100
AcDbEntity
  8
0
100
AcDbVertex
100
AcDb3dPolylineVertex
 10
386149.93811
 20
803680.342275
 30
1.859937
 70
    32
  0
VERTEX
  5
2C3
330
6D
100
AcDbEntity
  8
0
100
AcDbVertex
100
AcDb3dPolylineVertex
 10
386150.255584
 20
803670.500554
 30
1.857781
 70
    32
  0
VERTEX
  5
2C4
330
6D
100
AcDbEntity
  8
0
100
AcDbVertex
100
AcDb3dPolylineVertex
 10
386150.573059
 20
803660.658833
 30
1.855625
 70
    32
  0
VERTEX
  5
2C5
330
6D
100
AcDbEntity
  8
0
100
AcDbVertex
100
AcDb3dPolylineVertex
 10
386150.890534
 20
803650.817112
 30
1.853469
 70
    32
  0
VERTEX
  5
2C6
330
6D
100
AcDbEntity
  8
0
100
AcDbVertex
100
AcDb3dPolylineVertex
 10
386151.208009
 20
803640.975391
 30
1.851314
 70
    32
  0
VERTEX
  5
2C7
330
6D
100
AcDbEntity
  8
0
100
AcDbVertex
100
AcDb3dPolylineVertex
 10
386151.525484
 20
803631.13367
 30
1.849158
 70
    32
  0
VERTEX
  5
2C8
330
6D
100
AcDbEntity
  8
0
100
AcDbVertex
100
AcDb3dPolylineVertex
 10
386151.842959
 20
803621.291949
 30
1.847002
 70
    32
  0
VERTEX
  5
2C9
330
6D
100
AcDbEntity
  8
0
100
AcDbVertex
100
AcDb3dPolylineVertex
 10
386152.160434
 20
803611.450228
 30
1.844846
 70
    32
  0
VERTEX
  5
2CA
330
6D
100
AcDbEntity
  8
0
100
AcDbVertex
100
AcDb3dPolylineVertex
 10
386152.477909
 20
803601.608507
 30
1.842691
 70
    32
  0
VERTEX
  5
2CB
330
6D
100
AcDbEntity
  8
0
100
AcDbVertex
100
AcDb3dPolylineVertex
 10
386152.795383
 20
803591.766785
 30
1.840535
 70
    32
  0
VERTEX
  5
2CC
330
6D
100
AcDbEntity
  8
0
100
AcDbVertex
100
AcDb3dPolylineVertex
 10
386153.112858
 20
803581.925064
 30
1.838379
 70
    32
  0
VERTEX
  5
2CD
330
6D
100
AcDbEntity
  8
0
100
AcDbVertex
100
AcDb3dPolylineVertex
 10
386153.430333
 20
803572.083343
 30
1.836224
 70
    32
  0
VERTEX
  5
2CE
330
6D
100
AcDbEntity
  8
0
100
AcDbVertex
100
AcDb3dPolylineVertex
 10
386153.747808
 20
803562.241622
 30
1.834068
 70
    32
  0
VERTEX
  5
2CF
330
6D
100
AcDbEntity
  8
0
100
AcDbVertex
100
AcDb3dPolylineVertex
 10
386154.065283
 20
803552.399901
 30
1.831912
 70
    32
  0
VERTEX
  5
2D0
330
6D
100
AcDbEntity
  8
0
100
AcDbVertex
100
AcDb3dPolylineVertex
 10
386154.382758
 20
803542.55818
 30
1.829756
 70
    32
  0
VERTEX
  5
2D1
330
6D
100
AcDbEntity
  8
0
100
AcDbVertex
100
AcDb3dPolylineVertex
 10
386154.700233
 20
803532.716459
 30
1.827601
 70
    32
  0
VERTEX
  5
2D2
330
6D
100
AcDbEntity
  8
0
100
AcDbVertex
100
AcDb3dPolylineVertex
 10
386155.017707
 20
803522.874738
 30
1.825445
 70
    32
  0
VERTEX
  5
2D3
330
6D
100
AcDbEntity
  8
0
100
AcDbVertex
100
AcDb3dPolylineVertex
 10
386155.335182
 20
803513.033017
 30
1.823289
 70
    32
  0
VERTEX
  5
2D4
330
6D
100
AcDbEntity
  8
0
100
AcDbVertex
100
AcDb3dPolylineVertex
 10
386145.399731
 20
803512.845556
 30
1.821114
 70
    32
  0
VERTEX
  5
2D5
330
6D
100
AcDbEntity
  8
0
100
AcDbVertex
100
AcDb3dPolylineVertex
 10
386135.464279
 20
803512.658094
 30
1.818938
 70
    32
  0
VERTEX
  5
2D6
330
6D
100
AcDbEntity
  8
0
100
AcDbVertex
100
AcDb3dPolylineVertex
 10
386125.528827
 20
803512.470633
 30
1.816762
 70
    32
  0
VERTEX
  5
2D7
330
6D
100
AcDbEntity
  8
0
100
AcDbVertex
100
AcDb3dPolylineVertex
 10
386115.593375
 20
803512.283172
 30
1.814587
 70
    32
  0
VERTEX
  5
2D8
330
6D
100
AcDbEntity
  8
0
100
AcDbVertex
100
AcDb3dPolylineVertex
 10
386105.657924
 20
803512.09571
 30
1.812411
 70
    32
  0
VERTEX
  5
2D9
330
6D
100
AcDbEntity
  8
0
100
AcDbVertex
100
AcDb3dPolylineVertex
 10
386095.722472
 20
803511.908249
 30
1.810236
 70
    32
  0
VERTEX
  5
2DA
330
6D
100
AcDbEntity
  8
0
100
AcDbVertex
100
AcDb3dPolylineVertex
 10
386085.78702
 20
803511.720788
 30
1.80806
 70
    32
  0
VERTEX
  5
2DB
330
6D
100
AcDbEntity
  8
0
100
AcDbVertex
100
AcDb3dPolylineVertex
 10
386075.851569
 20
803511.533326
 30
1.805885
 70
    32
  0
VERTEX
  5
2DC
330
6D
100
AcDbEntity
  8
0
100
AcDbVertex
100
AcDb3dPolylineVertex
 10
386065.916117
 20
803511.345865
 30
1.803709
 70
    32
  0
VERTEX
  5
2DD
330
6D
100
AcDbEntity
  8
0
100
AcDbVertex
100
AcDb3dPolylineVertex
 10
386055.980665
 20
803511.158404
 30
1.801534
 70
    32
  0
VERTEX
  5
2DE
330
6D
100
AcDbEntity
  8
0
100
AcDbVertex
100
AcDb3dPolylineVertex
 10
386046.045213
 20
803510.970942
 30
1.799358
 70
    32
  0
VERTEX
  5
2DF
330
6D
100
AcDbEntity
  8
0
100
AcDbVertex
100
AcDb3dPolylineVertex
 10
386036.109762
 20
803510.783481
 30
1.797183
 70
    32
  0
VERTEX
  5
2E0
330
6D
100
AcDbEntity
  8
0
100
AcDbVertex
100
AcDb3dPolylineVertex
 10
386026.17431
 20
803510.59602
 30
1.795007
 70
    32
  0
VERTEX
  5
2E1
330
6D
100
AcDbEntity
  8
0
100
AcDbVertex
100
AcDb3dPolylineVertex
 10
386016.238858
 20
803510.408558
 30
1.792832
 70
    32
  0
VERTEX
  5
2E2
330
6D
100
AcDbEntity
  8
0
100
AcDbVertex
100
AcDb3dPolylineVertex
 10
386006.303407
 20
803510.221097
 30
1.790656
 70
    32
  0
VERTEX
  5
2E3
330
6D
100
AcDbEntity
  8
0
100
AcDbVertex
100
AcDb3dPolylineVertex
 10
386006.303407
 20
803520.062818
 30
1.788502
 70
    32
  0
VERTEX
  5
2E4
330
6D
100
AcDbEntity
  8
0
100
AcDbVertex
100
AcDb3dPolylineVertex
 10
386006.303407
 20
803529.904539
 30
1.786347
 70
    32
  0
VERTEX
  5
2E5
330
6D
100
AcDbEntity
  8
0
100
AcDbVertex
100
AcDb3dPolylineVertex
 10
386006.303407
 20
803539.74626
 30
1.784192
 70
    32
  0
VERTEX
  5
2E6
330
6D
100
AcDbEntity
  8
0
100
AcDbVertex
100
AcDb3dPolylineVertex
 10
386006.303407
 20
803549.587981
 30
1.782038
 70
    32
  0
VERTEX
  5
2E7
330
6D
100
AcDbEntity
  8
0
100
AcDbVertex
100
AcDb3dPolylineVertex
 10
386006.303407
 20
803559.429702
 30
1.779883
 70
    32
  0
VERTEX
  5
2E8
330
6D
100
AcDbEntity
  8
0
100
AcDbVertex
100
AcDb3dPolylineVertex
 10
386006.303407
 20
803569.271423
 30
1.777728
 70
    32
  0
VERTEX
  5
2E9
330
6D
100
AcDbEntity
  8
0
100
AcDbVertex
100
AcDb3dPolylineVertex
 10
386006.303407
 20
803579.113144
 30
1.775574
 70
    32
  0
VERTEX
  5
2EA
330
6D
100
AcDbEntity
  8
0
100
AcDbVertex
100
AcDb3dPolylineVertex
 10
386006.303407
 20
803588.954865
 30
1.773419
 70
    32
  0
VERTEX
  5
2EB
330
6D
100
AcDbEntity
  8
0
100
AcDbVertex
100
AcDb3dPolylineVertex
 10
386006.303407
 20
803598.796586
 30
1.771265
 70
    32
  0
VERTEX
  5
2EC
330
6D
100
AcDbEntity
  8
0
100
AcDbVertex
100
AcDb3dPolylineVertex
 10
386006.303407
 20
803608.638307
 30
1.76911
 70
    32
  0
VERTEX
  5
2ED
330
6D
100
AcDbEntity
  8
0
100
AcDbVertex
100
AcDb3dPolylineVertex
 10
386006.303407
 20
803618.480028
 30
1.766955
 70
    32
  0
VERTEX
  5
2EE
330
6D
100
AcDbEntity
  8
0
100
AcDbVertex
100
AcDb3dPolylineVertex
 10
386006.303407
 20
803628.321749
 30
1.764801
 70
    32
  0
VERTEX
  5
2EF
330
6D
100
AcDbEntity
  8
0
100
AcDbVertex
100
AcDb3dPolylineVertex
 10
386006.303407
 20
803638.16347
 30
1.762646
 70
    32
  0
VERTEX
  5
2F0
330
6D
100
AcDbEntity
  8
0
100
AcDbVertex
100
AcDb3dPolylineVertex
 10
386006.303407
 20
803648.005191
 30
1.760492
 70
    32
  0
VERTEX
  5
2F1
330
6D
100
AcDbEntity
  8
0
100
AcDbVertex
100
AcDb3dPolylineVertex
 10
386006.303407
 20
803657.846912
 30
1.758337
 70
    32
  0
VERTEX
  5
2F2
330
6D
100
AcDbEntity
  8
0
100
AcDbVertex
100
AcDb3dPolylineVertex
 10
386006.303407
 20
803667.688634
 30
1.756182
 70
    32
  0
VERTEX
  5
2F3
330
6D
100
AcDbEntity
  8
0
100
AcDbVertex
100
AcDb3dPolylineVertex
 10
386006.303407
 20
803677.530355
 30
1.754028
 70
    32
  0
VERTEX
  5
2F4
330
6D
100
AcDbEntity
  8
0
100
AcDbVertex
100
AcDb3dPolylineVertex
 10
386006.303407
 20
803687.372076
 30
1.751873
 70
    32
  0
VERTEX
  5
2F5
330
6D
100
AcDbEntity
  8
0
100
AcDbVertex
100
AcDb3dPolylineVertex
 10
386006.303407
 20
803697.213797
 30
1.749718
 70
    32
  0
VERTEX
  5
2F6
330
6D
100
AcDbEntity
  8
0
100
AcDbVertex
100
AcDb3dPolylineVertex
 10
386006.303407
 20
803707.055518
 30
1.747564
 70
    32
  0
VERTEX
  5
2F7
330
6D
100
AcDbEntity
  8
0
100
AcDbVertex
100
AcDb3dPolylineVertex
 10
386006.303407
 20
803716.897239
 30
1.745409
 70
    32
  0
VERTEX
  5
2F8
330
6D
100
AcDbEntity
  8
0
100
AcDbVertex
100
AcDb3dPolylineVertex
 10
386006.303407
 20
803726.73896
 30
1.743255
 70
    32
  0
VERTEX
  5
2F9
330
6D
100
AcDbEntity
  8
0
100
AcDbVertex
100
AcDb3dPolylineVertex
 10
386006.303407
 20
803736.580681
 30
1.7411
 70
    32
  0
VERTEX
  5
2FA
330
6D
100
AcDbEntity
  8
0
100
AcDbVertex
100
AcDb3dPolylineVertex
 10
386006.303407
 20
803746.422402
 30
1.738945
 70
    32
  0
VERTEX
  5
2FB
330
6D
100
AcDbEntity
  8
0
100
AcDbVertex
100
AcDb3dPolylineVertex
 10
386006.303407
 20
803756.264123
 30
1.736791
 70
    32
  0
VERTEX
  5
2FC
330
6D
100
AcDbEntity
  8
0
100
AcDbVertex
100
AcDb3dPolylineVertex
 10
386006.303407
 20
803766.105844
 30
1.734636
 70
    32
  0
VERTEX
  5
2FD
330
6D
100
AcDbEntity
  8
0
100
AcDbVertex
100
AcDb3dPolylineVertex
 10
386006.303407
 20
803775.947565
 30
1.732482
 70
    32
  0
VERTEX
  5
2FE
330
6D
100
AcDbEntity
  8
0
100
AcDbVertex
100
AcDb3dPolylineVertex
 10
386006.303407
 20
803785.789286
 30
1.730327
 70
    32
  0
VERTEX
  5
2FF
330
6D
100
AcDbEntity
  8
0
100
AcDbVertex
100
AcDb3dPolylineVertex
 10
386006.303407
 20
803795.631007
 30
1.728172
 70
    32
  0
VERTEX
  5
300
330
6D
100
AcDbEntity
  8
0
100
AcDbVertex
100
AcDb3dPolylineVertex
 10
386006.303407
 20
803805.472728
 30
1.726018
 70
    32
  0
VERTEX
  5
301
330
6D
100
AcDbEntity
  8
0
100
AcDbVertex
100
AcDb3dPolylineVertex
 10
385996.709796
 20
803805.638135
 30
1.723917
 70
    32
  0
VERTEX
  5
302
330
6D
100
AcDbEntity
  8
0
100
AcDbVertex
100
AcDb3dPolylineVertex
 10
385987.116186
 20
803805.803542
 30
1.721816
 70
    32
  0
VERTEX
  5
303
330
6D
100
AcDbEntity
  8
0
100
AcDbVertex
100
AcDb3dPolylineVertex
 10
385977.522575
 20
803805.968949
 30
1.719716
 70
    32
  0
VERTEX
  5
304
330
6D
100
AcDbEntity
  8
0
100
AcDbVertex
100
AcDb3dPolylineVertex
 10
385967.928965
 20
803806.134356
 30
1.717615
 70
    32
  0
VERTEX
  5
305
330
6D
100
AcDbEntity
  8
0
100
AcDbVertex
100
AcDb3dPolylineVertex
 10
385958.335354
 20
803806.299763
 30
1.715515
 70
    32
  0
VERTEX
  5
306
330
6D
100
AcDbEntity
  8
0
100
AcDbVertex
100
AcDb3dPolylineVertex
 10
385948.741744
 20
803806.465171
 30
1.713414
 70
    32
  0
VERTEX
  5
307
330
6D
100
AcDbEntity
  8
0
100
AcDbVertex
100
AcDb3dPolylineVertex
 10
385939.148134
 20
803806.630578
 30
1.711313
 70
    32
  0
VERTEX
  5
308
330
6D
100
AcDbEntity
  8
0
100
AcDbVertex
100
AcDb3dPolylineVertex
 10
385929.554523
 20
803806.795985
 30
1.709213
 70
    32
  0
VERTEX
  5
309
330
6D
100
AcDbEntity
  8
0
100
AcDbVertex
100
AcDb3dPolylineVertex
 10
385919.960913
 20
803806.961392
 30
1.707112
 70
    32
  0
VERTEX
  5
30A
330
6D
100
AcDbEntity
  8
0
100
AcDbVertex
100
AcDb3dPolylineVertex
 10
385910.367302
 20
803807.126799
 30
1.705012
 70
    32
  0
VERTEX
  5
30B
330
6D
100
AcDbEntity
  8
0
100
AcDbVertex
100
AcDb3dPolylineVertex
 10
385900.773692
 20
803807.292206
 30
1.702911
 70
    32
  0
VERTEX
  5
30C
330
6D
100
AcDbEntity
  8
0
100
AcDbVertex
100
AcDb3dPolylineVertex
 10
385891.180081
 20
803807.457613
 30
1.70081
 70
    32
  0
VERTEX
  5
30D
330
6D
100
AcDbEntity
  8
0
100
AcDbVertex
100
AcDb3dPolylineVertex
 10
385881.586471
 20
803807.62302
 30
1.69871
 70
    32
  0
VERTEX
  5
30E
330
6D
100
AcDbEntity
  8
0
100
AcDbVertex
100
AcDb3dPolylineVertex
 10
385871.992861
 20
803807.788427
 30
1.696609
 70
    32
  0
VERTEX
  5
30F
330
6D
100
AcDbEntity
  8
0
100
AcDbVertex
100
AcDb3dPolylineVertex
 10
385862.39925
 20
803807.953834
 30
1.694508
 70
    32
  0
VERTEX
  5
310
330
6D
100
AcDbEntity
  8
0
100
AcDbVertex
100
AcDb3dPolylineVertex
 10
385852.80564
 20
803808.119241
 30
1.692408
 70
    32
  0
VERTEX
  5
311
330
6D
100
AcDbEntity
  8
0
100
AcDbVertex
100
AcDb3dPolylineVertex
 10
385843.212029
 20
803808.284648
 30
1.690307
 70
    32
  0
VERTEX
  5
312
330
6D
100
AcDbEntity
  8
0
100
AcDbVertex
100
AcDb3dPolylineVertex
 10
385842.05418
 20
803817.712852
 30
1.688228
 70
    32
  0
VERTEX
  5
313
330
6D
100
AcDbEntity
  8
0
100
AcDbVertex
100
AcDb3dPolylineVertex
 10
385840.89633
 20
803827.141055
 30
1.686148
 70
    32
  0
VERTEX
  5
314
330
6D
100
AcDbEntity
  8
0
100
AcDbVertex
100
AcDb3dPolylineVertex
 10
385839.738481
 20
803836.569258
 30
1.684068
 70
    32
  0
VERTEX
  5
315
330
6D
100
AcDbEntity
  8
0
100
AcDbVertex
100
AcDb3dPolylineVertex
 10
385838.580631
 20
803845.997462
 30
1.681989
 70
    32
  0
VERTEX
  5
316
330
6D
100
AcDbEntity
  8
0
100
AcDbVertex
100
AcDb3dPolylineVertex
 10
385837.422782
 20
803855.425665
 30
1.679909
 70
    32
  0
VERTEX
  5
317
330
6D
100
AcDbEntity
  8
0
100
AcDbVertex
100
AcDb3dPolylineVertex
 10
385836.264932
 20
803864.853869
 30
1.67783
 70
    32
  0
VERTEX
  5
318
330
6D
100
AcDbEntity
  8
0
100
AcDbVertex
100
AcDb3dPolylineVertex
 10
385835.107083
 20
803874.282072
 30
1.67575
 70
    32
  0
VERTEX
  5
319
330
6D
100
AcDbEntity
  8
0
100
AcDbVertex
100
AcDb3dPolylineVertex
 10
385833.949233
 20
803883.710275
 30
1.67367
 70
    32
  0
VERTEX
  5
31A
330
6D
100
AcDbEntity
  8
0
100
AcDbVertex
100
AcDb3dPolylineVertex
 10
385832.791383
 20
803893.138479
 30
1.671591
 70
    32
  0
VERTEX
  5
31B
330
6D
100
AcDbEntity
  8
0
100
AcDbVertex
100
AcDb3dPolylineVertex
 10
385831.633534
 20
803902.566682
 30
1.669511
 70
    32
  0
VERTEX
  5
31C
330
6D
100
AcDbEntity
  8
0
100
AcDbVertex
100
AcDb3dPolylineVertex
 10
385830.475684
 20
803911.994885
 30
1.667432
 70
    32
  0
VERTEX
  5
31D
330
6D
100
AcDbEntity
  8
0
100
AcDbVertex
100
AcDb3dPolylineVertex
 10
385829.317835
 20
803921.423089
 30
1.665352
 70
    32
  0
VERTEX
  5
31E
330
6D
100
AcDbEntity
  8
0
100
AcDbVertex
100
AcDb3dPolylineVertex
 10
385828.159985
 20
803930.851292
 30
1.663273
 70
    32
  0
VERTEX
  5
31F
330
6D
100
AcDbEntity
  8
0
100
AcDbVertex
100
AcDb3dPolylineVertex
 10
385827.002136
 20
803940.279495
 30
1.661193
 70
    32
  0
VERTEX
  5
320
330
6D
100
AcDbEntity
  8
0
100
AcDbVertex
100
AcDb3dPolylineVertex
 10
385825.844286
 20
803949.707699
 30
1.659113
 70
    32
  0
VERTEX
  5
321
330
6D
100
AcDbEntity
  8
0
100
AcDbVertex
100
AcDb3dPolylineVertex
 10
385824.686437
 20
803959.135902
 30
1.657034
 70
    32
  0
VERTEX
  5
322
330
6D
100
AcDbEntity
  8
0
100
AcDbVertex
100
AcDb3dPolylineVertex
 10
385823.528587
 20
803968.564105
 30
1.654954
 70
    32
  0
VERTEX
  5
323
330
6D
100
AcDbEntity
  8
0
100
AcDbVertex
100
AcDb3dPolylineVertex
 10
385813.887718
 20
803968.764957
 30
1.652843
 70
    32
  0
VERTEX
  5
324
330
6D
100
AcDbEntity
  8
0
100
AcDbVertex
100
AcDb3dPolylineVertex
 10
385804.246848
 20
803968.965808
 30
1.650732
 70
    32
  0
VERTEX
  5
325
330
6D
100
AcDbEntity
  8
0
100
AcDbVertex
100
AcDb3dPolylineVertex
 10
385794.605978
 20
803969.16666
 30
1.648621
 70
    32
  0
VERTEX
  5
326
330
6D
100
AcDbEntity
  8
0
100
AcDbVertex
100
AcDb3dPolylineVertex
 10
385784.965109
 20
803969.367511
 30
1.64651
 70
    32
  0
VERTEX
  5
327
330
6D
100
AcDbEntity
  8
0
100
AcDbVertex
100
AcDb3dPolylineVertex
 10
385775.324239
 20
803969.568363
 30
1.644399
 70
    32
  0
VERTEX
  5
328
330
6D
100
AcDbEntity
  8
0
100
AcDbVertex
100
AcDb3dPolylineVertex
 10
385765.68337
 20
803969.769214
 30
1.642288
 70
    32
  0
VERTEX
  5
329
330
6D
100
AcDbEntity
  8
0
100
AcDbVertex
100
AcDb3dPolylineVertex
 10
385756.0425
 20
803969.970066
 30
1.640176
 70
    32
  0
VERTEX
  5
32A
330
6D
100
AcDbEntity
  8
0
100
AcDbVertex
100
AcDb3dPolylineVertex
 10
385746.40163
 20
803970.170917
 30
1.638065
 70
    32
  0
VERTEX
  5
32B
330
6D
100
AcDbEntity
  8
0
100
AcDbVertex
100
AcDb3dPolylineVertex
 10
385736.760761
 20
803970.371768
 30
1.635954
 70
    32
  0
VERTEX
  5
32C
330
6D
100
AcDbEntity
  8
0
100
AcDbVertex
100
AcDb3dPolylineVertex
 10
385727.119891
 20
803970.57262
 30
1.633843
 70
    32
  0
VERTEX
  5
32D
330
6D
100
AcDbEntity
  8
0
100
AcDbVertex
100
AcDb3dPolylineVertex
 10
385717.479022
 20
803970.773471
 30
1.631732
 70
    32
  0
VERTEX
  5
32E
330
6D
100
AcDbEntity
  8
0
100
AcDbVertex
100
AcDb3dPolylineVertex
 10
385707.838152
 20
803970.974323
 30
1.629621
 70
    32
  0
VERTEX
  5
32F
330
6D
100
AcDbEntity
  8
0
100
AcDbVertex
100
AcDb3dPolylineVertex
 10
385698.197282
 20
803971.175174
 30
1.62751
 70
    32
  0
VERTEX
  5
330
330
6D
100
AcDbEntity
  8
0
100
AcDbVertex
100
AcDb3dPolylineVertex
 10
385688.556413
 20
803971.376026
 30
1.625399
 70
    32
  0
VERTEX
  5
331
330
6D
100
AcDbEntity
  8
0
100
AcDbVertex
100
AcDb3dPolylineVertex
 10
385686.447473
 20
803961.815497
 30
1.623255
 70
    32
  0
VERTEX
  5
332
330
6D
100
AcDbEntity
  8
0
100
AcDbVertex
100
AcDb3dPolylineVertex
 10
385684.338532
 20
803952.254968
 30
1.621112
 70
    32
  0
VERTEX
  5
333
330
6D
100
AcDbEntity
  8
0
100
AcDbVertex
100
AcDb3dPolylineVertex
 10
385682.229592
 20
803942.694439
 30
1.618969
 70
    32
  0
VERTEX
  5
334
330
6D
100
AcDbEntity
  8
0
100
AcDbVertex
100
AcDb3dPolylineVertex
 10
385680.120652
 20
803933.13391
 30
1.616825
 70
    32
  0
VERTEX
  5
335
330
6D
100
AcDbEntity
  8
0
100
AcDbVertex
100
AcDb3dPolylineVertex
 10
385678.011712
 20
803923.573381
 30
1.614682
 70
    32
  0
VERTEX
  5
336
330
6D
100
AcDbEntity
  8
0
100
AcDbVertex
100
AcDb3dPolylineVertex
 10
385675.902772
 20
803914.012852
 30
1.612538
 70
    32
  0
VERTEX
  5
337
330
6D
100
AcDbEntity
  8
0
100
AcDbVertex
100
AcDb3dPolylineVertex
 10
385673.793831
 20
803904.452323
 30
1.610395
 70
    32
  0
VERTEX
  5
338
330
6D
100
AcDbEntity
  8
0
100
AcDbVertex
100
AcDb3dPolylineVertex
 10
385671.684891
 20
803894.891794
 30
1.608252
 70
    32
  0
VERTEX
  5
339
330
6D
100
AcDbEntity
  8
0
100
AcDbVertex
100
AcDb3dPolylineVertex
 10
385669.575951
 20
803885.331265
 30
1.606108
 70
    32
  0
VERTEX
  5
33A
330
6D
100
AcDbEntity
  8
0
100
AcDbVertex
100
AcDb3dPolylineVertex
 10
385667.467011
 20
803875.770736
 30
1.603965
 70
    32
  0
VERTEX
  5
33B
330
6D
100
AcDbEntity
  8
0
100
AcDbVertex
100
AcDb3dPolylineVertex
 10
385665.35807
 20
803866.210207
 30
1.601822
 70
    32
  0
VERTEX
  5
33C
330
6D
100
AcDbEntity
  8
0
100
AcDbVertex
100
AcDb3dPolylineVertex
 10
385663.24913
 20
803856.649678
 30
1.599678
 70
    32
  0
VERTEX
  5
33D
330
6D
100
AcDbEntity
  8
0
100
AcDbVertex
100
AcDb3dPolylineVertex
 10
385661.14019
 20
803847.089149
 30
1.597535
 70
    32
  0
VERTEX
  5
33E
330
6D
100
AcDbEntity
  8
0
100
AcDbVertex
100
AcDb3dPolylineVertex
 10
385659.03125
 20
803837.52862
 30
1.595391
 70
    32
  0
VERTEX
  5
33F
330
6D
100
AcDbEntity
  8
0
100
AcDbVertex
100
AcDb3dPolylineVertex
 10
385656.92231
 20
803827.968091
 30
1.593248
 70
    32
  0
VERTEX
  5
340
330
6D
100
AcDbEntity
  8
0
100
AcDbVertex
100
AcDb3dPolylineVertex
 10
385654.813369
 20
803818.407561
 30
1.591105
 70
    32
  0
VERTEX
  5
341
330
6D
100
AcDbEntity
  8
0
100
AcDbVertex
100
AcDb3dPolylineVertex
 10
385652.704429
 20
803808.847032
 30
1.588961
 70
    32
  0
VERTEX
  5
342
330
6D
100
AcDbEntity
  8
0
100
AcDbVertex
100
AcDb3dPolylineVertex
 10
385650.595489
 20
803799.286503
 30
1.586818
 70
    32
  0
VERTEX
  5
343
330
6D
100
AcDbEntity
  8
0
100
AcDbVertex
100
AcDb3dPolylineVertex
 10
385648.486549
 20
803789.725974
 30
1.584675
 70
    32
  0
VERTEX
  5
344
330
6D
100
AcDbEntity
  8
0
100
AcDbVertex
100
AcDb3dPolylineVertex
 10
385646.377608
 20
803780.165445
 30
1.582531
 70
    32
  0
VERTEX
  5
345
330
6D
100
AcDbEntity
  8
0
100
AcDbVertex
100
AcDb3dPolylineVertex
 10
385636.408073
 20
803779.654187
 30
1.580346
 70
    32
  0
VERTEX
  5
346
330
6D
100
AcDbEntity
  8
0
100
AcDbVertex
100
AcDb3dPolylineVertex
 10
385626.438537
 20
803779.142929
 30
1.57816
 70
    32
  0
VERTEX
  5
347
330
6D
100
AcDbEntity
  8
0
100
AcDbVertex
100
AcDb3dPolylineVertex
 10
385616.469002
 20
803778.631671
 30
1.575975
 70
    32
  0
VERTEX
  5
348
330
6D
100
AcDbEntity
  8
0
100
AcDbVertex
100
AcDb3dPolylineVertex
 10
385606.499466
 20
803778.120412
 30
1.573789
 70
    32
  0
VERTEX
  5
349
330
6D
100
AcDbEntity
  8
0
100
AcDbVertex
100
AcDb3dPolylineVertex
 10
385596.52993
 20
803777.609154
 30
1.571604
 70
    32
  0
VERTEX
  5
34A
330
6D
100
AcDbEntity
  8
0
100
AcDbVertex
100
AcDb3dPolylineVertex
 10
385586.560395
 20
803777.097896
 30
1.569418
 70
    32
  0
VERTEX
  5
34B
330
6D
100
AcDbEntity
  8
0
100
AcDbVertex
100
AcDb3dPolylineVertex
 10
385576.590859
 20
803776.586638
 30
1.567233
 70
    32
  0
VERTEX
  5
34C
330
6D
100
AcDbEntity
  8
0
100
AcDbVertex
100
AcDb3dPolylineVertex
 10
385566.621324
 20
803776.07538
 30
1.565047
 70
    32
  0
VERTEX
  5
34D
330
6D
100
AcDbEntity
  8
0
100
AcDbVertex
100
AcDb3dPolylineVertex
 10
385556.651788
 20
803775.564121
 30
1.562862
 70
    32
  0
VERTEX
  5
34E
330
6D
100
AcDbEntity
  8
0
100
AcDbVertex
100
AcDb3dPolylineVertex
 10
385546.682252
 20
803775.052863
 30
1.560676
 70
    32
  0
VERTEX
  5
34F
330
6D
100
AcDbEntity
  8
0
100
AcDbVertex
100
AcDb3dPolylineVertex
 10
385536.712717
 20
803774.541605
 30
1.558491
 70
    32
  0
VERTEX
  5
350
330
6D
100
AcDbEntity
  8
0
100
AcDbVertex
100
AcDb3dPolylineVertex
 10
385527.339649
 20
803777.353525
 30
1.556349
 70
    32
  0
VERTEX
  5
351
330
6D
100
AcDbEntity
  8
0
100
AcDbVertex
100
AcDb3dPolylineVertex
 10
385517.966581
 20
803780.165445
 30
1.554206
 70
    32
  0
VERTEX
  5
352
330
6D
100
AcDbEntity
  8
0
100
AcDbVertex
100
AcDb3dPolylineVertex
 10
385508.593514
 20
803782.977366
 30
1.552064
 70
    32
  0
VERTEX
  5
353
330
6D
100
AcDbEntity
  8
0
100
AcDbVertex
100
AcDb3dPolylineVertex
 10
385499.220446
 20
803785.789286
 30
1.549922
 70
    32
  0
VERTEX
  5
354
330
6D
100
AcDbEntity
  8
0
100
AcDbVertex
100
AcDb3dPolylineVertex
 10
385489.847378
 20
803788.601206
 30
1.547779
 70
    32
  0
VERTEX
  5
355
330
6D
100
AcDbEntity
  8
0
100
AcDbVertex
100
AcDb3dPolylineVertex
 10
385480.474311
 20
803791.413127
 30
1.545637
 70
    32
  0
VERTEX
  5
356
330
6D
100
AcDbEntity
  8
0
100
AcDbVertex
100
AcDb3dPolylineVertex
 10
385471.101243
 20
803794.225047
 30
1.543494
 70
    32
  0
VERTEX
  5
357
330
6D
100
AcDbEntity
  8
0
100
AcDbVertex
100
AcDb3dPolylineVertex
 10
385461.728175
 20
803797.036967
 30
1.541352
 70
    32
  0
VERTEX
  5
358
330
6D
100
AcDbEntity
  8
0
100
AcDbVertex
100
AcDb3dPolylineVertex
 10
385452.355108
 20
803799.848888
 30
1.53921
 70
    32
  0
VERTEX
  5
359
330
6D
100
AcDbEntity
  8
0
100
AcDbVertex
100
AcDb3dPolylineVertex
 10
385442.98204
 20
803802.660808
 30
1.537067
 70
    32
  0
VERTEX
  5
35A
330
6D
100
AcDbEntity
  8
0
100
AcDbVertex
100
AcDb3dPolylineVertex
 10
385433.608973
 20
803805.472728
 30
1.534925
 70
    32
  0
VERTEX
  5
35B
330
6D
100
AcDbEntity
  8
0
100
AcDbVertex
100
AcDb3dPolylineVertex
 10
385424.235905
 20
803808.284648
 30
1.532783
 70
    32
  0
VERTEX
  5
35C
330
6D
100
AcDbEntity
  8
0
100
AcDbVertex
100
AcDb3dPolylineVertex
 10
385414.862837
 20
803811.096569
 30
1.53064
 70
    32
  0
VERTEX
  5
35D
330
6D
100
AcDbEntity
  8
0
100
AcDbVertex
100
AcDb3dPolylineVertex
 10
385405.48977
 20
803813.908489
 30
1.528498
 70
    32
  0
VERTEX
  5
35E
330
6D
100
AcDbEntity
  8
0
100
AcDbVertex
100
AcDb3dPolylineVertex
 10
385396.116702
 20
803816.720409
 30
1.526355
 70
    32
  0
VERTEX
  5
35F
330
6D
100
AcDbEntity
  8
0
100
AcDbVertex
100
AcDb3dPolylineVertex
 10
385386.743634
 20
803819.53233
 30
1.524213
 70
    32
  0
VERTEX
  5
360
330
6D
100
AcDbEntity
  8
0
100
AcDbVertex
100
AcDb3dPolylineVertex
 10
385377.370567
 20
803822.34425
 30
1.522071
 70
    32
  0
VERTEX
  5
361
330
6D
100
AcDbEntity
  8
0
100
AcDbVertex
100
AcDb3dPolylineVertex
 10
385367.997499
 20
803825.15617
 30
1.519928
 70
    32
  0
VERTEX
  5
362
330
6D
100
AcDbEntity
  8
0
100
AcDbVertex
100
AcDb3dPolylineVertex
 10
385374.290844
 20
803832.654624
 30
1.517785
 70
    32
  0
VERTEX
  5
363
330
6D
100
AcDbEntity
  8
0
100
AcDbVertex
100
AcDb3dPolylineVertex
 10
385380.58419
 20
803840.153078
 30
1.515642
 70
    32
  0
VERTEX
  5
364
330
6D
100
AcDbEntity
  8
0
100
AcDbVertex
100
AcDb3dPolylineVertex
 10
385386.877535
 20
803847.651533
 30
1.513499
 70
    32
  0
VERTEX
  5
365
330
6D
100
AcDbEntity
  8
0
100
AcDbVertex
100
AcDb3dPolylineVertex
 10
385393.170881
 20
803855.149987
 30
1.511356
 70
    32
  0
VERTEX
  5
366
330
6D
100
AcDbEntity
  8
0
100
AcDbVertex
100
AcDb3dPolylineVertex
 10
385399.464226
 20
803862.648441
 30
1.509213
 70
    32
  0
VERTEX
  5
367
330
6D
100
AcDbEntity
  8
0
100
AcDbVertex
100
AcDb3dPolylineVertex
 10
385405.757571
 20
803870.146895
 30
1.507069
 70
    32
  0
VERTEX
  5
368
330
6D
100
AcDbEntity
  8
0
100
AcDbVertex
100
AcDb3dPolylineVertex
 10
385412.050917
 20
803877.645349
 30
1.504926
 70
    32
  0
VERTEX
  5
369
330
6D
100
AcDbEntity
  8
0
100
AcDbVertex
100
AcDb3dPolylineVertex
 10
385418.344262
 20
803885.143803
 30
1.502783
 70
    32
  0
VERTEX
  5
36A
330
6D
100
AcDbEntity
  8
0
100
AcDbVertex
100
AcDb3dPolylineVertex
 10
385424.637608
 20
803892.642257
 30
1.50064
 70
    32
  0
VERTEX
  5
36B
330
6D
100
AcDbEntity
  8
0
100
AcDbVertex
100
AcDb3dPolylineVertex
 10
385430.930953
 20
803900.140711
 30
1.498497
 70
    32
  0
VERTEX
  5
36C
330
6D
100
AcDbEntity
  8
0
100
AcDbVertex
100
AcDb3dPolylineVertex
 10
385437.224299
 20
803907.639166
 30
1.496353
 70
    32
  0
VERTEX
  5
36D
330
6D
100
AcDbEntity
  8
0
100
AcDbVertex
100
AcDb3dPolylineVertex
 10
385443.517644
 20
803915.13762
 30
1.49421
 70
    32
  0
VERTEX
  5
36E
330
6D
100
AcDbEntity
  8
0
100
AcDbVertex
100
AcDb3dPolylineVertex
 10
385449.810989
 20
803922.636074
 30
1.492067
 70
    32
  0
VERTEX
  5
36F
330
6D
100
AcDbEntity
  8
0
100
AcDbVertex
100
AcDb3dPolylineVertex
 10
385456.104335
 20
803930.134528
 30
1.489924
 70
    32
  0
VERTEX
  5
370
330
6D
100
AcDbEntity
  8
0
100
AcDbVertex
100
AcDb3dPolylineVertex
 10
385462.39768
 20
803937.632982
 30
1.487781
 70
    32
  0
VERTEX
  5
371
330
6D
100
AcDbEntity
  8
0
100
AcDbVertex
100
AcDb3dPolylineVertex
 10
385468.691026
 20
803945.131436
 30
1.485638
 70
    32
  0
VERTEX
  5
372
330
6D
100
AcDbEntity
  8
0
100
AcDbVertex
100
AcDb3dPolylineVertex
 10
385474.984371
 20
803952.62989
 30
1.483494
 70
    32
  0
VERTEX
  5
373
330
6D
100
AcDbEntity
  8
0
100
AcDbVertex
100
AcDb3dPolylineVertex
 10
385481.277717
 20
803960.128345
 30
1.481351
 70
    32
  0
VERTEX
  5
374
330
6D
100
AcDbEntity
  8
0
100
AcDbVertex
100
AcDb3dPolylineVertex
 10
385487.571062
 20
803967.626799
 30
1.479208
 70
    32
  0
VERTEX
  5
375
330
6D
100
AcDbEntity
  8
0
100
AcDbVertex
100
AcDb3dPolylineVertex
 10
385493.864407
 20
803975.125253
 30
1.477065
 70
    32
  0
VERTEX
  5
376
330
6D
100
AcDbEntity
  8
0
100
AcDbVertex
100
AcDb3dPolylineVertex
 10
385500.157753
 20
803982.623707
 30
1.474922
 70
    32
  0
VERTEX
  5
377
330
6D
100
AcDbEntity
  8
0
100
AcDbVertex
100
AcDb3dPolylineVertex
 10
385500.532676
 20
803992.371697
 30
1.472786
 70
    32
  0
VERTEX
  5
378
330
6D
100
AcDbEntity
  8
0
100
AcDbVertex
100
AcDb3dPolylineVertex
 10
385500.907598
 20
804002.119688
 30
1.47065
 70
    32
  0
VERTEX
  5
379
330
6D
100
AcDbEntity
  8
0
100
AcDbVertex
100
AcDb3dPolylineVertex
 10
385501.282521
 20
804011.867678
 30
1.468515
 70
    32
  0
VERTEX
  5
37A
330
6D
100
AcDbEntity
  8
0
100
AcDbVertex
100
AcDb3dPolylineVertex
 10
385501.657444
 20
804021.615668
 30
1.466379
 70
    32
  0
VERTEX
  5
37B
330
6D
100
AcDbEntity
  8
0
100
AcDbVertex
100
AcDb3dPolylineVertex
 10
385502.032366
 20
804031.363659
 30
1.464243
 70
    32
  0
VERTEX
  5
37C
330
6D
100
AcDbEntity
  8
0
100
AcDbVertex
100
AcDb3dPolylineVertex
 10
385502.407289
 20
804041.111649
 30
1.462108
 70
    32
  0
VERTEX
  5
37D
330
6D
100
AcDbEntity
  8
0
100
AcDbVertex
100
AcDb3dPolylineVertex
 10
385502.782212
 20
804050.859639
 30
1.459972
 70
    32
  0
VERTEX
  5
37E
330
6D
100
AcDbEntity
  8
0
100
AcDbVertex
100
AcDb3dPolylineVertex
 10
385503.157135
 20
804060.60763
 30
1.457836
 70
    32
  0
VERTEX
  5
37F
330
6D
100
AcDbEntity
  8
0
100
AcDbVertex
100
AcDb3dPolylineVertex
 10
385503.532057
 20
804070.35562
 30
1.455701
 70
    32
  0
VERTEX
  5
380
330
6D
100
AcDbEntity
  8
0
100
AcDbVertex
100
AcDb3dPolylineVertex
 10
385503.90698
 20
804080.103611
 30
1.453565
 70
    32
  0
VERTEX
  5
381
330
6D
100
AcDbEntity
  8
0
100
AcDbVertex
100
AcDb3dPolylineVertex
 10
385504.281903
 20
804089.851601
 30
1.451429
 70
    32
  0
VERTEX
  5
382
330
6D
100
AcDbEntity
  8
0
100
AcDbVertex
100
AcDb3dPolylineVertex
 10
385504.656825
 20
804099.599591
 30
1.449294
 70
    32
  0
VERTEX
  5
383
330
6D
100
AcDbEntity
  8
0
100
AcDbVertex
100
AcDb3dPolylineVertex
 10
385505.031748
 20
804109.347582
 30
1.447158
 70
    32
  0
VERTEX
  5
384
330
6D
100
AcDbEntity
  8
0
100
AcDbVertex
100
AcDb3dPolylineVertex
 10
385505.406671
 20
804119.095572
 30
1.445022
 70
    32
  0
VERTEX
  5
385
330
6D
100
AcDbEntity
  8
0
100
AcDbVertex
100
AcDb3dPolylineVertex
 10
385505.781593
 20
804128.843562
 30
1.442887
 70
    32
  0
VERTEX
  5
386
330
6D
100
AcDbEntity
  8
0
100
AcDbVertex
100
AcDb3dPolylineVertex
 10
385496.783449
 20
804129.124754
 30
1.440916
 70
    32
  0
VERTEX
  5
387
330
6D
100
AcDbEntity
  8
0
100
AcDbVertex
100
AcDb3dPolylineVertex
 10
385487.785304
 20
804129.405946
 30
1.438945
 70
    32
  0
VERTEX
  5
388
330
6D
100
AcDbEntity
  8
0
100
AcDbVertex
100
AcDb3dPolylineVertex
 10
385478.787159
 20
804129.687138
 30
1.436974
 70
    32
  0
VERTEX
  5
389
330
6D
100
AcDbEntity
  8
0
100
AcDbVertex
100
AcDb3dPolylineVertex
 10
385469.789014
 20
804129.968331
 30
1.435003
 70
    32
  0
VERTEX
  5
38A
330
6D
100
AcDbEntity
  8
0
100
AcDbVertex
100
AcDb3dPolylineVertex
 10
385460.790869
 20
804130.249523
 30
1.433032
 70
    32
  0
VERTEX
  5
38B
330
6D
100
AcDbEntity
  8
0
100
AcDbVertex
100
AcDb3dPolylineVertex
 10
385451.792724
 20
804130.530715
 30
1.431061
 70
    32
  0
VERTEX
  5
38C
330
6D
100
AcDbEntity
  8
0
100
AcDbVertex
100
AcDb3dPolylineVertex
 10
385442.794579
 20
804130.811907
 30
1.42909
 70
    32
  0
VERTEX
  5
38D
330
6D
100
AcDbEntity
  8
0
100
AcDbVertex
100
AcDb3dPolylineVertex
 10
385433.796434
 20
804131.093099
 30
1.427119
 70
    32
  0
VERTEX
  5
38E
330
6D
100
AcDbEntity
  8
0
100
AcDbVertex
100
AcDb3dPolylineVertex
 10
385424.798289
 20
804131.374291
 30
1.425149
 70
    32
  0
VERTEX
  5
38F
330
6D
100
AcDbEntity
  8
0
100
AcDbVertex
100
AcDb3dPolylineVertex
 10
385415.800144
 20
804131.655483
 30
1.423178
 70
    32
  0
VERTEX
  5
390
330
6D
100
AcDbEntity
  8
0
100
AcDbVertex
100
AcDb3dPolylineVertex
 10
385414.795887
 20
804140.894649
 30
1.421143
 70
    32
  0
VERTEX
  5
391
330
6D
100
AcDbEntity
  8
0
100
AcDbVertex
100
AcDb3dPolylineVertex
 10
385413.791629
 20
804150.133816
 30
1.419108
 70
    32
  0
VERTEX
  5
392
330
6D
100
AcDbEntity
  8
0
100
AcDbVertex
100
AcDb3dPolylineVertex
 10
385412.787372
 20
804159.372983
 30
1.417074
 70
    32
  0
VERTEX
  5
393
330
6D
100
AcDbEntity
  8
0
100
AcDbVertex
100
AcDb3dPolylineVertex
 10
385411.783115
 20
804168.612149
 30
1.415039
 70
    32
  0
VERTEX
  5
394
330
6D
100
AcDbEntity
  8
0
100
AcDbVertex
100
AcDb3dPolylineVertex
 10
385410.778858
 20
804177.851316
 30
1.413005
 70
    32
  0
VERTEX
  5
395
330
6D
100
AcDbEntity
  8
0
100
AcDbVertex
100
AcDb3dPolylineVertex
 10
385409.7746
 20
804187.090483
 30
1.41097
 70
    32
  0
VERTEX
  5
396
330
6D
100
AcDbEntity
  8
0
100
AcDbVertex
100
AcDb3dPolylineVertex
 10
385408.770343
 20
804196.32965
 30
1.408935
 70
    32
  0
VERTEX
  5
397
330
6D
100
AcDbEntity
  8
0
100
AcDbVertex
100
AcDb3dPolylineVertex
 10
385407.766086
 20
804205.568816
 30
1.406901
 70
    32
  0
VERTEX
  5
398
330
6D
100
AcDbEntity
  8
0
100
AcDbVertex
100
AcDb3dPolylineVertex
 10
385406.761829
 20
804214.807983
 30
1.404866
 70
    32
  0
VERTEX
  5
399
330
6D
100
AcDbEntity
  8
0
100
AcDbVertex
100
AcDb3dPolylineVertex
 10
385405.757571
 20
804224.04715
 30
1.402832
 70
    32
  0
VERTEX
  5
39A
330
6D
100
AcDbEntity
  8
0
100
AcDbVertex
100
AcDb3dPolylineVertex
 10
385404.753314
 20
804233.286316
 30
1.400797
 70
    32
  0
VERTEX
  5
39B
330
6D
100
AcDbEntity
  8
0
100
AcDbVertex
100
AcDb3dPolylineVertex
 10
385403.749057
 20
804242.525483
 30
1.398762
 70
    32
  0
VERTEX
  5
39C
330
6D
100
AcDbEntity
  8
0
100
AcDbVertex
100
AcDb3dPolylineVertex
 10
385402.7448
 20
804251.76465
 30
1.396728
 70
    32
  0
VERTEX
  5
39D
330
6D
100
AcDbEntity
  8
0
100
AcDbVertex
100
AcDb3dPolylineVertex
 10
385401.740542
 20
804261.003816
 30
1.394693
 70
    32
  0
VERTEX
  5
39E
330
6D
100
AcDbEntity
  8
0
100
AcDbVertex
100
AcDb3dPolylineVertex
 10
385392.953292
 20
804256.785936
 30
1.392559
 70
    32
  0
VERTEX
  5
39F
330
6D
100
AcDbEntity
  8
0
100
AcDbVertex
100
AcDb3dPolylineVertex
 10
385384.166041
 20
804252.568056
 30
1.390425
 70
    32
  0
VERTEX
  5
3A0
330
6D
100
AcDbEntity
  8
0
100
AcDbVertex
100
AcDb3dPolylineVertex
 10
385375.37879
 20
804248.350175
 30
1.388291
 70
    32
  0
VERTEX
  5
3A1
330
6D
100
AcDbEntity
  8
0
100
AcDbVertex
100
AcDb3dPolylineVertex
 10
385366.591539
 20
804244.132295
 30
1.386157
 70
    32
  0
VERTEX
  5
3A2
330
6D
100
AcDbEntity
  8
0
100
AcDbVertex
100
AcDb3dPolylineVertex
 10
385357.804288
 20
804239.914414
 30
1.384024
 70
    32
  0
VERTEX
  5
3A3
330
6D
100
AcDbEntity
  8
0
100
AcDbVertex
100
AcDb3dPolylineVertex
 10
385349.017037
 20
804235.696534
 30
1.38189
 70
    32
  0
VERTEX
  5
3A4
330
6D
100
AcDbEntity
  8
0
100
AcDbVertex
100
AcDb3dPolylineVertex
 10
385340.229786
 20
804231.478653
 30
1.379756
 70
    32
  0
VERTEX
  5
3A5
330
6D
100
AcDbEntity
  8
0
100
AcDbVertex
100
AcDb3dPolylineVertex
 10
385331.442535
 20
804227.260773
 30
1.377622
 70
    32
  0
VERTEX
  5
3A6
330
6D
100
AcDbEntity
  8
0
100
AcDbVertex
100
AcDb3dPolylineVertex
 10
385322.655284
 20
804223.042892
 30
1.375488
 70
    32
  0
VERTEX
  5
3A7
330
6D
100
AcDbEntity
  8
0
100
AcDbVertex
100
AcDb3dPolylineVertex
 10
385313.868033
 20
804218.825012
 30
1.373354
 70
    32
  0
VERTEX
  5
3A8
330
6D
100
AcDbEntity
  8
0
100
AcDbVertex
100
AcDb3dPolylineVertex
 10
385305.080782
 20
804214.607131
 30
1.37122
 70
    32
  0
VERTEX
  5
3A9
330
6D
100
AcDbEntity
  8
0
100
AcDbVertex
100
AcDb3dPolylineVertex
 10
385296.293531
 20
804210.389251
 30
1.369086
 70
    32
  0
VERTEX
  5
3AA
330
6D
100
AcDbEntity
  8
0
100
AcDbVertex
100
AcDb3dPolylineVertex
 10
385287.50628
 20
804206.171371
 30
1.366952
 70
    32
  0
VERTEX
  5
3AB
330
6D
100
AcDbEntity
  8
0
100
AcDbVertex
100
AcDb3dPolylineVertex
 10
385278.719029
 20
804201.95349
 30
1.364818
 70
    32
  0
VERTEX
  5
3AC
330
6D
100
AcDbEntity
  8
0
100
AcDbVertex
100
AcDb3dPolylineVertex
 10
385269.931778
 20
804197.73561
 30
1.362684
 70
    32
  0
VERTEX
  5
3AD
330
6D
100
AcDbEntity
  8
0
100
AcDbVertex
100
AcDb3dPolylineVertex
 10
385261.144528
 20
804193.517729
 30
1.360551
 70
    32
  0
VERTEX
  5
3AE
330
6D
100
AcDbEntity
  8
0
100
AcDbVertex
100
AcDb3dPolylineVertex
 10
385258.645043
 20
804203.047015
 30
1.358394
 70
    32
  0
VERTEX
  5
3AF
330
6D
100
AcDbEntity
  8
0
100
AcDbVertex
100
AcDb3dPolylineVertex
 10
385256.145558
 20
804212.5763
 30
1.356237
 70
    32
  0
VERTEX
  5
3B0
330
6D
100
AcDbEntity
  8
0
100
AcDbVertex
100
AcDb3dPolylineVertex
 10
385253.646073
 20
804222.105586
 30
1.35408
 70
    32
  0
VERTEX
  5
3B1
330
6D
100
AcDbEntity
  8
0
100
AcDbVertex
100
AcDb3dPolylineVertex
 10
385251.146589
 20
804231.634871
 30
1.351923
 70
    32
  0
VERTEX
  5
3B2
330
6D
100
AcDbEntity
  8
0
100
AcDbVertex
100
AcDb3dPolylineVertex
 10
385248.647104
 20
804241.164157
 30
1.349767
 70
    32
  0
VERTEX
  5
3B3
330
6D
100
AcDbEntity
  8
0
100
AcDbVertex
100
AcDb3dPolylineVertex
 10
385246.147619
 20
804250.693442
 30
1.34761
 70
    32
  0
VERTEX
  5
3B4
330
6D
100
AcDbEntity
  8
0
100
AcDbVertex
100
AcDb3dPolylineVertex
 10
385243.648135
 20
804260.222727
 30
1.345453
 70
    32
  0
VERTEX
  5
3B5
330
6D
100
AcDbEntity
  8
0
100
AcDbVertex
100
AcDb3dPolylineVertex
 10
385241.14865
 20
804269.752013
 30
1.343296
 70
    32
  0
VERTEX
  5
3B6
330
6D
100
AcDbEntity
  8
0
100
AcDbVertex
100
AcDb3dPolylineVertex
 10
385238.649165
 20
804279.281298
 30
1.341139
 70
    32
  0
VERTEX
  5
3B7
330
6D
100
AcDbEntity
  8
0
100
AcDbVertex
100
AcDb3dPolylineVertex
 10
385236.14968
 20
804288.810584
 30
1.338983
 70
    32
  0
VERTEX
  5
3B8
330
6D
100
AcDbEntity
  8
0
100
AcDbVertex
100
AcDb3dPolylineVertex
 10
385233.650196
 20
804298.339869
 30
1.336826
 70
    32
  0
VERTEX
  5
3B9
330
6D
100
AcDbEntity
  8
0
100
AcDbVertex
100
AcDb3dPolylineVertex
 10
385231.150711
 20
804307.869155
 30
1.334669
 70
    32
  0
VERTEX
  5
3BA
330
6D
100
AcDbEntity
  8
0
100
AcDbVertex
100
AcDb3dPolylineVertex
 10
385228.651226
 20
804317.39844
 30
1.332512
 70
    32
  0
VERTEX
  5
3BB
330
6D
100
AcDbEntity
  8
0
100
AcDbVertex
100
AcDb3dPolylineVertex
 10
385226.151742
 20
804326.927726
 30
1.330355
 70
    32
  0
VERTEX
  5
3BC
330
6D
100
AcDbEntity
  8
0
100
AcDbVertex
100
AcDb3dPolylineVertex
 10
385223.652257
 20
804336.457011
 30
1.328199
 70
    32
  0
VERTEX
  5
3BD
330
6D
100
AcDbEntity
  8
0
100
AcDbVertex
100
AcDb3dPolylineVertex
 10
385221.152772
 20
804345.986297
 30
1.326042
 70
    32
  0
VERTEX
  5
3BE
330
6D
100
AcDbEntity
  8
0
100
AcDbVertex
100
AcDb3dPolylineVertex
 10
385218.653287
 20
804355.515582
 30
1.323885
 70
    32
  0
VERTEX
  5
3BF
330
6D
100
AcDbEntity
  8
0
100
AcDbVertex
100
AcDb3dPolylineVertex
 10
385216.153803
 20
804365.044867
 30
1.321728
 70
    32
  0
VERTEX
  5
3C0
330
6D
100
AcDbEntity
  8
0
100
AcDbVertex
100
AcDb3dPolylineVertex
 10
385215.709815
 20
804374.516599
 30
1.319652
 70
    32
  0
VERTEX
  5
3C1
330
6D
100
AcDbEntity
  8
0
100
AcDbVertex
100
AcDb3dPolylineVertex
 10
385215.265828
 20
804383.988331
 30
1.317577
 70
    32
  0
VERTEX
  5
3C2
330
6D
100
AcDbEntity
  8
0
100
AcDbVertex
100
AcDb3dPolylineVertex
 10
385214.821841
 20
804393.460062
 30
1.315501
 70
    32
  0
VERTEX
  5
3C3
330
6D
100
AcDbEntity
  8
0
100
AcDbVertex
100
AcDb3dPolylineVertex
 10
385214.377853
 20
804402.931794
 30
1.313425
 70
    32
  0
VERTEX
  5
3C4
330
6D
100
AcDbEntity
  8
0
100
AcDbVertex
100
AcDb3dPolylineVertex
 10
385213.933866
 20
804412.403525
 30
1.311349
 70
    32
  0
VERTEX
  5
3C5
330
6D
100
AcDbEntity
  8
0
100
AcDbVertex
100
AcDb3dPolylineVertex
 10
385213.489878
 20
804421.875257
 30
1.309273
 70
    32
  0
VERTEX
  5
3C6
330
6D
100
AcDbEntity
  8
0
100
AcDbVertex
100
AcDb3dPolylineVertex
 10
385213.045891
 20
804431.346988
 30
1.307197
 70
    32
  0
VERTEX
  5
3C7
330
6D
100
AcDbEntity
  8
0
100
AcDbVertex
100
AcDb3dPolylineVertex
 10
385212.601903
 20
804440.81872
 30
1.305121
 70
    32
  0
VERTEX
  5
3C8
330
6D
100
AcDbEntity
  8
0
100
AcDbVertex
100
AcDb3dPolylineVertex
 10
385212.157916
 20
804450.290451
 30
1.303045
 70
    32
  0
VERTEX
  5
3C9
330
6D
100
AcDbEntity
  8
0
100
AcDbVertex
100
AcDb3dPolylineVertex
 10
385211.713929
 20
804459.762183
 30
1.300969
 70
    32
  0
VERTEX
  5
3CA
330
6D
100
AcDbEntity
  8
0
100
AcDbVertex
100
AcDb3dPolylineVertex
 10
385211.269941
 20
804469.233914
 30
1.298894
 70
    32
  0
VERTEX
  5
3CB
330
6D
100
AcDbEntity
  8
0
100
AcDbVertex
100
AcDb3dPolylineVertex
 10
385210.825954
 20
804478.705646
 30
1.296818
 70
    32
  0
VERTEX
  5
3CC
330
6D
100
AcDbEntity
  8
0
100
AcDbVertex
100
AcDb3dPolylineVertex
 10
385210.381966
 20
804488.177377
 30
1.294742
 70
    32
  0
VERTEX
  5
3CD
330
6D
100
AcDbEntity
  8
0
100
AcDbVertex
100
AcDb3dPolylineVertex
 10
385209.937979
 20
804497.649109
 30
1.292666
 70
    32
  0
VERTEX
  5
3CE
330
6D
100
AcDbEntity
  8
0
100
AcDbVertex
100
AcDb3dPolylineVertex
 10
385209.493992
 20
804507.12084
 30
1.29059
 70
    32
  0
VERTEX
  5
3CF
330
6D
100
AcDbEntity
  8
0
100
AcDbVertex
100
AcDb3dPolylineVertex
 10
385209.050004
 20
804516.592572
 30
1.288514
 70
    32
  0
VERTEX
  5
3D0
330
6D
100
AcDbEntity
  8
0
100
AcDbVertex
100
AcDb3dPolylineVertex
 10
385208.606017
 20
804526.064303
 30
1.286438
 70
    32
  0
VERTEX
  5
3D1
330
6D
100
AcDbEntity
  8
0
100
AcDbVertex
100
AcDb3dPolylineVertex
 10
385208.162029
 20
804535.536035
 30
1.284362
 70
    32
  0
VERTEX
  5
3D2
330
6D
100
AcDbEntity
  8
0
100
AcDbVertex
100
AcDb3dPolylineVertex
 10
385207.718042
 20
804545.007767
 30
1.282286
 70
    32
  0
VERTEX
  5
3D3
330
6D
100
AcDbEntity
  8
0
100
AcDbVertex
100
AcDb3dPolylineVertex
 10
385217.15806
 20
804544.204361
 30
1.280212
 70
    32
  0
VERTEX
  5
3D4
330
6D
100
AcDbEntity
  8
0
100
AcDbVertex
100
AcDb3dPolylineVertex
 10
385226.598078
 20
804543.400955
 30
1.278138
 70
    32
  0
VERTEX
  5
3D5
330
6D
100
AcDbEntity
  8
0
100
AcDbVertex
100
AcDb3dPolylineVertex
 10
385236.038096
 20
804542.597549
 30
1.276064
 70
    32
  0
VERTEX
  5
3D6
330
6D
100
AcDbEntity
  8
0
100
AcDbVertex
100
AcDb3dPolylineVertex
 10
385245.478114
 20
804541.794143
 30
1.27399
 70
    32
  0
VERTEX
  5
3D7
330
6D
100
AcDbEntity
  8
0
100
AcDbVertex
100
AcDb3dPolylineVertex
 10
385254.918133
 20
804540.990738
 30
1.271916
 70
    32
  0
VERTEX
  5
3D8
330
6D
100
AcDbEntity
  8
0
100
AcDbVertex
100
AcDb3dPolylineVertex
 10
385264.358151
 20
804540.187332
 30
1.269841
 70
    32
  0
VERTEX
  5
3D9
330
6D
100
AcDbEntity
  8
0
100
AcDbVertex
100
AcDb3dPolylineVertex
 10
385273.798169
 20
804539.383926
 30
1.267767
 70
    32
  0
VERTEX
  5
3DA
330
6D
100
AcDbEntity
  8
0
100
AcDbVertex
100
AcDb3dPolylineVertex
 10
385283.238187
 20
804538.58052
 30
1.265693
 70
    32
  0
VERTEX
  5
3DB
330
6D
100
AcDbEntity
  8
0
100
AcDbVertex
100
AcDb3dPolylineVertex
 10
385292.678205
 20
804537.777114
 30
1.263619
 70
    32
  0
VERTEX
  5
3DC
330
6D
100
AcDbEntity
  8
0
100
AcDbVertex
100
AcDb3dPolylineVertex
 10
385302.118223
 20
804536.973709
 30
1.261545
 70
    32
  0
VERTEX
  5
3DD
330
6D
100
AcDbEntity
  8
0
100
AcDbVertex
100
AcDb3dPolylineVertex
 10
385311.558241
 20
804536.170303
 30
1.259471
 70
    32
  0
VERTEX
  5
3DE
330
6D
100
AcDbEntity
  8
0
100
AcDbVertex
100
AcDb3dPolylineVertex
 10
385320.99826
 20
804535.366897
 30
1.257397
 70
    32
  0
VERTEX
  5
3DF
330
6D
100
AcDbEntity
  8
0
100
AcDbVertex
100
AcDb3dPolylineVertex
 10
385330.438278
 20
804534.563491
 30
1.255322
 70
    32
  0
VERTEX
  5
3E0
330
6D
100
AcDbEntity
  8
0
100
AcDbVertex
100
AcDb3dPolylineVertex
 10
385339.878296
 20
804533.760085
 30
1.253248
 70
    32
  0
VERTEX
  5
3E1
330
6D
100
AcDbEntity
  8
0
100
AcDbVertex
100
AcDb3dPolylineVertex
 10
385341.460001
 20
804524.269854
 30
1.251142
 70
    32
  0
VERTEX
  5
3E2
330
6D
100
AcDbEntity
  8
0
100
AcDbVertex
100
AcDb3dPolylineVertex
 10
385343.041706
 20
804514.779623
 30
1.249036
 70
    32
  0
VERTEX
  5
3E3
330
6D
100
AcDbEntity
  8
0
100
AcDbVertex
100
AcDb3dPolylineVertex
 10
385344.623411
 20
804505.289392
 30
1.246929
 70
    32
  0
VERTEX
  5
3E4
330
6D
100
AcDbEntity
  8
0
100
AcDbVertex
100
AcDb3dPolylineVertex
 10
385346.205117
 20
804495.799161
 30
1.244823
 70
    32
  0
VERTEX
  5
3E5
330
6D
100
AcDbEntity
  8
0
100
AcDbVertex
100
AcDb3dPolylineVertex
 10
385347.786822
 20
804486.30893
 30
1.242717
 70
    32
  0
VERTEX
  5
3E6
330
6D
100
AcDbEntity
  8
0
100
AcDbVertex
100
AcDb3dPolylineVertex
 10
385349.368527
 20
804476.818699
 30
1.24061
 70
    32
  0
VERTEX
  5
3E7
330
6D
100
AcDbEntity
  8
0
100
AcDbVertex
100
AcDb3dPolylineVertex
 10
385350.950232
 20
804467.328468
 30
1.238504
 70
    32
  0
VERTEX
  5
3E8
330
6D
100
AcDbEntity
  8
0
100
AcDbVertex
100
AcDb3dPolylineVertex
 10
385352.531937
 20
804457.838237
 30
1.236398
 70
    32
  0
VERTEX
  5
3E9
330
6D
100
AcDbEntity
  8
0
100
AcDbVertex
100
AcDb3dPolylineVertex
 10
385354.113642
 20
804448.348006
 30
1.234291
 70
    32
  0
VERTEX
  5
3EA
330
6D
100
AcDbEntity
  8
0
100
AcDbVertex
100
AcDb3dPolylineVertex
 10
385355.695348
 20
804438.857775
 30
1.232185
 70
    32
  0
VERTEX
  5
3EB
330
6D
100
AcDbEntity
  8
0
100
AcDbVertex
100
AcDb3dPolylineVertex
 10
385357.277053
 20
804429.367544
 30
1.230079
 70
    32
  0
VERTEX
  5
3EC
330
6D
100
AcDbEntity
  8
0
100
AcDbVertex
100
AcDb3dPolylineVertex
 10
385358.858758
 20
804419.877313
 30
1.227972
 70
    32
  0
VERTEX
  5
3ED
330
6D
100
AcDbEntity
  8
0
100
AcDbVertex
100
AcDb3dPolylineVertex
 10
385360.440463
 20
804410.387082
 30
1.225866
 70
    32
  0
VERTEX
  5
3EE
330
6D
100
AcDbEntity
  8
0
100
AcDbVertex
100
AcDb3dPolylineVertex
 10
385362.022168
 20
804400.896851
 30
1.22376
 70
    32
  0
VERTEX
  5
3EF
330
6D
100
AcDbEntity
  8
0
100
AcDbVertex
100
AcDb3dPolylineVertex
 10
385363.603873
 20
804391.40662
 30
1.221653
 70
    32
  0
VERTEX
  5
3F0
330
6D
100
AcDbEntity
  8
0
100
AcDbVertex
100
AcDb3dPolylineVertex
 10
385365.185579
 20
804381.916389
 30
1.219547
 70
    32
  0
VERTEX
  5
3F1
330
6D
100
AcDbEntity
  8
0
100
AcDbVertex
100
AcDb3dPolylineVertex
 10
385375.175295
 20
804381.694396
 30
1.21736
 70
    32
  0
VERTEX
  5
3F2
330
6D
100
AcDbEntity
  8
0
100
AcDbVertex
100
AcDb3dPolylineVertex
 10
385385.165012
 20
804381.472402
 30
1.215172
 70
    32
  0
VERTEX
  5
3F3
330
6D
100
AcDbEntity
  8
0
100
AcDbVertex
100
AcDb3dPolylineVertex
 10
385395.154729
 20
804381.250408
 30
1.212984
 70
    32
  0
VERTEX
  5
3F4
330
6D
100
AcDbEntity
  8
0
100
AcDbVertex
100
AcDb3dPolylineVertex
 10
385405.144446
 20
804381.028414
 30
1.210797
 70
    32
  0
VERTEX
  5
3F5
330
6D
100
AcDbEntity
  8
0
100
AcDbVertex
100
AcDb3dPolylineVertex
 10
385415.134163
 20
804380.806421
 30
1.208609
 70
    32
  0
VERTEX
  5
3F6
330
6D
100
AcDbEntity
  8
0
100
AcDbVertex
100
AcDb3dPolylineVertex
 10
385425.12388
 20
804380.584427
 30
1.206422
 70
    32
  0
VERTEX
  5
3F7
330
6D
100
AcDbEntity
  8
0
100
AcDbVertex
100
AcDb3dPolylineVertex
 10
385435.113597
 20
804380.362433
 30
1.204234
 70
    32
  0
VERTEX
  5
3F8
330
6D
100
AcDbEntity
  8
0
100
AcDbVertex
100
AcDb3dPolylineVertex
 10
385445.103313
 20
804380.14044
 30
1.202047
 70
    32
  0
VERTEX
  5
3F9
330
6D
100
AcDbEntity
  8
0
100
AcDbVertex
100
AcDb3dPolylineVertex
 10
385455.09303
 20
804379.918446
 30
1.199859
 70
    32
  0
VERTEX
  5
3FA
330
6D
100
AcDbEntity
  8
0
100
AcDbVertex
100
AcDb3dPolylineVertex
 10
385465.082747
 20
804379.696452
 30
1.197672
 70
    32
  0
VERTEX
  5
3FB
330
6D
100
AcDbEntity
  8
0
100
AcDbVertex
100
AcDb3dPolylineVertex
 10
385475.072464
 20
804379.474458
 30
1.195484
 70
    32
  0
VERTEX
  5
3FC
330
6D
100
AcDbEntity
  8
0
100
AcDbVertex
100
AcDb3dPolylineVertex
 10
385485.062181
 20
804379.252465
 30
1.193296
 70
    32
  0
VERTEX
  5
3FD
330
6D
100
AcDbEntity
  8
0
100
AcDbVertex
100
AcDb3dPolylineVertex
 10
385495.051898
 20
804379.030471
 30
1.191109
 70
    32
  0
VERTEX
  5
3FE
330
6D
100
AcDbEntity
  8
0
100
AcDbVertex
100
AcDb3dPolylineVertex
 10
385505.041614
 20
804378.808477
 30
1.188921
 70
    32
  0
VERTEX
  5
3FF
330
6D
100
AcDbEntity
  8
0
100
AcDbVertex
100
AcDb3dPolylineVertex
 10
385515.031331
 20
804378.586484
 30
1.186734
 70
    32
  0
VERTEX
  5
400
330
6D
100
AcDbEntity
  8
0
100
AcDbVertex
100
AcDb3dPolylineVertex
 10
385525.021048
 20
804378.36449
 30
1.184546
 70
    32
  0
VERTEX
  5
401
330
6D
100
AcDbEntity
  8
0
100
AcDbVertex
100
AcDb3dPolylineVertex
 10
385535.010765
 20
804378.142496
 30
1.182359
 70
    32
  0
VERTEX
  5
402
330
6D
100
AcDbEntity
  8
0
100
AcDbVertex
100
AcDb3dPolylineVertex
 10
385545.000482
 20
804377.920502
 30
1.180171
 70
    32
  0
VERTEX
  5
403
330
6D
100
AcDbEntity
  8
0
100
AcDbVertex
100
AcDb3dPolylineVertex
 10
385554.990199
 20
804377.698509
 30
1.177983
 70
    32
  0
VERTEX
  5
404
330
6D
100
AcDbEntity
  8
0
100
AcDbVertex
100
AcDb3dPolylineVertex
 10
385564.979916
 20
804377.476515
 30
1.175796
 70
    32
  0
VERTEX
  5
405
330
6D
100
AcDbEntity
  8
0
100
AcDbVertex
100
AcDb3dPolylineVertex
 10
385574.969632
 20
804377.254521
 30
1.173608
 70
    32
  0
VERTEX
  5
406
330
6D
100
AcDbEntity
  8
0
100
AcDbVertex
100
AcDb3dPolylineVertex
 10
385584.959349
 20
804377.032528
 30
1.171421
 70
    32
  0
VERTEX
  5
407
330
6D
100
AcDbEntity
  8
0
100
AcDbVertex
100
AcDb3dPolylineVertex
 10
385594.949066
 20
804376.810534
 30
1.169233
 70
    32
  0
VERTEX
  5
408
330
6D
100
AcDbEntity
  8
0
100
AcDbVertex
100
AcDb3dPolylineVertex
 10
385604.938783
 20
804376.58854
 30
1.167046
 70
    32
  0
VERTEX
  5
409
330
6D
100
AcDbEntity
  8
0
100
AcDbVertex
100
AcDb3dPolylineVertex
 10
385614.9285
 20
804376.366547
 30
1.164858
 70
    32
  0
VERTEX
  5
40A
330
6D
100
AcDbEntity
  8
0
100
AcDbVertex
100
AcDb3dPolylineVertex
 10
385624.918217
 20
804376.144553
 30
1.162671
 70
    32
  0
VERTEX
  5
40B
330
6D
100
AcDbEntity
  8
0
100
AcDbVertex
100
AcDb3dPolylineVertex
 10
385634.907933
 20
804375.922559
 30
1.160483
 70
    32
  0
VERTEX
  5
40C
330
6D
100
AcDbEntity
  8
0
100
AcDbVertex
100
AcDb3dPolylineVertex
 10
385644.89765
 20
804375.700565
 30
1.158295
 70
    32
  0
VERTEX
  5
40D
330
6D
100
AcDbEntity
  8
0
100
AcDbVertex
100
AcDb3dPolylineVertex
 10
385654.887367
 20
804375.478572
 30
1.156108
 70
    32
  0
VERTEX
  5
40E
330
6D
100
AcDbEntity
  8
0
100
AcDbVertex
100
AcDb3dPolylineVertex
 10
385664.877084
 20
804375.256578
 30
1.15392
 70
    32
  0
VERTEX
  5
40F
330
6D
100
AcDbEntity
  8
0
100
AcDbVertex
100
AcDb3dPolylineVertex
 10
385674.866801
 20
804375.034584
 30
1.151733
 70
    32
  0
VERTEX
  5
410
330
6D
100
AcDbEntity
  8
0
100
AcDbVertex
100
AcDb3dPolylineVertex
 10
385684.856518
 20
804374.812591
 30
1.149545
 70
    32
  0
VERTEX
  5
411
330
6D
100
AcDbEntity
  8
0
100
AcDbVertex
100
AcDb3dPolylineVertex
 10
385694.846235
 20
804374.590597
 30
1.147358
 70
    32
  0
VERTEX
  5
412
330
6D
100
AcDbEntity
  8
0
100
AcDbVertex
100
AcDb3dPolylineVertex
 10
385704.835951
 20
804374.368603
 30
1.14517
 70
    32
  0
VERTEX
  5
413
330
6D
100
AcDbEntity
  8
0
100
AcDbVertex
100
AcDb3dPolylineVertex
 10
385714.825668
 20
804374.146609
 30
1.142983
 70
    32
  0
VERTEX
  5
414
330
6D
100
AcDbEntity
  8
0
100
AcDbVertex
100
AcDb3dPolylineVertex
 10
385724.815385
 20
804373.924616
 30
1.140795
 70
    32
  0
VERTEX
  5
415
330
6D
100
AcDbEntity
  8
0
100
AcDbVertex
100
AcDb3dPolylineVertex
 10
385734.805102
 20
804373.702622
 30
1.138607
 70
    32
  0
VERTEX
  5
416
330
6D
100
AcDbEntity
  8
0
100
AcDbVertex
100
AcDb3dPolylineVertex
 10
385744.794819
 20
804373.480628
 30
1.13642
 70
    32
  0
VERTEX
  5
417
330
6D
100
AcDbEntity
  8
0
100
AcDbVertex
100
AcDb3dPolylineVertex
 10
385753.378576
 20
804377.772507
 30
1.134319
 70
    32
  0
VERTEX
  5
418
330
6D
100
AcDbEntity
  8
0
100
AcDbVertex
100
AcDb3dPolylineVertex
 10
385761.962332
 20
804382.064385
 30
1.132218
 70
    32
  0
VERTEX
  5
419
330
6D
100
AcDbEntity
  8
0
100
AcDbVertex
100
AcDb3dPolylineVertex
 10
385770.546089
 20
804386.356263
 30
1.130117
 70
    32
  0
VERTEX
  5
41A
330
6D
100
AcDbEntity
  8
0
100
AcDbVertex
100
AcDb3dPolylineVertex
 10
385779.129846
 20
804390.648142
 30
1.128016
 70
    32
  0
VERTEX
  5
41B
330
6D
100
AcDbEntity
  8
0
100
AcDbVertex
100
AcDb3dPolylineVertex
 10
385787.713602
 20
804394.94002
 30
1.125915
 70
    32
  0
VERTEX
  5
41C
330
6D
100
AcDbEntity
  8
0
100
AcDbVertex
100
AcDb3dPolylineVertex
 10
385796.297359
 20
804399.231898
 30
1.123814
 70
    32
  0
VERTEX
  5
41D
330
6D
100
AcDbEntity
  8
0
100
AcDbVertex
100
AcDb3dPolylineVertex
 10
385804.881116
 20
804403.523777
 30
1.121713
 70
    32
  0
VERTEX
  5
41E
330
6D
100
AcDbEntity
  8
0
100
AcDbVertex
100
AcDb3dPolylineVertex
 10
385813.464872
 20
804407.815655
 30
1.119612
 70
    32
  0
VERTEX
  5
41F
330
6D
100
AcDbEntity
  8
0
100
AcDbVertex
100
AcDb3dPolylineVertex
 10
385822.048629
 20
804412.107533
 30
1.117511
 70
    32
  0
VERTEX
  5
420
330
6D
100
AcDbEntity
  8
0
100
AcDbVertex
100
AcDb3dPolylineVertex
 10
385830.632386
 20
804416.399412
 30
1.11541
 70
    32
  0
VERTEX
  5
421
330
6D
100
AcDbEntity
  8
0
100
AcDbVertex
100
AcDb3dPolylineVertex
 10
385839.216143
 20
804420.69129
 30
1.113309
 70
    32
  0
VERTEX
  5
422
330
6D
100
AcDbEntity
  8
0
100
AcDbVertex
100
AcDb3dPolylineVertex
 10
385847.799899
 20
804424.983169
 30
1.111208
 70
    32
  0
VERTEX
  5
423
330
6D
100
AcDbEntity
  8
0
100
AcDbVertex
100
AcDb3dPolylineVertex
 10
385856.383656
 20
804429.275047
 30
1.109107
 70
    32
  0
VERTEX
  5
424
330
6D
100
AcDbEntity
  8
0
100
AcDbVertex
100
AcDb3dPolylineVertex
 10
385864.967413
 20
804433.566925
 30
1.107006
 70
    32
  0
VERTEX
  5
425
330
6D
100
AcDbEntity
  8
0
100
AcDbVertex
100
AcDb3dPolylineVertex
 10
385873.551169
 20
804437.858804
 30
1.104904
 70
    32
  0
VERTEX
  5
426
330
6D
100
AcDbEntity
  8
0
100
AcDbVertex
100
AcDb3dPolylineVertex
 10
385882.134926
 20
804442.150682
 30
1.102803
 70
    32
  0
VERTEX
  5
427
330
6D
100
AcDbEntity
  8
0
100
AcDbVertex
100
AcDb3dPolylineVertex
 10
385890.718683
 20
804446.44256
 30
1.100702
 70
    32
  0
VERTEX
  5
428
330
6D
100
AcDbEntity
  8
0
100
AcDbVertex
100
AcDb3dPolylineVertex
 10
385899.302439
 20
804450.734439
 30
1.098601
 70
    32
  0
VERTEX
  5
429
330
6D
100
AcDbEntity
  8
0
100
AcDbVertex
100
AcDb3dPolylineVertex
 10
385907.886196
 20
804455.026317
 30
1.0965
 70
    32
  0
VERTEX
  5
42A
330
6D
100
AcDbEntity
  8
0
100
AcDbVertex
100
AcDb3dPolylineVertex
 10
385898.981782
 20
804459.009871
 30
1.094365
 70
    32
  0
VERTEX
  5
42B
330
6D
100
AcDbEntity
  8
0
100
AcDbVertex
100
AcDb3dPolylineVertex
 10
385890.077368
 20
804462.993424
 30
1.092229
 70
    32
  0
VERTEX
  5
42C
330
6D
100
AcDbEntity
  8
0
100
AcDbVertex
100
AcDb3dPolylineVertex
 10
385881.172953
 20
804466.976978
 30
1.090094
 70
    32
  0
VERTEX
  5
42D
330
6D
100
AcDbEntity
  8
0
100
AcDbVertex
100
AcDb3dPolylineVertex
 10
385872.268539
 20
804470.960532
 30
1.087958
 70
    32
  0
VERTEX
  5
42E
330
6D
100
AcDbEntity
  8
0
100
AcDbVertex
100
AcDb3dPolylineVertex
 10
385863.364125
 20
804474.944086
 30
1.085822
 70
    32
  0
VERTEX
  5
42F
330
6D
100
AcDbEntity
  8
0
100
AcDbVertex
100
AcDb3dPolylineVertex
 10
385854.45971
 20
804478.92764
 30
1.083687
 70
    32
  0
VERTEX
  5
430
330
6D
100
AcDbEntity
  8
0
100
AcDbVertex
100
AcDb3dPolylineVertex
 10
385845.555296
 20
804482.911193
 30
1.081551
 70
    32
  0
VERTEX
  5
431
330
6D
100
AcDbEntity
  8
0
100
AcDbVertex
100
AcDb3dPolylineVertex
 10
385836.650882
 20
804486.894747
 30
1.079416
 70
    32
  0
VERTEX
  5
432
330
6D
100
AcDbEntity
  8
0
100
AcDbVertex
100
AcDb3dPolylineVertex
 10
385827.746468
 20
804490.878301
 30
1.07728
 70
    32
  0
VERTEX
  5
433
330
6D
100
AcDbEntity
  8
0
100
AcDbVertex
100
AcDb3dPolylineVertex
 10
385818.842053
 20
804494.861855
 30
1.075144
 70
    32
  0
VERTEX
  5
434
330
6D
100
AcDbEntity
  8
0
100
AcDbVertex
100
AcDb3dPolylineVertex
 10
385809.937639
 20
804498.845408
 30
1.073009
 70
    32
  0
VERTEX
  5
435
330
6D
100
AcDbEntity
  8
0
100
AcDbVertex
100
AcDb3dPolylineVertex
 10
385801.033225
 20
804502.828962
 30
1.070873
 70
    32
  0
VERTEX
  5
436
330
6D
100
AcDbEntity
  8
0
100
AcDbVertex
100
AcDb3dPolylineVertex
 10
385792.128811
 20
804506.812516
 30
1.068738
 70
    32
  0
VERTEX
  5
437
330
6D
100
AcDbEntity
  8
0
100
AcDbVertex
100
AcDb3dPolylineVertex
 10
385783.224396
 20
804510.79607
 30
1.066602
 70
    32
  0
VERTEX
  5
438
330
6D
100
AcDbEntity
  8
0
100
AcDbVertex
100
AcDb3dPolylineVertex
 10
385774.319982
 20
804514.779623
 30
1.064466
 70
    32
  0
VERTEX
  5
439
330
6D
100
AcDbEntity
  8
0
100
AcDbVertex
100
AcDb3dPolylineVertex
 10
385765.415568
 20
804518.763177
 30
1.062331
 70
    32
  0
VERTEX
  5
43A
330
6D
100
AcDbEntity
  8
0
100
AcDbVertex
100
AcDb3dPolylineVertex
 10
385756.511153
 20
804522.746731
 30
1.060195
 70
    32
  0
VERTEX
  5
43B
330
6D
100
AcDbEntity
  8
0
100
AcDbVertex
100
AcDb3dPolylineVertex
 10
385747.606739
 20
804526.730285
 30
1.05806
 70
    32
  0
VERTEX
  5
43C
330
6D
100
AcDbEntity
  8
0
100
AcDbVertex
100
AcDb3dPolylineVertex
 10
385738.702325
 20
804530.713838
 30
1.055924
 70
    32
  0
VERTEX
  5
43D
330
6D
100
AcDbEntity
  8
0
100
AcDbVertex
100
AcDb3dPolylineVertex
 10
385729.797911
 20
804534.697392
 30
1.053788
 70
    32
  0
VERTEX
  5
43E
330
6D
100
AcDbEntity
  8
0
100
AcDbVertex
100
AcDb3dPolylineVertex
 10
385720.893496
 20
804538.680946
 30
1.051653
 70
    32
  0
VERTEX
  5
43F
330
6D
100
AcDbEntity
  8
0
100
AcDbVertex
100
AcDb3dPolylineVertex
 10
385711.989082
 20
804542.6645
 30
1.049517
 70
    32
  0
VERTEX
  5
440
330
6D
100
AcDbEntity
  8
0
100
AcDbVertex
100
AcDb3dPolylineVertex
 10
385703.084668
 20
804546.648053
 30
1.047382
 70
    32
  0
VERTEX
  5
441
330
6D
100
AcDbEntity
  8
0
100
AcDbVertex
100
AcDb3dPolylineVertex
 10
385694.180253
 20
804550.631607
 30
1.045246
 70
    32
  0
VERTEX
  5
442
330
6D
100
AcDbEntity
  8
0
100
AcDbVertex
100
AcDb3dPolylineVertex
 10
385684.673285
 20
804548.087489
 30
1.043091
 70
    32
  0
VERTEX
  5
443
330
6D
100
AcDbEntity
  8
0
100
AcDbVertex
100
AcDb3dPolylineVertex
 10
385675.166316
 20
804545.54337
 30
1.040937
 70
    32
  0
VERTEX
  5
444
330
6D
100
AcDbEntity
  8
0
100
AcDbVertex
100
AcDb3dPolylineVertex
 10
385665.659348
 20
804542.999252
 30
1.038782
 70
    32
  0
VERTEX
  5
445
330
6D
100
AcDbEntity
  8
0
100
AcDbVertex
100
AcDb3dPolylineVertex
 10
385656.152379
 20
804540.455134
 30
1.036628
 70
    32
  0
VERTEX
  5
446
330
6D
100
AcDbEntity
  8
0
100
AcDbVertex
100
AcDb3dPolylineVertex
 10
385646.64541
 20
804537.911015
 30
1.034473
 70
    32
  0
VERTEX
  5
447
330
6D
100
AcDbEntity
  8
0
100
AcDbVertex
100
AcDb3dPolylineVertex
 10
385637.138442
 20
804535.366897
 30
1.032319
 70
    32
  0
VERTEX
  5
448
330
6D
100
AcDbEntity
  8
0
100
AcDbVertex
100
AcDb3dPolylineVertex
 10
385627.631473
 20
804532.822779
 30
1.030164
 70
    32
  0
VERTEX
  5
449
330
6D
100
AcDbEntity
  8
0
100
AcDbVertex
100
AcDb3dPolylineVertex
 10
385618.124504
 20
804530.27866
 30
1.028009
 70
    32
  0
VERTEX
  5
44A
330
6D
100
AcDbEntity
  8
0
100
AcDbVertex
100
AcDb3dPolylineVertex
 10
385608.617536
 20
804527.734542
 30
1.025855
 70
    32
  0
VERTEX
  5
44B
330
6D
100
AcDbEntity
  8
0
100
AcDbVertex
100
AcDb3dPolylineVertex
 10
385599.110567
 20
804525.190423
 30
1.0237
 70
    32
  0
VERTEX
  5
44C
330
6D
100
AcDbEntity
  8
0
100
AcDbVertex
100
AcDb3dPolylineVertex
 10
385589.603599
 20
804522.646305
 30
1.021546
 70
    32
  0
VERTEX
  5
44D
330
6D
100
AcDbEntity
  8
0
100
AcDbVertex
100
AcDb3dPolylineVertex
 10
385580.09663
 20
804520.102187
 30
1.019391
 70
    32
  0
VERTEX
  5
44E
330
6D
100
AcDbEntity
  8
0
100
AcDbVertex
100
AcDb3dPolylineVertex
 10
385570.589661
 20
804517.558068
 30
1.017237
 70
    32
  0
VERTEX
  5
44F
330
6D
100
AcDbEntity
  8
0
100
AcDbVertex
100
AcDb3dPolylineVertex
 10
385561.082693
 20
804515.01395
 30
1.015082
 70
    32
  0
VERTEX
  5
450
330
6D
100
AcDbEntity
  8
0
100
AcDbVertex
100
AcDb3dPolylineVertex
 10
385551.575724
 20
804512.469832
 30
1.012927
 70
    32
  0
VERTEX
  5
451
330
6D
100
AcDbEntity
  8
0
100
AcDbVertex
100
AcDb3dPolylineVertex
 10
385542.068755
 20
804509.925713
 30
1.010773
 70
    32
  0
VERTEX
  5
452
330
6D
100
AcDbEntity
  8
0
100
AcDbVertex
100
AcDb3dPolylineVertex
 10
385532.561787
 20
804507.381595
 30
1.008618
 70
    32
  0
VERTEX
  5
453
330
6D
100
AcDbEntity
  8
0
100
AcDbVertex
100
AcDb3dPolylineVertex
 10
385523.054818
 20
804504.837477
 30
1.006464
 70
    32
  0
VERTEX
  5
454
330
6D
100
AcDbEntity
  8
0
100
AcDbVertex
100
AcDb3dPolylineVertex
 10
385513.54785
 20
804502.293358
 30
1.004309
 70
    32
  0
VERTEX
  5
455
330
6D
100
AcDbEntity
  8
0
100
AcDbVertex
100
AcDb3dPolylineVertex
 10
385504.040881
 20
804499.74924
 30
1.002155
 70
    32
  0
VERTEX
  5
456
330
6D
100
AcDbEntity
  8
0
100
AcDbVertex
100
AcDb3dPolylineVertex
 10
385494.533912
 20
804497.205121
 30
1.0
 70
    32
  0
SEQEND
  5
457
330
6D
100
AcDbEntity
  8
0
  0
ENDSEC
  0
SECTION
  2
OBJECTS
  0
DICTIONARY
  5
C
330
0
100
AcDbDictionary
  3
ACAD_GROUP
350
D
  3
ACAD_LAYOUT
350
1A
  3
ACAD_MATERIAL
350
43
  3
ACAD_MLEADERSTYLE
350
47A
  3
ACAD_MLINESTYLE
350
17
  3
ACAD_PLOTSETTINGS
350
19
  3
ACAD_SCALELIST
350
47
  3
ACAD_VISUALSTYLE
350
2A
  3
ACDBHEADERROUNDTRIPXREC
350
458
  3
ACDBVARIABLEDICTIONARY
350
478
  0
DICTIONARY
  5
D
102
{ACAD_REACTORS
330
C
102
}
330
C
100
AcDbDictionary
  0
DICTIONARY
  5
1A
102
{ACAD_REACTORS
330
C
102
}
330
C
100
AcDbDictionary
  0
DICTIONARY
  5
43
102
{ACAD_REACTORS
330
C
102
}
330
C
100
AcDbDictionary
  3
BYBLOCK
350
45
  3
BYLAYER
350
44
  3
GLOBAL
350
46
  0
DICTIONARY
  5
47A
102
{ACAD_REACTORS
330
C
102
}
330
C
100
AcDbDictionary
  0
DICTIONARY
  5
17
102
{ACAD_REACTORS
330
C
102
}
330
C
100
AcDbDictionary
  3
STANDARD
350
18
  0
DICTIONARY
  5
19
102
{ACAD_REACTORS
330
C
102
}
330
C
100
AcDbDictionary
  0
DICTIONARY
  5
47
102
{ACAD_REACTORS
330
C
102
}
330
C
100
AcDbDictionary
  3
A0
350
48
  3
A1
350
49
  3
A2
350
4A
  3
A3
350
4B
  3
A4
350
4C
  3
A5
350
4D
  3
A6
350
4E
  3
A7
350
4F
  3
A8
350
50
  3
A9
350
51
  3
B0
350
52
  3
B1
350
53
  3
B2
350
54
  3
B3
350
55
  3
B4
350
56
  3
B5
350
57
  3
B6
350
58
  3
B7
350
59
  3
B8
350
5A
  3
B9
350
5B
  3
C0
350
5C
  3
C1
350
5D
  3
C2
350
5E
  3
C3
350
5F
  3
C4
350
60
  3
C5
350
61
  3
C6
350
62
  3
C7
350
63
  3
C8
350
64
  3
C9
350
65
  3
D0
350
66
  3
D1
350
67
  3
D2
350
68
  0
DICTIONARY
  5
2A
102
{ACAD_REACTORS
330
C
102
}
330
C
100
AcDbDictionary
  3
2DWIREFRAME
350
2F
  3
BASIC
350
32
  3
BRIGHTEN
350
36
  3
COLORCHANGE
350
3A
  3
CONCEPTUAL
350
34
  3
DIM
350
35
  3
EDGECOLOROFF
350
3D
  3
FACEPATTERN
350
39
  3
FLAT
350
2B
  3
FLATWITHEDGES
350
2C
  3
GOURAUD
350
2D
  3
GOURAUDWITHEDGES
350
2E
  3
HIDDEN
350
31
  3
JITTEROFF
350
3B
  3
LINEPATTERN
350
38
  3
OVERHANGOFF
350
3C
  3
REALISTIC
350
33
  3
SHADED
350
42
  3
SHADED_WITH_EDGES
350
41
  3
SHADES_OF_GRAY
350
3E
  3
SKETCHY
350
3F
  3
THICKEN
350
37
  3
WIREFRAME
350
30
  3
X-RAY
350
40
  0
DICTIONARY
  5
458
102
{ACAD_REACTORS
330
C
102
}
330
C
100
AcDbDictionary
  3
CEPSNTYPE
350
461
  3
DIMSTYLEDATA
350
477
  3
FINGERPRINTGUID
350
462
  3
HYPERLINKBASE
350
45B
  3
INSUNITS
350
460
  3
LAYOUTDICT
350
45D
  3
LWETCUNION
350
45F
  3
PLOTSETDICT
350
45E
  3
PSVPSCALE
350
464
  3
PUCSBASE
350
467
  3
PUCSORGBACK
350
46D
  3
PUCSORGBOTTOM
350
469
  3
PUCSORGFRONT
350
46C
  3
PUCSORGLEFT
350
46A
  3
PUCSORGRIGHT
350
46B
  3
PUCSORGTOP
350
468
  3
PUCSORTHOREF
350
465
  3
PUCSORTHOVIEW
350
466
  3
STYLESHEET
350
45C
  3
TSTACKALIGN
350
459
  3
TSTACKSIZE
350
45A
  3
UCSBASE
350
470
  3
UCSORGBACK
350
476
  3
UCSORGBOTTOM
350
472
  3
UCSORGFRONT
350
475
  3
UCSORGLEFT
350
473
  3
UCSORGRIGHT
350
474
  3
UCSORGTOP
350
471
  3
UCSORTHOREF
350
46E
  3
UCSORTHOVIEW
350
46F
  3
VERSIONGUID
350
463
  0
DICTIONARY
  5
478
102
{ACAD_REACTORS
330
C
102
}
330
C
100
AcDbDictionary
  3
CANNOSCALE
350
481
  3
DIMASSOC
350
47F
  3
HIDETEXT
350
480
  3
MSLTSCALE
350
482
  3
PSOLHEIGHT
350
47C
  3
PSOLWIDTH
350
47B
  0
MATERIAL
  5
45
102
{ACAD_REACTORS
330
43
102
}
102
{ACAD_XDICTIONARY
360
485
102
}
330
43
100
AcDbMaterial
  1
BYBLOCK
  0
MATERIAL
  5
44
102
{ACAD_REACTORS
330
43
102
}
102
{ACAD_XDICTIONARY
360
483
102
}
330
43
100
AcDbMaterial
  1
BYLAYER
  0
MATERIAL
  5
46
102
{ACAD_REACTORS
330
43
102
}
102
{ACAD_XDICTIONARY
360
487
102
}
330
43
100
AcDbMaterial
  1
GLOBAL
  0
MLINESTYLE
  5
18
102
{ACAD_REACTORS
330
17
102
}
330
17
100
AcDbMlineStyle
  2
Standard
 70
     0
  3

 62
   256
 51
90.0
 52
90.0
 71
     2
 49
0.5
 62
   256
  6
BYLAYER
 49
-0.5
 62
   256
  6
BYLAYER
  0
ACAD_PROXY_OBJECT
  5
48
102
{ACAD_REACTORS
330
47
102
}
330
47
100
AcDbProxyObject
 90
      499
 91
      503
 93
       41
310
903313A31580
  0
ACAD_PROXY_OBJECT
  5
49
102
{ACAD_REACTORS
330
47
102
}
330
47
100
AcDbProxyObject
 90
      499
 91
      503
 93
      105
310
903313A324000000000000004000
  0
ACAD_PROXY_OBJECT
  5
4A
102
{ACAD_REACTORS
330
47
102
}
330
47
100
AcDbProxyObject
 90
      499
 91
      503
 93
      105
310
903313A344000000000000104000
  0
ACAD_PROXY_OBJECT
  5
4B
102
{ACAD_REACTORS
330
47
102
}
330
47
100
AcDbProxyObject
 90
      499
 91
      503
 93
      105
310
903313A354000000000000144000
  0
ACAD_PROXY_OBJECT
  5
4C
102
{ACAD_REACTORS
330
47
102
}
330
47
100
AcDbProxyObject
 90
      499
 91
      503
 93
      105
310
903313A384000000000000204000
  0
ACAD_PROXY_OBJECT
  5
4D
102
{ACAD_REACTORS
330
47
102
}
330
47
100
AcDbProxyObject
 90
      499
 91
      503
 93
      113
310
904313A31304000000000000244000
  0
ACAD_PROXY_OBJECT
  5
4E
102
{ACAD_REACTORS
330
47
102
}
330
47
100
AcDbProxyObject
 90
      499
 91
      503
 93
      113
310
904313A31364000000000000304000
  0
ACAD_PROXY_OBJECT
  5
4F
102
{ACAD_REACTORS
330
47
102
}
330
47
100
AcDbProxyObject
 90
      499
 91
      503
 93
      113
310
904313A32304000000000000344000
  0
ACAD_PROXY_OBJECT
  5
50
102
{ACAD_REACTORS
330
47
102
}
330
47
100
AcDbProxyObject
 90
      499
 91
      503
 93
      113
310
904313A333040000000000003E4000
  0
ACAD_PROXY_OBJECT
  5
51
102
{ACAD_REACTORS
330
47
102
}
330
47
100
AcDbProxyObject
 90
      499
 91
      503
 93
      113
310
904313A34304000000000000444000
  0
ACAD_PROXY_OBJECT
  5
52
102
{ACAD_REACTORS
330
47
102
}
330
47
100
AcDbProxyObject
 90
      499
 91
      503
 93
      113
310
904313A35304000000000000494000
  0
ACAD_PROXY_OBJECT
  5
53
102
{ACAD_REACTORS
330
47
102
}
330
47
100
AcDbProxyObject
 90
      499
 91
      503
 93
      121
310
905313A3130304000000000000594000
  0
ACAD_PROXY_OBJECT
  5
54
102
{ACAD_REACTORS
330
47
102
}
330
47
100
AcDbProxyObject
 90
      499
 91
      503
 93
      105
310
903323A310000000000000010100
  0
ACAD_PROXY_OBJECT
  5
55
102
{ACAD_REACTORS
330
47
102
}
330
47
100
AcDbProxyObject
 90
      499
 91
      503
 93
      105
310
903343A310000000000000410100
  0
ACAD_PROXY_OBJECT
  5
56
102
{ACAD_REACTORS
330
47
102
}
330
47
100
AcDbProxyObject
 90
      499
 91
      503
 93
      105
310
903383A310000000000000810100
  0
ACAD_PROXY_OBJECT
  5
57
102
{ACAD_REACTORS
330
47
102
}
330
47
100
AcDbProxyObject
 90
      499
 91
      503
 93
      113
310
90431303A310000000000000910100
  0
ACAD_PROXY_OBJECT
  5
58
102
{ACAD_REACTORS
330
47
102
}
330
47
100
AcDbProxyObject
 90
      499
 91
      503
 93
      121
310
9053130303A310000000000001650100
  0
ACAD_PROXY_OBJECT
  5
59
102
{ACAD_REACTORS
330
47
102
}
330
47
100
AcDbProxyObject
 90
      499
 91
      503
 93
      257
310
90E312F31323822203D2031272D3022000000000000200FC000000000000284000
  0
ACAD_PROXY_OBJECT
  5
5A
102
{ACAD_REACTORS
330
47
102
}
330
47
100
AcDbProxyObject
 90
      499
 91
      503
 93
      249
310
90D312F363422203D2031272D3022000000000000240FC000000000000284000
  0
ACAD_PROXY_OBJECT
  5
5B
102
{ACAD_REACTORS
330
47
102
}
330
47
100
AcDbProxyObject
 90
      499
 91
      503
 93
      249
310
90D312F333222203D2031272D3022000000000000280FC000000000000284000
  0
ACAD_PROXY_OBJECT
  5
5C
102
{ACAD_REACTORS
330
47
102
}
330
47
100
AcDbProxyObject
 90
      499
 91
      503
 93
      249
310
90D312F313622203D2031272D30220000000000002C0FC000000000000284000
  0
ACAD_PROXY_OBJECT
  5
5D
102
{ACAD_REACTORS
330
47
102
}
330
47
100
AcDbProxyObject
 90
      499
 91
      503
 93
      249
310
90D332F333222203D2031272D30220000000000002E0FC000000000000284000
  0
ACAD_PROXY_OBJECT
  5
5E
102
{ACAD_REACTORS
330
47
102
}
330
47
100
AcDbProxyObject
 90
      499
 91
      503
 93
      241
310
90C312F3822203D2031272D3022000000000000300FC000000000000284000
  0
ACAD_PROXY_OBJECT
  5
5F
102
{ACAD_REACTORS
330
47
102
}
330
47
100
AcDbProxyObject
 90
      499
 91
      503
 93
      249
310
90D332F313622203D2031272D3022000000000000320FC000000000000284000
  0
ACAD_PROXY_OBJECT
  5
60
102
{ACAD_REACTORS
330
47
102
}
330
47
100
AcDbProxyObject
 90
      499
 91
      503
 93
      241
310
90C312F3422203D2031272D3022000000000000340FC000000000000284000
  0
ACAD_PROXY_OBJECT
  5
61
102
{ACAD_REACTORS
330
47
102
}
330
47
100
AcDbProxyObject
 90
      499
 91
      503
 93
      241
310
90C332F3822203D2031272D3022000000000000360FC000000000000284000
  0
ACAD_PROXY_OBJECT
  5
62
102
{ACAD_REACTORS
330
47
102
}
330
47
100
AcDbProxyObject
 90
      499
 91
      503
 93
      241
310
90C312F3222203D2031272D3022000000000000380FC000000000000284000
  0
ACAD_PROXY_OBJECT
  5
63
102
{ACAD_REACTORS
330
47
102
}
330
47
100
AcDbProxyObject
 90
      499
 91
      503
 93
      241
310
90C332F3422203D2031272D30220000000000003A0FC000000000000284000
  0
ACAD_PROXY_OBJECT
  5
64
102
{ACAD_REACTORS
330
47
102
}
330
47
100
AcDbProxyObject
 90
      499
 91
      503
 93
      161
310
90A3122203D2031272D30224000000000000284000
  0
ACAD_PROXY_OBJECT
  5
65
102
{ACAD_REACTORS
330
47
102
}
330
47
100
AcDbProxyObject
 90
      499
 91
      503
 93
      257
310
90E312D312F3222203D2031272D30220000000000003E0FC000000000000284000
  0
ACAD_PROXY_OBJECT
  5
66
102
{ACAD_REACTORS
330
47
102
}
330
47
100
AcDbProxyObject
 90
      499
 91
      503
 93
      225
310
90A3322203D2031272D302200000000000002100000000000000284000
  0
ACAD_PROXY_OBJECT
  5
67
102
{ACAD_REACTORS
330
47
102
}
330
47
100
AcDbProxyObject
 90
      499
 91
      503
 93
      225
310
90A3622203D2031272D302200000000000006100000000000000284000
  0
ACAD_PROXY_OBJECT
  5
68
102
{ACAD_REACTORS
330
47
102
}
330
47
100
AcDbProxyObject
 90
      499
 91
      503
 93
      249
310
90D31272D3022203D2031272D30220000000000000A100000000000000284000
  0
ACAD_PROXY_OBJECT
  5
2F
102
{ACAD_REACTORS
330
2A
102
}
330
2A
100
AcDbProxyObject
 90
      499
 91
      501
 93
      436
310
42CC9915DA5C99599C985B595049028333333333333E33F0000000000000F90107901411070040501600405405064090741402480A0340
1001
ACAD
1000
AcDbSavedByObjectVersion
1070
     0
  0
ACAD_PROXY_OBJECT
  5
32
102
{ACAD_REACTORS
330
2A
102
}
330
2A
100
AcDbProxyObject
 90
      499
 91
      501
 93
      388
310
4150985CDA58D07406404333333333333E33F0000000000000F90107A41107004050150841D405064090741402480A0350
1001
ACAD
1000
AcDbSavedByObjectVersion
1070
     0
  0
ACAD_PROXY_OBJECT
  5
36
102
{ACAD_REACTORS
330
2A
102
}
330
2A
100
AcDbProxyObject
 90
      499
 91
      501
 93
      428
310
42109C9A59DA1D195B90C409028333333333333E33F0000000000000F9010790141107004050150841D405064090741402480A029950
1001
ACAD
1000
AcDbSavedByObjectVersion
1070
     0
  0
ACAD_PROXY_OBJECT
  5
3A
102
{ACAD_REACTORS
330
2A
102
}
330
2A
100
AcDbProxyObject
 90
      499
 91
      501
 93
      452
310
42D0DBDB1BDC90DA185B99D95104090240C333333333333E33F0000000000000F90108901411070040501508421405064090741402480A0350
1001
ACAD
1000
AcDbSavedByObjectVersion
1070
     0
  0
ACAD_PROXY_OBJECT
  5
34
102
{ACAD_REACTORS
330
2A
102
}
330
2A
100
AcDbProxyObject
 90
      499
 91
      501
 93
      500
310
4290DBDB98D95C1D1D585B10940D028333333333333E33F0000000000000F90107902409070040501000000000018199010841D405064090740C02480A0340
1001
ACAD
1000
AcDbSavedByObjectVersion
1070
     0
  0
ACAD_PROXY_OBJECT
  5
35
102
{ACAD_REACTORS
330
2A
102
}
330
2A
100
AcDbProxyObject
 90
      499
 91
      501
 93
      412
310
40D11A5B50B409028333333333333E33F0000000000000F9010790141107004050150841D405064090741402480A02677FFFFFD0
1001
ACAD
1000
AcDbSavedByObjectVersion
1070
     0
  0
ACAD_PROXY_OBJECT
  5
3D
102
{ACAD_REACTORS
330
2A
102
}
330
2A
100
AcDbProxyObject
 90
      499
 91
      501
 93
      452
310
43115919D950DBDB1BDC93D999916409028333333333333E33F0000000000000F9010790141107004050150841D405064090741402480A0350
1001
ACAD
1000
AcDbSavedByObjectVersion
1070
     0
  0
ACAD_PROXY_OBJECT
  5
39
102
{ACAD_REACTORS
330
2A
102
}
330
2A
100
AcDbProxyObject
 90
      499
 91
      501
 93
      444
310
42D19858D95C185D1D195C9B90F409028333333333333E33F0000000000000F9010790141107004050150841D405064090741402480A0350
1001
ACAD
1000
AcDbSavedByObjectVersion
1070
     0
  0
ACAD_PROXY_OBJECT
  5
2B
102
{ACAD_REACTORS
330
2A
102
}
330
2A
100
AcDbProxyObject
 90
      499
 91
      501
 93
      380
310
41119B185D240901404333333333333E33F0000000000000F9010740A907004050150841D405064090741402480A1B50
1001
ACAD
1000
AcDbSavedByObjectVersion
1070
     0
  0
ACAD_PROXY_OBJECT
  5
2C
102
{ACAD_REACTORS
330
2A
102
}
330
2A
100
AcDbProxyObject
 90
      499
 91
      501
 93
      468
310
43519B185D15DA5D1A115919D95CD0140901404333333333333E33F0000000000000F90107409019070040501600405405064090741402480A1B50
1001
ACAD
1000
AcDbSavedByObjectVersion
1070
     0
  0
ACAD_PROXY_OBJECT
  5
2D
102
{ACAD_REACTORS
330
2A
102
}
330
2A
100
AcDbProxyObject
 90
      499
 91
      501
 93
      404
310
41D1DBDD5C985D5910240902404333333333333E33F0000000000000F9010740A9070040501641D405064090741402480A1B50
1001
ACAD
1000
AcDbSavedByObjectVersion
1070
     0
  0
ACAD_PROXY_OBJECT
  5
2E
102
{ACAD_REACTORS
330
2A
102
}
330
2A
100
AcDbProxyObject
 90
      499
 91
      501
 93
      492
310
4411DBDD5C985D5915DA5D1A115919D95CD0340902404333333333333E33F0000000000000F90107409019070040501600405405064090741402480A1B50
1001
ACAD
1000
AcDbSavedByObjectVersion
1070
     0
  0
ACAD_PROXY_OBJECT
  5
31
102
{ACAD_REACTORS
330
2A
102
}
330
2A
100
AcDbProxyObject
 90
      499
 91
      501
 93
      476
310
41921A5919195B90640502408333333333333E33F0000000000000F901079024090700405020000000000001110200405405064090740C02480A0340
1001
ACAD
1000
AcDbSavedByObjectVersion
1070
     0
  0
ACAD_PROXY_OBJECT
  5
3B
102
{ACAD_REACTORS
330
2A
102
}
330
2A
100
AcDbProxyObject
 90
      499
 91
      501
 93
      428
310
42529A5D1D195C93D999914409028333333333333E33F0000000000000F9010790141107004050150A41D405064090741402480A0350
1001
ACAD
1000
AcDbSavedByObjectVersion
1070
     0
  0
ACAD_PROXY_OBJECT
  5
38
102
{ACAD_REACTORS
330
2A
102
}
330
2A
100
AcDbProxyObject
 90
      499
 91
      501
 93
      444
310
42D31A5B995C185D1D195C9B90E409028333333333333E33F0000000000000F9010790141107004050750841D405064090741402483A0350
1001
ACAD
1000
AcDbSavedByObjectVersion
1070
     0
  0
ACAD_PROXY_OBJECT
  5
3C
102
{ACAD_REACTORS
330
2A
102
}
330
2A
100
AcDbProxyObject
 90
      499
 91
      501
 93
      444
310
42D3DD995C9A185B99D3D999915409028333333333333E33F0000000000000F9010790141107004050150941D405064090741402480A0350
1001
ACAD
1000
AcDbSavedByObjectVersion
1070
     0
  0
ACAD_PROXY_OBJECT
  5
33
102
{ACAD_REACTORS
330
2A
102
}
330
2A
100
AcDbProxyObject
 90
      499
 91
      501
 93
      428
310
425499585B1A5CDD1A58D08409038333333333333E33F0000000000000F9010740A907004050150800405405064090740C02480A1B40
1001
ACAD
1000
AcDbSavedByObjectVersion
1070
     0
  0
ACAD_PROXY_OBJECT
  5
42
102
{ACAD_REACTORS
330
2A
102
}
330
2A
100
AcDbProxyObject
 90
      499
 91
      501
 93
      420
310
4194DA1859195911B40902404333333333333E33F0000000000000F9010740A41107004050150800405405064090840C02480A0B40
1001
ACAD
1000
AcDbSavedByObjectVersion
1070
     0
  0
ACAD_PROXY_OBJECT
  5
41
102
{ACAD_REACTORS
330
2A
102
}
330
2A
100
AcDbProxyObject
 90
      499
 91
      501
 93
      516
310
4454DA18591959081DDA5D1A08195919D95CD1A40902404333333333333E33F0000000000000F901074090142907004050250800405405064090740C02480A0B40
1001
ACAD
1000
AcDbSavedByObjectVersion
1070
     0
  0
ACAD_PROXY_OBJECT
  5
3E
102
{ACAD_REACTORS
330
2A
102
}
330
2A
100
AcDbProxyObject
 90
      499
 91
      501
 93
      532
310
4394DA1859195CC81BD98811DC985E5174090240C333333333333E33F0000000000000F901079024090741D01000000000000111010841D405064090740C02480A0340
1001
ACAD
1000
AcDbSavedByObjectVersion
1070
     0
  0
ACAD_PROXY_OBJECT
  5
3F
102
{ACAD_REACTORS
330
2A
102
}
330
2A
100
AcDbProxyObject
 90
      499
 91
      501
 93
      476
310
41D4DAD95D18DA1E51840502408333333333333E33F0000000000000F901079024090741D01000000000000111010B41D405064090741802480A0340
1001
ACAD
1000
AcDbSavedByObjectVersion
1070
     0
  0
ACAD_PROXY_OBJECT
  5
37
102
{ACAD_REACTORS
330
2A
102
}
330
2A
100
AcDbProxyObject
 90
      499
 91
      501
 93
      412
310
41D51A1A58DAD95B90D409028333333333333E33F0000000000000F9010790141107004050150C41D405064090741402480A0350
1001
ACAD
1000
AcDbSavedByObjectVersion
1070
     0
  0
ACAD_PROXY_OBJECT
  5
30
102
{ACAD_REACTORS
330
2A
102
}
330
2A
100
AcDbProxyObject
 90
      499
 91
      501
 93
      420
310
4255DA5C99599C985B595059028333333333333E33F0000000000000F90107901411070040501600405405064090740C02480A0340
1001
ACAD
1000
AcDbSavedByObjectVersion
1070
     0
  0
ACAD_PROXY_OBJECT
  5
40
102
{ACAD_REACTORS
330
2A
102
}
330
2A
100
AcDbProxyObject
 90
      499
 91
      501
 93
      404
310
41560B54985E51940902404000000000000E03F0000000000000F9010740501907004050150841D405064090740C02480A1B40
1001
ACAD
1000
AcDbSavedByObjectVersion
1070
     0
  0
XRECORD
  5
461
102
{ACAD_REACTORS
330
458
102
}
330
458
100
AcDbXrecord
 90
        0
  0
XRECORD
  5
477
102
{ACAD_REACTORS
330
458
102
}
330
458
100
AcDbXrecord
1000
DSTYLE
1002
{
1070
   340
340
11
1002
}
  0
XRECORD
  5
462
102
{ACAD_REACTORS
330
458
102
}
330
458
100
AcDbXrecord
  1
{9BCE97EA-1CFC-45E4-BD46-4D587FAD641F}
  0
XRECORD
  5
45B
102
{ACAD_REACTORS
330
458
102
}
330
458
100
AcDbXrecord
  1

  0
XRECORD
  5
460
102
{ACAD_REACTORS
330
458
102
}
330
458
100
AcDbXrecord
 90
        6
  0
XRECORD
  5
45D
102
{ACAD_REACTORS
330
458
102
}
330
458
100
AcDbXrecord
340
1A
  0
XRECORD
  5
45F
102
{ACAD_REACTORS
330
458
102
}
330
458
100
AcDbXrecord
 90
    10781
  0
XRECORD
  5
45E
102
{ACAD_REACTORS
330
458
102
}
330
458
100
AcDbXrecord
340
19
  0
XRECORD
  5
464
102
{ACAD_REACTORS
330
458
102
}
330
458
100
AcDbXrecord
 40
0.0
  0
XRECORD
  5
467
102
{ACAD_REACTORS
330
458
102
}
330
458
100
AcDbXrecord
340
0
  0
XRECORD
  5
46D
102
{ACAD_REACTORS
330
458
102
}
330
458
100
AcDbXrecord
 10
0.0
 20
0.0
 30
0.0
  0
XRECORD
  5
469
102
{ACAD_REACTORS
330
458
102
}
330
458
100
AcDbXrecord
 10
0.0
 20
0.0
 30
0.0
  0
XRECORD
  5
46C
102
{ACAD_REACTORS
330
458
102
}
330
458
100
AcDbXrecord
 10
0.0
 20
0.0
 30
0.0
  0
XRECORD
  5
46A
102
{ACAD_REACTORS
330
458
102
}
330
458
100
AcDbXrecord
 10
0.0
 20
0.0
 30
0.0
  0
XRECORD
  5
46B
102
{ACAD_REACTORS
330
458
102
}
330
458
100
AcDbXrecord
 10
0.0
 20
0.0
 30
0.0
  0
XRECORD
  5
468
102
{ACAD_REACTORS
330
458
102
}
330
458
100
AcDbXrecord
 10
0.0
 20
0.0
 30
0.0
  0
XRECORD
  5
465
102
{ACAD_REACTORS
330
458
102
}
330
458
100
AcDbXrecord
340
0
  0
XRECORD
  5
466
102
{ACAD_REACTORS
330
458
102
}
330
458
100
AcDbXrecord
 70
     0
  0
XRECORD
  5
45C
102
{ACAD_REACTORS
330
458
102
}
330
458
100
AcDbXrecord
  1

  0
XRECORD
  5
459
102
{ACAD_REACTORS
330
458
102
}
330
458
100
AcDbXrecord
 90
        1
  0
XRECORD
  5
45A
102
{ACAD_REACTORS
330
458
102
}
330
458
100
AcDbXrecord
 90
       70
  0
XRECORD
  5
470
102
{ACAD_REACTORS
330
458
102
}
330
458
100
AcDbXrecord
340
0
  0
XRECORD
  5
476
102
{ACAD_REACTORS
330
458
102
}
330
458
100
AcDbXrecord
 10
0.0
 20
0.0
 30
0.0
  0
XRECORD
  5
472
102
{ACAD_REACTORS
330
458
102
}
330
458
100
AcDbXrecord
 10
0.0
 20
0.0
 30
0.0
  0
XRECORD
  5
475
102
{ACAD_REACTORS
330
458
102
}
330
458
100
AcDbXrecord
 10
0.0
 20
0.0
 30
0.0
  0
XRECORD
  5
473
102
{ACAD_REACTORS
330
458
102
}
330
458
100
AcDbXrecord
 10
0.0
 20
0.0
 30
0.0
  0
XRECORD
  5
474
102
{ACAD_REACTORS
330
458
102
}
330
458
100
AcDbXrecord
 10
0.0
 20
0.0
 30
0.0
  0
XRECORD
  5
471
102
{ACAD_REACTORS
330
458
102
}
330
458
100
AcDbXrecord
 10
0.0
 20
0.0
 30
0.0
  0
XRECORD
  5
46E
102
{ACAD_REACTORS
330
458
102
}
330
458
100
AcDbXrecord
340
0
  0
XRECORD
  5
46F
102
{ACAD_REACTORS
330
458
102
}
330
458
100
AcDbXrecord
 70
     0
  0
XRECORD
  5
463
102
{ACAD_REACTORS
330
458
102
}
330
458
100
AcDbXrecord
  1
{FAEB1C32-E019-11D5-929B-00C0DF256EC4}
  0
DICTIONARYVAR
  5
481
102
{ACAD_REACTORS
330
478
102
}
330
478
100
DictionaryVariables
280
     0
  1
1:1
  0
DICTIONARYVAR
  5
47F
102
{ACAD_REACTORS
330
478
102
}
330
478
100
DictionaryVariables
280
     0
  1
2
  0
DICTIONARYVAR
  5
480
102
{ACAD_REACTORS
330
478
102
}
330
478
100
DictionaryVariables
280
     0
  1
1
  0
DICTIONARYVAR
  5
482
102
{ACAD_REACTORS
330
478
102
}
330
478
100
DictionaryVariables
280
     0
  1
1
  0
DICTIONARYVAR
  5
47C
102
{ACAD_REACTORS
330
478
102
}
330
478
100
DictionaryVariables
280
     0
  1
80.000000
  0
DICTIONARYVAR
  5
47B
102
{ACAD_REACTORS
330
478
102
}
330
478
100
DictionaryVariables
280
     0
  1
5.000000
  0
DICTIONARY
  5
485
330
45
100
AcDbDictionary
280
     1
  3
ACAD_XREC_ROUNDTRIP
360
486
  0
DICTIONARY
  5
483
330
44
100
AcDbDictionary
280
     1
  3
ACAD_XREC_ROUNDTRIP
360
484
  0
DICTIONARY
  5
487
330
46
100
AcDbDictionary
280
     1
  3
ACAD_XREC_ROUNDTRIP
360
488
  0
XRECORD
  5
486
102
{ACAD_REACTORS
330
485
102
}
330
485
100
AcDbXrecord
102
MATERIAL
148
0.0
149
0.0
149
0.0
 93
        0
 94
      127
282
     0
 72
     1
 77
     1
171
     1
175
     1
179
     1
273
     0
  0
XRECORD
  5
484
102
{ACAD_REACTORS
330
483
102
}
330
483
100
AcDbXrecord
102
MATERIAL
148
0.0
149
0.0
149
0.0
 93
        0
 94
      127
282
     0
 72
     1
 77
     1
171
     1
175
     1
179
     1
273
     0
  0
XRECORD
  5
488
102
{ACAD_REACTORS
330
487
102
}
330
487
100
AcDbXrecord
102
MATERIAL
148
0.0
149
0.0
149
0.0
 93
        0
 94
      127
282
     0
 72
     1
 77
     1
171
     1
175
     1
179
     1
273
     0
  0
ENDSEC
  0
EOF
